<?xml version="1.0" encoding="us-ascii" standalone="no"?><svg xmlns="http://www.w3.org/2000/svg" xmlns:xlink="http://www.w3.org/1999/xlink" contentStyleType="text/css" height="1565px" preserveAspectRatio="none" style="width:1448px;height:1565px;background:#FFFFFF;" version="1.1" viewBox="0 0 1448 1565" width="1448px" zoomAndPan="magnify"><defs/><g><text fill="#888888" font-family="sans-serif" font-size="10" lengthAdjust="spacing" textLength="148" x="1286" y="10.3809">Diagram generated at 12/22/23</text><text fill="#000000" font-family="sans-serif" font-size="14" font-weight="bold" lengthAdjust="spacing" textLength="192" x="621" y="38.1113">TMF Schema Class Diagram</text><!--class AckAlarms--><g id="elem_AckAlarms"><rect codeLine="20" fill="#FFFFFF" height="257.4375" id="AckAlarms" rx="2.5" ry="2.5" style="stroke:#181818;stroke-width:0.5;" width="188" x="575" y="59.1875"/><text fill="#000000" font-family="sans-serif" font-size="12" font-style="italic" lengthAdjust="spacing" textLength="41" x="648.5" y="76.6445">&#171;Pivot&#187;</text><text fill="#000000" font-family="sans-serif" font-size="14" lengthAdjust="spacing" textLength="66" x="636" y="93.8145">AckAlarms</text><text fill="#000000" font-family="sans-serif" font-size="14" lengthAdjust="spacing" textLength="5" x="610.5" y="111.4238">(</text><text fill="#000000" font-family="sans-serif" font-size="9" font-style="italic" lengthAdjust="spacing" textLength="17" x="615.5" y="112.5225">from</text><a href="TMF642.svg" target="_top" title="TMF642.svg" xlink:actuate="onRequest" xlink:href="TMF642.svg" xlink:show="new" xlink:title="TMF642.svg" xlink:type="simple"><text fill="#0000FF" font-family="sans-serif" font-size="9" font-style="italic" lengthAdjust="spacing" text-decoration="underline" textLength="60" x="635.5" y="112.5225">TMF642-Alarm</text></a><text fill="#000000" font-family="sans-serif" font-size="9" font-style="italic" lengthAdjust="spacing" textLength="26" x="698.5" y="112.5225">v4.0.0</text><text fill="#000000" font-family="sans-serif" font-size="9" lengthAdjust="spacing" textLength="3" x="724.5" y="112.5225">)</text><line style="stroke:#181818;stroke-width:0.5;" x1="576" x2="762" y1="119.5" y2="119.5"/><text fill="#000000" font-family="sans-serif" font-size="9" font-style="italic" lengthAdjust="spacing" textLength="176" x="581" y="132.8428">Task resource for the acknowledge alarms</text><text fill="#000000" font-family="sans-serif" font-size="9" font-style="italic" lengthAdjust="spacing" textLength="38" x="581" y="144.1631">operation</text><line style="stroke:#181818;stroke-width:1.0;stroke-dasharray:1.0,2.0;" x1="576" x2="762" y1="150.1406" y2="150.1406"/><text fill="#000000" font-family="sans-serif" font-size="14" lengthAdjust="spacing" textLength="128" x="581" y="168.6738">ackSystemId : String</text><text fill="#000000" font-family="sans-serif" font-size="14" lengthAdjust="spacing" textLength="126" x="581" y="186.2832">ackTime : DateTime</text><text fill="#000000" font-family="sans-serif" font-size="14" lengthAdjust="spacing" textLength="111" x="581" y="203.8926">ackUserId : String</text><text fill="#000000" font-family="sans-serif" font-size="14" lengthAdjust="spacing" textLength="74" x="581" y="221.502">href : String</text><text fill="#000000" font-family="sans-serif" font-size="14" lengthAdjust="spacing" textLength="60" x="581" y="239.1113">id : String</text><text fill="#000000" font-family="sans-serif" font-size="14" lengthAdjust="spacing" textLength="80" x="581" y="256.7207">state : String</text><text fill="#000000" font-family="sans-serif" font-size="14" lengthAdjust="spacing" textLength="126" x="581" y="274.3301">@baseType : String</text><text fill="#000000" font-family="sans-serif" font-size="14" lengthAdjust="spacing" textLength="146" x="581" y="291.9395">@schemaLocation : Uri</text><text fill="#000000" font-family="sans-serif" font-size="14" lengthAdjust="spacing" textLength="90" x="581" y="309.5488">@type : String</text></g><!--class AlarmRefOrValue--><g id="elem_AlarmRefOrValue"><rect codeLine="35" fill="#FCF2E3" height="581.5" id="AlarmRefOrValue" rx="2.5" ry="2.5" style="stroke:#181818;stroke-width:0.5;" width="225" x="686.5" y="394.6275"/><a href="Alarm.svg" target="_top" title="Alarm.svg" xlink:actuate="onRequest" xlink:href="Alarm.svg" xlink:show="new" xlink:title="Alarm.svg" xlink:type="simple"><text fill="#0000FF" font-family="sans-serif" font-size="14" lengthAdjust="spacing" text-decoration="underline" textLength="36" x="744" y="414.1607">Alarm</text></a><text fill="#000000" font-family="sans-serif" font-size="14" lengthAdjust="spacing" textLength="74" x="780" y="414.1607">RefOrValue</text><line style="stroke:#181818;stroke-width:0.5;" x1="687.5" x2="910.5" y1="422.2369" y2="422.2369"/><text fill="#000000" font-family="sans-serif" font-size="14" lengthAdjust="spacing" textLength="104" x="692.5" y="440.7701">ackState : String</text><text fill="#000000" font-family="sans-serif" font-size="14" lengthAdjust="spacing" textLength="128" x="692.5" y="458.3795">ackSystemId : String</text><text fill="#000000" font-family="sans-serif" font-size="14" lengthAdjust="spacing" textLength="111" x="692.5" y="475.9888">ackUserId : String</text><text fill="#000000" font-family="sans-serif" font-size="14" lengthAdjust="spacing" textLength="197" x="692.5" y="493.5982">alarmChangedTime : DateTime</text><text fill="#000000" font-family="sans-serif" font-size="14" lengthAdjust="spacing" textLength="189" x="692.5" y="511.2076">alarmClearedTime : DateTime</text><text fill="#000000" font-family="sans-serif" font-size="14" lengthAdjust="spacing" textLength="127" x="692.5" y="528.817">alarmDetails : String</text><text fill="#000000" font-family="sans-serif" font-size="14" lengthAdjust="spacing" textLength="164" x="692.5" y="546.4263">alarmEscalation : Boolean</text><text fill="#000000" font-family="sans-serif" font-size="14" lengthAdjust="spacing" textLength="183" x="692.5" y="564.0357">alarmRaisedTime : DateTime</text><text fill="#000000" font-family="sans-serif" font-size="14" lengthAdjust="spacing" textLength="201" x="692.5" y="581.6451">alarmReportingTime : DateTime</text><text fill="#000000" font-family="sans-serif" font-size="14" lengthAdjust="spacing" textLength="116" x="692.5" y="599.2545">alarmType : String</text><text fill="#000000" font-family="sans-serif" font-size="14" lengthAdjust="spacing" textLength="173" x="692.5" y="616.8638">alarmedObjectType : String</text><text fill="#000000" font-family="sans-serif" font-size="14" lengthAdjust="spacing" textLength="137" x="692.5" y="634.4732">clearSystemId : String</text><text fill="#000000" font-family="sans-serif" font-size="14" lengthAdjust="spacing" textLength="120" x="692.5" y="652.0826">clearUserId : String</text><text fill="#000000" font-family="sans-serif" font-size="14" lengthAdjust="spacing" textLength="146" x="692.5" y="669.692">externalAlarmId : String</text><text fill="#000000" font-family="sans-serif" font-size="14" lengthAdjust="spacing" textLength="74" x="692.5" y="687.3013">href : String</text><text fill="#000000" font-family="sans-serif" font-size="14" lengthAdjust="spacing" textLength="67" x="692.5" y="704.9107">id : Integer</text><text fill="#000000" font-family="sans-serif" font-size="14" lengthAdjust="spacing" textLength="145" x="692.5" y="722.5201">isRootCause : Boolean</text><text fill="#000000" font-family="sans-serif" font-size="14" lengthAdjust="spacing" textLength="84" x="692.5" y="740.1295">name : String</text><text fill="#000000" font-family="sans-serif" font-size="14" lengthAdjust="spacing" textLength="162" x="692.5" y="757.7388">perceivedSeverity : String</text><text fill="#000000" font-family="sans-serif" font-size="14" lengthAdjust="spacing" textLength="201" x="692.5" y="775.3482">plannedOutageIndicator : String</text><text fill="#000000" font-family="sans-serif" font-size="14" lengthAdjust="spacing" textLength="146" x="692.5" y="792.9576">probableCause : String</text><text fill="#000000" font-family="sans-serif" font-size="14" lengthAdjust="spacing" textLength="213" x="692.5" y="810.567">proposedRepairedActions : String</text><text fill="#000000" font-family="sans-serif" font-size="14" lengthAdjust="spacing" textLength="163" x="692.5" y="828.1763">reportingSystemId : String</text><text fill="#000000" font-family="sans-serif" font-size="14" lengthAdjust="spacing" textLength="164" x="692.5" y="845.7857">serviceAffecting : Boolean</text><text fill="#000000" font-family="sans-serif" font-size="14" lengthAdjust="spacing" textLength="149" x="692.5" y="863.3951">sourceSystemId : String</text><text fill="#000000" font-family="sans-serif" font-size="14" lengthAdjust="spacing" textLength="148" x="692.5" y="881.0045">specificProblem : String</text><text fill="#000000" font-family="sans-serif" font-size="14" lengthAdjust="spacing" textLength="80" x="692.5" y="898.6138">state : String</text><text fill="#000000" font-family="sans-serif" font-size="14" lengthAdjust="spacing" textLength="126" x="692.5" y="916.2232">@baseType : String</text><text fill="#000000" font-family="sans-serif" font-size="14" lengthAdjust="spacing" textLength="146" x="692.5" y="933.8326">@referredType : String</text><text fill="#000000" font-family="sans-serif" font-size="14" lengthAdjust="spacing" textLength="166" x="692.5" y="951.442">@schemaLocation : String</text><text fill="#000000" font-family="sans-serif" font-size="14" lengthAdjust="spacing" textLength="90" x="692.5" y="969.0513">@type : String</text></g><!--class AlarmRef--><g id="elem_AlarmRef"><rect codeLine="69" fill="#FFFFE0" height="173.9688" id="AlarmRef" rx="2.5" ry="2.5" style="stroke:#181818;stroke-width:0.5;" width="158" x="1040" y="1064.1875"/><text fill="#000000" font-family="sans-serif" font-size="12" font-style="italic" lengthAdjust="spacing" textLength="33" x="1102.5" y="1081.6445">&#171;Ref&#187;</text><a href="Alarm.svg" target="_top" title="Alarm.svg" xlink:actuate="onRequest" xlink:href="Alarm.svg" xlink:show="new" xlink:title="Alarm.svg" xlink:type="simple"><text fill="#0000FF" font-family="sans-serif" font-size="14" lengthAdjust="spacing" text-decoration="underline" textLength="36" x="1090" y="1098.8145">Alarm</text></a><text fill="#000000" font-family="sans-serif" font-size="14" lengthAdjust="spacing" textLength="22" x="1126" y="1098.8145">Ref</text><line style="stroke:#181818;stroke-width:0.5;" x1="1041" x2="1197" y1="1106.8906" y2="1106.8906"/><text fill="#000000" font-family="sans-serif" font-size="14" lengthAdjust="spacing" textLength="74" x="1046" y="1125.4238">href : String</text><text fill="#000000" font-family="sans-serif" font-size="14" lengthAdjust="spacing" textLength="60" x="1046" y="1143.0332">id : String</text><text fill="#000000" font-family="sans-serif" font-size="14" lengthAdjust="spacing" textLength="84" x="1046" y="1160.6426">name : String</text><text fill="#000000" font-family="sans-serif" font-size="14" lengthAdjust="spacing" textLength="126" x="1046" y="1178.252">@baseType : String</text><text fill="#000000" font-family="sans-serif" font-size="14" lengthAdjust="spacing" textLength="146" x="1046" y="1195.8613">@referredType : String</text><text fill="#000000" font-family="sans-serif" font-size="14" lengthAdjust="spacing" textLength="146" x="1046" y="1213.4707">@schemaLocation : Uri</text><text fill="#000000" font-family="sans-serif" font-size="14" lengthAdjust="spacing" textLength="90" x="1046" y="1231.0801">@type : String</text></g><!--class AlarmedObject--><g id="elem_AlarmedObject"><rect codeLine="79" fill="#FCF2E3" height="123.6563" id="AlarmedObject" rx="2.5" ry="2.5" style="stroke:#181818;stroke-width:0.5;" width="158" x="294" y="1089.3475"/><text fill="#000000" font-family="sans-serif" font-size="14" lengthAdjust="spacing" textLength="93" x="326.5" y="1108.8807">AlarmedObject</text><line style="stroke:#181818;stroke-width:0.5;" x1="295" x2="451" y1="1116.9569" y2="1116.9569"/><text fill="#000000" font-family="sans-serif" font-size="14" lengthAdjust="spacing" textLength="74" x="300" y="1135.4901">href : String</text><text fill="#000000" font-family="sans-serif" font-size="14" lengthAdjust="spacing" textLength="60" x="300" y="1153.0995">id : String</text><text fill="#000000" font-family="sans-serif" font-size="14" lengthAdjust="spacing" textLength="126" x="300" y="1170.7088">@baseType : String</text><text fill="#000000" font-family="sans-serif" font-size="14" lengthAdjust="spacing" textLength="146" x="300" y="1188.3182">@schemaLocation : Uri</text><text fill="#000000" font-family="sans-serif" font-size="14" lengthAdjust="spacing" textLength="90" x="300" y="1205.9276">@type : String</text></g><!--class AffectedService--><g id="elem_AffectedService"><rect codeLine="87" fill="#FCF2E3" height="123.6563" id="AffectedService" rx="2.5" ry="2.5" style="stroke:#181818;stroke-width:0.5;" width="158" x="1035" y="623.5475"/><text fill="#000000" font-family="sans-serif" font-size="14" lengthAdjust="spacing" textLength="99" x="1064.5" y="643.0807">AffectedService</text><line style="stroke:#181818;stroke-width:0.5;" x1="1036" x2="1192" y1="651.1569" y2="651.1569"/><text fill="#000000" font-family="sans-serif" font-size="14" lengthAdjust="spacing" textLength="74" x="1041" y="669.6901">href : String</text><text fill="#000000" font-family="sans-serif" font-size="14" lengthAdjust="spacing" textLength="60" x="1041" y="687.2995">id : String</text><text fill="#000000" font-family="sans-serif" font-size="14" lengthAdjust="spacing" textLength="126" x="1041" y="704.9088">@baseType : String</text><text fill="#000000" font-family="sans-serif" font-size="14" lengthAdjust="spacing" textLength="146" x="1041" y="722.5182">@schemaLocation : Uri</text><text fill="#000000" font-family="sans-serif" font-size="14" lengthAdjust="spacing" textLength="90" x="1041" y="740.1276">@type : String</text></g><!--class RelatedPlaceRefOrValue--><g id="elem_RelatedPlaceRefOrValue"><rect codeLine="95" fill="#FCF2E3" height="176.4844" id="RelatedPlaceRefOrValue" rx="2.5" ry="2.5" style="stroke:#181818;stroke-width:0.5;" width="164" x="7" y="1062.9275"/><text fill="#000000" font-family="sans-serif" font-size="14" lengthAdjust="spacing" textLength="49" x="10" y="1082.4607">Related</text><a href="Place.svg" target="_top" title="Place.svg" xlink:actuate="onRequest" xlink:href="Place.svg" xlink:show="new" xlink:title="Place.svg" xlink:type="simple"><text fill="#0000FF" font-family="sans-serif" font-size="14" lengthAdjust="spacing" text-decoration="underline" textLength="35" x="59" y="1082.4607">Place</text></a><text fill="#000000" font-family="sans-serif" font-size="14" lengthAdjust="spacing" textLength="74" x="94" y="1082.4607">RefOrValue</text><line style="stroke:#181818;stroke-width:0.5;" x1="8" x2="170" y1="1090.5369" y2="1090.5369"/><text fill="#000000" font-family="sans-serif" font-size="14" lengthAdjust="spacing" textLength="74" x="13" y="1109.0701">href : String</text><text fill="#000000" font-family="sans-serif" font-size="14" lengthAdjust="spacing" textLength="60" x="13" y="1126.6795">id : String</text><text fill="#000000" font-family="sans-serif" font-size="14" lengthAdjust="spacing" textLength="84" x="13" y="1144.2888">name : String</text><text fill="#000000" font-family="sans-serif" font-size="14" lengthAdjust="spacing" textLength="73" x="13" y="1161.8982">role : String</text><text fill="#000000" font-family="sans-serif" font-size="14" lengthAdjust="spacing" textLength="126" x="13" y="1179.5076">@baseType : String</text><text fill="#000000" font-family="sans-serif" font-size="14" lengthAdjust="spacing" textLength="146" x="13" y="1197.117">@referredType : String</text><text fill="#000000" font-family="sans-serif" font-size="14" lengthAdjust="spacing" textLength="146" x="13" y="1214.7263">@schemaLocation : Uri</text><text fill="#000000" font-family="sans-serif" font-size="14" lengthAdjust="spacing" textLength="90" x="13" y="1232.3357">@type : String</text></g><!--class CrossedThresholdInformation--><g id="elem_CrossedThresholdInformation"><rect codeLine="106" fill="#FCF2E3" height="194.0938" id="CrossedThresholdInformation" rx="2.5" ry="2.5" style="stroke:#181818;stroke-width:0.5;" width="247" x="531.5" y="1054.1275"/><text fill="#000000" font-family="sans-serif" font-size="14" lengthAdjust="spacing" textLength="187" x="561.5" y="1073.6607">CrossedThresholdInformation</text><line style="stroke:#181818;stroke-width:0.5;" x1="532.5" x2="777.5" y1="1081.7369" y2="1081.7369"/><text fill="#000000" font-family="sans-serif" font-size="14" lengthAdjust="spacing" textLength="103" x="537.5" y="1100.2701">direction : String</text><text fill="#000000" font-family="sans-serif" font-size="14" lengthAdjust="spacing" textLength="116" x="537.5" y="1117.8795">granularity : String</text><text fill="#000000" font-family="sans-serif" font-size="14" lengthAdjust="spacing" textLength="139" x="537.5" y="1135.4888">indicatorName : String</text><text fill="#000000" font-family="sans-serif" font-size="14" lengthAdjust="spacing" textLength="127" x="537.5" y="1153.0982">indicatorUnit : String</text><text fill="#000000" font-family="sans-serif" font-size="14" lengthAdjust="spacing" textLength="144" x="537.5" y="1170.7076">observedValue : String</text><text fill="#000000" font-family="sans-serif" font-size="14" lengthAdjust="spacing" textLength="235" x="537.5" y="1188.317">thresholdCrossingDescription : String</text><text fill="#000000" font-family="sans-serif" font-size="14" lengthAdjust="spacing" textLength="126" x="537.5" y="1205.9263">@baseType : String</text><text fill="#000000" font-family="sans-serif" font-size="14" lengthAdjust="spacing" textLength="146" x="537.5" y="1223.5357">@schemaLocation : Uri</text><text fill="#000000" font-family="sans-serif" font-size="14" lengthAdjust="spacing" textLength="90" x="537.5" y="1241.1451">@type : String</text></g><!--class ThresholdRef--><g id="elem_ThresholdRef"><rect codeLine="118" fill="#FFFFE0" height="173.9688" id="ThresholdRef" rx="2.5" ry="2.5" style="stroke:#181818;stroke-width:0.5;" width="158" x="576" y="1326.2175"/><text fill="#000000" font-family="sans-serif" font-size="12" font-style="italic" lengthAdjust="spacing" textLength="33" x="638.5" y="1343.6745">&#171;Ref&#187;</text><a href="Threshold.svg" target="_top" title="Threshold.svg" xlink:actuate="onRequest" xlink:href="Threshold.svg" xlink:show="new" xlink:title="Threshold.svg" xlink:type="simple"><text fill="#0000FF" font-family="sans-serif" font-size="14" lengthAdjust="spacing" text-decoration="underline" textLength="64" x="612" y="1360.8445">Threshold</text></a><text fill="#000000" font-family="sans-serif" font-size="14" lengthAdjust="spacing" textLength="22" x="676" y="1360.8445">Ref</text><line style="stroke:#181818;stroke-width:0.5;" x1="577" x2="733" y1="1368.9206" y2="1368.9206"/><text fill="#000000" font-family="sans-serif" font-size="14" lengthAdjust="spacing" textLength="74" x="582" y="1387.4538">href : String</text><text fill="#000000" font-family="sans-serif" font-size="14" lengthAdjust="spacing" textLength="60" x="582" y="1405.0632">id : String</text><text fill="#000000" font-family="sans-serif" font-size="14" lengthAdjust="spacing" textLength="84" x="582" y="1422.6726">name : String</text><text fill="#000000" font-family="sans-serif" font-size="14" lengthAdjust="spacing" textLength="126" x="582" y="1440.282">@baseType : String</text><text fill="#000000" font-family="sans-serif" font-size="14" lengthAdjust="spacing" textLength="146" x="582" y="1457.8913">@referredType : String</text><text fill="#000000" font-family="sans-serif" font-size="14" lengthAdjust="spacing" textLength="146" x="582" y="1475.5007">@schemaLocation : Uri</text><text fill="#000000" font-family="sans-serif" font-size="14" lengthAdjust="spacing" textLength="90" x="582" y="1493.1101">@type : String</text></g><!--class Comment--><g id="elem_Comment"><rect codeLine="128" fill="#FCF2E3" height="158.875" id="Comment" rx="2.5" ry="2.5" style="stroke:#181818;stroke-width:0.5;" width="158" x="836" y="1071.7375"/><text fill="#000000" font-family="sans-serif" font-size="14" lengthAdjust="spacing" textLength="60" x="885" y="1091.2707">Comment</text><line style="stroke:#181818;stroke-width:0.5;" x1="837" x2="993" y1="1099.3469" y2="1099.3469"/><text fill="#000000" font-family="sans-serif" font-size="14" lengthAdjust="spacing" textLength="106" x="842" y="1117.8801">comment : String</text><text fill="#000000" font-family="sans-serif" font-size="14" lengthAdjust="spacing" textLength="104" x="842" y="1135.4895">systemId : String</text><text fill="#000000" font-family="sans-serif" font-size="14" lengthAdjust="spacing" textLength="99" x="842" y="1153.0988">time : DateTime</text><text fill="#000000" font-family="sans-serif" font-size="14" lengthAdjust="spacing" textLength="88" x="842" y="1170.7082">userId : String</text><text fill="#000000" font-family="sans-serif" font-size="14" lengthAdjust="spacing" textLength="126" x="842" y="1188.3176">@baseType : String</text><text fill="#000000" font-family="sans-serif" font-size="14" lengthAdjust="spacing" textLength="146" x="842" y="1205.927">@schemaLocation : Uri</text><text fill="#000000" font-family="sans-serif" font-size="14" lengthAdjust="spacing" textLength="90" x="842" y="1223.5363">@type : String</text></g><!--class Alarm--><g id="elem_Alarm"><rect codeLine="138" fill="#FCF2E3" height="546.2813" id="Alarm" rx="2.5" ry="2.5" style="stroke:#181818;stroke-width:0.5;" width="225" x="426.5" y="412.2375"/><text fill="#000000" font-family="sans-serif" font-size="14" lengthAdjust="spacing" textLength="36" x="521" y="431.7707">Alarm</text><line style="stroke:#181818;stroke-width:0.5;" x1="427.5" x2="650.5" y1="439.8469" y2="439.8469"/><text fill="#000000" font-family="sans-serif" font-size="14" lengthAdjust="spacing" textLength="104" x="432.5" y="458.3801">ackState : String</text><text fill="#000000" font-family="sans-serif" font-size="14" lengthAdjust="spacing" textLength="128" x="432.5" y="475.9895">ackSystemId : String</text><text fill="#000000" font-family="sans-serif" font-size="14" lengthAdjust="spacing" textLength="111" x="432.5" y="493.5988">ackUserId : String</text><text fill="#000000" font-family="sans-serif" font-size="14" lengthAdjust="spacing" textLength="197" x="432.5" y="511.2082">alarmChangedTime : DateTime</text><text fill="#000000" font-family="sans-serif" font-size="14" lengthAdjust="spacing" textLength="189" x="432.5" y="528.8176">alarmClearedTime : DateTime</text><text fill="#000000" font-family="sans-serif" font-size="14" lengthAdjust="spacing" textLength="127" x="432.5" y="546.427">alarmDetails : String</text><text fill="#000000" font-family="sans-serif" font-size="14" lengthAdjust="spacing" textLength="164" x="432.5" y="564.0363">alarmEscalation : Boolean</text><text fill="#000000" font-family="sans-serif" font-size="14" lengthAdjust="spacing" textLength="183" x="432.5" y="581.6457">alarmRaisedTime : DateTime</text><text fill="#000000" font-family="sans-serif" font-size="14" lengthAdjust="spacing" textLength="201" x="432.5" y="599.2551">alarmReportingTime : DateTime</text><text fill="#000000" font-family="sans-serif" font-size="14" lengthAdjust="spacing" textLength="116" x="432.5" y="616.8645">alarmType : String</text><text fill="#000000" font-family="sans-serif" font-size="14" lengthAdjust="spacing" textLength="173" x="432.5" y="634.4738">alarmedObjectType : String</text><text fill="#000000" font-family="sans-serif" font-size="14" lengthAdjust="spacing" textLength="137" x="432.5" y="652.0832">clearSystemId : String</text><text fill="#000000" font-family="sans-serif" font-size="14" lengthAdjust="spacing" textLength="120" x="432.5" y="669.6926">clearUserId : String</text><text fill="#000000" font-family="sans-serif" font-size="14" lengthAdjust="spacing" textLength="146" x="432.5" y="687.302">externalAlarmId : String</text><text fill="#000000" font-family="sans-serif" font-size="14" lengthAdjust="spacing" textLength="74" x="432.5" y="704.9113">href : String</text><text fill="#000000" font-family="sans-serif" font-size="14" lengthAdjust="spacing" textLength="67" x="432.5" y="722.5207">id : Integer</text><text fill="#000000" font-family="sans-serif" font-size="14" lengthAdjust="spacing" textLength="145" x="432.5" y="740.1301">isRootCause : Boolean</text><text fill="#000000" font-family="sans-serif" font-size="14" lengthAdjust="spacing" textLength="162" x="432.5" y="757.7395">perceivedSeverity : String</text><text fill="#000000" font-family="sans-serif" font-size="14" lengthAdjust="spacing" textLength="201" x="432.5" y="775.3488">plannedOutageIndicator : String</text><text fill="#000000" font-family="sans-serif" font-size="14" lengthAdjust="spacing" textLength="146" x="432.5" y="792.9582">probableCause : String</text><text fill="#000000" font-family="sans-serif" font-size="14" lengthAdjust="spacing" textLength="213" x="432.5" y="810.5676">proposedRepairedActions : String</text><text fill="#000000" font-family="sans-serif" font-size="14" lengthAdjust="spacing" textLength="163" x="432.5" y="828.177">reportingSystemId : String</text><text fill="#000000" font-family="sans-serif" font-size="14" lengthAdjust="spacing" textLength="164" x="432.5" y="845.7863">serviceAffecting : Boolean</text><text fill="#000000" font-family="sans-serif" font-size="14" lengthAdjust="spacing" textLength="149" x="432.5" y="863.3957">sourceSystemId : String</text><text fill="#000000" font-family="sans-serif" font-size="14" lengthAdjust="spacing" textLength="148" x="432.5" y="881.0051">specificProblem : String</text><text fill="#000000" font-family="sans-serif" font-size="14" lengthAdjust="spacing" textLength="80" x="432.5" y="898.6145">state : String</text><text fill="#000000" font-family="sans-serif" font-size="14" lengthAdjust="spacing" textLength="126" x="432.5" y="916.2238">@baseType : String</text><text fill="#000000" font-family="sans-serif" font-size="14" lengthAdjust="spacing" textLength="166" x="432.5" y="933.8332">@schemaLocation : String</text><text fill="#000000" font-family="sans-serif" font-size="14" lengthAdjust="spacing" textLength="90" x="432.5" y="951.4426">@type : String</text></g><!--link AckAlarms to Alarm--><g id="link_AckAlarms_Alarm"><path codeLine="170" d="M632.3938,328.4344 C624.6438,357.9644 620.6727,373.0739 611.9827,406.1939 " fill="none" id="AckAlarms-Alarm" style="stroke:#181818;stroke-width:1.0;"/><polygon fill="#181818" points="635.44,316.8275,630.0479,321.6156,632.3938,328.4344,637.7859,323.6464,635.44,316.8275" style="stroke:#181818;stroke-width:1.0;"/><polygon fill="#181818" points="610.46,411.9975,616.6131,404.3073,611.7289,407.1612,608.8751,402.277,610.46,411.9975" style="stroke:#181818;stroke-width:1.0;"/><text fill="#000000" font-family="sans-serif" font-size="13" lengthAdjust="spacing" textLength="74" x="628" y="361.1226">alarmPattern</text><text fill="#000000" font-family="sans-serif" font-size="13" lengthAdjust="spacing" textLength="20" x="592.2846" y="401.1443">0..*</text></g><!--link AckAlarms to AlarmRefOrValue--><g id="link_AckAlarms_AlarmRefOrValue"><path codeLine="172" d="M706.172,328.3176 C708.852,338.4376 708.44,336.8975 711,346.6275 C715.09,362.1575 717.7569,372.284 721.9769,388.364 " fill="none" id="AckAlarms-AlarmRefOrValue" style="stroke:#181818;stroke-width:1.0;"/><polygon fill="#181818" points="703.1,316.7175,700.7693,323.5416,706.172,328.3176,708.5027,321.4936,703.1,316.7175" style="stroke:#181818;stroke-width:1.0;"/><polygon fill="#181818" points="723.5,394.1675,725.0844,384.4469,722.2308,389.3313,717.3464,386.4777,723.5,394.1675" style="stroke:#181818;stroke-width:1.0;"/><text fill="#000000" font-family="sans-serif" font-size="13" lengthAdjust="spacing" textLength="69" x="714" y="361.1226">ackedAlarm</text><text fill="#000000" font-family="sans-serif" font-size="13" lengthAdjust="spacing" textLength="20" x="701.2289" y="383.7195">0..*</text></g><!--link AlarmRefOrValue to AffectedService--><g id="link_AlarmRefOrValue_AffectedService"><path codeLine="174" d="M923.83,685.3775 C964.44,685.3775 991.36,685.3775 1028.52,685.3775 " fill="none" id="AlarmRefOrValue-AffectedService" style="stroke:#181818;stroke-width:1.0;"/><polygon fill="#181818" points="911.83,685.3775,917.83,689.3775,923.83,685.3775,917.83,681.3775,911.83,685.3775" style="stroke:#181818;stroke-width:1.0;"/><polygon fill="#181818" points="1034.52,685.3775,1025.52,681.3775,1029.52,685.3775,1025.52,689.3775,1034.52,685.3775" style="stroke:#181818;stroke-width:1.0;"/><text fill="#000000" font-family="sans-serif" font-size="13" lengthAdjust="spacing" textLength="87" x="929.75" y="678.8726">affectedService</text><text fill="#000000" font-family="sans-serif" font-size="13" lengthAdjust="spacing" textLength="20" x="1007.1099" y="699.5498">0..*</text></g><!--link Alarm to AffectedService--><g id="link_Alarm_AffectedService"><path codeLine="176" d="M660.9362,406.5984 C666.4362,402.0484 662.96,405.4575 669,401.5875 C766.25,339.1675 827.4,346.5375 929,401.5875 C1015.36,448.3775 1065.6374,549.2793 1091.6474,617.6793 " fill="none" id="Alarm-AffectedService" style="stroke:#181818;stroke-width:1.0;"/><polygon fill="#181818" points="651.69,414.2475,658.8628,413.505,660.9362,406.5984,653.7634,407.3409,651.69,414.2475" style="stroke:#181818;stroke-width:1.0;"/><polygon fill="#181818" points="1093.78,623.2875,1094.3199,613.4535,1092.0028,618.614,1086.8423,616.2969,1093.78,623.2875" style="stroke:#181818;stroke-width:1.0;"/><text fill="#000000" font-family="sans-serif" font-size="13" lengthAdjust="spacing" textLength="87" x="893.5" y="361.1226">affectedService</text><text fill="#000000" font-family="sans-serif" font-size="13" lengthAdjust="spacing" textLength="20" x="1070.2858" y="612.699">0..*</text></g><!--link AlarmRefOrValue to AlarmRef--><g id="link_AlarmRefOrValue_AlarmRef"><path codeLine="178" d="M919.3739,892.5091 C949.2539,929.0691 977.18,953.5275 1018,976.1275 C1084.55,1012.9775 1307.62,950.0275 1359,1006.1275 C1415.37,1067.6775 1293.9056,1110.0414 1204.0156,1132.2014 " fill="none" id="AlarmRefOrValue-AlarmRef" style="stroke:#181818;stroke-width:1.0;"/><polygon fill="#181818" points="911.78,883.2175,912.4797,890.3946,919.3739,892.5091,918.6741,885.332,911.78,883.2175" style="stroke:#181818;stroke-width:1.0;"/><polygon fill="#181818" points="1198.19,1133.6375,1207.8858,1135.367,1203.0447,1132.4407,1205.971,1127.5996,1198.19,1133.6375" style="stroke:#181818;stroke-width:1.0;"/><text fill="#000000" font-family="sans-serif" font-size="13" lengthAdjust="spacing" textLength="70" x="1370" y="1020.6226">parentAlarm</text><text fill="#000000" font-family="sans-serif" font-size="13" lengthAdjust="spacing" textLength="20" x="1206.1335" y="1128.8741">0..*</text></g><!--link AlarmRefOrValue to AlarmRef--><g id="link_AlarmRefOrValue_AlarmRef"><path codeLine="180" d="M919.3445,888.9373 C949.3945,926.1873 977.45,951.7875 1018,976.1275 C1090.93,1019.8875 1151.77,941.4375 1207,1006.1275 C1226.03,1028.4075 1220.3616,1050.4687 1202.0116,1074.9187 " fill="none" id="AlarmRefOrValue-AlarmRef-1" style="stroke:#181818;stroke-width:1.0;"/><polygon fill="#181818" points="911.81,879.5975,912.464,886.7789,919.3445,888.9373,918.6905,881.7559,911.81,879.5975" style="stroke:#181818;stroke-width:1.0;"/><polygon fill="#181818" points="1198.41,1079.7175,1207.0116,1074.9203,1201.4113,1075.7185,1200.6131,1070.1182,1198.41,1079.7175" style="stroke:#181818;stroke-width:1.0;"/><text fill="#000000" font-family="sans-serif" font-size="13" lengthAdjust="spacing" textLength="91" x="1217" y="1020.6226">correlatedAlarm</text><text fill="#000000" font-family="sans-serif" font-size="13" lengthAdjust="spacing" textLength="20" x="1206.0937" y="1070.3996">0..*</text></g><!--link Alarm to AlarmRef--><g id="link_Alarm_AlarmRef"><path codeLine="182" d="M656.7026,967.0681 C663.3126,973.2981 661.58,970.8575 669,976.1275 C732.47,1021.1875 950.55,967.2775 1018,1006.1275 C1041.69,1019.7675 1057.7831,1036.518 1073.0831,1058.988 " fill="none" id="Alarm-AlarmRef" style="stroke:#181818;stroke-width:1.0;"/><polygon fill="#181818" points="647.97,958.8375,649.5928,965.8636,656.7026,967.0681,655.0798,960.0419,647.97,958.8375" style="stroke:#181818;stroke-width:1.0;"/><polygon fill="#181818" points="1076.46,1063.9475,1074.7009,1054.257,1073.6459,1059.8146,1068.0883,1058.7596,1076.46,1063.9475" style="stroke:#181818;stroke-width:1.0;"/><text fill="#000000" font-family="sans-serif" font-size="13" lengthAdjust="spacing" textLength="70" x="1041" y="1020.6226">parentAlarm</text><text fill="#000000" font-family="sans-serif" font-size="13" lengthAdjust="spacing" textLength="20" x="1051.9448" y="1053.2744">0..*</text></g><!--link Alarm to AlarmRef--><g id="link_Alarm_AlarmRef"><path codeLine="184" d="M657.5699,967.2271 C663.8799,973.3971 661.97,970.7975 669,976.1275 C741.72,1031.1675 783.95,982.3575 872,1006.1275 C892.8,1011.7375 896.73,1016.8475 917,1024.1275 C958.27,1038.9475 972.9,1032.4175 1011,1054.1275 C1020.7,1059.6575 1025.5043,1062.5384 1034.7343,1069.5184 " fill="none" id="Alarm-AlarmRef-1" style="stroke:#181818;stroke-width:1.0;"/><polygon fill="#181818" points="648.99,958.8375,650.4834,965.8923,657.5699,967.2271,656.0765,960.1723,648.99,958.8375" style="stroke:#181818;stroke-width:1.0;"/><polygon fill="#181818" points="1039.52,1073.1375,1034.7542,1064.5185,1035.532,1070.1216,1029.9288,1070.8994,1039.52,1073.1375" style="stroke:#181818;stroke-width:1.0;"/><text fill="#000000" font-family="sans-serif" font-size="13" lengthAdjust="spacing" textLength="91" x="918" y="1020.6226">correlatedAlarm</text><text fill="#000000" font-family="sans-serif" font-size="13" lengthAdjust="spacing" textLength="20" x="1012.1099" y="1063.5225">0..*</text></g><!--link AlarmRefOrValue to AlarmedObject--><g id="link_AlarmRefOrValue_AlarmedObject"><path codeLine="186" d="M677.747,969.115 C672.267,974.585 675.01,971.2875 669,976.1275 C618.42,1016.8575 583.57,976.0775 526,1006.1275 C487.03,1026.4675 454.9336,1055.1909 427.5536,1084.5309 " fill="none" id="AlarmRefOrValue-AlarmedObject" style="stroke:#181818;stroke-width:1.0;"/><polygon fill="#181818" points="686.24,960.6375,679.1676,962.0453,677.747,969.115,684.8193,967.7073,686.24,960.6375" style="stroke:#181818;stroke-width:1.0;"/><polygon fill="#181818" points="423.46,1088.9175,432.5248,1085.0666,426.8713,1085.262,426.676,1079.6085,423.46,1088.9175" style="stroke:#181818;stroke-width:1.0;"/><text fill="#000000" font-family="sans-serif" font-size="13" lengthAdjust="spacing" textLength="84" x="527" y="1020.6226">alarmedObject</text><text fill="#000000" font-family="sans-serif" font-size="13" lengthAdjust="spacing" textLength="22" x="406.0226" y="1078.3093">0..1</text></g><!--link Alarm to AlarmedObject--><g id="link_Alarm_AlarmedObject"><path codeLine="188" d="M415.1177,734.5089 C305.6377,783.2589 156.97,869.1575 86,1006.1275 C54.11,1067.6775 143.92,1035.9975 189,1054.1275 C224.27,1068.3075 256.4417,1084.2545 288.2817,1101.4645 " fill="none" id="Alarm-AlarmedObject" style="stroke:#181818;stroke-width:1.0;"/><polygon fill="#181818" points="426.08,729.6275,418.9717,728.4141,415.1177,734.5089,422.226,735.7223,426.08,729.6275" style="stroke:#181818;stroke-width:1.0;"/><polygon fill="#181818" points="293.56,1104.3175,287.5446,1096.5191,289.1614,1101.94,283.7406,1103.5569,293.56,1104.3175" style="stroke:#181818;stroke-width:1.0;"/><text fill="#000000" font-family="sans-serif" font-size="13" lengthAdjust="spacing" textLength="84" x="87" y="1020.6226">alarmedObject</text><text fill="#000000" font-family="sans-serif" font-size="13" lengthAdjust="spacing" textLength="22" x="264.0704" y="1097.2842">0..1</text></g><!--link AlarmRefOrValue to Comment--><g id="link_AlarmRefOrValue_Comment"><path codeLine="190" d="M919.1593,883.2554 C949.5493,921.6354 977.86,949.0975 1018,976.1275 C1060.74,1004.9075 1098.63,965.2475 1130,1006.1275 C1173.18,1062.3975 1139.23,990.6075 1023,1054.1275 C1013.2,1059.4775 1008.3606,1062.2916 999.0906,1069.2016 " fill="none" id="AlarmRefOrValue-Comment" style="stroke:#181818;stroke-width:1.0;"/><polygon fill="#181818" points="911.71,873.8475,912.2987,881.0345,919.1593,883.2554,918.5706,876.0683,911.71,873.8475" style="stroke:#181818;stroke-width:1.0;"/><polygon fill="#181818" points="994.28,1072.7875,1003.8864,1070.6157,998.2888,1069.7993,999.1053,1064.2017,994.28,1072.7875" style="stroke:#181818;stroke-width:1.0;"/><text fill="#000000" font-family="sans-serif" font-size="13" lengthAdjust="spacing" textLength="54" x="1144" y="1020.6226">comment</text><text fill="#000000" font-family="sans-serif" font-size="13" lengthAdjust="spacing" textLength="20" x="1001.9525" y="1062.8738">0..*</text></g><!--link Alarm to Comment--><g id="link_Alarm_Comment"><path codeLine="192" d="M589.6366,969.4691 C602.2966,993.8691 612.79,1005.6475 633,1024.1275 C687.36,1073.8275 729.06,1023.3775 796,1054.1275 C809.63,1060.3875 818.1427,1065.091 830.7727,1074.031 " fill="none" id="Alarm-Comment" style="stroke:#181818;stroke-width:1.0;"/><polygon fill="#181818" points="584.11,958.8175,583.3228,965.9855,589.6366,969.4691,590.4238,962.3011,584.11,958.8175" style="stroke:#181818;stroke-width:1.0;"/><polygon fill="#181818" points="835.67,1077.4975,830.6351,1069.0329,831.5889,1074.6088,826.0131,1075.5626,835.67,1077.4975" style="stroke:#181818;stroke-width:1.0;"/><text fill="#000000" font-family="sans-serif" font-size="13" lengthAdjust="spacing" textLength="54" x="634" y="1020.6226">comment</text><text fill="#000000" font-family="sans-serif" font-size="13" lengthAdjust="spacing" textLength="20" x="807.9932" y="1067.9886">0..*</text></g><!--link AlarmRefOrValue to RelatedPlaceRefOrValue--><g id="link_AlarmRefOrValue_RelatedPlaceRefOrValue"><path codeLine="194" d="M677.1739,970.5491 C671.7139,975.3691 674.99,971.9475 669,976.1275 C589.15,1031.7875 320.53,965.6575 232,1006.1275 C203.64,1019.0875 181.9801,1036.013 160.3101,1058.223 " fill="none" id="AlarmRefOrValue-RelatedPlaceRefOrValue" style="stroke:#181818;stroke-width:1.0;"/><polygon fill="#181818" points="686.17,962.6075,679.0247,963.5796,677.1739,970.5491,684.3191,969.577,686.17,962.6075" style="stroke:#181818;stroke-width:1.0;"/><polygon fill="#181818" points="156.12,1062.5175,165.2682,1058.8691,159.6118,1058.9387,159.5422,1053.2823,156.12,1062.5175" style="stroke:#181818;stroke-width:1.0;"/><text fill="#000000" font-family="sans-serif" font-size="13" lengthAdjust="spacing" textLength="31" x="233" y="1020.6226">place</text><text fill="#000000" font-family="sans-serif" font-size="13" lengthAdjust="spacing" textLength="20" x="140.8503" y="1052.0232">0..*</text></g><!--link Alarm to RelatedPlaceRefOrValue--><g id="link_Alarm_RelatedPlaceRefOrValue"><path codeLine="196" d="M414.9027,726.2107 C294.3427,771.0507 120.83,856.6575 39,1006.1275 C29.4,1023.6575 28.1881,1037.6009 33.5481,1056.6909 " fill="none" id="Alarm-RelatedPlaceRefOrValue" style="stroke:#181818;stroke-width:1.0;"/><polygon fill="#181818" points="426.15,722.0275,419.132,720.37,414.9027,726.2107,421.9208,727.8682,426.15,722.0275" style="stroke:#181818;stroke-width:1.0;"/><polygon fill="#181818" points="35.17,1062.4675,36.5882,1052.7213,33.8184,1057.6537,28.886,1054.8839,35.17,1062.4675" style="stroke:#181818;stroke-width:1.0;"/><text fill="#000000" font-family="sans-serif" font-size="13" lengthAdjust="spacing" textLength="31" x="40" y="1020.6226">place</text><text fill="#000000" font-family="sans-serif" font-size="13" lengthAdjust="spacing" textLength="20" x="9.8841" y="1051.969">0..*</text></g><!--link AlarmRefOrValue to CrossedThresholdInformation--><g id="link_AlarmRefOrValue_CrossedThresholdInformation"><path codeLine="198" d="M705.3727,987.9381 C696.8027,1015.5481 693.9287,1024.7872 686.6187,1048.3372 " fill="none" id="AlarmRefOrValue-CrossedThresholdInformation" style="stroke:#181818;stroke-width:1.0;"/><polygon fill="#181818" points="708.93,976.4775,703.3311,981.022,705.3727,987.9381,710.9715,983.3936,708.93,976.4775" style="stroke:#181818;stroke-width:1.0;"/><polygon fill="#181818" points="684.84,1054.0675,691.3282,1046.6579,686.3223,1049.2923,683.6879,1044.2863,684.84,1054.0675" style="stroke:#181818;stroke-width:1.0;"/><text fill="#000000" font-family="sans-serif" font-size="13" lengthAdjust="spacing" textLength="165" x="698" y="1020.6226">crossedThresholdInformation</text><text fill="#000000" font-family="sans-serif" font-size="13" lengthAdjust="spacing" textLength="22" x="664.3413" y="1043.2009">0..1</text></g><!--link Alarm to CrossedThresholdInformation--><g id="link_Alarm_CrossedThresholdInformation"><path codeLine="200" d="M416.2653,762.7277 C316.9953,832.3477 209.08,934.8275 285,1024.1275 C311.83,1055.6875 429.66,1041.1275 469,1054.1275 C489.62,1060.9375 505.3149,1067.2447 525.5949,1076.8247 " fill="none" id="Alarm-CrossedThresholdInformation" style="stroke:#181818;stroke-width:1.0;"/><polygon fill="#181818" points="426.09,755.8375,418.8809,756.0077,416.2653,762.7277,423.4744,762.5575,426.09,755.8375" style="stroke:#181818;stroke-width:1.0;"/><polygon fill="#181818" points="531.02,1079.3875,524.5908,1071.9266,526.499,1077.2519,521.1738,1079.1601,531.02,1079.3875" style="stroke:#181818;stroke-width:1.0;"/><text fill="#000000" font-family="sans-serif" font-size="13" lengthAdjust="spacing" textLength="165" x="286" y="1020.6226">crossedThresholdInformation</text><text fill="#000000" font-family="sans-serif" font-size="13" lengthAdjust="spacing" textLength="22" x="501.6383" y="1072.5289">0..1</text></g><!--link CrossedThresholdInformation to ThresholdRef--><g id="link_CrossedThresholdInformation_ThresholdRef"><path codeLine="202" d="M655,1260.6275 C655,1285.9175 655,1295.0375 655,1319.7675 " fill="none" id="CrossedThresholdInformation-ThresholdRef" style="stroke:#181818;stroke-width:1.0;"/><polygon fill="#181818" points="655,1248.6275,651,1254.6275,655,1260.6275,659,1254.6275,655,1248.6275" style="stroke:#181818;stroke-width:1.0;"/><polygon fill="#181818" points="655,1325.7675,659,1316.7675,655,1320.7675,651,1316.7675,655,1325.7675" style="stroke:#181818;stroke-width:1.0;"/><text fill="#000000" font-family="sans-serif" font-size="13" lengthAdjust="spacing" textLength="53" x="656" y="1292.7126">threshold</text><text fill="#000000" font-family="sans-serif" font-size="13" lengthAdjust="spacing" textLength="22" x="632.0891" y="1315.374">0..1</text></g><rect fill="#DDDDDD" height="27.6094" id="_legend" rx="7.5" ry="7.5" style="stroke:#000000;stroke-width:1.0;" width="123" x="655.5" y="1518.1863"/><a href="index.htm" target="_top" title="index.htm" xlink:actuate="onRequest" xlink:href="index.htm" xlink:show="new" xlink:title="index.htm" xlink:type="simple"><text fill="#0000FF" font-family="sans-serif" font-size="14" lengthAdjust="spacing" text-decoration="underline" textLength="113" x="660.5" y="1537.7195">Go to API Catalog</text></a></g></svg>