<?xml version="1.0" encoding="UTF-8" standalone="no"?><svg xmlns="http://www.w3.org/2000/svg" xmlns:xlink="http://www.w3.org/1999/xlink" contentScriptType="application/ecmascript" contentStyleType="text/css" height="1293px" preserveAspectRatio="none" style="width:1448px;height:1293px;" version="1.1" viewBox="0 0 1448 1293" width="1448px" zoomAndPan="magnify"><defs><filter height="300%" id="f1qby8yqx2ihbz" width="300%" x="-1" y="-1"><feGaussianBlur result="blurOut" stdDeviation="2.0"/><feColorMatrix in="blurOut" result="blurOut2" type="matrix" values="0 0 0 0 0 0 0 0 0 0 0 0 0 0 0 0 0 0 .4 0"/><feOffset dx="4.0" dy="4.0" in="blurOut2" result="blurOut3"/><feBlend in="SourceGraphic" in2="blurOut3" mode="normal"/></filter></defs><g><!--class ClearAlarms--><rect fill="#FFFFFF" filter="url(#f1qby8yqx2ihbz)" height="192.0313" id="ClearAlarms" style="stroke: #A80036; stroke-width: 1.5;" width="179" x="641" y="7.97"/><text fill="#000000" font-family="sans-serif" font-size="12" lengthAdjust="spacingAndGlyphs" textLength="69" x="696" y="25.427">ClearAlarms</text><text fill="#000000" font-family="sans-serif" font-size="12" lengthAdjust="spacingAndGlyphs" textLength="4" x="672.5" y="40.5208">(</text><text fill="#000000" font-family="sans-serif" font-size="9" font-style="italic" lengthAdjust="spacingAndGlyphs" textLength="17" x="676.5" y="41.18">from</text><a target="_top" xlink:actuate="onRequest" xlink:href="TMF642.svg" xlink:show="new" xlink:title="TMF642.svg" xlink:type="simple"><text fill="#0000FF" font-family="sans-serif" font-size="9" font-style="italic" lengthAdjust="spacingAndGlyphs" text-decoration="underline" textLength="60" x="696.5" y="41.18">TMF642-Alarm</text><line style="stroke: #0000FF; stroke-width: 1.0;" x1="696.5" x2="756.5" y1="43.18" y2="43.18"/></a><text fill="#000000" font-family="sans-serif" font-size="9" font-style="italic" lengthAdjust="spacingAndGlyphs" textLength="26" x="759.5" y="41.18">v4.0.0</text><text fill="#000000" font-family="sans-serif" font-size="9" lengthAdjust="spacingAndGlyphs" textLength="3" x="785.5" y="41.18">)</text><line style="stroke: #A80036; stroke-width: 1.5;" x1="642" x2="819" y1="48.1575" y2="48.1575"/><text fill="#000000" font-family="sans-serif" font-size="9" font-style="italic" lengthAdjust="spacingAndGlyphs" textLength="167" x="647" y="61.5003">Task resource for clear alarms operation</text><line style="stroke: #A80036; stroke-width: 1.0; stroke-dasharray: 1.0,2.0;" x1="642" x2="819" y1="67.4778" y2="67.4778"/><text fill="#000000" font-family="sans-serif" font-size="11" lengthAdjust="spacingAndGlyphs" textLength="138" x="647" y="82.8968">alarmClearedTime : DateTime</text><text fill="#000000" font-family="sans-serif" font-size="11" lengthAdjust="spacingAndGlyphs" textLength="105" x="647" y="96.7327">clearSystemId : String</text><text fill="#000000" font-family="sans-serif" font-size="11" lengthAdjust="spacingAndGlyphs" textLength="92" x="647" y="110.5686">clearUserId : String</text><text fill="#000000" font-family="sans-serif" font-size="11" lengthAdjust="spacingAndGlyphs" textLength="57" x="647" y="124.4046">href : String</text><text fill="#000000" font-family="sans-serif" font-size="11" lengthAdjust="spacingAndGlyphs" textLength="45" x="647" y="138.2405">id : String</text><text fill="#000000" font-family="sans-serif" font-size="11" lengthAdjust="spacingAndGlyphs" textLength="61" x="647" y="152.0764">state : String</text><text fill="#000000" font-family="sans-serif" font-size="11" lengthAdjust="spacingAndGlyphs" textLength="96" x="647" y="165.9124">@baseType : String</text><text fill="#000000" font-family="sans-serif" font-size="11" lengthAdjust="spacingAndGlyphs" textLength="112" x="647" y="179.7483">@schemaLocation : Uri</text><text fill="#000000" font-family="sans-serif" font-size="11" lengthAdjust="spacingAndGlyphs" textLength="69" x="647" y="193.5843">@type : String</text><!--class Alarm--><rect fill="#FCF2E3" filter="url(#f1qby8yqx2ihbz)" height="434.3359" id="Alarm" style="stroke: #A80036; stroke-width: 1.5;" width="175" x="964" y="312"/><text fill="#000000" font-family="sans-serif" font-size="12" lengthAdjust="spacingAndGlyphs" textLength="32" x="1035.5" y="329.457">Alarm</text><line style="stroke: #A80036; stroke-width: 1.5;" x1="965" x2="1138" y1="337.0938" y2="337.0938"/><text fill="#000000" font-family="sans-serif" font-size="11" lengthAdjust="spacingAndGlyphs" textLength="79" x="970" y="352.5127">ackState : String</text><text fill="#000000" font-family="sans-serif" font-size="11" lengthAdjust="spacingAndGlyphs" textLength="98" x="970" y="366.3486">ackSystemId : String</text><text fill="#000000" font-family="sans-serif" font-size="11" lengthAdjust="spacingAndGlyphs" textLength="85" x="970" y="380.1846">ackUserId : String</text><text fill="#000000" font-family="sans-serif" font-size="11" lengthAdjust="spacingAndGlyphs" textLength="144" x="970" y="394.0205">alarmChangedTime : DateTime</text><text fill="#000000" font-family="sans-serif" font-size="11" lengthAdjust="spacingAndGlyphs" textLength="138" x="970" y="407.8564">alarmClearedTime : DateTime</text><text fill="#000000" font-family="sans-serif" font-size="11" lengthAdjust="spacingAndGlyphs" textLength="95" x="970" y="421.6924">alarmDetails : String</text><text fill="#000000" font-family="sans-serif" font-size="11" lengthAdjust="spacingAndGlyphs" textLength="123" x="970" y="435.5283">alarmEscalation : Boolean</text><text fill="#000000" font-family="sans-serif" font-size="11" lengthAdjust="spacingAndGlyphs" textLength="134" x="970" y="449.3643">alarmRaisedTime : DateTime</text><text fill="#000000" font-family="sans-serif" font-size="11" lengthAdjust="spacingAndGlyphs" textLength="147" x="970" y="463.2002">alarmReportingTime : DateTime</text><text fill="#000000" font-family="sans-serif" font-size="11" lengthAdjust="spacingAndGlyphs" textLength="87" x="970" y="477.0361">alarmType : String</text><text fill="#000000" font-family="sans-serif" font-size="11" lengthAdjust="spacingAndGlyphs" textLength="130" x="970" y="490.8721">alarmedObjectType : String</text><text fill="#000000" font-family="sans-serif" font-size="11" lengthAdjust="spacingAndGlyphs" textLength="105" x="970" y="504.708">clearSystemId : String</text><text fill="#000000" font-family="sans-serif" font-size="11" lengthAdjust="spacingAndGlyphs" textLength="92" x="970" y="518.5439">clearUserId : String</text><text fill="#000000" font-family="sans-serif" font-size="11" lengthAdjust="spacingAndGlyphs" textLength="112" x="970" y="532.3799">externalAlarmId : String</text><text fill="#000000" font-family="sans-serif" font-size="11" lengthAdjust="spacingAndGlyphs" textLength="57" x="970" y="546.2158">href : String</text><text fill="#000000" font-family="sans-serif" font-size="11" lengthAdjust="spacingAndGlyphs" textLength="50" x="970" y="560.0518">id : Integer</text><text fill="#000000" font-family="sans-serif" font-size="11" lengthAdjust="spacingAndGlyphs" textLength="109" x="970" y="573.8877">isRootCause : Boolean</text><text fill="#000000" font-family="sans-serif" font-size="11" lengthAdjust="spacingAndGlyphs" textLength="125" x="970" y="587.7236">perceivedSeverity : String</text><text fill="#000000" font-family="sans-serif" font-size="11" lengthAdjust="spacingAndGlyphs" textLength="151" x="970" y="601.5596">plannedOutageIndicator : String</text><text fill="#000000" font-family="sans-serif" font-size="11" lengthAdjust="spacingAndGlyphs" textLength="110" x="970" y="615.3955">probableCause : String</text><text fill="#000000" font-family="sans-serif" font-size="11" lengthAdjust="spacingAndGlyphs" textLength="163" x="970" y="629.2314">proposedRepairedActions : String</text><text fill="#000000" font-family="sans-serif" font-size="11" lengthAdjust="spacingAndGlyphs" textLength="124" x="970" y="643.0674">reportingSystemId : String</text><text fill="#000000" font-family="sans-serif" font-size="11" lengthAdjust="spacingAndGlyphs" textLength="129" x="970" y="656.9033">serviceAffecting : Boolean</text><text fill="#000000" font-family="sans-serif" font-size="11" lengthAdjust="spacingAndGlyphs" textLength="115" x="970" y="670.7393">sourceSystemId : String</text><text fill="#000000" font-family="sans-serif" font-size="11" lengthAdjust="spacingAndGlyphs" textLength="113" x="970" y="684.5752">specificProblem : String</text><text fill="#000000" font-family="sans-serif" font-size="11" lengthAdjust="spacingAndGlyphs" textLength="61" x="970" y="698.4111">state : String</text><text fill="#000000" font-family="sans-serif" font-size="11" lengthAdjust="spacingAndGlyphs" textLength="96" x="970" y="712.2471">@baseType : String</text><text fill="#000000" font-family="sans-serif" font-size="11" lengthAdjust="spacingAndGlyphs" textLength="127" x="970" y="726.083">@schemaLocation : String</text><text fill="#000000" font-family="sans-serif" font-size="11" lengthAdjust="spacingAndGlyphs" textLength="69" x="970" y="739.9189">@type : String</text><!--class AlarmRef--><rect fill="#FFFFE0" filter="url(#f1qby8yqx2ihbz)" height="129.9453" id="AlarmRef" style="stroke: #A80036; stroke-width: 1.5;" width="124" x="1051.5" y="892"/><a target="_top" xlink:actuate="onRequest" xlink:href="Alarm.svg" xlink:show="new" xlink:title="Alarm.svg" xlink:type="simple"><text fill="#0000FF" font-family="sans-serif" font-size="12" lengthAdjust="spacingAndGlyphs" text-decoration="underline" textLength="32" x="1088" y="909.457">Alarm</text><line style="stroke: #0000FF; stroke-width: 1.0;" x1="1088" x2="1120" y1="911.457" y2="911.457"/></a><text fill="#000000" font-family="sans-serif" font-size="12" lengthAdjust="spacingAndGlyphs" textLength="19" x="1120" y="909.457">Ref</text><line style="stroke: #A80036; stroke-width: 1.5;" x1="1052.5" x2="1174.5" y1="917.0938" y2="917.0938"/><text fill="#000000" font-family="sans-serif" font-size="11" lengthAdjust="spacingAndGlyphs" textLength="57" x="1057.5" y="932.5127">href : String</text><text fill="#000000" font-family="sans-serif" font-size="11" lengthAdjust="spacingAndGlyphs" textLength="45" x="1057.5" y="946.3486">id : String</text><text fill="#000000" font-family="sans-serif" font-size="11" lengthAdjust="spacingAndGlyphs" textLength="63" x="1057.5" y="960.1846">name : String</text><text fill="#000000" font-family="sans-serif" font-size="11" lengthAdjust="spacingAndGlyphs" textLength="96" x="1057.5" y="974.0205">@baseType : String</text><text fill="#000000" font-family="sans-serif" font-size="11" lengthAdjust="spacingAndGlyphs" textLength="112" x="1057.5" y="987.8564">@referredType : String</text><text fill="#000000" font-family="sans-serif" font-size="11" lengthAdjust="spacingAndGlyphs" textLength="112" x="1057.5" y="1001.6924">@schemaLocation : Uri</text><text fill="#000000" font-family="sans-serif" font-size="11" lengthAdjust="spacingAndGlyphs" textLength="69" x="1057.5" y="1015.5283">@type : String</text><!--class AlarmedObject--><rect fill="#FCF2E3" filter="url(#f1qby8yqx2ihbz)" height="102.2734" id="AlarmedObject" style="stroke: #A80036; stroke-width: 1.5;" width="124" x="313.5" y="905.5"/><text fill="#000000" font-family="sans-serif" font-size="12" lengthAdjust="spacingAndGlyphs" textLength="81" x="335" y="922.957">AlarmedObject</text><line style="stroke: #A80036; stroke-width: 1.5;" x1="314.5" x2="436.5" y1="930.5938" y2="930.5938"/><text fill="#000000" font-family="sans-serif" font-size="11" lengthAdjust="spacingAndGlyphs" textLength="57" x="319.5" y="946.0127">href : String</text><text fill="#000000" font-family="sans-serif" font-size="11" lengthAdjust="spacingAndGlyphs" textLength="45" x="319.5" y="959.8486">id : String</text><text fill="#000000" font-family="sans-serif" font-size="11" lengthAdjust="spacingAndGlyphs" textLength="96" x="319.5" y="973.6846">@baseType : String</text><text fill="#000000" font-family="sans-serif" font-size="11" lengthAdjust="spacingAndGlyphs" textLength="112" x="319.5" y="987.5205">@schemaLocation : Uri</text><text fill="#000000" font-family="sans-serif" font-size="11" lengthAdjust="spacingAndGlyphs" textLength="69" x="319.5" y="1001.3564">@type : String</text><!--class AffectedService--><rect fill="#FCF2E3" filter="url(#f1qby8yqx2ihbz)" height="102.2734" id="AffectedService" style="stroke: #A80036; stroke-width: 1.5;" width="124" x="668.5" y="478"/><text fill="#000000" font-family="sans-serif" font-size="12" lengthAdjust="spacingAndGlyphs" textLength="83" x="689" y="495.457">AffectedService</text><line style="stroke: #A80036; stroke-width: 1.5;" x1="669.5" x2="791.5" y1="503.0938" y2="503.0938"/><text fill="#000000" font-family="sans-serif" font-size="11" lengthAdjust="spacingAndGlyphs" textLength="57" x="674.5" y="518.5127">href : String</text><text fill="#000000" font-family="sans-serif" font-size="11" lengthAdjust="spacingAndGlyphs" textLength="45" x="674.5" y="532.3486">id : String</text><text fill="#000000" font-family="sans-serif" font-size="11" lengthAdjust="spacingAndGlyphs" textLength="96" x="674.5" y="546.1846">@baseType : String</text><text fill="#000000" font-family="sans-serif" font-size="11" lengthAdjust="spacingAndGlyphs" textLength="112" x="674.5" y="560.0205">@schemaLocation : Uri</text><text fill="#000000" font-family="sans-serif" font-size="11" lengthAdjust="spacingAndGlyphs" textLength="69" x="674.5" y="573.8564">@type : String</text><!--class RelatedPlaceRefOrValue--><rect fill="#FCF2E3" filter="url(#f1qby8yqx2ihbz)" height="143.7813" id="RelatedPlaceRefOrValue" style="stroke: #A80036; stroke-width: 1.5;" width="143" x="30" y="885"/><text fill="#000000" font-family="sans-serif" font-size="12" lengthAdjust="spacingAndGlyphs" textLength="43" x="33" y="902.457">Related</text><a target="_top" xlink:actuate="onRequest" xlink:href="Place.svg" xlink:show="new" xlink:title="Place.svg" xlink:type="simple"><text fill="#0000FF" font-family="sans-serif" font-size="12" lengthAdjust="spacingAndGlyphs" text-decoration="underline" textLength="31" x="76" y="902.457">Place</text><line style="stroke: #0000FF; stroke-width: 1.0;" x1="76" x2="107" y1="904.457" y2="904.457"/></a><text fill="#000000" font-family="sans-serif" font-size="12" lengthAdjust="spacingAndGlyphs" textLength="63" x="107" y="902.457">RefOrValue</text><line style="stroke: #A80036; stroke-width: 1.5;" x1="31" x2="172" y1="910.0938" y2="910.0938"/><text fill="#000000" font-family="sans-serif" font-size="11" lengthAdjust="spacingAndGlyphs" textLength="57" x="36" y="925.5127">href : String</text><text fill="#000000" font-family="sans-serif" font-size="11" lengthAdjust="spacingAndGlyphs" textLength="45" x="36" y="939.3486">id : String</text><text fill="#000000" font-family="sans-serif" font-size="11" lengthAdjust="spacingAndGlyphs" textLength="63" x="36" y="953.1846">name : String</text><text fill="#000000" font-family="sans-serif" font-size="11" lengthAdjust="spacingAndGlyphs" textLength="55" x="36" y="967.0205">role : String</text><text fill="#000000" font-family="sans-serif" font-size="11" lengthAdjust="spacingAndGlyphs" textLength="96" x="36" y="980.8564">@baseType : String</text><text fill="#000000" font-family="sans-serif" font-size="11" lengthAdjust="spacingAndGlyphs" textLength="112" x="36" y="994.6924">@referredType : String</text><text fill="#000000" font-family="sans-serif" font-size="11" lengthAdjust="spacingAndGlyphs" textLength="112" x="36" y="1008.5283">@schemaLocation : Uri</text><text fill="#000000" font-family="sans-serif" font-size="11" lengthAdjust="spacingAndGlyphs" textLength="69" x="36" y="1022.3643">@type : String</text><!--class CrossedThresholdInformation--><rect fill="#FCF2E3" filter="url(#f1qby8yqx2ihbz)" height="157.6172" id="CrossedThresholdInformation" style="stroke: #A80036; stroke-width: 1.5;" width="191" x="549" y="878"/><text fill="#000000" font-family="sans-serif" font-size="12" lengthAdjust="spacingAndGlyphs" textLength="166" x="561.5" y="895.457">CrossedThresholdInformation</text><line style="stroke: #A80036; stroke-width: 1.5;" x1="550" x2="739" y1="903.0938" y2="903.0938"/><text fill="#000000" font-family="sans-serif" font-size="11" lengthAdjust="spacingAndGlyphs" textLength="78" x="555" y="918.5127">direction : String</text><text fill="#000000" font-family="sans-serif" font-size="11" lengthAdjust="spacingAndGlyphs" textLength="88" x="555" y="932.3486">granularity : String</text><text fill="#000000" font-family="sans-serif" font-size="11" lengthAdjust="spacingAndGlyphs" textLength="105" x="555" y="946.1846">indicatorName : String</text><text fill="#000000" font-family="sans-serif" font-size="11" lengthAdjust="spacingAndGlyphs" textLength="96" x="555" y="960.0205">indicatorUnit : String</text><text fill="#000000" font-family="sans-serif" font-size="11" lengthAdjust="spacingAndGlyphs" textLength="111" x="555" y="973.8564">observedValue : String</text><text fill="#000000" font-family="sans-serif" font-size="11" lengthAdjust="spacingAndGlyphs" textLength="179" x="555" y="987.6924">thresholdCrossingDescription : String</text><text fill="#000000" font-family="sans-serif" font-size="11" lengthAdjust="spacingAndGlyphs" textLength="96" x="555" y="1001.5283">@baseType : String</text><text fill="#000000" font-family="sans-serif" font-size="11" lengthAdjust="spacingAndGlyphs" textLength="112" x="555" y="1015.3643">@schemaLocation : Uri</text><text fill="#000000" font-family="sans-serif" font-size="11" lengthAdjust="spacingAndGlyphs" textLength="69" x="555" y="1029.2002">@type : String</text><!--class ThresholdRef--><rect fill="#FFFFE0" filter="url(#f1qby8yqx2ihbz)" height="129.9453" id="ThresholdRef" style="stroke: #A80036; stroke-width: 1.5;" width="124" x="582.5" y="1153"/><a target="_top" xlink:actuate="onRequest" xlink:href="Threshold.svg" xlink:show="new" xlink:title="Threshold.svg" xlink:type="simple"><text fill="#0000FF" font-family="sans-serif" font-size="12" lengthAdjust="spacingAndGlyphs" text-decoration="underline" textLength="56" x="607" y="1170.457">Threshold</text><line style="stroke: #0000FF; stroke-width: 1.0;" x1="607" x2="663" y1="1172.457" y2="1172.457"/></a><text fill="#000000" font-family="sans-serif" font-size="12" lengthAdjust="spacingAndGlyphs" textLength="19" x="663" y="1170.457">Ref</text><line style="stroke: #A80036; stroke-width: 1.5;" x1="583.5" x2="705.5" y1="1178.0938" y2="1178.0938"/><text fill="#000000" font-family="sans-serif" font-size="11" lengthAdjust="spacingAndGlyphs" textLength="57" x="588.5" y="1193.5127">href : String</text><text fill="#000000" font-family="sans-serif" font-size="11" lengthAdjust="spacingAndGlyphs" textLength="45" x="588.5" y="1207.3486">id : String</text><text fill="#000000" font-family="sans-serif" font-size="11" lengthAdjust="spacingAndGlyphs" textLength="63" x="588.5" y="1221.1846">name : String</text><text fill="#000000" font-family="sans-serif" font-size="11" lengthAdjust="spacingAndGlyphs" textLength="96" x="588.5" y="1235.0205">@baseType : String</text><text fill="#000000" font-family="sans-serif" font-size="11" lengthAdjust="spacingAndGlyphs" textLength="112" x="588.5" y="1248.8564">@referredType : String</text><text fill="#000000" font-family="sans-serif" font-size="11" lengthAdjust="spacingAndGlyphs" textLength="112" x="588.5" y="1262.6924">@schemaLocation : Uri</text><text fill="#000000" font-family="sans-serif" font-size="11" lengthAdjust="spacingAndGlyphs" textLength="69" x="588.5" y="1276.5283">@type : String</text><!--class Comment--><rect fill="#FCF2E3" filter="url(#f1qby8yqx2ihbz)" height="129.9453" id="Comment" style="stroke: #A80036; stroke-width: 1.5;" width="124" x="837.5" y="892"/><text fill="#000000" font-family="sans-serif" font-size="12" lengthAdjust="spacingAndGlyphs" textLength="55" x="872" y="909.457">Comment</text><line style="stroke: #A80036; stroke-width: 1.5;" x1="838.5" x2="960.5" y1="917.0938" y2="917.0938"/><text fill="#000000" font-family="sans-serif" font-size="11" lengthAdjust="spacingAndGlyphs" textLength="80" x="843.5" y="932.5127">comment : String</text><text fill="#000000" font-family="sans-serif" font-size="11" lengthAdjust="spacingAndGlyphs" textLength="80" x="843.5" y="946.3486">systemId : String</text><text fill="#000000" font-family="sans-serif" font-size="11" lengthAdjust="spacingAndGlyphs" textLength="72" x="843.5" y="960.1846">time : DateTime</text><text fill="#000000" font-family="sans-serif" font-size="11" lengthAdjust="spacingAndGlyphs" textLength="67" x="843.5" y="974.0205">userId : String</text><text fill="#000000" font-family="sans-serif" font-size="11" lengthAdjust="spacingAndGlyphs" textLength="96" x="843.5" y="987.8564">@baseType : String</text><text fill="#000000" font-family="sans-serif" font-size="11" lengthAdjust="spacingAndGlyphs" textLength="112" x="843.5" y="1001.6924">@schemaLocation : Uri</text><text fill="#000000" font-family="sans-serif" font-size="11" lengthAdjust="spacingAndGlyphs" textLength="69" x="843.5" y="1015.5283">@type : String</text><!--class AlarmRefOrValue--><rect fill="#FCF2E3" filter="url(#f1qby8yqx2ihbz)" height="462.0078" id="AlarmRefOrValue" style="stroke: #A80036; stroke-width: 1.5;" width="175" x="322" y="298"/><a target="_top" xlink:actuate="onRequest" xlink:href="Alarm.svg" xlink:show="new" xlink:title="Alarm.svg" xlink:type="simple"><text fill="#0000FF" font-family="sans-serif" font-size="12" lengthAdjust="spacingAndGlyphs" text-decoration="underline" textLength="32" x="362" y="315.457">Alarm</text><line style="stroke: #0000FF; stroke-width: 1.0;" x1="362" x2="394" y1="317.457" y2="317.457"/></a><text fill="#000000" font-family="sans-serif" font-size="12" lengthAdjust="spacingAndGlyphs" textLength="63" x="394" y="315.457">RefOrValue</text><line style="stroke: #A80036; stroke-width: 1.5;" x1="323" x2="496" y1="323.0938" y2="323.0938"/><text fill="#000000" font-family="sans-serif" font-size="11" lengthAdjust="spacingAndGlyphs" textLength="79" x="328" y="338.5127">ackState : String</text><text fill="#000000" font-family="sans-serif" font-size="11" lengthAdjust="spacingAndGlyphs" textLength="98" x="328" y="352.3486">ackSystemId : String</text><text fill="#000000" font-family="sans-serif" font-size="11" lengthAdjust="spacingAndGlyphs" textLength="85" x="328" y="366.1846">ackUserId : String</text><text fill="#000000" font-family="sans-serif" font-size="11" lengthAdjust="spacingAndGlyphs" textLength="144" x="328" y="380.0205">alarmChangedTime : DateTime</text><text fill="#000000" font-family="sans-serif" font-size="11" lengthAdjust="spacingAndGlyphs" textLength="138" x="328" y="393.8564">alarmClearedTime : DateTime</text><text fill="#000000" font-family="sans-serif" font-size="11" lengthAdjust="spacingAndGlyphs" textLength="95" x="328" y="407.6924">alarmDetails : String</text><text fill="#000000" font-family="sans-serif" font-size="11" lengthAdjust="spacingAndGlyphs" textLength="123" x="328" y="421.5283">alarmEscalation : Boolean</text><text fill="#000000" font-family="sans-serif" font-size="11" lengthAdjust="spacingAndGlyphs" textLength="134" x="328" y="435.3643">alarmRaisedTime : DateTime</text><text fill="#000000" font-family="sans-serif" font-size="11" lengthAdjust="spacingAndGlyphs" textLength="147" x="328" y="449.2002">alarmReportingTime : DateTime</text><text fill="#000000" font-family="sans-serif" font-size="11" lengthAdjust="spacingAndGlyphs" textLength="87" x="328" y="463.0361">alarmType : String</text><text fill="#000000" font-family="sans-serif" font-size="11" lengthAdjust="spacingAndGlyphs" textLength="130" x="328" y="476.8721">alarmedObjectType : String</text><text fill="#000000" font-family="sans-serif" font-size="11" lengthAdjust="spacingAndGlyphs" textLength="105" x="328" y="490.708">clearSystemId : String</text><text fill="#000000" font-family="sans-serif" font-size="11" lengthAdjust="spacingAndGlyphs" textLength="92" x="328" y="504.5439">clearUserId : String</text><text fill="#000000" font-family="sans-serif" font-size="11" lengthAdjust="spacingAndGlyphs" textLength="112" x="328" y="518.3799">externalAlarmId : String</text><text fill="#000000" font-family="sans-serif" font-size="11" lengthAdjust="spacingAndGlyphs" textLength="57" x="328" y="532.2158">href : String</text><text fill="#000000" font-family="sans-serif" font-size="11" lengthAdjust="spacingAndGlyphs" textLength="50" x="328" y="546.0518">id : Integer</text><text fill="#000000" font-family="sans-serif" font-size="11" lengthAdjust="spacingAndGlyphs" textLength="109" x="328" y="559.8877">isRootCause : Boolean</text><text fill="#000000" font-family="sans-serif" font-size="11" lengthAdjust="spacingAndGlyphs" textLength="63" x="328" y="573.7236">name : String</text><text fill="#000000" font-family="sans-serif" font-size="11" lengthAdjust="spacingAndGlyphs" textLength="125" x="328" y="587.5596">perceivedSeverity : String</text><text fill="#000000" font-family="sans-serif" font-size="11" lengthAdjust="spacingAndGlyphs" textLength="151" x="328" y="601.3955">plannedOutageIndicator : String</text><text fill="#000000" font-family="sans-serif" font-size="11" lengthAdjust="spacingAndGlyphs" textLength="110" x="328" y="615.2314">probableCause : String</text><text fill="#000000" font-family="sans-serif" font-size="11" lengthAdjust="spacingAndGlyphs" textLength="163" x="328" y="629.0674">proposedRepairedActions : String</text><text fill="#000000" font-family="sans-serif" font-size="11" lengthAdjust="spacingAndGlyphs" textLength="124" x="328" y="642.9033">reportingSystemId : String</text><text fill="#000000" font-family="sans-serif" font-size="11" lengthAdjust="spacingAndGlyphs" textLength="129" x="328" y="656.7393">serviceAffecting : Boolean</text><text fill="#000000" font-family="sans-serif" font-size="11" lengthAdjust="spacingAndGlyphs" textLength="115" x="328" y="670.5752">sourceSystemId : String</text><text fill="#000000" font-family="sans-serif" font-size="11" lengthAdjust="spacingAndGlyphs" textLength="113" x="328" y="684.4111">specificProblem : String</text><text fill="#000000" font-family="sans-serif" font-size="11" lengthAdjust="spacingAndGlyphs" textLength="61" x="328" y="698.2471">state : String</text><text fill="#000000" font-family="sans-serif" font-size="11" lengthAdjust="spacingAndGlyphs" textLength="96" x="328" y="712.083">@baseType : String</text><text fill="#000000" font-family="sans-serif" font-size="11" lengthAdjust="spacingAndGlyphs" textLength="112" x="328" y="725.9189">@referredType : String</text><text fill="#000000" font-family="sans-serif" font-size="11" lengthAdjust="spacingAndGlyphs" textLength="127" x="328" y="739.7549">@schemaLocation : String</text><text fill="#000000" font-family="sans-serif" font-size="11" lengthAdjust="spacingAndGlyphs" textLength="69" x="328" y="753.5908">@type : String</text><!--link ClearAlarms to Alarm--><path d="M811.49,211.72 C855.25,269.38 909.55,340.94 955.43,401.4 " fill="none" id="ClearAlarms-Alarm" style="stroke: #A80036; stroke-width: 1.0;"/><polygon fill="#A80036" points="963.28,411.74,961.0125,402.1557,960.2519,407.7612,954.6464,407.0006,963.28,411.74" style="stroke: #A80036; stroke-width: 1.0;"/><line style="stroke: #A80036; stroke-width: 1.0;" x1="960.2519" x2="955.42" y1="407.7612" y2="401.385"/><polygon fill="#A80036" points="803.85,201.65,804.2896,208.8477,811.1026,211.2103,810.6631,204.0126,803.85,201.65" style="stroke: #A80036; stroke-width: 1.0;"/><text fill="#000000" font-family="sans-serif" font-size="13" lengthAdjust="spacingAndGlyphs" textLength="74" x="834.5" y="244.4951">alarmPattern</text><text fill="#000000" font-family="sans-serif" font-size="13" lengthAdjust="spacingAndGlyphs" textLength="20" x="936.1315" y="400.1729">0..*</text><!--link ClearAlarms to AlarmRefOrValue--><path d="M649.51,211.72 C605.75,269.38 551.45,340.94 505.57,401.4 " fill="none" id="ClearAlarms-AlarmRefOrValue" style="stroke: #A80036; stroke-width: 1.0;"/><polygon fill="#A80036" points="497.72,411.74,506.3536,407.0006,500.7481,407.7612,499.9875,402.1557,497.72,411.74" style="stroke: #A80036; stroke-width: 1.0;"/><line style="stroke: #A80036; stroke-width: 1.0;" x1="500.7481" x2="505.58" y1="407.7612" y2="401.385"/><polygon fill="#A80036" points="657.15,201.65,650.3369,204.0126,649.8974,211.2103,656.7104,208.8477,657.15,201.65" style="stroke: #A80036; stroke-width: 1.0;"/><text fill="#000000" font-family="sans-serif" font-size="13" lengthAdjust="spacingAndGlyphs" textLength="76" x="627.5" y="244.4951">clearedAlarm</text><text fill="#000000" font-family="sans-serif" font-size="13" lengthAdjust="spacingAndGlyphs" textLength="20" x="505.3181" y="364.7651">0..*</text><!--link AlarmRefOrValue to AffectedService--><path d="M496.89,514.39 C510.69,512.56 524.83,510.99 538.25,510 C577.7,507.08 587.86,506.37 627.25,510 C637.05,510.9 647.31,512.28 657.39,513.89 " fill="none" id="AlarmRefOrValue-AffectedService" style="stroke: #A80036; stroke-width: 1.0;"/><polygon fill="#A80036" points="667.17,515.55,658.9638,510.1041,662.2401,514.7155,657.6287,517.9919,667.17,515.55" style="stroke: #A80036; stroke-width: 1.0;"/><line style="stroke: #A80036; stroke-width: 1.0;" x1="662.2401" x2="654.35" y1="514.7155" y2="513.38"/><polygon fill="#A80036" points="538.25,490,535.5188,496.6739,540.6288,501.7619,543.36,495.088,538.25,490" style="stroke: #A80036; stroke-width: 1.0;"/><text fill="#000000" font-family="sans-serif" font-size="13" lengthAdjust="spacingAndGlyphs" textLength="87" x="539.25" y="504.4951">affectedService</text><text fill="#000000" font-family="sans-serif" font-size="13" lengthAdjust="spacingAndGlyphs" textLength="20" x="640.3535" y="510.8484">0..*</text><!--link AffectedService to Alarm--><path d="M792.34,515.8 C805.91,513.39 820.27,511.24 833.75,510 C873.14,506.37 883.3,507.08 922.75,510 C932.5,510.72 942.63,511.75 952.73,512.95 " fill="none" id="AffectedService-Alarm" style="stroke: #A80036; stroke-width: 1.0;"/><polygon fill="#A80036" points="962.61,514.2,957.1583,509.48,950.7045,512.697,956.1562,517.417,962.61,514.2" style="stroke: #A80036; stroke-width: 1.0;"/><polygon fill="#A80036" points="833.75,490,831.6135,499.6143,834.7412,494.9008,839.4547,498.0285,833.75,490" style="stroke: #A80036; stroke-width: 1.0;"/><line style="stroke: #A80036; stroke-width: 1.0;" x1="834.7412" x2="878.25" y1="494.9008" y2="499"/><text fill="#000000" font-family="sans-serif" font-size="13" lengthAdjust="spacingAndGlyphs" textLength="87" x="834.75" y="504.4951">affectedService</text><text fill="#000000" font-family="sans-serif" font-size="13" lengthAdjust="spacingAndGlyphs" textLength="20" x="800.204" y="501.9211">0..*</text><!--link AlarmRefOrValue to AlarmRef--><path d="M505.97,678.09 C539.51,717.87 580.64,756.37 627.5,780 C775.6,854.69 853.41,731.45 999.5,810 C1029.29,826.02 1053.88,853.51 1072.49,880.31 " fill="none" id="AlarmRefOrValue-AlarmRef" style="stroke: #A80036; stroke-width: 1.0;"/><polygon fill="#A80036" points="1079.52,890.87,1077.8618,881.1617,1076.749,886.7081,1071.2027,885.5953,1079.52,890.87" style="stroke: #A80036; stroke-width: 1.0;"/><line style="stroke: #A80036; stroke-width: 1.0;" x1="1076.749" x2="1072.315" y1="886.7081" y2="880.05"/><polygon fill="#A80036" points="497.9,668.3,498.6319,675.4739,505.5354,677.5575,504.8035,670.3836,497.9,668.3" style="stroke: #A80036; stroke-width: 1.0;"/><text fill="#000000" font-family="sans-serif" font-size="13" lengthAdjust="spacingAndGlyphs" textLength="91" x="1024.5" y="824.4951">correlatedAlarm</text><text fill="#000000" font-family="sans-serif" font-size="13" lengthAdjust="spacingAndGlyphs" textLength="20" x="1055.3719" y="881.223">0..*</text><!--link AlarmRefOrValue to AlarmRef--><path d="M505.98,676.5 C539.63,716.45 580.82,755.44 627.5,780 C730.45,834.16 776.85,774.11 887.5,810 C903.02,815.03 904.65,821.23 919.5,828 C955.57,844.44 969.38,837.82 1003.5,858 C1016.15,865.48 1028.68,874.53 1040.49,884.07 " fill="none" id="AlarmRefOrValue-AlarmRef" style="stroke: #A80036; stroke-width: 1.0;"/><polygon fill="#A80036" points="1050.42,892.35,1046.0705,883.5136,1046.5802,889.1475,1040.9464,889.6572,1050.42,892.35" style="stroke: #A80036; stroke-width: 1.0;"/><line style="stroke: #A80036; stroke-width: 1.0;" x1="1046.5802" x2="1040.445" y1="889.1475" y2="884.025"/><polygon fill="#A80036" points="497.88,666.66,498.6069,673.8344,505.5089,675.9228,504.7821,668.7484,497.88,666.66" style="stroke: #A80036; stroke-width: 1.0;"/><text fill="#000000" font-family="sans-serif" font-size="13" lengthAdjust="spacingAndGlyphs" textLength="70" x="920.5" y="824.4951">parentAlarm</text><text fill="#000000" font-family="sans-serif" font-size="13" lengthAdjust="spacingAndGlyphs" textLength="20" x="1023.2754" y="882.5506">0..*</text><!--link Alarm to AlarmRef--><path d="M1150.34,593.49 C1217.93,643.22 1302,719.09 1340.5,810 C1370.79,881.52 1266.46,921.45 1189.29,940.7 " fill="none" id="Alarm-AlarmRef" style="stroke: #A80036; stroke-width: 1.0;"/><polygon fill="#A80036" points="1176.7,943.7,1186.3823,945.5037,1181.5637,942.5404,1184.5269,937.7218,1176.7,943.7" style="stroke: #A80036; stroke-width: 1.0;"/><line style="stroke: #A80036; stroke-width: 1.0;" x1="1181.5637" x2="1189.345" y1="942.5404" y2="940.685"/><polygon fill="#A80036" points="1140.01,586.01,1142.5217,592.7695,1149.7274,593.0508,1147.2156,586.2913,1140.01,586.01" style="stroke: #A80036; stroke-width: 1.0;"/><text fill="#000000" font-family="sans-serif" font-size="13" lengthAdjust="spacingAndGlyphs" textLength="91" x="1345.5" y="824.4951">correlatedAlarm</text><text fill="#000000" font-family="sans-serif" font-size="13" lengthAdjust="spacingAndGlyphs" textLength="20" x="1183.0349" y="930.3937">0..*</text><!--link Alarm to AlarmRef--><path d="M1147.06,648.23 C1179.57,695.63 1211.87,752.58 1228.5,810 C1239.19,846.91 1214.92,881.03 1185.96,906.93 " fill="none" id="Alarm-AlarmRef" style="stroke: #A80036; stroke-width: 1.0;"/><polygon fill="#A80036" points="1176.29,915.12,1185.7425,912.354,1180.1048,911.8878,1180.571,906.2502,1176.29,915.12" style="stroke: #A80036; stroke-width: 1.0;"/><line style="stroke: #A80036; stroke-width: 1.0;" x1="1180.1048" x2="1186.21" y1="911.8878" y2="906.72"/><polygon fill="#A80036" points="1139.67,637.64,1139.8215,644.8495,1146.5347,647.4825,1146.3832,640.273,1139.67,637.64" style="stroke: #A80036; stroke-width: 1.0;"/><text fill="#000000" font-family="sans-serif" font-size="13" lengthAdjust="spacingAndGlyphs" textLength="70" x="1231.5" y="824.4951">parentAlarm</text><text fill="#000000" font-family="sans-serif" font-size="13" lengthAdjust="spacingAndGlyphs" textLength="20" x="1182.8965" y="887.4205">0..*</text><!--link AlarmRefOrValue to AlarmedObject--><path d="M310.25,584.41 C233.8,632.52 133.75,710.48 88.5,810 C55.63,882.29 153.76,833.1 214.5,858 C244.39,870.26 275.2,887.59 301.77,904.24 " fill="none" id="AlarmRefOrValue-AlarmedObject" style="stroke: #A80036; stroke-width: 1.0;"/><polygon fill="#A80036" points="312.38,911.01,306.9415,902.7989,308.164,908.3221,302.6408,909.5446,312.38,911.01" style="stroke: #A80036; stroke-width: 1.0;"/><line style="stroke: #A80036; stroke-width: 1.0;" x1="308.164" x2="301.425" y1="908.3221" y2="904.025"/><polygon fill="#A80036" points="321.02,577.75,313.813,577.5061,310.816,584.0649,318.023,584.3088,321.02,577.75" style="stroke: #A80036; stroke-width: 1.0;"/><text fill="#000000" font-family="sans-serif" font-size="13" lengthAdjust="spacingAndGlyphs" textLength="84" x="89.5" y="824.4951">alarmedObject</text><text fill="#000000" font-family="sans-serif" font-size="13" lengthAdjust="spacingAndGlyphs" textLength="22" x="283.6931" y="903.5686">0..1</text><!--link Alarm to AlarmedObject--><path d="M954.92,678.24 C921.62,717.8 880.86,756.15 834.5,780 C708.66,844.74 645.18,748.96 517.5,810 C477.94,828.92 443.33,863.74 418.18,894.58 " fill="none" id="Alarm-AlarmedObject" style="stroke: #A80036; stroke-width: 1.0;"/><polygon fill="#A80036" points="410.3,904.54,419.0215,899.9645,413.4027,900.6191,412.7481,895.0002,410.3,904.54" style="stroke: #A80036; stroke-width: 1.0;"/><line style="stroke: #A80036; stroke-width: 1.0;" x1="413.4027" x2="418.37" y1="900.6191" y2="894.345"/><polygon fill="#A80036" points="963.15,668.22,956.2497,670.3143,955.5289,677.4892,962.4292,675.395,963.15,668.22" style="stroke: #A80036; stroke-width: 1.0;"/><text fill="#000000" font-family="sans-serif" font-size="13" lengthAdjust="spacingAndGlyphs" textLength="84" x="518.5" y="824.4951">alarmedObject</text><text fill="#000000" font-family="sans-serif" font-size="13" lengthAdjust="spacingAndGlyphs" textLength="22" x="390.7176" y="894.5875">0..1</text><!--link AlarmRefOrValue to Comment--><path d="M505.31,698.25 C540.67,746.87 584.91,795.52 636.5,828 C692.19,863.06 722.16,829.54 781.5,858 C797.1,865.48 812.39,875.46 826.53,886.19 " fill="none" id="AlarmRefOrValue-Comment" style="stroke: #A80036; stroke-width: 1.0;"/><polygon fill="#A80036" points="836.42,893.98,831.8236,885.2695,832.4917,890.8868,826.8744,891.5549,836.42,893.98" style="stroke: #A80036; stroke-width: 1.0;"/><line style="stroke: #A80036; stroke-width: 1.0;" x1="832.4917" x2="826.205" y1="890.8868" y2="885.935"/><polygon fill="#A80036" points="497.85,687.8,498.0742,695.0076,504.8136,697.5728,504.5894,690.3652,497.85,687.8" style="stroke: #A80036; stroke-width: 1.0;"/><text fill="#000000" font-family="sans-serif" font-size="13" lengthAdjust="spacingAndGlyphs" textLength="54" x="637.5" y="824.4951">comment</text><text fill="#000000" font-family="sans-serif" font-size="13" lengthAdjust="spacingAndGlyphs" textLength="20" x="809.2866" y="884.3356">0..*</text><!--link Alarm to Comment--><path d="M1143.87,685.61 C1160.77,735.02 1164.39,787.32 1132.5,828 C1098.05,871.95 1060,832.17 1010.5,858 C997.4,864.83 984.58,873.53 972.57,882.9 " fill="none" id="Alarm-Comment" style="stroke: #A80036; stroke-width: 1.0;"/><polygon fill="#A80036" points="962.5,891.1,972.0044,888.518,966.3769,887.9425,966.9524,882.315,962.5,891.1" style="stroke: #A80036; stroke-width: 1.0;"/><line style="stroke: #A80036; stroke-width: 1.0;" x1="966.3769" x2="972.585" y1="887.9425" y2="882.89"/><polygon fill="#A80036" points="1139.42,673.53,1137.7363,680.5418,1143.5611,684.7928,1145.2448,677.781,1139.42,673.53" style="stroke: #A80036; stroke-width: 1.0;"/><text fill="#000000" font-family="sans-serif" font-size="13" lengthAdjust="spacingAndGlyphs" textLength="54" x="1141.5" y="824.4951">comment</text><text fill="#000000" font-family="sans-serif" font-size="13" lengthAdjust="spacingAndGlyphs" textLength="20" x="947.3228" y="881.1338">0..*</text><!--link AlarmRefOrValue to RelatedPlaceRefOrValue--><path d="M309.54,574.06 C221.08,619.14 97.72,698.41 42.5,810 C32.78,829.64 34.98,851.29 42.58,871.76 " fill="none" id="AlarmRefOrValue-RelatedPlaceRefOrValue" style="stroke: #A80036; stroke-width: 1.0;"/><polygon fill="#A80036" points="47.68,883.61,47.7943,873.7618,45.7025,879.0177,40.4466,876.9259,47.68,883.61" style="stroke: #A80036; stroke-width: 1.0;"/><line style="stroke: #A80036; stroke-width: 1.0;" x1="45.7025" x2="42.54" y1="879.0177" y2="871.67"/><polygon fill="#A80036" points="320.97,568.33,313.8133,567.4461,310.2448,573.7124,317.4015,574.5963,320.97,568.33" style="stroke: #A80036; stroke-width: 1.0;"/><text fill="#000000" font-family="sans-serif" font-size="13" lengthAdjust="spacingAndGlyphs" textLength="31" x="43.5" y="824.4951">place</text><text fill="#000000" font-family="sans-serif" font-size="13" lengthAdjust="spacingAndGlyphs" textLength="20" x="21.7604" y="874.2745">0..*</text><!--link Alarm to RelatedPlaceRefOrValue--><path d="M955.06,680.12 C921.87,719.52 881.14,757.29 834.5,780 C715.07,838.15 357.98,754.06 237.5,810 C206.77,824.27 179.63,848.94 157.85,873.95 " fill="none" id="Alarm-RelatedPlaceRefOrValue" style="stroke: #A80036; stroke-width: 1.0;"/><polygon fill="#A80036" points="149.51,883.88,158.3598,879.5578,152.7244,880.0502,152.2321,874.4148,149.51,883.88" style="stroke: #A80036; stroke-width: 1.0;"/><line style="stroke: #A80036; stroke-width: 1.0;" x1="152.7244" x2="157.865" y1="880.0502" y2="873.925"/><polygon fill="#A80036" points="963.26,670.15,956.3597,672.2443,955.6389,679.4192,962.5392,677.325,963.26,670.15" style="stroke: #A80036; stroke-width: 1.0;"/><text fill="#000000" font-family="sans-serif" font-size="13" lengthAdjust="spacingAndGlyphs" textLength="31" x="238.5" y="824.4951">place</text><text fill="#000000" font-family="sans-serif" font-size="13" lengthAdjust="spacingAndGlyphs" textLength="20" x="132.3487" y="874.3186">0..*</text><!--link AlarmRefOrValue to CrossedThresholdInformation--><path d="M313.85,637.88 C271.6,698.84 240.91,773.52 287.5,828 C315.42,860.65 438.04,843.53 478.5,858 C498.03,864.98 517.84,874.31 536.65,884.43 " fill="none" id="AlarmRefOrValue-CrossedThresholdInformation" style="stroke: #A80036; stroke-width: 1.0;"/><polygon fill="#A80036" points="547.85,890.63,541.9042,882.7784,543.4728,888.2135,538.0377,889.782,547.85,890.63" style="stroke: #A80036; stroke-width: 1.0;"/><line style="stroke: #A80036; stroke-width: 1.0;" x1="543.4728" x2="536.48" y1="888.2135" y2="884.335"/><polygon fill="#A80036" points="321.27,627.5,314.5267,630.0549,314.2914,637.2621,321.0347,634.7073,321.27,627.5" style="stroke: #A80036; stroke-width: 1.0;"/><text fill="#000000" font-family="sans-serif" font-size="13" lengthAdjust="spacingAndGlyphs" textLength="165" x="288.5" y="824.4951">crossedThresholdInformation</text><text fill="#000000" font-family="sans-serif" font-size="13" lengthAdjust="spacingAndGlyphs" textLength="22" x="519.0399" y="883.2452">0..1</text><!--link Alarm to CrossedThresholdInformation--><path d="M954.92,670.91 C921.06,711.31 879.99,751.96 834.5,780 C788.44,808.4 758.57,775.97 716.5,810 C698.53,824.53 684.69,844.68 674.17,865.35 " fill="none" id="Alarm-CrossedThresholdInformation" style="stroke: #A80036; stroke-width: 1.0;"/><polygon fill="#A80036" points="668.7,876.88,676.1748,870.4669,670.8454,872.3637,668.9486,867.0343,668.7,876.88" style="stroke: #A80036; stroke-width: 1.0;"/><line style="stroke: #A80036; stroke-width: 1.0;" x1="670.8454" x2="674.275" y1="872.3637" y2="865.14"/><polygon fill="#A80036" points="963.09,660.98,956.1897,663.0743,955.4689,670.2492,962.3692,668.155,963.09,660.98" style="stroke: #A80036; stroke-width: 1.0;"/><text fill="#000000" font-family="sans-serif" font-size="13" lengthAdjust="spacingAndGlyphs" textLength="165" x="717.5" y="824.4951">crossedThresholdInformation</text><text fill="#000000" font-family="sans-serif" font-size="13" lengthAdjust="spacingAndGlyphs" textLength="22" x="647.2854" y="867.2418">0..1</text><!--link CrossedThresholdInformation to ThresholdRef--><path d="M644.5,1049.3 C644.5,1078.53 644.5,1110.57 644.5,1138.71 " fill="none" id="CrossedThresholdInformation-ThresholdRef" style="stroke: #A80036; stroke-width: 1.0;"/><polygon fill="#A80036" points="644.5,1151.52,648.5,1142.52,644.5,1146.52,640.5,1142.52,644.5,1151.52" style="stroke: #A80036; stroke-width: 1.0;"/><line style="stroke: #A80036; stroke-width: 1.0;" x1="644.5" x2="644.5" y1="1146.52" y2="1138.52"/><polygon fill="#A80036" points="644.5,1036.37,640.5,1042.37,644.5,1048.37,648.5,1042.37,644.5,1036.37" style="stroke: #A80036; stroke-width: 1.0;"/><text fill="#000000" font-family="sans-serif" font-size="13" lengthAdjust="spacingAndGlyphs" textLength="53" x="645.5" y="1099.4951">threshold</text><text fill="#000000" font-family="sans-serif" font-size="13" lengthAdjust="spacingAndGlyphs" textLength="22" x="621.2281" y="1142.1114">0..1</text></g></svg>