<?xml version="1.0" encoding="us-ascii" standalone="no"?><svg xmlns="http://www.w3.org/2000/svg" xmlns:xlink="http://www.w3.org/1999/xlink" contentStyleType="text/css" height="1554px" preserveAspectRatio="none" style="width:1443px;height:1554px;background:#FFFFFF;" version="1.1" viewBox="0 0 1443 1554" width="1443px" zoomAndPan="magnify"><defs/><g><text fill="#888888" font-family="sans-serif" font-size="10" lengthAdjust="spacing" textLength="148" x="1281.4937" y="10.3809">Diagram generated at 12/22/23</text><text fill="#000000" font-family="sans-serif" font-size="14" font-weight="bold" lengthAdjust="spacing" textLength="192" x="618.7468" y="38.1113">TMF Schema Class Diagram</text><!--class ClearAlarms--><g id="elem_ClearAlarms"><rect codeLine="20" fill="#FFFFFF" height="246.1172" id="ClearAlarms" rx="2.5" ry="2.5" style="stroke:#181818;stroke-width:0.5;" width="201" x="563.9937" y="59.1875"/><text fill="#000000" font-family="sans-serif" font-size="12" font-style="italic" lengthAdjust="spacing" textLength="41" x="643.9937" y="76.6445">&#171;Pivot&#187;</text><text fill="#000000" font-family="sans-serif" font-size="14" lengthAdjust="spacing" textLength="77" x="625.9937" y="93.8145">ClearAlarms</text><text fill="#000000" font-family="sans-serif" font-size="14" lengthAdjust="spacing" textLength="5" x="605.9937" y="111.4238">(</text><text fill="#000000" font-family="sans-serif" font-size="9" font-style="italic" lengthAdjust="spacing" textLength="17" x="610.9937" y="112.5225">from</text><a href="TMF642.svg" target="_top" title="TMF642.svg" xlink:actuate="onRequest" xlink:href="TMF642.svg" xlink:show="new" xlink:title="TMF642.svg" xlink:type="simple"><text fill="#0000FF" font-family="sans-serif" font-size="9" font-style="italic" lengthAdjust="spacing" text-decoration="underline" textLength="60" x="630.9937" y="112.5225">TMF642-Alarm</text></a><text fill="#000000" font-family="sans-serif" font-size="9" font-style="italic" lengthAdjust="spacing" textLength="26" x="693.9937" y="112.5225">v4.0.0</text><text fill="#000000" font-family="sans-serif" font-size="9" lengthAdjust="spacing" textLength="3" x="719.9937" y="112.5225">)</text><line style="stroke:#181818;stroke-width:0.5;" x1="564.9937" x2="763.9937" y1="119.5" y2="119.5"/><text fill="#000000" font-family="sans-serif" font-size="9" font-style="italic" lengthAdjust="spacing" textLength="167" x="569.9937" y="132.8428">Task resource for clear alarms operation</text><line style="stroke:#181818;stroke-width:1.0;stroke-dasharray:1.0,2.0;" x1="564.9937" x2="763.9937" y1="138.8203" y2="138.8203"/><text fill="#000000" font-family="sans-serif" font-size="14" lengthAdjust="spacing" textLength="189" x="569.9937" y="157.3535">alarmClearedTime : DateTime</text><text fill="#000000" font-family="sans-serif" font-size="14" lengthAdjust="spacing" textLength="137" x="569.9937" y="174.9629">clearSystemId : String</text><text fill="#000000" font-family="sans-serif" font-size="14" lengthAdjust="spacing" textLength="120" x="569.9937" y="192.5723">clearUserId : String</text><text fill="#000000" font-family="sans-serif" font-size="14" lengthAdjust="spacing" textLength="74" x="569.9937" y="210.1816">href : String</text><text fill="#000000" font-family="sans-serif" font-size="14" lengthAdjust="spacing" textLength="60" x="569.9937" y="227.791">id : String</text><text fill="#000000" font-family="sans-serif" font-size="14" lengthAdjust="spacing" textLength="80" x="569.9937" y="245.4004">state : String</text><text fill="#000000" font-family="sans-serif" font-size="14" lengthAdjust="spacing" textLength="126" x="569.9937" y="263.0098">@baseType : String</text><text fill="#000000" font-family="sans-serif" font-size="14" lengthAdjust="spacing" textLength="146" x="569.9937" y="280.6191">@schemaLocation : Uri</text><text fill="#000000" font-family="sans-serif" font-size="14" lengthAdjust="spacing" textLength="90" x="569.9937" y="298.2285">@type : String</text></g><!--class Alarm--><g id="elem_Alarm"><rect codeLine="34" fill="#FCF2E3" height="546.2813" id="Alarm" rx="2.5" ry="2.5" style="stroke:#181818;stroke-width:0.5;" width="225" x="421.9937" y="400.9175"/><text fill="#000000" font-family="sans-serif" font-size="14" lengthAdjust="spacing" textLength="36" x="516.4937" y="420.4507">Alarm</text><line style="stroke:#181818;stroke-width:0.5;" x1="422.9937" x2="645.9937" y1="428.5269" y2="428.5269"/><text fill="#000000" font-family="sans-serif" font-size="14" lengthAdjust="spacing" textLength="104" x="427.9937" y="447.0601">ackState : String</text><text fill="#000000" font-family="sans-serif" font-size="14" lengthAdjust="spacing" textLength="128" x="427.9937" y="464.6695">ackSystemId : String</text><text fill="#000000" font-family="sans-serif" font-size="14" lengthAdjust="spacing" textLength="111" x="427.9937" y="482.2788">ackUserId : String</text><text fill="#000000" font-family="sans-serif" font-size="14" lengthAdjust="spacing" textLength="197" x="427.9937" y="499.8882">alarmChangedTime : DateTime</text><text fill="#000000" font-family="sans-serif" font-size="14" lengthAdjust="spacing" textLength="189" x="427.9937" y="517.4976">alarmClearedTime : DateTime</text><text fill="#000000" font-family="sans-serif" font-size="14" lengthAdjust="spacing" textLength="127" x="427.9937" y="535.107">alarmDetails : String</text><text fill="#000000" font-family="sans-serif" font-size="14" lengthAdjust="spacing" textLength="164" x="427.9937" y="552.7163">alarmEscalation : Boolean</text><text fill="#000000" font-family="sans-serif" font-size="14" lengthAdjust="spacing" textLength="183" x="427.9937" y="570.3257">alarmRaisedTime : DateTime</text><text fill="#000000" font-family="sans-serif" font-size="14" lengthAdjust="spacing" textLength="201" x="427.9937" y="587.9351">alarmReportingTime : DateTime</text><text fill="#000000" font-family="sans-serif" font-size="14" lengthAdjust="spacing" textLength="116" x="427.9937" y="605.5445">alarmType : String</text><text fill="#000000" font-family="sans-serif" font-size="14" lengthAdjust="spacing" textLength="173" x="427.9937" y="623.1538">alarmedObjectType : String</text><text fill="#000000" font-family="sans-serif" font-size="14" lengthAdjust="spacing" textLength="137" x="427.9937" y="640.7632">clearSystemId : String</text><text fill="#000000" font-family="sans-serif" font-size="14" lengthAdjust="spacing" textLength="120" x="427.9937" y="658.3726">clearUserId : String</text><text fill="#000000" font-family="sans-serif" font-size="14" lengthAdjust="spacing" textLength="146" x="427.9937" y="675.982">externalAlarmId : String</text><text fill="#000000" font-family="sans-serif" font-size="14" lengthAdjust="spacing" textLength="74" x="427.9937" y="693.5913">href : String</text><text fill="#000000" font-family="sans-serif" font-size="14" lengthAdjust="spacing" textLength="67" x="427.9937" y="711.2007">id : Integer</text><text fill="#000000" font-family="sans-serif" font-size="14" lengthAdjust="spacing" textLength="145" x="427.9937" y="728.8101">isRootCause : Boolean</text><text fill="#000000" font-family="sans-serif" font-size="14" lengthAdjust="spacing" textLength="162" x="427.9937" y="746.4195">perceivedSeverity : String</text><text fill="#000000" font-family="sans-serif" font-size="14" lengthAdjust="spacing" textLength="201" x="427.9937" y="764.0288">plannedOutageIndicator : String</text><text fill="#000000" font-family="sans-serif" font-size="14" lengthAdjust="spacing" textLength="146" x="427.9937" y="781.6382">probableCause : String</text><text fill="#000000" font-family="sans-serif" font-size="14" lengthAdjust="spacing" textLength="213" x="427.9937" y="799.2476">proposedRepairedActions : String</text><text fill="#000000" font-family="sans-serif" font-size="14" lengthAdjust="spacing" textLength="163" x="427.9937" y="816.857">reportingSystemId : String</text><text fill="#000000" font-family="sans-serif" font-size="14" lengthAdjust="spacing" textLength="164" x="427.9937" y="834.4663">serviceAffecting : Boolean</text><text fill="#000000" font-family="sans-serif" font-size="14" lengthAdjust="spacing" textLength="149" x="427.9937" y="852.0757">sourceSystemId : String</text><text fill="#000000" font-family="sans-serif" font-size="14" lengthAdjust="spacing" textLength="148" x="427.9937" y="869.6851">specificProblem : String</text><text fill="#000000" font-family="sans-serif" font-size="14" lengthAdjust="spacing" textLength="80" x="427.9937" y="887.2945">state : String</text><text fill="#000000" font-family="sans-serif" font-size="14" lengthAdjust="spacing" textLength="126" x="427.9937" y="904.9038">@baseType : String</text><text fill="#000000" font-family="sans-serif" font-size="14" lengthAdjust="spacing" textLength="166" x="427.9937" y="922.5132">@schemaLocation : String</text><text fill="#000000" font-family="sans-serif" font-size="14" lengthAdjust="spacing" textLength="90" x="427.9937" y="940.1226">@type : String</text></g><!--class AlarmRef--><g id="elem_AlarmRef"><rect codeLine="66" fill="#FFFFE0" height="173.9688" id="AlarmRef" rx="2.5" ry="2.5" style="stroke:#181818;stroke-width:0.5;" width="158" x="1022.4937" y="1052.8675"/><text fill="#000000" font-family="sans-serif" font-size="12" font-style="italic" lengthAdjust="spacing" textLength="33" x="1084.9937" y="1070.3245">&#171;Ref&#187;</text><a href="Alarm.svg" target="_top" title="Alarm.svg" xlink:actuate="onRequest" xlink:href="Alarm.svg" xlink:show="new" xlink:title="Alarm.svg" xlink:type="simple"><text fill="#0000FF" font-family="sans-serif" font-size="14" lengthAdjust="spacing" text-decoration="underline" textLength="36" x="1072.4937" y="1087.4945">Alarm</text></a><text fill="#000000" font-family="sans-serif" font-size="14" lengthAdjust="spacing" textLength="22" x="1108.4937" y="1087.4945">Ref</text><line style="stroke:#181818;stroke-width:0.5;" x1="1023.4937" x2="1179.4937" y1="1095.5706" y2="1095.5706"/><text fill="#000000" font-family="sans-serif" font-size="14" lengthAdjust="spacing" textLength="74" x="1028.4937" y="1114.1038">href : String</text><text fill="#000000" font-family="sans-serif" font-size="14" lengthAdjust="spacing" textLength="60" x="1028.4937" y="1131.7132">id : String</text><text fill="#000000" font-family="sans-serif" font-size="14" lengthAdjust="spacing" textLength="84" x="1028.4937" y="1149.3226">name : String</text><text fill="#000000" font-family="sans-serif" font-size="14" lengthAdjust="spacing" textLength="126" x="1028.4937" y="1166.932">@baseType : String</text><text fill="#000000" font-family="sans-serif" font-size="14" lengthAdjust="spacing" textLength="146" x="1028.4937" y="1184.5413">@referredType : String</text><text fill="#000000" font-family="sans-serif" font-size="14" lengthAdjust="spacing" textLength="146" x="1028.4937" y="1202.1507">@schemaLocation : Uri</text><text fill="#000000" font-family="sans-serif" font-size="14" lengthAdjust="spacing" textLength="90" x="1028.4937" y="1219.7601">@type : String</text></g><!--class AlarmedObject--><g id="elem_AlarmedObject"><rect codeLine="76" fill="#FCF2E3" height="123.6563" id="AlarmedObject" rx="2.5" ry="2.5" style="stroke:#181818;stroke-width:0.5;" width="158" x="285.4937" y="1078.0275"/><text fill="#000000" font-family="sans-serif" font-size="14" lengthAdjust="spacing" textLength="93" x="317.9937" y="1097.5607">AlarmedObject</text><line style="stroke:#181818;stroke-width:0.5;" x1="286.4937" x2="442.4937" y1="1105.6369" y2="1105.6369"/><text fill="#000000" font-family="sans-serif" font-size="14" lengthAdjust="spacing" textLength="74" x="291.4937" y="1124.1701">href : String</text><text fill="#000000" font-family="sans-serif" font-size="14" lengthAdjust="spacing" textLength="60" x="291.4937" y="1141.7795">id : String</text><text fill="#000000" font-family="sans-serif" font-size="14" lengthAdjust="spacing" textLength="126" x="291.4937" y="1159.3888">@baseType : String</text><text fill="#000000" font-family="sans-serif" font-size="14" lengthAdjust="spacing" textLength="146" x="291.4937" y="1176.9982">@schemaLocation : Uri</text><text fill="#000000" font-family="sans-serif" font-size="14" lengthAdjust="spacing" textLength="90" x="291.4937" y="1194.6076">@type : String</text></g><!--class AffectedService--><g id="elem_AffectedService"><rect codeLine="84" fill="#FCF2E3" height="123.6563" id="AffectedService" rx="2.5" ry="2.5" style="stroke:#181818;stroke-width:0.5;" width="158" x="1030.4937" y="612.2275"/><text fill="#000000" font-family="sans-serif" font-size="14" lengthAdjust="spacing" textLength="99" x="1059.9937" y="631.7607">AffectedService</text><line style="stroke:#181818;stroke-width:0.5;" x1="1031.4937" x2="1187.4937" y1="639.8369" y2="639.8369"/><text fill="#000000" font-family="sans-serif" font-size="14" lengthAdjust="spacing" textLength="74" x="1036.4937" y="658.3701">href : String</text><text fill="#000000" font-family="sans-serif" font-size="14" lengthAdjust="spacing" textLength="60" x="1036.4937" y="675.9795">id : String</text><text fill="#000000" font-family="sans-serif" font-size="14" lengthAdjust="spacing" textLength="126" x="1036.4937" y="693.5888">@baseType : String</text><text fill="#000000" font-family="sans-serif" font-size="14" lengthAdjust="spacing" textLength="146" x="1036.4937" y="711.1982">@schemaLocation : Uri</text><text fill="#000000" font-family="sans-serif" font-size="14" lengthAdjust="spacing" textLength="90" x="1036.4937" y="728.8076">@type : String</text></g><!--class RelatedPlaceRefOrValue--><g id="elem_RelatedPlaceRefOrValue"><rect codeLine="92" fill="#FCF2E3" height="176.4844" id="RelatedPlaceRefOrValue" rx="2.5" ry="2.5" style="stroke:#181818;stroke-width:0.5;" width="164" x="9.4937" y="1051.6075"/><text fill="#000000" font-family="sans-serif" font-size="14" lengthAdjust="spacing" textLength="49" x="12.4937" y="1071.1407">Related</text><a href="Place.svg" target="_top" title="Place.svg" xlink:actuate="onRequest" xlink:href="Place.svg" xlink:show="new" xlink:title="Place.svg" xlink:type="simple"><text fill="#0000FF" font-family="sans-serif" font-size="14" lengthAdjust="spacing" text-decoration="underline" textLength="35" x="61.4937" y="1071.1407">Place</text></a><text fill="#000000" font-family="sans-serif" font-size="14" lengthAdjust="spacing" textLength="74" x="96.4937" y="1071.1407">RefOrValue</text><line style="stroke:#181818;stroke-width:0.5;" x1="10.4937" x2="172.4937" y1="1079.2169" y2="1079.2169"/><text fill="#000000" font-family="sans-serif" font-size="14" lengthAdjust="spacing" textLength="74" x="15.4937" y="1097.7501">href : String</text><text fill="#000000" font-family="sans-serif" font-size="14" lengthAdjust="spacing" textLength="60" x="15.4937" y="1115.3595">id : String</text><text fill="#000000" font-family="sans-serif" font-size="14" lengthAdjust="spacing" textLength="84" x="15.4937" y="1132.9688">name : String</text><text fill="#000000" font-family="sans-serif" font-size="14" lengthAdjust="spacing" textLength="73" x="15.4937" y="1150.5782">role : String</text><text fill="#000000" font-family="sans-serif" font-size="14" lengthAdjust="spacing" textLength="126" x="15.4937" y="1168.1876">@baseType : String</text><text fill="#000000" font-family="sans-serif" font-size="14" lengthAdjust="spacing" textLength="146" x="15.4937" y="1185.797">@referredType : String</text><text fill="#000000" font-family="sans-serif" font-size="14" lengthAdjust="spacing" textLength="146" x="15.4937" y="1203.4063">@schemaLocation : Uri</text><text fill="#000000" font-family="sans-serif" font-size="14" lengthAdjust="spacing" textLength="90" x="15.4937" y="1221.0157">@type : String</text></g><!--class CrossedThresholdInformation--><g id="elem_CrossedThresholdInformation"><rect codeLine="103" fill="#FCF2E3" height="194.0938" id="CrossedThresholdInformation" rx="2.5" ry="2.5" style="stroke:#181818;stroke-width:0.5;" width="247" x="517.9937" y="1042.8075"/><text fill="#000000" font-family="sans-serif" font-size="14" lengthAdjust="spacing" textLength="187" x="547.9937" y="1062.3407">CrossedThresholdInformation</text><line style="stroke:#181818;stroke-width:0.5;" x1="518.9937" x2="763.9937" y1="1070.4169" y2="1070.4169"/><text fill="#000000" font-family="sans-serif" font-size="14" lengthAdjust="spacing" textLength="103" x="523.9937" y="1088.9501">direction : String</text><text fill="#000000" font-family="sans-serif" font-size="14" lengthAdjust="spacing" textLength="116" x="523.9937" y="1106.5595">granularity : String</text><text fill="#000000" font-family="sans-serif" font-size="14" lengthAdjust="spacing" textLength="139" x="523.9937" y="1124.1688">indicatorName : String</text><text fill="#000000" font-family="sans-serif" font-size="14" lengthAdjust="spacing" textLength="127" x="523.9937" y="1141.7782">indicatorUnit : String</text><text fill="#000000" font-family="sans-serif" font-size="14" lengthAdjust="spacing" textLength="144" x="523.9937" y="1159.3876">observedValue : String</text><text fill="#000000" font-family="sans-serif" font-size="14" lengthAdjust="spacing" textLength="235" x="523.9937" y="1176.997">thresholdCrossingDescription : String</text><text fill="#000000" font-family="sans-serif" font-size="14" lengthAdjust="spacing" textLength="126" x="523.9937" y="1194.6063">@baseType : String</text><text fill="#000000" font-family="sans-serif" font-size="14" lengthAdjust="spacing" textLength="146" x="523.9937" y="1212.2157">@schemaLocation : Uri</text><text fill="#000000" font-family="sans-serif" font-size="14" lengthAdjust="spacing" textLength="90" x="523.9937" y="1229.8251">@type : String</text></g><!--class ThresholdRef--><g id="elem_ThresholdRef"><rect codeLine="115" fill="#FFFFE0" height="173.9688" id="ThresholdRef" rx="2.5" ry="2.5" style="stroke:#181818;stroke-width:0.5;" width="158" x="562.4937" y="1314.8975"/><text fill="#000000" font-family="sans-serif" font-size="12" font-style="italic" lengthAdjust="spacing" textLength="33" x="624.9937" y="1332.3545">&#171;Ref&#187;</text><a href="Threshold.svg" target="_top" title="Threshold.svg" xlink:actuate="onRequest" xlink:href="Threshold.svg" xlink:show="new" xlink:title="Threshold.svg" xlink:type="simple"><text fill="#0000FF" font-family="sans-serif" font-size="14" lengthAdjust="spacing" text-decoration="underline" textLength="64" x="598.4937" y="1349.5245">Threshold</text></a><text fill="#000000" font-family="sans-serif" font-size="14" lengthAdjust="spacing" textLength="22" x="662.4937" y="1349.5245">Ref</text><line style="stroke:#181818;stroke-width:0.5;" x1="563.4937" x2="719.4937" y1="1357.6006" y2="1357.6006"/><text fill="#000000" font-family="sans-serif" font-size="14" lengthAdjust="spacing" textLength="74" x="568.4937" y="1376.1338">href : String</text><text fill="#000000" font-family="sans-serif" font-size="14" lengthAdjust="spacing" textLength="60" x="568.4937" y="1393.7432">id : String</text><text fill="#000000" font-family="sans-serif" font-size="14" lengthAdjust="spacing" textLength="84" x="568.4937" y="1411.3526">name : String</text><text fill="#000000" font-family="sans-serif" font-size="14" lengthAdjust="spacing" textLength="126" x="568.4937" y="1428.962">@baseType : String</text><text fill="#000000" font-family="sans-serif" font-size="14" lengthAdjust="spacing" textLength="146" x="568.4937" y="1446.5713">@referredType : String</text><text fill="#000000" font-family="sans-serif" font-size="14" lengthAdjust="spacing" textLength="146" x="568.4937" y="1464.1807">@schemaLocation : Uri</text><text fill="#000000" font-family="sans-serif" font-size="14" lengthAdjust="spacing" textLength="90" x="568.4937" y="1481.7901">@type : String</text></g><!--class Comment--><g id="elem_Comment"><rect codeLine="125" fill="#FCF2E3" height="158.875" id="Comment" rx="2.5" ry="2.5" style="stroke:#181818;stroke-width:0.5;" width="158" x="819.4937" y="1060.4175"/><text fill="#000000" font-family="sans-serif" font-size="14" lengthAdjust="spacing" textLength="60" x="868.4937" y="1079.9507">Comment</text><line style="stroke:#181818;stroke-width:0.5;" x1="820.4937" x2="976.4937" y1="1088.0269" y2="1088.0269"/><text fill="#000000" font-family="sans-serif" font-size="14" lengthAdjust="spacing" textLength="106" x="825.4937" y="1106.5601">comment : String</text><text fill="#000000" font-family="sans-serif" font-size="14" lengthAdjust="spacing" textLength="104" x="825.4937" y="1124.1695">systemId : String</text><text fill="#000000" font-family="sans-serif" font-size="14" lengthAdjust="spacing" textLength="99" x="825.4937" y="1141.7788">time : DateTime</text><text fill="#000000" font-family="sans-serif" font-size="14" lengthAdjust="spacing" textLength="88" x="825.4937" y="1159.3882">userId : String</text><text fill="#000000" font-family="sans-serif" font-size="14" lengthAdjust="spacing" textLength="126" x="825.4937" y="1176.9976">@baseType : String</text><text fill="#000000" font-family="sans-serif" font-size="14" lengthAdjust="spacing" textLength="146" x="825.4937" y="1194.607">@schemaLocation : Uri</text><text fill="#000000" font-family="sans-serif" font-size="14" lengthAdjust="spacing" textLength="90" x="825.4937" y="1212.2163">@type : String</text></g><!--class AlarmRefOrValue--><g id="elem_AlarmRefOrValue"><rect codeLine="135" fill="#FCF2E3" height="581.5" id="AlarmRefOrValue" rx="2.5" ry="2.5" style="stroke:#181818;stroke-width:0.5;" width="225" x="681.9937" y="383.3075"/><a href="Alarm.svg" target="_top" title="Alarm.svg" xlink:actuate="onRequest" xlink:href="Alarm.svg" xlink:show="new" xlink:title="Alarm.svg" xlink:type="simple"><text fill="#0000FF" font-family="sans-serif" font-size="14" lengthAdjust="spacing" text-decoration="underline" textLength="36" x="739.4937" y="402.8407">Alarm</text></a><text fill="#000000" font-family="sans-serif" font-size="14" lengthAdjust="spacing" textLength="74" x="775.4937" y="402.8407">RefOrValue</text><line style="stroke:#181818;stroke-width:0.5;" x1="682.9937" x2="905.9937" y1="410.9169" y2="410.9169"/><text fill="#000000" font-family="sans-serif" font-size="14" lengthAdjust="spacing" textLength="104" x="687.9937" y="429.4501">ackState : String</text><text fill="#000000" font-family="sans-serif" font-size="14" lengthAdjust="spacing" textLength="128" x="687.9937" y="447.0595">ackSystemId : String</text><text fill="#000000" font-family="sans-serif" font-size="14" lengthAdjust="spacing" textLength="111" x="687.9937" y="464.6688">ackUserId : String</text><text fill="#000000" font-family="sans-serif" font-size="14" lengthAdjust="spacing" textLength="197" x="687.9937" y="482.2782">alarmChangedTime : DateTime</text><text fill="#000000" font-family="sans-serif" font-size="14" lengthAdjust="spacing" textLength="189" x="687.9937" y="499.8876">alarmClearedTime : DateTime</text><text fill="#000000" font-family="sans-serif" font-size="14" lengthAdjust="spacing" textLength="127" x="687.9937" y="517.497">alarmDetails : String</text><text fill="#000000" font-family="sans-serif" font-size="14" lengthAdjust="spacing" textLength="164" x="687.9937" y="535.1063">alarmEscalation : Boolean</text><text fill="#000000" font-family="sans-serif" font-size="14" lengthAdjust="spacing" textLength="183" x="687.9937" y="552.7157">alarmRaisedTime : DateTime</text><text fill="#000000" font-family="sans-serif" font-size="14" lengthAdjust="spacing" textLength="201" x="687.9937" y="570.3251">alarmReportingTime : DateTime</text><text fill="#000000" font-family="sans-serif" font-size="14" lengthAdjust="spacing" textLength="116" x="687.9937" y="587.9345">alarmType : String</text><text fill="#000000" font-family="sans-serif" font-size="14" lengthAdjust="spacing" textLength="173" x="687.9937" y="605.5438">alarmedObjectType : String</text><text fill="#000000" font-family="sans-serif" font-size="14" lengthAdjust="spacing" textLength="137" x="687.9937" y="623.1532">clearSystemId : String</text><text fill="#000000" font-family="sans-serif" font-size="14" lengthAdjust="spacing" textLength="120" x="687.9937" y="640.7626">clearUserId : String</text><text fill="#000000" font-family="sans-serif" font-size="14" lengthAdjust="spacing" textLength="146" x="687.9937" y="658.372">externalAlarmId : String</text><text fill="#000000" font-family="sans-serif" font-size="14" lengthAdjust="spacing" textLength="74" x="687.9937" y="675.9813">href : String</text><text fill="#000000" font-family="sans-serif" font-size="14" lengthAdjust="spacing" textLength="67" x="687.9937" y="693.5907">id : Integer</text><text fill="#000000" font-family="sans-serif" font-size="14" lengthAdjust="spacing" textLength="145" x="687.9937" y="711.2001">isRootCause : Boolean</text><text fill="#000000" font-family="sans-serif" font-size="14" lengthAdjust="spacing" textLength="84" x="687.9937" y="728.8095">name : String</text><text fill="#000000" font-family="sans-serif" font-size="14" lengthAdjust="spacing" textLength="162" x="687.9937" y="746.4188">perceivedSeverity : String</text><text fill="#000000" font-family="sans-serif" font-size="14" lengthAdjust="spacing" textLength="201" x="687.9937" y="764.0282">plannedOutageIndicator : String</text><text fill="#000000" font-family="sans-serif" font-size="14" lengthAdjust="spacing" textLength="146" x="687.9937" y="781.6376">probableCause : String</text><text fill="#000000" font-family="sans-serif" font-size="14" lengthAdjust="spacing" textLength="213" x="687.9937" y="799.247">proposedRepairedActions : String</text><text fill="#000000" font-family="sans-serif" font-size="14" lengthAdjust="spacing" textLength="163" x="687.9937" y="816.8563">reportingSystemId : String</text><text fill="#000000" font-family="sans-serif" font-size="14" lengthAdjust="spacing" textLength="164" x="687.9937" y="834.4657">serviceAffecting : Boolean</text><text fill="#000000" font-family="sans-serif" font-size="14" lengthAdjust="spacing" textLength="149" x="687.9937" y="852.0751">sourceSystemId : String</text><text fill="#000000" font-family="sans-serif" font-size="14" lengthAdjust="spacing" textLength="148" x="687.9937" y="869.6845">specificProblem : String</text><text fill="#000000" font-family="sans-serif" font-size="14" lengthAdjust="spacing" textLength="80" x="687.9937" y="887.2938">state : String</text><text fill="#000000" font-family="sans-serif" font-size="14" lengthAdjust="spacing" textLength="126" x="687.9937" y="904.9032">@baseType : String</text><text fill="#000000" font-family="sans-serif" font-size="14" lengthAdjust="spacing" textLength="146" x="687.9937" y="922.5126">@referredType : String</text><text fill="#000000" font-family="sans-serif" font-size="14" lengthAdjust="spacing" textLength="166" x="687.9937" y="940.122">@schemaLocation : String</text><text fill="#000000" font-family="sans-serif" font-size="14" lengthAdjust="spacing" textLength="90" x="687.9937" y="957.7313">@type : String</text></g><!--link ClearAlarms to Alarm--><g id="link_ClearAlarms_Alarm"><path codeLine="169" d="M628.947,317.1764 C621.167,346.5064 617.1523,361.5981 608.3523,394.7681 " fill="none" id="ClearAlarms-Alarm" style="stroke:#181818;stroke-width:1.0;"/><polygon fill="#181818" points="632.0237,305.5775,626.6191,310.3514,628.947,317.1764,634.3516,312.4025,632.0237,305.5775" style="stroke:#181818;stroke-width:1.0;"/><polygon fill="#181818" points="606.8137,400.5675,612.9878,392.8941,608.0958,395.7347,605.2553,390.8427,606.8137,400.5675" style="stroke:#181818;stroke-width:1.0;"/><text fill="#000000" font-family="sans-serif" font-size="13" lengthAdjust="spacing" textLength="74" x="623.4937" y="349.8026">alarmPattern</text><text fill="#000000" font-family="sans-serif" font-size="13" lengthAdjust="spacing" textLength="20" x="588.6638" y="389.7111">0..*</text></g><!--link ClearAlarms to AlarmRefOrValue--><g id="link_ClearAlarms_AlarmRefOrValue"><path codeLine="171" d="M701.6123,317.1971 C704.3423,327.2371 703.9037,325.6475 706.4937,335.3075 C710.6537,350.8175 713.3671,360.9276 717.6271,377.0076 " fill="none" id="ClearAlarms-AlarmRefOrValue" style="stroke:#181818;stroke-width:1.0;"/><polygon fill="#181818" points="698.4637,305.6175,696.1781,312.4568,701.6123,317.1971,703.8979,310.3577,698.4637,305.6175" style="stroke:#181818;stroke-width:1.0;"/><polygon fill="#181818" points="719.1637,382.8075,720.7255,373.0833,717.8832,377.9742,712.9923,375.132,719.1637,382.8075" style="stroke:#181818;stroke-width:1.0;"/><text fill="#000000" font-family="sans-serif" font-size="13" lengthAdjust="spacing" textLength="76" x="709.4937" y="349.8026">clearedAlarm</text><text fill="#000000" font-family="sans-serif" font-size="13" lengthAdjust="spacing" textLength="20" x="696.8971" y="372.3585">0..*</text></g><!--link AlarmRefOrValue to AffectedService--><g id="link_AlarmRefOrValue_AffectedService"><path codeLine="173" d="M919.3237,674.0575 C959.9337,674.0575 986.8537,674.0575 1024.0137,674.0575 " fill="none" id="AlarmRefOrValue-AffectedService" style="stroke:#181818;stroke-width:1.0;"/><polygon fill="#181818" points="907.3237,674.0575,913.3237,678.0575,919.3237,674.0575,913.3237,670.0575,907.3237,674.0575" style="stroke:#181818;stroke-width:1.0;"/><polygon fill="#181818" points="1030.0137,674.0575,1021.0137,670.0575,1025.0137,674.0575,1021.0137,678.0575,1030.0137,674.0575" style="stroke:#181818;stroke-width:1.0;"/><text fill="#000000" font-family="sans-serif" font-size="13" lengthAdjust="spacing" textLength="87" x="925.2437" y="667.5526">affectedService</text><text fill="#000000" font-family="sans-serif" font-size="13" lengthAdjust="spacing" textLength="20" x="1002.6036" y="688.2298">0..*</text></g><!--link Alarm to AffectedService--><g id="link_Alarm_AffectedService"><path codeLine="175" d="M656.4298,395.2784 C661.9298,390.7284 658.4537,394.1375 664.4937,390.2675 C761.7437,327.8475 822.8937,335.2175 924.4937,390.2675 C1010.8537,437.0575 1061.1311,537.9593 1087.1411,606.3593 " fill="none" id="Alarm-AffectedService" style="stroke:#181818;stroke-width:1.0;"/><polygon fill="#181818" points="647.1837,402.9275,654.3565,402.185,656.4298,395.2784,649.2571,396.0209,647.1837,402.9275" style="stroke:#181818;stroke-width:1.0;"/><polygon fill="#181818" points="1089.2737,611.9675,1089.8136,602.1335,1087.4965,607.294,1082.336,604.9769,1089.2737,611.9675" style="stroke:#181818;stroke-width:1.0;"/><text fill="#000000" font-family="sans-serif" font-size="13" lengthAdjust="spacing" textLength="87" x="892.9937" y="349.8026">affectedService</text><text fill="#000000" font-family="sans-serif" font-size="13" lengthAdjust="spacing" textLength="20" x="1065.7795" y="601.379">0..*</text></g><!--link AlarmRefOrValue to AlarmRef--><g id="link_AlarmRefOrValue_AlarmRef"><path codeLine="177" d="M914.9648,881.0113 C944.8348,917.5813 972.7337,942.0875 1013.4937,964.8075 C1075.8837,999.5775 1285.4037,941.9975 1333.4937,994.8075 C1387.7637,1054.3975 1273.4467,1096.8429 1186.6267,1119.6529 " fill="none" id="AlarmRefOrValue-AlarmRef" style="stroke:#181818;stroke-width:1.0;"/><polygon fill="#181818" points="907.3737,871.7175,908.0713,878.8948,914.9648,881.0113,914.2672,873.834,907.3737,871.7175" style="stroke:#181818;stroke-width:1.0;"/><polygon fill="#181818" points="1180.8237,1121.1775,1190.5447,1122.7593,1185.6596,1119.907,1188.5119,1115.0219,1180.8237,1121.1775" style="stroke:#181818;stroke-width:1.0;"/><text fill="#000000" font-family="sans-serif" font-size="13" lengthAdjust="spacing" textLength="91" x="1344.4937" y="1009.3026">correlatedAlarm</text><text fill="#000000" font-family="sans-serif" font-size="13" lengthAdjust="spacing" textLength="20" x="1188.5005" y="1116.3954">0..*</text></g><!--link AlarmRefOrValue to AlarmRef--><g id="link_AlarmRefOrValue_AlarmRef"><path codeLine="179" d="M914.9942,877.3505 C945.0342,914.6205 973.0437,940.2975 1013.4937,964.8075 C1082.4837,1006.6075 1140.3837,933.2275 1192.4937,994.8075 C1212.2737,1018.1775 1204.9507,1041.5274 1184.7207,1066.6074 " fill="none" id="AlarmRefOrValue-AlarmRef-1" style="stroke:#181818;stroke-width:1.0;"/><polygon fill="#181818" points="907.4637,868.0075,908.1146,875.1892,914.9942,877.3505,914.3433,870.1688,907.4637,868.0075" style="stroke:#181818;stroke-width:1.0;"/><polygon fill="#181818" points="1180.9537,1071.2775,1189.7176,1066.7837,1184.0928,1067.3858,1183.4908,1061.761,1180.9537,1071.2775" style="stroke:#181818;stroke-width:1.0;"/><text fill="#000000" font-family="sans-serif" font-size="13" lengthAdjust="spacing" textLength="70" x="1201.4937" y="1009.3026">parentAlarm</text><text fill="#000000" font-family="sans-serif" font-size="13" lengthAdjust="spacing" textLength="20" x="1188.3621" y="1062.4459">0..*</text></g><!--link Alarm to AlarmRef--><g id="link_Alarm_AlarmRef"><path codeLine="181" d="M652.2234,955.7116 C658.8234,961.9516 657.0937,959.5175 664.4937,964.8075 C724.0537,1007.3375 928.5137,959.2575 992.4937,994.8075 C1017.0337,1008.4375 1034.1744,1025.3172 1050.7244,1047.7772 " fill="none" id="Alarm-AlarmRef" style="stroke:#181818;stroke-width:1.0;"/><polygon fill="#181818" points="643.5037,947.4675,645.1155,954.4962,652.2234,955.7116,650.6116,948.683,643.5037,947.4675" style="stroke:#181818;stroke-width:1.0;"/><polygon fill="#181818" points="1054.2837,1052.6075,1052.165,1042.9892,1051.3176,1048.5823,1045.7246,1047.7349,1054.2837,1052.6075" style="stroke:#181818;stroke-width:1.0;"/><text fill="#000000" font-family="sans-serif" font-size="13" lengthAdjust="spacing" textLength="91" x="1016.4937" y="1009.3026">correlatedAlarm</text><text fill="#000000" font-family="sans-serif" font-size="13" lengthAdjust="spacing" textLength="20" x="1029.3672" y="1041.9327">0..*</text></g><!--link Alarm to AlarmRef--><g id="link_Alarm_AlarmRef"><path codeLine="183" d="M653.0868,955.874 C659.3968,962.054 657.4737,959.4675 664.4937,964.8075 C734.9937,1018.4075 775.6537,972.9975 861.4937,994.8075 C865.3037,995.7675 991.1237,1040.7875 994.4937,1042.8075 C1003.9237,1048.4375 1008.5134,1051.3121 1017.5334,1058.2721 " fill="none" id="Alarm-AlarmRef-1" style="stroke:#181818;stroke-width:1.0;"/><polygon fill="#181818" points="644.5137,947.4775,646.0014,954.5335,653.0868,955.874,651.5991,948.818,644.5137,947.4775" style="stroke:#181818;stroke-width:1.0;"/><polygon fill="#181818" points="1022.2837,1061.9375,1017.6019,1053.2726,1018.3251,1058.883,1012.7147,1059.6063,1022.2837,1061.9375" style="stroke:#181818;stroke-width:1.0;"/><text fill="#000000" font-family="sans-serif" font-size="13" lengthAdjust="spacing" textLength="70" x="909.4937" y="1009.3026">parentAlarm</text><text fill="#000000" font-family="sans-serif" font-size="13" lengthAdjust="spacing" textLength="20" x="994.6172" y="1052.0645">0..*</text></g><!--link AlarmRefOrValue to AlarmedObject--><g id="link_AlarmRefOrValue_AlarmedObject"><path codeLine="185" d="M673.2597,957.8239 C667.7597,963.2739 670.5237,959.9875 664.4937,964.8075 C612.0737,1006.7175 576.0437,963.8575 516.4937,994.8075 C477.4637,1015.0875 445.4339,1043.9692 418.2239,1073.4392 " fill="none" id="AlarmRefOrValue-AlarmedObject" style="stroke:#181818;stroke-width:1.0;"/><polygon fill="#181818" points="681.7837,949.3775,674.7062,950.7594,673.2597,957.8239,680.3372,956.442,681.7837,949.3775" style="stroke:#181818;stroke-width:1.0;"/><polygon fill="#181818" points="414.1537,1077.8475,423.1979,1073.9485,417.5456,1074.1739,417.3202,1068.5216,414.1537,1077.8475" style="stroke:#181818;stroke-width:1.0;"/><text fill="#000000" font-family="sans-serif" font-size="13" lengthAdjust="spacing" textLength="84" x="517.4937" y="1009.3026">alarmedObject</text><text fill="#000000" font-family="sans-serif" font-size="13" lengthAdjust="spacing" textLength="22" x="396.6238" y="1067.2683">0..1</text></g><!--link Alarm to AlarmedObject--><g id="link_Alarm_AlarmedObject"><path codeLine="187" d="M410.6114,723.1889 C301.1314,771.9389 152.4637,857.8375 81.4937,994.8075 C48.1337,1059.1775 134.5937,1019.6475 191.4937,1042.8075 C223.1537,1055.6875 251.1248,1070.0897 279.8648,1086.5197 " fill="none" id="Alarm-AlarmedObject" style="stroke:#181818;stroke-width:1.0;"/><polygon fill="#181818" points="421.5737,718.3075,414.4654,717.0941,410.6114,723.1889,417.7197,724.4023,421.5737,718.3075" style="stroke:#181818;stroke-width:1.0;"/><polygon fill="#181818" points="285.0737,1089.4975,279.2455,1081.5582,280.7329,1087.016,275.2751,1088.5034,285.0737,1089.4975" style="stroke:#181818;stroke-width:1.0;"/><text fill="#000000" font-family="sans-serif" font-size="13" lengthAdjust="spacing" textLength="84" x="82.4937" y="1009.3026">alarmedObject</text><text fill="#000000" font-family="sans-serif" font-size="13" lengthAdjust="spacing" textLength="22" x="255.5858" y="1082.1744">0..1</text></g><!--link AlarmRefOrValue to Comment--><g id="link_AlarmRefOrValue_Comment"><path codeLine="189" d="M914.653,871.9354 C945.043,910.3154 973.3537,937.7775 1013.4937,964.8075 C1056.2337,993.5875 1094.1237,953.9275 1125.4937,994.8075 C1130.3637,1001.1475 1130.4137,1006.4975 1125.4937,1012.8075 C1091.6637,1056.1375 1054.0437,1017.0175 1005.4937,1042.8075 C996.0137,1047.8375 991.5359,1050.3409 982.5959,1056.9209 " fill="none" id="AlarmRefOrValue-Comment" style="stroke:#181818;stroke-width:1.0;"/><polygon fill="#181818" points="907.2037,862.5275,907.7924,869.7145,914.653,871.9354,914.0643,864.7483,907.2037,862.5275" style="stroke:#181818;stroke-width:1.0;"/><polygon fill="#181818" points="977.7637,1060.4775,987.3831,1058.3641,981.7906,1057.5137,982.641,1051.9211,977.7637,1060.4775" style="stroke:#181818;stroke-width:1.0;"/><text fill="#000000" font-family="sans-serif" font-size="13" lengthAdjust="spacing" textLength="54" x="1129.4937" y="1009.3026">comment</text><text fill="#000000" font-family="sans-serif" font-size="13" lengthAdjust="spacing" textLength="20" x="964.366" y="1049.6612">0..*</text></g><!--link Alarm to Comment--><g id="link_Alarm_Comment"><path codeLine="191" d="M580.2567,958.3874 C592.4767,982.6774 602.6637,994.3075 622.4937,1012.8075 C675.4037,1062.1575 716.9837,1012.0875 782.4937,1042.8075 C795.0437,1048.6875 802.4756,1052.768 814.1356,1061.068 " fill="none" id="Alarm-Comment" style="stroke:#181818;stroke-width:1.0;"/><polygon fill="#181818" points="574.8637,947.6675,573.9869,954.8251,580.2567,958.3874,581.1335,951.2298,574.8637,947.6675" style="stroke:#181818;stroke-width:1.0;"/><polygon fill="#181818" points="819.0237,1064.5475,814.0113,1056.0696,814.9503,1061.6479,809.3719,1062.587,819.0237,1064.5475" style="stroke:#181818;stroke-width:1.0;"/><text fill="#000000" font-family="sans-serif" font-size="13" lengthAdjust="spacing" textLength="54" x="623.4937" y="1009.3026">comment</text><text fill="#000000" font-family="sans-serif" font-size="13" lengthAdjust="spacing" textLength="20" x="791.6145" y="1055.1583">0..*</text></g><!--link AlarmRefOrValue to RelatedPlaceRefOrValue--><g id="link_AlarmRefOrValue_RelatedPlaceRefOrValue"><path codeLine="193" d="M672.6676,959.2291 C667.2076,964.0491 670.4837,960.6275 664.4937,964.8075 C584.6437,1020.4675 315.5037,953.2275 227.4937,994.8075 C199.9737,1007.8075 179.3039,1024.6384 158.7039,1046.8484 " fill="none" id="AlarmRefOrValue-RelatedPlaceRefOrValue" style="stroke:#181818;stroke-width:1.0;"/><polygon fill="#181818" points="681.6637,951.2875,674.5184,952.2596,672.6676,959.2291,679.8128,958.257,681.6637,951.2875" style="stroke:#181818;stroke-width:1.0;"/><polygon fill="#181818" points="154.6237,1051.2475,163.6767,1047.369,158.0239,1047.5816,157.8113,1041.9287,154.6237,1051.2475" style="stroke:#181818;stroke-width:1.0;"/><text fill="#000000" font-family="sans-serif" font-size="13" lengthAdjust="spacing" textLength="31" x="228.4937" y="1009.3026">place</text><text fill="#000000" font-family="sans-serif" font-size="13" lengthAdjust="spacing" textLength="20" x="139.0235" y="1040.7573">0..*</text></g><!--link Alarm to RelatedPlaceRefOrValue--><g id="link_Alarm_RelatedPlaceRefOrValue"><path codeLine="195" d="M410.3964,714.8907 C289.8364,759.7307 116.3237,845.3375 34.4937,994.8075 C24.8037,1012.4975 23.8523,1026.4738 29.9423,1045.4738 " fill="none" id="Alarm-RelatedPlaceRefOrValue" style="stroke:#181818;stroke-width:1.0;"/><polygon fill="#181818" points="421.6437,710.7075,414.6257,709.05,410.3964,714.8907,417.4145,716.5482,421.6437,710.7075" style="stroke:#181818;stroke-width:1.0;"/><polygon fill="#181818" points="31.7737,1051.1875,32.8357,1041.3961,30.2475,1046.4261,25.2175,1043.8379,31.7737,1051.1875" style="stroke:#181818;stroke-width:1.0;"/><text fill="#000000" font-family="sans-serif" font-size="13" lengthAdjust="spacing" textLength="31" x="35.4937" y="1009.3026">place</text><text fill="#000000" font-family="sans-serif" font-size="13" lengthAdjust="spacing" textLength="20" x="6" y="1040.6923">0..*</text></g><!--link AlarmRefOrValue to CrossedThresholdInformation--><g id="link_AlarmRefOrValue_CrossedThresholdInformation"><path codeLine="197" d="M695.0336,976.5532 C685.9236,1004.1632 682.8436,1013.4996 675.0736,1037.0496 " fill="none" id="AlarmRefOrValue-CrossedThresholdInformation" style="stroke:#181818;stroke-width:1.0;"/><polygon fill="#181818" points="698.7937,965.1575,693.1151,969.602,695.0336,976.5532,700.7122,972.1087,698.7937,965.1575" style="stroke:#181818;stroke-width:1.0;"/><polygon fill="#181818" points="673.1937,1042.7475,679.8122,1035.454,674.7603,1037.9993,672.215,1032.9474,673.1937,1042.7475" style="stroke:#181818;stroke-width:1.0;"/><text fill="#000000" font-family="sans-serif" font-size="13" lengthAdjust="spacing" textLength="165" x="687.4937" y="1009.3026">crossedThresholdInformation</text><text fill="#000000" font-family="sans-serif" font-size="13" lengthAdjust="spacing" textLength="22" x="652.8432" y="1031.8809">0..1</text></g><!--link Alarm to CrossedThresholdInformation--><g id="link_Alarm_CrossedThresholdInformation"><path codeLine="199" d="M411.8288,751.3474 C312.6088,820.9274 204.7337,923.3775 280.4937,1012.8075 C332.9137,1074.6875 383.6737,1016.7875 460.4937,1042.8075 C479.5337,1049.2475 493.5734,1054.9335 512.3234,1063.9235 " fill="none" id="Alarm-CrossedThresholdInformation" style="stroke:#181818;stroke-width:1.0;"/><polygon fill="#181818" points="421.6537,744.4575,414.4446,744.6275,411.8288,751.3474,419.0379,751.1774,421.6537,744.4575" style="stroke:#181818;stroke-width:1.0;"/><polygon fill="#181818" points="517.7337,1066.5175,511.3477,1059.0196,513.2251,1064.3558,507.8889,1066.2333,517.7337,1066.5175" style="stroke:#181818;stroke-width:1.0;"/><text fill="#000000" font-family="sans-serif" font-size="13" lengthAdjust="spacing" textLength="165" x="281.4937" y="1009.3026">crossedThresholdInformation</text><text fill="#000000" font-family="sans-serif" font-size="13" lengthAdjust="spacing" textLength="22" x="487.9429" y="1059.3205">0..1</text></g><!--link CrossedThresholdInformation to ThresholdRef--><g id="link_CrossedThresholdInformation_ThresholdRef"><path codeLine="201" d="M641.4937,1249.3075 C641.4937,1274.5975 641.4937,1283.7175 641.4937,1308.4475 " fill="none" id="CrossedThresholdInformation-ThresholdRef" style="stroke:#181818;stroke-width:1.0;"/><polygon fill="#181818" points="641.4937,1237.3075,637.4937,1243.3075,641.4937,1249.3075,645.4937,1243.3075,641.4937,1237.3075" style="stroke:#181818;stroke-width:1.0;"/><polygon fill="#181818" points="641.4937,1314.4475,645.4937,1305.4475,641.4937,1309.4475,637.4937,1305.4475,641.4937,1314.4475" style="stroke:#181818;stroke-width:1.0;"/><text fill="#000000" font-family="sans-serif" font-size="13" lengthAdjust="spacing" textLength="53" x="642.4937" y="1281.3926">threshold</text><text fill="#000000" font-family="sans-serif" font-size="13" lengthAdjust="spacing" textLength="22" x="618.5827" y="1304.054">0..1</text></g><rect fill="#DDDDDD" height="27.6094" id="_legend" rx="7.5" ry="7.5" style="stroke:#000000;stroke-width:1.0;" width="123" x="653.2468" y="1506.8663"/><a href="index.htm" target="_top" title="index.htm" xlink:actuate="onRequest" xlink:href="index.htm" xlink:show="new" xlink:title="index.htm" xlink:type="simple"><text fill="#0000FF" font-family="sans-serif" font-size="14" lengthAdjust="spacing" text-decoration="underline" textLength="113" x="658.2468" y="1526.3995">Go to API Catalog</text></a></g></svg>