<?xml version="1.0" encoding="UTF-8" standalone="no"?><svg xmlns="http://www.w3.org/2000/svg" xmlns:xlink="http://www.w3.org/1999/xlink" contentScriptType="application/ecmascript" contentStyleType="text/css" height="1499px" preserveAspectRatio="none" style="width:1266px;height:1499px;" version="1.1" viewBox="0 0 1266 1499" width="1266px" zoomAndPan="magnify"><defs><filter height="300%" id="f11keqb164tceu" width="300%" x="-1" y="-1"><feGaussianBlur result="blurOut" stdDeviation="2.0"/><feColorMatrix in="blurOut" result="blurOut2" type="matrix" values="0 0 0 0 0 0 0 0 0 0 0 0 0 0 0 0 0 0 .4 0"/><feOffset dx="4.0" dy="4.0" in="blurOut2" result="blurOut3"/><feBlend in="SourceGraphic" in2="blurOut3" mode="normal"/></filter></defs><g><!--class CommentAlarms--><rect fill="#FFFFFF" filter="url(#f11keqb164tceu)" height="150.5234" id="CommentAlarms" style="stroke: #A80036; stroke-width: 1.5;" width="194" x="524.32" y="8.48"/><text fill="#000000" font-family="sans-serif" font-size="12" lengthAdjust="spacingAndGlyphs" textLength="94" x="574.32" y="25.937">CommentAlarms</text><text fill="#000000" font-family="sans-serif" font-size="12" lengthAdjust="spacingAndGlyphs" textLength="4" x="563.32" y="41.0308">(</text><text fill="#000000" font-family="sans-serif" font-size="9" font-style="italic" lengthAdjust="spacingAndGlyphs" textLength="17" x="567.32" y="41.69">from</text><a target="_top" xlink:actuate="onRequest" xlink:href="TMF642.svg" xlink:show="new" xlink:title="TMF642.svg" xlink:type="simple"><text fill="#0000FF" font-family="sans-serif" font-size="9" font-style="italic" lengthAdjust="spacingAndGlyphs" text-decoration="underline" textLength="60" x="587.32" y="41.69">TMF642-Alarm</text><line style="stroke: #0000FF; stroke-width: 1.0;" x1="587.32" x2="647.32" y1="43.69" y2="43.69"/></a><text fill="#000000" font-family="sans-serif" font-size="9" font-style="italic" lengthAdjust="spacingAndGlyphs" textLength="26" x="650.32" y="41.69">v4.0.0</text><text fill="#000000" font-family="sans-serif" font-size="9" lengthAdjust="spacingAndGlyphs" textLength="3" x="676.32" y="41.69">)</text><line style="stroke: #A80036; stroke-width: 1.5;" x1="525.32" x2="717.32" y1="48.6675" y2="48.6675"/><text fill="#000000" font-family="sans-serif" font-size="9" font-style="italic" lengthAdjust="spacingAndGlyphs" textLength="182" x="530.32" y="62.0103">Task resource for comment alarms operation</text><line style="stroke: #A80036; stroke-width: 1.0; stroke-dasharray: 1.0,2.0;" x1="525.32" x2="717.32" y1="67.9878" y2="67.9878"/><text fill="#000000" font-family="sans-serif" font-size="11" lengthAdjust="spacingAndGlyphs" textLength="57" x="530.32" y="83.4068">href : String</text><text fill="#000000" font-family="sans-serif" font-size="11" lengthAdjust="spacingAndGlyphs" textLength="45" x="530.32" y="97.2427">id : String</text><text fill="#000000" font-family="sans-serif" font-size="11" lengthAdjust="spacingAndGlyphs" textLength="61" x="530.32" y="111.0786">state : String</text><text fill="#000000" font-family="sans-serif" font-size="11" lengthAdjust="spacingAndGlyphs" textLength="96" x="530.32" y="124.9146">@baseType : String</text><text fill="#000000" font-family="sans-serif" font-size="11" lengthAdjust="spacingAndGlyphs" textLength="112" x="530.32" y="138.7505">@schemaLocation : Uri</text><text fill="#000000" font-family="sans-serif" font-size="11" lengthAdjust="spacingAndGlyphs" textLength="69" x="530.32" y="152.5864">@type : String</text><!--class AlarmRefOrValue--><rect fill="#FCF2E3" filter="url(#f11keqb164tceu)" height="462.0078" id="AlarmRefOrValue" style="stroke: #A80036; stroke-width: 1.5;" width="175" x="113.82" y="504"/><a target="_top" xlink:actuate="onRequest" xlink:href="Alarm.svg" xlink:show="new" xlink:title="Alarm.svg" xlink:type="simple"><text fill="#0000FF" font-family="sans-serif" font-size="12" lengthAdjust="spacingAndGlyphs" text-decoration="underline" textLength="32" x="153.82" y="521.457">Alarm</text><line style="stroke: #0000FF; stroke-width: 1.0;" x1="153.82" x2="185.82" y1="523.457" y2="523.457"/></a><text fill="#000000" font-family="sans-serif" font-size="12" lengthAdjust="spacingAndGlyphs" textLength="63" x="185.82" y="521.457">RefOrValue</text><line style="stroke: #A80036; stroke-width: 1.5;" x1="114.82" x2="287.82" y1="529.0938" y2="529.0938"/><text fill="#000000" font-family="sans-serif" font-size="11" lengthAdjust="spacingAndGlyphs" textLength="79" x="119.82" y="544.5127">ackState : String</text><text fill="#000000" font-family="sans-serif" font-size="11" lengthAdjust="spacingAndGlyphs" textLength="98" x="119.82" y="558.3486">ackSystemId : String</text><text fill="#000000" font-family="sans-serif" font-size="11" lengthAdjust="spacingAndGlyphs" textLength="85" x="119.82" y="572.1846">ackUserId : String</text><text fill="#000000" font-family="sans-serif" font-size="11" lengthAdjust="spacingAndGlyphs" textLength="144" x="119.82" y="586.0205">alarmChangedTime : DateTime</text><text fill="#000000" font-family="sans-serif" font-size="11" lengthAdjust="spacingAndGlyphs" textLength="138" x="119.82" y="599.8564">alarmClearedTime : DateTime</text><text fill="#000000" font-family="sans-serif" font-size="11" lengthAdjust="spacingAndGlyphs" textLength="95" x="119.82" y="613.6924">alarmDetails : String</text><text fill="#000000" font-family="sans-serif" font-size="11" lengthAdjust="spacingAndGlyphs" textLength="123" x="119.82" y="627.5283">alarmEscalation : Boolean</text><text fill="#000000" font-family="sans-serif" font-size="11" lengthAdjust="spacingAndGlyphs" textLength="134" x="119.82" y="641.3643">alarmRaisedTime : DateTime</text><text fill="#000000" font-family="sans-serif" font-size="11" lengthAdjust="spacingAndGlyphs" textLength="147" x="119.82" y="655.2002">alarmReportingTime : DateTime</text><text fill="#000000" font-family="sans-serif" font-size="11" lengthAdjust="spacingAndGlyphs" textLength="87" x="119.82" y="669.0361">alarmType : String</text><text fill="#000000" font-family="sans-serif" font-size="11" lengthAdjust="spacingAndGlyphs" textLength="130" x="119.82" y="682.8721">alarmedObjectType : String</text><text fill="#000000" font-family="sans-serif" font-size="11" lengthAdjust="spacingAndGlyphs" textLength="105" x="119.82" y="696.708">clearSystemId : String</text><text fill="#000000" font-family="sans-serif" font-size="11" lengthAdjust="spacingAndGlyphs" textLength="92" x="119.82" y="710.5439">clearUserId : String</text><text fill="#000000" font-family="sans-serif" font-size="11" lengthAdjust="spacingAndGlyphs" textLength="112" x="119.82" y="724.3799">externalAlarmId : String</text><text fill="#000000" font-family="sans-serif" font-size="11" lengthAdjust="spacingAndGlyphs" textLength="57" x="119.82" y="738.2158">href : String</text><text fill="#000000" font-family="sans-serif" font-size="11" lengthAdjust="spacingAndGlyphs" textLength="50" x="119.82" y="752.0518">id : Integer</text><text fill="#000000" font-family="sans-serif" font-size="11" lengthAdjust="spacingAndGlyphs" textLength="109" x="119.82" y="765.8877">isRootCause : Boolean</text><text fill="#000000" font-family="sans-serif" font-size="11" lengthAdjust="spacingAndGlyphs" textLength="63" x="119.82" y="779.7236">name : String</text><text fill="#000000" font-family="sans-serif" font-size="11" lengthAdjust="spacingAndGlyphs" textLength="125" x="119.82" y="793.5596">perceivedSeverity : String</text><text fill="#000000" font-family="sans-serif" font-size="11" lengthAdjust="spacingAndGlyphs" textLength="151" x="119.82" y="807.3955">plannedOutageIndicator : String</text><text fill="#000000" font-family="sans-serif" font-size="11" lengthAdjust="spacingAndGlyphs" textLength="110" x="119.82" y="821.2314">probableCause : String</text><text fill="#000000" font-family="sans-serif" font-size="11" lengthAdjust="spacingAndGlyphs" textLength="163" x="119.82" y="835.0674">proposedRepairedActions : String</text><text fill="#000000" font-family="sans-serif" font-size="11" lengthAdjust="spacingAndGlyphs" textLength="124" x="119.82" y="848.9033">reportingSystemId : String</text><text fill="#000000" font-family="sans-serif" font-size="11" lengthAdjust="spacingAndGlyphs" textLength="129" x="119.82" y="862.7393">serviceAffecting : Boolean</text><text fill="#000000" font-family="sans-serif" font-size="11" lengthAdjust="spacingAndGlyphs" textLength="115" x="119.82" y="876.5752">sourceSystemId : String</text><text fill="#000000" font-family="sans-serif" font-size="11" lengthAdjust="spacingAndGlyphs" textLength="113" x="119.82" y="890.4111">specificProblem : String</text><text fill="#000000" font-family="sans-serif" font-size="11" lengthAdjust="spacingAndGlyphs" textLength="61" x="119.82" y="904.2471">state : String</text><text fill="#000000" font-family="sans-serif" font-size="11" lengthAdjust="spacingAndGlyphs" textLength="96" x="119.82" y="918.083">@baseType : String</text><text fill="#000000" font-family="sans-serif" font-size="11" lengthAdjust="spacingAndGlyphs" textLength="112" x="119.82" y="931.9189">@referredType : String</text><text fill="#000000" font-family="sans-serif" font-size="11" lengthAdjust="spacingAndGlyphs" textLength="127" x="119.82" y="945.7549">@schemaLocation : String</text><text fill="#000000" font-family="sans-serif" font-size="11" lengthAdjust="spacingAndGlyphs" textLength="69" x="119.82" y="959.5908">@type : String</text><!--class AlarmRef--><rect fill="#FFFFE0" filter="url(#f11keqb164tceu)" height="129.9453" id="AlarmRef" style="stroke: #A80036; stroke-width: 1.5;" width="124" x="549.32" y="1098"/><a target="_top" xlink:actuate="onRequest" xlink:href="Alarm.svg" xlink:show="new" xlink:title="Alarm.svg" xlink:type="simple"><text fill="#0000FF" font-family="sans-serif" font-size="12" lengthAdjust="spacingAndGlyphs" text-decoration="underline" textLength="32" x="585.82" y="1115.457">Alarm</text><line style="stroke: #0000FF; stroke-width: 1.0;" x1="585.82" x2="617.82" y1="1117.457" y2="1117.457"/></a><text fill="#000000" font-family="sans-serif" font-size="12" lengthAdjust="spacingAndGlyphs" textLength="19" x="617.82" y="1115.457">Ref</text><line style="stroke: #A80036; stroke-width: 1.5;" x1="550.32" x2="672.32" y1="1123.0938" y2="1123.0938"/><text fill="#000000" font-family="sans-serif" font-size="11" lengthAdjust="spacingAndGlyphs" textLength="57" x="555.32" y="1138.5127">href : String</text><text fill="#000000" font-family="sans-serif" font-size="11" lengthAdjust="spacingAndGlyphs" textLength="45" x="555.32" y="1152.3486">id : String</text><text fill="#000000" font-family="sans-serif" font-size="11" lengthAdjust="spacingAndGlyphs" textLength="63" x="555.32" y="1166.1846">name : String</text><text fill="#000000" font-family="sans-serif" font-size="11" lengthAdjust="spacingAndGlyphs" textLength="96" x="555.32" y="1180.0205">@baseType : String</text><text fill="#000000" font-family="sans-serif" font-size="11" lengthAdjust="spacingAndGlyphs" textLength="112" x="555.32" y="1193.8564">@referredType : String</text><text fill="#000000" font-family="sans-serif" font-size="11" lengthAdjust="spacingAndGlyphs" textLength="112" x="555.32" y="1207.6924">@schemaLocation : Uri</text><text fill="#000000" font-family="sans-serif" font-size="11" lengthAdjust="spacingAndGlyphs" textLength="69" x="555.32" y="1221.5283">@type : String</text><!--class AlarmedObject--><rect fill="#FCF2E3" filter="url(#f11keqb164tceu)" height="102.2734" id="AlarmedObject" style="stroke: #A80036; stroke-width: 1.5;" width="124" x="314.32" y="1111.5"/><text fill="#000000" font-family="sans-serif" font-size="12" lengthAdjust="spacingAndGlyphs" textLength="81" x="335.82" y="1128.957">AlarmedObject</text><line style="stroke: #A80036; stroke-width: 1.5;" x1="315.32" x2="437.32" y1="1136.5938" y2="1136.5938"/><text fill="#000000" font-family="sans-serif" font-size="11" lengthAdjust="spacingAndGlyphs" textLength="57" x="320.32" y="1152.0127">href : String</text><text fill="#000000" font-family="sans-serif" font-size="11" lengthAdjust="spacingAndGlyphs" textLength="45" x="320.32" y="1165.8486">id : String</text><text fill="#000000" font-family="sans-serif" font-size="11" lengthAdjust="spacingAndGlyphs" textLength="96" x="320.32" y="1179.6846">@baseType : String</text><text fill="#000000" font-family="sans-serif" font-size="11" lengthAdjust="spacingAndGlyphs" textLength="112" x="320.32" y="1193.5205">@schemaLocation : Uri</text><text fill="#000000" font-family="sans-serif" font-size="11" lengthAdjust="spacingAndGlyphs" textLength="69" x="320.32" y="1207.3564">@type : String</text><!--class AffectedService--><rect fill="#FCF2E3" filter="url(#f11keqb164tceu)" height="102.2734" id="AffectedService" style="stroke: #A80036; stroke-width: 1.5;" width="124" x="460.32" y="684"/><text fill="#000000" font-family="sans-serif" font-size="12" lengthAdjust="spacingAndGlyphs" textLength="83" x="480.82" y="701.457">AffectedService</text><line style="stroke: #A80036; stroke-width: 1.5;" x1="461.32" x2="583.32" y1="709.0938" y2="709.0938"/><text fill="#000000" font-family="sans-serif" font-size="11" lengthAdjust="spacingAndGlyphs" textLength="57" x="466.32" y="724.5127">href : String</text><text fill="#000000" font-family="sans-serif" font-size="11" lengthAdjust="spacingAndGlyphs" textLength="45" x="466.32" y="738.3486">id : String</text><text fill="#000000" font-family="sans-serif" font-size="11" lengthAdjust="spacingAndGlyphs" textLength="96" x="466.32" y="752.1846">@baseType : String</text><text fill="#000000" font-family="sans-serif" font-size="11" lengthAdjust="spacingAndGlyphs" textLength="112" x="466.32" y="766.0205">@schemaLocation : Uri</text><text fill="#000000" font-family="sans-serif" font-size="11" lengthAdjust="spacingAndGlyphs" textLength="69" x="466.32" y="779.8564">@type : String</text><!--class RelatedPlaceRefOrValue--><rect fill="#FCF2E3" filter="url(#f11keqb164tceu)" height="143.7813" id="RelatedPlaceRefOrValue" style="stroke: #A80036; stroke-width: 1.5;" width="143" x="32.82" y="1091"/><text fill="#000000" font-family="sans-serif" font-size="12" lengthAdjust="spacingAndGlyphs" textLength="43" x="35.82" y="1108.457">Related</text><a target="_top" xlink:actuate="onRequest" xlink:href="Place.svg" xlink:show="new" xlink:title="Place.svg" xlink:type="simple"><text fill="#0000FF" font-family="sans-serif" font-size="12" lengthAdjust="spacingAndGlyphs" text-decoration="underline" textLength="31" x="78.82" y="1108.457">Place</text><line style="stroke: #0000FF; stroke-width: 1.0;" x1="78.82" x2="109.82" y1="1110.457" y2="1110.457"/></a><text fill="#000000" font-family="sans-serif" font-size="12" lengthAdjust="spacingAndGlyphs" textLength="63" x="109.82" y="1108.457">RefOrValue</text><line style="stroke: #A80036; stroke-width: 1.5;" x1="33.82" x2="174.82" y1="1116.0938" y2="1116.0938"/><text fill="#000000" font-family="sans-serif" font-size="11" lengthAdjust="spacingAndGlyphs" textLength="57" x="38.82" y="1131.5127">href : String</text><text fill="#000000" font-family="sans-serif" font-size="11" lengthAdjust="spacingAndGlyphs" textLength="45" x="38.82" y="1145.3486">id : String</text><text fill="#000000" font-family="sans-serif" font-size="11" lengthAdjust="spacingAndGlyphs" textLength="63" x="38.82" y="1159.1846">name : String</text><text fill="#000000" font-family="sans-serif" font-size="11" lengthAdjust="spacingAndGlyphs" textLength="55" x="38.82" y="1173.0205">role : String</text><text fill="#000000" font-family="sans-serif" font-size="11" lengthAdjust="spacingAndGlyphs" textLength="96" x="38.82" y="1186.8564">@baseType : String</text><text fill="#000000" font-family="sans-serif" font-size="11" lengthAdjust="spacingAndGlyphs" textLength="112" x="38.82" y="1200.6924">@referredType : String</text><text fill="#000000" font-family="sans-serif" font-size="11" lengthAdjust="spacingAndGlyphs" textLength="112" x="38.82" y="1214.5283">@schemaLocation : Uri</text><text fill="#000000" font-family="sans-serif" font-size="11" lengthAdjust="spacingAndGlyphs" textLength="69" x="38.82" y="1228.3643">@type : String</text><!--class CrossedThresholdInformation--><rect fill="#FCF2E3" filter="url(#f11keqb164tceu)" height="157.6172" id="CrossedThresholdInformation" style="stroke: #A80036; stroke-width: 1.5;" width="191" x="770.82" y="1084"/><text fill="#000000" font-family="sans-serif" font-size="12" lengthAdjust="spacingAndGlyphs" textLength="166" x="783.32" y="1101.457">CrossedThresholdInformation</text><line style="stroke: #A80036; stroke-width: 1.5;" x1="771.82" x2="960.82" y1="1109.0938" y2="1109.0938"/><text fill="#000000" font-family="sans-serif" font-size="11" lengthAdjust="spacingAndGlyphs" textLength="78" x="776.82" y="1124.5127">direction : String</text><text fill="#000000" font-family="sans-serif" font-size="11" lengthAdjust="spacingAndGlyphs" textLength="88" x="776.82" y="1138.3486">granularity : String</text><text fill="#000000" font-family="sans-serif" font-size="11" lengthAdjust="spacingAndGlyphs" textLength="105" x="776.82" y="1152.1846">indicatorName : String</text><text fill="#000000" font-family="sans-serif" font-size="11" lengthAdjust="spacingAndGlyphs" textLength="96" x="776.82" y="1166.0205">indicatorUnit : String</text><text fill="#000000" font-family="sans-serif" font-size="11" lengthAdjust="spacingAndGlyphs" textLength="111" x="776.82" y="1179.8564">observedValue : String</text><text fill="#000000" font-family="sans-serif" font-size="11" lengthAdjust="spacingAndGlyphs" textLength="179" x="776.82" y="1193.6924">thresholdCrossingDescription : String</text><text fill="#000000" font-family="sans-serif" font-size="11" lengthAdjust="spacingAndGlyphs" textLength="96" x="776.82" y="1207.5283">@baseType : String</text><text fill="#000000" font-family="sans-serif" font-size="11" lengthAdjust="spacingAndGlyphs" textLength="112" x="776.82" y="1221.3643">@schemaLocation : Uri</text><text fill="#000000" font-family="sans-serif" font-size="11" lengthAdjust="spacingAndGlyphs" textLength="69" x="776.82" y="1235.2002">@type : String</text><!--class ThresholdRef--><rect fill="#FFFFE0" filter="url(#f11keqb164tceu)" height="129.9453" id="ThresholdRef" style="stroke: #A80036; stroke-width: 1.5;" width="124" x="804.32" y="1359"/><a target="_top" xlink:actuate="onRequest" xlink:href="Threshold.svg" xlink:show="new" xlink:title="Threshold.svg" xlink:type="simple"><text fill="#0000FF" font-family="sans-serif" font-size="12" lengthAdjust="spacingAndGlyphs" text-decoration="underline" textLength="56" x="828.82" y="1376.457">Threshold</text><line style="stroke: #0000FF; stroke-width: 1.0;" x1="828.82" x2="884.82" y1="1378.457" y2="1378.457"/></a><text fill="#000000" font-family="sans-serif" font-size="12" lengthAdjust="spacingAndGlyphs" textLength="19" x="884.82" y="1376.457">Ref</text><line style="stroke: #A80036; stroke-width: 1.5;" x1="805.32" x2="927.32" y1="1384.0938" y2="1384.0938"/><text fill="#000000" font-family="sans-serif" font-size="11" lengthAdjust="spacingAndGlyphs" textLength="57" x="810.32" y="1399.5127">href : String</text><text fill="#000000" font-family="sans-serif" font-size="11" lengthAdjust="spacingAndGlyphs" textLength="45" x="810.32" y="1413.3486">id : String</text><text fill="#000000" font-family="sans-serif" font-size="11" lengthAdjust="spacingAndGlyphs" textLength="63" x="810.32" y="1427.1846">name : String</text><text fill="#000000" font-family="sans-serif" font-size="11" lengthAdjust="spacingAndGlyphs" textLength="96" x="810.32" y="1441.0205">@baseType : String</text><text fill="#000000" font-family="sans-serif" font-size="11" lengthAdjust="spacingAndGlyphs" textLength="112" x="810.32" y="1454.8564">@referredType : String</text><text fill="#000000" font-family="sans-serif" font-size="11" lengthAdjust="spacingAndGlyphs" textLength="112" x="810.32" y="1468.6924">@schemaLocation : Uri</text><text fill="#000000" font-family="sans-serif" font-size="11" lengthAdjust="spacingAndGlyphs" textLength="69" x="810.32" y="1482.5283">@type : String</text><!--class Comment--><rect fill="#FCF2E3" filter="url(#f11keqb164tceu)" height="129.9453" id="Comment" style="stroke: #A80036; stroke-width: 1.5;" width="124" x="559.32" y="257"/><text fill="#000000" font-family="sans-serif" font-size="12" lengthAdjust="spacingAndGlyphs" textLength="55" x="593.82" y="274.457">Comment</text><line style="stroke: #A80036; stroke-width: 1.5;" x1="560.32" x2="682.32" y1="282.0938" y2="282.0938"/><text fill="#000000" font-family="sans-serif" font-size="11" lengthAdjust="spacingAndGlyphs" textLength="80" x="565.32" y="297.5127">comment : String</text><text fill="#000000" font-family="sans-serif" font-size="11" lengthAdjust="spacingAndGlyphs" textLength="80" x="565.32" y="311.3486">systemId : String</text><text fill="#000000" font-family="sans-serif" font-size="11" lengthAdjust="spacingAndGlyphs" textLength="72" x="565.32" y="325.1846">time : DateTime</text><text fill="#000000" font-family="sans-serif" font-size="11" lengthAdjust="spacingAndGlyphs" textLength="67" x="565.32" y="339.0205">userId : String</text><text fill="#000000" font-family="sans-serif" font-size="11" lengthAdjust="spacingAndGlyphs" textLength="96" x="565.32" y="352.8564">@baseType : String</text><text fill="#000000" font-family="sans-serif" font-size="11" lengthAdjust="spacingAndGlyphs" textLength="112" x="565.32" y="366.6924">@schemaLocation : Uri</text><text fill="#000000" font-family="sans-serif" font-size="11" lengthAdjust="spacingAndGlyphs" textLength="69" x="565.32" y="380.5283">@type : String</text><!--class Alarm--><rect fill="#FCF2E3" filter="url(#f11keqb164tceu)" height="434.3359" id="Alarm" style="stroke: #A80036; stroke-width: 1.5;" width="175" x="755.82" y="518"/><text fill="#000000" font-family="sans-serif" font-size="12" lengthAdjust="spacingAndGlyphs" textLength="32" x="827.32" y="535.457">Alarm</text><line style="stroke: #A80036; stroke-width: 1.5;" x1="756.82" x2="929.82" y1="543.0938" y2="543.0938"/><text fill="#000000" font-family="sans-serif" font-size="11" lengthAdjust="spacingAndGlyphs" textLength="79" x="761.82" y="558.5127">ackState : String</text><text fill="#000000" font-family="sans-serif" font-size="11" lengthAdjust="spacingAndGlyphs" textLength="98" x="761.82" y="572.3486">ackSystemId : String</text><text fill="#000000" font-family="sans-serif" font-size="11" lengthAdjust="spacingAndGlyphs" textLength="85" x="761.82" y="586.1846">ackUserId : String</text><text fill="#000000" font-family="sans-serif" font-size="11" lengthAdjust="spacingAndGlyphs" textLength="144" x="761.82" y="600.0205">alarmChangedTime : DateTime</text><text fill="#000000" font-family="sans-serif" font-size="11" lengthAdjust="spacingAndGlyphs" textLength="138" x="761.82" y="613.8564">alarmClearedTime : DateTime</text><text fill="#000000" font-family="sans-serif" font-size="11" lengthAdjust="spacingAndGlyphs" textLength="95" x="761.82" y="627.6924">alarmDetails : String</text><text fill="#000000" font-family="sans-serif" font-size="11" lengthAdjust="spacingAndGlyphs" textLength="123" x="761.82" y="641.5283">alarmEscalation : Boolean</text><text fill="#000000" font-family="sans-serif" font-size="11" lengthAdjust="spacingAndGlyphs" textLength="134" x="761.82" y="655.3643">alarmRaisedTime : DateTime</text><text fill="#000000" font-family="sans-serif" font-size="11" lengthAdjust="spacingAndGlyphs" textLength="147" x="761.82" y="669.2002">alarmReportingTime : DateTime</text><text fill="#000000" font-family="sans-serif" font-size="11" lengthAdjust="spacingAndGlyphs" textLength="87" x="761.82" y="683.0361">alarmType : String</text><text fill="#000000" font-family="sans-serif" font-size="11" lengthAdjust="spacingAndGlyphs" textLength="130" x="761.82" y="696.8721">alarmedObjectType : String</text><text fill="#000000" font-family="sans-serif" font-size="11" lengthAdjust="spacingAndGlyphs" textLength="105" x="761.82" y="710.708">clearSystemId : String</text><text fill="#000000" font-family="sans-serif" font-size="11" lengthAdjust="spacingAndGlyphs" textLength="92" x="761.82" y="724.5439">clearUserId : String</text><text fill="#000000" font-family="sans-serif" font-size="11" lengthAdjust="spacingAndGlyphs" textLength="112" x="761.82" y="738.3799">externalAlarmId : String</text><text fill="#000000" font-family="sans-serif" font-size="11" lengthAdjust="spacingAndGlyphs" textLength="57" x="761.82" y="752.2158">href : String</text><text fill="#000000" font-family="sans-serif" font-size="11" lengthAdjust="spacingAndGlyphs" textLength="50" x="761.82" y="766.0518">id : Integer</text><text fill="#000000" font-family="sans-serif" font-size="11" lengthAdjust="spacingAndGlyphs" textLength="109" x="761.82" y="779.8877">isRootCause : Boolean</text><text fill="#000000" font-family="sans-serif" font-size="11" lengthAdjust="spacingAndGlyphs" textLength="125" x="761.82" y="793.7236">perceivedSeverity : String</text><text fill="#000000" font-family="sans-serif" font-size="11" lengthAdjust="spacingAndGlyphs" textLength="151" x="761.82" y="807.5596">plannedOutageIndicator : String</text><text fill="#000000" font-family="sans-serif" font-size="11" lengthAdjust="spacingAndGlyphs" textLength="110" x="761.82" y="821.3955">probableCause : String</text><text fill="#000000" font-family="sans-serif" font-size="11" lengthAdjust="spacingAndGlyphs" textLength="163" x="761.82" y="835.2314">proposedRepairedActions : String</text><text fill="#000000" font-family="sans-serif" font-size="11" lengthAdjust="spacingAndGlyphs" textLength="124" x="761.82" y="849.0674">reportingSystemId : String</text><text fill="#000000" font-family="sans-serif" font-size="11" lengthAdjust="spacingAndGlyphs" textLength="129" x="761.82" y="862.9033">serviceAffecting : Boolean</text><text fill="#000000" font-family="sans-serif" font-size="11" lengthAdjust="spacingAndGlyphs" textLength="115" x="761.82" y="876.7393">sourceSystemId : String</text><text fill="#000000" font-family="sans-serif" font-size="11" lengthAdjust="spacingAndGlyphs" textLength="113" x="761.82" y="890.5752">specificProblem : String</text><text fill="#000000" font-family="sans-serif" font-size="11" lengthAdjust="spacingAndGlyphs" textLength="61" x="761.82" y="904.4111">state : String</text><text fill="#000000" font-family="sans-serif" font-size="11" lengthAdjust="spacingAndGlyphs" textLength="96" x="761.82" y="918.2471">@baseType : String</text><text fill="#000000" font-family="sans-serif" font-size="11" lengthAdjust="spacingAndGlyphs" textLength="127" x="761.82" y="932.083">@schemaLocation : String</text><text fill="#000000" font-family="sans-serif" font-size="11" lengthAdjust="spacingAndGlyphs" textLength="69" x="761.82" y="945.9189">@type : String</text><!--link CommentAlarms to Comment--><path d="M621.32,173.61 C621.32,196.39 621.32,220.71 621.32,242.87 " fill="none" id="CommentAlarms-Comment" style="stroke: #A80036; stroke-width: 1.0;"/><polygon fill="#A80036" points="621.32,255.57,625.32,246.57,621.32,250.57,617.32,246.57,621.32,255.57" style="stroke: #A80036; stroke-width: 1.0;"/><line style="stroke: #A80036; stroke-width: 1.0;" x1="621.32" x2="621.32" y1="250.57" y2="242.57"/><polygon fill="#A80036" points="621.32,160.85,617.32,166.85,621.32,172.85,625.32,166.85,621.32,160.85" style="stroke: #A80036; stroke-width: 1.0;"/><text fill="#000000" font-family="sans-serif" font-size="13" lengthAdjust="spacingAndGlyphs" textLength="54" x="622.32" y="203.4951">comment</text><text fill="#000000" font-family="sans-serif" font-size="13" lengthAdjust="spacingAndGlyphs" textLength="22" x="598.0481" y="246.1784">0..1</text><!--link CommentAlarms to Alarm--><path d="M687.72,171.39 C701.33,192.08 714.48,214.66 724.32,237 C761.28,320.92 787.8,418.1 806.28,504.14 " fill="none" id="CommentAlarms-Alarm" style="stroke: #A80036; stroke-width: 1.0;"/><polygon fill="#A80036" points="808.92,516.64,810.9736,507.0076,807.8866,511.748,803.1463,508.661,808.92,516.64" style="stroke: #A80036; stroke-width: 1.0;"/><line style="stroke: #A80036; stroke-width: 1.0;" x1="807.8866" x2="806.23" y1="511.748" y2="503.92"/><polygon fill="#A80036" points="680.52,160.7,680.5573,167.911,687.228,170.65,687.1907,163.439,680.52,160.7" style="stroke: #A80036; stroke-width: 1.0;"/><text fill="#000000" font-family="sans-serif" font-size="13" lengthAdjust="spacingAndGlyphs" textLength="74" x="782.32" y="326.9951">alarmPattern</text><text fill="#000000" font-family="sans-serif" font-size="13" lengthAdjust="spacingAndGlyphs" textLength="20" x="808.289" y="506.831">0..*</text><!--link CommentAlarms to AlarmRefOrValue--><path d="M512.27,148.11 C477.24,172.47 440.51,202.76 413.32,237 C354.15,311.52 308.59,405.01 275.14,490.74 " fill="none" id="CommentAlarms-AlarmRefOrValue" style="stroke: #A80036; stroke-width: 1.0;"/><polygon fill="#A80036" points="270.52,502.74,277.4803,495.772,272.3123,498.0723,270.012,492.9043,270.52,502.74" style="stroke: #A80036; stroke-width: 1.0;"/><line style="stroke: #A80036; stroke-width: 1.0;" x1="272.3123" x2="275.195" y1="498.0723" y2="490.61"/><polygon fill="#A80036" points="522.82,140.93,515.6092,141.0003,512.9008,147.6835,520.1116,147.6131,522.82,140.93" style="stroke: #A80036; stroke-width: 1.0;"/><text fill="#000000" font-family="sans-serif" font-size="13" lengthAdjust="spacingAndGlyphs" textLength="102" x="414.32" y="326.9951">commentedAlarm</text><text fill="#000000" font-family="sans-serif" font-size="13" lengthAdjust="spacingAndGlyphs" textLength="20" x="252.0881" y="493.078">0..*</text><!--link AlarmRefOrValue to AffectedService--><path d="M288.71,720.39 C302.51,718.56 316.65,716.99 330.07,716 C369.52,713.08 379.68,712.37 419.07,716 C428.87,716.9 439.13,718.28 449.21,719.89 " fill="none" id="AlarmRefOrValue-AffectedService" style="stroke: #A80036; stroke-width: 1.0;"/><polygon fill="#A80036" points="458.99,721.55,450.7838,716.1041,454.0601,720.7155,449.4487,723.9919,458.99,721.55" style="stroke: #A80036; stroke-width: 1.0;"/><line style="stroke: #A80036; stroke-width: 1.0;" x1="454.0601" x2="446.17" y1="720.7155" y2="719.38"/><polygon fill="#A80036" points="330.07,696,327.3388,702.6739,332.4488,707.7619,335.18,701.088,330.07,696" style="stroke: #A80036; stroke-width: 1.0;"/><text fill="#000000" font-family="sans-serif" font-size="13" lengthAdjust="spacingAndGlyphs" textLength="87" x="331.07" y="710.4951">affectedService</text><text fill="#000000" font-family="sans-serif" font-size="13" lengthAdjust="spacingAndGlyphs" textLength="20" x="432.1735" y="716.8484">0..*</text><!--link AffectedService to Alarm--><path d="M584.16,721.8 C597.73,719.39 612.09,717.24 625.57,716 C664.96,712.37 675.12,713.08 714.57,716 C724.32,716.72 734.45,717.75 744.55,718.95 " fill="none" id="AffectedService-Alarm" style="stroke: #A80036; stroke-width: 1.0;"/><polygon fill="#A80036" points="754.43,720.2,748.9783,715.48,742.5245,718.697,747.9762,723.417,754.43,720.2" style="stroke: #A80036; stroke-width: 1.0;"/><polygon fill="#A80036" points="625.57,696,623.4335,705.6143,626.5612,700.9008,631.2747,704.0285,625.57,696" style="stroke: #A80036; stroke-width: 1.0;"/><line style="stroke: #A80036; stroke-width: 1.0;" x1="626.5612" x2="670.07" y1="700.9008" y2="705"/><text fill="#000000" font-family="sans-serif" font-size="13" lengthAdjust="spacingAndGlyphs" textLength="87" x="626.57" y="710.4951">affectedService</text><text fill="#000000" font-family="sans-serif" font-size="13" lengthAdjust="spacingAndGlyphs" textLength="20" x="592.024" y="707.9211">0..*</text><!--link AlarmRefOrValue to AlarmRef--><path d="M253.28,978.37 C265.33,999.26 280.13,1018.36 298.32,1034 C360.15,1087.16 404.22,1032.23 479.32,1064 C499.66,1072.61 519.79,1084.94 537.96,1097.95 " fill="none" id="AlarmRefOrValue-AlarmRef" style="stroke: #A80036; stroke-width: 1.0;"/><polygon fill="#A80036" points="548.39,1105.67,543.5372,1097.0997,544.3716,1102.6947,538.7767,1103.5291,548.39,1105.67" style="stroke: #A80036; stroke-width: 1.0;"/><line style="stroke: #A80036; stroke-width: 1.0;" x1="544.3716" x2="537.94" y1="1102.6947" y2="1097.94"/><polygon fill="#A80036" points="247.23,967.2,246.5752,974.3813,252.9522,977.7478,253.607,970.5665,247.23,967.2" style="stroke: #A80036; stroke-width: 1.0;"/><text fill="#000000" font-family="sans-serif" font-size="13" lengthAdjust="spacingAndGlyphs" textLength="70" x="299.32" y="1030.4951">parentAlarm</text><text fill="#000000" font-family="sans-serif" font-size="13" lengthAdjust="spacingAndGlyphs" textLength="20" x="521.3185" y="1096.6389">0..*</text><!--link AlarmRefOrValue to AlarmRef--><path d="M296.73,905.94 C328.42,951.82 366.87,998.52 410.32,1034 C436.22,1055.15 450.35,1047.29 479.32,1064 C499.05,1075.38 519.33,1089.16 537.9,1102.73 " fill="none" id="AlarmRefOrValue-AlarmRef" style="stroke: #A80036; stroke-width: 1.0;"/><polygon fill="#A80036" points="548.3,1110.46,543.466,1101.8791,544.2882,1107.4759,538.6914,1108.298,548.3,1110.46" style="stroke: #A80036; stroke-width: 1.0;"/><line style="stroke: #A80036; stroke-width: 1.0;" x1="544.2882" x2="537.865" y1="1107.4759" y2="1102.71"/><polygon fill="#A80036" points="289.46,895.23,289.5238,902.4408,296.2045,905.1553,296.1407,897.9445,289.46,895.23" style="stroke: #A80036; stroke-width: 1.0;"/><text fill="#000000" font-family="sans-serif" font-size="13" lengthAdjust="spacingAndGlyphs" textLength="91" x="411.32" y="1030.4951">correlatedAlarm</text><text fill="#000000" font-family="sans-serif" font-size="13" lengthAdjust="spacingAndGlyphs" textLength="20" x="521.2181" y="1119.8439">0..*</text><!--link Alarm to AlarmRef--><path d="M939.49,838.03 C986.3,900.12 1022.87,977.98 973.32,1034 C937.12,1074.92 779.5,1042.4 729.32,1064 C713.53,1070.8 698.18,1080.39 684.06,1090.92 " fill="none" id="Alarm-AlarmRef" style="stroke: #A80036; stroke-width: 1.0;"/><polygon fill="#A80036" points="674.21,1098.61,683.7651,1096.2226,678.1505,1095.5323,678.8408,1089.9177,674.21,1098.61" style="stroke: #A80036; stroke-width: 1.0;"/><line style="stroke: #A80036; stroke-width: 1.0;" x1="678.1505" x2="684.46" y1="1095.5323" y2="1090.615"/><polygon fill="#A80036" points="931.57,827.83,932.0838,835.0228,938.9209,837.315,938.4071,830.1222,931.57,827.83" style="stroke: #A80036; stroke-width: 1.0;"/><text fill="#000000" font-family="sans-serif" font-size="13" lengthAdjust="spacingAndGlyphs" textLength="70" x="983.32" y="1030.4951">parentAlarm</text><text fill="#000000" font-family="sans-serif" font-size="13" lengthAdjust="spacingAndGlyphs" textLength="20" x="660.2903" y="1087.0146">0..*</text><!--link Alarm to AlarmRef--><path d="M748.25,878.13 C721.11,921.48 692.61,969.89 669.32,1016 C658.3,1037.81 647.88,1062.24 638.98,1084.76 " fill="none" id="Alarm-AlarmRef" style="stroke: #A80036; stroke-width: 1.0;"/><polygon fill="#A80036" points="634.33,1096.71,641.3145,1089.7662,636.1385,1092.0485,633.8562,1086.8725,634.33,1096.71" style="stroke: #A80036; stroke-width: 1.0;"/><line style="stroke: #A80036; stroke-width: 1.0;" x1="636.1385" x2="639.04" y1="1092.0485" y2="1084.595"/><polygon fill="#A80036" points="755.05,867.33,748.4677,870.275,748.6545,877.4837,755.2368,874.5387,755.05,867.33" style="stroke: #A80036; stroke-width: 1.0;"/><text fill="#000000" font-family="sans-serif" font-size="13" lengthAdjust="spacingAndGlyphs" textLength="91" x="670.32" y="1030.4951">correlatedAlarm</text><text fill="#000000" font-family="sans-serif" font-size="13" lengthAdjust="spacingAndGlyphs" textLength="20" x="615.2318" y="1087.2119">0..*</text><!--link AlarmRefOrValue to AlarmedObject--><path d="M106.94,863.4 C77.2,919.91 60.94,984.64 99.32,1034 C132.54,1076.72 167.47,1042.95 217.32,1064 C246.42,1076.29 276.43,1093.37 302.43,1109.8 " fill="none" id="AlarmRefOrValue-AlarmedObject" style="stroke: #A80036; stroke-width: 1.0;"/><polygon fill="#A80036" points="313.19,1116.72,307.7792,1108.4906,308.983,1114.0179,303.4558,1115.2218,313.19,1116.72" style="stroke: #A80036; stroke-width: 1.0;"/><line style="stroke: #A80036; stroke-width: 1.0;" x1="308.983" x2="302.26" y1="1114.0179" y2="1109.69"/><polygon fill="#A80036" points="113.17,852.06,106.7765,855.3952,107.3961,862.5796,113.7896,859.2444,113.17,852.06" style="stroke: #A80036; stroke-width: 1.0;"/><text fill="#000000" font-family="sans-serif" font-size="13" lengthAdjust="spacingAndGlyphs" textLength="84" x="100.32" y="1030.4951">alarmedObject</text><text fill="#000000" font-family="sans-serif" font-size="13" lengthAdjust="spacingAndGlyphs" textLength="22" x="284.4909" y="1109.2469">0..1</text><!--link Alarm to AlarmedObject--><path d="M746.78,864.74 C711.51,906.58 669.38,951.16 625.32,986 C602.86,1003.76 592.48,1000.64 568.32,1016 C526.92,1042.33 483.15,1075.08 447.87,1102.84 " fill="none" id="Alarm-AlarmedObject" style="stroke: #A80036; stroke-width: 1.0;"/><polygon fill="#A80036" points="437.92,1110.72,447.4598,1108.2719,441.8409,1107.6173,442.4955,1101.9985,437.92,1110.72" style="stroke: #A80036; stroke-width: 1.0;"/><line style="stroke: #A80036; stroke-width: 1.0;" x1="441.8409" x2="448.105" y1="1107.6173" y2="1102.65"/><polygon fill="#A80036" points="755.1,854.76,748.1851,856.8057,747.4139,863.9754,754.3288,861.9297,755.1,854.76" style="stroke: #A80036; stroke-width: 1.0;"/><text fill="#000000" font-family="sans-serif" font-size="13" lengthAdjust="spacingAndGlyphs" textLength="84" x="569.32" y="1030.4951">alarmedObject</text><text fill="#000000" font-family="sans-serif" font-size="13" lengthAdjust="spacingAndGlyphs" textLength="22" x="421.9871" y="1100.5187">0..1</text><!--link AlarmRefOrValue to RelatedPlaceRefOrValue--><path d="M105.76,855.97 C73.98,903.06 42.56,959.36 26.32,1016 C20.26,1037.13 24.83,1058.66 34.21,1078.45 " fill="none" id="AlarmRefOrValue-RelatedPlaceRefOrValue" style="stroke: #A80036; stroke-width: 1.0;"/><polygon fill="#A80036" points="40.29,1089.85,39.5867,1080.0263,37.9382,1085.4376,32.5269,1083.7892,40.29,1089.85" style="stroke: #A80036; stroke-width: 1.0;"/><line style="stroke: #A80036; stroke-width: 1.0;" x1="37.9382" x2="34.175" y1="1085.4376" y2="1078.38"/><polygon fill="#A80036" points="112.98,845.44,106.2878,848.1261,106.1934,855.3366,112.8856,852.6505,112.98,845.44" style="stroke: #A80036; stroke-width: 1.0;"/><text fill="#000000" font-family="sans-serif" font-size="13" lengthAdjust="spacingAndGlyphs" textLength="31" x="27.32" y="1030.4951">place</text><text fill="#000000" font-family="sans-serif" font-size="13" lengthAdjust="spacingAndGlyphs" textLength="20" x="12.9806" y="1079.9871">0..*</text><!--link Alarm to RelatedPlaceRefOrValue--><path d="M746.89,884.17 C713.35,923.95 672.22,962.43 625.32,986 C471.97,1063.07 394.98,941.59 240.32,1016 C209.92,1030.63 182.94,1055.24 161.19,1080.1 " fill="none" id="Alarm-RelatedPlaceRefOrValue" style="stroke: #A80036; stroke-width: 1.0;"/><polygon fill="#A80036" points="152.86,1089.96,161.7267,1085.6727,156.0895,1086.1429,155.6193,1080.5056,152.86,1089.96" style="stroke: #A80036; stroke-width: 1.0;"/><line style="stroke: #A80036; stroke-width: 1.0;" x1="156.0895" x2="161.245" y1="1086.1429" y2="1080.03"/><polygon fill="#A80036" points="754.95,874.38,748.0465,876.4636,747.3146,883.6375,754.2181,881.5539,754.95,874.38" style="stroke: #A80036; stroke-width: 1.0;"/><text fill="#000000" font-family="sans-serif" font-size="13" lengthAdjust="spacingAndGlyphs" textLength="31" x="241.32" y="1030.4951">place</text><text fill="#000000" font-family="sans-serif" font-size="13" lengthAdjust="spacingAndGlyphs" textLength="20" x="135.9881" y="1079.9094">0..*</text><!--link AlarmRefOrValue to CrossedThresholdInformation--><path d="M297.78,884.48 C331.07,924.06 371.86,962.34 418.32,986 C556.66,1056.44 632.17,937.88 766.32,1016 C789.33,1029.4 808.24,1050.47 823.19,1072.45 " fill="none" id="AlarmRefOrValue-CrossedThresholdInformation" style="stroke: #A80036; stroke-width: 1.0;"/><polygon fill="#A80036" points="830.04,1083.08,828.527,1073.3481,827.3315,1078.8771,821.8024,1077.6817,830.04,1083.08" style="stroke: #A80036; stroke-width: 1.0;"/><line style="stroke: #A80036; stroke-width: 1.0;" x1="827.3315" x2="822.995" y1="1078.8771" y2="1072.155"/><polygon fill="#A80036" points="289.55,874.46,290.2708,881.635,297.1711,883.7292,296.4503,876.5543,289.55,874.46" style="stroke: #A80036; stroke-width: 1.0;"/><text fill="#000000" font-family="sans-serif" font-size="13" lengthAdjust="spacingAndGlyphs" textLength="165" x="790.32" y="1030.4951">crossedThresholdInformation</text><text fill="#000000" font-family="sans-serif" font-size="13" lengthAdjust="spacingAndGlyphs" textLength="22" x="804.0688" y="1072.9472">0..1</text><!--link Alarm to CrossedThresholdInformation--><path d="M941.04,816.53 C994.79,867.38 1056.31,938.08 1085.32,1016 C1107.52,1075.63 1040.61,1113.46 975.05,1135.56 " fill="none" id="Alarm-CrossedThresholdInformation" style="stroke: #A80036; stroke-width: 1.0;"/><polygon fill="#A80036" points="962.99,1139.44,972.7826,1140.4907,967.7496,1137.9084,970.332,1132.8753,962.99,1139.44" style="stroke: #A80036; stroke-width: 1.0;"/><line style="stroke: #A80036; stroke-width: 1.0;" x1="967.7496" x2="975.365" y1="1137.9084" y2="1135.455"/><polygon fill="#A80036" points="931.86,807.97,933.5204,814.9873,940.6366,816.1536,938.9762,809.1363,931.86,807.97" style="stroke: #A80036; stroke-width: 1.0;"/><text fill="#000000" font-family="sans-serif" font-size="13" lengthAdjust="spacingAndGlyphs" textLength="165" x="1089.32" y="1030.4951">crossedThresholdInformation</text><text fill="#000000" font-family="sans-serif" font-size="13" lengthAdjust="spacingAndGlyphs" textLength="22" x="969.5569" y="1126.4466">0..1</text><!--link Comment to AlarmRefOrValue--><path d="M547.89,375.72 C508.08,405.83 458.87,445.15 418.32,484 C376.61,523.96 334.21,571.07 298.08,613.57 " fill="none" id="Comment-AlarmRefOrValue" style="stroke: #A80036; stroke-width: 1.0;"/><polygon fill="#A80036" points="289.77,623.4,296.6991,621.403,297.5207,614.2389,290.5916,616.2359,289.77,623.4" style="stroke: #A80036; stroke-width: 1.0;"/><polygon fill="#A80036" points="558.18,367.99,548.5834,370.2048,554.1846,370.9962,553.3932,376.5974,558.18,367.99" style="stroke: #A80036; stroke-width: 1.0;"/><line style="stroke: #A80036; stroke-width: 1.0;" x1="554.1846" x2="547.785" y1="370.9962" y2="375.795"/><text fill="#000000" font-family="sans-serif" font-size="13" lengthAdjust="spacingAndGlyphs" textLength="54" x="473.32" y="450.4951">comment</text><text fill="#000000" font-family="sans-serif" font-size="13" lengthAdjust="spacingAndGlyphs" textLength="20" x="531.5227" y="368.653">0..*</text><!--link Comment to Alarm--><path d="M662.33,398.52 C686.72,443.72 718.71,503.03 749.01,559.19 " fill="none" id="Comment-Alarm" style="stroke: #A80036; stroke-width: 1.0;"/><polygon fill="#A80036" points="755.13,570.54,755.8025,563.3603,749.4337,559.9782,748.7612,567.1578,755.13,570.54" style="stroke: #A80036; stroke-width: 1.0;"/><polygon fill="#A80036" points="656.24,387.23,656.9916,397.0501,658.6134,391.6308,664.0328,393.2526,656.24,387.23" style="stroke: #A80036; stroke-width: 1.0;"/><line style="stroke: #A80036; stroke-width: 1.0;" x1="658.6134" x2="662.415" y1="391.6308" y2="398.67"/><text fill="#000000" font-family="sans-serif" font-size="13" lengthAdjust="spacingAndGlyphs" textLength="54" x="688.32" y="450.4951">comment</text><text fill="#000000" font-family="sans-serif" font-size="13" lengthAdjust="spacingAndGlyphs" textLength="20" x="646.1075" y="407.9402">0..*</text><!--link CrossedThresholdInformation to ThresholdRef--><path d="M866.32,1255.3 C866.32,1284.53 866.32,1316.57 866.32,1344.71 " fill="none" id="CrossedThresholdInformation-ThresholdRef" style="stroke: #A80036; stroke-width: 1.0;"/><polygon fill="#A80036" points="866.32,1357.52,870.32,1348.52,866.32,1352.52,862.32,1348.52,866.32,1357.52" style="stroke: #A80036; stroke-width: 1.0;"/><line style="stroke: #A80036; stroke-width: 1.0;" x1="866.32" x2="866.32" y1="1352.52" y2="1344.52"/><polygon fill="#A80036" points="866.32,1242.37,862.32,1248.37,866.32,1254.37,870.32,1248.37,866.32,1242.37" style="stroke: #A80036; stroke-width: 1.0;"/><text fill="#000000" font-family="sans-serif" font-size="13" lengthAdjust="spacingAndGlyphs" textLength="53" x="867.32" y="1305.4951">threshold</text><text fill="#000000" font-family="sans-serif" font-size="13" lengthAdjust="spacingAndGlyphs" textLength="22" x="843.0481" y="1348.1114">0..1</text></g></svg>