<?xml version="1.0" encoding="us-ascii" standalone="no"?><svg xmlns="http://www.w3.org/2000/svg" xmlns:xlink="http://www.w3.org/1999/xlink" contentStyleType="text/css" height="2125px" preserveAspectRatio="none" style="width:1423px;height:2125px;background:#FFFFFF;" version="1.1" viewBox="0 0 1423 2125" width="1423px" zoomAndPan="magnify"><defs/><g><text fill="#888888" font-family="sans-serif" font-size="10" lengthAdjust="spacing" textLength="148" x="1261.76" y="10.3809">Diagram generated at 12/22/23</text><text fill="#000000" font-family="sans-serif" font-size="14" font-weight="bold" lengthAdjust="spacing" textLength="192" x="608.88" y="38.1113">TMF Schema Class Diagram</text><!--class CommentAlarms--><g id="elem_CommentAlarms"><rect codeLine="20" fill="#FFFFFF" height="193.2891" id="CommentAlarms" rx="2.5" ry="2.5" style="stroke:#181818;stroke-width:0.5;" width="194" x="879.34" y="59.1875"/><text fill="#000000" font-family="sans-serif" font-size="12" font-style="italic" lengthAdjust="spacing" textLength="41" x="955.84" y="76.6445">&#171;Pivot&#187;</text><text fill="#000000" font-family="sans-serif" font-size="14" lengthAdjust="spacing" textLength="103" x="924.84" y="93.8145">CommentAlarms</text><text fill="#000000" font-family="sans-serif" font-size="14" lengthAdjust="spacing" textLength="5" x="917.84" y="111.4238">(</text><text fill="#000000" font-family="sans-serif" font-size="9" font-style="italic" lengthAdjust="spacing" textLength="17" x="922.84" y="112.5225">from</text><a href="TMF642.svg" target="_top" title="TMF642.svg" xlink:actuate="onRequest" xlink:href="TMF642.svg" xlink:show="new" xlink:title="TMF642.svg" xlink:type="simple"><text fill="#0000FF" font-family="sans-serif" font-size="9" font-style="italic" lengthAdjust="spacing" text-decoration="underline" textLength="60" x="942.84" y="112.5225">TMF642-Alarm</text></a><text fill="#000000" font-family="sans-serif" font-size="9" font-style="italic" lengthAdjust="spacing" textLength="26" x="1005.84" y="112.5225">v4.0.0</text><text fill="#000000" font-family="sans-serif" font-size="9" lengthAdjust="spacing" textLength="3" x="1031.84" y="112.5225">)</text><line style="stroke:#181818;stroke-width:0.5;" x1="880.34" x2="1072.34" y1="119.5" y2="119.5"/><text fill="#000000" font-family="sans-serif" font-size="9" font-style="italic" lengthAdjust="spacing" textLength="182" x="885.34" y="132.8428">Task resource for comment alarms operation</text><line style="stroke:#181818;stroke-width:1.0;stroke-dasharray:1.0,2.0;" x1="880.34" x2="1072.34" y1="138.8203" y2="138.8203"/><text fill="#000000" font-family="sans-serif" font-size="14" lengthAdjust="spacing" textLength="74" x="885.34" y="157.3535">href : String</text><text fill="#000000" font-family="sans-serif" font-size="14" lengthAdjust="spacing" textLength="60" x="885.34" y="174.9629">id : String</text><text fill="#000000" font-family="sans-serif" font-size="14" lengthAdjust="spacing" textLength="80" x="885.34" y="192.5723">state : String</text><text fill="#000000" font-family="sans-serif" font-size="14" lengthAdjust="spacing" textLength="126" x="885.34" y="210.1816">@baseType : String</text><text fill="#000000" font-family="sans-serif" font-size="14" lengthAdjust="spacing" textLength="146" x="885.34" y="227.791">@schemaLocation : Uri</text><text fill="#000000" font-family="sans-serif" font-size="14" lengthAdjust="spacing" textLength="90" x="885.34" y="245.4004">@type : String</text></g><!--class AlarmRefOrValue--><g id="elem_AlarmRefOrValue"><rect codeLine="31" fill="#FCF2E3" height="581.5" id="AlarmRefOrValue" rx="2.5" ry="2.5" style="stroke:#181818;stroke-width:0.5;" width="225" x="581.84" y="330.4775"/><a href="Alarm.svg" target="_top" title="Alarm.svg" xlink:actuate="onRequest" xlink:href="Alarm.svg" xlink:show="new" xlink:title="Alarm.svg" xlink:type="simple"><text fill="#0000FF" font-family="sans-serif" font-size="14" lengthAdjust="spacing" text-decoration="underline" textLength="36" x="639.34" y="350.0107">Alarm</text></a><text fill="#000000" font-family="sans-serif" font-size="14" lengthAdjust="spacing" textLength="74" x="675.34" y="350.0107">RefOrValue</text><line style="stroke:#181818;stroke-width:0.5;" x1="582.84" x2="805.84" y1="358.0869" y2="358.0869"/><text fill="#000000" font-family="sans-serif" font-size="14" lengthAdjust="spacing" textLength="104" x="587.84" y="376.6201">ackState : String</text><text fill="#000000" font-family="sans-serif" font-size="14" lengthAdjust="spacing" textLength="128" x="587.84" y="394.2295">ackSystemId : String</text><text fill="#000000" font-family="sans-serif" font-size="14" lengthAdjust="spacing" textLength="111" x="587.84" y="411.8388">ackUserId : String</text><text fill="#000000" font-family="sans-serif" font-size="14" lengthAdjust="spacing" textLength="197" x="587.84" y="429.4482">alarmChangedTime : DateTime</text><text fill="#000000" font-family="sans-serif" font-size="14" lengthAdjust="spacing" textLength="189" x="587.84" y="447.0576">alarmClearedTime : DateTime</text><text fill="#000000" font-family="sans-serif" font-size="14" lengthAdjust="spacing" textLength="127" x="587.84" y="464.667">alarmDetails : String</text><text fill="#000000" font-family="sans-serif" font-size="14" lengthAdjust="spacing" textLength="164" x="587.84" y="482.2763">alarmEscalation : Boolean</text><text fill="#000000" font-family="sans-serif" font-size="14" lengthAdjust="spacing" textLength="183" x="587.84" y="499.8857">alarmRaisedTime : DateTime</text><text fill="#000000" font-family="sans-serif" font-size="14" lengthAdjust="spacing" textLength="201" x="587.84" y="517.4951">alarmReportingTime : DateTime</text><text fill="#000000" font-family="sans-serif" font-size="14" lengthAdjust="spacing" textLength="116" x="587.84" y="535.1045">alarmType : String</text><text fill="#000000" font-family="sans-serif" font-size="14" lengthAdjust="spacing" textLength="173" x="587.84" y="552.7138">alarmedObjectType : String</text><text fill="#000000" font-family="sans-serif" font-size="14" lengthAdjust="spacing" textLength="137" x="587.84" y="570.3232">clearSystemId : String</text><text fill="#000000" font-family="sans-serif" font-size="14" lengthAdjust="spacing" textLength="120" x="587.84" y="587.9326">clearUserId : String</text><text fill="#000000" font-family="sans-serif" font-size="14" lengthAdjust="spacing" textLength="146" x="587.84" y="605.542">externalAlarmId : String</text><text fill="#000000" font-family="sans-serif" font-size="14" lengthAdjust="spacing" textLength="74" x="587.84" y="623.1513">href : String</text><text fill="#000000" font-family="sans-serif" font-size="14" lengthAdjust="spacing" textLength="67" x="587.84" y="640.7607">id : Integer</text><text fill="#000000" font-family="sans-serif" font-size="14" lengthAdjust="spacing" textLength="145" x="587.84" y="658.3701">isRootCause : Boolean</text><text fill="#000000" font-family="sans-serif" font-size="14" lengthAdjust="spacing" textLength="84" x="587.84" y="675.9795">name : String</text><text fill="#000000" font-family="sans-serif" font-size="14" lengthAdjust="spacing" textLength="162" x="587.84" y="693.5888">perceivedSeverity : String</text><text fill="#000000" font-family="sans-serif" font-size="14" lengthAdjust="spacing" textLength="201" x="587.84" y="711.1982">plannedOutageIndicator : String</text><text fill="#000000" font-family="sans-serif" font-size="14" lengthAdjust="spacing" textLength="146" x="587.84" y="728.8076">probableCause : String</text><text fill="#000000" font-family="sans-serif" font-size="14" lengthAdjust="spacing" textLength="213" x="587.84" y="746.417">proposedRepairedActions : String</text><text fill="#000000" font-family="sans-serif" font-size="14" lengthAdjust="spacing" textLength="163" x="587.84" y="764.0263">reportingSystemId : String</text><text fill="#000000" font-family="sans-serif" font-size="14" lengthAdjust="spacing" textLength="164" x="587.84" y="781.6357">serviceAffecting : Boolean</text><text fill="#000000" font-family="sans-serif" font-size="14" lengthAdjust="spacing" textLength="149" x="587.84" y="799.2451">sourceSystemId : String</text><text fill="#000000" font-family="sans-serif" font-size="14" lengthAdjust="spacing" textLength="148" x="587.84" y="816.8545">specificProblem : String</text><text fill="#000000" font-family="sans-serif" font-size="14" lengthAdjust="spacing" textLength="80" x="587.84" y="834.4638">state : String</text><text fill="#000000" font-family="sans-serif" font-size="14" lengthAdjust="spacing" textLength="126" x="587.84" y="852.0732">@baseType : String</text><text fill="#000000" font-family="sans-serif" font-size="14" lengthAdjust="spacing" textLength="146" x="587.84" y="869.6826">@referredType : String</text><text fill="#000000" font-family="sans-serif" font-size="14" lengthAdjust="spacing" textLength="166" x="587.84" y="887.292">@schemaLocation : String</text><text fill="#000000" font-family="sans-serif" font-size="14" lengthAdjust="spacing" textLength="90" x="587.84" y="904.9013">@type : String</text></g><!--class AlarmRef--><g id="elem_AlarmRef"><rect codeLine="65" fill="#FFFFE0" height="173.9688" id="AlarmRef" rx="2.5" ry="2.5" style="stroke:#181818;stroke-width:0.5;" width="158" x="213.34" y="1624.3175"/><text fill="#000000" font-family="sans-serif" font-size="12" font-style="italic" lengthAdjust="spacing" textLength="33" x="275.84" y="1641.7745">&#171;Ref&#187;</text><a href="Alarm.svg" target="_top" title="Alarm.svg" xlink:actuate="onRequest" xlink:href="Alarm.svg" xlink:show="new" xlink:title="Alarm.svg" xlink:type="simple"><text fill="#0000FF" font-family="sans-serif" font-size="14" lengthAdjust="spacing" text-decoration="underline" textLength="36" x="263.34" y="1658.9445">Alarm</text></a><text fill="#000000" font-family="sans-serif" font-size="14" lengthAdjust="spacing" textLength="22" x="299.34" y="1658.9445">Ref</text><line style="stroke:#181818;stroke-width:0.5;" x1="214.34" x2="370.34" y1="1667.0206" y2="1667.0206"/><text fill="#000000" font-family="sans-serif" font-size="14" lengthAdjust="spacing" textLength="74" x="219.34" y="1685.5538">href : String</text><text fill="#000000" font-family="sans-serif" font-size="14" lengthAdjust="spacing" textLength="60" x="219.34" y="1703.1632">id : String</text><text fill="#000000" font-family="sans-serif" font-size="14" lengthAdjust="spacing" textLength="84" x="219.34" y="1720.7726">name : String</text><text fill="#000000" font-family="sans-serif" font-size="14" lengthAdjust="spacing" textLength="126" x="219.34" y="1738.382">@baseType : String</text><text fill="#000000" font-family="sans-serif" font-size="14" lengthAdjust="spacing" textLength="146" x="219.34" y="1755.9913">@referredType : String</text><text fill="#000000" font-family="sans-serif" font-size="14" lengthAdjust="spacing" textLength="146" x="219.34" y="1773.6007">@schemaLocation : Uri</text><text fill="#000000" font-family="sans-serif" font-size="14" lengthAdjust="spacing" textLength="90" x="219.34" y="1791.2101">@type : String</text></g><!--class AlarmedObject--><g id="elem_AlarmedObject"><rect codeLine="75" fill="#FCF2E3" height="123.6563" id="AlarmedObject" rx="2.5" ry="2.5" style="stroke:#181818;stroke-width:0.5;" width="158" x="790.34" y="1649.4775"/><text fill="#000000" font-family="sans-serif" font-size="14" lengthAdjust="spacing" textLength="93" x="822.84" y="1669.0107">AlarmedObject</text><line style="stroke:#181818;stroke-width:0.5;" x1="791.34" x2="947.34" y1="1677.0869" y2="1677.0869"/><text fill="#000000" font-family="sans-serif" font-size="14" lengthAdjust="spacing" textLength="74" x="796.34" y="1695.6201">href : String</text><text fill="#000000" font-family="sans-serif" font-size="14" lengthAdjust="spacing" textLength="60" x="796.34" y="1713.2295">id : String</text><text fill="#000000" font-family="sans-serif" font-size="14" lengthAdjust="spacing" textLength="126" x="796.34" y="1730.8388">@baseType : String</text><text fill="#000000" font-family="sans-serif" font-size="14" lengthAdjust="spacing" textLength="146" x="796.34" y="1748.4482">@schemaLocation : Uri</text><text fill="#000000" font-family="sans-serif" font-size="14" lengthAdjust="spacing" textLength="90" x="796.34" y="1766.0576">@type : String</text></g><!--class AffectedService--><g id="elem_AffectedService"><rect codeLine="83" fill="#FCF2E3" height="123.6563" id="AffectedService" rx="2.5" ry="2.5" style="stroke:#181818;stroke-width:0.5;" width="158" x="956.34" y="1201.2875"/><text fill="#000000" font-family="sans-serif" font-size="14" lengthAdjust="spacing" textLength="99" x="985.84" y="1220.8207">AffectedService</text><line style="stroke:#181818;stroke-width:0.5;" x1="957.34" x2="1113.34" y1="1228.8969" y2="1228.8969"/><text fill="#000000" font-family="sans-serif" font-size="14" lengthAdjust="spacing" textLength="74" x="962.34" y="1247.4301">href : String</text><text fill="#000000" font-family="sans-serif" font-size="14" lengthAdjust="spacing" textLength="60" x="962.34" y="1265.0395">id : String</text><text fill="#000000" font-family="sans-serif" font-size="14" lengthAdjust="spacing" textLength="126" x="962.34" y="1282.6488">@baseType : String</text><text fill="#000000" font-family="sans-serif" font-size="14" lengthAdjust="spacing" textLength="146" x="962.34" y="1300.2582">@schemaLocation : Uri</text><text fill="#000000" font-family="sans-serif" font-size="14" lengthAdjust="spacing" textLength="90" x="962.34" y="1317.8676">@type : String</text></g><!--class RelatedPlaceRefOrValue--><g id="elem_RelatedPlaceRefOrValue"><rect codeLine="91" fill="#FCF2E3" height="176.4844" id="RelatedPlaceRefOrValue" rx="2.5" ry="2.5" style="stroke:#181818;stroke-width:0.5;" width="164" x="1042.34" y="1623.0575"/><text fill="#000000" font-family="sans-serif" font-size="14" lengthAdjust="spacing" textLength="49" x="1045.34" y="1642.5907">Related</text><a href="Place.svg" target="_top" title="Place.svg" xlink:actuate="onRequest" xlink:href="Place.svg" xlink:show="new" xlink:title="Place.svg" xlink:type="simple"><text fill="#0000FF" font-family="sans-serif" font-size="14" lengthAdjust="spacing" text-decoration="underline" textLength="35" x="1094.34" y="1642.5907">Place</text></a><text fill="#000000" font-family="sans-serif" font-size="14" lengthAdjust="spacing" textLength="74" x="1129.34" y="1642.5907">RefOrValue</text><line style="stroke:#181818;stroke-width:0.5;" x1="1043.34" x2="1205.34" y1="1650.6669" y2="1650.6669"/><text fill="#000000" font-family="sans-serif" font-size="14" lengthAdjust="spacing" textLength="74" x="1048.34" y="1669.2001">href : String</text><text fill="#000000" font-family="sans-serif" font-size="14" lengthAdjust="spacing" textLength="60" x="1048.34" y="1686.8095">id : String</text><text fill="#000000" font-family="sans-serif" font-size="14" lengthAdjust="spacing" textLength="84" x="1048.34" y="1704.4188">name : String</text><text fill="#000000" font-family="sans-serif" font-size="14" lengthAdjust="spacing" textLength="73" x="1048.34" y="1722.0282">role : String</text><text fill="#000000" font-family="sans-serif" font-size="14" lengthAdjust="spacing" textLength="126" x="1048.34" y="1739.6376">@baseType : String</text><text fill="#000000" font-family="sans-serif" font-size="14" lengthAdjust="spacing" textLength="146" x="1048.34" y="1757.247">@referredType : String</text><text fill="#000000" font-family="sans-serif" font-size="14" lengthAdjust="spacing" textLength="146" x="1048.34" y="1774.8563">@schemaLocation : Uri</text><text fill="#000000" font-family="sans-serif" font-size="14" lengthAdjust="spacing" textLength="90" x="1048.34" y="1792.4657">@type : String</text></g><!--class CrossedThresholdInformation--><g id="elem_CrossedThresholdInformation"><rect codeLine="102" fill="#FCF2E3" height="194.0938" id="CrossedThresholdInformation" rx="2.5" ry="2.5" style="stroke:#181818;stroke-width:0.5;" width="247" x="499.84" y="1614.2575"/><text fill="#000000" font-family="sans-serif" font-size="14" lengthAdjust="spacing" textLength="187" x="529.84" y="1633.7907">CrossedThresholdInformation</text><line style="stroke:#181818;stroke-width:0.5;" x1="500.84" x2="745.84" y1="1641.8669" y2="1641.8669"/><text fill="#000000" font-family="sans-serif" font-size="14" lengthAdjust="spacing" textLength="103" x="505.84" y="1660.4001">direction : String</text><text fill="#000000" font-family="sans-serif" font-size="14" lengthAdjust="spacing" textLength="116" x="505.84" y="1678.0095">granularity : String</text><text fill="#000000" font-family="sans-serif" font-size="14" lengthAdjust="spacing" textLength="139" x="505.84" y="1695.6188">indicatorName : String</text><text fill="#000000" font-family="sans-serif" font-size="14" lengthAdjust="spacing" textLength="127" x="505.84" y="1713.2282">indicatorUnit : String</text><text fill="#000000" font-family="sans-serif" font-size="14" lengthAdjust="spacing" textLength="144" x="505.84" y="1730.8376">observedValue : String</text><text fill="#000000" font-family="sans-serif" font-size="14" lengthAdjust="spacing" textLength="235" x="505.84" y="1748.447">thresholdCrossingDescription : String</text><text fill="#000000" font-family="sans-serif" font-size="14" lengthAdjust="spacing" textLength="126" x="505.84" y="1766.0563">@baseType : String</text><text fill="#000000" font-family="sans-serif" font-size="14" lengthAdjust="spacing" textLength="146" x="505.84" y="1783.6657">@schemaLocation : Uri</text><text fill="#000000" font-family="sans-serif" font-size="14" lengthAdjust="spacing" textLength="90" x="505.84" y="1801.2751">@type : String</text></g><!--class ThresholdRef--><g id="elem_ThresholdRef"><rect codeLine="114" fill="#FFFFE0" height="173.9688" id="ThresholdRef" rx="2.5" ry="2.5" style="stroke:#181818;stroke-width:0.5;" width="158" x="544.34" y="1886.3475"/><text fill="#000000" font-family="sans-serif" font-size="12" font-style="italic" lengthAdjust="spacing" textLength="33" x="606.84" y="1903.8045">&#171;Ref&#187;</text><a href="Threshold.svg" target="_top" title="Threshold.svg" xlink:actuate="onRequest" xlink:href="Threshold.svg" xlink:show="new" xlink:title="Threshold.svg" xlink:type="simple"><text fill="#0000FF" font-family="sans-serif" font-size="14" lengthAdjust="spacing" text-decoration="underline" textLength="64" x="580.34" y="1920.9745">Threshold</text></a><text fill="#000000" font-family="sans-serif" font-size="14" lengthAdjust="spacing" textLength="22" x="644.34" y="1920.9745">Ref</text><line style="stroke:#181818;stroke-width:0.5;" x1="545.34" x2="701.34" y1="1929.0506" y2="1929.0506"/><text fill="#000000" font-family="sans-serif" font-size="14" lengthAdjust="spacing" textLength="74" x="550.34" y="1947.5838">href : String</text><text fill="#000000" font-family="sans-serif" font-size="14" lengthAdjust="spacing" textLength="60" x="550.34" y="1965.1932">id : String</text><text fill="#000000" font-family="sans-serif" font-size="14" lengthAdjust="spacing" textLength="84" x="550.34" y="1982.8026">name : String</text><text fill="#000000" font-family="sans-serif" font-size="14" lengthAdjust="spacing" textLength="126" x="550.34" y="2000.412">@baseType : String</text><text fill="#000000" font-family="sans-serif" font-size="14" lengthAdjust="spacing" textLength="146" x="550.34" y="2018.0213">@referredType : String</text><text fill="#000000" font-family="sans-serif" font-size="14" lengthAdjust="spacing" textLength="146" x="550.34" y="2035.6307">@schemaLocation : Uri</text><text fill="#000000" font-family="sans-serif" font-size="14" lengthAdjust="spacing" textLength="90" x="550.34" y="2053.2401">@type : String</text></g><!--class Comment--><g id="elem_Comment"><rect codeLine="124" fill="#FCF2E3" height="158.875" id="Comment" rx="2.5" ry="2.5" style="stroke:#181818;stroke-width:0.5;" width="158" x="897.34" y="541.7875"/><text fill="#000000" font-family="sans-serif" font-size="14" lengthAdjust="spacing" textLength="60" x="946.34" y="561.3207">Comment</text><line style="stroke:#181818;stroke-width:0.5;" x1="898.34" x2="1054.34" y1="569.3969" y2="569.3969"/><text fill="#000000" font-family="sans-serif" font-size="14" lengthAdjust="spacing" textLength="106" x="903.34" y="587.9301">comment : String</text><text fill="#000000" font-family="sans-serif" font-size="14" lengthAdjust="spacing" textLength="104" x="903.34" y="605.5395">systemId : String</text><text fill="#000000" font-family="sans-serif" font-size="14" lengthAdjust="spacing" textLength="99" x="903.34" y="623.1488">time : DateTime</text><text fill="#000000" font-family="sans-serif" font-size="14" lengthAdjust="spacing" textLength="88" x="903.34" y="640.7582">userId : String</text><text fill="#000000" font-family="sans-serif" font-size="14" lengthAdjust="spacing" textLength="126" x="903.34" y="658.3676">@baseType : String</text><text fill="#000000" font-family="sans-serif" font-size="14" lengthAdjust="spacing" textLength="146" x="903.34" y="675.977">@schemaLocation : Uri</text><text fill="#000000" font-family="sans-serif" font-size="14" lengthAdjust="spacing" textLength="90" x="903.34" y="693.5863">@type : String</text></g><!--class Alarm--><g id="elem_Alarm"><rect codeLine="134" fill="#FCF2E3" height="546.2813" id="Alarm" rx="2.5" ry="2.5" style="stroke:#181818;stroke-width:0.5;" width="225" x="607.84" y="989.9775"/><text fill="#000000" font-family="sans-serif" font-size="14" lengthAdjust="spacing" textLength="36" x="702.34" y="1009.5107">Alarm</text><line style="stroke:#181818;stroke-width:0.5;" x1="608.84" x2="831.84" y1="1017.5869" y2="1017.5869"/><text fill="#000000" font-family="sans-serif" font-size="14" lengthAdjust="spacing" textLength="104" x="613.84" y="1036.1201">ackState : String</text><text fill="#000000" font-family="sans-serif" font-size="14" lengthAdjust="spacing" textLength="128" x="613.84" y="1053.7295">ackSystemId : String</text><text fill="#000000" font-family="sans-serif" font-size="14" lengthAdjust="spacing" textLength="111" x="613.84" y="1071.3388">ackUserId : String</text><text fill="#000000" font-family="sans-serif" font-size="14" lengthAdjust="spacing" textLength="197" x="613.84" y="1088.9482">alarmChangedTime : DateTime</text><text fill="#000000" font-family="sans-serif" font-size="14" lengthAdjust="spacing" textLength="189" x="613.84" y="1106.5576">alarmClearedTime : DateTime</text><text fill="#000000" font-family="sans-serif" font-size="14" lengthAdjust="spacing" textLength="127" x="613.84" y="1124.167">alarmDetails : String</text><text fill="#000000" font-family="sans-serif" font-size="14" lengthAdjust="spacing" textLength="164" x="613.84" y="1141.7763">alarmEscalation : Boolean</text><text fill="#000000" font-family="sans-serif" font-size="14" lengthAdjust="spacing" textLength="183" x="613.84" y="1159.3857">alarmRaisedTime : DateTime</text><text fill="#000000" font-family="sans-serif" font-size="14" lengthAdjust="spacing" textLength="201" x="613.84" y="1176.9951">alarmReportingTime : DateTime</text><text fill="#000000" font-family="sans-serif" font-size="14" lengthAdjust="spacing" textLength="116" x="613.84" y="1194.6045">alarmType : String</text><text fill="#000000" font-family="sans-serif" font-size="14" lengthAdjust="spacing" textLength="173" x="613.84" y="1212.2138">alarmedObjectType : String</text><text fill="#000000" font-family="sans-serif" font-size="14" lengthAdjust="spacing" textLength="137" x="613.84" y="1229.8232">clearSystemId : String</text><text fill="#000000" font-family="sans-serif" font-size="14" lengthAdjust="spacing" textLength="120" x="613.84" y="1247.4326">clearUserId : String</text><text fill="#000000" font-family="sans-serif" font-size="14" lengthAdjust="spacing" textLength="146" x="613.84" y="1265.042">externalAlarmId : String</text><text fill="#000000" font-family="sans-serif" font-size="14" lengthAdjust="spacing" textLength="74" x="613.84" y="1282.6513">href : String</text><text fill="#000000" font-family="sans-serif" font-size="14" lengthAdjust="spacing" textLength="67" x="613.84" y="1300.2607">id : Integer</text><text fill="#000000" font-family="sans-serif" font-size="14" lengthAdjust="spacing" textLength="145" x="613.84" y="1317.8701">isRootCause : Boolean</text><text fill="#000000" font-family="sans-serif" font-size="14" lengthAdjust="spacing" textLength="162" x="613.84" y="1335.4795">perceivedSeverity : String</text><text fill="#000000" font-family="sans-serif" font-size="14" lengthAdjust="spacing" textLength="201" x="613.84" y="1353.0888">plannedOutageIndicator : String</text><text fill="#000000" font-family="sans-serif" font-size="14" lengthAdjust="spacing" textLength="146" x="613.84" y="1370.6982">probableCause : String</text><text fill="#000000" font-family="sans-serif" font-size="14" lengthAdjust="spacing" textLength="213" x="613.84" y="1388.3076">proposedRepairedActions : String</text><text fill="#000000" font-family="sans-serif" font-size="14" lengthAdjust="spacing" textLength="163" x="613.84" y="1405.917">reportingSystemId : String</text><text fill="#000000" font-family="sans-serif" font-size="14" lengthAdjust="spacing" textLength="164" x="613.84" y="1423.5263">serviceAffecting : Boolean</text><text fill="#000000" font-family="sans-serif" font-size="14" lengthAdjust="spacing" textLength="149" x="613.84" y="1441.1357">sourceSystemId : String</text><text fill="#000000" font-family="sans-serif" font-size="14" lengthAdjust="spacing" textLength="148" x="613.84" y="1458.7451">specificProblem : String</text><text fill="#000000" font-family="sans-serif" font-size="14" lengthAdjust="spacing" textLength="80" x="613.84" y="1476.3545">state : String</text><text fill="#000000" font-family="sans-serif" font-size="14" lengthAdjust="spacing" textLength="126" x="613.84" y="1493.9638">@baseType : String</text><text fill="#000000" font-family="sans-serif" font-size="14" lengthAdjust="spacing" textLength="166" x="613.84" y="1511.5732">@schemaLocation : String</text><text fill="#000000" font-family="sans-serif" font-size="14" lengthAdjust="spacing" textLength="90" x="613.84" y="1529.1826">@type : String</text></g><!--link CommentAlarms to Comment--><g id="link_CommentAlarms_Comment"><path codeLine="166" d="M976.34,264.8475 C976.34,350.3375 976.34,455.8875 976.34,535.6375 " fill="none" id="CommentAlarms-Comment" style="stroke:#181818;stroke-width:1.0;"/><polygon fill="#181818" points="976.34,252.8475,972.34,258.8475,976.34,264.8475,980.34,258.8475,976.34,252.8475" style="stroke:#181818;stroke-width:1.0;"/><polygon fill="#181818" points="976.34,541.6375,980.34,532.6375,976.34,536.6375,972.34,532.6375,976.34,541.6375" style="stroke:#181818;stroke-width:1.0;"/><text fill="#000000" font-family="sans-serif" font-size="13" lengthAdjust="spacing" textLength="54" x="977.34" y="296.9726">comment</text><text fill="#000000" font-family="sans-serif" font-size="13" lengthAdjust="spacing" textLength="22" x="953.2916" y="530.8012">0..1</text></g><!--link CommentAlarms to Alarm--><g id="link_CommentAlarms_Alarm"><path codeLine="168" d="M1046.2386,263.3889 C1059.3186,287.7389 1065.5,303.9575 1072.34,330.4775 C1136.91,580.7175 1178.21,676.2075 1072.34,911.9775 C1059.18,941.2675 1045.8,943.3375 1018.34,959.9775 C986.22,979.4375 969.73,967.9075 939.34,989.9775 C900.2,1018.3875 868.0166,1050.8879 836.9866,1088.5279 " fill="none" id="CommentAlarms-Alarm" style="stroke:#181818;stroke-width:1.0;"/><polygon fill="#181818" points="1040.56,252.8175,1039.8755,259.996,1046.2386,263.3889,1046.9231,256.2103,1040.56,252.8175" style="stroke:#181818;stroke-width:1.0;"/><polygon fill="#181818" points="833.17,1093.1575,841.9813,1088.7575,836.3505,1089.2995,835.8085,1083.6686,833.17,1093.1575" style="stroke:#181818;stroke-width:1.0;"/><text fill="#000000" font-family="sans-serif" font-size="13" lengthAdjust="spacing" textLength="74" x="1137.34" y="626.7226">alarmPattern</text><text fill="#000000" font-family="sans-serif" font-size="13" lengthAdjust="spacing" textLength="20" x="840.655" y="1079.8189">0..*</text></g><!--link CommentAlarms to AlarmRefOrValue--><g id="link_CommentAlarms_AlarmRefOrValue"><path codeLine="170" d="M878.8078,262.2592 C871.0478,271.9892 871.07,272.5675 864.34,282.4775 C844.22,312.0575 827.8477,339.0981 809.9977,371.6081 " fill="none" id="CommentAlarms-AlarmRefOrValue" style="stroke:#181818;stroke-width:1.0;"/><polygon fill="#181818" points="886.29,252.8775,879.4217,255.0743,878.8078,262.2592,885.6761,260.0624,886.29,252.8775" style="stroke:#181818;stroke-width:1.0;"/><polygon fill="#181818" points="807.11,376.8675,814.9478,370.9036,809.5164,372.4847,807.9353,367.0533,807.11,376.8675" style="stroke:#181818;stroke-width:1.0;"/><text fill="#000000" font-family="sans-serif" font-size="13" lengthAdjust="spacing" textLength="102" x="865.34" y="296.9726">commentedAlarm</text><text fill="#000000" font-family="sans-serif" font-size="13" lengthAdjust="spacing" textLength="20" x="814.975" y="358.2071">0..*</text></g><!--link AlarmRefOrValue to AffectedService--><g id="link_AlarmRefOrValue_AffectedService"><path codeLine="172" d="M813.8173,822.8381 C836.6273,856.8981 854.81,881.3075 880.34,911.9775 C892.81,926.9575 901.45,925.7975 912.34,941.9775 C967.34,1023.7275 1001.0873,1127.7819 1019.1573,1195.2319 " fill="none" id="AlarmRefOrValue-AffectedService" style="stroke:#181818;stroke-width:1.0;"/><polygon fill="#181818" points="807.14,812.8675,807.1551,820.0786,813.8173,822.8381,813.8022,815.627,807.14,812.8675" style="stroke:#181818;stroke-width:1.0;"/><polygon fill="#181818" points="1020.71,1201.0275,1022.2448,1191.299,1019.4161,1196.1978,1014.5173,1193.3692,1020.71,1201.0275" style="stroke:#181818;stroke-width:1.0;"/><text fill="#000000" font-family="sans-serif" font-size="13" lengthAdjust="spacing" textLength="87" x="922.34" y="956.4726">affectedService</text><text fill="#000000" font-family="sans-serif" font-size="13" lengthAdjust="spacing" textLength="20" x="997.8622" y="1190.439">0..*</text></g><!--link Alarm to AffectedService--><g id="link_Alarm_AffectedService"><path codeLine="174" d="M845.17,1263.1175 C885.77,1263.1175 912.69,1263.1175 949.86,1263.1175 " fill="none" id="Alarm-AffectedService" style="stroke:#181818;stroke-width:1.0;"/><polygon fill="#181818" points="833.17,1263.1175,839.17,1267.1175,845.17,1263.1175,839.17,1259.1175,833.17,1263.1175" style="stroke:#181818;stroke-width:1.0;"/><polygon fill="#181818" points="955.86,1263.1175,946.86,1259.1175,950.86,1263.1175,946.86,1267.1175,955.86,1263.1175" style="stroke:#181818;stroke-width:1.0;"/><text fill="#000000" font-family="sans-serif" font-size="13" lengthAdjust="spacing" textLength="87" x="851.09" y="1256.6126">affectedService</text><text fill="#000000" font-family="sans-serif" font-size="13" lengthAdjust="spacing" textLength="20" x="928.4499" y="1277.2898">0..*</text></g><!--link AlarmRefOrValue to AlarmRef--><g id="link_AlarmRefOrValue_AlarmRef"><path codeLine="176" d="M571.3082,690.1998 C470.3782,752.4898 339.29,852.7275 277.34,989.9775 C182,1201.1675 231.0283,1478.0883 266.2283,1618.2283 " fill="none" id="AlarmRefOrValue-AlarmRef" style="stroke:#181818;stroke-width:1.0;"/><polygon fill="#181818" points="581.52,683.8975,574.3133,683.6447,571.3082,690.1998,578.5149,690.4526,581.52,683.8975" style="stroke:#181818;stroke-width:1.0;"/><polygon fill="#181818" points="267.69,1624.0475,269.377,1614.3442,266.4719,1619.1981,261.618,1616.2931,267.69,1624.0475" style="stroke:#181818;stroke-width:1.0;"/><text fill="#000000" font-family="sans-serif" font-size="13" lengthAdjust="spacing" textLength="70" x="278.34" y="1268.6126">parentAlarm</text><text fill="#000000" font-family="sans-serif" font-size="13" lengthAdjust="spacing" textLength="20" x="244.7123" y="1613.3718">0..*</text></g><!--link AlarmRefOrValue to AlarmRef--><g id="link_AlarmRefOrValue_AlarmRef"><path codeLine="178" d="M570.1449,661.5374 C433.1149,711.0774 219.64,811.7475 122.34,989.9775 C6,1203.0775 30.75,1311.3975 122.34,1536.2575 C140.98,1582.0275 173.5618,1618.3711 208.3718,1648.6311 " fill="none" id="AlarmRefOrValue-AlarmRef-1" style="stroke:#181818;stroke-width:1.0;"/><polygon fill="#181818" points="581.43,657.4575,574.4275,655.7357,570.1449,661.5374,577.1474,663.2592,581.43,657.4575" style="stroke:#181818;stroke-width:1.0;"/><polygon fill="#181818" points="212.9,1652.5675,208.7319,1643.6441,209.1265,1649.2872,203.4834,1649.6818,212.9,1652.5675" style="stroke:#181818;stroke-width:1.0;"/><text fill="#000000" font-family="sans-serif" font-size="13" lengthAdjust="spacing" textLength="91" x="123.34" y="1268.6126">correlatedAlarm</text><text fill="#000000" font-family="sans-serif" font-size="13" lengthAdjust="spacing" textLength="20" x="185.2138" y="1644.3427">0..*</text></g><!--link Alarm to AlarmRef--><g id="link_Alarm_AlarmRef"><path codeLine="180" d="M599.1247,1521.3626 C590.6447,1529.9026 590.03,1529.2575 580.34,1536.2575 C510.31,1586.8075 461.1,1519.7275 388.34,1566.2575 C366.06,1580.5075 351.0355,1596.957 336.6055,1619.007 " fill="none" id="Alarm-AlarmRef" style="stroke:#181818;stroke-width:1.0;"/><polygon fill="#181818" points="607.58,1512.8475,600.514,1514.2866,599.1247,1521.3626,606.1907,1519.9235,607.58,1512.8475" style="stroke:#181818;stroke-width:1.0;"/><polygon fill="#181818" points="333.32,1624.0275,341.5953,1618.6871,336.0579,1619.8438,334.9013,1614.3064,333.32,1624.0275" style="stroke:#181818;stroke-width:1.0;"/><text fill="#000000" font-family="sans-serif" font-size="13" lengthAdjust="spacing" textLength="70" x="389.34" y="1580.7526">parentAlarm</text><text fill="#000000" font-family="sans-serif" font-size="13" lengthAdjust="spacing" textLength="20" x="315.9823" y="1613.3501">0..*</text></g><!--link Alarm to AlarmRef--><g id="link_Alarm_AlarmRef"><path codeLine="182" d="M600.2728,1513.2446 C591.7128,1524.7146 589.86,1526.0575 580.34,1536.2575 C548.69,1570.1475 450.8219,1626.0912 377.0219,1665.8612 " fill="none" id="Alarm-AlarmRef-1" style="stroke:#181818;stroke-width:1.0;"/><polygon fill="#181818" points="607.45,1503.6275,600.6557,1506.0436,600.2728,1513.2446,607.0671,1510.8284,607.45,1503.6275" style="stroke:#181818;stroke-width:1.0;"/><polygon fill="#181818" points="371.74,1668.7075,381.5604,1667.9592,376.1416,1666.3355,377.7653,1660.9167,371.74,1668.7075" style="stroke:#181818;stroke-width:1.0;"/><text fill="#000000" font-family="sans-serif" font-size="13" lengthAdjust="spacing" textLength="91" x="544.34" y="1580.7526">correlatedAlarm</text><text fill="#000000" font-family="sans-serif" font-size="13" lengthAdjust="spacing" textLength="20" x="379.4228" y="1661.8698">0..*</text></g><!--link AlarmRefOrValue to AlarmedObject--><g id="link_AlarmRefOrValue_AlarmedObject"><path codeLine="184" d="M814.6559,850.8722 C835.9459,877.6622 852.84,892.8775 880.34,911.9775 C976.28,978.6175 1066.87,892.5575 1131.34,989.9775 C1198.33,1091.2175 1188.71,1429.2675 1131.34,1536.2575 C1126.14,1545.9375 1028.9208,1609.0644 953.7108,1656.9644 " fill="none" id="AlarmRefOrValue-AlarmedObject" style="stroke:#181818;stroke-width:1.0;"/><polygon fill="#181818" points="807.19,841.4775,807.7914,848.6635,814.6559,850.8722,814.0545,843.6862,807.19,841.4775" style="stroke:#181818;stroke-width:1.0;"/><polygon fill="#181818" points="948.65,1660.1875,958.3899,1658.7267,952.8673,1657.5016,954.0924,1651.979,948.65,1660.1875" style="stroke:#181818;stroke-width:1.0;"/><text fill="#000000" font-family="sans-serif" font-size="13" lengthAdjust="spacing" textLength="84" x="1178.34" y="1268.6126">alarmedObject</text><text fill="#000000" font-family="sans-serif" font-size="13" lengthAdjust="spacing" textLength="22" x="956.411" y="1652.6173">0..1</text></g><!--link Alarm to AlarmedObject--><g id="link_Alarm_AlarmedObject"><path codeLine="186" d="M820.3377,1547.8774 C823.6677,1557.9174 823.16,1556.4775 826.34,1566.2575 C835.12,1593.3175 842.5276,1617.6911 850.0776,1643.3711 " fill="none" id="Alarm-AlarmedObject" style="stroke:#181818;stroke-width:1.0;"/><polygon fill="#181818" points="816.56,1536.4875,814.6522,1543.4417,820.3377,1547.8774,822.2455,1540.9232,816.56,1536.4875" style="stroke:#181818;stroke-width:1.0;"/><polygon fill="#181818" points="851.77,1649.1275,853.069,1639.3647,850.3597,1644.3305,845.3938,1641.6212,851.77,1649.1275" style="stroke:#181818;stroke-width:1.0;"/><text fill="#000000" font-family="sans-serif" font-size="13" lengthAdjust="spacing" textLength="84" x="831.34" y="1580.7526">alarmedObject</text><text fill="#000000" font-family="sans-serif" font-size="13" lengthAdjust="spacing" textLength="22" x="826.4666" y="1638.5286">0..1</text></g><!--link AlarmRefOrValue to RelatedPlaceRefOrValue--><g id="link_AlarmRefOrValue_RelatedPlaceRefOrValue"><path codeLine="188" d="M814.8333,854.6431 C835.9933,880.4231 852.7,894.4375 880.34,911.9775 C966.63,966.7375 1008.35,920.8075 1108.34,941.9775 C1182.22,957.6175 1226.1,929.4975 1271.34,989.9775 C1416.76,1184.3975 1354.74,1308.2375 1271.34,1536.2575 C1257.82,1573.2175 1236.6335,1603.2956 1210.8535,1631.6856 " fill="none" id="AlarmRefOrValue-RelatedPlaceRefOrValue" style="stroke:#181818;stroke-width:1.0;"/><polygon fill="#181818" points="807.22,845.3675,807.9348,852.5431,814.8333,854.6431,814.1185,847.4675,807.22,845.3675" style="stroke:#181818;stroke-width:1.0;"/><polygon fill="#181818" points="1206.82,1636.1275,1215.8316,1632.1537,1210.1813,1632.4259,1209.909,1626.7756,1206.82,1636.1275" style="stroke:#181818;stroke-width:1.0;"/><text fill="#000000" font-family="sans-serif" font-size="13" lengthAdjust="spacing" textLength="31" x="1359.34" y="1268.6126">place</text><text fill="#000000" font-family="sans-serif" font-size="13" lengthAdjust="spacing" textLength="20" x="1214.4785" y="1626.7495">0..*</text></g><!--link Alarm to RelatedPlaceRefOrValue--><g id="link_Alarm_RelatedPlaceRefOrValue"><path codeLine="190" d="M840.7416,1421.3557 C873.8116,1462.5557 903.29,1497.3075 939.34,1536.2575 C971.39,1570.8875 1004.5564,1602.903 1037.4364,1633.183 " fill="none" id="Alarm-RelatedPlaceRefOrValue" style="stroke:#181818;stroke-width:1.0;"/><polygon fill="#181818" points="833.23,1411.9975,833.8664,1419.1805,840.7416,1421.3557,840.1052,1414.1728,833.23,1411.9975" style="stroke:#181818;stroke-width:1.0;"/><polygon fill="#181818" points="1041.85,1637.2475,1037.9394,1628.2083,1038.172,1633.8604,1032.52,1634.093,1041.85,1637.2475" style="stroke:#181818;stroke-width:1.0;"/><text fill="#000000" font-family="sans-serif" font-size="13" lengthAdjust="spacing" textLength="31" x="983.34" y="1580.7526">place</text><text fill="#000000" font-family="sans-serif" font-size="13" lengthAdjust="spacing" textLength="20" x="1014.4797" y="1628.2181">0..*</text></g><!--link AlarmRefOrValue to CrossedThresholdInformation--><g id="link_AlarmRefOrValue_CrossedThresholdInformation"><path codeLine="192" d="M573.6336,743.977 C514.0636,811.687 454.85,894.0975 423.34,989.9775 C347.53,1220.6275 322.71,1315.2975 423.34,1536.2575 C440.08,1573.0175 464.2836,1601.1137 494.8636,1627.3137 " fill="none" id="AlarmRefOrValue-CrossedThresholdInformation" style="stroke:#181818;stroke-width:1.0;"/><polygon fill="#181818" points="581.56,734.9675,574.5936,736.8301,573.6336,743.977,580.6,742.1144,581.56,734.9675" style="stroke:#181818;stroke-width:1.0;"/><polygon fill="#181818" points="499.42,1631.2175,495.1879,1622.3243,495.623,1627.9644,489.9829,1628.3994,499.42,1631.2175" style="stroke:#181818;stroke-width:1.0;"/><text fill="#000000" font-family="sans-serif" font-size="13" lengthAdjust="spacing" textLength="165" x="424.34" y="1268.6126">crossedThresholdInformation</text><text fill="#000000" font-family="sans-serif" font-size="13" lengthAdjust="spacing" textLength="22" x="470.0416" y="1623.905">0..1</text></g><!--link Alarm to CrossedThresholdInformation--><g id="link_Alarm_CrossedThresholdInformation"><path codeLine="194" d="M658.5694,1548.2433 C652.6094,1575.6433 650.7052,1584.4046 645.5852,1607.9446 " fill="none" id="Alarm-CrossedThresholdInformation" style="stroke:#181818;stroke-width:1.0;"/><polygon fill="#181818" points="661.12,1536.5175,655.9361,1541.5302,658.5694,1548.2433,663.7533,1543.2306,661.12,1536.5175" style="stroke:#181818;stroke-width:1.0;"/><polygon fill="#181818" points="644.31,1613.8075,650.1314,1605.8632,645.3727,1608.9217,642.3142,1604.163,644.31,1613.8075" style="stroke:#181818;stroke-width:1.0;"/><text fill="#000000" font-family="sans-serif" font-size="13" lengthAdjust="spacing" textLength="165" x="653.34" y="1580.7526">crossedThresholdInformation</text><text fill="#000000" font-family="sans-serif" font-size="13" lengthAdjust="spacing" textLength="22" x="623.0733" y="1603.239">0..1</text></g><!--link AlarmRefOrValue to Comment--><g id="link_AlarmRefOrValue_Comment"><path codeLine="196" d="M819.01,621.2275 C849.23,621.2275 863.26,621.2275 891.24,621.2275 " fill="none" id="AlarmRefOrValue-Comment" style="stroke:#181818;stroke-width:1.0;"/><polygon fill="#181818" points="807.01,621.2275,813.01,625.2275,819.01,621.2275,813.01,617.2275,807.01,621.2275" style="stroke:#181818;stroke-width:1.0;"/><polygon fill="#181818" points="897.24,621.2275,888.24,617.2275,892.24,621.2275,888.24,625.2275,897.24,621.2275" style="stroke:#181818;stroke-width:1.0;"/><text fill="#000000" font-family="sans-serif" font-size="13" lengthAdjust="spacing" textLength="54" x="825.09" y="614.7226">comment</text><text fill="#000000" font-family="sans-serif" font-size="13" lengthAdjust="spacing" textLength="20" x="869.3045" y="635.451">0..*</text></g><!--link Comment to Alarm--><g id="link_Comment_Alarm"><path codeLine="198" d="M942.5913,706.5782 C913.6213,778.9882 875.6376,873.9361 833.7476,978.6361 " fill="none" id="Comment-Alarm" style="stroke:#181818;stroke-width:1.0;"/><polygon fill="#181818" points="944.82,701.0075,937.7631,707.8777,942.9627,705.6498,945.1907,710.8494,944.82,701.0075" style="stroke:#181818;stroke-width:1.0;"/><polygon fill="#181818" points="829.29,989.7775,835.2326,985.6927,833.7476,978.6361,827.805,982.721,829.29,989.7775" style="stroke:#181818;stroke-width:1.0;"/><text fill="#000000" font-family="sans-serif" font-size="13" lengthAdjust="spacing" textLength="54" x="849.34" y="956.4726">comment</text><text fill="#000000" font-family="sans-serif" font-size="13" lengthAdjust="spacing" textLength="20" x="921.2519" y="722.0615">0..*</text></g><!--link CrossedThresholdInformation to ThresholdRef--><g id="link_CrossedThresholdInformation_ThresholdRef"><path codeLine="200" d="M623.34,1820.7575 C623.34,1846.0475 623.34,1855.1675 623.34,1879.8975 " fill="none" id="CrossedThresholdInformation-ThresholdRef" style="stroke:#181818;stroke-width:1.0;"/><polygon fill="#181818" points="623.34,1808.7575,619.34,1814.7575,623.34,1820.7575,627.34,1814.7575,623.34,1808.7575" style="stroke:#181818;stroke-width:1.0;"/><polygon fill="#181818" points="623.34,1885.8975,627.34,1876.8975,623.34,1880.8975,619.34,1876.8975,623.34,1885.8975" style="stroke:#181818;stroke-width:1.0;"/><text fill="#000000" font-family="sans-serif" font-size="13" lengthAdjust="spacing" textLength="53" x="624.34" y="1852.8426">threshold</text><text fill="#000000" font-family="sans-serif" font-size="13" lengthAdjust="spacing" textLength="22" x="600.4291" y="1875.504">0..1</text></g><rect fill="#DDDDDD" height="27.6094" id="_legend" rx="7.5" ry="7.5" style="stroke:#000000;stroke-width:1.0;" width="123" x="643.38" y="2078.3163"/><a href="index.htm" target="_top" title="index.htm" xlink:actuate="onRequest" xlink:href="index.htm" xlink:show="new" xlink:title="index.htm" xlink:type="simple"><text fill="#0000FF" font-family="sans-serif" font-size="14" lengthAdjust="spacing" text-decoration="underline" textLength="113" x="648.38" y="2097.8495">Go to API Catalog</text></a></g></svg>