<?xml version="1.0" encoding="UTF-8" standalone="no"?><svg xmlns="http://www.w3.org/2000/svg" xmlns:xlink="http://www.w3.org/1999/xlink" contentScriptType="application/ecmascript" contentStyleType="text/css" height="678px" preserveAspectRatio="none" style="width:1265px;height:678px;" version="1.1" viewBox="0 0 1265 678" width="1265px" zoomAndPan="magnify"><defs><filter height="300%" id="f1l8ttcaprebfn" width="300%" x="-1" y="-1"><feGaussianBlur result="blurOut" stdDeviation="2.0"/><feColorMatrix in="blurOut" result="blurOut2" type="matrix" values="0 0 0 0 0 0 0 0 0 0 0 0 0 0 0 0 0 0 .4 0"/><feOffset dx="4.0" dy="4.0" in="blurOut2" result="blurOut3"/><feBlend in="SourceGraphic" in2="blurOut3" mode="normal"/></filter></defs><g><!--class CustomerProblem--><rect fill="#FFFFFF" filter="url(#f1l8ttcaprebfn)" height="171.4531" id="CustomerProblem" style="stroke: #A80036; stroke-width: 1.5;" width="181" x="479.58" y="185.55"/><text fill="#000000" font-family="sans-serif" font-size="12" lengthAdjust="spacingAndGlyphs" textLength="102" x="519.08" y="203.007">CustomerProblem</text><line style="stroke: #A80036; stroke-width: 1.5;" x1="480.58" x2="659.58" y1="210.6438" y2="210.6438"/><text fill="#000000" font-family="sans-serif" font-size="11" lengthAdjust="spacingAndGlyphs" textLength="90" x="485.58" y="226.0627">description : String</text><text fill="#000000" font-family="sans-serif" font-size="11" lengthAdjust="spacingAndGlyphs" textLength="42" x="485.58" y="239.8986">href : Uri</text><text fill="#000000" font-family="sans-serif" font-size="11" lengthAdjust="spacingAndGlyphs" textLength="45" x="485.58" y="253.7346">id : String</text><text fill="#000000" font-family="sans-serif" font-size="11" lengthAdjust="spacingAndGlyphs" textLength="125" x="485.58" y="267.5705">interactionData : DateTime</text><text fill="#000000" font-family="sans-serif" font-size="11" lengthAdjust="spacingAndGlyphs" textLength="169" x="485.58" y="281.4064">interactionDataComplete : DateTime</text><text fill="#000000" font-family="sans-serif" font-size="11" lengthAdjust="spacingAndGlyphs" textLength="140" x="485.58" y="295.2424">interactionDataStatus : String</text><text fill="#000000" font-family="sans-serif" font-size="11" lengthAdjust="spacingAndGlyphs" textLength="76" x="485.58" y="309.0783">serevity : String</text><text fill="#000000" font-family="sans-serif" font-size="11" lengthAdjust="spacingAndGlyphs" textLength="96" x="485.58" y="322.9143">@baseType : String</text><text fill="#000000" font-family="sans-serif" font-size="11" lengthAdjust="spacingAndGlyphs" textLength="112" x="485.58" y="336.7502">@schemaLocation : Uri</text><text fill="#000000" font-family="sans-serif" font-size="11" lengthAdjust="spacingAndGlyphs" textLength="69" x="485.58" y="350.5861">@type : String</text><!--class CustomerProblemTask--><rect fill="#FCF2E3" filter="url(#f1l8ttcaprebfn)" height="88.4375" id="CustomerProblemTask" style="stroke: #A80036; stroke-width: 1.5;" width="135" x="153.58" y="227.27"/><text fill="#000000" font-family="sans-serif" font-size="12" lengthAdjust="spacingAndGlyphs" textLength="129" x="156.58" y="244.727">CustomerProblemTask</text><line style="stroke: #A80036; stroke-width: 1.5;" x1="154.58" x2="287.58" y1="252.3637" y2="252.3637"/><text fill="#000000" font-family="sans-serif" font-size="11" lengthAdjust="spacingAndGlyphs" textLength="98" x="159.58" y="267.7827">creationDate : String</text><text fill="#000000" font-family="sans-serif" font-size="11" lengthAdjust="spacingAndGlyphs" textLength="77" x="159.58" y="281.6186">dueDate : String</text><text fill="#000000" font-family="sans-serif" font-size="11" lengthAdjust="spacingAndGlyphs" textLength="45" x="159.58" y="295.4546">id : String</text><text fill="#000000" font-family="sans-serif" font-size="11" lengthAdjust="spacingAndGlyphs" textLength="67" x="159.58" y="309.2905">status : String</text><!--class CloseCustomerProblemSummary--><rect fill="#FCF2E3" filter="url(#f1l8ttcaprebfn)" height="74.6016" id="CloseCustomerProblemSummary" style="stroke: #A80036; stroke-width: 1.5;" width="194" x="912.08" y="234.27"/><text fill="#000000" font-family="sans-serif" font-size="12" lengthAdjust="spacingAndGlyphs" textLength="188" x="915.08" y="251.727">CloseCustomerProblemSummary</text><line style="stroke: #A80036; stroke-width: 1.5;" x1="913.08" x2="1105.08" y1="259.3638" y2="259.3638"/><text fill="#000000" font-family="sans-serif" font-size="11" lengthAdjust="spacingAndGlyphs" textLength="85" x="918.08" y="274.7827">closeDate : String</text><text fill="#000000" font-family="sans-serif" font-size="11" lengthAdjust="spacingAndGlyphs" textLength="90" x="918.08" y="288.6186">description : String</text><text fill="#000000" font-family="sans-serif" font-size="11" lengthAdjust="spacingAndGlyphs" textLength="45" x="918.08" y="302.4546">id : String</text><!--class KnownProblemDescription--><rect fill="#FCF2E3" filter="url(#f1l8ttcaprebfn)" height="60.7656" id="KnownProblemDescription" style="stroke: #A80036; stroke-width: 1.5;" width="154" x="299.08" y="531"/><text fill="#000000" font-family="sans-serif" font-size="12" lengthAdjust="spacingAndGlyphs" textLength="148" x="302.08" y="548.457">KnownProblemDescription</text><line style="stroke: #A80036; stroke-width: 1.5;" x1="300.08" x2="452.08" y1="556.0938" y2="556.0938"/><text fill="#000000" font-family="sans-serif" font-size="11" lengthAdjust="spacingAndGlyphs" textLength="90" x="305.08" y="571.5127">description : String</text><text fill="#000000" font-family="sans-serif" font-size="11" lengthAdjust="spacingAndGlyphs" textLength="63" x="305.08" y="585.3486">name : String</text><!--class CustomerProblemWorkaround--><rect fill="#FCF2E3" filter="url(#f1l8ttcaprebfn)" height="60.7656" id="CustomerProblemWorkaround" style="stroke: #A80036; stroke-width: 1.5;" width="175" x="482.58" y="27.55"/><text fill="#000000" font-family="sans-serif" font-size="12" lengthAdjust="spacingAndGlyphs" textLength="169" x="485.58" y="45.007">CustomerProblemWorkaround</text><line style="stroke: #A80036; stroke-width: 1.5;" x1="483.58" x2="656.58" y1="52.6437" y2="52.6437"/><text fill="#000000" font-family="sans-serif" font-size="11" lengthAdjust="spacingAndGlyphs" textLength="90" x="488.58" y="68.0627">description : String</text><text fill="#000000" font-family="sans-serif" font-size="11" lengthAdjust="spacingAndGlyphs" textLength="63" x="488.58" y="81.8986">name : String</text><!--class Attachment--><rect fill="#FCF2E3" filter="url(#f1l8ttcaprebfn)" height="212.9609" id="Attachment" style="stroke: #A80036; stroke-width: 1.5;" width="126" x="699.08" y="455"/><text fill="#000000" font-family="sans-serif" font-size="12" lengthAdjust="spacingAndGlyphs" textLength="61" x="731.58" y="472.457">Attachment</text><line style="stroke: #A80036; stroke-width: 1.5;" x1="700.08" x2="824.08" y1="480.0938" y2="480.0938"/><text fill="#000000" font-family="sans-serif" font-size="11" lengthAdjust="spacingAndGlyphs" textLength="114" x="705.08" y="495.5127">attachmentType : String</text><text fill="#000000" font-family="sans-serif" font-size="11" lengthAdjust="spacingAndGlyphs" textLength="111" x="705.08" y="509.3486">content : string/base64</text><text fill="#000000" font-family="sans-serif" font-size="11" lengthAdjust="spacingAndGlyphs" textLength="90" x="705.08" y="523.1846">description : String</text><text fill="#000000" font-family="sans-serif" font-size="11" lengthAdjust="spacingAndGlyphs" textLength="42" x="705.08" y="537.0205">href : Uri</text><text fill="#000000" font-family="sans-serif" font-size="11" lengthAdjust="spacingAndGlyphs" textLength="45" x="705.08" y="550.8564">id : String</text><text fill="#000000" font-family="sans-serif" font-size="11" lengthAdjust="spacingAndGlyphs" textLength="85" x="705.08" y="564.6924">mimeType : String</text><text fill="#000000" font-family="sans-serif" font-size="11" lengthAdjust="spacingAndGlyphs" textLength="63" x="705.08" y="578.5283">name : String</text><text fill="#000000" font-family="sans-serif" font-size="11" lengthAdjust="spacingAndGlyphs" textLength="69" x="705.08" y="592.3643">size : Quantity</text><text fill="#000000" font-family="sans-serif" font-size="11" lengthAdjust="spacingAndGlyphs" textLength="34" x="705.08" y="606.2002">url : Uri</text><text fill="#000000" font-family="sans-serif" font-size="11" lengthAdjust="spacingAndGlyphs" textLength="99" x="705.08" y="620.0361">validFor : TimePeriod</text><text fill="#000000" font-family="sans-serif" font-size="11" lengthAdjust="spacingAndGlyphs" textLength="96" x="705.08" y="633.8721">@baseType : String</text><text fill="#000000" font-family="sans-serif" font-size="11" lengthAdjust="spacingAndGlyphs" textLength="112" x="705.08" y="647.708">@schemaLocation : Uri</text><text fill="#000000" font-family="sans-serif" font-size="11" lengthAdjust="spacingAndGlyphs" textLength="69" x="705.08" y="661.5439">@type : String</text><!--link CustomerProblem to Attachment--><path d="M634.76,369.2 C652.95,396.45 672.82,426.23 691.34,453.99 " fill="none" id="CustomerProblem-Attachment" style="stroke: #A80036; stroke-width: 1.0;"/><polygon fill="#A80036" points="698.35,464.49,696.677,454.7843,695.5727,460.3323,690.0247,459.228,698.35,464.49" style="stroke: #A80036; stroke-width: 1.0;"/><line style="stroke: #A80036; stroke-width: 1.0;" x1="695.5727" x2="691.13" y1="460.3323" y2="453.675"/><polygon fill="#A80036" points="627.75,358.69,627.7522,365.9011,634.4094,368.6726,634.4072,361.4615,627.75,358.69" style="stroke: #A80036; stroke-width: 1.0;"/><text fill="#000000" font-family="sans-serif" font-size="13" lengthAdjust="spacingAndGlyphs" textLength="65" x="656.08" y="401.4951">attachment</text><text fill="#000000" font-family="sans-serif" font-size="13" lengthAdjust="spacingAndGlyphs" textLength="22" x="689.6228" y="444.1522">0..1</text><!--link CustomerProblem to KnownProblemDescription--><path d="M501.44,368.96 C497.24,375.05 493.09,381.1 489.08,387 C458.74,431.67 425.02,483.61 402.37,518.84 " fill="none" id="CustomerProblem-KnownProblemDescription" style="stroke: #A80036; stroke-width: 1.0;"/><polygon fill="#A80036" points="395.38,529.74,403.6094,524.3292,398.0821,525.533,396.8782,520.0058,395.38,529.74" style="stroke: #A80036; stroke-width: 1.0;"/><line style="stroke: #A80036; stroke-width: 1.0;" x1="398.0821" x2="402.4" y1="525.533" y2="518.8"/><polygon fill="#A80036" points="508.72,358.48,502.0115,361.1251,501.873,368.3349,508.5815,365.6898,508.72,358.48" style="stroke: #A80036; stroke-width: 1.0;"/><text fill="#000000" font-family="sans-serif" font-size="13" lengthAdjust="spacingAndGlyphs" textLength="150" x="490.08" y="401.4951">knownProblemDescription</text><text fill="#000000" font-family="sans-serif" font-size="13" lengthAdjust="spacingAndGlyphs" textLength="22" x="374.1963" y="520.1617">0..1</text><!--link CustomerProblemWorkaround to CustomerProblem--><path d="M570.08,101.95 C570.08,122.08 570.08,146.9 570.08,171.24 " fill="none" id="CustomerProblemWorkaround-CustomerProblem" style="stroke: #A80036; stroke-width: 1.0;"/><polygon fill="#A80036" points="570.08,183.97,574.08,177.97,570.08,171.97,566.08,177.97,570.08,183.97" style="stroke: #A80036; stroke-width: 1.0;"/><polygon fill="#A80036" points="570.08,89.06,566.08,98.06,570.08,94.06,574.08,98.06,570.08,89.06" style="stroke: #A80036; stroke-width: 1.0;"/><line style="stroke: #A80036; stroke-width: 1.0;" x1="570.08" x2="570.08" y1="94.06" y2="102.06"/><text fill="#000000" font-family="sans-serif" font-size="13" lengthAdjust="spacingAndGlyphs" textLength="172" x="571.08" y="152.0451">customerProblemWorkaround</text><text fill="#000000" font-family="sans-serif" font-size="13" lengthAdjust="spacingAndGlyphs" textLength="22" x="535.705" y="109.541">0..1</text><!--link CustomerProblemWorkaround to Attachment--><path d="M671.46,65.9 C820.99,79.1 1089.37,112.54 1148.08,185.55 C1195.83,244.93 1187.48,291.77 1148.08,357 C1081.04,468.01 930.93,521.34 838.91,544.49 " fill="none" id="CustomerProblemWorkaround-Attachment" style="stroke: #A80036; stroke-width: 1.0;"/><polygon fill="#A80036" points="826.41,547.53,836.0999,549.2923,831.2687,546.3496,834.2113,541.5184,826.41,547.53" style="stroke: #A80036; stroke-width: 1.0;"/><line style="stroke: #A80036; stroke-width: 1.0;" x1="831.2687" x2="839.045" y1="546.3496" y2="544.455"/><polygon fill="#A80036" points="658.88,64.82,664.5152,69.3194,670.8359,65.8482,665.2007,61.3488,658.88,64.82" style="stroke: #A80036; stroke-width: 1.0;"/><text fill="#000000" font-family="sans-serif" font-size="13" lengthAdjust="spacingAndGlyphs" textLength="72" x="1181.08" y="276.7651">attachement</text><text fill="#000000" font-family="sans-serif" font-size="13" lengthAdjust="spacingAndGlyphs" textLength="22" x="833.4078" y="532.7881">0..1</text><!--link CustomerProblemWorkaround to KnownProblemDescription--><path d="M468.46,68.05 C329.32,83.41 90.68,118.92 38.08,185.55 C-9.13,245.36 0.55,290.68 38.08,357 C90.67,449.92 204.65,504.97 285.69,533.8 " fill="none" id="CustomerProblemWorkaround-KnownProblemDescription" style="stroke: #A80036; stroke-width: 1.0;"/><polygon fill="#A80036" points="297.97,538.05,293.6044,532.3105,286.6273,534.1328,290.9929,539.8723,297.97,538.05" style="stroke: #A80036; stroke-width: 1.0;"/><polygon fill="#A80036" points="481.35,66.66,471.9717,63.6522,476.3791,67.1983,472.8329,71.6057,481.35,66.66" style="stroke: #A80036; stroke-width: 1.0;"/><line style="stroke: #A80036; stroke-width: 1.0;" x1="476.3791" x2="468.42" y1="67.1983" y2="68.055"/><text fill="#000000" font-family="sans-serif" font-size="13" lengthAdjust="spacingAndGlyphs" textLength="72" x="39.08" y="276.7651">attachement</text><text fill="#000000" font-family="sans-serif" font-size="13" lengthAdjust="spacingAndGlyphs" textLength="22" x="452.7153" y="64.0566">0..1</text><!--link CustomerProblemTask to CustomerProblem--><path d="M288.38,257.74 C302.11,255.46 316.52,253.46 330.08,252.27 C388.53,247.17 403.64,247.13 462.08,252.27 C464.02,252.44 465.98,252.63 467.94,252.84 " fill="none" id="CustomerProblemTask-CustomerProblem" style="stroke: #A80036; stroke-width: 1.0;"/><polygon fill="#A80036" points="477.82,253.98,472.3216,249.3145,465.9001,252.5955,471.3986,257.261,477.82,253.98" style="stroke: #A80036; stroke-width: 1.0;"/><polygon fill="#A80036" points="330.08,231.27,327.3327,240.7279,330.7556,236.2242,335.2593,239.647,330.08,231.27" style="stroke: #A80036; stroke-width: 1.0;"/><line style="stroke: #A80036; stroke-width: 1.0;" x1="330.7556" x2="396.08" y1="236.2242" y2="240.27"/><text fill="#000000" font-family="sans-serif" font-size="13" lengthAdjust="spacingAndGlyphs" textLength="130" x="331.08" y="245.7651">customerProblemTask</text><text fill="#000000" font-family="sans-serif" font-size="13" lengthAdjust="spacingAndGlyphs" textLength="22" x="296.6413" y="243.6396">0..1</text><!--link CustomerProblem to CloseCustomerProblemSummary--><path d="M660.92,254.12 C666.63,253.39 672.3,252.76 677.83,252.27 C763.28,244.73 785.26,246.38 870.83,252.27 C880.6,252.95 890.72,253.88 900.85,254.99 " fill="none" id="CustomerProblem-CloseCustomerProblemSummary" style="stroke: #A80036; stroke-width: 1.0;"/><polygon fill="#A80036" points="910.77,256.13,902.2861,251.1276,905.8028,255.5585,901.3718,259.0752,910.77,256.13" style="stroke: #A80036; stroke-width: 1.0;"/><line style="stroke: #A80036; stroke-width: 1.0;" x1="905.8028" x2="897.85" y1="255.5585" y2="254.64"/><polygon fill="#A80036" points="677.83,229.27,674.4045,235.6155,678.9443,241.2181,682.3699,234.8726,677.83,229.27" style="stroke: #A80036; stroke-width: 1.0;"/><text fill="#000000" font-family="sans-serif" font-size="13" lengthAdjust="spacingAndGlyphs" textLength="191" x="678.83" y="243.7651">closeCustomerProblemSummary</text><text fill="#000000" font-family="sans-serif" font-size="13" lengthAdjust="spacingAndGlyphs" textLength="22" x="882.0158" y="252.0269">0..1</text></g></svg>