<?xml version="1.0" encoding="us-ascii" standalone="no"?><svg xmlns="http://www.w3.org/2000/svg" xmlns:xlink="http://www.w3.org/1999/xlink" contentStyleType="text/css" height="842px" preserveAspectRatio="none" style="width:1206px;height:842px;background:#FFFFFF;" version="1.1" viewBox="0 0 1206 842" width="1206px" zoomAndPan="magnify"><defs/><g><text fill="#888888" font-family="sans-serif" font-size="10" lengthAdjust="spacing" textLength="148" x="1044.54" y="10.3809">Diagram generated at 12/22/23</text><text fill="#000000" font-family="sans-serif" font-size="14" font-weight="bold" lengthAdjust="spacing" textLength="192" x="500.27" y="38.1113">TMF Schema Class Diagram</text><!--class CustomerProblem--><g id="elem_CustomerProblem"><rect codeLine="20" fill="#FFFFFF" height="226.7969" id="CustomerProblem" rx="2.5" ry="2.5" style="stroke:#181818;stroke-width:0.5;" width="241" x="196.04" y="208.0175"/><text fill="#000000" font-family="sans-serif" font-size="12" font-style="italic" lengthAdjust="spacing" textLength="41" x="296.04" y="225.4745">&#171;Pivot&#187;</text><text fill="#000000" font-family="sans-serif" font-size="14" lengthAdjust="spacing" textLength="113" x="260.04" y="242.6445">CustomerProblem</text><line style="stroke:#181818;stroke-width:0.5;" x1="197.04" x2="436.04" y1="250.7206" y2="250.7206"/><text fill="#000000" font-family="sans-serif" font-size="14" lengthAdjust="spacing" textLength="118" x="202.04" y="269.2538">description : String</text><text fill="#000000" font-family="sans-serif" font-size="14" lengthAdjust="spacing" textLength="54" x="202.04" y="286.8632">href : Uri</text><text fill="#000000" font-family="sans-serif" font-size="14" lengthAdjust="spacing" textLength="60" x="202.04" y="304.4726">id : String</text><text fill="#000000" font-family="sans-serif" font-size="14" lengthAdjust="spacing" textLength="169" x="202.04" y="322.082">interactionData : DateTime</text><text fill="#000000" font-family="sans-serif" font-size="14" lengthAdjust="spacing" textLength="229" x="202.04" y="339.6913">interactionDataComplete : DateTime</text><text fill="#000000" font-family="sans-serif" font-size="14" lengthAdjust="spacing" textLength="185" x="202.04" y="357.3007">interactionDataStatus : String</text><text fill="#000000" font-family="sans-serif" font-size="14" lengthAdjust="spacing" textLength="98" x="202.04" y="374.9101">serevity : String</text><text fill="#000000" font-family="sans-serif" font-size="14" lengthAdjust="spacing" textLength="126" x="202.04" y="392.5195">@baseType : String</text><text fill="#000000" font-family="sans-serif" font-size="14" lengthAdjust="spacing" textLength="146" x="202.04" y="410.1288">@schemaLocation : Uri</text><text fill="#000000" font-family="sans-serif" font-size="14" lengthAdjust="spacing" textLength="90" x="202.04" y="427.7382">@type : String</text></g><!--class CustomerProblemTask--><g id="elem_CustomerProblemTask"><rect codeLine="33" fill="#FCF2E3" height="106.0469" id="CustomerProblemTask" rx="2.5" ry="2.5" style="stroke:#181818;stroke-width:0.5;" width="150" x="913.54" y="268.3975"/><text fill="#000000" font-family="sans-serif" font-size="14" lengthAdjust="spacing" textLength="144" x="916.54" y="287.9307">CustomerProblemTask</text><line style="stroke:#181818;stroke-width:0.5;" x1="914.54" x2="1062.54" y1="296.0069" y2="296.0069"/><text fill="#000000" font-family="sans-serif" font-size="14" lengthAdjust="spacing" textLength="130" x="919.54" y="314.5401">creationDate : String</text><text fill="#000000" font-family="sans-serif" font-size="14" lengthAdjust="spacing" textLength="103" x="919.54" y="332.1495">dueDate : String</text><text fill="#000000" font-family="sans-serif" font-size="14" lengthAdjust="spacing" textLength="60" x="919.54" y="349.7588">id : String</text><text fill="#000000" font-family="sans-serif" font-size="14" lengthAdjust="spacing" textLength="87" x="919.54" y="367.3682">status : String</text></g><!--class CloseCustomerProblemSummary--><g id="elem_CloseCustomerProblemSummary"><rect codeLine="40" fill="#FCF2E3" height="88.4375" id="CloseCustomerProblemSummary" rx="2.5" ry="2.5" style="stroke:#181818;stroke-width:0.5;" width="214" x="664.54" y="277.1975"/><text fill="#000000" font-family="sans-serif" font-size="14" lengthAdjust="spacing" textLength="208" x="667.54" y="296.7307">CloseCustomerProblemSummary</text><line style="stroke:#181818;stroke-width:0.5;" x1="665.54" x2="877.54" y1="304.8069" y2="304.8069"/><text fill="#000000" font-family="sans-serif" font-size="14" lengthAdjust="spacing" textLength="112" x="670.54" y="323.3401">closeDate : String</text><text fill="#000000" font-family="sans-serif" font-size="14" lengthAdjust="spacing" textLength="118" x="670.54" y="340.9495">description : String</text><text fill="#000000" font-family="sans-serif" font-size="14" lengthAdjust="spacing" textLength="60" x="670.54" y="358.5588">id : String</text></g><!--class KnownProblemDescription--><g id="elem_KnownProblemDescription"><rect codeLine="46" fill="#FCF2E3" height="70.8281" id="KnownProblemDescription" rx="2.5" ry="2.5" style="stroke:#181818;stroke-width:0.5;" width="171" x="136.04" y="609.6675"/><text fill="#000000" font-family="sans-serif" font-size="14" lengthAdjust="spacing" textLength="165" x="139.04" y="629.2007">KnownProblemDescription</text><line style="stroke:#181818;stroke-width:0.5;" x1="137.04" x2="306.04" y1="637.2769" y2="637.2769"/><text fill="#000000" font-family="sans-serif" font-size="14" lengthAdjust="spacing" textLength="118" x="142.04" y="655.8101">description : String</text><text fill="#000000" font-family="sans-serif" font-size="14" lengthAdjust="spacing" textLength="84" x="142.04" y="673.4195">name : String</text></g><!--class CustomerProblemWorkaround--><g id="elem_CustomerProblemWorkaround"><rect codeLine="51" fill="#FCF2E3" height="70.8281" id="CustomerProblemWorkaround" rx="2.5" ry="2.5" style="stroke:#181818;stroke-width:0.5;" width="197" x="510.04" y="59.1875"/><text fill="#000000" font-family="sans-serif" font-size="14" lengthAdjust="spacing" textLength="191" x="513.04" y="78.7207">CustomerProblemWorkaround</text><line style="stroke:#181818;stroke-width:0.5;" x1="511.04" x2="706.04" y1="86.7969" y2="86.7969"/><text fill="#000000" font-family="sans-serif" font-size="14" lengthAdjust="spacing" textLength="118" x="516.04" y="105.3301">description : String</text><text fill="#000000" font-family="sans-serif" font-size="14" lengthAdjust="spacing" textLength="84" x="516.04" y="122.9395">name : String</text></g><!--class Attachment--><g id="elem_Attachment"><rect codeLine="56" fill="#FCF2E3" height="264.5313" id="Attachment" rx="2.5" ry="2.5" style="stroke:#181818;stroke-width:0.5;" width="163" x="366.04" y="512.8175"/><text fill="#000000" font-family="sans-serif" font-size="14" lengthAdjust="spacing" textLength="71" x="412.04" y="532.3507">Attachment</text><line style="stroke:#181818;stroke-width:0.5;" x1="367.04" x2="528.04" y1="540.4269" y2="540.4269"/><text fill="#000000" font-family="sans-serif" font-size="14" lengthAdjust="spacing" textLength="151" x="372.04" y="558.9601">attachmentType : String</text><text fill="#000000" font-family="sans-serif" font-size="14" lengthAdjust="spacing" textLength="145" x="372.04" y="576.5695">content : string/base64</text><text fill="#000000" font-family="sans-serif" font-size="14" lengthAdjust="spacing" textLength="118" x="372.04" y="594.1788">description : String</text><text fill="#000000" font-family="sans-serif" font-size="14" lengthAdjust="spacing" textLength="54" x="372.04" y="611.7882">href : Uri</text><text fill="#000000" font-family="sans-serif" font-size="14" lengthAdjust="spacing" textLength="60" x="372.04" y="629.3976">id : String</text><text fill="#000000" font-family="sans-serif" font-size="14" lengthAdjust="spacing" textLength="114" x="372.04" y="647.007">mimeType : String</text><text fill="#000000" font-family="sans-serif" font-size="14" lengthAdjust="spacing" textLength="84" x="372.04" y="664.6163">name : String</text><text fill="#000000" font-family="sans-serif" font-size="14" lengthAdjust="spacing" textLength="89" x="372.04" y="682.2257">size : Quantity</text><text fill="#000000" font-family="sans-serif" font-size="14" lengthAdjust="spacing" textLength="45" x="372.04" y="699.8351">url : Uri</text><text fill="#000000" font-family="sans-serif" font-size="14" lengthAdjust="spacing" textLength="135" x="372.04" y="717.4445">validFor : TimePeriod</text><text fill="#000000" font-family="sans-serif" font-size="14" lengthAdjust="spacing" textLength="126" x="372.04" y="735.0538">@baseType : String</text><text fill="#000000" font-family="sans-serif" font-size="14" lengthAdjust="spacing" textLength="146" x="372.04" y="752.6632">@schemaLocation : Uri</text><text fill="#000000" font-family="sans-serif" font-size="14" lengthAdjust="spacing" textLength="90" x="372.04" y="770.2726">@type : String</text></g><!--link CustomerProblem to Attachment--><g id="link_CustomerProblem_Attachment"><path codeLine="72" d="M392.2287,445.9344 C397.2087,455.7744 396.45,455.0175 400.54,464.8175 C406.85,479.9675 410.742,490.4539 415.762,506.7339 " fill="none" id="CustomerProblem-Attachment" style="stroke:#181818;stroke-width:1.0;"/><polygon fill="#181818" points="386.81,435.2275,385.9504,442.3872,392.2287,445.9344,393.0883,438.7747,386.81,435.2275" style="stroke:#181818;stroke-width:1.0;"/><polygon fill="#181818" points="417.53,512.4675,418.7004,502.6884,416.0567,507.6895,411.0556,505.0457,417.53,512.4675" style="stroke:#181818;stroke-width:1.0;"/><text fill="#000000" font-family="sans-serif" font-size="13" lengthAdjust="spacing" textLength="65" x="407.54" y="479.3126">attachment</text><text fill="#000000" font-family="sans-serif" font-size="13" lengthAdjust="spacing" textLength="22" x="393.1591" y="501.8434">0..1</text></g><!--link CustomerProblem to KnownProblemDescription--><g id="link_CustomerProblem_KnownProblemDescription"><path codeLine="74" d="M250.672,446.3423 C246.642,456.1823 247.54,455.0175 244.54,464.8175 C229.57,513.5575 224.6391,566.665 222.8091,603.325 " fill="none" id="CustomerProblem-KnownProblemDescription" style="stroke:#181818;stroke-width:1.0;"/><polygon fill="#181818" points="255.22,435.2375,249.2444,439.2739,250.672,446.3423,256.6476,442.3059,255.22,435.2375" style="stroke:#181818;stroke-width:1.0;"/><polygon fill="#181818" points="222.51,609.3175,226.9537,600.5281,222.7593,604.3237,218.9637,600.1293,222.51,609.3175" style="stroke:#181818;stroke-width:1.0;"/><text fill="#000000" font-family="sans-serif" font-size="13" lengthAdjust="spacing" textLength="150" x="245.54" y="479.3126">knownProblemDescription</text><text fill="#000000" font-family="sans-serif" font-size="13" lengthAdjust="spacing" textLength="22" x="198.6607" y="598.776">0..1</text></g><!--link CustomerProblemWorkaround to CustomerProblem--><g id="link_CustomerProblemWorkaround_CustomerProblem"><path codeLine="76" d="M595.487,135.7084 C589.187,151.6684 582.16,164.4675 569.54,178.0175 C533.03,217.1975 493.9539,242.9826 448.2039,266.0626 " fill="none" id="CustomerProblemWorkaround-CustomerProblem" style="stroke:#181818;stroke-width:1.0;"/><polygon fill="#181818" points="597.69,130.1275,590.6649,137.0302,595.8542,134.7783,598.1061,139.9676,597.69,130.1275" style="stroke:#181818;stroke-width:1.0;"/><polygon fill="#181818" points="437.49,271.4675,444.6486,272.3363,448.2039,266.0626,441.0453,265.1937,437.49,271.4675" style="stroke:#181818;stroke-width:1.0;"/><text fill="#000000" font-family="sans-serif" font-size="13" lengthAdjust="spacing" textLength="172" x="583.54" y="174.5126">customerProblemWorkaround</text><text fill="#000000" font-family="sans-serif" font-size="13" lengthAdjust="spacing" textLength="22" x="571.798" y="151.407">0..1</text></g><!--link CustomerProblemWorkaround to Attachment--><g id="link_CustomerProblemWorkaround_Attachment"><path codeLine="78" d="M719.3943,106.3136 C843.8543,120.3636 1034.95,150.2975 1080.54,208.0175 C1143.01,287.1175 1139.57,353.1175 1080.54,434.8175 C1014.78,525.8175 691.0507,597.9275 535.2607,628.0775 " fill="none" id="CustomerProblemWorkaround-Attachment" style="stroke:#181818;stroke-width:1.0;"/><polygon fill="#181818" points="707.47,104.9675,712.9834,109.6153,719.3943,106.3136,713.8808,101.6658,707.47,104.9675" style="stroke:#181818;stroke-width:1.0;"/><polygon fill="#181818" points="529.37,629.2175,538.9661,631.4346,534.2789,628.2675,537.446,623.5803,529.37,629.2175" style="stroke:#181818;stroke-width:1.0;"/><text fill="#000000" font-family="sans-serif" font-size="13" lengthAdjust="spacing" textLength="72" x="1126.54" y="326.9126">attachement</text><text fill="#000000" font-family="sans-serif" font-size="13" lengthAdjust="spacing" textLength="22" x="537.0575" y="624.7508">0..1</text></g><!--link CustomerProblemWorkaround to KnownProblemDescription--><g id="link_CustomerProblemWorkaround_KnownProblemDescription"><path codeLine="80" d="M503.7669,103.8655 C371.6869,116.4255 154.33,145.8975 104.54,208.0175 C6,330.9575 127.1271,520.0522 186.8171,599.7622 " fill="none" id="CustomerProblemWorkaround-KnownProblemDescription" style="stroke:#181818;stroke-width:1.0;"/><polygon fill="#181818" points="509.74,103.2975,500.4018,100.1675,504.7625,103.7708,501.1591,108.1315,509.74,103.2975" style="stroke:#181818;stroke-width:1.0;"/><polygon fill="#181818" points="194.01,609.3675,193.6154,602.1672,186.8171,599.7622,187.2118,606.9624,194.01,609.3675" style="stroke:#181818;stroke-width:1.0;"/><text fill="#000000" font-family="sans-serif" font-size="13" lengthAdjust="spacing" textLength="72" x="105.54" y="326.9126">attachement</text><text fill="#000000" font-family="sans-serif" font-size="13" lengthAdjust="spacing" textLength="22" x="480.0197" y="100.8539">0..1</text></g><!--link CustomerProblem to CustomerProblemTask--><g id="link_CustomerProblem_CustomerProblemTask"><path codeLine="82" d="M410.432,200.2242 C421.372,191.2842 423.91,191.1175 436.54,185.4175 C516.14,149.4975 788.93,152.9975 895.54,208.0175 C921.44,221.3875 939.3561,240.5603 955.0261,263.1103 " fill="none" id="CustomerProblem-CustomerProblemTask" style="stroke:#181818;stroke-width:1.0;"/><polygon fill="#181818" points="401.14,207.8175,408.3171,207.1182,410.432,200.2242,403.2549,200.9235,401.14,207.8175" style="stroke:#181818;stroke-width:1.0;"/><polygon fill="#181818" points="958.45,268.0375,956.5989,258.3642,955.5968,263.9315,950.0294,262.9293,958.45,268.0375" style="stroke:#181818;stroke-width:1.0;"/><text fill="#000000" font-family="sans-serif" font-size="13" lengthAdjust="spacing" textLength="130" x="437.54" y="174.5126">customerProblemTask</text><text fill="#000000" font-family="sans-serif" font-size="13" lengthAdjust="spacing" textLength="22" x="931.1853" y="257.6904">0..1</text></g><!--link CustomerProblem to CloseCustomerProblemSummary--><g id="link_CustomerProblem_CloseCustomerProblemSummary"><path codeLine="84" d="M449.27,321.4175 C519.83,321.4175 590.11,321.4175 658.22,321.4175 " fill="none" id="CustomerProblem-CloseCustomerProblemSummary" style="stroke:#181818;stroke-width:1.0;"/><polygon fill="#181818" points="437.27,321.4175,443.27,325.4175,449.27,321.4175,443.27,317.4175,437.27,321.4175" style="stroke:#181818;stroke-width:1.0;"/><polygon fill="#181818" points="664.22,321.4175,655.22,317.4175,659.22,321.4175,655.22,325.4175,664.22,321.4175" style="stroke:#181818;stroke-width:1.0;"/><text fill="#000000" font-family="sans-serif" font-size="13" lengthAdjust="spacing" textLength="191" x="455.29" y="314.9126">closeCustomerProblemSummary</text><text fill="#000000" font-family="sans-serif" font-size="13" lengthAdjust="spacing" textLength="22" x="634.6401" y="335.4365">0..1</text></g><rect fill="#DDDDDD" height="27.6094" id="_legend" rx="7.5" ry="7.5" style="stroke:#000000;stroke-width:1.0;" width="123" x="534.77" y="795.3488"/><a href="index.htm" target="_top" title="index.htm" xlink:actuate="onRequest" xlink:href="index.htm" xlink:show="new" xlink:title="index.htm" xlink:type="simple"><text fill="#0000FF" font-family="sans-serif" font-size="14" lengthAdjust="spacing" text-decoration="underline" textLength="113" x="539.77" y="814.882">Go to API Catalog</text></a></g></svg>