<?xml version="1.0" encoding="UTF-8" standalone="no"?><svg xmlns="http://www.w3.org/2000/svg" xmlns:xlink="http://www.w3.org/1999/xlink" contentScriptType="application/ecmascript" contentStyleType="text/css" height="319px" preserveAspectRatio="none" style="width:569px;height:319px;" version="1.1" viewBox="0 0 569 319" width="569px" zoomAndPan="magnify"><defs><filter height="300%" id="flbhhq581hwpq" width="300%" x="-1" y="-1"><feGaussianBlur result="blurOut" stdDeviation="2.0"/><feColorMatrix in="blurOut" result="blurOut2" type="matrix" values="0 0 0 0 0 0 0 0 0 0 0 0 0 0 0 0 0 0 .4 0"/><feOffset dx="4.0" dy="4.0" in="blurOut2" result="blurOut3"/><feBlend in="SourceGraphic" in2="blurOut3" mode="normal"/></filter></defs><g><!--class DataFilterMap--><rect fill="#FFFFFF" filter="url(#flbhhq581hwpq)" height="74.6016" id="DataFilterMap" style="stroke: #A80036; stroke-width: 1.5;" width="124" x="6" y="206.2"/><text fill="#000000" font-family="sans-serif" font-size="12" lengthAdjust="spacingAndGlyphs" textLength="76" x="30" y="223.657">DataFilterMap</text><line style="stroke: #A80036; stroke-width: 1.5;" x1="7" x2="129" y1="231.2938" y2="231.2938"/><text fill="#000000" font-family="sans-serif" font-size="11" lengthAdjust="spacingAndGlyphs" textLength="96" x="12" y="246.7127">@baseType : String</text><text fill="#000000" font-family="sans-serif" font-size="11" lengthAdjust="spacingAndGlyphs" textLength="112" x="12" y="260.5486">@schemaLocation : Uri</text><text fill="#000000" font-family="sans-serif" font-size="11" lengthAdjust="spacingAndGlyphs" textLength="69" x="12" y="274.3846">@type : String</text><!--class DataFilterMapItem--><rect fill="#FCF2E3" filter="url(#flbhhq581hwpq)" height="33.0938" id="DataFilterMapItem" style="stroke: #A80036; stroke-width: 1.5;" width="106" x="198" y="28"/><text fill="#000000" font-family="sans-serif" font-size="12" lengthAdjust="spacingAndGlyphs" textLength="100" x="201" y="45.457">DataFilterMapItem</text><line style="stroke: #A80036; stroke-width: 1.5;" x1="199" x2="303" y1="53.0938" y2="53.0938"/><!--class DataFilterTemplate--><rect fill="#FCF2E3" filter="url(#flbhhq581hwpq)" height="129.9453" id="DataFilterTemplate" style="stroke: #A80036; stroke-width: 1.5;" width="124" x="189" y="179"/><text fill="#000000" font-family="sans-serif" font-size="12" lengthAdjust="spacingAndGlyphs" textLength="105" x="198.5" y="196.457">DataFilterTemplate</text><line style="stroke: #A80036; stroke-width: 1.5;" x1="190" x2="312" y1="204.0938" y2="204.0938"/><text fill="#000000" font-family="sans-serif" font-size="11" lengthAdjust="spacingAndGlyphs" textLength="90" x="195" y="219.5127">description : String</text><text fill="#000000" font-family="sans-serif" font-size="11" lengthAdjust="spacingAndGlyphs" textLength="42" x="195" y="233.3486">href : Uri</text><text fill="#000000" font-family="sans-serif" font-size="11" lengthAdjust="spacingAndGlyphs" textLength="45" x="195" y="247.1846">id : String</text><text fill="#000000" font-family="sans-serif" font-size="11" lengthAdjust="spacingAndGlyphs" textLength="63" x="195" y="261.0205">name : String</text><text fill="#000000" font-family="sans-serif" font-size="11" lengthAdjust="spacingAndGlyphs" textLength="96" x="195" y="274.8564">@baseType : String</text><text fill="#000000" font-family="sans-serif" font-size="11" lengthAdjust="spacingAndGlyphs" textLength="112" x="195" y="288.6924">@schemaLocation : Uri</text><text fill="#000000" font-family="sans-serif" font-size="11" lengthAdjust="spacingAndGlyphs" textLength="69" x="195" y="302.5283">@type : String</text><!--class DataFilterAttributeStringArray--><rect fill="#FCF2E3" filter="url(#flbhhq581hwpq)" height="46.9297" id="DataFilterAttributeStringArray" style="stroke: #A80036; stroke-width: 1.5;" width="162" x="396" y="220.5"/><text fill="#000000" font-family="sans-serif" font-size="12" lengthAdjust="spacingAndGlyphs" textLength="156" x="399" y="237.957">DataFilterAttributeStringArray</text><line style="stroke: #A80036; stroke-width: 1.5;" x1="397" x2="557" y1="245.5938" y2="245.5938"/><text fill="#000000" font-family="sans-serif" font-size="11" lengthAdjust="spacingAndGlyphs" textLength="55" x="402" y="261.0127">value : Any</text><!--link DataFilterMapItem to DataFilterAttributeStringArray--><path d="M284.28,69.19 C300.78,81.28 320.8,96.47 338,111 C376.31,143.36 417.77,183.29 445.35,210.6 " fill="none" id="DataFilterMapItem-DataFilterAttributeStringArray" style="stroke: #A80036; stroke-width: 1.0;"/><polygon fill="#A80036" points="454.48,219.69,450.923,210.5059,450.9362,216.1627,445.2794,216.1759,454.48,219.69" style="stroke: #A80036; stroke-width: 1.0;"/><line style="stroke: #A80036; stroke-width: 1.0;" x1="450.9362" x2="445.27" y1="216.1627" y2="210.525"/><polygon fill="#A80036" points="274.2,61.88,276.7074,68.6411,283.9128,68.9271,281.4054,62.1659,274.2,61.88" style="stroke: #A80036; stroke-width: 1.0;"/><text fill="#000000" font-family="sans-serif" font-size="13" lengthAdjust="spacingAndGlyphs" textLength="63" x="358" y="125.4951">stringArray</text><text fill="#000000" font-family="sans-serif" font-size="13" lengthAdjust="spacingAndGlyphs" textLength="22" x="424.4363" y="209.5282">0..1</text><!--link DataFilterMapItem to DataFilterTemplate--><path d="M251,75.32 C251,99.12 251,133.56 251,165.01 " fill="none" id="DataFilterMapItem-DataFilterTemplate" style="stroke: #A80036; stroke-width: 1.0;"/><polygon fill="#A80036" points="251,177.69,255,168.69,251,172.69,247,168.69,251,177.69" style="stroke: #A80036; stroke-width: 1.0;"/><line style="stroke: #A80036; stroke-width: 1.0;" x1="251" x2="251" y1="172.69" y2="164.69"/><polygon fill="#A80036" points="251,62.47,247,68.47,251,74.47,255,68.47,251,62.47" style="stroke: #A80036; stroke-width: 1.0;"/><text fill="#000000" font-family="sans-serif" font-size="13" lengthAdjust="spacingAndGlyphs" textLength="77" x="252" y="125.4951">filterTemplate</text><text fill="#000000" font-family="sans-serif" font-size="13" lengthAdjust="spacingAndGlyphs" textLength="22" x="227.7281" y="168.3011">0..1</text><!--link DataFilterMapItem to DataFilterMap--><path d="M224.93,70.64 C212.64,82.68 197.88,97.4 185,111 C159.1,138.35 131.02,169.85 108.86,195.16 " fill="none" id="DataFilterMapItem-DataFilterMap" style="stroke: #A80036; stroke-width: 1.0;"/><polygon fill="#A80036" points="100.43,204.82,107.3878,202.9256,108.3152,195.7744,101.3574,197.6688,100.43,204.82" style="stroke: #A80036; stroke-width: 1.0;"/><polygon fill="#A80036" points="233.9,61.9,224.6617,65.3138,230.3181,65.3885,230.2434,71.0449,233.9,61.9" style="stroke: #A80036; stroke-width: 1.0;"/><line style="stroke: #A80036; stroke-width: 1.0;" x1="230.3181" x2="224.585" y1="65.3885" y2="70.97"/><text fill="#000000" font-family="sans-serif" font-size="13" lengthAdjust="spacingAndGlyphs" textLength="56" x="186" y="125.4951">mappings</text><text fill="#000000" font-family="sans-serif" font-size="13" lengthAdjust="spacingAndGlyphs" textLength="20" x="169.4725" y="73.1832">0..*</text></g></svg>