<?xml version="1.0" encoding="us-ascii" standalone="no"?><svg xmlns="http://www.w3.org/2000/svg" xmlns:xlink="http://www.w3.org/1999/xlink" contentStyleType="text/css" height="397px" preserveAspectRatio="none" style="width:592px;height:397px;background:#FFFFFF;" version="1.1" viewBox="0 0 592 397" width="592px" zoomAndPan="magnify"><defs/><g><text fill="#888888" font-family="sans-serif" font-size="10" lengthAdjust="spacing" textLength="148" x="430" y="10.3809">Diagram generated at 12/22/23</text><text fill="#000000" font-family="sans-serif" font-size="14" font-weight="bold" lengthAdjust="spacing" textLength="192" x="193" y="38.1113">TMF Schema Class Diagram</text><!--class DataFilterMap--><g id="elem_DataFilterMap"><rect codeLine="20" fill="#FFFFFF" height="103.5313" id="DataFilterMap" rx="2.5" ry="2.5" style="stroke:#181818;stroke-width:0.5;" width="158" x="7" y="200.4675"/><text fill="#000000" font-family="sans-serif" font-size="12" font-style="italic" lengthAdjust="spacing" textLength="41" x="65.5" y="217.9245">&#171;Pivot&#187;</text><text fill="#000000" font-family="sans-serif" font-size="14" lengthAdjust="spacing" textLength="89" x="41.5" y="235.0945">DataFilterMap</text><line style="stroke:#181818;stroke-width:0.5;" x1="8" x2="164" y1="243.1706" y2="243.1706"/><text fill="#000000" font-family="sans-serif" font-size="14" lengthAdjust="spacing" textLength="126" x="13" y="261.7038">@baseType : String</text><text fill="#000000" font-family="sans-serif" font-size="14" lengthAdjust="spacing" textLength="146" x="13" y="279.3132">@schemaLocation : Uri</text><text fill="#000000" font-family="sans-serif" font-size="14" lengthAdjust="spacing" textLength="90" x="13" y="296.9226">@type : String</text></g><!--class DataFilterMapItem--><g id="elem_DataFilterMapItem"><rect codeLine="26" fill="#FCF2E3" height="35.6094" id="DataFilterMapItem" rx="2.5" ry="2.5" style="stroke:#181818;stroke-width:0.5;" width="121" x="218.5" y="59.1875"/><text fill="#000000" font-family="sans-serif" font-size="14" lengthAdjust="spacing" textLength="115" x="221.5" y="78.7207">DataFilterMapItem</text><line style="stroke:#181818;stroke-width:0.5;" x1="219.5" x2="338.5" y1="86.7969" y2="86.7969"/></g><!--class DataFilterTemplate--><g id="elem_DataFilterTemplate"><rect codeLine="30" fill="#FCF2E3" height="158.875" id="DataFilterTemplate" rx="2.5" ry="2.5" style="stroke:#181818;stroke-width:0.5;" width="158" x="200" y="172.7975"/><text fill="#000000" font-family="sans-serif" font-size="14" lengthAdjust="spacing" textLength="121" x="218.5" y="192.3307">DataFilterTemplate</text><line style="stroke:#181818;stroke-width:0.5;" x1="201" x2="357" y1="200.4069" y2="200.4069"/><text fill="#000000" font-family="sans-serif" font-size="14" lengthAdjust="spacing" textLength="118" x="206" y="218.9401">description : String</text><text fill="#000000" font-family="sans-serif" font-size="14" lengthAdjust="spacing" textLength="54" x="206" y="236.5495">href : Uri</text><text fill="#000000" font-family="sans-serif" font-size="14" lengthAdjust="spacing" textLength="60" x="206" y="254.1588">id : String</text><text fill="#000000" font-family="sans-serif" font-size="14" lengthAdjust="spacing" textLength="84" x="206" y="271.7682">name : String</text><text fill="#000000" font-family="sans-serif" font-size="14" lengthAdjust="spacing" textLength="126" x="206" y="289.3776">@baseType : String</text><text fill="#000000" font-family="sans-serif" font-size="14" lengthAdjust="spacing" textLength="146" x="206" y="306.987">@schemaLocation : Uri</text><text fill="#000000" font-family="sans-serif" font-size="14" lengthAdjust="spacing" textLength="90" x="206" y="324.5963">@type : String</text></g><!--class DataFilterAttributeStringArray--><g id="elem_DataFilterAttributeStringArray"><rect codeLine="40" fill="#FCF2E3" height="53.2188" id="DataFilterAttributeStringArray" rx="2.5" ry="2.5" style="stroke:#181818;stroke-width:0.5;" width="192" x="393" y="225.6175"/><text fill="#000000" font-family="sans-serif" font-size="14" lengthAdjust="spacing" textLength="186" x="396" y="245.1507">DataFilterAttributeStringArray</text><line style="stroke:#181818;stroke-width:0.5;" x1="394" x2="584" y1="253.2269" y2="253.2269"/><text fill="#000000" font-family="sans-serif" font-size="14" lengthAdjust="spacing" textLength="70" x="399" y="271.7601">value : Any</text></g><!--link DataFilterMapItem to DataFilterAttributeStringArray--><g id="link_DataFilterMapItem_DataFilterAttributeStringArray"><path codeLine="44" d="M327.6368,100.6065 C343.4768,108.5865 350.94,113.4275 366,124.7975 C405.85,154.8575 440.9492,193.313 463.9992,220.613 " fill="none" id="DataFilterMapItem-DataFilterAttributeStringArray" style="stroke:#181818;stroke-width:1.0;"/><polygon fill="#181818" points="316.92,95.2075,320.4787,101.4793,327.6368,100.6065,324.0781,94.3347,316.92,95.2075" style="stroke:#181818;stroke-width:1.0;"/><polygon fill="#181818" points="467.87,225.1975,465.1202,215.7403,464.6444,221.3771,459.0076,220.9013,467.87,225.1975" style="stroke:#181818;stroke-width:1.0;"/><text fill="#000000" font-family="sans-serif" font-size="13" lengthAdjust="spacing" textLength="63" x="385" y="139.2926">stringArray</text><text fill="#000000" font-family="sans-serif" font-size="13" lengthAdjust="spacing" textLength="22" x="438.4399" y="214.6327">0..1</text></g><!--link DataFilterMapItem to DataFilterTemplate--><g id="link_DataFilterMapItem_DataFilterTemplate"><path codeLine="46" d="M279,107.2275 C279,125.4575 279,137.5175 279,166.4175 " fill="none" id="DataFilterMapItem-DataFilterTemplate" style="stroke:#181818;stroke-width:1.0;"/><polygon fill="#181818" points="279,95.2275,275,101.2275,279,107.2275,283,101.2275,279,95.2275" style="stroke:#181818;stroke-width:1.0;"/><polygon fill="#181818" points="279,172.4175,283,163.4175,279,167.4175,275,163.4175,279,172.4175" style="stroke:#181818;stroke-width:1.0;"/><text fill="#000000" font-family="sans-serif" font-size="13" lengthAdjust="spacing" textLength="77" x="280" y="139.2926">filterTemplate</text><text fill="#000000" font-family="sans-serif" font-size="13" lengthAdjust="spacing" textLength="22" x="255.9859" y="161.8331">0..1</text></g><!--link DataFilterMapItem to DataFilterMap--><g id="link_DataFilterMapItem_DataFilterMap"><path codeLine="48" d="M247.5937,98.6391 C235.2237,107.0791 225.46,114.2975 213,124.7975 C185.4,148.0475 165.0822,167.5712 141.9922,191.3912 " fill="none" id="DataFilterMapItem-DataFilterMap" style="stroke:#181818;stroke-width:1.0;"/><polygon fill="#181818" points="252.55,95.2575,242.8612,97.0258,248.4198,98.0755,247.37,103.6341,252.55,95.2575" style="stroke:#181818;stroke-width:1.0;"/><polygon fill="#181818" points="133.64,200.0075,140.6882,198.4834,141.9922,191.3912,134.944,192.9153,133.64,200.0075" style="stroke:#181818;stroke-width:1.0;"/><text fill="#000000" font-family="sans-serif" font-size="13" lengthAdjust="spacing" textLength="56" x="214" y="139.2926">mappings</text><text fill="#000000" font-family="sans-serif" font-size="13" lengthAdjust="spacing" textLength="20" x="222.2984" y="116.1892">0..*</text></g><rect fill="#DDDDDD" height="27.6094" id="_legend" rx="7.5" ry="7.5" style="stroke:#000000;stroke-width:1.0;" width="123" x="227.5" y="349.6725"/><a href="index.htm" target="_top" title="index.htm" xlink:actuate="onRequest" xlink:href="index.htm" xlink:show="new" xlink:title="index.htm" xlink:type="simple"><text fill="#0000FF" font-family="sans-serif" font-size="14" lengthAdjust="spacing" text-decoration="underline" textLength="113" x="232.5" y="369.2057">Go to API Catalog</text></a></g></svg>