<?xml version="1.0" encoding="UTF-8" standalone="no"?><svg xmlns="http://www.w3.org/2000/svg" xmlns:xlink="http://www.w3.org/1999/xlink" contentScriptType="application/ecmascript" contentStyleType="text/css" height="1147px" preserveAspectRatio="none" style="width:949px;height:1147px;" version="1.1" viewBox="0 0 949 1147" width="949px" zoomAndPan="magnify"><defs><filter height="300%" id="f15jlzf34gwy78" width="300%" x="-1" y="-1"><feGaussianBlur result="blurOut" stdDeviation="2.0"/><feColorMatrix in="blurOut" result="blurOut2" type="matrix" values="0 0 0 0 0 0 0 0 0 0 0 0 0 0 0 0 0 0 .4 0"/><feOffset dx="4.0" dy="4.0" in="blurOut2" result="blurOut3"/><feBlend in="SourceGraphic" in2="blurOut3" mode="normal"/></filter></defs><g><!--class DistributedLedger--><rect fill="#FFFFFF" filter="url(#f15jlzf34gwy78)" height="158.875" id="DistributedLedger" style="stroke: #A80036; stroke-width: 1.5;" width="176" x="148" y="255.13"/><text fill="#000000" font-family="sans-serif" font-size="12" lengthAdjust="spacingAndGlyphs" textLength="99" x="186.5" y="272.587">DistributedLedger</text><text fill="#000000" font-family="sans-serif" font-size="12" lengthAdjust="spacingAndGlyphs" textLength="4" x="151" y="287.6808">(</text><text fill="#000000" font-family="sans-serif" font-size="9" font-style="italic" lengthAdjust="spacingAndGlyphs" textLength="17" x="155" y="288.34">from</text><a target="_top" xlink:actuate="onRequest" xlink:href="TMF695.svg" xlink:show="new" xlink:title="TMF695.svg" xlink:type="simple"><text fill="#0000FF" font-family="sans-serif" font-size="9" font-style="italic" lengthAdjust="spacingAndGlyphs" text-decoration="underline" textLength="114" x="175" y="288.34">TMF695-Distributed Ledger</text><line style="stroke: #0000FF; stroke-width: 1.0;" x1="175" x2="289" y1="290.34" y2="290.34"/></a><text fill="#000000" font-family="sans-serif" font-size="9" font-style="italic" lengthAdjust="spacingAndGlyphs" textLength="26" x="292" y="288.34">v4.0.0</text><text fill="#000000" font-family="sans-serif" font-size="9" lengthAdjust="spacingAndGlyphs" textLength="3" x="318" y="288.34">)</text><line style="stroke: #A80036; stroke-width: 1.5;" x1="149" x2="323" y1="295.3175" y2="295.3175"/><text fill="#000000" font-family="sans-serif" font-size="11" lengthAdjust="spacingAndGlyphs" textLength="114" x="154" y="310.7364">creationDate : DateTime</text><text fill="#000000" font-family="sans-serif" font-size="11" lengthAdjust="spacingAndGlyphs" textLength="90" x="154" y="324.5724">description : String</text><text fill="#000000" font-family="sans-serif" font-size="11" lengthAdjust="spacingAndGlyphs" textLength="57" x="154" y="338.4083">href : String</text><text fill="#000000" font-family="sans-serif" font-size="11" lengthAdjust="spacingAndGlyphs" textLength="45" x="154" y="352.2443">id : String</text><text fill="#000000" font-family="sans-serif" font-size="11" lengthAdjust="spacingAndGlyphs" textLength="104" x="154" y="366.0802">lastUpdate : DateTime</text><text fill="#000000" font-family="sans-serif" font-size="11" lengthAdjust="spacingAndGlyphs" textLength="102" x="154" y="379.9161">lifecycleState : String</text><text fill="#000000" font-family="sans-serif" font-size="11" lengthAdjust="spacingAndGlyphs" textLength="63" x="154" y="393.7521">name : String</text><text fill="#000000" font-family="sans-serif" font-size="11" lengthAdjust="spacingAndGlyphs" textLength="73" x="154" y="407.588">version : String</text><!--class DocumentSpecification--><rect fill="#FCF2E3" filter="url(#f15jlzf34gwy78)" height="102.2734" id="DocumentSpecification" style="stroke: #A80036; stroke-width: 1.5;" width="133" x="515.5" y="283.56"/><text fill="#000000" font-family="sans-serif" font-size="12" lengthAdjust="spacingAndGlyphs" textLength="127" x="518.5" y="301.017">DocumentSpecification</text><line style="stroke: #A80036; stroke-width: 1.5;" x1="516.5" x2="647.5" y1="308.6537" y2="308.6537"/><text fill="#000000" font-family="sans-serif" font-size="11" lengthAdjust="spacingAndGlyphs" textLength="57" x="521.5" y="324.0727">URL : String</text><text fill="#000000" font-family="sans-serif" font-size="11" lengthAdjust="spacingAndGlyphs" textLength="57" x="521.5" y="337.9086">href : String</text><text fill="#000000" font-family="sans-serif" font-size="11" lengthAdjust="spacingAndGlyphs" textLength="45" x="521.5" y="351.7446">id : String</text><text fill="#000000" font-family="sans-serif" font-size="11" lengthAdjust="spacingAndGlyphs" textLength="63" x="521.5" y="365.5805">name : String</text><text fill="#000000" font-family="sans-serif" font-size="11" lengthAdjust="spacingAndGlyphs" textLength="73" x="521.5" y="379.4164">version : String</text><!--class Characteristic--><rect fill="#FCF2E3" filter="url(#f15jlzf34gwy78)" height="129.9453" id="Characteristic" style="stroke: #A80036; stroke-width: 1.5;" width="124" x="353" y="512"/><text fill="#000000" font-family="sans-serif" font-size="12" lengthAdjust="spacingAndGlyphs" textLength="76" x="377" y="529.457">Characteristic</text><line style="stroke: #A80036; stroke-width: 1.5;" x1="354" x2="476" y1="537.0938" y2="537.0938"/><text fill="#000000" font-family="sans-serif" font-size="11" lengthAdjust="spacingAndGlyphs" textLength="45" x="359" y="552.5127">id : String</text><text fill="#000000" font-family="sans-serif" font-size="11" lengthAdjust="spacingAndGlyphs" textLength="63" x="359" y="566.3486">name : String</text><text fill="#000000" font-family="sans-serif" font-size="11" lengthAdjust="spacingAndGlyphs" textLength="55" x="359" y="580.1846">value : Any</text><text fill="#000000" font-family="sans-serif" font-size="11" lengthAdjust="spacingAndGlyphs" textLength="87" x="359" y="594.0205">valueType : String</text><text fill="#000000" font-family="sans-serif" font-size="11" lengthAdjust="spacingAndGlyphs" textLength="96" x="359" y="607.8564">@baseType : String</text><text fill="#000000" font-family="sans-serif" font-size="11" lengthAdjust="spacingAndGlyphs" textLength="112" x="359" y="621.6924">@schemaLocation : Uri</text><text fill="#000000" font-family="sans-serif" font-size="11" lengthAdjust="spacingAndGlyphs" textLength="69" x="359" y="635.5283">@type : String</text><!--class CharacteristicRelationship--><rect fill="#FFFFE0" filter="url(#f15jlzf34gwy78)" height="116.1094" id="CharacteristicRelationship" style="stroke: #A80036; stroke-width: 1.5;" width="171" x="557.5" y="779.5"/><a target="_top" xlink:actuate="onRequest" xlink:href="CharacteristicRelationship.svg" xlink:show="new" xlink:title="CharacteristicRelationship.svg" xlink:type="simple"><text fill="#0000FF" font-family="sans-serif" font-size="12" lengthAdjust="spacingAndGlyphs" text-decoration="underline" textLength="146" x="560.5" y="796.957">CharacteristicRelationship</text><line style="stroke: #0000FF; stroke-width: 1.0;" x1="560.5" x2="706.5" y1="798.957" y2="798.957"/></a><text fill="#000000" font-family="sans-serif" font-size="12" lengthAdjust="spacingAndGlyphs" textLength="19" x="706.5" y="796.957">Ref</text><line style="stroke: #A80036; stroke-width: 1.5;" x1="558.5" x2="727.5" y1="804.5938" y2="804.5938"/><text fill="#000000" font-family="sans-serif" font-size="11" lengthAdjust="spacingAndGlyphs" textLength="42" x="563.5" y="820.0127">href : Uri</text><text fill="#000000" font-family="sans-serif" font-size="11" lengthAdjust="spacingAndGlyphs" textLength="45" x="563.5" y="833.8486">id : String</text><text fill="#000000" font-family="sans-serif" font-size="11" lengthAdjust="spacingAndGlyphs" textLength="116" x="563.5" y="847.6846">relationshipType : String</text><text fill="#000000" font-family="sans-serif" font-size="11" lengthAdjust="spacingAndGlyphs" textLength="96" x="563.5" y="861.5205">@baseType : String</text><text fill="#000000" font-family="sans-serif" font-size="11" lengthAdjust="spacingAndGlyphs" textLength="112" x="563.5" y="875.3564">@schemaLocation : Uri</text><text fill="#000000" font-family="sans-serif" font-size="11" lengthAdjust="spacingAndGlyphs" textLength="69" x="563.5" y="889.1924">@type : String</text><!--class DLDataFabric--><rect fill="#FCF2E3" filter="url(#f15jlzf34gwy78)" height="129.9453" id="DLDataFabric" style="stroke: #A80036; stroke-width: 1.5;" width="106" x="690" y="28.13"/><text fill="#000000" font-family="sans-serif" font-size="12" lengthAdjust="spacingAndGlyphs" textLength="76" x="705" y="45.587">DLDataFabric</text><line style="stroke: #A80036; stroke-width: 1.5;" x1="691" x2="795" y1="53.2238" y2="53.2238"/><text fill="#000000" font-family="sans-serif" font-size="11" lengthAdjust="spacingAndGlyphs" textLength="90" x="696" y="68.6427">description : String</text><text fill="#000000" font-family="sans-serif" font-size="11" lengthAdjust="spacingAndGlyphs" textLength="57" x="696" y="82.4786">href : String</text><text fill="#000000" font-family="sans-serif" font-size="11" lengthAdjust="spacingAndGlyphs" textLength="45" x="696" y="96.3146">id : String</text><text fill="#000000" font-family="sans-serif" font-size="11" lengthAdjust="spacingAndGlyphs" textLength="94" x="696" y="110.1505">keyQualifier : String</text><text fill="#000000" font-family="sans-serif" font-size="11" lengthAdjust="spacingAndGlyphs" textLength="63" x="696" y="123.9864">name : String</text><text fill="#000000" font-family="sans-serif" font-size="11" lengthAdjust="spacingAndGlyphs" textLength="49" x="696" y="137.8224">url : String</text><text fill="#000000" font-family="sans-serif" font-size="11" lengthAdjust="spacingAndGlyphs" textLength="69" x="696" y="151.6583">@type : String</text><!--class PartyRoleRef--><rect fill="#FFFFE0" filter="url(#f15jlzf34gwy78)" height="157.6172" id="PartyRoleRef" style="stroke: #A80036; stroke-width: 1.5;" width="124" x="812" y="759"/><a target="_top" xlink:actuate="onRequest" xlink:href="PartyRole.svg" xlink:show="new" xlink:title="PartyRole.svg" xlink:type="simple"><text fill="#0000FF" font-family="sans-serif" font-size="12" lengthAdjust="spacingAndGlyphs" text-decoration="underline" textLength="53" x="838" y="776.457">PartyRole</text><line style="stroke: #0000FF; stroke-width: 1.0;" x1="838" x2="891" y1="778.457" y2="778.457"/></a><text fill="#000000" font-family="sans-serif" font-size="12" lengthAdjust="spacingAndGlyphs" textLength="19" x="891" y="776.457">Ref</text><line style="stroke: #A80036; stroke-width: 1.5;" x1="813" x2="935" y1="784.0938" y2="784.0938"/><text fill="#000000" font-family="sans-serif" font-size="11" lengthAdjust="spacingAndGlyphs" textLength="57" x="818" y="799.5127">href : String</text><text fill="#000000" font-family="sans-serif" font-size="11" lengthAdjust="spacingAndGlyphs" textLength="45" x="818" y="813.3486">id : String</text><text fill="#000000" font-family="sans-serif" font-size="11" lengthAdjust="spacingAndGlyphs" textLength="63" x="818" y="827.1846">name : String</text><text fill="#000000" font-family="sans-serif" font-size="11" lengthAdjust="spacingAndGlyphs" textLength="70" x="818" y="841.0205">partyId : String</text><text fill="#000000" font-family="sans-serif" font-size="11" lengthAdjust="spacingAndGlyphs" textLength="89" x="818" y="854.8564">partyName : String</text><text fill="#000000" font-family="sans-serif" font-size="11" lengthAdjust="spacingAndGlyphs" textLength="96" x="818" y="868.6924">@baseType : String</text><text fill="#000000" font-family="sans-serif" font-size="11" lengthAdjust="spacingAndGlyphs" textLength="112" x="818" y="882.5283">@referredType : String</text><text fill="#000000" font-family="sans-serif" font-size="11" lengthAdjust="spacingAndGlyphs" textLength="112" x="818" y="896.3643">@schemaLocation : Uri</text><text fill="#000000" font-family="sans-serif" font-size="11" lengthAdjust="spacingAndGlyphs" textLength="69" x="818" y="910.2002">@type : String</text><!--class DLExchange--><rect fill="#FCF2E3" filter="url(#f15jlzf34gwy78)" height="129.9453" id="DLExchange" style="stroke: #A80036; stroke-width: 1.5;" width="138" x="336" y="773"/><text fill="#000000" font-family="sans-serif" font-size="12" lengthAdjust="spacingAndGlyphs" textLength="70" x="370" y="790.457">DLExchange</text><line style="stroke: #A80036; stroke-width: 1.5;" x1="337" x2="473" y1="798.0938" y2="798.0938"/><text fill="#000000" font-family="sans-serif" font-size="11" lengthAdjust="spacingAndGlyphs" textLength="99" x="342" y="813.5127">currencyPair : String</text><text fill="#000000" font-family="sans-serif" font-size="11" lengthAdjust="spacingAndGlyphs" textLength="90" x="342" y="827.3486">description : String</text><text fill="#000000" font-family="sans-serif" font-size="11" lengthAdjust="spacingAndGlyphs" textLength="126" x="342" y="841.1846">fixedExchangeRate : Float</text><text fill="#000000" font-family="sans-serif" font-size="11" lengthAdjust="spacingAndGlyphs" textLength="57" x="342" y="855.0205">href : String</text><text fill="#000000" font-family="sans-serif" font-size="11" lengthAdjust="spacingAndGlyphs" textLength="45" x="342" y="868.8564">id : String</text><text fill="#000000" font-family="sans-serif" font-size="11" lengthAdjust="spacingAndGlyphs" textLength="63" x="342" y="882.6924">name : String</text><text fill="#000000" font-family="sans-serif" font-size="11" lengthAdjust="spacingAndGlyphs" textLength="69" x="342" y="896.5283">@type : String</text><!--class DLExchangeRate--><rect fill="#FCF2E3" filter="url(#f15jlzf34gwy78)" height="102.2734" id="DLExchangeRate" style="stroke: #A80036; stroke-width: 1.5;" width="114" x="348" y="1034"/><text fill="#000000" font-family="sans-serif" font-size="12" lengthAdjust="spacingAndGlyphs" textLength="96" x="357" y="1051.457">DLExchangeRate</text><line style="stroke: #A80036; stroke-width: 1.5;" x1="349" x2="461" y1="1059.0938" y2="1059.0938"/><text fill="#000000" font-family="sans-serif" font-size="11" lengthAdjust="spacingAndGlyphs" textLength="102" x="354" y="1074.5127">exchangeRate : Float</text><text fill="#000000" font-family="sans-serif" font-size="11" lengthAdjust="spacingAndGlyphs" textLength="57" x="354" y="1088.3486">href : String</text><text fill="#000000" font-family="sans-serif" font-size="11" lengthAdjust="spacingAndGlyphs" textLength="45" x="354" y="1102.1846">id : String</text><text fill="#000000" font-family="sans-serif" font-size="11" lengthAdjust="spacingAndGlyphs" textLength="99" x="354" y="1116.0205">validFor : TimePeriod</text><text fill="#000000" font-family="sans-serif" font-size="11" lengthAdjust="spacingAndGlyphs" textLength="69" x="354" y="1129.8564">@type : String</text><!--class DLImplementation--><rect fill="#FCF2E3" filter="url(#f15jlzf34gwy78)" height="116.1094" id="DLImplementation" style="stroke: #A80036; stroke-width: 1.5;" width="108" x="30" y="34.63"/><text fill="#000000" font-family="sans-serif" font-size="12" lengthAdjust="spacingAndGlyphs" textLength="102" x="33" y="52.087">DLImplementation</text><line style="stroke: #A80036; stroke-width: 1.5;" x1="31" x2="137" y1="59.7238" y2="59.7238"/><text fill="#000000" font-family="sans-serif" font-size="11" lengthAdjust="spacingAndGlyphs" textLength="90" x="36" y="75.1427">description : String</text><text fill="#000000" font-family="sans-serif" font-size="11" lengthAdjust="spacingAndGlyphs" textLength="57" x="36" y="88.9786">href : String</text><text fill="#000000" font-family="sans-serif" font-size="11" lengthAdjust="spacingAndGlyphs" textLength="45" x="36" y="102.8146">id : String</text><text fill="#000000" font-family="sans-serif" font-size="11" lengthAdjust="spacingAndGlyphs" textLength="63" x="36" y="116.6505">name : String</text><text fill="#000000" font-family="sans-serif" font-size="11" lengthAdjust="spacingAndGlyphs" textLength="49" x="36" y="130.4864">url : String</text><text fill="#000000" font-family="sans-serif" font-size="11" lengthAdjust="spacingAndGlyphs" textLength="69" x="36" y="144.3224">@type : String</text><!--link DLDataFabric to DistributedLedger--><path d="M677.15,124.79 C590.77,165.67 438.36,237.79 337.26,285.64 " fill="none" id="DLDataFabric-DistributedLedger" style="stroke: #A80036; stroke-width: 1.0;"/><polygon fill="#A80036" points="325.64,291.14,332.7744,292.189,336.4867,286.0069,329.3523,284.9579,325.64,291.14" style="stroke: #A80036; stroke-width: 1.0;"/><polygon fill="#A80036" points="688.81,119.27,678.9639,119.5042,684.2905,121.4088,682.386,126.7354,688.81,119.27" style="stroke: #A80036; stroke-width: 1.0;"/><line style="stroke: #A80036; stroke-width: 1.0;" x1="684.2905" x2="677.055" y1="121.4088" y2="124.83"/><text fill="#000000" font-family="sans-serif" font-size="13" lengthAdjust="spacingAndGlyphs" textLength="61" x="490" y="221.6251">dataFabric</text><text fill="#000000" font-family="sans-serif" font-size="13" lengthAdjust="spacingAndGlyphs" textLength="20" x="662.1312" y="118.382">0..*</text><!--link DLImplementation to DistributedLedger--><path d="M127.65,162.53 C143.5,187.54 161.65,216.19 178.51,242.81 " fill="none" id="DLImplementation-DistributedLedger" style="stroke: #A80036; stroke-width: 1.0;"/><polygon fill="#A80036" points="185.34,253.59,185.5092,246.3809,178.9197,243.452,178.7505,250.6611,185.34,253.59" style="stroke: #A80036; stroke-width: 1.0;"/><polygon fill="#A80036" points="120.83,151.77,122.2716,161.5128,123.5076,155.9926,129.0278,157.2286,120.83,151.77" style="stroke: #A80036; stroke-width: 1.0;"/><line style="stroke: #A80036; stroke-width: 1.0;" x1="123.5076" x2="127.79" y1="155.9926" y2="162.745"/><text fill="#000000" font-family="sans-serif" font-size="13" lengthAdjust="spacingAndGlyphs" textLength="98" x="165" y="221.6251">dlImplementation</text><text fill="#000000" font-family="sans-serif" font-size="13" lengthAdjust="spacingAndGlyphs" textLength="20" x="142.4548" y="172.3509">0..*</text><!--link DistributedLedger to Characteristic--><path d="M303.29,425.76 C321.72,450.47 341.49,476.97 359.2,500.71 " fill="none" id="DistributedLedger-Characteristic" style="stroke: #A80036; stroke-width: 1.0;"/><polygon fill="#A80036" points="366.81,510.91,364.6395,501.3033,363.8223,506.9008,358.2248,506.0836,366.81,510.91" style="stroke: #A80036; stroke-width: 1.0;"/><line style="stroke: #A80036; stroke-width: 1.0;" x1="363.8223" x2="359.04" y1="506.9008" y2="500.49"/><polygon fill="#A80036" points="295.76,415.67,296.1426,422.8709,302.9368,425.2874,302.5542,418.0864,295.76,415.67" style="stroke: #A80036; stroke-width: 1.0;"/><text fill="#000000" font-family="sans-serif" font-size="13" lengthAdjust="spacingAndGlyphs" textLength="78" x="326" y="458.4951">characteristic</text><text fill="#000000" font-family="sans-serif" font-size="13" lengthAdjust="spacingAndGlyphs" textLength="20" x="341.097" y="501.2119">0..*</text><!--link DistributedLedger to DLExchange--><path d="M225.6,428.57 C221.75,495.6 224.16,586.92 254,661 C269.85,700.36 298.3,737.09 326.27,766.68 " fill="none" id="DistributedLedger-DLExchange" style="stroke: #A80036; stroke-width: 1.0;"/><polygon fill="#A80036" points="335.06,775.75,331.6605,766.5064,331.577,772.1627,325.9208,772.0792,335.06,775.75" style="stroke: #A80036; stroke-width: 1.0;"/><line style="stroke: #A80036; stroke-width: 1.0;" x1="331.577" x2="326.015" y1="772.1627" y2="766.42"/><polygon fill="#A80036" points="226.44,415.73,222.0594,421.458,225.6619,427.7047,230.0425,421.9767,226.44,415.73" style="stroke: #A80036; stroke-width: 1.0;"/><text fill="#000000" font-family="sans-serif" font-size="13" lengthAdjust="spacingAndGlyphs" textLength="56" x="255" y="581.9951">exchange</text><text fill="#000000" font-family="sans-serif" font-size="13" lengthAdjust="spacingAndGlyphs" textLength="20" x="307.9855" y="767.2239">0..*</text><!--link DLExchange to PartyRoleRef--><path d="M445.96,761.16 C460.09,742.26 477.8,724.43 499,713.92 C553.19,687.05 715.64,712.49 770,739 C780.76,744.25 791.16,751.01 800.94,758.52 " fill="none" id="DLExchange-PartyRoleRef" style="stroke: #A80036; stroke-width: 1.0;"/><polygon fill="#A80036" points="810.96,766.69,806.5137,757.9019,807.0853,763.5298,801.4574,764.1014,810.96,766.69" style="stroke: #A80036; stroke-width: 1.0;"/><line style="stroke: #A80036; stroke-width: 1.0;" x1="807.0853" x2="800.885" y1="763.5298" y2="758.475"/><polygon fill="#A80036" points="438.5,771.77,445.2229,769.1618,445.401,761.9529,438.6781,764.5611,438.5,771.77" style="stroke: #A80036; stroke-width: 1.0;"/><text fill="#000000" font-family="sans-serif" font-size="13" lengthAdjust="spacingAndGlyphs" textLength="102" x="500" y="705.4951">exchangeProvider</text><text fill="#000000" font-family="sans-serif" font-size="13" lengthAdjust="spacingAndGlyphs" textLength="7" x="797.163" y="755.641">1</text><!--link DLDataFabric to PartyRoleRef--><path d="M792.29,169.44 C806.95,195.58 821.39,225.71 830,255.13 C879.1,422.81 881.99,628.69 878.66,745.01 " fill="none" id="DLDataFabric-PartyRoleRef" style="stroke: #A80036; stroke-width: 1.0;"/><polygon fill="#A80036" points="878.25,757.93,882.5349,749.0621,878.4094,752.9325,874.539,748.807,878.25,757.93" style="stroke: #A80036; stroke-width: 1.0;"/><line style="stroke: #A80036; stroke-width: 1.0;" x1="878.4094" x2="878.665" y1="752.9325" y2="744.935"/><polygon fill="#A80036" points="785.85,158.25,785.3794,165.4457,791.8406,168.6477,792.3112,161.452,785.85,158.25" style="stroke: #A80036; stroke-width: 1.0;"/><text fill="#000000" font-family="sans-serif" font-size="13" lengthAdjust="spacingAndGlyphs" textLength="68" x="869" y="458.4951">fabricOwner</text><text fill="#000000" font-family="sans-serif" font-size="13" lengthAdjust="spacingAndGlyphs" textLength="7" x="871.2832" y="748.0465">1</text><!--link DLDataFabric to Characteristic--><path d="M747.87,171.22 C748.38,240.67 739.24,342.31 690,414 C642.32,483.41 554.23,527.35 490.58,551.58 " fill="none" id="DLDataFabric-Characteristic" style="stroke: #A80036; stroke-width: 1.0;"/><polygon fill="#A80036" points="478.4,556.08,488.229,556.7044,483.0886,554.3431,485.45,549.2026,478.4,556.08" style="stroke: #A80036; stroke-width: 1.0;"/><line style="stroke: #A80036; stroke-width: 1.0;" x1="483.0886" x2="490.6" y1="554.3431" y2="551.575"/><polygon fill="#A80036" points="747.65,158.42,743.7562,164.4895,747.8612,170.4181,751.755,164.3487,747.65,158.42" style="stroke: #A80036; stroke-width: 1.0;"/><text fill="#000000" font-family="sans-serif" font-size="13" lengthAdjust="spacingAndGlyphs" textLength="78" x="743" y="340.0551">characteristic</text><text fill="#000000" font-family="sans-serif" font-size="13" lengthAdjust="spacingAndGlyphs" textLength="20" x="484.9193" y="538.9393">0..*</text><!--link Characteristic to DLExchange--><path d="M412.01,654.96 C410.74,687.89 409.26,726.2 407.99,759.12 " fill="none" id="Characteristic-DLExchange" style="stroke: #A80036; stroke-width: 1.0;"/><polygon fill="#A80036" points="407.5,771.83,411.7279,765.9883,407.9617,759.8389,403.7338,765.6805,407.5,771.83" style="stroke: #A80036; stroke-width: 1.0;"/><polygon fill="#A80036" points="412.5,642.37,408.1567,651.2094,412.3076,647.3663,416.1508,651.5172,412.5,642.37" style="stroke: #A80036; stroke-width: 1.0;"/><line style="stroke: #A80036; stroke-width: 1.0;" x1="412.3076" x2="411.995" y1="647.3663" y2="655.365"/><text fill="#000000" font-family="sans-serif" font-size="13" lengthAdjust="spacingAndGlyphs" textLength="78" x="411" y="705.4951">characteristic</text><text fill="#000000" font-family="sans-serif" font-size="13" lengthAdjust="spacingAndGlyphs" textLength="20" x="387.1031" y="662.8827">0..*</text><!--link DLImplementation to Characteristic--><path d="M51.34,163.66 C23.88,234.02 -3.03,342.08 51,414 C125.77,513.53 210.86,432.14 320,492 C327.43,496.07 334.78,500.82 341.9,505.93 " fill="none" id="DLImplementation-Characteristic" style="stroke: #A80036; stroke-width: 1.0;"/><polygon fill="#A80036" points="352.05,513.63,347.2973,505.0038,348.0665,510.6081,342.4622,511.3773,352.05,513.63" style="stroke: #A80036; stroke-width: 1.0;"/><line style="stroke: #A80036; stroke-width: 1.0;" x1="348.0665" x2="341.69" y1="510.6081" y2="505.775"/><polygon fill="#A80036" points="56.07,151.95,50.1178,156.0207,51.586,163.0808,57.5383,159.01,56.07,151.95" style="stroke: #A80036; stroke-width: 1.0;"/><text fill="#000000" font-family="sans-serif" font-size="13" lengthAdjust="spacingAndGlyphs" textLength="78" x="52" y="340.0551">characteristic</text><text fill="#000000" font-family="sans-serif" font-size="13" lengthAdjust="spacingAndGlyphs" textLength="20" x="324.9651" y="521.7617">0..*</text><!--link DistributedLedger to DocumentSpecification--><path d="M324.44,317.45 C330.11,316.7 335.75,316.06 341.25,315.56 C400.12,310.24 415.37,310.36 474.25,315.56 C484.06,316.43 494.32,317.73 504.43,319.26 " fill="none" id="DistributedLedger-DocumentSpecification" style="stroke: #A80036; stroke-width: 1.0;"/><polygon fill="#A80036" points="514.26,320.83,506.0001,315.4658,509.3221,320.0445,504.7434,323.3665,514.26,320.83" style="stroke: #A80036; stroke-width: 1.0;"/><line style="stroke: #A80036; stroke-width: 1.0;" x1="509.3221" x2="501.425" y1="320.0445" y2="318.785"/><polygon fill="#A80036" points="341.25,294.56,338.0908,301.0423,342.8594,306.4516,346.0186,299.9693,341.25,294.56" style="stroke: #A80036; stroke-width: 1.0;"/><text fill="#000000" font-family="sans-serif" font-size="13" lengthAdjust="spacingAndGlyphs" textLength="131" x="342.25" y="309.0551">documentSpecification</text><text fill="#000000" font-family="sans-serif" font-size="13" lengthAdjust="spacingAndGlyphs" textLength="22" x="485.3119" y="316.2189">0..1</text><!--link DLExchange to DLExchangeRate--><path d="M405,916.14 C405,949.46 405,987.94 405,1019.64 " fill="none" id="DLExchange-DLExchangeRate" style="stroke: #A80036; stroke-width: 1.0;"/><polygon fill="#A80036" points="405,1032.63,409,1023.63,405,1027.63,401,1023.63,405,1032.63" style="stroke: #A80036; stroke-width: 1.0;"/><line style="stroke: #A80036; stroke-width: 1.0;" x1="405" x2="405" y1="1027.63" y2="1019.63"/><polygon fill="#A80036" points="405,903.24,401,909.24,405,915.24,409,909.24,405,903.24" style="stroke: #A80036; stroke-width: 1.0;"/><text fill="#000000" font-family="sans-serif" font-size="13" lengthAdjust="spacingAndGlyphs" textLength="83" x="406" y="980.4951">exchangeRate</text><text fill="#000000" font-family="sans-serif" font-size="13" lengthAdjust="spacingAndGlyphs" textLength="20" x="383.5313" y="1023.0073">0..*</text><!--link Characteristic to CharacteristicRelationship--><path d="M489.89,606.08 C529.22,624.69 575.12,652.69 604,691 C620.13,712.4 629.6,739.97 635.15,765.36 " fill="none" id="Characteristic-CharacteristicRelationship" style="stroke: #A80036; stroke-width: 1.0;"/><polygon fill="#A80036" points="637.63,778.09,639.8349,768.4911,636.6737,773.1823,631.9826,770.0211,637.63,778.09" style="stroke: #A80036; stroke-width: 1.0;"/><line style="stroke: #A80036; stroke-width: 1.0;" x1="636.6737" x2="635.145" y1="773.1823" y2="765.33"/><polygon fill="#A80036" points="478.21,600.76,482.0131,606.8867,489.1312,605.7326,485.3281,599.6059,478.21,600.76" style="stroke: #A80036; stroke-width: 1.0;"/><text fill="#000000" font-family="sans-serif" font-size="13" lengthAdjust="spacingAndGlyphs" textLength="149" x="615" y="705.4951">characteristicRelationship</text><text fill="#000000" font-family="sans-serif" font-size="13" lengthAdjust="spacingAndGlyphs" textLength="20" x="615.9879" y="768.6446">0..*</text></g></svg>