<?xml version="1.0" encoding="us-ascii" standalone="no"?><svg xmlns="http://www.w3.org/2000/svg" xmlns:xlink="http://www.w3.org/1999/xlink" contentStyleType="text/css" height="1296px" preserveAspectRatio="none" style="width:932px;height:1296px;background:#FFFFFF;" version="1.1" viewBox="0 0 932 1296" width="932px" zoomAndPan="magnify"><defs/><g><text fill="#888888" font-family="sans-serif" font-size="10" lengthAdjust="spacing" textLength="148" x="770.28" y="10.3809">Diagram generated at 12/22/23</text><text fill="#000000" font-family="sans-serif" font-size="14" font-weight="bold" lengthAdjust="spacing" textLength="192" x="363.14" y="38.1113">TMF Schema Class Diagram</text><!--class DistributedLedger--><g id="elem_DistributedLedger"><rect codeLine="20" fill="#FFFFFF" height="209.1875" id="DistributedLedger" rx="2.5" ry="2.5" style="stroke:#181818;stroke-width:0.5;" width="177" x="167.78" y="296.0575"/><text fill="#000000" font-family="sans-serif" font-size="12" font-style="italic" lengthAdjust="spacing" textLength="41" x="235.78" y="313.5145">&#171;Pivot&#187;</text><text fill="#000000" font-family="sans-serif" font-size="14" lengthAdjust="spacing" textLength="113" x="199.78" y="330.6845">DistributedLedger</text><text fill="#000000" font-family="sans-serif" font-size="14" lengthAdjust="spacing" textLength="5" x="170.78" y="348.2938">(</text><text fill="#000000" font-family="sans-serif" font-size="9" font-style="italic" lengthAdjust="spacing" textLength="17" x="175.78" y="349.3925">from</text><a href="TMF695.svg" target="_top" title="TMF695.svg" xlink:actuate="onRequest" xlink:href="TMF695.svg" xlink:show="new" xlink:title="TMF695.svg" xlink:type="simple"><text fill="#0000FF" font-family="sans-serif" font-size="9" font-style="italic" lengthAdjust="spacing" text-decoration="underline" textLength="114" x="195.78" y="349.3925">TMF695-Distributed Ledger</text></a><text fill="#000000" font-family="sans-serif" font-size="9" font-style="italic" lengthAdjust="spacing" textLength="26" x="312.78" y="349.3925">v4.0.0</text><text fill="#000000" font-family="sans-serif" font-size="9" lengthAdjust="spacing" textLength="3" x="338.78" y="349.3925">)</text><line style="stroke:#181818;stroke-width:0.5;" x1="168.78" x2="343.78" y1="356.37" y2="356.37"/><text fill="#000000" font-family="sans-serif" font-size="14" lengthAdjust="spacing" textLength="154" x="173.78" y="374.9032">creationDate : DateTime</text><text fill="#000000" font-family="sans-serif" font-size="14" lengthAdjust="spacing" textLength="118" x="173.78" y="392.5126">description : String</text><text fill="#000000" font-family="sans-serif" font-size="14" lengthAdjust="spacing" textLength="74" x="173.78" y="410.122">href : String</text><text fill="#000000" font-family="sans-serif" font-size="14" lengthAdjust="spacing" textLength="60" x="173.78" y="427.7313">id : String</text><text fill="#000000" font-family="sans-serif" font-size="14" lengthAdjust="spacing" textLength="140" x="173.78" y="445.3407">lastUpdate : DateTime</text><text fill="#000000" font-family="sans-serif" font-size="14" lengthAdjust="spacing" textLength="132" x="173.78" y="462.9501">lifecycleState : String</text><text fill="#000000" font-family="sans-serif" font-size="14" lengthAdjust="spacing" textLength="84" x="173.78" y="480.5595">name : String</text><text fill="#000000" font-family="sans-serif" font-size="14" lengthAdjust="spacing" textLength="95" x="173.78" y="498.1688">version : String</text></g><!--class DocumentSpecification--><g id="elem_DocumentSpecification"><rect codeLine="31" fill="#FCF2E3" height="123.6563" id="DocumentSpecification" rx="2.5" ry="2.5" style="stroke:#181818;stroke-width:0.5;" width="150" x="512.28" y="338.8275"/><text fill="#000000" font-family="sans-serif" font-size="14" lengthAdjust="spacing" textLength="144" x="515.28" y="358.3607">DocumentSpecification</text><line style="stroke:#181818;stroke-width:0.5;" x1="513.28" x2="661.28" y1="366.4369" y2="366.4369"/><text fill="#000000" font-family="sans-serif" font-size="14" lengthAdjust="spacing" textLength="76" x="518.28" y="384.9701">URL : String</text><text fill="#000000" font-family="sans-serif" font-size="14" lengthAdjust="spacing" textLength="74" x="518.28" y="402.5795">href : String</text><text fill="#000000" font-family="sans-serif" font-size="14" lengthAdjust="spacing" textLength="60" x="518.28" y="420.1888">id : String</text><text fill="#000000" font-family="sans-serif" font-size="14" lengthAdjust="spacing" textLength="84" x="518.28" y="437.7982">name : String</text><text fill="#000000" font-family="sans-serif" font-size="14" lengthAdjust="spacing" textLength="95" x="518.28" y="455.4076">version : String</text></g><!--class Characteristic--><g id="elem_Characteristic"><rect codeLine="39" fill="#FCF2E3" height="158.875" id="Characteristic" rx="2.5" ry="2.5" style="stroke:#181818;stroke-width:0.5;" width="158" x="349.28" y="583.2475"/><text fill="#000000" font-family="sans-serif" font-size="14" lengthAdjust="spacing" textLength="87" x="384.78" y="602.7807">Characteristic</text><line style="stroke:#181818;stroke-width:0.5;" x1="350.28" x2="506.28" y1="610.8569" y2="610.8569"/><text fill="#000000" font-family="sans-serif" font-size="14" lengthAdjust="spacing" textLength="60" x="355.28" y="629.3901">id : String</text><text fill="#000000" font-family="sans-serif" font-size="14" lengthAdjust="spacing" textLength="84" x="355.28" y="646.9995">name : String</text><text fill="#000000" font-family="sans-serif" font-size="14" lengthAdjust="spacing" textLength="70" x="355.28" y="664.6088">value : Any</text><text fill="#000000" font-family="sans-serif" font-size="14" lengthAdjust="spacing" textLength="115" x="355.28" y="682.2182">valueType : String</text><text fill="#000000" font-family="sans-serif" font-size="14" lengthAdjust="spacing" textLength="126" x="355.28" y="699.8276">@baseType : String</text><text fill="#000000" font-family="sans-serif" font-size="14" lengthAdjust="spacing" textLength="146" x="355.28" y="717.437">@schemaLocation : Uri</text><text fill="#000000" font-family="sans-serif" font-size="14" lengthAdjust="spacing" textLength="90" x="355.28" y="735.0463">@type : String</text></g><!--class CharacteristicRelationship--><g id="elem_CharacteristicRelationship"><rect codeLine="49" fill="#FFFFE0" height="156.3594" id="CharacteristicRelationship" rx="2.5" ry="2.5" style="stroke:#181818;stroke-width:0.5;" width="193" x="502.78" y="846.5375"/><text fill="#000000" font-family="sans-serif" font-size="12" font-style="italic" lengthAdjust="spacing" textLength="33" x="582.78" y="863.9945">&#171;Ref&#187;</text><a href="CharacteristicRelationship.svg" target="_top" title="CharacteristicRelationship.svg" xlink:actuate="onRequest" xlink:href="CharacteristicRelationship.svg" xlink:show="new" xlink:title="CharacteristicRelationship.svg" xlink:type="simple"><text fill="#0000FF" font-family="sans-serif" font-size="14" lengthAdjust="spacing" text-decoration="underline" textLength="165" x="505.78" y="881.1645">CharacteristicRelationship</text></a><text fill="#000000" font-family="sans-serif" font-size="14" lengthAdjust="spacing" textLength="22" x="670.78" y="881.1645">Ref</text><line style="stroke:#181818;stroke-width:0.5;" x1="503.78" x2="694.78" y1="889.2406" y2="889.2406"/><text fill="#000000" font-family="sans-serif" font-size="14" lengthAdjust="spacing" textLength="54" x="508.78" y="907.7738">href : Uri</text><text fill="#000000" font-family="sans-serif" font-size="14" lengthAdjust="spacing" textLength="60" x="508.78" y="925.3832">id : String</text><text fill="#000000" font-family="sans-serif" font-size="14" lengthAdjust="spacing" textLength="154" x="508.78" y="942.9926">relationshipType : String</text><text fill="#000000" font-family="sans-serif" font-size="14" lengthAdjust="spacing" textLength="126" x="508.78" y="960.602">@baseType : String</text><text fill="#000000" font-family="sans-serif" font-size="14" lengthAdjust="spacing" textLength="146" x="508.78" y="978.2113">@schemaLocation : Uri</text><text fill="#000000" font-family="sans-serif" font-size="14" lengthAdjust="spacing" textLength="90" x="508.78" y="995.8207">@type : String</text></g><!--class DLDataFabric--><g id="elem_DLDataFabric"><rect codeLine="58" fill="#FCF2E3" height="158.875" id="DLDataFabric" rx="2.5" ry="2.5" style="stroke:#181818;stroke-width:0.5;" width="136" x="664.28" y="59.1875"/><text fill="#000000" font-family="sans-serif" font-size="14" lengthAdjust="spacing" textLength="88" x="688.28" y="78.7207">DLDataFabric</text><line style="stroke:#181818;stroke-width:0.5;" x1="665.28" x2="799.28" y1="86.7969" y2="86.7969"/><text fill="#000000" font-family="sans-serif" font-size="14" lengthAdjust="spacing" textLength="118" x="670.28" y="105.3301">description : String</text><text fill="#000000" font-family="sans-serif" font-size="14" lengthAdjust="spacing" textLength="74" x="670.28" y="122.9395">href : String</text><text fill="#000000" font-family="sans-serif" font-size="14" lengthAdjust="spacing" textLength="60" x="670.28" y="140.5488">id : String</text><text fill="#000000" font-family="sans-serif" font-size="14" lengthAdjust="spacing" textLength="124" x="670.28" y="158.1582">keyQualifier : String</text><text fill="#000000" font-family="sans-serif" font-size="14" lengthAdjust="spacing" textLength="84" x="670.28" y="175.7676">name : String</text><text fill="#000000" font-family="sans-serif" font-size="14" lengthAdjust="spacing" textLength="65" x="670.28" y="193.377">url : String</text><text fill="#000000" font-family="sans-serif" font-size="14" lengthAdjust="spacing" textLength="90" x="670.28" y="210.9863">@type : String</text></g><!--class PartyRoleRef--><g id="elem_PartyRoleRef"><rect codeLine="68" fill="#FFFFE0" height="209.1875" id="PartyRoleRef" rx="2.5" ry="2.5" style="stroke:#181818;stroke-width:0.5;" width="158" x="731.28" y="820.1275"/><text fill="#000000" font-family="sans-serif" font-size="12" font-style="italic" lengthAdjust="spacing" textLength="33" x="793.78" y="837.5845">&#171;Ref&#187;</text><a href="PartyRole.svg" target="_top" title="PartyRole.svg" xlink:actuate="onRequest" xlink:href="PartyRole.svg" xlink:show="new" xlink:title="PartyRole.svg" xlink:type="simple"><text fill="#0000FF" font-family="sans-serif" font-size="14" lengthAdjust="spacing" text-decoration="underline" textLength="62" x="768.28" y="854.7545">PartyRole</text></a><text fill="#000000" font-family="sans-serif" font-size="14" lengthAdjust="spacing" textLength="22" x="830.28" y="854.7545">Ref</text><line style="stroke:#181818;stroke-width:0.5;" x1="732.28" x2="888.28" y1="862.8306" y2="862.8306"/><text fill="#000000" font-family="sans-serif" font-size="14" lengthAdjust="spacing" textLength="74" x="737.28" y="881.3638">href : String</text><text fill="#000000" font-family="sans-serif" font-size="14" lengthAdjust="spacing" textLength="60" x="737.28" y="898.9732">id : String</text><text fill="#000000" font-family="sans-serif" font-size="14" lengthAdjust="spacing" textLength="84" x="737.28" y="916.5826">name : String</text><text fill="#000000" font-family="sans-serif" font-size="14" lengthAdjust="spacing" textLength="92" x="737.28" y="934.192">partyId : String</text><text fill="#000000" font-family="sans-serif" font-size="14" lengthAdjust="spacing" textLength="117" x="737.28" y="951.8013">partyName : String</text><text fill="#000000" font-family="sans-serif" font-size="14" lengthAdjust="spacing" textLength="126" x="737.28" y="969.4107">@baseType : String</text><text fill="#000000" font-family="sans-serif" font-size="14" lengthAdjust="spacing" textLength="146" x="737.28" y="987.0201">@referredType : String</text><text fill="#000000" font-family="sans-serif" font-size="14" lengthAdjust="spacing" textLength="146" x="737.28" y="1004.6295">@schemaLocation : Uri</text><text fill="#000000" font-family="sans-serif" font-size="14" lengthAdjust="spacing" textLength="90" x="737.28" y="1022.2388">@type : String</text></g><!--class DLExchange--><g id="elem_DLExchange"><rect codeLine="80" fill="#FCF2E3" height="158.875" id="DLExchange" rx="2.5" ry="2.5" style="stroke:#181818;stroke-width:0.5;" width="177" x="278.78" y="845.2775"/><text fill="#000000" font-family="sans-serif" font-size="14" lengthAdjust="spacing" textLength="80" x="327.28" y="864.8107">DLExchange</text><line style="stroke:#181818;stroke-width:0.5;" x1="279.78" x2="454.78" y1="872.8869" y2="872.8869"/><text fill="#000000" font-family="sans-serif" font-size="14" lengthAdjust="spacing" textLength="129" x="284.78" y="891.4201">currencyPair : String</text><text fill="#000000" font-family="sans-serif" font-size="14" lengthAdjust="spacing" textLength="118" x="284.78" y="909.0295">description : String</text><text fill="#000000" font-family="sans-serif" font-size="14" lengthAdjust="spacing" textLength="165" x="284.78" y="926.6388">fixedExchangeRate : Float</text><text fill="#000000" font-family="sans-serif" font-size="14" lengthAdjust="spacing" textLength="74" x="284.78" y="944.2482">href : String</text><text fill="#000000" font-family="sans-serif" font-size="14" lengthAdjust="spacing" textLength="60" x="284.78" y="961.8576">id : String</text><text fill="#000000" font-family="sans-serif" font-size="14" lengthAdjust="spacing" textLength="84" x="284.78" y="979.467">name : String</text><text fill="#000000" font-family="sans-serif" font-size="14" lengthAdjust="spacing" textLength="90" x="284.78" y="997.0763">@type : String</text></g><!--class DLExchangeRate--><g id="elem_DLExchangeRate"><rect codeLine="90" fill="#FCF2E3" height="123.6563" id="DLExchangeRate" rx="2.5" ry="2.5" style="stroke:#181818;stroke-width:0.5;" width="147" x="293.78" y="1107.3075"/><text fill="#000000" font-family="sans-serif" font-size="14" lengthAdjust="spacing" textLength="110" x="312.28" y="1126.8407">DLExchangeRate</text><line style="stroke:#181818;stroke-width:0.5;" x1="294.78" x2="439.78" y1="1134.9169" y2="1134.9169"/><text fill="#000000" font-family="sans-serif" font-size="14" lengthAdjust="spacing" textLength="135" x="299.78" y="1153.4501">exchangeRate : Float</text><text fill="#000000" font-family="sans-serif" font-size="14" lengthAdjust="spacing" textLength="74" x="299.78" y="1171.0595">href : String</text><text fill="#000000" font-family="sans-serif" font-size="14" lengthAdjust="spacing" textLength="60" x="299.78" y="1188.6688">id : String</text><text fill="#000000" font-family="sans-serif" font-size="14" lengthAdjust="spacing" textLength="135" x="299.78" y="1206.2782">validFor : TimePeriod</text><text fill="#000000" font-family="sans-serif" font-size="14" lengthAdjust="spacing" textLength="90" x="299.78" y="1223.8876">@type : String</text></g><!--class DLImplementation--><g id="elem_DLImplementation"><rect codeLine="98" fill="#FCF2E3" height="141.2656" id="DLImplementation" rx="2.5" ry="2.5" style="stroke:#181818;stroke-width:0.5;" width="130" x="39.28" y="67.9875"/><text fill="#000000" font-family="sans-serif" font-size="14" lengthAdjust="spacing" textLength="113" x="47.78" y="87.5207">DLImplementation</text><line style="stroke:#181818;stroke-width:0.5;" x1="40.28" x2="168.28" y1="95.5969" y2="95.5969"/><text fill="#000000" font-family="sans-serif" font-size="14" lengthAdjust="spacing" textLength="118" x="45.28" y="114.1301">description : String</text><text fill="#000000" font-family="sans-serif" font-size="14" lengthAdjust="spacing" textLength="74" x="45.28" y="131.7395">href : String</text><text fill="#000000" font-family="sans-serif" font-size="14" lengthAdjust="spacing" textLength="60" x="45.28" y="149.3488">id : String</text><text fill="#000000" font-family="sans-serif" font-size="14" lengthAdjust="spacing" textLength="84" x="45.28" y="166.9582">name : String</text><text fill="#000000" font-family="sans-serif" font-size="14" lengthAdjust="spacing" textLength="65" x="45.28" y="184.5676">url : String</text><text fill="#000000" font-family="sans-serif" font-size="14" lengthAdjust="spacing" textLength="90" x="45.28" y="202.177">@type : String</text></g><!--link DLDataFabric to DistributedLedger--><g id="link_DLDataFabric_DistributedLedger"><path codeLine="107" d="M658.5645,179.8941 C574.5645,225.7841 447.7612,295.0547 355.4612,345.4747 " fill="none" id="DLDataFabric-DistributedLedger" style="stroke:#181818;stroke-width:1.0;"/><polygon fill="#181818" points="663.83,177.0175,654.0141,177.8221,659.4421,179.4147,657.8495,184.8427,663.83,177.0175" style="stroke:#181818;stroke-width:1.0;"/><polygon fill="#181818" points="344.93,351.2275,352.1132,351.8615,355.4612,345.4747,348.278,344.8407,344.93,351.2275" style="stroke:#181818;stroke-width:1.0;"/><text fill="#000000" font-family="sans-serif" font-size="13" lengthAdjust="spacing" textLength="61" x="523.28" y="262.5526">dataFabric</text><text fill="#000000" font-family="sans-serif" font-size="13" lengthAdjust="spacing" textLength="20" x="636.3527" y="177.4262">0..*</text></g><!--link DLImplementation to DistributedLedger--><g id="link_DLImplementation_DistributedLedger"><path codeLine="109" d="M148.2381,214.8273 C163.7181,241.3073 172.5944,256.4875 189.5044,285.4175 " fill="none" id="DLImplementation-DistributedLedger" style="stroke:#181818;stroke-width:1.0;"/><polygon fill="#181818" points="145.21,209.6475,146.2989,219.436,147.7334,213.964,153.2054,215.3985,145.21,209.6475" style="stroke:#181818;stroke-width:1.0;"/><polygon fill="#181818" points="195.56,295.7775,195.9855,288.579,189.5044,285.4175,189.0789,292.616,195.56,295.7775" style="stroke:#181818;stroke-width:1.0;"/><text fill="#000000" font-family="sans-serif" font-size="13" lengthAdjust="spacing" textLength="98" x="176.28" y="262.5526">dlImplementation</text><text fill="#000000" font-family="sans-serif" font-size="13" lengthAdjust="spacing" textLength="20" x="128.158" y="230.6917">0..*</text></g><!--link DistributedLedger to Characteristic--><g id="link_DistributedLedger_Characteristic"><path codeLine="111" d="M331.6196,515.5566 C348.6496,541.3066 356.6889,553.4638 372.7889,577.7938 " fill="none" id="DistributedLedger-Characteristic" style="stroke:#181818;stroke-width:1.0;"/><polygon fill="#181818" points="325,505.5475,324.9734,512.7586,331.6196,515.5566,331.6461,508.3455,325,505.5475" style="stroke:#181818;stroke-width:1.0;"/><polygon fill="#181818" points="376.1,582.7975,374.4691,573.0846,373.3408,578.6278,367.7976,577.4994,376.1,582.7975" style="stroke:#181818;stroke-width:1.0;"/><text fill="#000000" font-family="sans-serif" font-size="13" lengthAdjust="spacing" textLength="78" x="353.28" y="549.7426">characteristic</text><text fill="#000000" font-family="sans-serif" font-size="13" lengthAdjust="spacing" textLength="20" x="350.5621" y="572.4808">0..*</text></g><!--link DistributedLedger to DLExchange--><g id="link_DistributedLedger_DLExchange"><path codeLine="113" d="M250.4492,517.4661 C249.4192,585.8261 253.42,664.6775 274.28,742.1275 C283.81,777.5275 297.9595,808.7142 314.8595,839.5942 " fill="none" id="DistributedLedger-DLExchange" style="stroke:#181818;stroke-width:1.0;"/><polygon fill="#181818" points="250.63,505.4675,246.5401,511.4066,250.4492,517.4661,254.5392,511.5271,250.63,505.4675" style="stroke:#181818;stroke-width:1.0;"/><polygon fill="#181818" points="317.74,844.8575,316.9281,835.0422,315.3396,840.4714,309.9103,838.8828,317.74,844.8575" style="stroke:#181818;stroke-width:1.0;"/><text fill="#000000" font-family="sans-serif" font-size="13" lengthAdjust="spacing" textLength="56" x="275.28" y="668.1826">exchange</text><text fill="#000000" font-family="sans-serif" font-size="13" lengthAdjust="spacing" textLength="20" x="292.4372" y="834.5435">0..*</text></g><!--link DLExchange to PartyRoleRef--><g id="link_DLExchange_PartyRoleRef"><path codeLine="115" d="M411.184,834.9516 C424.334,815.4716 434.45,807.0375 455.28,796.0575 C496.16,774.4875 513.2,792.4775 559.28,796.0575 C628.35,801.4175 652.12,787.5775 713.28,820.1275 C719.4,823.3775 720.4927,823.6414 726.2227,827.8214 " fill="none" id="DLExchange-PartyRoleRef" style="stroke:#181818;stroke-width:1.0;"/><polygon fill="#181818" points="404.47,844.8975,411.1423,842.1625,411.184,834.9516,404.5117,837.6865,404.47,844.8975" style="stroke:#181818;stroke-width:1.0;"/><polygon fill="#181818" points="731.07,831.3575,726.1564,822.8219,727.0306,828.4108,721.4417,829.2849,731.07,831.3575" style="stroke:#181818;stroke-width:1.0;"/><text fill="#000000" font-family="sans-serif" font-size="13" lengthAdjust="spacing" textLength="102" x="456.28" y="786.6226">exchangeProvider</text><text fill="#000000" font-family="sans-serif" font-size="13" lengthAdjust="spacing" textLength="7" x="716.1867" y="819.2081">1</text></g><!--link DLDataFabric to PartyRoleRef--><g id="link_DLDataFabric_PartyRoleRef"><path codeLine="117" d="M796.9678,228.4427 C811.4878,252.2527 818.78,269.0375 826.28,296.0575 C875.87,474.8875 853.426,687.5407 832.156,813.9007 " fill="none" id="DLDataFabric-PartyRoleRef" style="stroke:#181818;stroke-width:1.0;"/><polygon fill="#181818" points="790.72,218.1975,790.4288,225.4027,796.9678,228.4427,797.259,221.2375,790.72,218.1975" style="stroke:#181818;stroke-width:1.0;"/><polygon fill="#181818" points="831.16,819.8175,836.5984,811.6063,831.99,814.8869,828.7094,810.2784,831.16,819.8175" style="stroke:#181818;stroke-width:1.0;"/><text fill="#000000" font-family="sans-serif" font-size="13" lengthAdjust="spacing" textLength="68" x="856.28" y="549.7426">fabricOwner</text><text fill="#000000" font-family="sans-serif" font-size="13" lengthAdjust="spacing" textLength="7" x="825.382" y="809.3864">1</text></g><!--link DLDataFabric to Characteristic--><g id="link_DLDataFabric_Characteristic"><path codeLine="119" d="M739.6099,230.3191 C742.5699,309.2191 735.58,419.0675 679.28,505.2475 C638.98,566.9375 570.4979,606.2379 513.2579,630.9679 " fill="none" id="DLDataFabric-Characteristic" style="stroke:#181818;stroke-width:1.0;"/><polygon fill="#181818" points="739.16,218.3275,735.3877,224.4732,739.6099,230.3191,743.3821,224.1733,739.16,218.3275" style="stroke:#181818;stroke-width:1.0;"/><polygon fill="#181818" points="507.75,633.3475,517.5983,633.45,512.3399,631.3645,514.4255,626.1061,507.75,633.3475" style="stroke:#181818;stroke-width:1.0;"/><text fill="#000000" font-family="sans-serif" font-size="13" lengthAdjust="spacing" textLength="78" x="739.28" y="406.1526">characteristic</text><text fill="#000000" font-family="sans-serif" font-size="13" lengthAdjust="spacing" textLength="20" x="515.1592" y="627.7652">0..*</text></g><!--link Characteristic to DLExchange--><g id="link_Characteristic_DLExchange"><path codeLine="121" d="M375.5038,748.0272 C371.1438,757.6972 369.88,762.1975 367.28,772.1275 C361.21,795.2875 359.3334,809.1482 359.5834,832.8482 " fill="none" id="Characteristic-DLExchange" style="stroke:#181818;stroke-width:1.0;"/><polygon fill="#181818" points="377.97,742.5575,370.6242,749.118,375.9148,747.1156,377.9172,752.4062,377.97,742.5575" style="stroke:#181818;stroke-width:1.0;"/><polygon fill="#181818" points="359.71,844.8475,363.6465,838.8056,359.5834,832.8482,355.6469,838.89,359.71,844.8475" style="stroke:#181818;stroke-width:1.0;"/><text fill="#000000" font-family="sans-serif" font-size="13" lengthAdjust="spacing" textLength="78" x="368.28" y="786.6226">characteristic</text><text fill="#000000" font-family="sans-serif" font-size="13" lengthAdjust="spacing" textLength="20" x="352.7871" y="763.6193">0..*</text></g><!--link DLImplementation to Characteristic--><g id="link_DLImplementation_Characteristic"><path codeLine="123" d="M67.6267,220.7104 C36.1567,300.4904 6,419.7775 70.28,505.2475 C145.35,605.0775 230.94,522.8575 340.28,583.2475 C343.15,584.8275 340.9262,583.3249 343.7462,585.1049 " fill="none" id="DLImplementation-Characteristic" style="stroke:#181818;stroke-width:1.0;"/><polygon fill="#181818" points="72.03,209.5475,66.1074,213.6612,67.6267,220.7104,73.5493,216.5967,72.03,209.5475" style="stroke:#181818;stroke-width:1.0;"/><polygon fill="#181818" points="348.82,588.3075,343.3444,580.1211,344.5918,585.6387,339.0742,586.8861,348.82,588.3075" style="stroke:#181818;stroke-width:1.0;"/><text fill="#000000" font-family="sans-serif" font-size="13" lengthAdjust="spacing" textLength="78" x="71.28" y="406.1526">characteristic</text><text fill="#000000" font-family="sans-serif" font-size="13" lengthAdjust="spacing" textLength="20" x="321.4116" y="578.9953">0..*</text></g><!--link DistributedLedger to DocumentSpecification--><g id="link_DistributedLedger_DocumentSpecification"><path codeLine="125" d="M356.98,400.6575 C409.07,400.6575 456.2,400.6575 505.81,400.6575 " fill="none" id="DistributedLedger-DocumentSpecification" style="stroke:#181818;stroke-width:1.0;"/><polygon fill="#181818" points="344.98,400.6575,350.98,404.6575,356.98,400.6575,350.98,396.6575,344.98,400.6575" style="stroke:#181818;stroke-width:1.0;"/><polygon fill="#181818" points="511.81,400.6575,502.81,396.6575,506.81,400.6575,502.81,404.6575,511.81,400.6575" style="stroke:#181818;stroke-width:1.0;"/><text fill="#000000" font-family="sans-serif" font-size="13" lengthAdjust="spacing" textLength="131" x="363.03" y="394.1526">documentSpecification</text><text fill="#000000" font-family="sans-serif" font-size="13" lengthAdjust="spacing" textLength="22" x="482.379" y="414.8554">0..1</text></g><!--link DLExchange to DLExchangeRate--><g id="link_DLExchange_DLExchangeRate"><path codeLine="127" d="M367.28,1016.4275 C367.28,1049.7475 367.28,1069.9675 367.28,1101.0975 " fill="none" id="DLExchange-DLExchangeRate" style="stroke:#181818;stroke-width:1.0;"/><polygon fill="#181818" points="367.28,1004.4275,363.28,1010.4275,367.28,1016.4275,371.28,1010.4275,367.28,1004.4275" style="stroke:#181818;stroke-width:1.0;"/><polygon fill="#181818" points="367.28,1107.0975,371.28,1098.0975,367.28,1102.0975,363.28,1098.0975,367.28,1107.0975" style="stroke:#181818;stroke-width:1.0;"/><text fill="#000000" font-family="sans-serif" font-size="13" lengthAdjust="spacing" textLength="83" x="368.28" y="1073.8026">exchangeRate</text><text fill="#000000" font-family="sans-serif" font-size="13" lengthAdjust="spacing" textLength="20" x="346.1238" y="1096.5148">0..*</text></g><!--link Characteristic to CharacteristicRelationship--><g id="link_Characteristic_CharacteristicRelationship"><path codeLine="129" d="M516.7443,722.7802 C536.4543,738.9202 546.57,750.6175 560.28,772.1275 C574.37,794.2375 582.0349,815.3702 587.7949,840.4102 " fill="none" id="Characteristic-CharacteristicRelationship" style="stroke:#181818;stroke-width:1.0;"/><polygon fill="#181818" points="507.46,715.1775,509.5679,722.0736,516.7443,722.7802,514.6364,715.8841,507.46,715.1775" style="stroke:#181818;stroke-width:1.0;"/><polygon fill="#181818" points="589.14,846.2575,591.0206,836.5899,588.0191,841.3848,583.2242,838.3833,589.14,846.2575" style="stroke:#181818;stroke-width:1.0;"/><text fill="#000000" font-family="sans-serif" font-size="13" lengthAdjust="spacing" textLength="149" x="569.28" y="786.6226">characteristicRelationship</text><text fill="#000000" font-family="sans-serif" font-size="13" lengthAdjust="spacing" textLength="20" x="567.2833" y="835.7983">0..*</text></g><rect fill="#DDDDDD" height="27.6094" id="_legend" rx="7.5" ry="7.5" style="stroke:#000000;stroke-width:1.0;" width="123" x="397.64" y="1248.9638"/><a href="index.htm" target="_top" title="index.htm" xlink:actuate="onRequest" xlink:href="index.htm" xlink:show="new" xlink:title="index.htm" xlink:type="simple"><text fill="#0000FF" font-family="sans-serif" font-size="14" lengthAdjust="spacing" text-decoration="underline" textLength="113" x="402.64" y="1268.497">Go to API Catalog</text></a></g></svg>