<?xml version="1.0" encoding="us-ascii" standalone="no"?><svg xmlns="http://www.w3.org/2000/svg" xmlns:xlink="http://www.w3.org/1999/xlink" contentStyleType="text/css" height="1887px" preserveAspectRatio="none" style="width:1339px;height:1887px;background:#FFFFFF;" version="1.1" viewBox="0 0 1339 1887" width="1339px" zoomAndPan="magnify"><defs/><g><text fill="#888888" font-family="sans-serif" font-size="10" lengthAdjust="spacing" textLength="148" x="1177" y="10.3809">Diagram generated at 12/22/23</text><text fill="#000000" font-family="sans-serif" font-size="14" font-weight="bold" lengthAdjust="spacing" textLength="192" x="566.5" y="38.1113">TMF Schema Class Diagram</text><!--class IotDevice--><g id="elem_IotDevice"><rect codeLine="20" fill="#FFFFFF" height="719.8594" id="IotDevice" rx="2.5" ry="2.5" style="stroke:#181818;stroke-width:0.5;" width="235" x="555.5" y="436.9375"/><text fill="#000000" font-family="sans-serif" font-size="12" font-style="italic" lengthAdjust="spacing" textLength="41" x="652.5" y="454.3945">&#171;Pivot&#187;</text><text fill="#000000" font-family="sans-serif" font-size="14" lengthAdjust="spacing" textLength="58" x="644" y="471.5645">IotDevice</text><line style="stroke:#181818;stroke-width:0.5;" x1="556.5" x2="789.5" y1="479.6406" y2="479.6406"/><text fill="#000000" font-family="sans-serif" font-size="14" lengthAdjust="spacing" textLength="141" x="561.5" y="498.1738">alternateName : String</text><text fill="#000000" font-family="sans-serif" font-size="14" lengthAdjust="spacing" textLength="123" x="561.5" y="515.7832">areaServed : String</text><text fill="#000000" font-family="sans-serif" font-size="14" lengthAdjust="spacing" textLength="122" x="561.5" y="533.3926">batteryLevel : Float</text><text fill="#000000" font-family="sans-serif" font-size="14" lengthAdjust="spacing" textLength="157" x="561.5" y="551.002">category : CategoryType</text><text fill="#000000" font-family="sans-serif" font-size="14" lengthAdjust="spacing" textLength="130" x="561.5" y="568.6113">dataProvider : String</text><text fill="#000000" font-family="sans-serif" font-size="14" lengthAdjust="spacing" textLength="152" x="561.5" y="586.2207">dateCreated : DateTime</text><text fill="#000000" font-family="sans-serif" font-size="14" lengthAdjust="spacing" textLength="161" x="561.5" y="603.8301">dateFirstUsed : DateTime</text><text fill="#000000" font-family="sans-serif" font-size="14" lengthAdjust="spacing" textLength="153" x="561.5" y="621.4395">dateInstalled : DateTime</text><text fill="#000000" font-family="sans-serif" font-size="14" lengthAdjust="spacing" textLength="196" x="561.5" y="639.0488">dateLastCalibration : DateTime</text><text fill="#000000" font-family="sans-serif" font-size="14" lengthAdjust="spacing" textLength="223" x="561.5" y="656.6582">dateLastValueReported : DateTime</text><text fill="#000000" font-family="sans-serif" font-size="14" lengthAdjust="spacing" textLength="188" x="561.5" y="674.2676">dateManufactured : DateTime</text><text fill="#000000" font-family="sans-serif" font-size="14" lengthAdjust="spacing" textLength="154" x="561.5" y="691.877">dateModified : DateTime</text><text fill="#000000" font-family="sans-serif" font-size="14" lengthAdjust="spacing" textLength="118" x="561.5" y="709.4863">description : String</text><text fill="#000000" font-family="sans-serif" font-size="14" lengthAdjust="spacing" textLength="123" x="561.5" y="727.0957">deviceState : String</text><text fill="#000000" font-family="sans-serif" font-size="14" lengthAdjust="spacing" textLength="122" x="561.5" y="744.7051">deviceType : String</text><text fill="#000000" font-family="sans-serif" font-size="14" lengthAdjust="spacing" textLength="127" x="561.5" y="762.3145">endDate : DateTime</text><text fill="#000000" font-family="sans-serif" font-size="14" lengthAdjust="spacing" textLength="150" x="561.5" y="779.9238">firmwareVersion : String</text><text fill="#000000" font-family="sans-serif" font-size="14" lengthAdjust="spacing" textLength="156" x="561.5" y="797.5332">hardwareVersion : String</text><text fill="#000000" font-family="sans-serif" font-size="14" lengthAdjust="spacing" textLength="74" x="561.5" y="815.1426">href : String</text><text fill="#000000" font-family="sans-serif" font-size="14" lengthAdjust="spacing" textLength="60" x="561.5" y="832.752">id : String</text><text fill="#000000" font-family="sans-serif" font-size="14" lengthAdjust="spacing" textLength="132" x="561.5" y="850.3613">lifecycleState : String</text><text fill="#000000" font-family="sans-serif" font-size="14" lengthAdjust="spacing" textLength="200" x="561.5" y="867.9707">macAddress : MacAddressType</text><text fill="#000000" font-family="sans-serif" font-size="14" lengthAdjust="spacing" textLength="182" x="561.5" y="885.5801">manufactureDate : DateTime</text><text fill="#000000" font-family="sans-serif" font-size="14" lengthAdjust="spacing" textLength="75" x="561.5" y="903.1895">mnc : String</text><text fill="#000000" font-family="sans-serif" font-size="14" lengthAdjust="spacing" textLength="84" x="561.5" y="920.7988">name : String</text><text fill="#000000" font-family="sans-serif" font-size="14" lengthAdjust="spacing" textLength="112" x="561.5" y="938.4082">osVersion : String</text><text fill="#000000" font-family="sans-serif" font-size="14" lengthAdjust="spacing" textLength="120" x="561.5" y="956.0176">powerState : String</text><text fill="#000000" font-family="sans-serif" font-size="14" lengthAdjust="spacing" textLength="101" x="561.5" y="973.627">provider : String</text><text fill="#000000" font-family="sans-serif" font-size="14" lengthAdjust="spacing" textLength="132" x="561.5" y="991.2363">serialNumber : String</text><text fill="#000000" font-family="sans-serif" font-size="14" lengthAdjust="spacing" textLength="150" x="561.5" y="1008.8457">softwareVersion : String</text><text fill="#000000" font-family="sans-serif" font-size="14" lengthAdjust="spacing" textLength="92" x="561.5" y="1026.4551">source : String</text><text fill="#000000" font-family="sans-serif" font-size="14" lengthAdjust="spacing" textLength="131" x="561.5" y="1044.0645">startDate : DateTime</text><text fill="#000000" font-family="sans-serif" font-size="14" lengthAdjust="spacing" textLength="83" x="561.5" y="1061.6738">value : String</text><text fill="#000000" font-family="sans-serif" font-size="14" lengthAdjust="spacing" textLength="95" x="561.5" y="1079.2832">version : String</text><text fill="#000000" font-family="sans-serif" font-size="14" lengthAdjust="spacing" textLength="144" x="561.5" y="1096.8926">versionNumber : String</text><text fill="#000000" font-family="sans-serif" font-size="14" lengthAdjust="spacing" textLength="126" x="561.5" y="1114.502">@baseType : String</text><text fill="#000000" font-family="sans-serif" font-size="14" lengthAdjust="spacing" textLength="146" x="561.5" y="1132.1113">@schemaLocation : Uri</text><text fill="#000000" font-family="sans-serif" font-size="14" lengthAdjust="spacing" textLength="90" x="561.5" y="1149.7207">@type : String</text></g><!--class ResourceRelationship--><g id="elem_ResourceRelationship"><rect codeLine="61" fill="#FCF2E3" height="106.0469" id="ResourceRelationship" rx="2.5" ry="2.5" style="stroke:#181818;stroke-width:0.5;" width="166" x="7" y="1286.3675"/><text fill="#000000" font-family="sans-serif" font-size="14" lengthAdjust="spacing" textLength="139" x="20.5" y="1305.9007">ResourceRelationship</text><line style="stroke:#181818;stroke-width:0.5;" x1="8" x2="172" y1="1313.9769" y2="1313.9769"/><text fill="#000000" font-family="sans-serif" font-size="14" lengthAdjust="spacing" textLength="154" x="13" y="1332.5101">relationshipType : String</text><text fill="#000000" font-family="sans-serif" font-size="14" lengthAdjust="spacing" textLength="126" x="13" y="1350.1195">@baseType : String</text><text fill="#000000" font-family="sans-serif" font-size="14" lengthAdjust="spacing" textLength="146" x="13" y="1367.7288">@schemaLocation : Uri</text><text fill="#000000" font-family="sans-serif" font-size="14" lengthAdjust="spacing" textLength="90" x="13" y="1385.3382">@type : String</text></g><!--class ResourceRef--><g id="elem_ResourceRef"><rect codeLine="68" fill="#FFFFE0" height="191.5781" id="ResourceRef" rx="2.5" ry="2.5" style="stroke:#181818;stroke-width:0.5;" width="158" x="11" y="1576.0775"/><text fill="#000000" font-family="sans-serif" font-size="12" font-style="italic" lengthAdjust="spacing" textLength="33" x="73.5" y="1593.5345">&#171;Ref&#187;</text><a href="Resource.svg" target="_top" title="Resource.svg" xlink:actuate="onRequest" xlink:href="Resource.svg" xlink:show="new" xlink:title="Resource.svg" xlink:type="simple"><text fill="#0000FF" font-family="sans-serif" font-size="14" lengthAdjust="spacing" text-decoration="underline" textLength="61" x="48.5" y="1610.7045">Resource</text></a><text fill="#000000" font-family="sans-serif" font-size="14" lengthAdjust="spacing" textLength="22" x="109.5" y="1610.7045">Ref</text><line style="stroke:#181818;stroke-width:0.5;" x1="12" x2="168" y1="1618.7806" y2="1618.7806"/><text fill="#000000" font-family="sans-serif" font-size="14" lengthAdjust="spacing" textLength="74" x="17" y="1637.3138">href : String</text><text fill="#000000" font-family="sans-serif" font-size="14" lengthAdjust="spacing" textLength="60" x="17" y="1654.9232">id : String</text><text fill="#000000" font-family="sans-serif" font-size="14" lengthAdjust="spacing" textLength="84" x="17" y="1672.5326">name : String</text><text fill="#000000" font-family="sans-serif" font-size="14" lengthAdjust="spacing" textLength="83" x="17" y="1690.142">value : String</text><text fill="#000000" font-family="sans-serif" font-size="14" lengthAdjust="spacing" textLength="126" x="17" y="1707.7513">@baseType : String</text><text fill="#000000" font-family="sans-serif" font-size="14" lengthAdjust="spacing" textLength="146" x="17" y="1725.3607">@referredType : String</text><text fill="#000000" font-family="sans-serif" font-size="14" lengthAdjust="spacing" textLength="146" x="17" y="1742.9701">@schemaLocation : Uri</text><text fill="#000000" font-family="sans-serif" font-size="14" lengthAdjust="spacing" textLength="90" x="17" y="1760.5795">@type : String</text></g><!--class RelatedParty--><g id="elem_RelatedParty"><rect codeLine="79" fill="#FCF2E3" height="176.4844" id="RelatedParty" rx="2.5" ry="2.5" style="stroke:#181818;stroke-width:0.5;" width="158" x="208" y="1251.1475"/><text fill="#000000" font-family="sans-serif" font-size="14" lengthAdjust="spacing" textLength="82" x="246" y="1270.6807">RelatedParty</text><line style="stroke:#181818;stroke-width:0.5;" x1="209" x2="365" y1="1278.7569" y2="1278.7569"/><text fill="#000000" font-family="sans-serif" font-size="14" lengthAdjust="spacing" textLength="74" x="214" y="1297.2901">href : String</text><text fill="#000000" font-family="sans-serif" font-size="14" lengthAdjust="spacing" textLength="60" x="214" y="1314.8995">id : String</text><text fill="#000000" font-family="sans-serif" font-size="14" lengthAdjust="spacing" textLength="84" x="214" y="1332.5088">name : String</text><text fill="#000000" font-family="sans-serif" font-size="14" lengthAdjust="spacing" textLength="73" x="214" y="1350.1182">role : String</text><text fill="#000000" font-family="sans-serif" font-size="14" lengthAdjust="spacing" textLength="126" x="214" y="1367.7276">@baseType : String</text><text fill="#000000" font-family="sans-serif" font-size="14" lengthAdjust="spacing" textLength="146" x="214" y="1385.337">@referredType : String</text><text fill="#000000" font-family="sans-serif" font-size="14" lengthAdjust="spacing" textLength="146" x="214" y="1402.9463">@schemaLocation : Uri</text><text fill="#000000" font-family="sans-serif" font-size="14" lengthAdjust="spacing" textLength="90" x="214" y="1420.5557">@type : String</text></g><!--class Note--><g id="elem_Note"><rect codeLine="90" fill="#FCF2E3" height="158.875" id="Note" rx="2.5" ry="2.5" style="stroke:#181818;stroke-width:0.5;" width="158" x="401" y="1259.9575"/><text fill="#000000" font-family="sans-serif" font-size="14" lengthAdjust="spacing" textLength="29" x="465.5" y="1279.4907">Note</text><line style="stroke:#181818;stroke-width:0.5;" x1="402" x2="558" y1="1287.5669" y2="1287.5669"/><text fill="#000000" font-family="sans-serif" font-size="14" lengthAdjust="spacing" textLength="90" x="407" y="1306.1001">author : String</text><text fill="#000000" font-family="sans-serif" font-size="14" lengthAdjust="spacing" textLength="101" x="407" y="1323.7095">date : DateTime</text><text fill="#000000" font-family="sans-serif" font-size="14" lengthAdjust="spacing" textLength="60" x="407" y="1341.3188">id : String</text><text fill="#000000" font-family="sans-serif" font-size="14" lengthAdjust="spacing" textLength="71" x="407" y="1358.9282">text : String</text><text fill="#000000" font-family="sans-serif" font-size="14" lengthAdjust="spacing" textLength="126" x="407" y="1376.5376">@baseType : String</text><text fill="#000000" font-family="sans-serif" font-size="14" lengthAdjust="spacing" textLength="146" x="407" y="1394.147">@schemaLocation : Uri</text><text fill="#000000" font-family="sans-serif" font-size="14" lengthAdjust="spacing" textLength="90" x="407" y="1411.7563">@type : String</text></g><!--class Configuration--><g id="elem_Configuration"><rect codeLine="100" fill="#FCF2E3" height="88.4375" id="Configuration" rx="2.5" ry="2.5" style="stroke:#181818;stroke-width:0.5;" width="158" x="770" y="164.8475"/><text fill="#000000" font-family="sans-serif" font-size="14" lengthAdjust="spacing" textLength="85" x="806.5" y="184.3807">Configuration</text><line style="stroke:#181818;stroke-width:0.5;" x1="771" x2="927" y1="192.4569" y2="192.4569"/><text fill="#000000" font-family="sans-serif" font-size="14" lengthAdjust="spacing" textLength="126" x="776" y="210.9901">@baseType : String</text><text fill="#000000" font-family="sans-serif" font-size="14" lengthAdjust="spacing" textLength="146" x="776" y="228.5995">@schemaLocation : Uri</text><text fill="#000000" font-family="sans-serif" font-size="14" lengthAdjust="spacing" textLength="90" x="776" y="246.2088">@type : String</text></g><!--class Rule--><g id="elem_Rule"><rect codeLine="106" fill="#FCF2E3" height="88.4375" id="Rule" rx="2.5" ry="2.5" style="stroke:#181818;stroke-width:0.5;" width="158" x="1065" y="752.6475"/><text fill="#000000" font-family="sans-serif" font-size="14" lengthAdjust="spacing" textLength="29" x="1129.5" y="772.1807">Rule</text><line style="stroke:#181818;stroke-width:0.5;" x1="1066" x2="1222" y1="780.2569" y2="780.2569"/><text fill="#000000" font-family="sans-serif" font-size="14" lengthAdjust="spacing" textLength="126" x="1071" y="798.7901">@baseType : String</text><text fill="#000000" font-family="sans-serif" font-size="14" lengthAdjust="spacing" textLength="146" x="1071" y="816.3995">@schemaLocation : Uri</text><text fill="#000000" font-family="sans-serif" font-size="14" lengthAdjust="spacing" textLength="90" x="1071" y="834.0088">@type : String</text></g><!--class ResourceCharacteristic--><g id="elem_ResourceCharacteristic"><rect codeLine="112" fill="#FCF2E3" height="123.6563" id="ResourceCharacteristic" rx="2.5" ry="2.5" style="stroke:#181818;stroke-width:0.5;" width="158" x="594" y="1277.5675"/><text fill="#000000" font-family="sans-serif" font-size="14" lengthAdjust="spacing" textLength="148" x="599" y="1297.1007">ResourceCharacteristic</text><line style="stroke:#181818;stroke-width:0.5;" x1="595" x2="751" y1="1305.1769" y2="1305.1769"/><text fill="#000000" font-family="sans-serif" font-size="14" lengthAdjust="spacing" textLength="84" x="600" y="1323.7101">name : String</text><text fill="#000000" font-family="sans-serif" font-size="14" lengthAdjust="spacing" textLength="83" x="600" y="1341.3195">value : String</text><text fill="#000000" font-family="sans-serif" font-size="14" lengthAdjust="spacing" textLength="126" x="600" y="1358.9288">@baseType : String</text><text fill="#000000" font-family="sans-serif" font-size="14" lengthAdjust="spacing" textLength="146" x="600" y="1376.5382">@schemaLocation : Uri</text><text fill="#000000" font-family="sans-serif" font-size="14" lengthAdjust="spacing" textLength="90" x="600" y="1394.1476">@type : String</text></g><!--class DataAccessEndpoint--><g id="elem_DataAccessEndpoint"><rect codeLine="120" fill="#FCF2E3" height="299.75" id="DataAccessEndpoint" rx="2.5" ry="2.5" style="stroke:#181818;stroke-width:0.5;" width="158" x="594" y="1521.9875"/><text fill="#000000" font-family="sans-serif" font-size="14" lengthAdjust="spacing" textLength="131" x="607.5" y="1541.5207">DataAccessEndpoint</text><line style="stroke:#181818;stroke-width:0.5;" x1="595" x2="751" y1="1549.5969" y2="1549.5969"/><text fill="#000000" font-family="sans-serif" font-size="14" lengthAdjust="spacing" textLength="100" x="600" y="1568.1301">apiType : String</text><text fill="#000000" font-family="sans-serif" font-size="14" lengthAdjust="spacing" textLength="104" x="600" y="1585.7395">category : String</text><text fill="#000000" font-family="sans-serif" font-size="14" lengthAdjust="spacing" textLength="118" x="600" y="1603.3488">description : String</text><text fill="#000000" font-family="sans-serif" font-size="14" lengthAdjust="spacing" textLength="127" x="600" y="1620.9582">endDate : DateTime</text><text fill="#000000" font-family="sans-serif" font-size="14" lengthAdjust="spacing" textLength="74" x="600" y="1638.5676">href : String</text><text fill="#000000" font-family="sans-serif" font-size="14" lengthAdjust="spacing" textLength="60" x="600" y="1656.177">id : String</text><text fill="#000000" font-family="sans-serif" font-size="14" lengthAdjust="spacing" textLength="132" x="600" y="1673.7863">lifecycleState : String</text><text fill="#000000" font-family="sans-serif" font-size="14" lengthAdjust="spacing" textLength="84" x="600" y="1691.3957">name : String</text><text fill="#000000" font-family="sans-serif" font-size="14" lengthAdjust="spacing" textLength="131" x="600" y="1709.0051">startDate : DateTime</text><text fill="#000000" font-family="sans-serif" font-size="14" lengthAdjust="spacing" textLength="65" x="600" y="1726.6145">uri : String</text><text fill="#000000" font-family="sans-serif" font-size="14" lengthAdjust="spacing" textLength="83" x="600" y="1744.2238">value : String</text><text fill="#000000" font-family="sans-serif" font-size="14" lengthAdjust="spacing" textLength="95" x="600" y="1761.8332">version : String</text><text fill="#000000" font-family="sans-serif" font-size="14" lengthAdjust="spacing" textLength="126" x="600" y="1779.4426">@baseType : String</text><text fill="#000000" font-family="sans-serif" font-size="14" lengthAdjust="spacing" textLength="146" x="600" y="1797.052">@schemaLocation : Uri</text><text fill="#000000" font-family="sans-serif" font-size="14" lengthAdjust="spacing" textLength="90" x="600" y="1814.6613">@type : String</text></g><!--class PartyRoleRef--><g id="elem_PartyRoleRef"><rect codeLine="138" fill="#FFFFE0" height="209.1875" id="PartyRoleRef" rx="2.5" ry="2.5" style="stroke:#181818;stroke-width:0.5;" width="158" x="981" y="1234.7975"/><text fill="#000000" font-family="sans-serif" font-size="12" font-style="italic" lengthAdjust="spacing" textLength="33" x="1043.5" y="1252.2545">&#171;Ref&#187;</text><a href="PartyRole.svg" target="_top" title="PartyRole.svg" xlink:actuate="onRequest" xlink:href="PartyRole.svg" xlink:show="new" xlink:title="PartyRole.svg" xlink:type="simple"><text fill="#0000FF" font-family="sans-serif" font-size="14" lengthAdjust="spacing" text-decoration="underline" textLength="62" x="1018" y="1269.4245">PartyRole</text></a><text fill="#000000" font-family="sans-serif" font-size="14" lengthAdjust="spacing" textLength="22" x="1080" y="1269.4245">Ref</text><line style="stroke:#181818;stroke-width:0.5;" x1="982" x2="1138" y1="1277.5006" y2="1277.5006"/><text fill="#000000" font-family="sans-serif" font-size="14" lengthAdjust="spacing" textLength="74" x="987" y="1296.0338">href : String</text><text fill="#000000" font-family="sans-serif" font-size="14" lengthAdjust="spacing" textLength="60" x="987" y="1313.6432">id : String</text><text fill="#000000" font-family="sans-serif" font-size="14" lengthAdjust="spacing" textLength="84" x="987" y="1331.2526">name : String</text><text fill="#000000" font-family="sans-serif" font-size="14" lengthAdjust="spacing" textLength="92" x="987" y="1348.862">partyId : String</text><text fill="#000000" font-family="sans-serif" font-size="14" lengthAdjust="spacing" textLength="117" x="987" y="1366.4713">partyName : String</text><text fill="#000000" font-family="sans-serif" font-size="14" lengthAdjust="spacing" textLength="126" x="987" y="1384.0807">@baseType : String</text><text fill="#000000" font-family="sans-serif" font-size="14" lengthAdjust="spacing" textLength="146" x="987" y="1401.6901">@referredType : String</text><text fill="#000000" font-family="sans-serif" font-size="14" lengthAdjust="spacing" textLength="146" x="987" y="1419.2995">@schemaLocation : Uri</text><text fill="#000000" font-family="sans-serif" font-size="14" lengthAdjust="spacing" textLength="90" x="987" y="1436.9088">@type : String</text></g><!--class Place--><g id="elem_Place"><rect codeLine="150" fill="#FCF2E3" height="141.2656" id="Place" rx="2.5" ry="2.5" style="stroke:#181818;stroke-width:0.5;" width="158" x="1174" y="1268.7575"/><text fill="#000000" font-family="sans-serif" font-size="14" lengthAdjust="spacing" textLength="35" x="1235.5" y="1288.2907">Place</text><line style="stroke:#181818;stroke-width:0.5;" x1="1175" x2="1331" y1="1296.3669" y2="1296.3669"/><text fill="#000000" font-family="sans-serif" font-size="14" lengthAdjust="spacing" textLength="74" x="1180" y="1314.9001">href : String</text><text fill="#000000" font-family="sans-serif" font-size="14" lengthAdjust="spacing" textLength="60" x="1180" y="1332.5095">id : String</text><text fill="#000000" font-family="sans-serif" font-size="14" lengthAdjust="spacing" textLength="84" x="1180" y="1350.1188">name : String</text><text fill="#000000" font-family="sans-serif" font-size="14" lengthAdjust="spacing" textLength="126" x="1180" y="1367.7282">@baseType : String</text><text fill="#000000" font-family="sans-serif" font-size="14" lengthAdjust="spacing" textLength="146" x="1180" y="1385.3376">@schemaLocation : Uri</text><text fill="#000000" font-family="sans-serif" font-size="14" lengthAdjust="spacing" textLength="90" x="1180" y="1402.947">@type : String</text></g><!--class Address--><g id="elem_Address"><rect codeLine="159" fill="#FCF2E3" height="299.75" id="Address" rx="2.5" ry="2.5" style="stroke:#181818;stroke-width:0.5;" width="172" x="267" y="59.1875"/><text fill="#000000" font-family="sans-serif" font-size="14" lengthAdjust="spacing" textLength="52" x="327" y="78.7207">Address</text><line style="stroke:#181818;stroke-width:0.5;" x1="268" x2="438" y1="86.7969" y2="86.7969"/><text fill="#000000" font-family="sans-serif" font-size="14" lengthAdjust="spacing" textLength="70" x="273" y="105.3301">city : String</text><text fill="#000000" font-family="sans-serif" font-size="14" lengthAdjust="spacing" textLength="96" x="273" y="122.9395">country : String</text><text fill="#000000" font-family="sans-serif" font-size="14" lengthAdjust="spacing" textLength="92" x="273" y="140.5488">locality : String</text><text fill="#000000" font-family="sans-serif" font-size="14" lengthAdjust="spacing" textLength="107" x="273" y="158.1582">postcode : String</text><text fill="#000000" font-family="sans-serif" font-size="14" lengthAdjust="spacing" textLength="151" x="273" y="175.7676">stateOrProvince : String</text><text fill="#000000" font-family="sans-serif" font-size="14" lengthAdjust="spacing" textLength="121" x="273" y="193.377">streetName : String</text><text fill="#000000" font-family="sans-serif" font-size="14" lengthAdjust="spacing" textLength="99" x="273" y="210.9863">streetNr : String</text><text fill="#000000" font-family="sans-serif" font-size="14" lengthAdjust="spacing" textLength="126" x="273" y="228.5957">streetNrLast : String</text><text fill="#000000" font-family="sans-serif" font-size="14" lengthAdjust="spacing" textLength="160" x="273" y="246.2051">streetNrLastSuffix : String</text><text fill="#000000" font-family="sans-serif" font-size="14" lengthAdjust="spacing" textLength="133" x="273" y="263.8145">streetNrSuffix : String</text><text fill="#000000" font-family="sans-serif" font-size="14" lengthAdjust="spacing" textLength="119" x="273" y="281.4238">streetSuffix : String</text><text fill="#000000" font-family="sans-serif" font-size="14" lengthAdjust="spacing" textLength="117" x="273" y="299.0332">streetType : String</text><text fill="#000000" font-family="sans-serif" font-size="14" lengthAdjust="spacing" textLength="126" x="273" y="316.6426">@baseType : String</text><text fill="#000000" font-family="sans-serif" font-size="14" lengthAdjust="spacing" textLength="146" x="273" y="334.252">@schemaLocation : Uri</text><text fill="#000000" font-family="sans-serif" font-size="14" lengthAdjust="spacing" textLength="90" x="273" y="351.8613">@type : String</text></g><!--class SubAddress--><g id="elem_SubAddress"><rect codeLine="177" fill="#FCF2E3" height="282.1406" id="SubAddress" rx="2.5" ry="2.5" style="stroke:#181818;stroke-width:0.5;" width="191" x="544.5" y="67.9975"/><text fill="#000000" font-family="sans-serif" font-size="14" lengthAdjust="spacing" textLength="77" x="601.5" y="87.5307">SubAddress</text><line style="stroke:#181818;stroke-width:0.5;" x1="545.5" x2="734.5" y1="95.6069" y2="95.6069"/><text fill="#000000" font-family="sans-serif" font-size="14" lengthAdjust="spacing" textLength="134" x="550.5" y="114.1401">buildingName : String</text><text fill="#000000" font-family="sans-serif" font-size="14" lengthAdjust="spacing" textLength="74" x="550.5" y="131.7495">href : String</text><text fill="#000000" font-family="sans-serif" font-size="14" lengthAdjust="spacing" textLength="60" x="550.5" y="149.3588">id : String</text><text fill="#000000" font-family="sans-serif" font-size="14" lengthAdjust="spacing" textLength="127" x="550.5" y="166.9682">levelNumber : String</text><text fill="#000000" font-family="sans-serif" font-size="14" lengthAdjust="spacing" textLength="110" x="550.5" y="184.5776">levelType : String</text><text fill="#000000" font-family="sans-serif" font-size="14" lengthAdjust="spacing" textLength="84" x="550.5" y="202.187">name : String</text><text fill="#000000" font-family="sans-serif" font-size="14" lengthAdjust="spacing" textLength="166" x="550.5" y="219.7963">privateStreetName : String</text><text fill="#000000" font-family="sans-serif" font-size="14" lengthAdjust="spacing" textLength="179" x="550.5" y="237.4057">privateStreetNumber : String</text><text fill="#000000" font-family="sans-serif" font-size="14" lengthAdjust="spacing" textLength="156" x="550.5" y="255.0151">subAddressType : String</text><text fill="#000000" font-family="sans-serif" font-size="14" lengthAdjust="spacing" textLength="145" x="550.5" y="272.6245">subUnitNumber : String</text><text fill="#000000" font-family="sans-serif" font-size="14" lengthAdjust="spacing" textLength="128" x="550.5" y="290.2338">subUnitType : String</text><text fill="#000000" font-family="sans-serif" font-size="14" lengthAdjust="spacing" textLength="126" x="550.5" y="307.8432">@baseType : String</text><text fill="#000000" font-family="sans-serif" font-size="14" lengthAdjust="spacing" textLength="146" x="550.5" y="325.4526">@schemaLocation : Uri</text><text fill="#000000" font-family="sans-serif" font-size="14" lengthAdjust="spacing" textLength="90" x="550.5" y="343.062">@type : String</text></g><!--class GeographicLocation--><g id="elem_GeographicLocation"><rect codeLine="194" fill="#FCF2E3" height="141.2656" id="GeographicLocation" rx="2.5" ry="2.5" style="stroke:#181818;stroke-width:0.5;" width="158" x="872" y="726.2375"/><text fill="#000000" font-family="sans-serif" font-size="14" lengthAdjust="spacing" textLength="128" x="887" y="745.7707">GeographicLocation</text><line style="stroke:#181818;stroke-width:0.5;" x1="873" x2="1029" y1="753.8469" y2="753.8469"/><text fill="#000000" font-family="sans-serif" font-size="14" lengthAdjust="spacing" textLength="74" x="878" y="772.3801">href : String</text><text fill="#000000" font-family="sans-serif" font-size="14" lengthAdjust="spacing" textLength="60" x="878" y="789.9895">id : String</text><text fill="#000000" font-family="sans-serif" font-size="14" lengthAdjust="spacing" textLength="84" x="878" y="807.5988">name : String</text><text fill="#000000" font-family="sans-serif" font-size="14" lengthAdjust="spacing" textLength="126" x="878" y="825.2082">@baseType : String</text><text fill="#000000" font-family="sans-serif" font-size="14" lengthAdjust="spacing" textLength="146" x="878" y="842.8176">@schemaLocation : Uri</text><text fill="#000000" font-family="sans-serif" font-size="14" lengthAdjust="spacing" textLength="90" x="878" y="860.427">@type : String</text></g><!--link IotDevice to ResourceCharacteristic--><g id="link_IotDevice_ResourceCharacteristic"><path codeLine="203" d="M673,1169.2775 C673,1215.2175 673,1239.2875 673,1271.2975 " fill="none" id="IotDevice-ResourceCharacteristic" style="stroke:#181818;stroke-width:1.0;"/><polygon fill="#181818" points="673,1157.2775,669,1163.2775,673,1169.2775,677,1163.2775,673,1157.2775" style="stroke:#181818;stroke-width:1.0;"/><polygon fill="#181818" points="673,1277.2975,677,1268.2975,673,1272.2975,669,1268.2975,673,1277.2975" style="stroke:#181818;stroke-width:1.0;"/><text fill="#000000" font-family="sans-serif" font-size="13" lengthAdjust="spacing" textLength="78" x="674" y="1201.2926">characteristic</text><text fill="#000000" font-family="sans-serif" font-size="13" lengthAdjust="spacing" textLength="20" x="651.8438" y="1266.7078">0..*</text></g><!--link IotDevice to Note--><g id="link_IotDevice_Note"><path codeLine="205" d="M550.9957,1139.559 C533.5257,1188.499 523.0871,1217.7167 510.0471,1254.2467 " fill="none" id="IotDevice-Note" style="stroke:#181818;stroke-width:1.0;"/><polygon fill="#181818" points="555.03,1128.2575,549.2457,1132.5635,550.9957,1139.559,556.78,1135.253,555.03,1128.2575" style="stroke:#181818;stroke-width:1.0;"/><polygon fill="#181818" points="508.03,1259.8975,514.8229,1252.7661,509.7109,1255.1885,507.2885,1250.0766,508.03,1259.8975" style="stroke:#181818;stroke-width:1.0;"/><text fill="#000000" font-family="sans-serif" font-size="13" lengthAdjust="spacing" textLength="25" x="533" y="1201.2926">note</text><text fill="#000000" font-family="sans-serif" font-size="13" lengthAdjust="spacing" textLength="20" x="489.7485" y="1249.0698">0..*</text></g><!--link IotDevice to RelatedParty--><g id="link_IotDevice_RelatedParty"><path codeLine="207" d="M548.1165,972.7433 C480.3865,1067.5933 408.497,1168.2648 353.087,1245.8548 " fill="none" id="IotDevice-RelatedParty" style="stroke:#181818;stroke-width:1.0;"/><polygon fill="#181818" points="555.09,962.9775,548.348,965.5359,548.1165,972.7433,554.8585,970.1849,555.09,962.9775" style="stroke:#181818;stroke-width:1.0;"/><polygon fill="#181818" points="349.6,1250.7375,358.0856,1245.738,352.5058,1246.6685,351.5753,1241.0888,349.6,1250.7375" style="stroke:#181818;stroke-width:1.0;"/><text fill="#000000" font-family="sans-serif" font-size="13" lengthAdjust="spacing" textLength="70" x="392" y="1201.2926">relatedParty</text><text fill="#000000" font-family="sans-serif" font-size="13" lengthAdjust="spacing" textLength="20" x="333.9559" y="1240.2432">0..*</text></g><!--link IotDevice to PartyRoleRef--><g id="link_IotDevice_PartyRoleRef"><path codeLine="209" d="M796.9218,1073.7863 C816.2718,1106.6263 831.64,1128.2875 855,1156.7975 C890.5,1200.1275 911.91,1197.8375 954,1234.7975 C962.8,1242.5275 967.4489,1246.6673 976.3289,1255.0173 " fill="none" id="IotDevice-PartyRoleRef" style="stroke:#181818;stroke-width:1.0;"/><polygon fill="#181818" points="790.83,1063.4475,790.4297,1070.6475,796.9218,1073.7863,797.3222,1066.5863,790.83,1063.4475" style="stroke:#181818;stroke-width:1.0;"/><polygon fill="#181818" points="980.7,1259.1275,976.8835,1250.0482,977.0574,1255.7023,971.4033,1255.8763,980.7,1259.1275" style="stroke:#181818;stroke-width:1.0;"/><text fill="#000000" font-family="sans-serif" font-size="13" lengthAdjust="spacing" textLength="55" x="912" y="1201.2926">partyRole</text><text fill="#000000" font-family="sans-serif" font-size="13" lengthAdjust="spacing" textLength="20" x="953.0258" y="1249.0526">0..*</text></g><!--link IotDevice to Place--><g id="link_IotDevice_Place"><path codeLine="211" d="M798.0154,1098.4951 C816.6454,1123.9051 830.81,1137.5475 855,1156.7975 C898.35,1191.3075 922.34,1172.9975 976,1186.7975 C1056.18,1207.4275 1084.96,1192.2675 1156,1234.7975 C1171.01,1243.7875 1180.9074,1251.5149 1193.5174,1264.1249 " fill="none" id="IotDevice-Place" style="stroke:#181818;stroke-width:1.0;"/><polygon fill="#181818" points="790.92,1088.8175,791.2418,1096.0214,798.0154,1098.4951,797.6935,1091.2912,790.92,1088.8175" style="stroke:#181818;stroke-width:1.0;"/><polygon fill="#181818" points="1197.76,1268.3675,1194.2245,1259.1751,1194.2245,1264.832,1188.5676,1264.832,1197.76,1268.3675" style="stroke:#181818;stroke-width:1.0;"/><text fill="#000000" font-family="sans-serif" font-size="13" lengthAdjust="spacing" textLength="31" x="1079" y="1201.2926">place</text><text fill="#000000" font-family="sans-serif" font-size="13" lengthAdjust="spacing" textLength="22" x="1168.929" y="1257.7315">0..1</text></g><!--link IotDevice to ResourceRelationship--><g id="link_IotDevice_ResourceRelationship"><path codeLine="213" d="M546.27,908.906 C447.52,996.216 312.55,1117.5875 191,1234.7975 C174,1251.1875 160.0487,1265.2019 143.9087,1281.8319 " fill="none" id="IotDevice-ResourceRelationship" style="stroke:#181818;stroke-width:1.0;"/><polygon fill="#181818" points="555.26,900.9575,548.1155,901.9351,546.27,908.906,553.4145,907.9284,555.26,900.9575" style="stroke:#181818;stroke-width:1.0;"/><polygon fill="#181818" points="139.73,1286.1375,148.8685,1282.4649,143.2123,1282.5495,143.1277,1276.8933,139.73,1286.1375" style="stroke:#181818;stroke-width:1.0;"/><text fill="#000000" font-family="sans-serif" font-size="13" lengthAdjust="spacing" textLength="121" x="231" y="1201.2926">resourceRelationship</text><text fill="#000000" font-family="sans-serif" font-size="13" lengthAdjust="spacing" textLength="20" x="125.0687" y="1275.4253">0..*</text></g><!--link IotDevice to DataAccessEndpoint--><g id="link_IotDevice_DataAccessEndpoint"><path codeLine="215" d="M761.623,1168.9173 C765.513,1195.1073 766.89,1209.3575 769,1234.7975 C776.67,1327.4575 776.67,1351.3275 769,1443.9875 C767.22,1465.5375 767.62,1471.3975 761,1491.9875 C757.82,1501.8675 756.3862,1506.3178 752.4362,1516.3078 " fill="none" id="IotDevice-DataAccessEndpoint" style="stroke:#181818;stroke-width:1.0;"/><polygon fill="#181818" points="759.86,1157.0475,756.7849,1163.5701,761.623,1168.9173,764.6981,1162.3947,759.86,1157.0475" style="stroke:#181818;stroke-width:1.0;"/><polygon fill="#181818" points="750.23,1521.8875,757.2591,1514.9888,752.0685,1517.2378,749.8195,1512.0472,750.23,1521.8875" style="stroke:#181818;stroke-width:1.0;"/><text fill="#000000" font-family="sans-serif" font-size="13" lengthAdjust="spacing" textLength="122" x="775" y="1344.8926">dataAccessEndPoint</text><text fill="#000000" font-family="sans-serif" font-size="13" lengthAdjust="spacing" textLength="20" x="733.6965" y="1511.2461">0..*</text></g><!--link Note to DataAccessEndpoint--><g id="link_Note_DataAccessEndpoint"><path codeLine="217" d="M529.0063,1424.3084 C549.2463,1458.9584 564.5267,1485.1362 587.5567,1524.5562 " fill="none" id="Note-DataAccessEndpoint" style="stroke:#181818;stroke-width:1.0;"/><polygon fill="#181818" points="525.98,1419.1275,527.0655,1428.9164,528.5019,1423.4449,533.9734,1424.8813,525.98,1419.1275" style="stroke:#181818;stroke-width:1.0;"/><polygon fill="#181818" points="593.61,1534.9175,594.0371,1527.7191,587.5567,1524.5562,587.1296,1531.7546,593.61,1534.9175" style="stroke:#181818;stroke-width:1.0;"/><text fill="#000000" font-family="sans-serif" font-size="13" lengthAdjust="spacing" textLength="25" x="566" y="1488.4826">note</text><text fill="#000000" font-family="sans-serif" font-size="13" lengthAdjust="spacing" textLength="20" x="509.1845" y="1440.4519">0..*</text></g><!--link PartyRoleRef to DataAccessEndpoint--><g id="link_PartyRoleRef_DataAccessEndpoint"><path codeLine="219" d="M976.2461,1423.6754 C967.3761,1432.0454 962.75,1436.2075 954,1443.9875 C888.04,1502.6175 819.1219,1557.9769 761.9319,1602.5869 " fill="none" id="PartyRoleRef-DataAccessEndpoint" style="stroke:#181818;stroke-width:1.0;"/><polygon fill="#181818" points="980.61,1419.5575,971.319,1422.8251,976.9735,1422.9891,976.8095,1428.6435,980.61,1419.5575" style="stroke:#181818;stroke-width:1.0;"/><polygon fill="#181818" points="752.47,1609.9675,759.6611,1609.4312,761.9319,1602.5869,754.7408,1603.1233,752.47,1609.9675" style="stroke:#181818;stroke-width:1.0;"/><text fill="#000000" font-family="sans-serif" font-size="13" lengthAdjust="spacing" textLength="55" x="917" y="1488.4826">partyRole</text><text fill="#000000" font-family="sans-serif" font-size="13" lengthAdjust="spacing" textLength="20" x="952.928" y="1423.2695">0..*</text></g><!--link Place to DataAccessEndpoint--><g id="link_Place_DataAccessEndpoint"><path codeLine="221" d="M1190.3268,1414.5295 C1178.3268,1426.6395 1169.45,1434.2075 1156,1443.9875 C1026.75,1537.9675 863.6746,1604.2539 763.6746,1640.1439 " fill="none" id="Place-DataAccessEndpoint" style="stroke:#181818;stroke-width:1.0;"/><polygon fill="#181818" points="1194.55,1410.2675,1185.3738,1413.8449,1191.0306,1413.8191,1191.0564,1419.4759,1194.55,1410.2675" style="stroke:#181818;stroke-width:1.0;"/><polygon fill="#181818" points="752.38,1644.1975,759.3785,1645.9356,763.6746,1640.1439,756.6761,1638.4058,752.38,1644.1975" style="stroke:#181818;stroke-width:1.0;"/><text fill="#000000" font-family="sans-serif" font-size="13" lengthAdjust="spacing" textLength="31" x="1109" y="1488.4826">place</text><text fill="#000000" font-family="sans-serif" font-size="13" lengthAdjust="spacing" textLength="22" x="1165.7135" y="1431.5444">0..1</text></g><!--link RelatedParty to DataAccessEndpoint--><g id="link_RelatedParty_DataAccessEndpoint"><path codeLine="223" d="M370.7518,1431.5107 C376.5818,1437.2607 378.19,1438.6575 384,1443.9875 C451.48,1505.8375 524.4651,1562.4977 584.0651,1606.6177 " fill="none" id="RelatedParty-DataAccessEndpoint" style="stroke:#181818;stroke-width:1.0;"/><polygon fill="#181818" points="366.48,1427.2975,370.079,1436.4652,370.0399,1430.8085,375.6966,1430.7694,366.48,1427.2975" style="stroke:#181818;stroke-width:1.0;"/><polygon fill="#181818" points="593.71,1613.7575,591.2675,1606.9727,584.0651,1606.6177,586.5076,1613.4026,593.71,1613.7575" style="stroke:#181818;stroke-width:1.0;"/><text fill="#000000" font-family="sans-serif" font-size="13" lengthAdjust="spacing" textLength="70" x="438" y="1488.4826">relatedParty</text><text fill="#000000" font-family="sans-serif" font-size="13" lengthAdjust="spacing" textLength="20" x="352.4509" y="1449.0498">0..*</text></g><!--link ResourceCharacteristic to DataAccessEndpoint--><g id="link_ResourceCharacteristic_DataAccessEndpoint"><path codeLine="225" d="M673,1407.3875 C673,1441.3375 673,1467.1975 673,1509.6375 " fill="none" id="ResourceCharacteristic-DataAccessEndpoint" style="stroke:#181818;stroke-width:1.0;"/><polygon fill="#181818" points="673,1401.3875,669,1410.3875,673,1406.3875,677,1410.3875,673,1401.3875" style="stroke:#181818;stroke-width:1.0;"/><polygon fill="#181818" points="673,1521.6375,677,1515.6375,673,1509.6375,669,1515.6375,673,1521.6375" style="stroke:#181818;stroke-width:1.0;"/><text fill="#000000" font-family="sans-serif" font-size="13" lengthAdjust="spacing" textLength="78" x="674" y="1488.4826">characteristic</text><text fill="#000000" font-family="sans-serif" font-size="13" lengthAdjust="spacing" textLength="20" x="651.9063" y="1422.5572">0..*</text></g><!--link ResourceRelationship to DataAccessEndpoint--><g id="link_ResourceRelationship_DataAccessEndpoint"><path codeLine="227" d="M138.4381,1397.2306 C155.0281,1414.8906 170.7,1429.4075 191,1443.9875 C320.4,1536.9175 482.6025,1603.3966 582.2625,1639.6366 " fill="none" id="ResourceRelationship-DataAccessEndpoint" style="stroke:#181818;stroke-width:1.0;"/><polygon fill="#181818" points="134.33,1392.8575,137.5768,1402.1558,137.7534,1396.5017,143.4075,1396.6783,134.33,1392.8575" style="stroke:#181818;stroke-width:1.0;"/><polygon fill="#181818" points="593.54,1643.7375,589.2682,1637.9279,582.2625,1639.6366,586.5343,1645.4462,593.54,1643.7375" style="stroke:#181818;stroke-width:1.0;"/><text fill="#000000" font-family="sans-serif" font-size="13" lengthAdjust="spacing" textLength="121" x="265" y="1488.4826">resourceRelationship</text><text fill="#000000" font-family="sans-serif" font-size="13" lengthAdjust="spacing" textLength="20" x="118.514" y="1413.8653">0..*</text></g><!--link IotDevice to Rule--><g id="link_IotDevice_Rule"><path codeLine="229" d="M798.667,501.6857 C817.207,479.9957 830.67,470.0375 855,455.4275 C928.17,411.5175 978.91,403.9875 1047,455.4275 C1139.44,525.2675 1148.559,670.6691 1146.809,746.1791 " fill="none" id="IotDevice-Rule" style="stroke:#181818;stroke-width:1.0;"/><polygon fill="#181818" points="790.87,510.8075,797.8091,508.8456,798.667,501.6857,791.7279,503.6476,790.87,510.8075" style="stroke:#181818;stroke-width:1.0;"/><polygon fill="#181818" points="1146.67,752.1775,1150.8775,743.2726,1146.7858,747.1788,1142.8796,743.0872,1146.67,752.1775" style="stroke:#181818;stroke-width:1.0;"/><text fill="#000000" font-family="sans-serif" font-size="13" lengthAdjust="spacing" textLength="21" x="986.5" y="403.4326">rule</text><text fill="#000000" font-family="sans-serif" font-size="13" lengthAdjust="spacing" textLength="20" x="1125.5476" y="741.6316">0..*</text></g><!--link IotDevice to GeographicLocation--><g id="link_IotDevice_GeographicLocation"><path codeLine="231" d="M802.9,796.8675 C830.13,796.8675 840.46,796.8675 865.59,796.8675 " fill="none" id="IotDevice-GeographicLocation" style="stroke:#181818;stroke-width:1.0;"/><polygon fill="#181818" points="790.9,796.8675,796.9,800.8675,802.9,796.8675,796.9,792.8675,790.9,796.8675" style="stroke:#181818;stroke-width:1.0;"/><polygon fill="#181818" points="871.59,796.8675,862.59,792.8675,866.59,796.8675,862.59,800.8675,871.59,796.8675" style="stroke:#181818;stroke-width:1.0;"/><text fill="#000000" font-family="sans-serif" font-size="13" lengthAdjust="spacing" textLength="45" x="808.75" y="790.3626">location</text><text fill="#000000" font-family="sans-serif" font-size="13" lengthAdjust="spacing" textLength="22" x="842.1029" y="811.0394">0..1</text></g><!--link Address to IotDevice--><g id="link_Address_IotDevice"><path codeLine="233" d="M437.4563,364.6732 C474.0263,431.6232 509.2274,496.0662 549.2774,569.3862 " fill="none" id="Address-IotDevice" style="stroke:#181818;stroke-width:1.0;"/><polygon fill="#181818" points="434.58,359.4075,435.3839,369.2235,436.9769,363.7955,442.4048,365.3885,434.58,359.4075" style="stroke:#181818;stroke-width:1.0;"/><polygon fill="#181818" points="555.03,579.9175,555.6641,572.7343,549.2774,569.3862,548.6433,576.5694,555.03,579.9175" style="stroke:#181818;stroke-width:1.0;"/><text fill="#000000" font-family="sans-serif" font-size="13" lengthAdjust="spacing" textLength="46" x="458" y="403.4326">address</text><text fill="#000000" font-family="sans-serif" font-size="13" lengthAdjust="spacing" textLength="22" x="415.9987" y="380.581">0..1</text></g><!--link Configuration to IotDevice--><g id="link_Configuration_IotDevice"><path codeLine="235" d="M834.1934,259.3637 C821.6034,301.2637 806.4528,351.695 784.3528,425.255 " fill="none" id="Configuration-IotDevice" style="stroke:#181818;stroke-width:1.0;"/><polygon fill="#181818" points="835.92,253.6175,829.4993,261.0857,834.4812,258.406,837.1609,263.3879,835.92,253.6175" style="stroke:#181818;stroke-width:1.0;"/><polygon fill="#181818" points="780.9,436.7475,786.4572,432.1522,784.3528,425.255,778.7955,429.8503,780.9,436.7475" style="stroke:#181818;stroke-width:1.0;"/><text fill="#000000" font-family="sans-serif" font-size="13" lengthAdjust="spacing" textLength="73" x="793" y="403.4326">configuration</text><text fill="#000000" font-family="sans-serif" font-size="13" lengthAdjust="spacing" textLength="22" x="810.3833" y="274.8569">0..1</text></g><!--link ResourceRelationship to ResourceRef--><g id="link_ResourceRelationship_ResourceRef"><path codeLine="237" d="M90,1404.7575 C90,1453.8075 90,1510.2675 90,1569.8075 " fill="none" id="ResourceRelationship-ResourceRef" style="stroke:#181818;stroke-width:1.0;"/><polygon fill="#181818" points="90,1392.7575,86,1398.7575,90,1404.7575,94,1398.7575,90,1392.7575" style="stroke:#181818;stroke-width:1.0;"/><polygon fill="#181818" points="90,1575.8075,94,1566.8075,90,1570.8075,86,1566.8075,90,1575.8075" style="stroke:#181818;stroke-width:1.0;"/><text fill="#000000" font-family="sans-serif" font-size="13" lengthAdjust="spacing" textLength="50" x="91" y="1488.4826">resource</text><text fill="#000000" font-family="sans-serif" font-size="13" lengthAdjust="spacing" textLength="22" x="67.1578" y="1565.3491">0..1</text></g><!--link Address to SubAddress--><g id="link_Address_SubAddress"><path codeLine="239" d="M451.5,209.0675 C484.51,209.0675 504.32,209.0675 538.15,209.0675 " fill="none" id="Address-SubAddress" style="stroke:#181818;stroke-width:1.0;"/><polygon fill="#181818" points="439.5,209.0675,445.5,213.0675,451.5,209.0675,445.5,205.0675,439.5,209.0675" style="stroke:#181818;stroke-width:1.0;"/><polygon fill="#181818" points="544.15,209.0675,535.15,205.0675,539.15,209.0675,535.15,213.0675,544.15,209.0675" style="stroke:#181818;stroke-width:1.0;"/><text fill="#000000" font-family="sans-serif" font-size="13" lengthAdjust="spacing" textLength="69" x="457.25" y="202.5626">subAddress</text><text fill="#000000" font-family="sans-serif" font-size="13" lengthAdjust="spacing" textLength="22" x="514.6371" y="223.1375">0..1</text></g><rect fill="#DDDDDD" height="27.6094" id="_legend" rx="7.5" ry="7.5" style="stroke:#000000;stroke-width:1.0;" width="123" x="601" y="1839.7375"/><a href="index.htm" target="_top" title="index.htm" xlink:actuate="onRequest" xlink:href="index.htm" xlink:show="new" xlink:title="index.htm" xlink:type="simple"><text fill="#0000FF" font-family="sans-serif" font-size="14" lengthAdjust="spacing" text-decoration="underline" textLength="113" x="606" y="1859.2707">Go to API Catalog</text></a></g></svg>