<?xml version="1.0" encoding="UTF-8" standalone="no"?><svg xmlns="http://www.w3.org/2000/svg" xmlns:xlink="http://www.w3.org/1999/xlink" contentScriptType="application/ecmascript" contentStyleType="text/css" height="1549px" preserveAspectRatio="none" style="width:1412px;height:1549px;" version="1.1" viewBox="0 0 1412 1549" width="1412px" zoomAndPan="magnify"><defs><filter height="300%" id="f1o4f9ih2pt8xj" width="300%" x="-1" y="-1"><feGaussianBlur result="blurOut" stdDeviation="2.0"/><feColorMatrix in="blurOut" result="blurOut2" type="matrix" values="0 0 0 0 0 0 0 0 0 0 0 0 0 0 0 0 0 0 .4 0"/><feOffset dx="4.0" dy="4.0" in="blurOut2" result="blurOut3"/><feBlend in="SourceGraphic" in2="blurOut3" mode="normal"/></filter></defs><g><!--class IotDevice--><rect fill="#FFFFFF" filter="url(#f1o4f9ih2pt8xj)" height="558.8594" id="IotDevice" style="stroke: #A80036; stroke-width: 1.5;" width="179" x="635.5" y="366.14"/><text fill="#000000" font-family="sans-serif" font-size="12" lengthAdjust="spacingAndGlyphs" textLength="50" x="700" y="383.597">IotDevice</text><line style="stroke: #A80036; stroke-width: 1.5;" x1="636.5" x2="813.5" y1="391.2338" y2="391.2338"/><text fill="#000000" font-family="sans-serif" font-size="11" lengthAdjust="spacingAndGlyphs" textLength="106" x="641.5" y="406.6527">alternateName : String</text><text fill="#000000" font-family="sans-serif" font-size="11" lengthAdjust="spacingAndGlyphs" textLength="94" x="641.5" y="420.4886">areaServed : String</text><text fill="#000000" font-family="sans-serif" font-size="11" lengthAdjust="spacingAndGlyphs" textLength="92" x="641.5" y="434.3246">batteryLevel : Float</text><text fill="#000000" font-family="sans-serif" font-size="11" lengthAdjust="spacingAndGlyphs" textLength="120" x="641.5" y="448.1605">category : CategoryType</text><text fill="#000000" font-family="sans-serif" font-size="11" lengthAdjust="spacingAndGlyphs" textLength="98" x="641.5" y="461.9964">dataProvider : String</text><text fill="#000000" font-family="sans-serif" font-size="11" lengthAdjust="spacingAndGlyphs" textLength="112" x="641.5" y="475.8324">dateCreated : DateTime</text><text fill="#000000" font-family="sans-serif" font-size="11" lengthAdjust="spacingAndGlyphs" textLength="120" x="641.5" y="489.6683">dateFirstUsed : DateTime</text><text fill="#000000" font-family="sans-serif" font-size="11" lengthAdjust="spacingAndGlyphs" textLength="113" x="641.5" y="503.5043">dateInstalled : DateTime</text><text fill="#000000" font-family="sans-serif" font-size="11" lengthAdjust="spacingAndGlyphs" textLength="145" x="641.5" y="517.3402">dateLastCalibration : DateTime</text><text fill="#000000" font-family="sans-serif" font-size="11" lengthAdjust="spacingAndGlyphs" textLength="167" x="641.5" y="531.1761">dateLastValueReported : DateTime</text><text fill="#000000" font-family="sans-serif" font-size="11" lengthAdjust="spacingAndGlyphs" textLength="141" x="641.5" y="545.0121">dateManufactured : DateTime</text><text fill="#000000" font-family="sans-serif" font-size="11" lengthAdjust="spacingAndGlyphs" textLength="114" x="641.5" y="558.848">dateModified : DateTime</text><text fill="#000000" font-family="sans-serif" font-size="11" lengthAdjust="spacingAndGlyphs" textLength="90" x="641.5" y="572.6839">description : String</text><text fill="#000000" font-family="sans-serif" font-size="11" lengthAdjust="spacingAndGlyphs" textLength="94" x="641.5" y="586.5199">deviceState : String</text><text fill="#000000" font-family="sans-serif" font-size="11" lengthAdjust="spacingAndGlyphs" textLength="93" x="641.5" y="600.3558">deviceType : String</text><text fill="#000000" font-family="sans-serif" font-size="11" lengthAdjust="spacingAndGlyphs" textLength="93" x="641.5" y="614.1918">endDate : DateTime</text><text fill="#000000" font-family="sans-serif" font-size="11" lengthAdjust="spacingAndGlyphs" textLength="119" x="641.5" y="628.0277">firmwareVersion : String</text><text fill="#000000" font-family="sans-serif" font-size="11" lengthAdjust="spacingAndGlyphs" textLength="123" x="641.5" y="641.8636">hardwareVersion : String</text><text fill="#000000" font-family="sans-serif" font-size="11" lengthAdjust="spacingAndGlyphs" textLength="57" x="641.5" y="655.6996">href : String</text><text fill="#000000" font-family="sans-serif" font-size="11" lengthAdjust="spacingAndGlyphs" textLength="45" x="641.5" y="669.5355">id : String</text><text fill="#000000" font-family="sans-serif" font-size="11" lengthAdjust="spacingAndGlyphs" textLength="102" x="641.5" y="683.3714">lifecycleState : String</text><text fill="#000000" font-family="sans-serif" font-size="11" lengthAdjust="spacingAndGlyphs" textLength="157" x="641.5" y="697.2074">macAddress : MacAddressType</text><text fill="#000000" font-family="sans-serif" font-size="11" lengthAdjust="spacingAndGlyphs" textLength="136" x="641.5" y="711.0433">manufactureDate : DateTime</text><text fill="#000000" font-family="sans-serif" font-size="11" lengthAdjust="spacingAndGlyphs" textLength="57" x="641.5" y="724.8793">mnc : String</text><text fill="#000000" font-family="sans-serif" font-size="11" lengthAdjust="spacingAndGlyphs" textLength="63" x="641.5" y="738.7152">name : String</text><text fill="#000000" font-family="sans-serif" font-size="11" lengthAdjust="spacingAndGlyphs" textLength="87" x="641.5" y="752.5511">osVersion : String</text><text fill="#000000" font-family="sans-serif" font-size="11" lengthAdjust="spacingAndGlyphs" textLength="94" x="641.5" y="766.3871">powerState : String</text><text fill="#000000" font-family="sans-serif" font-size="11" lengthAdjust="spacingAndGlyphs" textLength="77" x="641.5" y="780.223">provider : String</text><text fill="#000000" font-family="sans-serif" font-size="11" lengthAdjust="spacingAndGlyphs" textLength="100" x="641.5" y="794.0589">serialNumber : String</text><text fill="#000000" font-family="sans-serif" font-size="11" lengthAdjust="spacingAndGlyphs" textLength="120" x="641.5" y="807.8949">softwareVersion : String</text><text fill="#000000" font-family="sans-serif" font-size="11" lengthAdjust="spacingAndGlyphs" textLength="71" x="641.5" y="821.7308">source : String</text><text fill="#000000" font-family="sans-serif" font-size="11" lengthAdjust="spacingAndGlyphs" textLength="97" x="641.5" y="835.5668">startDate : DateTime</text><text fill="#000000" font-family="sans-serif" font-size="11" lengthAdjust="spacingAndGlyphs" textLength="63" x="641.5" y="849.4027">value : String</text><text fill="#000000" font-family="sans-serif" font-size="11" lengthAdjust="spacingAndGlyphs" textLength="73" x="641.5" y="863.2386">version : String</text><text fill="#000000" font-family="sans-serif" font-size="11" lengthAdjust="spacingAndGlyphs" textLength="110" x="641.5" y="877.0746">versionNumber : String</text><text fill="#000000" font-family="sans-serif" font-size="11" lengthAdjust="spacingAndGlyphs" textLength="96" x="641.5" y="890.9105">@baseType : String</text><text fill="#000000" font-family="sans-serif" font-size="11" lengthAdjust="spacingAndGlyphs" textLength="112" x="641.5" y="904.7464">@schemaLocation : Uri</text><text fill="#000000" font-family="sans-serif" font-size="11" lengthAdjust="spacingAndGlyphs" textLength="69" x="641.5" y="918.5824">@type : String</text><!--class ResourceRelationship--><rect fill="#FCF2E3" filter="url(#f1o4f9ih2pt8xj)" height="88.4375" id="ResourceRelationship" style="stroke: #A80036; stroke-width: 1.5;" width="130" x="30" y="1057.5"/><text fill="#000000" font-family="sans-serif" font-size="12" lengthAdjust="spacingAndGlyphs" textLength="124" x="33" y="1074.957">ResourceRelationship</text><line style="stroke: #A80036; stroke-width: 1.5;" x1="31" x2="159" y1="1082.5938" y2="1082.5938"/><text fill="#000000" font-family="sans-serif" font-size="11" lengthAdjust="spacingAndGlyphs" textLength="116" x="36" y="1098.0127">relationshipType : String</text><text fill="#000000" font-family="sans-serif" font-size="11" lengthAdjust="spacingAndGlyphs" textLength="96" x="36" y="1111.8486">@baseType : String</text><text fill="#000000" font-family="sans-serif" font-size="11" lengthAdjust="spacingAndGlyphs" textLength="112" x="36" y="1125.6846">@schemaLocation : Uri</text><text fill="#000000" font-family="sans-serif" font-size="11" lengthAdjust="spacingAndGlyphs" textLength="69" x="36" y="1139.5205">@type : String</text><!--class ResourceRef--><rect fill="#FFFFE0" filter="url(#f1o4f9ih2pt8xj)" height="143.7813" id="ResourceRef" style="stroke: #A80036; stroke-width: 1.5;" width="124" x="33" y="1346.5"/><a target="_top" xlink:actuate="onRequest" xlink:href="Resource.svg" xlink:show="new" xlink:title="Resource.svg" xlink:type="simple"><text fill="#0000FF" font-family="sans-serif" font-size="12" lengthAdjust="spacingAndGlyphs" text-decoration="underline" textLength="54" x="58.5" y="1363.957">Resource</text><line style="stroke: #0000FF; stroke-width: 1.0;" x1="58.5" x2="112.5" y1="1365.957" y2="1365.957"/></a><text fill="#000000" font-family="sans-serif" font-size="12" lengthAdjust="spacingAndGlyphs" textLength="19" x="112.5" y="1363.957">Ref</text><line style="stroke: #A80036; stroke-width: 1.5;" x1="34" x2="156" y1="1371.5938" y2="1371.5938"/><text fill="#000000" font-family="sans-serif" font-size="11" lengthAdjust="spacingAndGlyphs" textLength="57" x="39" y="1387.0127">href : String</text><text fill="#000000" font-family="sans-serif" font-size="11" lengthAdjust="spacingAndGlyphs" textLength="45" x="39" y="1400.8486">id : String</text><text fill="#000000" font-family="sans-serif" font-size="11" lengthAdjust="spacingAndGlyphs" textLength="63" x="39" y="1414.6846">name : String</text><text fill="#000000" font-family="sans-serif" font-size="11" lengthAdjust="spacingAndGlyphs" textLength="63" x="39" y="1428.5205">value : String</text><text fill="#000000" font-family="sans-serif" font-size="11" lengthAdjust="spacingAndGlyphs" textLength="96" x="39" y="1442.3564">@baseType : String</text><text fill="#000000" font-family="sans-serif" font-size="11" lengthAdjust="spacingAndGlyphs" textLength="112" x="39" y="1456.1924">@referredType : String</text><text fill="#000000" font-family="sans-serif" font-size="11" lengthAdjust="spacingAndGlyphs" textLength="112" x="39" y="1470.0283">@schemaLocation : Uri</text><text fill="#000000" font-family="sans-serif" font-size="11" lengthAdjust="spacingAndGlyphs" textLength="69" x="39" y="1483.8643">@type : String</text><!--class RelatedParty--><rect fill="#FCF2E3" filter="url(#f1o4f9ih2pt8xj)" height="143.7813" id="RelatedParty" style="stroke: #A80036; stroke-width: 1.5;" width="124" x="243" y="1030"/><text fill="#000000" font-family="sans-serif" font-size="12" lengthAdjust="spacingAndGlyphs" textLength="70" x="270" y="1047.457">RelatedParty</text><line style="stroke: #A80036; stroke-width: 1.5;" x1="244" x2="366" y1="1055.0938" y2="1055.0938"/><text fill="#000000" font-family="sans-serif" font-size="11" lengthAdjust="spacingAndGlyphs" textLength="57" x="249" y="1070.5127">href : String</text><text fill="#000000" font-family="sans-serif" font-size="11" lengthAdjust="spacingAndGlyphs" textLength="45" x="249" y="1084.3486">id : String</text><text fill="#000000" font-family="sans-serif" font-size="11" lengthAdjust="spacingAndGlyphs" textLength="63" x="249" y="1098.1846">name : String</text><text fill="#000000" font-family="sans-serif" font-size="11" lengthAdjust="spacingAndGlyphs" textLength="55" x="249" y="1112.0205">role : String</text><text fill="#000000" font-family="sans-serif" font-size="11" lengthAdjust="spacingAndGlyphs" textLength="96" x="249" y="1125.8564">@baseType : String</text><text fill="#000000" font-family="sans-serif" font-size="11" lengthAdjust="spacingAndGlyphs" textLength="112" x="249" y="1139.6924">@referredType : String</text><text fill="#000000" font-family="sans-serif" font-size="11" lengthAdjust="spacingAndGlyphs" textLength="112" x="249" y="1153.5283">@schemaLocation : Uri</text><text fill="#000000" font-family="sans-serif" font-size="11" lengthAdjust="spacingAndGlyphs" textLength="69" x="249" y="1167.3643">@type : String</text><!--class Note--><rect fill="#FCF2E3" filter="url(#f1o4f9ih2pt8xj)" height="129.9453" id="Note" style="stroke: #A80036; stroke-width: 1.5;" width="124" x="450" y="1037"/><text fill="#000000" font-family="sans-serif" font-size="12" lengthAdjust="spacingAndGlyphs" textLength="26" x="499" y="1054.457">Note</text><line style="stroke: #A80036; stroke-width: 1.5;" x1="451" x2="573" y1="1062.0938" y2="1062.0938"/><text fill="#000000" font-family="sans-serif" font-size="11" lengthAdjust="spacingAndGlyphs" textLength="68" x="456" y="1077.5127">author : String</text><text fill="#000000" font-family="sans-serif" font-size="11" lengthAdjust="spacingAndGlyphs" textLength="74" x="456" y="1091.3486">date : DateTime</text><text fill="#000000" font-family="sans-serif" font-size="11" lengthAdjust="spacingAndGlyphs" textLength="45" x="456" y="1105.1846">id : String</text><text fill="#000000" font-family="sans-serif" font-size="11" lengthAdjust="spacingAndGlyphs" textLength="55" x="456" y="1119.0205">text : String</text><text fill="#000000" font-family="sans-serif" font-size="11" lengthAdjust="spacingAndGlyphs" textLength="96" x="456" y="1132.8564">@baseType : String</text><text fill="#000000" font-family="sans-serif" font-size="11" lengthAdjust="spacingAndGlyphs" textLength="112" x="456" y="1146.6924">@schemaLocation : Uri</text><text fill="#000000" font-family="sans-serif" font-size="11" lengthAdjust="spacingAndGlyphs" textLength="69" x="456" y="1160.5283">@type : String</text><!--class Configuration--><rect fill="#FCF2E3" filter="url(#f1o4f9ih2pt8xj)" height="74.6016" id="Configuration" style="stroke: #A80036; stroke-width: 1.5;" width="124" x="814" y="111.14"/><text fill="#000000" font-family="sans-serif" font-size="12" lengthAdjust="spacingAndGlyphs" textLength="74" x="839" y="128.597">Configuration</text><line style="stroke: #A80036; stroke-width: 1.5;" x1="815" x2="937" y1="136.2338" y2="136.2338"/><text fill="#000000" font-family="sans-serif" font-size="11" lengthAdjust="spacingAndGlyphs" textLength="96" x="820" y="151.6527">@baseType : String</text><text fill="#000000" font-family="sans-serif" font-size="11" lengthAdjust="spacingAndGlyphs" textLength="112" x="820" y="165.4886">@schemaLocation : Uri</text><text fill="#000000" font-family="sans-serif" font-size="11" lengthAdjust="spacingAndGlyphs" textLength="69" x="820" y="179.3246">@type : String</text><!--class Rule--><rect fill="#FCF2E3" filter="url(#f1o4f9ih2pt8xj)" height="74.6016" id="Rule" style="stroke: #A80036; stroke-width: 1.5;" width="124" x="430" y="608.57"/><text fill="#000000" font-family="sans-serif" font-size="12" lengthAdjust="spacingAndGlyphs" textLength="26" x="479" y="626.027">Rule</text><line style="stroke: #A80036; stroke-width: 1.5;" x1="431" x2="553" y1="633.6638" y2="633.6638"/><text fill="#000000" font-family="sans-serif" font-size="11" lengthAdjust="spacingAndGlyphs" textLength="96" x="436" y="649.0827">@baseType : String</text><text fill="#000000" font-family="sans-serif" font-size="11" lengthAdjust="spacingAndGlyphs" textLength="112" x="436" y="662.9186">@schemaLocation : Uri</text><text fill="#000000" font-family="sans-serif" font-size="11" lengthAdjust="spacingAndGlyphs" textLength="69" x="436" y="676.7546">@type : String</text><!--class ResourceCharacteristic--><rect fill="#FCF2E3" filter="url(#f1o4f9ih2pt8xj)" height="102.2734" id="ResourceCharacteristic" style="stroke: #A80036; stroke-width: 1.5;" width="136" x="657" y="1050.5"/><text fill="#000000" font-family="sans-serif" font-size="12" lengthAdjust="spacingAndGlyphs" textLength="130" x="660" y="1067.957">ResourceCharacteristic</text><line style="stroke: #A80036; stroke-width: 1.5;" x1="658" x2="792" y1="1075.5938" y2="1075.5938"/><text fill="#000000" font-family="sans-serif" font-size="11" lengthAdjust="spacingAndGlyphs" textLength="63" x="663" y="1091.0127">name : String</text><text fill="#000000" font-family="sans-serif" font-size="11" lengthAdjust="spacingAndGlyphs" textLength="63" x="663" y="1104.8486">value : String</text><text fill="#000000" font-family="sans-serif" font-size="11" lengthAdjust="spacingAndGlyphs" textLength="96" x="663" y="1118.6846">@baseType : String</text><text fill="#000000" font-family="sans-serif" font-size="11" lengthAdjust="spacingAndGlyphs" textLength="112" x="663" y="1132.5205">@schemaLocation : Uri</text><text fill="#000000" font-family="sans-serif" font-size="11" lengthAdjust="spacingAndGlyphs" textLength="69" x="663" y="1146.3564">@type : String</text><!--class DataAccessEndpoint--><rect fill="#FCF2E3" filter="url(#f1o4f9ih2pt8xj)" height="240.6328" id="DataAccessEndpoint" style="stroke: #A80036; stroke-width: 1.5;" width="124" x="663" y="1298"/><text fill="#000000" font-family="sans-serif" font-size="12" lengthAdjust="spacingAndGlyphs" textLength="115" x="667.5" y="1315.457">DataAccessEndpoint</text><line style="stroke: #A80036; stroke-width: 1.5;" x1="664" x2="786" y1="1323.0938" y2="1323.0938"/><text fill="#000000" font-family="sans-serif" font-size="11" lengthAdjust="spacingAndGlyphs" textLength="75" x="669" y="1338.5127">apiType : String</text><text fill="#000000" font-family="sans-serif" font-size="11" lengthAdjust="spacingAndGlyphs" textLength="80" x="669" y="1352.3486">category : String</text><text fill="#000000" font-family="sans-serif" font-size="11" lengthAdjust="spacingAndGlyphs" textLength="90" x="669" y="1366.1846">description : String</text><text fill="#000000" font-family="sans-serif" font-size="11" lengthAdjust="spacingAndGlyphs" textLength="93" x="669" y="1380.0205">endDate : DateTime</text><text fill="#000000" font-family="sans-serif" font-size="11" lengthAdjust="spacingAndGlyphs" textLength="57" x="669" y="1393.8564">href : String</text><text fill="#000000" font-family="sans-serif" font-size="11" lengthAdjust="spacingAndGlyphs" textLength="45" x="669" y="1407.6924">id : String</text><text fill="#000000" font-family="sans-serif" font-size="11" lengthAdjust="spacingAndGlyphs" textLength="102" x="669" y="1421.5283">lifecycleState : String</text><text fill="#000000" font-family="sans-serif" font-size="11" lengthAdjust="spacingAndGlyphs" textLength="63" x="669" y="1435.3643">name : String</text><text fill="#000000" font-family="sans-serif" font-size="11" lengthAdjust="spacingAndGlyphs" textLength="97" x="669" y="1449.2002">startDate : DateTime</text><text fill="#000000" font-family="sans-serif" font-size="11" lengthAdjust="spacingAndGlyphs" textLength="49" x="669" y="1463.0361">uri : String</text><text fill="#000000" font-family="sans-serif" font-size="11" lengthAdjust="spacingAndGlyphs" textLength="63" x="669" y="1476.8721">value : String</text><text fill="#000000" font-family="sans-serif" font-size="11" lengthAdjust="spacingAndGlyphs" textLength="73" x="669" y="1490.708">version : String</text><text fill="#000000" font-family="sans-serif" font-size="11" lengthAdjust="spacingAndGlyphs" textLength="96" x="669" y="1504.5439">@baseType : String</text><text fill="#000000" font-family="sans-serif" font-size="11" lengthAdjust="spacingAndGlyphs" textLength="112" x="669" y="1518.3799">@schemaLocation : Uri</text><text fill="#000000" font-family="sans-serif" font-size="11" lengthAdjust="spacingAndGlyphs" textLength="69" x="669" y="1532.2158">@type : String</text><!--class PartyRoleRef--><rect fill="#FFFFE0" filter="url(#f1o4f9ih2pt8xj)" height="157.6172" id="PartyRoleRef" style="stroke: #A80036; stroke-width: 1.5;" width="124" x="1070" y="1023"/><a target="_top" xlink:actuate="onRequest" xlink:href="PartyRole.svg" xlink:show="new" xlink:title="PartyRole.svg" xlink:type="simple"><text fill="#0000FF" font-family="sans-serif" font-size="12" lengthAdjust="spacingAndGlyphs" text-decoration="underline" textLength="53" x="1096" y="1040.457">PartyRole</text><line style="stroke: #0000FF; stroke-width: 1.0;" x1="1096" x2="1149" y1="1042.457" y2="1042.457"/></a><text fill="#000000" font-family="sans-serif" font-size="12" lengthAdjust="spacingAndGlyphs" textLength="19" x="1149" y="1040.457">Ref</text><line style="stroke: #A80036; stroke-width: 1.5;" x1="1071" x2="1193" y1="1048.0938" y2="1048.0938"/><text fill="#000000" font-family="sans-serif" font-size="11" lengthAdjust="spacingAndGlyphs" textLength="57" x="1076" y="1063.5127">href : String</text><text fill="#000000" font-family="sans-serif" font-size="11" lengthAdjust="spacingAndGlyphs" textLength="45" x="1076" y="1077.3486">id : String</text><text fill="#000000" font-family="sans-serif" font-size="11" lengthAdjust="spacingAndGlyphs" textLength="63" x="1076" y="1091.1846">name : String</text><text fill="#000000" font-family="sans-serif" font-size="11" lengthAdjust="spacingAndGlyphs" textLength="70" x="1076" y="1105.0205">partyId : String</text><text fill="#000000" font-family="sans-serif" font-size="11" lengthAdjust="spacingAndGlyphs" textLength="89" x="1076" y="1118.8564">partyName : String</text><text fill="#000000" font-family="sans-serif" font-size="11" lengthAdjust="spacingAndGlyphs" textLength="96" x="1076" y="1132.6924">@baseType : String</text><text fill="#000000" font-family="sans-serif" font-size="11" lengthAdjust="spacingAndGlyphs" textLength="112" x="1076" y="1146.5283">@referredType : String</text><text fill="#000000" font-family="sans-serif" font-size="11" lengthAdjust="spacingAndGlyphs" textLength="112" x="1076" y="1160.3643">@schemaLocation : Uri</text><text fill="#000000" font-family="sans-serif" font-size="11" lengthAdjust="spacingAndGlyphs" textLength="69" x="1076" y="1174.2002">@type : String</text><!--class Place--><rect fill="#FCF2E3" filter="url(#f1o4f9ih2pt8xj)" height="116.1094" id="Place" style="stroke: #A80036; stroke-width: 1.5;" width="124" x="1277" y="1043.5"/><text fill="#000000" font-family="sans-serif" font-size="12" lengthAdjust="spacingAndGlyphs" textLength="31" x="1323.5" y="1060.957">Place</text><line style="stroke: #A80036; stroke-width: 1.5;" x1="1278" x2="1400" y1="1068.5938" y2="1068.5938"/><text fill="#000000" font-family="sans-serif" font-size="11" lengthAdjust="spacingAndGlyphs" textLength="57" x="1283" y="1084.0127">href : String</text><text fill="#000000" font-family="sans-serif" font-size="11" lengthAdjust="spacingAndGlyphs" textLength="45" x="1283" y="1097.8486">id : String</text><text fill="#000000" font-family="sans-serif" font-size="11" lengthAdjust="spacingAndGlyphs" textLength="63" x="1283" y="1111.6846">name : String</text><text fill="#000000" font-family="sans-serif" font-size="11" lengthAdjust="spacingAndGlyphs" textLength="96" x="1283" y="1125.5205">@baseType : String</text><text fill="#000000" font-family="sans-serif" font-size="11" lengthAdjust="spacingAndGlyphs" textLength="112" x="1283" y="1139.3564">@schemaLocation : Uri</text><text fill="#000000" font-family="sans-serif" font-size="11" lengthAdjust="spacingAndGlyphs" textLength="69" x="1283" y="1153.1924">@type : String</text><!--class Address--><rect fill="#FCF2E3" filter="url(#f1o4f9ih2pt8xj)" height="240.6328" id="Address" style="stroke: #A80036; stroke-width: 1.5;" width="138" x="291" y="28.14"/><text fill="#000000" font-family="sans-serif" font-size="12" lengthAdjust="spacingAndGlyphs" textLength="46" x="337" y="45.597">Address</text><line style="stroke: #A80036; stroke-width: 1.5;" x1="292" x2="428" y1="53.2338" y2="53.2338"/><text fill="#000000" font-family="sans-serif" font-size="11" lengthAdjust="spacingAndGlyphs" textLength="54" x="297" y="68.6527">city : String</text><text fill="#000000" font-family="sans-serif" font-size="11" lengthAdjust="spacingAndGlyphs" textLength="74" x="297" y="82.4886">country : String</text><text fill="#000000" font-family="sans-serif" font-size="11" lengthAdjust="spacingAndGlyphs" textLength="70" x="297" y="96.3246">locality : String</text><text fill="#000000" font-family="sans-serif" font-size="11" lengthAdjust="spacingAndGlyphs" textLength="82" x="297" y="110.1605">postcode : String</text><text fill="#000000" font-family="sans-serif" font-size="11" lengthAdjust="spacingAndGlyphs" textLength="115" x="297" y="123.9964">stateOrProvince : String</text><text fill="#000000" font-family="sans-serif" font-size="11" lengthAdjust="spacingAndGlyphs" textLength="92" x="297" y="137.8324">streetName : String</text><text fill="#000000" font-family="sans-serif" font-size="11" lengthAdjust="spacingAndGlyphs" textLength="76" x="297" y="151.6683">streetNr : String</text><text fill="#000000" font-family="sans-serif" font-size="11" lengthAdjust="spacingAndGlyphs" textLength="97" x="297" y="165.5043">streetNrLast : String</text><text fill="#000000" font-family="sans-serif" font-size="11" lengthAdjust="spacingAndGlyphs" textLength="126" x="297" y="179.3402">streetNrLastSuffix : String</text><text fill="#000000" font-family="sans-serif" font-size="11" lengthAdjust="spacingAndGlyphs" textLength="105" x="297" y="193.1761">streetNrSuffix : String</text><text fill="#000000" font-family="sans-serif" font-size="11" lengthAdjust="spacingAndGlyphs" textLength="94" x="297" y="207.0121">streetSuffix : String</text><text fill="#000000" font-family="sans-serif" font-size="11" lengthAdjust="spacingAndGlyphs" textLength="89" x="297" y="220.848">streetType : String</text><text fill="#000000" font-family="sans-serif" font-size="11" lengthAdjust="spacingAndGlyphs" textLength="96" x="297" y="234.6839">@baseType : String</text><text fill="#000000" font-family="sans-serif" font-size="11" lengthAdjust="spacingAndGlyphs" textLength="112" x="297" y="248.5199">@schemaLocation : Uri</text><text fill="#000000" font-family="sans-serif" font-size="11" lengthAdjust="spacingAndGlyphs" textLength="69" x="297" y="262.3558">@type : String</text><!--class SubAddress--><rect fill="#FCF2E3" filter="url(#f1o4f9ih2pt8xj)" height="226.7969" id="SubAddress" style="stroke: #A80036; stroke-width: 1.5;" width="148" x="583" y="35.14"/><text fill="#000000" font-family="sans-serif" font-size="12" lengthAdjust="spacingAndGlyphs" textLength="68" x="623" y="52.597">SubAddress</text><line style="stroke: #A80036; stroke-width: 1.5;" x1="584" x2="730" y1="60.2338" y2="60.2338"/><text fill="#000000" font-family="sans-serif" font-size="11" lengthAdjust="spacingAndGlyphs" textLength="100" x="589" y="75.6527">buildingName : String</text><text fill="#000000" font-family="sans-serif" font-size="11" lengthAdjust="spacingAndGlyphs" textLength="57" x="589" y="89.4886">href : String</text><text fill="#000000" font-family="sans-serif" font-size="11" lengthAdjust="spacingAndGlyphs" textLength="45" x="589" y="103.3246">id : String</text><text fill="#000000" font-family="sans-serif" font-size="11" lengthAdjust="spacingAndGlyphs" textLength="96" x="589" y="117.1605">levelNumber : String</text><text fill="#000000" font-family="sans-serif" font-size="11" lengthAdjust="spacingAndGlyphs" textLength="83" x="589" y="130.9964">levelType : String</text><text fill="#000000" font-family="sans-serif" font-size="11" lengthAdjust="spacingAndGlyphs" textLength="63" x="589" y="144.8324">name : String</text><text fill="#000000" font-family="sans-serif" font-size="11" lengthAdjust="spacingAndGlyphs" textLength="126" x="589" y="158.6683">privateStreetName : String</text><text fill="#000000" font-family="sans-serif" font-size="11" lengthAdjust="spacingAndGlyphs" textLength="136" x="589" y="172.5043">privateStreetNumber : String</text><text fill="#000000" font-family="sans-serif" font-size="11" lengthAdjust="spacingAndGlyphs" textLength="121" x="589" y="186.3402">subAddressType : String</text><text fill="#000000" font-family="sans-serif" font-size="11" lengthAdjust="spacingAndGlyphs" textLength="110" x="589" y="200.1761">subUnitNumber : String</text><text fill="#000000" font-family="sans-serif" font-size="11" lengthAdjust="spacingAndGlyphs" textLength="97" x="589" y="214.0121">subUnitType : String</text><text fill="#000000" font-family="sans-serif" font-size="11" lengthAdjust="spacingAndGlyphs" textLength="96" x="589" y="227.848">@baseType : String</text><text fill="#000000" font-family="sans-serif" font-size="11" lengthAdjust="spacingAndGlyphs" textLength="112" x="589" y="241.6839">@schemaLocation : Uri</text><text fill="#000000" font-family="sans-serif" font-size="11" lengthAdjust="spacingAndGlyphs" textLength="69" x="589" y="255.5199">@type : String</text><!--class GeographicLocation--><rect fill="#FCF2E3" filter="url(#f1o4f9ih2pt8xj)" height="116.1094" id="GeographicLocation" style="stroke: #A80036; stroke-width: 1.5;" width="124" x="920" y="587.57"/><text fill="#000000" font-family="sans-serif" font-size="12" lengthAdjust="spacingAndGlyphs" textLength="111" x="926.5" y="605.027">GeographicLocation</text><line style="stroke: #A80036; stroke-width: 1.5;" x1="921" x2="1043" y1="612.6638" y2="612.6638"/><text fill="#000000" font-family="sans-serif" font-size="11" lengthAdjust="spacingAndGlyphs" textLength="57" x="926" y="628.0827">href : String</text><text fill="#000000" font-family="sans-serif" font-size="11" lengthAdjust="spacingAndGlyphs" textLength="45" x="926" y="641.9186">id : String</text><text fill="#000000" font-family="sans-serif" font-size="11" lengthAdjust="spacingAndGlyphs" textLength="63" x="926" y="655.7546">name : String</text><text fill="#000000" font-family="sans-serif" font-size="11" lengthAdjust="spacingAndGlyphs" textLength="96" x="926" y="669.5905">@baseType : String</text><text fill="#000000" font-family="sans-serif" font-size="11" lengthAdjust="spacingAndGlyphs" textLength="112" x="926" y="683.4264">@schemaLocation : Uri</text><text fill="#000000" font-family="sans-serif" font-size="11" lengthAdjust="spacingAndGlyphs" textLength="69" x="926" y="697.2624">@type : String</text><!--link IotDevice to ResourceCharacteristic--><path d="M725,939.62 C725,975.66 725,1009.27 725,1036.35 " fill="none" id="IotDevice-ResourceCharacteristic" style="stroke: #A80036; stroke-width: 1.0;"/><polygon fill="#A80036" points="725,1049.19,729,1040.19,725,1044.19,721,1040.19,725,1049.19" style="stroke: #A80036; stroke-width: 1.0;"/><line style="stroke: #A80036; stroke-width: 1.0;" x1="725" x2="725" y1="1044.19" y2="1036.19"/><polygon fill="#A80036" points="725,926.84,721,932.84,725,938.84,729,932.84,725,926.84" style="stroke: #A80036; stroke-width: 1.0;"/><text fill="#000000" font-family="sans-serif" font-size="13" lengthAdjust="spacingAndGlyphs" textLength="78" x="726" y="969.4951">characteristic</text><text fill="#000000" font-family="sans-serif" font-size="13" lengthAdjust="spacingAndGlyphs" textLength="20" x="703.5313" y="1039.5646">0..*</text><!--link IotDevice to Note--><path d="M628.94,852.61 C617.52,877.02 606.01,901.57 595,925 C579.7,957.56 562.73,993.49 548.14,1024.3 " fill="none" id="IotDevice-Note" style="stroke: #A80036; stroke-width: 1.0;"/><polygon fill="#A80036" points="542.69,1035.81,550.1524,1029.3825,544.8267,1031.2895,542.9196,1025.9638,542.69,1035.81" style="stroke: #A80036; stroke-width: 1.0;"/><line style="stroke: #A80036; stroke-width: 1.0;" x1="544.8267" x2="548.255" y1="1031.2895" y2="1024.055"/><polygon fill="#A80036" points="634.44,840.84,628.2742,844.5794,629.3546,851.7091,635.5203,847.9697,634.44,840.84" style="stroke: #A80036; stroke-width: 1.0;"/><text fill="#000000" font-family="sans-serif" font-size="13" lengthAdjust="spacingAndGlyphs" textLength="25" x="581" y="969.4951">note</text><text fill="#000000" font-family="sans-serif" font-size="13" lengthAdjust="spacingAndGlyphs" textLength="20" x="524.3571" y="1026.2676">0..*</text><!--link IotDevice to RelatedParty--><path d="M626.55,892.08 C616.93,904.01 606.43,915.12 595,925 C559.89,955.34 537.78,937.02 495,955 C454.29,972.11 443.66,976.94 408,1003 C397.71,1010.52 387.36,1018.99 377.41,1027.71 " fill="none" id="IotDevice-RelatedParty" style="stroke: #A80036; stroke-width: 1.0;"/><polygon fill="#A80036" points="367.92,1036.23,377.291,1033.1993,371.6425,1032.8919,371.9499,1027.2434,367.92,1036.23" style="stroke: #A80036; stroke-width: 1.0;"/><line style="stroke: #A80036; stroke-width: 1.0;" x1="371.6425" x2="377.59" y1="1032.8919" y2="1027.55"/><polygon fill="#A80036" points="634.23,882.1,627.4005,884.4146,626.9103,891.609,633.7398,889.2944,634.23,882.1" style="stroke: #A80036; stroke-width: 1.0;"/><text fill="#000000" font-family="sans-serif" font-size="13" lengthAdjust="spacingAndGlyphs" textLength="70" x="496" y="969.4951">relatedParty</text><text fill="#000000" font-family="sans-serif" font-size="13" lengthAdjust="spacingAndGlyphs" textLength="20" x="358.1191" y="1018.8812">0..*</text><!--link IotDevice to PartyRoleRef--><path d="M822.65,854.59 C839.4,879.9 858.21,904.15 879,925 C929.29,975.44 960.62,962.19 1019,1003 C1032.52,1012.45 1046.31,1023.23 1059.39,1034.1 " fill="none" id="IotDevice-PartyRoleRef" style="stroke: #A80036; stroke-width: 1.0;"/><polygon fill="#A80036" points="1069.04,1042.24,1064.7453,1033.3769,1065.2202,1039.0137,1059.5833,1039.4886,1069.04,1042.24" style="stroke: #A80036; stroke-width: 1.0;"/><line style="stroke: #A80036; stroke-width: 1.0;" x1="1065.2202" x2="1059.105" y1="1039.0137" y2="1033.855"/><polygon fill="#A80036" points="815.67,843.76,815.5579,850.9702,822.1704,853.8469,822.2825,846.6366,815.67,843.76" style="stroke: #A80036; stroke-width: 1.0;"/><text fill="#000000" font-family="sans-serif" font-size="13" lengthAdjust="spacingAndGlyphs" textLength="55" x="959" y="969.4951">partyRole</text><text fill="#000000" font-family="sans-serif" font-size="13" lengthAdjust="spacingAndGlyphs" textLength="20" x="1041.887" y="1033.0361">0..*</text><!--link IotDevice to Place--><path d="M823.29,869.13 C839.49,890.24 857.99,909.51 879,925 C931.61,963.8 959.11,941.15 1023,955 C1117.84,975.56 1150.37,957.35 1236,1003 C1251.34,1011.18 1266.06,1022.27 1279.33,1034.04 " fill="none" id="IotDevice-Place" style="stroke: #A80036; stroke-width: 1.0;"/><polygon fill="#A80036" points="1288.53,1042.55,1284.64,1033.5019,1284.8598,1039.1545,1279.2072,1039.3743,1288.53,1042.55" style="stroke: #A80036; stroke-width: 1.0;"/><line style="stroke: #A80036; stroke-width: 1.0;" x1="1284.8598" x2="1278.99" y1="1039.1545" y2="1033.72"/><polygon fill="#A80036" points="815.67,858.8,816.0083,866.0032,822.7875,868.4613,822.4492,861.2582,815.67,858.8" style="stroke: #A80036; stroke-width: 1.0;"/><text fill="#000000" font-family="sans-serif" font-size="13" lengthAdjust="spacingAndGlyphs" textLength="31" x="1156" y="969.4951">place</text><text fill="#000000" font-family="sans-serif" font-size="13" lengthAdjust="spacingAndGlyphs" textLength="22" x="1259.9064" y="1032.6446">0..1</text><!--link IotDevice to ResourceRelationship--><path d="M625.61,897.85 C616.28,907.88 606.1,917.04 595,925 C545.95,960.19 383.64,940.65 325,955 C267.6,969.05 251.18,971.78 201,1003 C180.96,1015.47 161.28,1032 144.43,1047.9 " fill="none" id="IotDevice-ResourceRelationship" style="stroke: #A80036; stroke-width: 1.0;"/><polygon fill="#A80036" points="135.41,1056.63,144.6615,1053.2522,139.0055,1053.1555,139.1023,1047.4994,135.41,1056.63" style="stroke: #A80036; stroke-width: 1.0;"/><line style="stroke: #A80036; stroke-width: 1.0;" x1="139.0055" x2="144.75" y1="1053.1555" y2="1047.59"/><polygon fill="#A80036" points="634.04,888.24,627.0779,890.1186,626.1342,897.2676,633.0963,895.3891,634.04,888.24" style="stroke: #A80036; stroke-width: 1.0;"/><text fill="#000000" font-family="sans-serif" font-size="13" lengthAdjust="spacingAndGlyphs" textLength="121" x="326" y="969.4951">resourceRelationship</text><text fill="#000000" font-family="sans-serif" font-size="13" lengthAdjust="spacingAndGlyphs" textLength="20" x="119.1761" y="1046.5853">0..*</text><!--link IotDevice to DataAccessEndpoint--><path d="M818.59,896.22 C842.77,991.45 856.63,1100.91 835,1200 C826.91,1237.05 810.97,1274.8 793.67,1308.21 " fill="none" id="IotDevice-DataAccessEndpoint" style="stroke: #A80036; stroke-width: 1.0;"/><polygon fill="#A80036" points="787.7,1319.45,795.4541,1313.3776,790.0452,1315.0341,788.3887,1309.6253,787.7,1319.45" style="stroke: #A80036; stroke-width: 1.0;"/><line style="stroke: #A80036; stroke-width: 1.0;" x1="790.0452" x2="793.8" y1="1315.0341" y2="1307.965"/><polygon fill="#A80036" points="815.33,883.73,812.9753,890.5458,818.3612,895.3408,820.7159,888.525,815.33,883.73" style="stroke: #A80036; stroke-width: 1.0;"/><text fill="#000000" font-family="sans-serif" font-size="13" lengthAdjust="spacingAndGlyphs" textLength="122" x="846" y="1106.9951">dataAccessEndPoint</text><text fill="#000000" font-family="sans-serif" font-size="13" lengthAdjust="spacingAndGlyphs" textLength="20" x="794.8639" y="1306.7624">0..*</text><!--link Note to DataAccessEndpoint--><path d="M562.9,1177.65 C590.49,1218.4 625.01,1269.36 655.09,1313.78 " fill="none" id="Note-DataAccessEndpoint" style="stroke: #A80036; stroke-width: 1.0;"/><polygon fill="#A80036" points="662.2,1324.27,662.1407,1317.0591,655.4617,1314.3405,655.521,1321.5514,662.2,1324.27" style="stroke: #A80036; stroke-width: 1.0;"/><polygon fill="#A80036" points="555.7,1167.02,557.4351,1176.7148,558.5039,1171.1598,564.0588,1172.2286,555.7,1167.02" style="stroke: #A80036; stroke-width: 1.0;"/><line style="stroke: #A80036; stroke-width: 1.0;" x1="558.5039" x2="562.985" y1="1171.1598" y2="1177.78"/><text fill="#000000" font-family="sans-serif" font-size="13" lengthAdjust="spacingAndGlyphs" textLength="25" x="607" y="1244.4951">note</text><text fill="#000000" font-family="sans-serif" font-size="13" lengthAdjust="spacingAndGlyphs" textLength="20" x="549.2219" y="1187.7534">0..*</text><!--link PartyRoleRef to DataAccessEndpoint--><path d="M1059.28,1166.66 C1046.02,1177.95 1032.21,1189.45 1019,1200 C945.57,1258.64 858.69,1322.07 798.5,1365.11 " fill="none" id="PartyRoleRef-DataAccessEndpoint" style="stroke: #A80036; stroke-width: 1.0;"/><polygon fill="#A80036" points="788.06,1372.56,795.2674,1372.3293,797.8266,1365.5876,790.6192,1365.8183,788.06,1372.56" style="stroke: #A80036; stroke-width: 1.0;"/><polygon fill="#A80036" points="1069.1,1158.24,1059.6629,1161.0578,1065.3029,1161.4931,1064.8677,1167.1331,1069.1,1158.24" style="stroke: #A80036; stroke-width: 1.0;"/><line style="stroke: #A80036; stroke-width: 1.0;" x1="1065.3029" x2="1059.23" y1="1161.4931" y2="1166.705"/><text fill="#000000" font-family="sans-serif" font-size="13" lengthAdjust="spacingAndGlyphs" textLength="55" x="980" y="1244.4951">partyRole</text><text fill="#000000" font-family="sans-serif" font-size="13" lengthAdjust="spacingAndGlyphs" textLength="20" x="1041.9539" y="1160.262">0..*</text><!--link Place to DataAccessEndpoint--><path d="M1275.93,1168.78 C1263.35,1180.04 1249.76,1190.99 1236,1200 C1093.38,1293.39 903.91,1361.32 800.41,1394.39 " fill="none" id="Place-DataAccessEndpoint" style="stroke: #A80036; stroke-width: 1.0;"/><polygon fill="#A80036" points="788.14,1398.27,795.0658,1400.2783,799.5834,1394.6577,792.6576,1392.6494,788.14,1398.27" style="stroke: #A80036; stroke-width: 1.0;"/><polygon fill="#A80036" points="1285.12,1160.32,1275.7923,1163.4813,1281.4445,1163.7098,1281.216,1169.362,1285.12,1160.32" style="stroke: #A80036; stroke-width: 1.0;"/><line style="stroke: #A80036; stroke-width: 1.0;" x1="1281.4445" x2="1275.555" y1="1163.7098" y2="1169.125"/><text fill="#000000" font-family="sans-serif" font-size="13" lengthAdjust="spacingAndGlyphs" textLength="31" x="1185" y="1244.4951">place</text><text fill="#000000" font-family="sans-serif" font-size="13" lengthAdjust="spacingAndGlyphs" textLength="22" x="1247.0918" y="1170.1987">0..1</text><!--link RelatedParty to DataAccessEndpoint--><path d="M377.18,1173.51 C387.31,1182.67 397.76,1191.74 408,1200 C487.51,1264.18 585.4,1329.27 651.18,1371.19 " fill="none" id="RelatedParty-DataAccessEndpoint" style="stroke: #A80036; stroke-width: 1.0;"/><polygon fill="#A80036" points="661.8,1377.93,658.875,1371.3388,651.6658,1371.5037,654.5908,1378.0949,661.8,1377.93" style="stroke: #A80036; stroke-width: 1.0;"/><polygon fill="#A80036" points="367.88,1164.97,371.8054,1174.0028,371.5635,1168.3511,377.2152,1168.1092,367.88,1164.97" style="stroke: #A80036; stroke-width: 1.0;"/><line style="stroke: #A80036; stroke-width: 1.0;" x1="371.5635" x2="377.455" y1="1168.3511" y2="1173.76"/><text fill="#000000" font-family="sans-serif" font-size="13" lengthAdjust="spacingAndGlyphs" textLength="70" x="468" y="1244.4951">relatedParty</text><text fill="#000000" font-family="sans-serif" font-size="13" lengthAdjust="spacingAndGlyphs" textLength="20" x="374.581" y="1190.5811">0..*</text><!--link ResourceCharacteristic to DataAccessEndpoint--><path d="M725,1166.76 C725,1200.5 725,1243.16 725,1283.65 " fill="none" id="ResourceCharacteristic-DataAccessEndpoint" style="stroke: #A80036; stroke-width: 1.0;"/><polygon fill="#A80036" points="725,1296.64,729,1290.64,725,1284.64,721,1290.64,725,1296.64" style="stroke: #A80036; stroke-width: 1.0;"/><polygon fill="#A80036" points="725,1153.85,721,1162.85,725,1158.85,729,1162.85,725,1153.85" style="stroke: #A80036; stroke-width: 1.0;"/><line style="stroke: #A80036; stroke-width: 1.0;" x1="725" x2="725" y1="1158.85" y2="1166.85"/><text fill="#000000" font-family="sans-serif" font-size="13" lengthAdjust="spacingAndGlyphs" textLength="78" x="726" y="1244.4951">characteristic</text><text fill="#000000" font-family="sans-serif" font-size="13" lengthAdjust="spacingAndGlyphs" textLength="20" x="699.375" y="1173.939">0..*</text><!--link ResourceRelationship to DataAccessEndpoint--><path d="M144.6,1154.82 C161.47,1170.71 181.1,1187.3 201,1200 C348.54,1294.18 543.85,1362.2 649.44,1394.98 " fill="none" id="ResourceRelationship-DataAccessEndpoint" style="stroke: #A80036; stroke-width: 1.0;"/><polygon fill="#A80036" points="661.66,1398.73,657.0976,1393.1457,650.1881,1395.2093,654.7505,1400.7936,661.66,1398.73" style="stroke: #A80036; stroke-width: 1.0;"/><polygon fill="#A80036" points="135.57,1146.11,139.2692,1155.2377,139.1681,1149.5818,144.8241,1149.4807,135.57,1146.11" style="stroke: #A80036; stroke-width: 1.0;"/><line style="stroke: #A80036; stroke-width: 1.0;" x1="139.1681" x2="144.93" y1="1149.5818" y2="1155.135"/><text fill="#000000" font-family="sans-serif" font-size="13" lengthAdjust="spacingAndGlyphs" textLength="121" x="283" y="1244.4951">resourceRelationship</text><text fill="#000000" font-family="sans-serif" font-size="13" lengthAdjust="spacingAndGlyphs" textLength="20" x="135.4845" y="1167.861">0..*</text><!--link Rule to IotDevice--><path d="M553.84,632.37 C567.41,629.96 581.77,627.81 595.25,626.57 C604.55,625.71 614.2,625.63 623.85,626.09 " fill="none" id="Rule-IotDevice" style="stroke: #A80036; stroke-width: 1.0;"/><polygon fill="#A80036" points="595.25,608.57,595.7978,615.7603,602.6457,618.0201,602.0979,610.8298,595.25,608.57" style="stroke: #A80036; stroke-width: 1.0;"/><polygon fill="#A80036" points="633.64,626.76,624.9385,622.1466,628.652,626.4139,624.3847,630.1275,633.64,626.76" style="stroke: #A80036; stroke-width: 1.0;"/><line style="stroke: #A80036; stroke-width: 1.0;" x1="628.652" x2="620.675" y1="626.4139" y2="625.87"/><text fill="#000000" font-family="sans-serif" font-size="13" lengthAdjust="spacingAndGlyphs" textLength="21" x="596.25" y="623.0651">rule</text><text fill="#000000" font-family="sans-serif" font-size="13" lengthAdjust="spacingAndGlyphs" textLength="20" x="561.704" y="618.4029">0..*</text><!--link IotDevice to GeographicLocation--><path d="M814.75,628.01 C835.71,625.68 857.99,624.66 878.75,626.57 C888.55,627.47 898.81,628.85 908.89,630.46 " fill="none" id="IotDevice-GeographicLocation" style="stroke: #A80036; stroke-width: 1.0;"/><polygon fill="#A80036" points="918.67,632.12,910.4638,626.6741,913.7401,631.2855,909.1287,634.5619,918.67,632.12" style="stroke: #A80036; stroke-width: 1.0;"/><line style="stroke: #A80036; stroke-width: 1.0;" x1="913.7401" x2="905.85" y1="631.2855" y2="629.95"/><polygon fill="#A80036" points="831.75,608.57,830.1605,615.6037,836.0418,619.7763,837.6313,612.7426,831.75,608.57" style="stroke: #A80036; stroke-width: 1.0;"/><text fill="#000000" font-family="sans-serif" font-size="13" lengthAdjust="spacingAndGlyphs" textLength="45" x="832.75" y="623.0651">location</text><text fill="#000000" font-family="sans-serif" font-size="13" lengthAdjust="spacingAndGlyphs" textLength="22" x="890.1931" y="627.5596">0..1</text><!--link Address to IotDevice--><path d="M440.04,209.66 C489.36,249.96 551.31,306.34 595,366.14 C606.7,382.15 617.74,399.38 628.07,417.15 " fill="none" id="Address-IotDevice" style="stroke: #A80036; stroke-width: 1.0;"/><polygon fill="#A80036" points="634.36,428.2,634.8699,421.0069,628.4262,417.7697,627.9164,424.9628,634.36,428.2" style="stroke: #A80036; stroke-width: 1.0;"/><polygon fill="#A80036" points="429.94,201.49,434.427,210.2574,433.8293,204.6322,439.4545,204.0345,429.94,201.49" style="stroke: #A80036; stroke-width: 1.0;"/><line style="stroke: #A80036; stroke-width: 1.0;" x1="433.8293" x2="440.05" y1="204.6322" y2="209.66"/><text fill="#000000" font-family="sans-serif" font-size="13" lengthAdjust="spacingAndGlyphs" textLength="46" x="570" y="332.6351">address</text><text fill="#000000" font-family="sans-serif" font-size="13" lengthAdjust="spacingAndGlyphs" textLength="22" x="436.362" y="220.718">0..1</text><!--link Configuration to IotDevice--><path d="M860.92,198.6 C849.33,236.63 832.28,292.59 814.14,352.12 " fill="none" id="Configuration-IotDevice" style="stroke: #A80036; stroke-width: 1.0;"/><polygon fill="#A80036" points="810.44,364.23,816.0132,359.6541,813.9329,352.7496,808.3596,357.3255,810.44,364.23" style="stroke: #A80036; stroke-width: 1.0;"/><polygon fill="#A80036" points="864.7,186.22,858.2511,193.6639,863.2431,191.003,865.904,195.995,864.7,186.22" style="stroke: #A80036; stroke-width: 1.0;"/><line style="stroke: #A80036; stroke-width: 1.0;" x1="863.2431" x2="860.91" y1="191.003" y2="198.655"/><text fill="#000000" font-family="sans-serif" font-size="13" lengthAdjust="spacingAndGlyphs" textLength="73" x="823" y="332.6351">configuration</text><text fill="#000000" font-family="sans-serif" font-size="13" lengthAdjust="spacingAndGlyphs" textLength="22" x="824.0125" y="207.207">0..1</text><!--link ResourceRelationship to ResourceRef--><path d="M95,1159.68 C95,1207.9 95,1277.61 95,1332.31 " fill="none" id="ResourceRelationship-ResourceRef" style="stroke: #A80036; stroke-width: 1.0;"/><polygon fill="#A80036" points="95,1345.07,99,1336.07,95,1340.07,91,1336.07,95,1345.07" style="stroke: #A80036; stroke-width: 1.0;"/><line style="stroke: #A80036; stroke-width: 1.0;" x1="95" x2="95" y1="1340.07" y2="1332.07"/><polygon fill="#A80036" points="95,1146.76,91,1152.76,95,1158.76,99,1152.76,95,1146.76" style="stroke: #A80036; stroke-width: 1.0;"/><text fill="#000000" font-family="sans-serif" font-size="13" lengthAdjust="spacingAndGlyphs" textLength="50" x="96" y="1244.4951">resource</text><text fill="#000000" font-family="sans-serif" font-size="13" lengthAdjust="spacingAndGlyphs" textLength="22" x="71.8656" y="1335.8738">0..1</text><!--link Address to SubAddress--><path d="M428.81,134.51 C442.56,132.27 456.95,130.31 470.5,129.14 C501.94,126.43 510.05,126.55 541.5,129.14 C551.45,129.96 561.85,131.18 572.14,132.6 " fill="none" id="Address-SubAddress" style="stroke: #A80036; stroke-width: 1.0;"/><polygon fill="#A80036" points="581.73,134,573.4049,128.7376,576.7828,133.2752,572.2452,136.6531,581.73,134" style="stroke: #A80036; stroke-width: 1.0;"/><line style="stroke: #A80036; stroke-width: 1.0;" x1="576.7828" x2="568.87" y1="133.2752" y2="132.125"/><polygon fill="#A80036" points="470.5,110.14,468.0971,116.939,473.449,121.772,475.8518,114.973,470.5,110.14" style="stroke: #A80036; stroke-width: 1.0;"/><text fill="#000000" font-family="sans-serif" font-size="13" lengthAdjust="spacingAndGlyphs" textLength="69" x="471.5" y="124.6351">subAddress</text><text fill="#000000" font-family="sans-serif" font-size="13" lengthAdjust="spacingAndGlyphs" textLength="22" x="552.8855" y="129.5354">0..1</text></g></svg>