<?xml version="1.0" encoding="UTF-8" standalone="no"?><svg xmlns="http://www.w3.org/2000/svg" xmlns:xlink="http://www.w3.org/1999/xlink" contentScriptType="application/ecmascript" contentStyleType="text/css" height="533px" preserveAspectRatio="none" style="width:312px;height:533px;" version="1.1" viewBox="0 0 312 533" width="312px" zoomAndPan="magnify"><defs><filter height="300%" id="f1lia8yeeojcvf" width="300%" x="-1" y="-1"><feGaussianBlur result="blurOut" stdDeviation="2.0"/><feColorMatrix in="blurOut" result="blurOut2" type="matrix" values="0 0 0 0 0 0 0 0 0 0 0 0 0 0 0 0 0 0 .4 0"/><feOffset dx="4.0" dy="4.0" in="blurOut2" result="blurOut3"/><feBlend in="SourceGraphic" in2="blurOut3" mode="normal"/></filter></defs><g><!--class Monitor--><rect fill="#FFFFFF" filter="url(#f1lia8yeeojcvf)" height="164.3594" id="Monitor" style="stroke: #A80036; stroke-width: 1.5;" width="230" x="45" y="7.64"/><text fill="#000000" font-family="sans-serif" font-size="12" lengthAdjust="spacingAndGlyphs" textLength="40" x="140" y="25.097">Monitor</text><text fill="#000000" font-family="sans-serif" font-size="12" lengthAdjust="spacingAndGlyphs" textLength="4" x="48" y="40.1908">(</text><text fill="#000000" font-family="sans-serif" font-size="9" font-style="italic" lengthAdjust="spacingAndGlyphs" textLength="17" x="52" y="40.85">from</text><a target="_top" xlink:actuate="onRequest" xlink:href="TMF924.svg" xlink:show="new" xlink:title="TMF924.svg" xlink:type="simple"><text fill="#0000FF" font-family="sans-serif" font-size="9" font-style="italic" lengthAdjust="spacingAndGlyphs" text-decoration="underline" textLength="168" x="72" y="40.85">TMF924-DCS 5GSlice ServiceActivation</text><line style="stroke: #0000FF; stroke-width: 1.0;" x1="72" x2="240" y1="42.85" y2="42.85"/></a><text fill="#000000" font-family="sans-serif" font-size="9" font-style="italic" lengthAdjust="spacingAndGlyphs" textLength="26" x="243" y="40.85">v4.0.0</text><text fill="#000000" font-family="sans-serif" font-size="9" lengthAdjust="spacingAndGlyphs" textLength="3" x="269" y="40.85">)</text><line style="stroke: #A80036; stroke-width: 1.5;" x1="46" x2="274" y1="47.8275" y2="47.8275"/><text fill="#000000" font-family="sans-serif" font-size="9" font-style="italic" lengthAdjust="spacingAndGlyphs" textLength="98" x="51" y="61.1703">Monitoring of resources</text><line style="stroke: #A80036; stroke-width: 1.0; stroke-dasharray: 1.0,2.0;" x1="46" x2="274" y1="67.1478" y2="67.1478"/><text fill="#000000" font-family="sans-serif" font-size="11" lengthAdjust="spacingAndGlyphs" textLength="57" x="51" y="82.5668">href : String</text><text fill="#000000" font-family="sans-serif" font-size="11" lengthAdjust="spacingAndGlyphs" textLength="45" x="51" y="96.4027">id : String</text><text fill="#000000" font-family="sans-serif" font-size="11" lengthAdjust="spacingAndGlyphs" textLength="92" x="51" y="110.2386">sourceHref : String</text><text fill="#000000" font-family="sans-serif" font-size="11" lengthAdjust="spacingAndGlyphs" textLength="61" x="51" y="124.0746">state : String</text><text fill="#000000" font-family="sans-serif" font-size="11" lengthAdjust="spacingAndGlyphs" textLength="96" x="51" y="137.9105">@baseType : String</text><text fill="#000000" font-family="sans-serif" font-size="11" lengthAdjust="spacingAndGlyphs" textLength="112" x="51" y="151.7464">@schemaLocation : Uri</text><text fill="#000000" font-family="sans-serif" font-size="11" lengthAdjust="spacingAndGlyphs" textLength="69" x="51" y="165.5824">@type : String</text><!--class Request--><rect fill="#FCF2E3" filter="url(#f1lia8yeeojcvf)" height="74.6016" id="Request" style="stroke: #A80036; stroke-width: 1.5;" width="84" x="30" y="270"/><text fill="#000000" font-family="sans-serif" font-size="12" lengthAdjust="spacingAndGlyphs" textLength="47" x="48.5" y="287.457">Request</text><line style="stroke: #A80036; stroke-width: 1.5;" x1="31" x2="113" y1="295.0938" y2="295.0938"/><text fill="#000000" font-family="sans-serif" font-size="11" lengthAdjust="spacingAndGlyphs" textLength="61" x="36" y="310.5127">body : String</text><text fill="#000000" font-family="sans-serif" font-size="11" lengthAdjust="spacingAndGlyphs" textLength="72" x="36" y="324.3486">method : String</text><text fill="#000000" font-family="sans-serif" font-size="11" lengthAdjust="spacingAndGlyphs" textLength="46" x="36" y="338.1846">to : String</text><!--class HeaderItem--><rect fill="#FCF2E3" filter="url(#f1lia8yeeojcvf)" height="60.7656" id="HeaderItem" style="stroke: #A80036; stroke-width: 1.5;" width="75" x="122.5" y="462"/><text fill="#000000" font-family="sans-serif" font-size="12" lengthAdjust="spacingAndGlyphs" textLength="65" x="127.5" y="479.457">HeaderItem</text><line style="stroke: #A80036; stroke-width: 1.5;" x1="123.5" x2="196.5" y1="487.0938" y2="487.0938"/><text fill="#000000" font-family="sans-serif" font-size="11" lengthAdjust="spacingAndGlyphs" textLength="63" x="128.5" y="502.5127">name : String</text><text fill="#000000" font-family="sans-serif" font-size="11" lengthAdjust="spacingAndGlyphs" textLength="63" x="128.5" y="516.3486">value : String</text><!--class Response--><rect fill="#FCF2E3" filter="url(#f1lia8yeeojcvf)" height="60.7656" id="Response" style="stroke: #A80036; stroke-width: 1.5;" width="104" x="197" y="277"/><text fill="#000000" font-family="sans-serif" font-size="12" lengthAdjust="spacingAndGlyphs" textLength="58" x="220" y="294.457">Response</text><line style="stroke: #A80036; stroke-width: 1.5;" x1="198" x2="300" y1="302.0938" y2="302.0938"/><text fill="#000000" font-family="sans-serif" font-size="11" lengthAdjust="spacingAndGlyphs" textLength="61" x="203" y="317.5127">body : String</text><text fill="#000000" font-family="sans-serif" font-size="11" lengthAdjust="spacingAndGlyphs" textLength="92" x="203" y="331.3486">statusCode : String</text><!--link Monitor to Response--><path d="M199.18,185.54 C210.51,212.95 222.32,241.48 231.59,263.9 " fill="none" id="Monitor-Response" style="stroke: #A80036; stroke-width: 1.0;"/><polygon fill="#A80036" points="236.43,275.6,236.6849,265.7544,234.5182,270.9799,229.2928,268.8133,236.43,275.6" style="stroke: #A80036; stroke-width: 1.0;"/><line style="stroke: #A80036; stroke-width: 1.0;" x1="234.5182" x2="231.455" y1="270.9799" y2="263.59"/><polygon fill="#A80036" points="194.35,173.88,192.948,180.9535,198.9382,184.9682,200.3402,177.8947,194.35,173.88" style="stroke: #A80036; stroke-width: 1.0;"/><text fill="#000000" font-family="sans-serif" font-size="13" lengthAdjust="spacingAndGlyphs" textLength="53" x="213" y="216.4951">response</text><text fill="#000000" font-family="sans-serif" font-size="13" lengthAdjust="spacingAndGlyphs" textLength="22" x="209.9809" y="266.1373">0..1</text><!--link Monitor to Request--><path d="M121.2,185.68 C111.13,210.31 100.69,235.83 92.04,257.01 " fill="none" id="Monitor-Request" style="stroke: #A80036; stroke-width: 1.0;"/><polygon fill="#A80036" points="87.2,268.83,94.3067,262.0113,89.091,264.2014,86.901,258.9857,87.2,268.83" style="stroke: #A80036; stroke-width: 1.0;"/><line style="stroke: #A80036; stroke-width: 1.0;" x1="89.091" x2="92.12" y1="264.2014" y2="256.8"/><polygon fill="#A80036" points="126.03,173.88,120.0579,177.9215,121.4915,184.9887,127.4637,180.9472,126.03,173.88" style="stroke: #A80036; stroke-width: 1.0;"/><text fill="#000000" font-family="sans-serif" font-size="13" lengthAdjust="spacingAndGlyphs" textLength="43" x="115" y="216.4951">request</text><text fill="#000000" font-family="sans-serif" font-size="13" lengthAdjust="spacingAndGlyphs" textLength="22" x="65.322" y="259.1789">0..1</text><!--link Request to HeaderItem--><path d="M95.34,356.55 C109.27,385.51 126.77,421.89 140.04,449.5 " fill="none" id="Request-HeaderItem" style="stroke: #A80036; stroke-width: 1.0;"/><polygon fill="#A80036" points="145.53,460.92,145.2376,451.0755,143.3646,456.4132,138.0268,454.5402,145.53,460.92" style="stroke: #A80036; stroke-width: 1.0;"/><line style="stroke: #A80036; stroke-width: 1.0;" x1="143.3646" x2="139.9" y1="456.4132" y2="449.2"/><polygon fill="#A80036" points="89.83,345.08,88.8231,352.2205,95.0271,355.8962,96.0339,348.7558,89.83,345.08" style="stroke: #A80036; stroke-width: 1.0;"/><text fill="#000000" font-family="sans-serif" font-size="13" lengthAdjust="spacingAndGlyphs" textLength="39" x="123" y="408.4951">header</text><text fill="#000000" font-family="sans-serif" font-size="13" lengthAdjust="spacingAndGlyphs" textLength="20" x="120.6839" y="451.0045">1..*</text><!--link Response to HeaderItem--><path d="M228.63,349.89 C214.14,379.68 194.77,419.5 180.3,449.25 " fill="none" id="Response-HeaderItem" style="stroke: #A80036; stroke-width: 1.0;"/><polygon fill="#A80036" points="174.7,460.78,182.2314,454.4335,176.8854,456.2829,175.036,450.9369,174.7,460.78" style="stroke: #A80036; stroke-width: 1.0;"/><line style="stroke: #A80036; stroke-width: 1.0;" x1="176.8854" x2="180.385" y1="456.2829" y2="449.09"/><polygon fill="#A80036" points="234.24,338.36,228.0181,342.0052,228.9898,349.1505,235.2118,345.5053,234.24,338.36" style="stroke: #A80036; stroke-width: 1.0;"/><text fill="#000000" font-family="sans-serif" font-size="13" lengthAdjust="spacingAndGlyphs" textLength="39" x="208" y="408.4951">header</text><text fill="#000000" font-family="sans-serif" font-size="13" lengthAdjust="spacingAndGlyphs" textLength="20" x="154.9237" y="451.308">1..*</text></g></svg>