<?xml version="1.0" encoding="UTF-8" standalone="no"?><svg xmlns="http://www.w3.org/2000/svg" xmlns:xlink="http://www.w3.org/1999/xlink" contentScriptType="application/ecmascript" contentStyleType="text/css" height="777px" preserveAspectRatio="none" style="width:951px;height:777px;" version="1.1" viewBox="0 0 951 777" width="951px" zoomAndPan="magnify"><defs><filter height="300%" id="f3xfm2wr7swlx" width="300%" x="-1" y="-1"><feGaussianBlur result="blurOut" stdDeviation="2.0"/><feColorMatrix in="blurOut" result="blurOut2" type="matrix" values="0 0 0 0 0 0 0 0 0 0 0 0 0 0 0 0 0 0 .4 0"/><feOffset dx="4.0" dy="4.0" in="blurOut2" result="blurOut3"/><feBlend in="SourceGraphic" in2="blurOut3" mode="normal"/></filter></defs><g><!--class PartyInteraction--><rect fill="#FFFFFF" filter="url(#f3xfm2wr7swlx)" height="172.7109" id="PartyInteraction" style="stroke: #A80036; stroke-width: 1.5;" width="169" x="373.5" y="8.29"/><text fill="#000000" font-family="sans-serif" font-size="12" lengthAdjust="spacingAndGlyphs" textLength="84" x="416" y="25.747">PartyInteraction</text><text fill="#000000" font-family="sans-serif" font-size="12" lengthAdjust="spacingAndGlyphs" textLength="4" x="376.5" y="40.8408">(</text><text fill="#000000" font-family="sans-serif" font-size="9" font-style="italic" lengthAdjust="spacingAndGlyphs" textLength="17" x="380.5" y="41.5">from</text><a target="_top" xlink:actuate="onRequest" xlink:href="TMF683.svg" xlink:show="new" xlink:title="TMF683.svg" xlink:type="simple"><text fill="#0000FF" font-family="sans-serif" font-size="9" font-style="italic" lengthAdjust="spacingAndGlyphs" text-decoration="underline" textLength="107" x="400.5" y="41.5">TMF683-Party Interaction</text><line style="stroke: #0000FF; stroke-width: 1.0;" x1="400.5" x2="507.5" y1="43.5" y2="43.5"/></a><text fill="#000000" font-family="sans-serif" font-size="9" font-style="italic" lengthAdjust="spacingAndGlyphs" textLength="26" x="510.5" y="41.5">v4.0.0</text><text fill="#000000" font-family="sans-serif" font-size="9" lengthAdjust="spacingAndGlyphs" textLength="3" x="536.5" y="41.5">)</text><line style="stroke: #A80036; stroke-width: 1.5;" x1="374.5" x2="541.5" y1="48.4775" y2="48.4775"/><text fill="#000000" font-family="sans-serif" font-size="11" lengthAdjust="spacingAndGlyphs" textLength="114" x="379.5" y="63.8964">creationDate : DateTime</text><text fill="#000000" font-family="sans-serif" font-size="11" lengthAdjust="spacingAndGlyphs" textLength="90" x="379.5" y="77.7324">description : String</text><text fill="#000000" font-family="sans-serif" font-size="11" lengthAdjust="spacingAndGlyphs" textLength="78" x="379.5" y="91.5683">direction : String</text><text fill="#000000" font-family="sans-serif" font-size="11" lengthAdjust="spacingAndGlyphs" textLength="57" x="379.5" y="105.4043">href : String</text><text fill="#000000" font-family="sans-serif" font-size="11" lengthAdjust="spacingAndGlyphs" textLength="45" x="379.5" y="119.2402">id : String</text><text fill="#000000" font-family="sans-serif" font-size="11" lengthAdjust="spacingAndGlyphs" textLength="133" x="379.5" y="133.0761">interactionDate : TimePeriod</text><text fill="#000000" font-family="sans-serif" font-size="11" lengthAdjust="spacingAndGlyphs" textLength="71" x="379.5" y="146.9121">reason : String</text><text fill="#000000" font-family="sans-serif" font-size="11" lengthAdjust="spacingAndGlyphs" textLength="67" x="379.5" y="160.748">status : String</text><text fill="#000000" font-family="sans-serif" font-size="11" lengthAdjust="spacingAndGlyphs" textLength="142" x="379.5" y="174.5839">statusChangeDate : DateTime</text><!--class Note--><rect fill="#FCF2E3" filter="url(#f3xfm2wr7swlx)" height="88.4375" id="Note" style="stroke: #A80036; stroke-width: 1.5;" width="86" x="227" y="348"/><text fill="#000000" font-family="sans-serif" font-size="12" lengthAdjust="spacingAndGlyphs" textLength="26" x="257" y="365.457">Note</text><line style="stroke: #A80036; stroke-width: 1.5;" x1="228" x2="312" y1="373.0938" y2="373.0938"/><text fill="#000000" font-family="sans-serif" font-size="11" lengthAdjust="spacingAndGlyphs" textLength="68" x="233" y="388.5127">author : String</text><text fill="#000000" font-family="sans-serif" font-size="11" lengthAdjust="spacingAndGlyphs" textLength="74" x="233" y="402.3486">date : DateTime</text><text fill="#000000" font-family="sans-serif" font-size="11" lengthAdjust="spacingAndGlyphs" textLength="45" x="233" y="416.1846">id : String</text><text fill="#000000" font-family="sans-serif" font-size="11" lengthAdjust="spacingAndGlyphs" textLength="55" x="233" y="430.0205">text : String</text><!--class InteractionRelationship--><rect fill="#FFFFE0" filter="url(#f3xfm2wr7swlx)" height="74.6016" id="InteractionRelationship" style="stroke: #A80036; stroke-width: 1.5;" width="152" x="30" y="57.64"/><a target="_top" xlink:actuate="onRequest" xlink:href="InteractionRelationship.svg" xlink:show="new" xlink:title="InteractionRelationship.svg" xlink:type="simple"><text fill="#0000FF" font-family="sans-serif" font-size="12" lengthAdjust="spacingAndGlyphs" text-decoration="underline" textLength="127" x="33" y="75.097">InteractionRelationship</text><line style="stroke: #0000FF; stroke-width: 1.0;" x1="33" x2="160" y1="77.097" y2="77.097"/></a><text fill="#000000" font-family="sans-serif" font-size="12" lengthAdjust="spacingAndGlyphs" textLength="19" x="160" y="75.097">Ref</text><line style="stroke: #A80036; stroke-width: 1.5;" x1="31" x2="181" y1="82.7337" y2="82.7337"/><text fill="#000000" font-family="sans-serif" font-size="11" lengthAdjust="spacingAndGlyphs" textLength="57" x="36" y="98.1527">href : String</text><text fill="#000000" font-family="sans-serif" font-size="11" lengthAdjust="spacingAndGlyphs" textLength="45" x="36" y="111.9886">id : String</text><text fill="#000000" font-family="sans-serif" font-size="11" lengthAdjust="spacingAndGlyphs" textLength="116" x="36" y="125.8246">relationshipType : String</text><!--class RelatedChannel--><rect fill="#FCF2E3" filter="url(#f3xfm2wr7swlx)" height="143.7813" id="RelatedChannel" style="stroke: #A80036; stroke-width: 1.5;" width="124" x="396" y="320.5"/><text fill="#000000" font-family="sans-serif" font-size="12" lengthAdjust="spacingAndGlyphs" textLength="90" x="413" y="337.957">RelatedChannel</text><line style="stroke: #A80036; stroke-width: 1.5;" x1="397" x2="519" y1="345.5938" y2="345.5938"/><text fill="#000000" font-family="sans-serif" font-size="11" lengthAdjust="spacingAndGlyphs" textLength="42" x="402" y="361.0127">href : Uri</text><text fill="#000000" font-family="sans-serif" font-size="11" lengthAdjust="spacingAndGlyphs" textLength="45" x="402" y="374.8486">id : String</text><text fill="#000000" font-family="sans-serif" font-size="11" lengthAdjust="spacingAndGlyphs" textLength="63" x="402" y="388.6846">name : String</text><text fill="#000000" font-family="sans-serif" font-size="11" lengthAdjust="spacingAndGlyphs" textLength="55" x="402" y="402.5205">role : String</text><text fill="#000000" font-family="sans-serif" font-size="11" lengthAdjust="spacingAndGlyphs" textLength="96" x="402" y="416.3564">@baseType : String</text><text fill="#000000" font-family="sans-serif" font-size="11" lengthAdjust="spacingAndGlyphs" textLength="112" x="402" y="430.1924">@referredType : String</text><text fill="#000000" font-family="sans-serif" font-size="11" lengthAdjust="spacingAndGlyphs" textLength="112" x="402" y="444.0283">@schemaLocation : Uri</text><text fill="#000000" font-family="sans-serif" font-size="11" lengthAdjust="spacingAndGlyphs" textLength="69" x="402" y="457.8643">@type : String</text><!--class RelatedParty--><rect fill="#FCF2E3" filter="url(#f3xfm2wr7swlx)" height="143.7813" id="RelatedParty" style="stroke: #A80036; stroke-width: 1.5;" width="124" x="603" y="320.5"/><text fill="#000000" font-family="sans-serif" font-size="12" lengthAdjust="spacingAndGlyphs" textLength="70" x="630" y="337.957">RelatedParty</text><line style="stroke: #A80036; stroke-width: 1.5;" x1="604" x2="726" y1="345.5938" y2="345.5938"/><text fill="#000000" font-family="sans-serif" font-size="11" lengthAdjust="spacingAndGlyphs" textLength="42" x="609" y="361.0127">href : Uri</text><text fill="#000000" font-family="sans-serif" font-size="11" lengthAdjust="spacingAndGlyphs" textLength="45" x="609" y="374.8486">id : String</text><text fill="#000000" font-family="sans-serif" font-size="11" lengthAdjust="spacingAndGlyphs" textLength="63" x="609" y="388.6846">name : String</text><text fill="#000000" font-family="sans-serif" font-size="11" lengthAdjust="spacingAndGlyphs" textLength="55" x="609" y="402.5205">role : String</text><text fill="#000000" font-family="sans-serif" font-size="11" lengthAdjust="spacingAndGlyphs" textLength="96" x="609" y="416.3564">@baseType : String</text><text fill="#000000" font-family="sans-serif" font-size="11" lengthAdjust="spacingAndGlyphs" textLength="112" x="609" y="430.1924">@referredType : String</text><text fill="#000000" font-family="sans-serif" font-size="11" lengthAdjust="spacingAndGlyphs" textLength="112" x="609" y="444.0283">@schemaLocation : Uri</text><text fill="#000000" font-family="sans-serif" font-size="11" lengthAdjust="spacingAndGlyphs" textLength="69" x="609" y="457.8643">@type : String</text><!--class InteractionItem--><rect fill="#FCF2E3" filter="url(#f3xfm2wr7swlx)" height="102.2734" id="InteractionItem" style="stroke: #A80036; stroke-width: 1.5;" width="126" x="395" y="643.5"/><text fill="#000000" font-family="sans-serif" font-size="12" lengthAdjust="spacingAndGlyphs" textLength="81" x="417.5" y="660.957">InteractionItem</text><line style="stroke: #A80036; stroke-width: 1.5;" x1="396" x2="520" y1="668.5938" y2="668.5938"/><text fill="#000000" font-family="sans-serif" font-size="11" lengthAdjust="spacingAndGlyphs" textLength="114" x="401" y="684.0127">creationDate : DateTime</text><text fill="#000000" font-family="sans-serif" font-size="11" lengthAdjust="spacingAndGlyphs" textLength="45" x="401" y="697.8486">id : String</text><text fill="#000000" font-family="sans-serif" font-size="11" lengthAdjust="spacingAndGlyphs" textLength="102" x="401" y="711.6846">itemDate : TimePeriod</text><text fill="#000000" font-family="sans-serif" font-size="11" lengthAdjust="spacingAndGlyphs" textLength="71" x="401" y="725.5205">reason : String</text><text fill="#000000" font-family="sans-serif" font-size="11" lengthAdjust="spacingAndGlyphs" textLength="84" x="401" y="739.3564">resolution : String</text><!--class RelatedEntityRefOrValue--><rect fill="#FCF2E3" filter="url(#f3xfm2wr7swlx)" height="143.7813" id="RelatedEntityRefOrValue" style="stroke: #A80036; stroke-width: 1.5;" width="141" x="144.5" y="623"/><text fill="#000000" font-family="sans-serif" font-size="12" lengthAdjust="spacingAndGlyphs" textLength="43" x="147.5" y="640.457">Related</text><a target="_top" xlink:actuate="onRequest" xlink:href="Entity.svg" xlink:show="new" xlink:title="Entity.svg" xlink:type="simple"><text fill="#0000FF" font-family="sans-serif" font-size="12" lengthAdjust="spacingAndGlyphs" text-decoration="underline" textLength="29" x="190.5" y="640.457">Entity</text><line style="stroke: #0000FF; stroke-width: 1.0;" x1="190.5" x2="219.5" y1="642.457" y2="642.457"/></a><text fill="#000000" font-family="sans-serif" font-size="12" lengthAdjust="spacingAndGlyphs" textLength="63" x="219.5" y="640.457">RefOrValue</text><line style="stroke: #A80036; stroke-width: 1.5;" x1="145.5" x2="284.5" y1="648.0938" y2="648.0938"/><text fill="#000000" font-family="sans-serif" font-size="11" lengthAdjust="spacingAndGlyphs" textLength="57" x="150.5" y="663.5127">href : String</text><text fill="#000000" font-family="sans-serif" font-size="11" lengthAdjust="spacingAndGlyphs" textLength="45" x="150.5" y="677.3486">id : String</text><text fill="#000000" font-family="sans-serif" font-size="11" lengthAdjust="spacingAndGlyphs" textLength="63" x="150.5" y="691.1846">name : String</text><text fill="#000000" font-family="sans-serif" font-size="11" lengthAdjust="spacingAndGlyphs" textLength="55" x="150.5" y="705.0205">role : String</text><text fill="#000000" font-family="sans-serif" font-size="11" lengthAdjust="spacingAndGlyphs" textLength="96" x="150.5" y="718.8564">@baseType : String</text><text fill="#000000" font-family="sans-serif" font-size="11" lengthAdjust="spacingAndGlyphs" textLength="112" x="150.5" y="732.6924">@referredType : String</text><text fill="#000000" font-family="sans-serif" font-size="11" lengthAdjust="spacingAndGlyphs" textLength="112" x="150.5" y="746.5283">@schemaLocation : Uri</text><text fill="#000000" font-family="sans-serif" font-size="11" lengthAdjust="spacingAndGlyphs" textLength="69" x="150.5" y="760.3643">@type : String</text><!--class AttachmentRefOrValue--><rect fill="#FCF2E3" filter="url(#f3xfm2wr7swlx)" height="226.7969" id="AttachmentRefOrValue" style="stroke: #A80036; stroke-width: 1.5;" width="130" x="810" y="279"/><a target="_top" xlink:actuate="onRequest" xlink:href="Attachment.svg" xlink:show="new" xlink:title="Attachment.svg" xlink:type="simple"><text fill="#0000FF" font-family="sans-serif" font-size="12" lengthAdjust="spacingAndGlyphs" text-decoration="underline" textLength="61" x="813" y="296.457">Attachment</text><line style="stroke: #0000FF; stroke-width: 1.0;" x1="813" x2="874" y1="298.457" y2="298.457"/></a><text fill="#000000" font-family="sans-serif" font-size="12" lengthAdjust="spacingAndGlyphs" textLength="63" x="874" y="296.457">RefOrValue</text><line style="stroke: #A80036; stroke-width: 1.5;" x1="811" x2="939" y1="304.0938" y2="304.0938"/><text fill="#000000" font-family="sans-serif" font-size="11" lengthAdjust="spacingAndGlyphs" textLength="114" x="816" y="319.5127">attachmentType : String</text><text fill="#000000" font-family="sans-serif" font-size="11" lengthAdjust="spacingAndGlyphs" textLength="111" x="816" y="333.3486">content : string/base64</text><text fill="#000000" font-family="sans-serif" font-size="11" lengthAdjust="spacingAndGlyphs" textLength="90" x="816" y="347.1846">description : String</text><text fill="#000000" font-family="sans-serif" font-size="11" lengthAdjust="spacingAndGlyphs" textLength="42" x="816" y="361.0205">href : Uri</text><text fill="#000000" font-family="sans-serif" font-size="11" lengthAdjust="spacingAndGlyphs" textLength="45" x="816" y="374.8564">id : String</text><text fill="#000000" font-family="sans-serif" font-size="11" lengthAdjust="spacingAndGlyphs" textLength="85" x="816" y="388.6924">mimeType : String</text><text fill="#000000" font-family="sans-serif" font-size="11" lengthAdjust="spacingAndGlyphs" textLength="63" x="816" y="402.5283">name : String</text><text fill="#000000" font-family="sans-serif" font-size="11" lengthAdjust="spacingAndGlyphs" textLength="69" x="816" y="416.3643">size : Quantity</text><text fill="#000000" font-family="sans-serif" font-size="11" lengthAdjust="spacingAndGlyphs" textLength="34" x="816" y="430.2002">url : Uri</text><text fill="#000000" font-family="sans-serif" font-size="11" lengthAdjust="spacingAndGlyphs" textLength="99" x="816" y="444.0361">validFor : TimePeriod</text><text fill="#000000" font-family="sans-serif" font-size="11" lengthAdjust="spacingAndGlyphs" textLength="96" x="816" y="457.8721">@baseType : String</text><text fill="#000000" font-family="sans-serif" font-size="11" lengthAdjust="spacingAndGlyphs" textLength="112" x="816" y="471.708">@referredType : String</text><text fill="#000000" font-family="sans-serif" font-size="11" lengthAdjust="spacingAndGlyphs" textLength="112" x="816" y="485.5439">@schemaLocation : Uri</text><text fill="#000000" font-family="sans-serif" font-size="11" lengthAdjust="spacingAndGlyphs" textLength="69" x="816" y="499.3799">@type : String</text><!--link PartyInteraction to AttachmentRefOrValue--><path d="M555.83,134.85 C620.12,163.46 703.88,206.37 768,259 C779.32,268.29 790.27,278.94 800.57,290.07 " fill="none" id="PartyInteraction-AttachmentRefOrValue" style="stroke: #A80036; stroke-width: 1.0;"/><polygon fill="#A80036" points="809.23,299.74,806.207,290.3666,805.8949,296.0148,800.2467,295.7027,809.23,299.74" style="stroke: #A80036; stroke-width: 1.0;"/><line style="stroke: #A80036; stroke-width: 1.0;" x1="805.8949" x2="800.56" y1="296.0148" y2="290.055"/><polygon fill="#A80036" points="544.22,129.75,548.1041,135.8257,555.2063,134.5771,551.3222,128.5015,544.22,129.75" style="stroke: #A80036; stroke-width: 1.0;"/><text fill="#000000" font-family="sans-serif" font-size="13" lengthAdjust="spacingAndGlyphs" textLength="65" x="724" y="225.4951">attachment</text><text fill="#000000" font-family="sans-serif" font-size="13" lengthAdjust="spacingAndGlyphs" textLength="20" x="782.0631" y="287.4984">0..*</text><!--link PartyInteraction to Note--><path d="M395.71,193.47 C381.97,215.05 367.49,237.8 354,259 C337.85,284.37 319.96,312.48 304.86,336.22 " fill="none" id="PartyInteraction-Note" style="stroke: #A80036; stroke-width: 1.0;"/><polygon fill="#A80036" points="298.05,346.92,306.2529,341.469,300.7315,342.6999,299.5007,337.1786,298.05,346.92" style="stroke: #A80036; stroke-width: 1.0;"/><line style="stroke: #A80036; stroke-width: 1.0;" x1="300.7315" x2="305.03" y1="342.6999" y2="335.95"/><polygon fill="#A80036" points="402.67,182.55,396.0734,185.4628,396.2249,192.6723,402.8216,189.7595,402.67,182.55" style="stroke: #A80036; stroke-width: 1.0;"/><text fill="#000000" font-family="sans-serif" font-size="13" lengthAdjust="spacingAndGlyphs" textLength="25" x="384" y="225.4951">note</text><text fill="#000000" font-family="sans-serif" font-size="13" lengthAdjust="spacingAndGlyphs" textLength="20" x="280.0954" y="337.1086">0..*</text><!--link PartyInteraction to RelatedChannel--><path d="M458,195.76 C458,231.74 458,271.93 458,306.45 " fill="none" id="PartyInteraction-RelatedChannel" style="stroke: #A80036; stroke-width: 1.0;"/><polygon fill="#A80036" points="458,319.36,462,310.36,458,314.36,454,310.36,458,319.36" style="stroke: #A80036; stroke-width: 1.0;"/><line style="stroke: #A80036; stroke-width: 1.0;" x1="458" x2="458" y1="314.36" y2="306.36"/><polygon fill="#A80036" points="458,182.98,454,188.98,458,194.98,462,188.98,458,182.98" style="stroke: #A80036; stroke-width: 1.0;"/><text fill="#000000" font-family="sans-serif" font-size="13" lengthAdjust="spacingAndGlyphs" textLength="45" x="459" y="225.4951">channel</text><text fill="#000000" font-family="sans-serif" font-size="13" lengthAdjust="spacingAndGlyphs" textLength="20" x="436.9063" y="309.6868">0..*</text><!--link PartyInteraction to RelatedParty--><path d="M526.47,193.34 C552.84,230.97 582.65,273.5 607.84,309.45 " fill="none" id="PartyInteraction-RelatedParty" style="stroke: #A80036; stroke-width: 1.0;"/><polygon fill="#A80036" points="614.98,319.63,613.0914,309.9639,612.1108,315.5351,606.5396,314.5546,614.98,319.63" style="stroke: #A80036; stroke-width: 1.0;"/><line style="stroke: #A80036; stroke-width: 1.0;" x1="612.1108" x2="607.525" y1="315.5351" y2="308.99"/><polygon fill="#A80036" points="519.02,182.71,519.189,189.9191,525.9086,192.5358,525.7396,185.3267,519.02,182.71" style="stroke: #A80036; stroke-width: 1.0;"/><text fill="#000000" font-family="sans-serif" font-size="13" lengthAdjust="spacingAndGlyphs" textLength="70" x="551" y="225.4951">relatedParty</text><text fill="#000000" font-family="sans-serif" font-size="13" lengthAdjust="spacingAndGlyphs" textLength="20" x="589.3805" y="309.6868">0..*</text><!--link PartyInteraction to InteractionItem--><path d="M359.85,133.81 C258.61,174.15 113.34,235.19 98,259 C33.96,358.38 29.19,428.87 98,525 C160.58,612.43 230.97,554.65 327,603 C346.05,612.59 365.51,624.62 383.41,636.75 " fill="none" id="PartyInteraction-InteractionItem" style="stroke: #A80036; stroke-width: 1.0;"/><polygon fill="#A80036" points="393.99,644.06,388.863,635.6508,389.8777,641.2159,384.3125,642.2306,393.99,644.06" style="stroke: #A80036; stroke-width: 1.0;"/><line style="stroke: #A80036; stroke-width: 1.0;" x1="389.8777" x2="383.29" y1="641.2159" y2="636.665"/><polygon fill="#A80036" points="371.8,129.06,364.7472,127.5572,360.6474,133.4894,367.7002,134.9922,371.8,129.06" style="stroke: #A80036; stroke-width: 1.0;"/><text fill="#000000" font-family="sans-serif" font-size="13" lengthAdjust="spacingAndGlyphs" textLength="85" x="99" y="397.4951">interactionItem</text><text fill="#000000" font-family="sans-serif" font-size="13" lengthAdjust="spacingAndGlyphs" textLength="20" x="366.816" y="635.7619">0..*</text><!--link AttachmentRefOrValue to InteractionItem--><path d="M800.46,493.78 C790.17,504.94 779.26,515.64 768,525 C696.29,584.64 600.22,632.94 534.13,662.3 " fill="none" id="AttachmentRefOrValue-InteractionItem" style="stroke: #A80036; stroke-width: 1.0;"/><polygon fill="#A80036" points="522.31,667.48,529.4116,668.7317,533.2984,662.6577,526.1968,661.4061,522.31,667.48" style="stroke: #A80036; stroke-width: 1.0;"/><polygon fill="#A80036" points="809.1,484.1,800.1229,488.1512,805.7707,487.8304,806.0915,493.4781,809.1,484.1" style="stroke: #A80036; stroke-width: 1.0;"/><line style="stroke: #A80036; stroke-width: 1.0;" x1="805.7707" x2="800.445" y1="487.8304" y2="493.8"/><text fill="#000000" font-family="sans-serif" font-size="13" lengthAdjust="spacingAndGlyphs" textLength="65" x="724" y="569.4951">attachment</text><text fill="#000000" font-family="sans-serif" font-size="13" lengthAdjust="spacingAndGlyphs" textLength="20" x="781.9189" y="489.5156">0..*</text><!--link Note to InteractionItem--><path d="M304.33,447.87 C336.77,499.72 385.37,577.4 419.2,631.47 " fill="none" id="Note-InteractionItem" style="stroke: #A80036; stroke-width: 1.0;"/><polygon fill="#A80036" points="426.01,642.37,426.2186,635.1619,419.6453,632.197,419.4366,639.4051,426.01,642.37" style="stroke: #A80036; stroke-width: 1.0;"/><polygon fill="#A80036" points="297.54,437.02,298.9191,446.7718,300.1905,441.2597,305.7026,442.531,297.54,437.02" style="stroke: #A80036; stroke-width: 1.0;"/><line style="stroke: #A80036; stroke-width: 1.0;" x1="300.1905" x2="304.435" y1="441.2597" y2="448.04"/><text fill="#000000" font-family="sans-serif" font-size="13" lengthAdjust="spacingAndGlyphs" textLength="25" x="382" y="569.4951">note</text><text fill="#000000" font-family="sans-serif" font-size="13" lengthAdjust="spacingAndGlyphs" textLength="20" x="288.2488" y="457.7768">0..*</text><!--link RelatedChannel to InteractionItem--><path d="M458,477.8 C458,525.88 458,585.08 458,629.29 " fill="none" id="RelatedChannel-InteractionItem" style="stroke: #A80036; stroke-width: 1.0;"/><polygon fill="#A80036" points="458,642.16,462,636.16,458,630.16,454,636.16,458,642.16" style="stroke: #A80036; stroke-width: 1.0;"/><polygon fill="#A80036" points="458,464.97,454,473.97,458,469.97,462,473.97,458,464.97" style="stroke: #A80036; stroke-width: 1.0;"/><line style="stroke: #A80036; stroke-width: 1.0;" x1="458" x2="458" y1="469.97" y2="477.97"/><text fill="#000000" font-family="sans-serif" font-size="13" lengthAdjust="spacingAndGlyphs" textLength="45" x="459" y="569.4951">channel</text><text fill="#000000" font-family="sans-serif" font-size="13" lengthAdjust="spacingAndGlyphs" textLength="20" x="434.0625" y="485.844">0..*</text><!--link RelatedParty to InteractionItem--><path d="M608.46,475.07 C574.35,524.59 531.61,586.65 500.4,631.95 " fill="none" id="RelatedParty-InteractionItem" style="stroke: #A80036; stroke-width: 1.0;"/><polygon fill="#A80036" points="493.18,642.42,499.8762,639.7441,499.9817,632.5338,493.2855,635.2097,493.18,642.42" style="stroke: #A80036; stroke-width: 1.0;"/><polygon fill="#A80036" points="615.61,464.7,607.2055,469.8346,612.7697,468.8149,613.7893,474.3791,615.61,464.7" style="stroke: #A80036; stroke-width: 1.0;"/><line style="stroke: #A80036; stroke-width: 1.0;" x1="612.7697" x2="608.235" y1="468.8149" y2="475.405"/><text fill="#000000" font-family="sans-serif" font-size="13" lengthAdjust="spacingAndGlyphs" textLength="70" x="551" y="569.4951">relatedParty</text><text fill="#000000" font-family="sans-serif" font-size="13" lengthAdjust="spacingAndGlyphs" textLength="20" x="574.8871" y="484.2631">0..*</text><!--link InteractionRelationship to PartyInteraction--><path d="M181.82,80.59 C195.55,78.53 209.8,76.74 223.25,75.64 C282.17,70.86 297.4,70.14 356.25,75.64 C358.05,75.81 359.87,76 361.7,76.2 " fill="none" id="InteractionRelationship-PartyInteraction" style="stroke: #A80036; stroke-width: 1.0;"/><polygon fill="#A80036" points="371.55,77.42,366.088,72.7119,359.6413,75.9429,365.1033,80.6511,371.55,77.42" style="stroke: #A80036; stroke-width: 1.0;"/><polygon fill="#A80036" points="223.25,54.64,220.4932,64.0952,223.9206,59.5948,228.4209,63.0222,223.25,54.64" style="stroke: #A80036; stroke-width: 1.0;"/><line style="stroke: #A80036; stroke-width: 1.0;" x1="223.9206" x2="289.75" y1="59.5948" y2="63.64"/><text fill="#000000" font-family="sans-serif" font-size="13" lengthAdjust="spacingAndGlyphs" textLength="131" x="224.25" y="69.1351">interactionRelationship</text><text fill="#000000" font-family="sans-serif" font-size="13" lengthAdjust="spacingAndGlyphs" textLength="20" x="190.6162" y="68.3836">0..*</text><!--link RelatedEntityRefOrValue to InteractionItem--><path d="M285.23,678.72 C307.1,675.41 331.39,673.46 353.75,675.5 C363.51,676.39 373.72,677.74 383.77,679.33 " fill="none" id="RelatedEntityRefOrValue-InteractionItem" style="stroke: #A80036; stroke-width: 1.0;"/><polygon fill="#A80036" points="393.52,680.95,388.2566,676.0209,381.6822,678.9836,386.9456,683.9127,393.52,680.95" style="stroke: #A80036; stroke-width: 1.0;"/><polygon fill="#A80036" points="326.75,657.5,328.4141,667.2073,329.5235,661.6603,335.0705,662.7697,326.75,657.5" style="stroke: #A80036; stroke-width: 1.0;"/><line style="stroke: #A80036; stroke-width: 1.0;" x1="329.5235" x2="340.25" y1="661.6603" y2="666.5"/><text fill="#000000" font-family="sans-serif" font-size="13" lengthAdjust="spacingAndGlyphs" textLength="25" x="327.75" y="671.9951">item</text><text fill="#000000" font-family="sans-serif" font-size="13" lengthAdjust="spacingAndGlyphs" textLength="22" x="293.5854" y="663.9178">0..1</text></g></svg>