<?xml version="1.0" encoding="UTF-8" standalone="no"?><svg xmlns="http://www.w3.org/2000/svg" xmlns:xlink="http://www.w3.org/1999/xlink" contentScriptType="application/ecmascript" contentStyleType="text/css" height="739px" preserveAspectRatio="none" style="width:827px;height:739px;" version="1.1" viewBox="0 0 827 739" width="827px" zoomAndPan="magnify"><defs><filter height="300%" id="ftgm357feid8u" width="300%" x="-1" y="-1"><feGaussianBlur result="blurOut" stdDeviation="2.0"/><feColorMatrix in="blurOut" result="blurOut2" type="matrix" values="0 0 0 0 0 0 0 0 0 0 0 0 0 0 0 0 0 0 .4 0"/><feOffset dx="4.0" dy="4.0" in="blurOut2" result="blurOut3"/><feBlend in="SourceGraphic" in2="blurOut3" mode="normal"/></filter></defs><g><!--class Permission--><rect fill="#FFFFFF" filter="url(#ftgm357feid8u)" height="246.1172" id="Permission" style="stroke: #A80036; stroke-width: 1.5;" width="194" x="393" y="7.88"/><text fill="#000000" font-family="sans-serif" font-size="12" lengthAdjust="spacingAndGlyphs" textLength="64" x="458" y="25.337">Permission</text><text fill="#000000" font-family="sans-serif" font-size="12" lengthAdjust="spacingAndGlyphs" textLength="4" x="398.5" y="40.4308">(</text><text fill="#000000" font-family="sans-serif" font-size="9" font-style="italic" lengthAdjust="spacingAndGlyphs" textLength="17" x="402.5" y="41.09">from</text><a target="_top" xlink:actuate="onRequest" xlink:href="TMF672.svg" xlink:show="new" xlink:title="TMF672.svg" xlink:type="simple"><text fill="#0000FF" font-family="sans-serif" font-size="9" font-style="italic" lengthAdjust="spacingAndGlyphs" text-decoration="underline" textLength="127" x="422.5" y="41.09">TMF672-User Role Permission</text><line style="stroke: #0000FF; stroke-width: 1.0;" x1="422.5" x2="549.5" y1="43.09" y2="43.09"/></a><text fill="#000000" font-family="sans-serif" font-size="9" font-style="italic" lengthAdjust="spacingAndGlyphs" textLength="26" x="552.5" y="41.09">v4.0.0</text><text fill="#000000" font-family="sans-serif" font-size="9" lengthAdjust="spacingAndGlyphs" textLength="3" x="578.5" y="41.09">)</text><line style="stroke: #A80036; stroke-width: 1.5;" x1="394" x2="586" y1="48.0675" y2="48.0675"/><text fill="#000000" font-family="sans-serif" font-size="9" font-style="italic" lengthAdjust="spacingAndGlyphs" textLength="165" x="399" y="61.4103">The Permission resource represents the</text><text fill="#000000" font-family="sans-serif" font-size="9" font-style="italic" lengthAdjust="spacingAndGlyphs" textLength="174" x="399" y="72.7306">entitlement given by an individual (granter)</text><text fill="#000000" font-family="sans-serif" font-size="9" font-style="italic" lengthAdjust="spacingAndGlyphs" textLength="181" x="399" y="84.0509">to another individual (user) to get access to</text><text fill="#000000" font-family="sans-serif" font-size="9" font-style="italic" lengthAdjust="spacingAndGlyphs" textLength="182" x="399" y="95.3712">a set of his owned manageable assets. One</text><text fill="#000000" font-family="sans-serif" font-size="9" font-style="italic" lengthAdjust="spacingAndGlyphs" textLength="147" x="399" y="106.6915">single permission resource can hold</text><text fill="#000000" font-family="sans-serif" font-size="9" font-style="italic" lengthAdjust="spacingAndGlyphs" textLength="168" x="399" y="118.0118">information referring to privileges granted</text><text fill="#000000" font-family="sans-serif" font-size="9" font-style="italic" lengthAdjust="spacingAndGlyphs" textLength="129" x="399" y="129.3321">for multiple manageable assets.</text><line style="stroke: #A80036; stroke-width: 1.0; stroke-dasharray: 1.0,2.0;" x1="394" x2="586" y1="135.3097" y2="135.3097"/><text fill="#000000" font-family="sans-serif" font-size="11" lengthAdjust="spacingAndGlyphs" textLength="114" x="399" y="150.7286">creationDate : DateTime</text><text fill="#000000" font-family="sans-serif" font-size="11" lengthAdjust="spacingAndGlyphs" textLength="90" x="399" y="164.5646">description : String</text><text fill="#000000" font-family="sans-serif" font-size="11" lengthAdjust="spacingAndGlyphs" textLength="57" x="399" y="178.4005">href : String</text><text fill="#000000" font-family="sans-serif" font-size="11" lengthAdjust="spacingAndGlyphs" textLength="45" x="399" y="192.2364">id : String</text><text fill="#000000" font-family="sans-serif" font-size="11" lengthAdjust="spacingAndGlyphs" textLength="99" x="399" y="206.0724">validFor : TimePeriod</text><text fill="#000000" font-family="sans-serif" font-size="11" lengthAdjust="spacingAndGlyphs" textLength="96" x="399" y="219.9083">@baseType : String</text><text fill="#000000" font-family="sans-serif" font-size="11" lengthAdjust="spacingAndGlyphs" textLength="112" x="399" y="233.7443">@schemaLocation : Uri</text><text fill="#000000" font-family="sans-serif" font-size="11" lengthAdjust="spacingAndGlyphs" textLength="69" x="399" y="247.5802">@type : String</text><!--class AssetUserRole--><rect fill="#FCF2E3" filter="url(#ftgm357feid8u)" height="102.2734" id="AssetUserRole" style="stroke: #A80036; stroke-width: 1.5;" width="124" x="30" y="365.5"/><text fill="#000000" font-family="sans-serif" font-size="12" lengthAdjust="spacingAndGlyphs" textLength="84" x="50" y="382.957">AssetUserRole</text><line style="stroke: #A80036; stroke-width: 1.5;" x1="31" x2="153" y1="390.5938" y2="390.5938"/><text fill="#000000" font-family="sans-serif" font-size="11" lengthAdjust="spacingAndGlyphs" textLength="42" x="36" y="406.0127">href : Uri</text><text fill="#000000" font-family="sans-serif" font-size="11" lengthAdjust="spacingAndGlyphs" textLength="45" x="36" y="419.8486">id : String</text><text fill="#000000" font-family="sans-serif" font-size="11" lengthAdjust="spacingAndGlyphs" textLength="96" x="36" y="433.6846">@baseType : String</text><text fill="#000000" font-family="sans-serif" font-size="11" lengthAdjust="spacingAndGlyphs" textLength="112" x="36" y="447.5205">@schemaLocation : Uri</text><text fill="#000000" font-family="sans-serif" font-size="11" lengthAdjust="spacingAndGlyphs" textLength="69" x="36" y="461.3564">@type : String</text><!--class AssetGroup--><rect fill="#FCF2E3" filter="url(#ftgm357feid8u)" height="102.2734" id="AssetGroup" style="stroke: #A80036; stroke-width: 1.5;" width="124" x="361" y="365.5"/><text fill="#000000" font-family="sans-serif" font-size="12" lengthAdjust="spacingAndGlyphs" textLength="65" x="390.5" y="382.957">AssetGroup</text><line style="stroke: #A80036; stroke-width: 1.5;" x1="362" x2="484" y1="390.5938" y2="390.5938"/><text fill="#000000" font-family="sans-serif" font-size="11" lengthAdjust="spacingAndGlyphs" textLength="42" x="367" y="406.0127">href : Uri</text><text fill="#000000" font-family="sans-serif" font-size="11" lengthAdjust="spacingAndGlyphs" textLength="45" x="367" y="419.8486">id : String</text><text fill="#000000" font-family="sans-serif" font-size="11" lengthAdjust="spacingAndGlyphs" textLength="96" x="367" y="433.6846">@baseType : String</text><text fill="#000000" font-family="sans-serif" font-size="11" lengthAdjust="spacingAndGlyphs" textLength="112" x="367" y="447.5205">@schemaLocation : Uri</text><text fill="#000000" font-family="sans-serif" font-size="11" lengthAdjust="spacingAndGlyphs" textLength="69" x="367" y="461.3564">@type : String</text><!--class EntityRef--><rect fill="#FFFFE0" filter="url(#ftgm357feid8u)" height="129.9453" id="EntityRef" style="stroke: #A80036; stroke-width: 1.5;" width="124" x="373" y="599"/><a target="_top" xlink:actuate="onRequest" xlink:href="Entity.svg" xlink:show="new" xlink:title="Entity.svg" xlink:type="simple"><text fill="#0000FF" font-family="sans-serif" font-size="12" lengthAdjust="spacingAndGlyphs" text-decoration="underline" textLength="29" x="411" y="616.457">Entity</text><line style="stroke: #0000FF; stroke-width: 1.0;" x1="411" x2="440" y1="618.457" y2="618.457"/></a><text fill="#000000" font-family="sans-serif" font-size="12" lengthAdjust="spacingAndGlyphs" textLength="19" x="440" y="616.457">Ref</text><line style="stroke: #A80036; stroke-width: 1.5;" x1="374" x2="496" y1="624.0938" y2="624.0938"/><text fill="#000000" font-family="sans-serif" font-size="11" lengthAdjust="spacingAndGlyphs" textLength="42" x="379" y="639.5127">href : Uri</text><text fill="#000000" font-family="sans-serif" font-size="11" lengthAdjust="spacingAndGlyphs" textLength="45" x="379" y="653.3486">id : String</text><text fill="#000000" font-family="sans-serif" font-size="11" lengthAdjust="spacingAndGlyphs" textLength="63" x="379" y="667.1846">name : String</text><text fill="#000000" font-family="sans-serif" font-size="11" lengthAdjust="spacingAndGlyphs" textLength="96" x="379" y="681.0205">@baseType : String</text><text fill="#000000" font-family="sans-serif" font-size="11" lengthAdjust="spacingAndGlyphs" textLength="112" x="379" y="694.8564">@referredType : String</text><text fill="#000000" font-family="sans-serif" font-size="11" lengthAdjust="spacingAndGlyphs" textLength="112" x="379" y="708.6924">@schemaLocation : Uri</text><text fill="#000000" font-family="sans-serif" font-size="11" lengthAdjust="spacingAndGlyphs" textLength="69" x="379" y="722.5283">@type : String</text><!--class UserRoleRef--><rect fill="#FFFFE0" filter="url(#ftgm357feid8u)" height="116.1094" id="UserRoleRef" style="stroke: #A80036; stroke-width: 1.5;" width="124" x="30" y="605.5"/><a target="_top" xlink:actuate="onRequest" xlink:href="UserRole.svg" xlink:show="new" xlink:title="UserRole.svg" xlink:type="simple"><text fill="#0000FF" font-family="sans-serif" font-size="12" lengthAdjust="spacingAndGlyphs" text-decoration="underline" textLength="53" x="56" y="622.957">UserRole</text><line style="stroke: #0000FF; stroke-width: 1.0;" x1="56" x2="109" y1="624.957" y2="624.957"/></a><text fill="#000000" font-family="sans-serif" font-size="12" lengthAdjust="spacingAndGlyphs" textLength="19" x="109" y="622.957">Ref</text><line style="stroke: #A80036; stroke-width: 1.5;" x1="31" x2="153" y1="630.5938" y2="630.5938"/><text fill="#000000" font-family="sans-serif" font-size="11" lengthAdjust="spacingAndGlyphs" textLength="57" x="36" y="646.0127">href : String</text><text fill="#000000" font-family="sans-serif" font-size="11" lengthAdjust="spacingAndGlyphs" textLength="45" x="36" y="659.8486">id : String</text><text fill="#000000" font-family="sans-serif" font-size="11" lengthAdjust="spacingAndGlyphs" textLength="96" x="36" y="673.6846">@baseType : String</text><text fill="#000000" font-family="sans-serif" font-size="11" lengthAdjust="spacingAndGlyphs" textLength="112" x="36" y="687.5205">@referredType : String</text><text fill="#000000" font-family="sans-serif" font-size="11" lengthAdjust="spacingAndGlyphs" textLength="112" x="36" y="701.3564">@schemaLocation : Uri</text><text fill="#000000" font-family="sans-serif" font-size="11" lengthAdjust="spacingAndGlyphs" textLength="69" x="36" y="715.1924">@type : String</text><!--class Privilege--><rect fill="#FCF2E3" filter="url(#ftgm357feid8u)" height="129.9453" id="Privilege" style="stroke: #A80036; stroke-width: 1.5;" width="124" x="692" y="352"/><text fill="#000000" font-family="sans-serif" font-size="12" lengthAdjust="spacingAndGlyphs" textLength="47" x="730.5" y="369.457">Privilege</text><line style="stroke: #A80036; stroke-width: 1.5;" x1="693" x2="815" y1="377.0938" y2="377.0938"/><text fill="#000000" font-family="sans-serif" font-size="11" lengthAdjust="spacingAndGlyphs" textLength="66" x="698" y="392.5127">action : String</text><text fill="#000000" font-family="sans-serif" font-size="11" lengthAdjust="spacingAndGlyphs" textLength="76" x="698" y="406.3486">function : String</text><text fill="#000000" font-family="sans-serif" font-size="11" lengthAdjust="spacingAndGlyphs" textLength="42" x="698" y="420.1846">href : Uri</text><text fill="#000000" font-family="sans-serif" font-size="11" lengthAdjust="spacingAndGlyphs" textLength="45" x="698" y="434.0205">id : String</text><text fill="#000000" font-family="sans-serif" font-size="11" lengthAdjust="spacingAndGlyphs" textLength="96" x="698" y="447.8564">@baseType : String</text><text fill="#000000" font-family="sans-serif" font-size="11" lengthAdjust="spacingAndGlyphs" textLength="112" x="698" y="461.6924">@schemaLocation : Uri</text><text fill="#000000" font-family="sans-serif" font-size="11" lengthAdjust="spacingAndGlyphs" textLength="69" x="698" y="475.5283">@type : String</text><!--class RelatedParty--><rect fill="#FCF2E3" filter="url(#ftgm357feid8u)" height="143.7813" id="RelatedParty" style="stroke: #A80036; stroke-width: 1.5;" width="124" x="169" y="59.44"/><text fill="#000000" font-family="sans-serif" font-size="12" lengthAdjust="spacingAndGlyphs" textLength="70" x="196" y="76.897">RelatedParty</text><line style="stroke: #A80036; stroke-width: 1.5;" x1="170" x2="292" y1="84.5338" y2="84.5338"/><text fill="#000000" font-family="sans-serif" font-size="11" lengthAdjust="spacingAndGlyphs" textLength="42" x="175" y="99.9527">href : Uri</text><text fill="#000000" font-family="sans-serif" font-size="11" lengthAdjust="spacingAndGlyphs" textLength="45" x="175" y="113.7886">id : String</text><text fill="#000000" font-family="sans-serif" font-size="11" lengthAdjust="spacingAndGlyphs" textLength="63" x="175" y="127.6246">name : String</text><text fill="#000000" font-family="sans-serif" font-size="11" lengthAdjust="spacingAndGlyphs" textLength="55" x="175" y="141.4605">role : String</text><text fill="#000000" font-family="sans-serif" font-size="11" lengthAdjust="spacingAndGlyphs" textLength="96" x="175" y="155.2964">@baseType : String</text><text fill="#000000" font-family="sans-serif" font-size="11" lengthAdjust="spacingAndGlyphs" textLength="112" x="175" y="169.1324">@referredType : String</text><text fill="#000000" font-family="sans-serif" font-size="11" lengthAdjust="spacingAndGlyphs" textLength="112" x="175" y="182.9683">@schemaLocation : Uri</text><text fill="#000000" font-family="sans-serif" font-size="11" lengthAdjust="spacingAndGlyphs" textLength="69" x="175" y="196.8043">@type : String</text><!--link Permission to Privilege--><path d="M597.01,246.88 C626.8,278.87 658.34,312.76 685.29,341.69 " fill="none" id="Permission-Privilege" style="stroke: #A80036; stroke-width: 1.0;"/><polygon fill="#A80036" points="693.96,351.01,690.7553,341.6971,690.5531,347.3503,684.8999,347.1481,693.96,351.01" style="stroke: #A80036; stroke-width: 1.0;"/><line style="stroke: #A80036; stroke-width: 1.0;" x1="690.5531" x2="685.1" y1="347.3503" y2="341.5"/><polygon fill="#A80036" points="588.21,237.43,589.3705,244.5471,596.3865,246.2132,595.226,239.0961,588.21,237.43" style="stroke: #A80036; stroke-width: 1.0;"/><text fill="#000000" font-family="sans-serif" font-size="13" lengthAdjust="spacingAndGlyphs" textLength="46" x="646" y="298.4951">privilege</text><text fill="#000000" font-family="sans-serif" font-size="13" lengthAdjust="spacingAndGlyphs" textLength="20" x="667.0107" y="341.2119">0..*</text><!--link Permission to AssetUserRole--><path d="M381.37,219.27 C365.95,231.14 350.18,243.01 335,254 C279.4,294.27 214.58,337.16 165.87,368.61 " fill="none" id="Permission-AssetUserRole" style="stroke: #A80036; stroke-width: 1.0;"/><polygon fill="#A80036" points="155.12,375.53,164.8519,374.017,159.3229,372.8215,160.5183,367.2924,155.12,375.53" style="stroke: #A80036; stroke-width: 1.0;"/><line style="stroke: #A80036; stroke-width: 1.0;" x1="159.3229" x2="166.045" y1="372.8215" y2="368.495"/><polygon fill="#A80036" points="391.32,211.56,384.1268,212.0675,381.8286,218.9026,389.0219,218.3951,391.32,211.56" style="stroke: #A80036; stroke-width: 1.0;"/><text fill="#000000" font-family="sans-serif" font-size="13" lengthAdjust="spacingAndGlyphs" textLength="85" x="290" y="298.4951">assetUserRole</text><text fill="#000000" font-family="sans-serif" font-size="13" lengthAdjust="spacingAndGlyphs" textLength="20" x="154.2659" y="354.9014">0..*</text><!--link AssetUserRole to AssetGroup--><path d="M153.99,403.3 C167.59,400.89 181.98,398.74 195.5,397.5 C250.38,392.46 264.62,392.46 319.5,397.5 C329.32,398.4 339.6,399.78 349.71,401.39 " fill="none" id="AssetUserRole-AssetGroup" style="stroke: #A80036; stroke-width: 1.0;"/><polygon fill="#A80036" points="359.52,403.05,351.3089,397.6115,354.5894,402.22,349.9809,405.5005,359.52,403.05" style="stroke: #A80036; stroke-width: 1.0;"/><line style="stroke: #A80036; stroke-width: 1.0;" x1="354.5894" x2="346.695" y1="402.22" y2="400.885"/><polygon fill="#A80036" points="195.5,376.5,192.4034,383.0124,197.2239,388.3755,200.3204,381.8631,195.5,376.5" style="stroke: #A80036; stroke-width: 1.0;"/><text fill="#000000" font-family="sans-serif" font-size="13" lengthAdjust="spacingAndGlyphs" textLength="122" x="196.5" y="390.9951">managedAssetGroup</text><text fill="#000000" font-family="sans-serif" font-size="13" lengthAdjust="spacingAndGlyphs" textLength="22" x="331.0267" y="398.4806">0..1</text><!--link AssetGroup to Privilege--><path d="M484.99,403.3 C498.59,400.89 512.98,398.74 526.5,397.5 C581.38,392.46 595.62,392.46 650.5,397.5 C660.32,398.4 670.6,399.78 680.71,401.39 " fill="none" id="AssetGroup-Privilege" style="stroke: #A80036; stroke-width: 1.0;"/><polygon fill="#A80036" points="690.52,403.05,685.2673,398.1095,678.6865,401.058,683.9392,405.9985,690.52,403.05" style="stroke: #A80036; stroke-width: 1.0;"/><polygon fill="#A80036" points="526.5,376.5,523.8344,385.9813,527.2183,381.4481,531.7514,384.832,526.5,376.5" style="stroke: #A80036; stroke-width: 1.0;"/><line style="stroke: #A80036; stroke-width: 1.0;" x1="527.2183" x2="588.5" y1="381.4481" y2="385.5"/><text fill="#000000" font-family="sans-serif" font-size="13" lengthAdjust="spacingAndGlyphs" textLength="122" x="527.5" y="390.9951">managedAssetGroup</text><text fill="#000000" font-family="sans-serif" font-size="13" lengthAdjust="spacingAndGlyphs" textLength="22" x="492.9466" y="388.3631">0..1</text><!--link AssetUserRole to EntityRef--><path d="M165.35,469.89 C223.25,511.25 303.64,568.67 361.56,610.05 " fill="none" id="AssetUserRole-EntityRef" style="stroke: #A80036; stroke-width: 1.0;"/><polygon fill="#A80036" points="371.97,617.48,366.967,608.9965,367.8998,614.5759,362.3204,615.5087,371.97,617.48" style="stroke: #A80036; stroke-width: 1.0;"/><line style="stroke: #A80036; stroke-width: 1.0;" x1="367.8998" x2="361.39" y1="614.5759" y2="609.92"/><polygon fill="#A80036" points="154.95,462.46,157.5049,469.2033,164.7121,469.4386,162.1573,462.6953,154.95,462.46" style="stroke: #A80036; stroke-width: 1.0;"/><text fill="#000000" font-family="sans-serif" font-size="13" lengthAdjust="spacingAndGlyphs" textLength="104" x="274" y="545.4951">manageableAsset</text><text fill="#000000" font-family="sans-serif" font-size="13" lengthAdjust="spacingAndGlyphs" textLength="7" x="357.8334" y="609.0085">1</text><!--link Privilege to EntityRef--><path d="M680.92,473.62 C629.23,513.33 560.19,566.35 508.42,606.11 " fill="none" id="Privilege-EntityRef" style="stroke: #A80036; stroke-width: 1.0;"/><polygon fill="#A80036" points="498.18,613.97,507.7517,611.6499,502.1421,610.9201,502.8719,605.3105,498.18,613.97" style="stroke: #A80036; stroke-width: 1.0;"/><line style="stroke: #A80036; stroke-width: 1.0;" x1="502.1421" x2="508.495" y1="610.9201" y2="606.055"/><polygon fill="#A80036" points="690.91,465.95,683.7153,466.4354,681.3961,473.2633,688.5908,472.778,690.91,465.95" style="stroke: #A80036; stroke-width: 1.0;"/><text fill="#000000" font-family="sans-serif" font-size="13" lengthAdjust="spacingAndGlyphs" textLength="104" x="605" y="545.4951">manageableAsset</text><text fill="#000000" font-family="sans-serif" font-size="13" lengthAdjust="spacingAndGlyphs" textLength="7" x="504.9655" y="597.8027">1</text><!--link RelatedParty to Permission--><path d="M292.81,75.3 C305.59,66.53 319.59,58.77 334,53.94 C349.86,48.63 366.14,49.26 381.93,53.52 " fill="none" id="RelatedParty-Permission" style="stroke: #A80036; stroke-width: 1.0;"/><polygon fill="#A80036" points="341.5,32.94,341.5,40.1511,348.1564,42.9246,348.1564,35.7135,341.5,32.94" style="stroke: #A80036; stroke-width: 1.0;"/><polygon fill="#A80036" points="391.32,56.54,383.978,49.9753,386.5604,55.0084,381.5274,57.5907,391.32,56.54" style="stroke: #A80036; stroke-width: 1.0;"/><line style="stroke: #A80036; stroke-width: 1.0;" x1="386.5604" x2="378.945" y1="55.0084" y2="52.555"/><text fill="#000000" font-family="sans-serif" font-size="13" lengthAdjust="spacingAndGlyphs" textLength="25" x="342.5" y="47.4351">user</text><text fill="#000000" font-family="sans-serif" font-size="13" lengthAdjust="spacingAndGlyphs" textLength="7" x="300.7519" y="56.4323">1</text><!--link RelatedParty to Permission--><path d="M292.96,117.69 C306.41,115.3 320.64,113.18 334,111.94 C349.32,110.53 365.45,110.67 381.3,111.76 " fill="none" id="RelatedParty-Permission" style="stroke: #A80036; stroke-width: 1.0;"/><polygon fill="#A80036" points="391.26,112.58,385.61,108.0992,379.3008,111.5911,384.9508,116.0719,391.26,112.58" style="stroke: #A80036; stroke-width: 1.0;"/><polygon fill="#A80036" points="334,92.94,333.8687,102.788,335.9696,97.5357,341.2219,99.6366,334,92.94" style="stroke: #A80036; stroke-width: 1.0;"/><line style="stroke: #A80036; stroke-width: 1.0;" x1="335.9696" x2="355" y1="97.5357" y2="101.94"/><text fill="#000000" font-family="sans-serif" font-size="13" lengthAdjust="spacingAndGlyphs" textLength="40" x="335" y="107.4351">granter</text><text fill="#000000" font-family="sans-serif" font-size="13" lengthAdjust="spacingAndGlyphs" textLength="22" x="300.899" y="102.5745">0..1</text><!--link AssetUserRole to UserRoleRef--><path d="M92,481.86 C92,515.53 92,556.84 92,591.45 " fill="none" id="AssetUserRole-UserRoleRef" style="stroke: #A80036; stroke-width: 1.0;"/><polygon fill="#A80036" points="92,604.32,96,595.32,92,599.32,88,595.32,92,604.32" style="stroke: #A80036; stroke-width: 1.0;"/><line style="stroke: #A80036; stroke-width: 1.0;" x1="92" x2="92" y1="599.32" y2="591.32"/><polygon fill="#A80036" points="92,468.89,88,474.89,92,480.89,96,474.89,92,468.89" style="stroke: #A80036; stroke-width: 1.0;"/><text fill="#000000" font-family="sans-serif" font-size="13" lengthAdjust="spacingAndGlyphs" textLength="51" x="93" y="545.4951">userRole</text><text fill="#000000" font-family="sans-serif" font-size="13" lengthAdjust="spacingAndGlyphs" textLength="7" x="84.5297" y="594.5283">1</text></g></svg>