<?xml version="1.0" encoding="us-ascii" standalone="no"?><svg xmlns="http://www.w3.org/2000/svg" xmlns:xlink="http://www.w3.org/1999/xlink" contentStyleType="text/css" height="1251px" preserveAspectRatio="none" style="width:1773px;height:1251px;background:#FFFFFF;" version="1.1" viewBox="0 0 1773 1251" width="1773px" zoomAndPan="magnify"><defs/><g><text fill="#888888" font-family="sans-serif" font-size="10" lengthAdjust="spacing" textLength="148" x="1611.66" y="10.3809">Diagram generated at 12/22/23</text><text fill="#000000" font-family="sans-serif" font-size="14" font-weight="bold" lengthAdjust="spacing" textLength="192" x="783.83" y="38.1113">TMF Schema Class Diagram</text><!--class QueryUsageConsumption--><g id="elem_QueryUsageConsumption"><rect codeLine="20" fill="#FFFFFF" height="204.6094" id="QueryUsageConsumption" rx="2.5" ry="2.5" style="stroke:#181818;stroke-width:0.5;" width="274" x="754.78" y="59.1875"/><text fill="#000000" font-family="sans-serif" font-size="12" font-style="italic" lengthAdjust="spacing" textLength="41" x="871.28" y="76.6445">&#171;Pivot&#187;</text><text fill="#000000" font-family="sans-serif" font-size="14" lengthAdjust="spacing" textLength="162" x="810.78" y="93.8145">QueryUsageConsumption</text><text fill="#000000" font-family="sans-serif" font-size="14" lengthAdjust="spacing" textLength="5" x="802.78" y="111.4238">(</text><text fill="#000000" font-family="sans-serif" font-size="9" font-style="italic" lengthAdjust="spacing" textLength="17" x="807.78" y="112.5225">from</text><a href="TMF677.svg" target="_top" title="TMF677.svg" xlink:actuate="onRequest" xlink:href="TMF677.svg" xlink:show="new" xlink:title="TMF677.svg" xlink:type="simple"><text fill="#0000FF" font-family="sans-serif" font-size="9" font-style="italic" lengthAdjust="spacing" text-decoration="underline" textLength="121" x="827.78" y="112.5225">TMF677-Usage Consumption</text></a><text fill="#000000" font-family="sans-serif" font-size="9" font-style="italic" lengthAdjust="spacing" textLength="26" x="951.78" y="112.5225">v4.0.0</text><text fill="#000000" font-family="sans-serif" font-size="9" lengthAdjust="spacing" textLength="3" x="977.78" y="112.5225">)</text><line style="stroke:#181818;stroke-width:0.5;" x1="755.78" x2="1027.78" y1="119.5" y2="119.5"/><text fill="#000000" font-family="sans-serif" font-size="9" font-style="italic" lengthAdjust="spacing" textLength="209" x="760.78" y="132.8428">An QueryUsageConsumption allows to manage the</text><text fill="#000000" font-family="sans-serif" font-size="9" font-style="italic" lengthAdjust="spacing" textLength="184" x="760.78" y="144.1631">calculation request of an usage consumption</text><line style="stroke:#181818;stroke-width:1.0;stroke-dasharray:1.0,2.0;" x1="755.78" x2="1027.78" y1="150.1406" y2="150.1406"/><text fill="#000000" font-family="sans-serif" font-size="14" lengthAdjust="spacing" textLength="54" x="760.78" y="168.6738">href : Uri</text><text fill="#000000" font-family="sans-serif" font-size="14" lengthAdjust="spacing" textLength="60" x="760.78" y="186.2832">id : String</text><text fill="#000000" font-family="sans-serif" font-size="14" lengthAdjust="spacing" textLength="262" x="760.78" y="203.8926">queryUsageConsumptionDate : DateTime</text><text fill="#000000" font-family="sans-serif" font-size="14" lengthAdjust="spacing" textLength="126" x="760.78" y="221.502">@baseType : String</text><text fill="#000000" font-family="sans-serif" font-size="14" lengthAdjust="spacing" textLength="146" x="760.78" y="239.1113">@schemaLocation : Uri</text><text fill="#000000" font-family="sans-serif" font-size="14" lengthAdjust="spacing" textLength="90" x="760.78" y="256.7207">@type : String</text></g><!--class UsageConsumption--><g id="elem_UsageConsumption"><rect codeLine="32" fill="#FCF2E3" height="229.3125" id="UsageConsumption" rx="2.5" ry="2.5" style="stroke:#181818;stroke-width:0.5;" width="166" x="516.78" y="341.7975"/><text fill="#000000" font-family="sans-serif" font-size="14" lengthAdjust="spacing" textLength="123" x="538.28" y="361.3307">UsageConsumption</text><line style="stroke:#181818;stroke-width:0.5;" x1="517.78" x2="681.78" y1="369.4069" y2="369.4069"/><text fill="#000000" font-family="sans-serif" font-size="14" lengthAdjust="spacing" textLength="154" x="522.78" y="387.9401">creationDate : DateTime</text><text fill="#000000" font-family="sans-serif" font-size="14" lengthAdjust="spacing" textLength="118" x="522.78" y="405.5495">description : String</text><text fill="#000000" font-family="sans-serif" font-size="14" lengthAdjust="spacing" textLength="54" x="522.78" y="423.1588">href : Uri</text><text fill="#000000" font-family="sans-serif" font-size="14" lengthAdjust="spacing" textLength="60" x="522.78" y="440.7682">id : String</text><text fill="#000000" font-family="sans-serif" font-size="14" lengthAdjust="spacing" textLength="140" x="522.78" y="458.3776">lastUpdate : DateTime</text><text fill="#000000" font-family="sans-serif" font-size="14" lengthAdjust="spacing" textLength="84" x="522.78" y="475.987">name : String</text><text fill="#000000" font-family="sans-serif" font-size="14" lengthAdjust="spacing" textLength="139" x="522.78" y="493.5963">state : TaskStateType</text><text fill="#000000" font-family="sans-serif" font-size="14" lengthAdjust="spacing" textLength="154" x="522.78" y="511.2057">validPeriod : TimePeriod</text><text fill="#000000" font-family="sans-serif" font-size="14" lengthAdjust="spacing" textLength="126" x="522.78" y="528.8151">@baseType : String</text><text fill="#000000" font-family="sans-serif" font-size="14" lengthAdjust="spacing" textLength="146" x="522.78" y="546.4245">@schemaLocation : Uri</text><text fill="#000000" font-family="sans-serif" font-size="14" lengthAdjust="spacing" textLength="90" x="522.78" y="564.0338">@type : String</text></g><!--class TaskStateType--><g id="elem_TaskStateType"><rect codeLine="46" fill="#E6F5F7" height="106.0469" id="TaskStateType" rx="2.5" ry="2.5" style="stroke:#181818;stroke-width:0.5;" width="139" x="1163.28" y="403.4375"/><text fill="#000000" font-family="sans-serif" font-size="14" lengthAdjust="spacing" textLength="96" x="1184.78" y="422.9707">TaskStateType</text><line style="stroke:#181818;stroke-width:0.5;" x1="1164.28" x2="1301.28" y1="431.0469" y2="431.0469"/><text fill="#000000" font-family="sans-serif" font-size="14" lengthAdjust="spacing" textLength="58" x="1169.28" y="449.5801">accepted</text><text fill="#000000" font-family="sans-serif" font-size="14" lengthAdjust="spacing" textLength="127" x="1169.28" y="467.1895">terminatedWithError</text><text fill="#000000" font-family="sans-serif" font-size="14" lengthAdjust="spacing" textLength="68" x="1169.28" y="484.7988">inProgress</text><text fill="#000000" font-family="sans-serif" font-size="14" lengthAdjust="spacing" textLength="32" x="1169.28" y="502.4082">done</text></g><!--class UsageConsumptionProductRef--><g id="elem_UsageConsumptionProductRef"><rect codeLine="53" fill="#FFFFE0" height="173.9688" id="UsageConsumptionProductRef" rx="2.5" ry="2.5" style="stroke:#181818;stroke-width:0.5;" width="200" x="726.78" y="1010.5075"/><text fill="#000000" font-family="sans-serif" font-size="12" font-style="italic" lengthAdjust="spacing" textLength="33" x="810.28" y="1027.9645">&#171;Ref&#187;</text><a href="UsageConsumptionProduct.svg" target="_top" title="UsageConsumptionProduct.svg" xlink:actuate="onRequest" xlink:href="UsageConsumptionProduct.svg" xlink:show="new" xlink:title="UsageConsumptionProduct.svg" xlink:type="simple"><text fill="#0000FF" font-family="sans-serif" font-size="14" lengthAdjust="spacing" text-decoration="underline" textLength="172" x="729.78" y="1045.1345">UsageConsumptionProduct</text></a><text fill="#000000" font-family="sans-serif" font-size="14" lengthAdjust="spacing" textLength="22" x="901.78" y="1045.1345">Ref</text><line style="stroke:#181818;stroke-width:0.5;" x1="727.78" x2="925.78" y1="1053.2106" y2="1053.2106"/><text fill="#000000" font-family="sans-serif" font-size="14" lengthAdjust="spacing" textLength="54" x="732.78" y="1071.7438">href : Uri</text><text fill="#000000" font-family="sans-serif" font-size="14" lengthAdjust="spacing" textLength="60" x="732.78" y="1089.3532">id : String</text><text fill="#000000" font-family="sans-serif" font-size="14" lengthAdjust="spacing" textLength="84" x="732.78" y="1106.9626">name : String</text><text fill="#000000" font-family="sans-serif" font-size="14" lengthAdjust="spacing" textLength="126" x="732.78" y="1124.572">@baseType : String</text><text fill="#000000" font-family="sans-serif" font-size="14" lengthAdjust="spacing" textLength="146" x="732.78" y="1142.1813">@referredType : String</text><text fill="#000000" font-family="sans-serif" font-size="14" lengthAdjust="spacing" textLength="146" x="732.78" y="1159.7907">@schemaLocation : Uri</text><text fill="#000000" font-family="sans-serif" font-size="14" lengthAdjust="spacing" textLength="90" x="732.78" y="1177.4001">@type : String</text></g><!--class ConsumptionSummary--><g id="elem_ConsumptionSummary"><rect codeLine="63" fill="#FCF2E3" height="211.7031" id="ConsumptionSummary" rx="2.5" ry="2.5" style="stroke:#181818;stroke-width:0.5;" width="217" x="718.28" y="350.6075"/><text fill="#000000" font-family="sans-serif" font-size="14" lengthAdjust="spacing" textLength="142" x="755.78" y="370.1407">ConsumptionSummary</text><line style="stroke:#181818;stroke-width:0.5;" x1="719.28" x2="934.28" y1="378.2169" y2="378.2169"/><text fill="#000000" font-family="sans-serif" font-size="14" lengthAdjust="spacing" textLength="205" x="724.28" y="396.7501">consumptionPeriod : TimePeriod</text><text fill="#000000" font-family="sans-serif" font-size="14" lengthAdjust="spacing" textLength="129" x="724.28" y="414.3595">counterType : String</text><text fill="#000000" font-family="sans-serif" font-size="14" lengthAdjust="spacing" textLength="54" x="724.28" y="431.9688">href : Uri</text><text fill="#000000" font-family="sans-serif" font-size="14" lengthAdjust="spacing" textLength="60" x="724.28" y="449.5782">id : String</text><text fill="#000000" font-family="sans-serif" font-size="14" lengthAdjust="spacing" textLength="78" x="724.28" y="467.1876">level : String</text><text fill="#000000" font-family="sans-serif" font-size="14" lengthAdjust="spacing" textLength="99" x="724.28" y="484.797">value : Quantity</text><text fill="#000000" font-family="sans-serif" font-size="14" lengthAdjust="spacing" textLength="119" x="724.28" y="502.4063">valueName : String</text><text fill="#000000" font-family="sans-serif" font-size="14" lengthAdjust="spacing" textLength="126" x="724.28" y="520.0157">@baseType : String</text><text fill="#000000" font-family="sans-serif" font-size="14" lengthAdjust="spacing" textLength="146" x="724.28" y="537.6251">@schemaLocation : Uri</text><text fill="#000000" font-family="sans-serif" font-size="14" lengthAdjust="spacing" textLength="90" x="724.28" y="555.2345">@type : String</text></g><!--class RelatedParty--><g id="elem_RelatedParty"><rect codeLine="76" fill="#FCF2E3" height="176.4844" id="RelatedParty" rx="2.5" ry="2.5" style="stroke:#181818;stroke-width:0.5;" width="158" x="1540.78" y="1009.2575"/><text fill="#000000" font-family="sans-serif" font-size="14" lengthAdjust="spacing" textLength="82" x="1578.78" y="1028.7907">RelatedParty</text><line style="stroke:#181818;stroke-width:0.5;" x1="1541.78" x2="1697.78" y1="1036.8669" y2="1036.8669"/><text fill="#000000" font-family="sans-serif" font-size="14" lengthAdjust="spacing" textLength="54" x="1546.78" y="1055.4001">href : Uri</text><text fill="#000000" font-family="sans-serif" font-size="14" lengthAdjust="spacing" textLength="60" x="1546.78" y="1073.0095">id : String</text><text fill="#000000" font-family="sans-serif" font-size="14" lengthAdjust="spacing" textLength="84" x="1546.78" y="1090.6188">name : String</text><text fill="#000000" font-family="sans-serif" font-size="14" lengthAdjust="spacing" textLength="73" x="1546.78" y="1108.2282">role : String</text><text fill="#000000" font-family="sans-serif" font-size="14" lengthAdjust="spacing" textLength="126" x="1546.78" y="1125.8376">@baseType : String</text><text fill="#000000" font-family="sans-serif" font-size="14" lengthAdjust="spacing" textLength="146" x="1546.78" y="1143.447">@referredType : String</text><text fill="#000000" font-family="sans-serif" font-size="14" lengthAdjust="spacing" textLength="146" x="1546.78" y="1161.0563">@schemaLocation : Uri</text><text fill="#000000" font-family="sans-serif" font-size="14" lengthAdjust="spacing" textLength="90" x="1546.78" y="1178.6657">@type : String</text></g><!--class UsageConsumptionLogicalResourceRef--><g id="elem_UsageConsumptionLogicalResourceRef"><rect codeLine="87" fill="#FFFFE0" height="173.9688" id="UsageConsumptionLogicalResourceRef" rx="2.5" ry="2.5" style="stroke:#181818;stroke-width:0.5;" width="257" x="187.28" y="1010.5075"/><text fill="#000000" font-family="sans-serif" font-size="12" font-style="italic" lengthAdjust="spacing" textLength="33" x="299.28" y="1027.9645">&#171;Ref&#187;</text><a href="UsageConsumptionLogicalResource.svg" target="_top" title="UsageConsumptionLogicalResource.svg" xlink:actuate="onRequest" xlink:href="UsageConsumptionLogicalResource.svg" xlink:show="new" xlink:title="UsageConsumptionLogicalResource.svg" xlink:type="simple"><text fill="#0000FF" font-family="sans-serif" font-size="14" lengthAdjust="spacing" text-decoration="underline" textLength="229" x="190.28" y="1045.1345">UsageConsumptionLogicalResource</text></a><text fill="#000000" font-family="sans-serif" font-size="14" lengthAdjust="spacing" textLength="22" x="419.28" y="1045.1345">Ref</text><line style="stroke:#181818;stroke-width:0.5;" x1="188.28" x2="443.28" y1="1053.2106" y2="1053.2106"/><text fill="#000000" font-family="sans-serif" font-size="14" lengthAdjust="spacing" textLength="54" x="193.28" y="1071.7438">href : Uri</text><text fill="#000000" font-family="sans-serif" font-size="14" lengthAdjust="spacing" textLength="60" x="193.28" y="1089.3532">id : String</text><text fill="#000000" font-family="sans-serif" font-size="14" lengthAdjust="spacing" textLength="84" x="193.28" y="1106.9626">name : String</text><text fill="#000000" font-family="sans-serif" font-size="14" lengthAdjust="spacing" textLength="126" x="193.28" y="1124.572">@baseType : String</text><text fill="#000000" font-family="sans-serif" font-size="14" lengthAdjust="spacing" textLength="146" x="193.28" y="1142.1813">@referredType : String</text><text fill="#000000" font-family="sans-serif" font-size="14" lengthAdjust="spacing" textLength="146" x="193.28" y="1159.7907">@schemaLocation : Uri</text><text fill="#000000" font-family="sans-serif" font-size="14" lengthAdjust="spacing" textLength="90" x="193.28" y="1177.4001">@type : String</text></g><!--class PartyAccountRef--><g id="elem_PartyAccountRef"><rect codeLine="97" fill="#FFFFE0" height="209.1875" id="PartyAccountRef" rx="2.5" ry="2.5" style="stroke:#181818;stroke-width:0.5;" width="158" x="969.78" y="351.8575"/><text fill="#000000" font-family="sans-serif" font-size="12" font-style="italic" lengthAdjust="spacing" textLength="33" x="1032.28" y="369.3145">&#171;Ref&#187;</text><a href="PartyAccount.svg" target="_top" title="PartyAccount.svg" xlink:actuate="onRequest" xlink:href="PartyAccount.svg" xlink:show="new" xlink:title="PartyAccount.svg" xlink:type="simple"><text fill="#0000FF" font-family="sans-serif" font-size="14" lengthAdjust="spacing" text-decoration="underline" textLength="84" x="995.78" y="386.4845">PartyAccount</text></a><text fill="#000000" font-family="sans-serif" font-size="14" lengthAdjust="spacing" textLength="22" x="1079.78" y="386.4845">Ref</text><line style="stroke:#181818;stroke-width:0.5;" x1="970.78" x2="1126.78" y1="394.5606" y2="394.5606"/><text fill="#000000" font-family="sans-serif" font-size="14" lengthAdjust="spacing" textLength="118" x="975.78" y="413.0938">description : String</text><text fill="#000000" font-family="sans-serif" font-size="14" lengthAdjust="spacing" textLength="74" x="975.78" y="430.7032">href : String</text><text fill="#000000" font-family="sans-serif" font-size="14" lengthAdjust="spacing" textLength="60" x="975.78" y="448.3126">id : String</text><text fill="#000000" font-family="sans-serif" font-size="14" lengthAdjust="spacing" textLength="84" x="975.78" y="465.922">name : String</text><text fill="#000000" font-family="sans-serif" font-size="14" lengthAdjust="spacing" textLength="87" x="975.78" y="483.5313">status : String</text><text fill="#000000" font-family="sans-serif" font-size="14" lengthAdjust="spacing" textLength="126" x="975.78" y="501.1407">@baseType : String</text><text fill="#000000" font-family="sans-serif" font-size="14" lengthAdjust="spacing" textLength="146" x="975.78" y="518.7501">@referredType : String</text><text fill="#000000" font-family="sans-serif" font-size="14" lengthAdjust="spacing" textLength="146" x="975.78" y="536.3595">@schemaLocation : Uri</text><text fill="#000000" font-family="sans-serif" font-size="14" lengthAdjust="spacing" textLength="90" x="975.78" y="553.9688">@type : String</text></g><!--class UsageConsumptionServiceRef--><g id="elem_UsageConsumptionServiceRef"><rect codeLine="109" fill="#FFFFE0" height="173.9688" id="UsageConsumptionServiceRef" rx="2.5" ry="2.5" style="stroke:#181818;stroke-width:0.5;" width="198" x="478.78" y="1010.5075"/><text fill="#000000" font-family="sans-serif" font-size="12" font-style="italic" lengthAdjust="spacing" textLength="33" x="561.28" y="1027.9645">&#171;Ref&#187;</text><a href="UsageConsumptionService.svg" target="_top" title="UsageConsumptionService.svg" xlink:actuate="onRequest" xlink:href="UsageConsumptionService.svg" xlink:show="new" xlink:title="UsageConsumptionService.svg" xlink:type="simple"><text fill="#0000FF" font-family="sans-serif" font-size="14" lengthAdjust="spacing" text-decoration="underline" textLength="170" x="481.78" y="1045.1345">UsageConsumptionService</text></a><text fill="#000000" font-family="sans-serif" font-size="14" lengthAdjust="spacing" textLength="22" x="651.78" y="1045.1345">Ref</text><line style="stroke:#181818;stroke-width:0.5;" x1="479.78" x2="675.78" y1="1053.2106" y2="1053.2106"/><text fill="#000000" font-family="sans-serif" font-size="14" lengthAdjust="spacing" textLength="54" x="484.78" y="1071.7438">href : Uri</text><text fill="#000000" font-family="sans-serif" font-size="14" lengthAdjust="spacing" textLength="60" x="484.78" y="1089.3532">id : String</text><text fill="#000000" font-family="sans-serif" font-size="14" lengthAdjust="spacing" textLength="84" x="484.78" y="1106.9626">name : String</text><text fill="#000000" font-family="sans-serif" font-size="14" lengthAdjust="spacing" textLength="126" x="484.78" y="1124.572">@baseType : String</text><text fill="#000000" font-family="sans-serif" font-size="14" lengthAdjust="spacing" textLength="146" x="484.78" y="1142.1813">@referredType : String</text><text fill="#000000" font-family="sans-serif" font-size="14" lengthAdjust="spacing" textLength="146" x="484.78" y="1159.7907">@schemaLocation : Uri</text><text fill="#000000" font-family="sans-serif" font-size="14" lengthAdjust="spacing" textLength="90" x="484.78" y="1177.4001">@type : String</text></g><!--class BucketRefOrValue--><g id="elem_BucketRefOrValue"><rect codeLine="119" fill="#FCF2E3" height="282.1406" id="BucketRefOrValue" rx="2.5" ry="2.5" style="stroke:#181818;stroke-width:0.5;" width="195" x="799.28" y="649.1075"/><a href="Bucket.svg" target="_top" title="Bucket.svg" xlink:actuate="onRequest" xlink:href="Bucket.svg" xlink:show="new" xlink:title="Bucket.svg" xlink:type="simple"><text fill="#0000FF" font-family="sans-serif" font-size="14" lengthAdjust="spacing" text-decoration="underline" textLength="43" x="838.28" y="668.6407">Bucket</text></a><text fill="#000000" font-family="sans-serif" font-size="14" lengthAdjust="spacing" textLength="74" x="881.28" y="668.6407">RefOrValue</text><line style="stroke:#181818;stroke-width:0.5;" x1="800.28" x2="993.28" y1="676.7169" y2="676.7169"/><text fill="#000000" font-family="sans-serif" font-size="14" lengthAdjust="spacing" textLength="118" x="805.28" y="695.2501">description : String</text><text fill="#000000" font-family="sans-serif" font-size="14" lengthAdjust="spacing" textLength="74" x="805.28" y="712.8595">href : String</text><text fill="#000000" font-family="sans-serif" font-size="14" lengthAdjust="spacing" textLength="60" x="805.28" y="730.4688">id : String</text><text fill="#000000" font-family="sans-serif" font-size="14" lengthAdjust="spacing" textLength="120" x="805.28" y="748.0782">isShared : Boolean</text><text fill="#000000" font-family="sans-serif" font-size="14" lengthAdjust="spacing" textLength="84" x="805.28" y="765.6876">name : String</text><text fill="#000000" font-family="sans-serif" font-size="14" lengthAdjust="spacing" textLength="163" x="805.28" y="783.297">remainingValue : Quantity</text><text fill="#000000" font-family="sans-serif" font-size="14" lengthAdjust="spacing" textLength="183" x="805.28" y="800.9063">remainingValueName : String</text><text fill="#000000" font-family="sans-serif" font-size="14" lengthAdjust="spacing" textLength="157" x="805.28" y="818.5157">reservedValue : Quantity</text><text fill="#000000" font-family="sans-serif" font-size="14" lengthAdjust="spacing" textLength="87" x="805.28" y="836.1251">status : String</text><text fill="#000000" font-family="sans-serif" font-size="14" lengthAdjust="spacing" textLength="120" x="805.28" y="853.7345">usageType : String</text><text fill="#000000" font-family="sans-serif" font-size="14" lengthAdjust="spacing" textLength="135" x="805.28" y="871.3438">validFor : TimePeriod</text><text fill="#000000" font-family="sans-serif" font-size="14" lengthAdjust="spacing" textLength="126" x="805.28" y="888.9532">@baseType : String</text><text fill="#000000" font-family="sans-serif" font-size="14" lengthAdjust="spacing" textLength="146" x="805.28" y="906.5626">@schemaLocation : Uri</text><text fill="#000000" font-family="sans-serif" font-size="14" lengthAdjust="spacing" textLength="90" x="805.28" y="924.172">@type : String</text></g><!--class BucketRelationship--><g id="elem_BucketRelationship"><rect codeLine="136" fill="#FCF2E3" height="106.0469" id="BucketRelationship" rx="2.5" ry="2.5" style="stroke:#181818;stroke-width:0.5;" width="166" x="989.78" y="1044.4675"/><text fill="#000000" font-family="sans-serif" font-size="14" lengthAdjust="spacing" textLength="121" x="1012.28" y="1064.0007">BucketRelationship</text><line style="stroke:#181818;stroke-width:0.5;" x1="990.78" x2="1154.78" y1="1072.0769" y2="1072.0769"/><text fill="#000000" font-family="sans-serif" font-size="14" lengthAdjust="spacing" textLength="154" x="995.78" y="1090.6101">relationshipType : String</text><text fill="#000000" font-family="sans-serif" font-size="14" lengthAdjust="spacing" textLength="126" x="995.78" y="1108.2195">@baseType : String</text><text fill="#000000" font-family="sans-serif" font-size="14" lengthAdjust="spacing" textLength="146" x="995.78" y="1125.8288">@schemaLocation : Uri</text><text fill="#000000" font-family="sans-serif" font-size="14" lengthAdjust="spacing" textLength="90" x="995.78" y="1143.4382">@type : String</text></g><!--class ReserveBalanceRef--><g id="elem_ReserveBalanceRef"><rect codeLine="143" fill="#FFFFE0" height="173.9688" id="ReserveBalanceRef" rx="2.5" ry="2.5" style="stroke:#181818;stroke-width:0.5;" width="158" x="1118.78" y="703.1975"/><text fill="#000000" font-family="sans-serif" font-size="12" font-style="italic" lengthAdjust="spacing" textLength="33" x="1181.28" y="720.6545">&#171;Ref&#187;</text><a href="ReserveBalance.svg" target="_top" title="ReserveBalance.svg" xlink:actuate="onRequest" xlink:href="ReserveBalance.svg" xlink:show="new" xlink:title="ReserveBalance.svg" xlink:type="simple"><text fill="#0000FF" font-family="sans-serif" font-size="14" lengthAdjust="spacing" text-decoration="underline" textLength="104" x="1134.78" y="737.8245">ReserveBalance</text></a><text fill="#000000" font-family="sans-serif" font-size="14" lengthAdjust="spacing" textLength="22" x="1238.78" y="737.8245">Ref</text><line style="stroke:#181818;stroke-width:0.5;" x1="1119.78" x2="1275.78" y1="745.9006" y2="745.9006"/><text fill="#000000" font-family="sans-serif" font-size="14" lengthAdjust="spacing" textLength="54" x="1124.78" y="764.4338">href : Uri</text><text fill="#000000" font-family="sans-serif" font-size="14" lengthAdjust="spacing" textLength="60" x="1124.78" y="782.0432">id : String</text><text fill="#000000" font-family="sans-serif" font-size="14" lengthAdjust="spacing" textLength="84" x="1124.78" y="799.6526">name : String</text><text fill="#000000" font-family="sans-serif" font-size="14" lengthAdjust="spacing" textLength="126" x="1124.78" y="817.262">@baseType : String</text><text fill="#000000" font-family="sans-serif" font-size="14" lengthAdjust="spacing" textLength="146" x="1124.78" y="834.8713">@referredType : String</text><text fill="#000000" font-family="sans-serif" font-size="14" lengthAdjust="spacing" textLength="146" x="1124.78" y="852.4807">@schemaLocation : Uri</text><text fill="#000000" font-family="sans-serif" font-size="14" lengthAdjust="spacing" textLength="90" x="1124.78" y="870.0901">@type : String</text></g><!--link QueryUsageConsumption to PartyAccountRef--><g id="link_QueryUsageConsumption_PartyAccountRef"><path codeLine="153" d="M951.9198,274.7136 C967.0698,302.9736 975.0265,317.8287 990.2365,346.2187 " fill="none" id="QueryUsageConsumption-PartyAccountRef" style="stroke:#181818;stroke-width:1.0;"/><polygon fill="#181818" points="946.25,264.1375,945.5595,271.3155,951.9198,274.7136,952.6102,267.5356,946.25,264.1375" style="stroke:#181818;stroke-width:1.0;"/><polygon fill="#181818" points="993.07,351.5075,992.3456,341.6853,990.7088,347.1002,985.2939,345.4633,993.07,351.5075" style="stroke:#181818;stroke-width:1.0;"/><text fill="#000000" font-family="sans-serif" font-size="13" lengthAdjust="spacing" textLength="77" x="971.78" y="308.2926">partyAccount</text><text fill="#000000" font-family="sans-serif" font-size="13" lengthAdjust="spacing" textLength="20" x="989.856" y="341.0736">0..*</text></g><!--link QueryUsageConsumption to RelatedParty--><g id="link_QueryUsageConsumption_RelatedParty"><path codeLine="155" d="M1040.7208,197.4681 C1238.0808,251.7181 1580.93,380.2575 1711.78,649.1075 C1766.66,761.8675 1743.29,809.8775 1711.78,931.2575 C1704.85,957.9475 1695.4641,979.6671 1682.0841,1003.8571 " fill="none" id="QueryUsageConsumption-RelatedParty" style="stroke:#181818;stroke-width:1.0;"/><polygon fill="#181818" points="1029.15,194.2875,1033.8752,199.7347,1040.7208,197.4681,1035.9956,192.0208,1029.15,194.2875" style="stroke:#181818;stroke-width:1.0;"/><polygon fill="#181818" points="1679.18,1009.1075,1687.0364,1003.168,1681.6001,1004.7322,1680.0359,999.2959,1679.18,1009.1075" style="stroke:#181818;stroke-width:1.0;"/><text fill="#000000" font-family="sans-serif" font-size="13" lengthAdjust="spacing" textLength="70" x="1693.78" y="615.6026">relatedParty</text><text fill="#000000" font-family="sans-serif" font-size="13" lengthAdjust="spacing" textLength="20" x="1663.4253" y="998.334">0..*</text></g><!--link QueryUsageConsumption to UsageConsumption--><g id="link_QueryUsageConsumption_UsageConsumption"><path codeLine="157" d="M743.1126,201.3683 C691.9026,221.2383 649.52,247.4575 616.78,293.7975 C606.85,307.8575 601.9268,318.5285 598.3068,335.5685 " fill="none" id="QueryUsageConsumption-UsageConsumption" style="stroke:#181818;stroke-width:1.0;"/><polygon fill="#181818" points="754.3,197.0275,747.2594,195.4688,743.1126,201.3683,750.1533,202.927,754.3,197.0275" style="stroke:#181818;stroke-width:1.0;"/><polygon fill="#181818" points="597.06,341.4375,602.8429,333.4652,598.099,336.5466,595.0176,331.8027,597.06,341.4375" style="stroke:#181818;stroke-width:1.0;"/><text fill="#000000" font-family="sans-serif" font-size="13" lengthAdjust="spacing" textLength="80" x="617.78" y="308.2926">searchCriteria</text><text fill="#000000" font-family="sans-serif" font-size="13" lengthAdjust="spacing" textLength="22" x="574.1811" y="331.0631">0..1</text></g><!--link QueryUsageConsumption to UsageConsumption--><g id="link_QueryUsageConsumption_UsageConsumption"><path codeLine="159" d="M766.8366,272.4638 C756.2766,282.2938 754.64,284.0675 744.78,293.7975 C724.18,314.1275 720.17,320.3175 700.78,341.7975 C695.03,348.1675 693.1208,350.2761 687.1708,356.9261 " fill="none" id="QueryUsageConsumption-UsageConsumption-1" style="stroke:#181818;stroke-width:1.0;"/><polygon fill="#181818" points="775.62,264.2875,768.5029,265.4478,766.8366,272.4638,773.9537,271.3034,775.62,264.2875" style="stroke:#181818;stroke-width:1.0;"/><polygon fill="#181818" points="683.17,361.3975,692.1521,357.3575,686.504,357.6713,686.1902,352.0231,683.17,361.3975" style="stroke:#181818;stroke-width:1.0;"/><text fill="#000000" font-family="sans-serif" font-size="13" lengthAdjust="spacing" textLength="111" x="745.78" y="308.2926">usageConsumption</text><text fill="#000000" font-family="sans-serif" font-size="13" lengthAdjust="spacing" textLength="20" x="690.3138" y="349.8506">0..*</text></g><!--link UsageConsumption to BucketRefOrValue--><g id="link_UsageConsumption_BucketRefOrValue"><path codeLine="161" d="M691.1096,562.6089 C710.4396,584.3689 723.14,598.2375 742.78,619.1075 C755.7,632.8475 759.86,635.3775 772.78,649.1075 C781.35,658.2175 786.1001,663.3214 794.8701,672.9514 " fill="none" id="UsageConsumption-BucketRefOrValue" style="stroke:#181818;stroke-width:1.0;"/><polygon fill="#181818" points="683.14,553.6375,684.1343,560.7797,691.1096,562.6089,690.1152,555.4667,683.14,553.6375" style="stroke:#181818;stroke-width:1.0;"/><polygon fill="#181818" points="798.91,677.3875,795.8075,668.0401,795.5434,673.6908,789.8927,673.4266,798.91,677.3875" style="stroke:#181818;stroke-width:1.0;"/><text fill="#000000" font-family="sans-serif" font-size="13" lengthAdjust="spacing" textLength="105" x="743.78" y="615.6026">bucketRefOrValue</text><text fill="#000000" font-family="sans-serif" font-size="13" lengthAdjust="spacing" textLength="20" x="771.3254" y="666.4019">0..*</text></g><!--link PartyAccountRef to BucketRefOrValue--><g id="link_PartyAccountRef_BucketRefOrValue"><path codeLine="163" d="M998.6022,566.9629 C985.9422,594.6129 979.5393,608.5685 966.1393,637.8085 " fill="none" id="PartyAccountRef-BucketRefOrValue" style="stroke:#181818;stroke-width:1.0;"/><polygon fill="#181818" points="1001.1,561.5075,993.7164,568.0253,999.0185,566.0536,1000.9902,571.3557,1001.1,561.5075" style="stroke:#181818;stroke-width:1.0;"/><polygon fill="#181818" points="961.14,648.7175,967.276,644.9294,966.1393,637.8085,960.0033,641.5965,961.14,648.7175" style="stroke:#181818;stroke-width:1.0;"/><text fill="#000000" font-family="sans-serif" font-size="13" lengthAdjust="spacing" textLength="77" x="983.78" y="615.6026">partyAccount</text><text fill="#000000" font-family="sans-serif" font-size="13" lengthAdjust="spacing" textLength="22" x="975.1574" y="582.6104">0..1</text></g><!--link UsageConsumption to PartyAccountRef--><g id="link_UsageConsumption_PartyAccountRef"><path codeLine="165" d="M692.8152,345.8889 C698.4852,341.7289 694.7,345.0575 700.78,341.7975 C748.88,316.0475 896.44,295.0875 945.28,319.4075 C960.89,327.1875 970.6767,334.18 982.7967,347.11 " fill="none" id="UsageConsumption-PartyAccountRef" style="stroke:#181818;stroke-width:1.0;"/><polygon fill="#181818" points="683.14,352.9875,690.3438,352.6633,692.8152,345.8889,685.6114,346.2131,683.14,352.9875" style="stroke:#181818;stroke-width:1.0;"/><polygon fill="#181818" points="986.9,351.4875,983.6634,342.1857,983.4806,347.8396,977.8267,347.6567,986.9,351.4875" style="stroke:#181818;stroke-width:1.0;"/><text fill="#000000" font-family="sans-serif" font-size="13" lengthAdjust="spacing" textLength="77" x="867.28" y="308.2926">partyAccount</text><text fill="#000000" font-family="sans-serif" font-size="13" lengthAdjust="spacing" textLength="20" x="961.8459" y="341.0522">0..*</text></g><!--link UsageConsumption to RelatedParty--><g id="link_UsageConsumption_RelatedParty"><path codeLine="167" d="M692.8283,567.2475 C698.5183,571.3075 694.67,567.9975 700.78,571.1075 C778.76,610.8975 1418.49,591.9375 1484.78,649.1075 C1582.7,733.5675 1516.58,808.0375 1555.78,931.2575 C1563.89,956.7575 1571.7188,978.4241 1581.3688,1003.2841 " fill="none" id="UsageConsumption-RelatedParty" style="stroke:#181818;stroke-width:1.0;"/><polygon fill="#181818" points="683.06,560.2775,685.6208,567.0186,692.8283,567.2475,690.2675,560.5064,683.06,560.2775" style="stroke:#181818;stroke-width:1.0;"/><polygon fill="#181818" points="1583.54,1008.8775,1584.0121,999.04,1581.7307,1004.2164,1576.5543,1001.9349,1583.54,1008.8775" style="stroke:#181818;stroke-width:1.0;"/><text fill="#000000" font-family="sans-serif" font-size="13" lengthAdjust="spacing" textLength="70" x="1556.78" y="795.6826">relatedParty</text><text fill="#000000" font-family="sans-serif" font-size="13" lengthAdjust="spacing" textLength="20" x="1559.7108" y="998.3856">0..*</text></g><!--link PartyAccountRef to TaskStateType--><!--link UsageConsumption to UsageConsumptionProductRef--><g id="link_UsageConsumption_UsageConsumptionProductRef"><path codeLine="171" d="M540.228,582.6551 C498.588,687.1551 465.34,829.5175 544.78,931.2575 C578.61,974.5875 615.77,936.3375 664.78,961.2575 C690.25,974.2075 710.5831,988.0343 733.0231,1006.2643 " fill="none" id="UsageConsumption-UsageConsumptionProductRef" style="stroke:#181818;stroke-width:1.0;"/><polygon fill="#181818" points="544.67,571.5075,538.7331,575.6006,540.228,582.6551,546.1649,578.562,544.67,571.5075" style="stroke:#181818;stroke-width:1.0;"/><polygon fill="#181818" points="737.68,1010.0475,733.2168,1001.268,733.7992,1006.8948,728.1724,1007.4773,737.68,1010.0475" style="stroke:#181818;stroke-width:1.0;"/><text fill="#000000" font-family="sans-serif" font-size="13" lengthAdjust="spacing" textLength="43" x="545.78" y="795.6826">product</text><text fill="#000000" font-family="sans-serif" font-size="13" lengthAdjust="spacing" textLength="20" x="709.4733" y="999.6532">0..*</text></g><!--link UsageConsumptionProductRef to BucketRefOrValue--><!--link UsageConsumptionProductRef to BucketRefOrValue--><g id="link_UsageConsumptionProductRef_BucketRefOrValue"><path codeLine="191" d="M819.1624,1004.1178 C819.3324,987.7678 820.56,976.8975 823.78,961.2575 C825.82,951.3375 824.9382,952.7591 828.0082,942.7591 " fill="none" id="UsageConsumptionProductRef-BucketRefOrValue" style="stroke:#181818;stroke-width:1.0;"/><polygon fill="#181818" points="819.1,1010.1175,823.1934,1001.1596,819.152,1005.1178,815.1938,1001.0764,819.1,1010.1175" style="stroke:#181818;stroke-width:1.0;"/><polygon fill="#181818" points="831.53,931.2875,825.9453,935.8494,828.0082,942.7591,833.593,938.1972,831.53,931.2875" style="stroke:#181818;stroke-width:1.0;"/><text fill="#000000" font-family="sans-serif" font-size="13" lengthAdjust="spacing" textLength="43" x="824.78" y="975.7526">product</text><text fill="#000000" font-family="sans-serif" font-size="13" lengthAdjust="spacing" textLength="20" x="797.6359" y="999.729">0..*</text></g><!--link UsageConsumption to UsageConsumptionServiceRef--><g id="link_UsageConsumption_UsageConsumptionServiceRef"><path codeLine="175" d="M504.8704,477.295 C416.4104,500.115 292.62,547.3075 230.78,649.1075 C165.68,756.2875 157.66,829.3875 230.78,931.2575 C293.97,1019.2875 365.93,958.7075 461.78,1009.2575 C467.35,1012.1875 467.8155,1012.2666 473.3655,1015.6466 " fill="none" id="UsageConsumption-UsageConsumptionServiceRef" style="stroke:#181818;stroke-width:1.0;"/><polygon fill="#181818" points="516.49,474.2975,509.681,471.9231,504.8704,477.295,511.6794,479.6694,516.49,474.2975" style="stroke:#181818;stroke-width:1.0;"/><polygon fill="#181818" points="478.49,1018.7675,472.8839,1010.6699,474.2196,1016.1668,468.7227,1017.5025,478.49,1018.7675" style="stroke:#181818;stroke-width:1.0;"/><text fill="#000000" font-family="sans-serif" font-size="13" lengthAdjust="spacing" textLength="40" x="231.78" y="795.6826">service</text><text fill="#000000" font-family="sans-serif" font-size="13" lengthAdjust="spacing" textLength="20" x="450.8055" y="1027.3022">0..*</text></g><!--link UsageConsumptionServiceRef to UsageConsumptionProductRef--><!--link UsageConsumption to UsageConsumptionLogicalResourceRef--><g id="link_UsageConsumption_UsageConsumptionLogicalResourceRef"><path codeLine="179" d="M504.415,461.2638 C384.155,470.4738 177.53,506.2275 77.78,649.1075 C6,751.9275 19.66,820.1375 77.78,931.2575 C101.56,976.7175 139.0683,1009.0457 181.7283,1035.2657 " fill="none" id="UsageConsumption-UsageConsumptionLogicalResourceRef" style="stroke:#181818;stroke-width:1.0;"/><polygon fill="#181818" points="516.38,460.3475,510.0921,456.8173,504.415,461.2638,510.703,464.794,516.38,460.3475" style="stroke:#181818;stroke-width:1.0;"/><polygon fill="#181818" points="186.84,1038.4075,181.267,1030.2871,182.5803,1035.7894,177.078,1037.1026,186.84,1038.4075" style="stroke:#181818;stroke-width:1.0;"/><text fill="#000000" font-family="sans-serif" font-size="13" lengthAdjust="spacing" textLength="92" x="78.78" y="795.6826">logicalResource</text><text fill="#000000" font-family="sans-serif" font-size="13" lengthAdjust="spacing" textLength="20" x="159.2417" y="1032.2436">0..*</text></g><!--link UsageConsumptionLogicalResourceRef to UsageConsumptionServiceRef--><!--link ConsumptionSummary to RelatedParty--><g id="link_ConsumptionSummary_RelatedParty"><path codeLine="183" d="M946.0204,568.5762 C951.6604,571.6962 946.92,568.6975 952.78,571.1075 C1080.09,623.6175 1443.59,550.7775 1571.78,601.1075 C1717.46,658.3175 1682.5702,876.7612 1648.8002,1003.0312 " fill="none" id="ConsumptionSummary-RelatedParty" style="stroke:#181818;stroke-width:1.0;"/><polygon fill="#181818" points="935.52,562.7675,938.834,569.172,946.0204,568.5762,942.7064,562.1717,935.52,562.7675" style="stroke:#181818;stroke-width:1.0;"/><polygon fill="#181818" points="1647.25,1008.8275,1653.4395,1001.1665,1648.5418,1003.9973,1645.7111,999.0996,1647.25,1008.8275" style="stroke:#181818;stroke-width:1.0;"/><text fill="#000000" font-family="sans-serif" font-size="13" lengthAdjust="spacing" textLength="25" x="1677.78" y="795.6826">user</text><text fill="#000000" font-family="sans-serif" font-size="13" lengthAdjust="spacing" textLength="22" x="1626.6139" y="998.3315">0..1</text></g><!--link ConsumptionSummary to UsageConsumptionProductRef--><g id="link_ConsumptionSummary_UsageConsumptionProductRef"><path codeLine="185" d="M940.7961,564.4623 C946.4061,568.0223 947.03,568.1275 952.78,571.1075 C1090.72,642.8275 1192.1,531.5075 1293.78,649.1075 C1341.9,704.7675 1368.51,925.0375 1318.78,979.2575 C1266.46,1036.2875 1045.4,985.3475 971.78,1009.2575 C956.69,1014.1475 952.1759,1015.3492 937.6159,1022.8892 " fill="none" id="ConsumptionSummary-UsageConsumptionProductRef" style="stroke:#181818;stroke-width:1.0;"/><polygon fill="#181818" points="935.73,561.2475,941.1859,569.4471,939.9517,563.9265,945.4723,562.6924,935.73,561.2475" style="stroke:#181818;stroke-width:1.0;"/><polygon fill="#181818" points="926.96,1028.4075,934.1274,1029.2004,937.6159,1022.8892,930.4485,1022.0964,926.96,1028.4075" style="stroke:#181818;stroke-width:1.0;"/><text fill="#000000" font-family="sans-serif" font-size="13" lengthAdjust="spacing" textLength="130" x="1345.78" y="795.6826">consumptionSummary</text><text fill="#000000" font-family="sans-serif" font-size="13" lengthAdjust="spacing" textLength="20" x="941.71" y="566.7279">0..*</text></g><!--link ConsumptionSummary to UsageConsumptionLogicalResourceRef--><g id="link_ConsumptionSummary_UsageConsumptionLogicalResourceRef"><path codeLine="187" d="M712.7639,564.4623 C707.1539,568.0223 706.53,568.1275 700.78,571.1075 C562.43,642.9775 461.72,532.0275 358.78,649.1075 C271.97,747.8575 278.8858,898.5928 295.0658,998.1928 " fill="none" id="ConsumptionSummary-UsageConsumptionLogicalResourceRef" style="stroke:#181818;stroke-width:1.0;"/><polygon fill="#181818" points="717.83,561.2475,708.0877,562.6924,713.6083,563.9265,712.3741,569.4471,717.83,561.2475" style="stroke:#181818;stroke-width:1.0;"/><polygon fill="#181818" points="296.99,1010.0375,299.9762,1003.4737,295.0658,998.1928,292.0797,1004.7565,296.99,1010.0375" style="stroke:#181818;stroke-width:1.0;"/><text fill="#000000" font-family="sans-serif" font-size="13" lengthAdjust="spacing" textLength="130" x="359.78" y="795.6826">consumptionSummary</text><text fill="#000000" font-family="sans-serif" font-size="13" lengthAdjust="spacing" textLength="20" x="690.2098" y="564.9544">0..*</text></g><!--link ConsumptionSummary to UsageConsumptionServiceRef--><g id="link_ConsumptionSummary_UsageConsumptionServiceRef"><path codeLine="189" d="M733.0627,567.1341 C715.7827,586.3041 701.54,601.3675 683.78,619.1075 C669.52,633.3575 659.83,631.6475 649.78,649.1075 C586.05,759.9375 669.08,827.9375 593.78,931.2575 C577.61,953.4375 553.7,937.5875 539.78,961.2575 C531,976.1775 527.7981,981.4331 530.9581,998.2831 " fill="none" id="ConsumptionSummary-UsageConsumptionServiceRef" style="stroke:#181818;stroke-width:1.0;"/><polygon fill="#181818" points="737.08,562.6775,728.083,566.6843,733.7323,566.3914,734.0252,572.0406,737.08,562.6775" style="stroke:#181818;stroke-width:1.0;"/><polygon fill="#181818" points="533.17,1010.0775,535.9955,1003.443,530.9581,998.2831,528.1326,1004.9176,533.17,1010.0775" style="stroke:#181818;stroke-width:1.0;"/><text fill="#000000" font-family="sans-serif" font-size="13" lengthAdjust="spacing" textLength="130" x="650.78" y="795.6826">consumptionSummary</text><text fill="#000000" font-family="sans-serif" font-size="13" lengthAdjust="spacing" textLength="20" x="710.3814" y="583.8585">0..*</text></g><!--link ConsumptionSummary to BucketRefOrValue--><g id="link_ConsumptionSummary_BucketRefOrValue"><path codeLine="193" d="M850.1692,568.2881 C855.9592,595.7181 858.5711,608.1163 864.6811,637.0563 " fill="none" id="ConsumptionSummary-BucketRefOrValue" style="stroke:#181818;stroke-width:1.0;"/><polygon fill="#181818" points="848.93,562.4175,846.875,572.0496,849.9627,567.3097,854.7025,570.3973,848.93,562.4175" style="stroke:#181818;stroke-width:1.0;"/><polygon fill="#181818" points="867.16,648.7975,869.8343,642.1006,864.6811,637.0563,862.0068,643.7532,867.16,648.7975" style="stroke:#181818;stroke-width:1.0;"/><text fill="#000000" font-family="sans-serif" font-size="13" lengthAdjust="spacing" textLength="84" x="860.78" y="615.6026">bucketCounter</text><text fill="#000000" font-family="sans-serif" font-size="13" lengthAdjust="spacing" textLength="20" x="829.7843" y="583.9377">0..*</text></g><!--link BucketRefOrValue to RelatedParty--><g id="link_BucketRefOrValue_RelatedParty"><path codeLine="195" d="M1004.477,873.4402 C1037.297,896.3702 1065.08,913.3375 1101.78,931.2575 C1122.03,941.1375 1394.6812,1026.4741 1534.7412,1070.0741 " fill="none" id="BucketRefOrValue-RelatedParty" style="stroke:#181818;stroke-width:1.0;"/><polygon fill="#181818" points="994.64,866.5675,997.2676,873.2828,1004.477,873.4402,1001.8494,866.7249,994.64,866.5675" style="stroke:#181818;stroke-width:1.0;"/><polygon fill="#181818" points="1540.47,1071.8575,1533.0656,1065.3632,1535.696,1070.3714,1530.6878,1073.0017,1540.47,1071.8575" style="stroke:#181818;stroke-width:1.0;"/><text fill="#000000" font-family="sans-serif" font-size="13" lengthAdjust="spacing" textLength="70" x="1239.78" y="975.7526">relatedParty</text><text fill="#000000" font-family="sans-serif" font-size="13" lengthAdjust="spacing" textLength="20" x="1512.7949" y="1066.4766">0..*</text></g><!--link BucketRefOrValue to UsageConsumptionLogicalResourceRef--><g id="link_BucketRefOrValue_UsageConsumptionLogicalResourceRef"><path codeLine="197" d="M789.4519,920.8642 C781.1219,927.5142 781.8,926.0875 772.78,931.2575 C712.64,965.6775 687.03,944.5475 619.78,961.2575 C548.14,979.0475 528.26,979.3275 460.78,1009.2575 C455.41,1011.6375 455.3763,1011.534 449.9563,1014.194 " fill="none" id="BucketRefOrValue-UsageConsumptionLogicalResourceRef" style="stroke:#181818;stroke-width:1.0;"/><polygon fill="#181818" points="798.83,913.3775,791.6454,913.9948,789.4519,920.8642,796.6365,920.2469,798.83,913.3775" style="stroke:#181818;stroke-width:1.0;"/><polygon fill="#181818" points="444.57,1016.8375,454.4117,1016.4632,449.0586,1014.6346,450.8871,1009.2815,444.57,1016.8375" style="stroke:#181818;stroke-width:1.0;"/><text fill="#000000" font-family="sans-serif" font-size="13" lengthAdjust="spacing" textLength="92" x="620.78" y="975.7526">logicalResource</text><text fill="#000000" font-family="sans-serif" font-size="13" lengthAdjust="spacing" textLength="20" x="450.8955" y="1008.4733">0..*</text></g><!--link BucketRefOrValue to UsageConsumptionServiceRef--><g id="link_BucketRefOrValue_UsageConsumptionServiceRef"><path codeLine="199" d="M790.7647,913.2161 C782.0547,922.4261 781.48,922.7375 772.78,931.2575 C742.81,960.5775 712.9865,986.9211 681.4965,1013.3411 " fill="none" id="BucketRefOrValue-UsageConsumptionServiceRef" style="stroke:#181818;stroke-width:1.0;"/><polygon fill="#181818" points="799.01,904.4975,791.9811,906.1084,790.7647,913.2161,797.7936,911.6053,799.01,904.4975" style="stroke:#181818;stroke-width:1.0;"/><polygon fill="#181818" points="676.9,1017.1975,686.3657,1014.4772,680.7304,1013.9838,681.2238,1008.3485,676.9,1017.1975" style="stroke:#181818;stroke-width:1.0;"/><text fill="#000000" font-family="sans-serif" font-size="13" lengthAdjust="spacing" textLength="40" x="738.78" y="975.7526">service</text><text fill="#000000" font-family="sans-serif" font-size="13" lengthAdjust="spacing" textLength="20" x="684.9135" y="1008.2214">0..*</text></g><!--link BucketRefOrValue to BucketRelationship--><g id="link_BucketRefOrValue_BucketRelationship"><path codeLine="201" d="M1002.9128,878.6951 C1028.8128,904.8551 1045.38,927.4775 1060.78,961.2575 C1072.47,986.8775 1075.793,1012.0579 1076.083,1038.0079 " fill="none" id="BucketRefOrValue-BucketRelationship" style="stroke:#181818;stroke-width:1.0;"/><polygon fill="#181818" points="994.47,870.1675,995.8489,877.2455,1002.9128,878.6951,1001.5339,871.617,994.47,870.1675" style="stroke:#181818;stroke-width:1.0;"/><polygon fill="#181818" points="1076.15,1044.0075,1080.0492,1034.9634,1076.0941,1039.0078,1072.0497,1035.0528,1076.15,1044.0075" style="stroke:#181818;stroke-width:1.0;"/><text fill="#000000" font-family="sans-serif" font-size="13" lengthAdjust="spacing" textLength="110" x="1068.78" y="975.7526">bucketRelationship</text><text fill="#000000" font-family="sans-serif" font-size="13" lengthAdjust="spacing" textLength="20" x="1055.3005" y="1033.6476">0..*</text></g><!--link BucketRefOrValue to BucketRelationship--><g id="link_BucketRefOrValue_BucketRelationship"><path codeLine="203" d="M925.7167,937.0984 C931.6767,953.7984 936.93,964.4975 945.78,979.2575 C960.28,1003.4475 972.2942,1017.7016 993.0342,1036.1516 " fill="none" id="BucketRefOrValue-BucketRelationship-1" style="stroke:#181818;stroke-width:1.0;"/><polygon fill="#181818" points="923.7,931.4475,922.9578,941.2684,925.3806,936.1566,930.4924,938.5794,923.7,931.4475" style="stroke:#181818;stroke-width:1.0;"/><polygon fill="#181818" points="1002,1044.1275,1000.1757,1037.151,993.0342,1036.1516,994.8585,1043.1282,1002,1044.1275" style="stroke:#181818;stroke-width:1.0;"/><text fill="#000000" font-family="sans-serif" font-size="13" lengthAdjust="spacing" textLength="105" x="946.78" y="975.7526">bucketRefOrValue</text><text fill="#000000" font-family="sans-serif" font-size="13" lengthAdjust="spacing" textLength="7" x="917.9076" y="952.6484">1</text></g><!--link BucketRefOrValue to ReserveBalanceRef--><g id="link_BucketRefOrValue_ReserveBalanceRef"><path codeLine="205" d="M1006.51,790.1875 C1046.67,790.1875 1074.59,790.1875 1112.6,790.1875 " fill="none" id="BucketRefOrValue-ReserveBalanceRef" style="stroke:#181818;stroke-width:1.0;"/><polygon fill="#181818" points="994.51,790.1875,1000.51,794.1875,1006.51,790.1875,1000.51,786.1875,994.51,790.1875" style="stroke:#181818;stroke-width:1.0;"/><polygon fill="#181818" points="1118.6,790.1875,1109.6,786.1875,1113.6,790.1875,1109.6,794.1875,1118.6,790.1875" style="stroke:#181818;stroke-width:1.0;"/><text fill="#000000" font-family="sans-serif" font-size="13" lengthAdjust="spacing" textLength="88" x="1012.53" y="783.6826">reserveBalance</text><text fill="#000000" font-family="sans-serif" font-size="13" lengthAdjust="spacing" textLength="20" x="1090.6574" y="804.4113">0..*</text></g><rect fill="#DDDDDD" height="27.6094" id="_legend" rx="7.5" ry="7.5" style="stroke:#000000;stroke-width:1.0;" width="123" x="818.33" y="1203.7419"/><a href="index.htm" target="_top" title="index.htm" xlink:actuate="onRequest" xlink:href="index.htm" xlink:show="new" xlink:title="index.htm" xlink:type="simple"><text fill="#0000FF" font-family="sans-serif" font-size="14" lengthAdjust="spacing" text-decoration="underline" textLength="113" x="823.33" y="1223.2751">Go to API Catalog</text></a></g></svg>