<?xml version="1.0" encoding="UTF-8" standalone="no"?><svg xmlns="http://www.w3.org/2000/svg" xmlns:xlink="http://www.w3.org/1999/xlink" contentScriptType="application/ecmascript" contentStyleType="text/css" height="1069px" preserveAspectRatio="none" style="width:1795px;height:1069px;" version="1.1" viewBox="0 0 1795 1069" width="1795px" zoomAndPan="magnify"><defs><filter height="300%" id="f9j0quba5nd08" width="300%" x="-1" y="-1"><feGaussianBlur result="blurOut" stdDeviation="2.0"/><feColorMatrix in="blurOut" result="blurOut2" type="matrix" values="0 0 0 0 0 0 0 0 0 0 0 0 0 0 0 0 0 0 .4 0"/><feOffset dx="4.0" dy="4.0" in="blurOut2" result="blurOut3"/><feBlend in="SourceGraphic" in2="blurOut3" mode="normal"/></filter></defs><g><!--class QueryUsageConsumption--><rect fill="#FFFFFF" filter="url(#f9j0quba5nd08)" height="161.8438" id="QueryUsageConsumption" style="stroke: #A80036; stroke-width: 1.5;" width="221" x="1257.83" y="8.16"/><text fill="#000000" font-family="sans-serif" font-size="12" lengthAdjust="spacingAndGlyphs" textLength="144" x="1296.33" y="25.617">QueryUsageConsumption</text><text fill="#000000" font-family="sans-serif" font-size="12" lengthAdjust="spacingAndGlyphs" textLength="4" x="1279.83" y="40.7108">(</text><text fill="#000000" font-family="sans-serif" font-size="9" font-style="italic" lengthAdjust="spacingAndGlyphs" textLength="17" x="1283.83" y="41.37">from</text><a target="_top" xlink:actuate="onRequest" xlink:href="TMF677.svg" xlink:show="new" xlink:title="TMF677.svg" xlink:type="simple"><text fill="#0000FF" font-family="sans-serif" font-size="9" font-style="italic" lengthAdjust="spacingAndGlyphs" text-decoration="underline" textLength="121" x="1303.83" y="41.37">TMF677-Usage Consumption</text><line style="stroke: #0000FF; stroke-width: 1.0;" x1="1303.83" x2="1424.83" y1="43.37" y2="43.37"/></a><text fill="#000000" font-family="sans-serif" font-size="9" font-style="italic" lengthAdjust="spacingAndGlyphs" textLength="26" x="1427.83" y="41.37">v4.0.0</text><text fill="#000000" font-family="sans-serif" font-size="9" lengthAdjust="spacingAndGlyphs" textLength="3" x="1453.83" y="41.37">)</text><line style="stroke: #A80036; stroke-width: 1.5;" x1="1258.83" x2="1477.83" y1="48.3475" y2="48.3475"/><text fill="#000000" font-family="sans-serif" font-size="9" font-style="italic" lengthAdjust="spacingAndGlyphs" textLength="209" x="1263.83" y="61.6903">An QueryUsageConsumption allows to manage the</text><text fill="#000000" font-family="sans-serif" font-size="9" font-style="italic" lengthAdjust="spacingAndGlyphs" textLength="184" x="1263.83" y="73.0106">calculation request of an usage consumption</text><line style="stroke: #A80036; stroke-width: 1.0; stroke-dasharray: 1.0,2.0;" x1="1258.83" x2="1477.83" y1="78.9881" y2="78.9881"/><text fill="#000000" font-family="sans-serif" font-size="11" lengthAdjust="spacingAndGlyphs" textLength="42" x="1263.83" y="94.4071">href : Uri</text><text fill="#000000" font-family="sans-serif" font-size="11" lengthAdjust="spacingAndGlyphs" textLength="45" x="1263.83" y="108.243">id : String</text><text fill="#000000" font-family="sans-serif" font-size="11" lengthAdjust="spacingAndGlyphs" textLength="196" x="1263.83" y="122.0789">queryUsageConsumptionDate : DateTime</text><text fill="#000000" font-family="sans-serif" font-size="11" lengthAdjust="spacingAndGlyphs" textLength="96" x="1263.83" y="135.9149">@baseType : String</text><text fill="#000000" font-family="sans-serif" font-size="11" lengthAdjust="spacingAndGlyphs" textLength="112" x="1263.83" y="149.7508">@schemaLocation : Uri</text><text fill="#000000" font-family="sans-serif" font-size="11" lengthAdjust="spacingAndGlyphs" textLength="69" x="1263.83" y="163.5868">@type : String</text><!--class UsageConsumption--><rect fill="#FCF2E3" filter="url(#f9j0quba5nd08)" height="185.2891" id="UsageConsumption" style="stroke: #A80036; stroke-width: 1.5;" width="126" x="1102.33" y="268"/><text fill="#000000" font-family="sans-serif" font-size="12" lengthAdjust="spacingAndGlyphs" textLength="112" x="1109.33" y="285.457">UsageConsumption</text><line style="stroke: #A80036; stroke-width: 1.5;" x1="1103.33" x2="1227.33" y1="293.0938" y2="293.0938"/><text fill="#000000" font-family="sans-serif" font-size="11" lengthAdjust="spacingAndGlyphs" textLength="114" x="1108.33" y="308.5127">creationDate : DateTime</text><text fill="#000000" font-family="sans-serif" font-size="11" lengthAdjust="spacingAndGlyphs" textLength="90" x="1108.33" y="322.3486">description : String</text><text fill="#000000" font-family="sans-serif" font-size="11" lengthAdjust="spacingAndGlyphs" textLength="42" x="1108.33" y="336.1846">href : Uri</text><text fill="#000000" font-family="sans-serif" font-size="11" lengthAdjust="spacingAndGlyphs" textLength="45" x="1108.33" y="350.0205">id : String</text><text fill="#000000" font-family="sans-serif" font-size="11" lengthAdjust="spacingAndGlyphs" textLength="104" x="1108.33" y="363.8564">lastUpdate : DateTime</text><text fill="#000000" font-family="sans-serif" font-size="11" lengthAdjust="spacingAndGlyphs" textLength="63" x="1108.33" y="377.6924">name : String</text><text fill="#000000" font-family="sans-serif" font-size="11" lengthAdjust="spacingAndGlyphs" textLength="105" x="1108.33" y="391.5283">state : TaskStateType</text><text fill="#000000" font-family="sans-serif" font-size="11" lengthAdjust="spacingAndGlyphs" textLength="113" x="1108.33" y="405.3643">validPeriod : TimePeriod</text><text fill="#000000" font-family="sans-serif" font-size="11" lengthAdjust="spacingAndGlyphs" textLength="96" x="1108.33" y="419.2002">@baseType : String</text><text fill="#000000" font-family="sans-serif" font-size="11" lengthAdjust="spacingAndGlyphs" textLength="112" x="1108.33" y="433.0361">@schemaLocation : Uri</text><text fill="#000000" font-family="sans-serif" font-size="11" lengthAdjust="spacingAndGlyphs" textLength="69" x="1108.33" y="446.8721">@type : String</text><!--class TaskStateType--><rect fill="#E6F5F7" filter="url(#f9j0quba5nd08)" height="103.5313" id="TaskStateType" style="stroke: #A80036; stroke-width: 1.5;" width="107" x="1572.83" y="308.73"/><text fill="#000000" font-family="sans-serif" font-size="12" font-style="italic" lengthAdjust="spacingAndGlyphs" textLength="85" x="1583.83" y="326.187">«Enumeration»</text><text fill="#000000" font-family="sans-serif" font-size="12" lengthAdjust="spacingAndGlyphs" textLength="81" x="1585.83" y="341.2808">TaskStateType</text><line style="stroke: #A80036; stroke-width: 1.5;" x1="1573.83" x2="1678.83" y1="348.9175" y2="348.9175"/><text fill="#000000" font-family="sans-serif" font-size="11" lengthAdjust="spacingAndGlyphs" textLength="45" x="1578.83" y="364.3364">accepted</text><text fill="#000000" font-family="sans-serif" font-size="11" lengthAdjust="spacingAndGlyphs" textLength="95" x="1578.83" y="378.1724">terminatedWithError</text><text fill="#000000" font-family="sans-serif" font-size="11" lengthAdjust="spacingAndGlyphs" textLength="52" x="1578.83" y="392.0083">inProgress</text><text fill="#000000" font-family="sans-serif" font-size="11" lengthAdjust="spacingAndGlyphs" textLength="24" x="1578.83" y="405.8443">done</text><!--class UsageConsumptionProductRef--><rect fill="#FFFFE0" filter="url(#f9j0quba5nd08)" height="129.9453" id="UsageConsumptionProductRef" style="stroke: #A80036; stroke-width: 1.5;" width="179" x="228.83" y="619.5"/><a target="_top" xlink:actuate="onRequest" xlink:href="UsageConsumptionProduct.svg" xlink:show="new" xlink:title="UsageConsumptionProduct.svg" xlink:type="simple"><text fill="#0000FF" font-family="sans-serif" font-size="12" lengthAdjust="spacingAndGlyphs" text-decoration="underline" textLength="154" x="231.83" y="636.957">UsageConsumptionProduct</text><line style="stroke: #0000FF; stroke-width: 1.0;" x1="231.83" x2="385.83" y1="638.957" y2="638.957"/></a><text fill="#000000" font-family="sans-serif" font-size="12" lengthAdjust="spacingAndGlyphs" textLength="19" x="385.83" y="636.957">Ref</text><line style="stroke: #A80036; stroke-width: 1.5;" x1="229.83" x2="406.83" y1="644.5938" y2="644.5938"/><text fill="#000000" font-family="sans-serif" font-size="11" lengthAdjust="spacingAndGlyphs" textLength="42" x="234.83" y="660.0127">href : Uri</text><text fill="#000000" font-family="sans-serif" font-size="11" lengthAdjust="spacingAndGlyphs" textLength="45" x="234.83" y="673.8486">id : String</text><text fill="#000000" font-family="sans-serif" font-size="11" lengthAdjust="spacingAndGlyphs" textLength="63" x="234.83" y="687.6846">name : String</text><text fill="#000000" font-family="sans-serif" font-size="11" lengthAdjust="spacingAndGlyphs" textLength="96" x="234.83" y="701.5205">@baseType : String</text><text fill="#000000" font-family="sans-serif" font-size="11" lengthAdjust="spacingAndGlyphs" textLength="112" x="234.83" y="715.3564">@referredType : String</text><text fill="#000000" font-family="sans-serif" font-size="11" lengthAdjust="spacingAndGlyphs" textLength="112" x="234.83" y="729.1924">@schemaLocation : Uri</text><text fill="#000000" font-family="sans-serif" font-size="11" lengthAdjust="spacingAndGlyphs" textLength="69" x="234.83" y="743.0283">@type : String</text><!--class ConsumptionSummary--><rect fill="#FCF2E3" filter="url(#f9j0quba5nd08)" height="171.4531" id="ConsumptionSummary" style="stroke: #A80036; stroke-width: 1.5;" width="164" x="390.33" y="275"/><text fill="#000000" font-family="sans-serif" font-size="12" lengthAdjust="spacingAndGlyphs" textLength="128" x="408.33" y="292.457">ConsumptionSummary</text><line style="stroke: #A80036; stroke-width: 1.5;" x1="391.33" x2="553.33" y1="300.0938" y2="300.0938"/><text fill="#000000" font-family="sans-serif" font-size="11" lengthAdjust="spacingAndGlyphs" textLength="152" x="396.33" y="315.5127">consumptionPeriod : TimePeriod</text><text fill="#000000" font-family="sans-serif" font-size="11" lengthAdjust="spacingAndGlyphs" textLength="98" x="396.33" y="329.3486">counterType : String</text><text fill="#000000" font-family="sans-serif" font-size="11" lengthAdjust="spacingAndGlyphs" textLength="42" x="396.33" y="343.1846">href : Uri</text><text fill="#000000" font-family="sans-serif" font-size="11" lengthAdjust="spacingAndGlyphs" textLength="45" x="396.33" y="357.0205">id : String</text><text fill="#000000" font-family="sans-serif" font-size="11" lengthAdjust="spacingAndGlyphs" textLength="59" x="396.33" y="370.8564">level : String</text><text fill="#000000" font-family="sans-serif" font-size="11" lengthAdjust="spacingAndGlyphs" textLength="75" x="396.33" y="384.6924">value : Quantity</text><text fill="#000000" font-family="sans-serif" font-size="11" lengthAdjust="spacingAndGlyphs" textLength="90" x="396.33" y="398.5283">valueName : String</text><text fill="#000000" font-family="sans-serif" font-size="11" lengthAdjust="spacingAndGlyphs" textLength="96" x="396.33" y="412.3643">@baseType : String</text><text fill="#000000" font-family="sans-serif" font-size="11" lengthAdjust="spacingAndGlyphs" textLength="112" x="396.33" y="426.2002">@schemaLocation : Uri</text><text fill="#000000" font-family="sans-serif" font-size="11" lengthAdjust="spacingAndGlyphs" textLength="69" x="396.33" y="440.0361">@type : String</text><!--class RelatedParty--><rect fill="#FCF2E3" filter="url(#f9j0quba5nd08)" height="143.7813" id="RelatedParty" style="stroke: #A80036; stroke-width: 1.5;" width="124" x="1496.33" y="915"/><text fill="#000000" font-family="sans-serif" font-size="12" lengthAdjust="spacingAndGlyphs" textLength="70" x="1523.33" y="932.457">RelatedParty</text><line style="stroke: #A80036; stroke-width: 1.5;" x1="1497.33" x2="1619.33" y1="940.0938" y2="940.0938"/><text fill="#000000" font-family="sans-serif" font-size="11" lengthAdjust="spacingAndGlyphs" textLength="42" x="1502.33" y="955.5127">href : Uri</text><text fill="#000000" font-family="sans-serif" font-size="11" lengthAdjust="spacingAndGlyphs" textLength="45" x="1502.33" y="969.3486">id : String</text><text fill="#000000" font-family="sans-serif" font-size="11" lengthAdjust="spacingAndGlyphs" textLength="63" x="1502.33" y="983.1846">name : String</text><text fill="#000000" font-family="sans-serif" font-size="11" lengthAdjust="spacingAndGlyphs" textLength="55" x="1502.33" y="997.0205">role : String</text><text fill="#000000" font-family="sans-serif" font-size="11" lengthAdjust="spacingAndGlyphs" textLength="96" x="1502.33" y="1010.8564">@baseType : String</text><text fill="#000000" font-family="sans-serif" font-size="11" lengthAdjust="spacingAndGlyphs" textLength="112" x="1502.33" y="1024.6924">@referredType : String</text><text fill="#000000" font-family="sans-serif" font-size="11" lengthAdjust="spacingAndGlyphs" textLength="112" x="1502.33" y="1038.5283">@schemaLocation : Uri</text><text fill="#000000" font-family="sans-serif" font-size="11" lengthAdjust="spacingAndGlyphs" textLength="69" x="1502.33" y="1052.3643">@type : String</text><!--class UsageConsumptionLogicalResourceRef--><rect fill="#FFFFE0" filter="url(#f9j0quba5nd08)" height="129.9453" id="UsageConsumptionLogicalResourceRef" style="stroke: #A80036; stroke-width: 1.5;" width="231" x="687.83" y="922"/><a target="_top" xlink:actuate="onRequest" xlink:href="UsageConsumptionLogicalResource.svg" xlink:show="new" xlink:title="UsageConsumptionLogicalResource.svg" xlink:type="simple"><text fill="#0000FF" font-family="sans-serif" font-size="12" lengthAdjust="spacingAndGlyphs" text-decoration="underline" textLength="206" x="690.83" y="939.457">UsageConsumptionLogicalResource</text><line style="stroke: #0000FF; stroke-width: 1.0;" x1="690.83" x2="896.83" y1="941.457" y2="941.457"/></a><text fill="#000000" font-family="sans-serif" font-size="12" lengthAdjust="spacingAndGlyphs" textLength="19" x="896.83" y="939.457">Ref</text><line style="stroke: #A80036; stroke-width: 1.5;" x1="688.83" x2="917.83" y1="947.0938" y2="947.0938"/><text fill="#000000" font-family="sans-serif" font-size="11" lengthAdjust="spacingAndGlyphs" textLength="42" x="693.83" y="962.5127">href : Uri</text><text fill="#000000" font-family="sans-serif" font-size="11" lengthAdjust="spacingAndGlyphs" textLength="45" x="693.83" y="976.3486">id : String</text><text fill="#000000" font-family="sans-serif" font-size="11" lengthAdjust="spacingAndGlyphs" textLength="63" x="693.83" y="990.1846">name : String</text><text fill="#000000" font-family="sans-serif" font-size="11" lengthAdjust="spacingAndGlyphs" textLength="96" x="693.83" y="1004.0205">@baseType : String</text><text fill="#000000" font-family="sans-serif" font-size="11" lengthAdjust="spacingAndGlyphs" textLength="112" x="693.83" y="1017.8564">@referredType : String</text><text fill="#000000" font-family="sans-serif" font-size="11" lengthAdjust="spacingAndGlyphs" textLength="112" x="693.83" y="1031.6924">@schemaLocation : Uri</text><text fill="#000000" font-family="sans-serif" font-size="11" lengthAdjust="spacingAndGlyphs" textLength="69" x="693.83" y="1045.5283">@type : String</text><!--class PartyAccountRef--><rect fill="#FFFFE0" filter="url(#f9j0quba5nd08)" height="157.6172" id="PartyAccountRef" style="stroke: #A80036; stroke-width: 1.5;" width="124" x="1390.33" y="282"/><a target="_top" xlink:actuate="onRequest" xlink:href="PartyAccount.svg" xlink:show="new" xlink:title="PartyAccount.svg" xlink:type="simple"><text fill="#0000FF" font-family="sans-serif" font-size="12" lengthAdjust="spacingAndGlyphs" text-decoration="underline" textLength="70" x="1407.83" y="299.457">PartyAccount</text><line style="stroke: #0000FF; stroke-width: 1.0;" x1="1407.83" x2="1477.83" y1="301.457" y2="301.457"/></a><text fill="#000000" font-family="sans-serif" font-size="12" lengthAdjust="spacingAndGlyphs" textLength="19" x="1477.83" y="299.457">Ref</text><line style="stroke: #A80036; stroke-width: 1.5;" x1="1391.33" x2="1513.33" y1="307.0938" y2="307.0938"/><text fill="#000000" font-family="sans-serif" font-size="11" lengthAdjust="spacingAndGlyphs" textLength="90" x="1396.33" y="322.5127">description : String</text><text fill="#000000" font-family="sans-serif" font-size="11" lengthAdjust="spacingAndGlyphs" textLength="57" x="1396.33" y="336.3486">href : String</text><text fill="#000000" font-family="sans-serif" font-size="11" lengthAdjust="spacingAndGlyphs" textLength="45" x="1396.33" y="350.1846">id : String</text><text fill="#000000" font-family="sans-serif" font-size="11" lengthAdjust="spacingAndGlyphs" textLength="63" x="1396.33" y="364.0205">name : String</text><text fill="#000000" font-family="sans-serif" font-size="11" lengthAdjust="spacingAndGlyphs" textLength="67" x="1396.33" y="377.8564">status : String</text><text fill="#000000" font-family="sans-serif" font-size="11" lengthAdjust="spacingAndGlyphs" textLength="96" x="1396.33" y="391.6924">@baseType : String</text><text fill="#000000" font-family="sans-serif" font-size="11" lengthAdjust="spacingAndGlyphs" textLength="112" x="1396.33" y="405.5283">@referredType : String</text><text fill="#000000" font-family="sans-serif" font-size="11" lengthAdjust="spacingAndGlyphs" textLength="112" x="1396.33" y="419.3643">@schemaLocation : Uri</text><text fill="#000000" font-family="sans-serif" font-size="11" lengthAdjust="spacingAndGlyphs" textLength="69" x="1396.33" y="433.2002">@type : String</text><!--class UsageConsumptionServiceRef--><rect fill="#FFFFE0" filter="url(#f9j0quba5nd08)" height="129.9453" id="UsageConsumptionServiceRef" style="stroke: #A80036; stroke-width: 1.5;" width="177" x="413.83" y="922"/><a target="_top" xlink:actuate="onRequest" xlink:href="UsageConsumptionService.svg" xlink:show="new" xlink:title="UsageConsumptionService.svg" xlink:type="simple"><text fill="#0000FF" font-family="sans-serif" font-size="12" lengthAdjust="spacingAndGlyphs" text-decoration="underline" textLength="152" x="416.83" y="939.457">UsageConsumptionService</text><line style="stroke: #0000FF; stroke-width: 1.0;" x1="416.83" x2="568.83" y1="941.457" y2="941.457"/></a><text fill="#000000" font-family="sans-serif" font-size="12" lengthAdjust="spacingAndGlyphs" textLength="19" x="568.83" y="939.457">Ref</text><line style="stroke: #A80036; stroke-width: 1.5;" x1="414.83" x2="589.83" y1="947.0938" y2="947.0938"/><text fill="#000000" font-family="sans-serif" font-size="11" lengthAdjust="spacingAndGlyphs" textLength="42" x="419.83" y="962.5127">href : Uri</text><text fill="#000000" font-family="sans-serif" font-size="11" lengthAdjust="spacingAndGlyphs" textLength="45" x="419.83" y="976.3486">id : String</text><text fill="#000000" font-family="sans-serif" font-size="11" lengthAdjust="spacingAndGlyphs" textLength="63" x="419.83" y="990.1846">name : String</text><text fill="#000000" font-family="sans-serif" font-size="11" lengthAdjust="spacingAndGlyphs" textLength="96" x="419.83" y="1004.0205">@baseType : String</text><text fill="#000000" font-family="sans-serif" font-size="11" lengthAdjust="spacingAndGlyphs" textLength="112" x="419.83" y="1017.8564">@referredType : String</text><text fill="#000000" font-family="sans-serif" font-size="11" lengthAdjust="spacingAndGlyphs" textLength="112" x="419.83" y="1031.6924">@schemaLocation : Uri</text><text fill="#000000" font-family="sans-serif" font-size="11" lengthAdjust="spacingAndGlyphs" textLength="69" x="419.83" y="1045.5283">@type : String</text><!--class BucketRefOrValue--><rect fill="#FCF2E3" filter="url(#f9j0quba5nd08)" height="226.7969" id="BucketRefOrValue" style="stroke: #A80036; stroke-width: 1.5;" width="150" x="1266.33" y="571"/><a target="_top" xlink:actuate="onRequest" xlink:href="Bucket.svg" xlink:show="new" xlink:title="Bucket.svg" xlink:type="simple"><text fill="#0000FF" font-family="sans-serif" font-size="12" lengthAdjust="spacingAndGlyphs" text-decoration="underline" textLength="37" x="1291.33" y="588.457">Bucket</text><line style="stroke: #0000FF; stroke-width: 1.0;" x1="1291.33" x2="1328.33" y1="590.457" y2="590.457"/></a><text fill="#000000" font-family="sans-serif" font-size="12" lengthAdjust="spacingAndGlyphs" textLength="63" x="1328.33" y="588.457">RefOrValue</text><line style="stroke: #A80036; stroke-width: 1.5;" x1="1267.33" x2="1415.33" y1="596.0938" y2="596.0938"/><text fill="#000000" font-family="sans-serif" font-size="11" lengthAdjust="spacingAndGlyphs" textLength="90" x="1272.33" y="611.5127">description : String</text><text fill="#000000" font-family="sans-serif" font-size="11" lengthAdjust="spacingAndGlyphs" textLength="57" x="1272.33" y="625.3486">href : String</text><text fill="#000000" font-family="sans-serif" font-size="11" lengthAdjust="spacingAndGlyphs" textLength="45" x="1272.33" y="639.1846">id : String</text><text fill="#000000" font-family="sans-serif" font-size="11" lengthAdjust="spacingAndGlyphs" textLength="91" x="1272.33" y="653.0205">isShared : Boolean</text><text fill="#000000" font-family="sans-serif" font-size="11" lengthAdjust="spacingAndGlyphs" textLength="63" x="1272.33" y="666.8564">name : String</text><text fill="#000000" font-family="sans-serif" font-size="11" lengthAdjust="spacingAndGlyphs" textLength="123" x="1272.33" y="680.6924">remainingValue : Quantity</text><text fill="#000000" font-family="sans-serif" font-size="11" lengthAdjust="spacingAndGlyphs" textLength="138" x="1272.33" y="694.5283">remainingValueName : String</text><text fill="#000000" font-family="sans-serif" font-size="11" lengthAdjust="spacingAndGlyphs" textLength="121" x="1272.33" y="708.3643">reservedValue : Quantity</text><text fill="#000000" font-family="sans-serif" font-size="11" lengthAdjust="spacingAndGlyphs" textLength="67" x="1272.33" y="722.2002">status : String</text><text fill="#000000" font-family="sans-serif" font-size="11" lengthAdjust="spacingAndGlyphs" textLength="91" x="1272.33" y="736.0361">usageType : String</text><text fill="#000000" font-family="sans-serif" font-size="11" lengthAdjust="spacingAndGlyphs" textLength="99" x="1272.33" y="749.8721">validFor : TimePeriod</text><text fill="#000000" font-family="sans-serif" font-size="11" lengthAdjust="spacingAndGlyphs" textLength="96" x="1272.33" y="763.708">@baseType : String</text><text fill="#000000" font-family="sans-serif" font-size="11" lengthAdjust="spacingAndGlyphs" textLength="112" x="1272.33" y="777.5439">@schemaLocation : Uri</text><text fill="#000000" font-family="sans-serif" font-size="11" lengthAdjust="spacingAndGlyphs" textLength="69" x="1272.33" y="791.3799">@type : String</text><!--class BucketRelationship--><rect fill="#FCF2E3" filter="url(#f9j0quba5nd08)" height="88.4375" id="BucketRelationship" style="stroke: #A80036; stroke-width: 1.5;" width="128" x="1126.33" y="942.5"/><text fill="#000000" font-family="sans-serif" font-size="12" lengthAdjust="spacingAndGlyphs" textLength="107" x="1136.83" y="959.957">BucketRelationship</text><line style="stroke: #A80036; stroke-width: 1.5;" x1="1127.33" x2="1253.33" y1="967.5938" y2="967.5938"/><text fill="#000000" font-family="sans-serif" font-size="11" lengthAdjust="spacingAndGlyphs" textLength="116" x="1132.33" y="983.0127">relationshipType : String</text><text fill="#000000" font-family="sans-serif" font-size="11" lengthAdjust="spacingAndGlyphs" textLength="96" x="1132.33" y="996.8486">@baseType : String</text><text fill="#000000" font-family="sans-serif" font-size="11" lengthAdjust="spacingAndGlyphs" textLength="112" x="1132.33" y="1010.6846">@schemaLocation : Uri</text><text fill="#000000" font-family="sans-serif" font-size="11" lengthAdjust="spacingAndGlyphs" textLength="69" x="1132.33" y="1024.5205">@type : String</text><!--class ReserveBalanceRef--><rect fill="#FFFFE0" filter="url(#f9j0quba5nd08)" height="129.9453" id="ReserveBalanceRef" style="stroke: #A80036; stroke-width: 1.5;" width="124" x="969.33" y="619.5"/><a target="_top" xlink:actuate="onRequest" xlink:href="ReserveBalance.svg" xlink:show="new" xlink:title="ReserveBalance.svg" xlink:type="simple"><text fill="#0000FF" font-family="sans-serif" font-size="12" lengthAdjust="spacingAndGlyphs" text-decoration="underline" textLength="91" x="976.33" y="636.957">ReserveBalance</text><line style="stroke: #0000FF; stroke-width: 1.0;" x1="976.33" x2="1067.33" y1="638.957" y2="638.957"/></a><text fill="#000000" font-family="sans-serif" font-size="12" lengthAdjust="spacingAndGlyphs" textLength="19" x="1067.33" y="636.957">Ref</text><line style="stroke: #A80036; stroke-width: 1.5;" x1="970.33" x2="1092.33" y1="644.5938" y2="644.5938"/><text fill="#000000" font-family="sans-serif" font-size="11" lengthAdjust="spacingAndGlyphs" textLength="42" x="975.33" y="660.0127">href : Uri</text><text fill="#000000" font-family="sans-serif" font-size="11" lengthAdjust="spacingAndGlyphs" textLength="45" x="975.33" y="673.8486">id : String</text><text fill="#000000" font-family="sans-serif" font-size="11" lengthAdjust="spacingAndGlyphs" textLength="63" x="975.33" y="687.6846">name : String</text><text fill="#000000" font-family="sans-serif" font-size="11" lengthAdjust="spacingAndGlyphs" textLength="96" x="975.33" y="701.5205">@baseType : String</text><text fill="#000000" font-family="sans-serif" font-size="11" lengthAdjust="spacingAndGlyphs" textLength="112" x="975.33" y="715.3564">@referredType : String</text><text fill="#000000" font-family="sans-serif" font-size="11" lengthAdjust="spacingAndGlyphs" textLength="112" x="975.33" y="729.1924">@schemaLocation : Uri</text><text fill="#000000" font-family="sans-serif" font-size="11" lengthAdjust="spacingAndGlyphs" textLength="69" x="975.33" y="743.0283">@type : String</text><!--link QueryUsageConsumption to PartyAccountRef--><path d="M1402.07,183.88 C1403.88,189.32 1405.65,194.72 1407.33,200 C1414.33,222.02 1421.37,245.93 1427.73,268.37 " fill="none" id="QueryUsageConsumption-PartyAccountRef" style="stroke: #A80036; stroke-width: 1.0;"/><polygon fill="#A80036" points="1431.19,280.67,1432.6078,270.9237,1429.8382,275.8562,1424.9057,273.0866,1431.19,280.67" style="stroke: #A80036; stroke-width: 1.0;"/><line style="stroke: #A80036; stroke-width: 1.0;" x1="1429.8382" x2="1427.67" y1="275.8562" y2="268.15"/><polygon fill="#A80036" points="1397.97,171.75,1396.0992,178.7142,1401.8082,183.1196,1403.679,176.1554,1397.97,171.75" style="stroke: #A80036; stroke-width: 1.0;"/><text fill="#000000" font-family="sans-serif" font-size="13" lengthAdjust="spacingAndGlyphs" textLength="77" x="1413.33" y="214.4951">partyAccount</text><text fill="#000000" font-family="sans-serif" font-size="13" lengthAdjust="spacingAndGlyphs" textLength="20" x="1408.575" y="271.099">0..*</text><!--link QueryUsageConsumption to RelatedParty--><path d="M1492.54,115.15 C1565.74,137 1652.54,176.82 1697.33,248 C1722.01,287.22 1716.7,743.02 1690.33,817 C1677.49,853 1653.67,887.27 1629.75,915.39 " fill="none" id="QueryUsageConsumption-RelatedParty" style="stroke: #A80036; stroke-width: 1.0;"/><polygon fill="#A80036" points="1621.24,925.11,1630.179,920.9754,1624.5345,921.3488,1624.1611,915.7043,1621.24,925.11" style="stroke: #A80036; stroke-width: 1.0;"/><line style="stroke: #A80036; stroke-width: 1.0;" x1="1624.5345" x2="1629.805" y1="921.3488" y2="915.33"/><polygon fill="#A80036" points="1480.5,111.69,1485.1628,117.1908,1492.0338,115.0023,1487.371,109.5016,1480.5,111.69" style="stroke: #A80036; stroke-width: 1.0;"/><text fill="#000000" font-family="sans-serif" font-size="13" lengthAdjust="spacingAndGlyphs" textLength="70" x="1713.33" y="517.4951">relatedParty</text><text fill="#000000" font-family="sans-serif" font-size="13" lengthAdjust="spacingAndGlyphs" textLength="20" x="1614.8525" y="904.4894">0..*</text><!--link QueryUsageConsumption to UsageConsumption--><path d="M1244.75,131.64 C1214.24,148.04 1185.21,170.27 1167.33,200 C1157.66,216.07 1152.97,234.81 1151.29,253.67 " fill="none" id="QueryUsageConsumption-UsageConsumption" style="stroke: #A80036; stroke-width: 1.0;"/><polygon fill="#A80036" points="1150.65,266.57,1155.0998,257.7837,1150.9027,261.5764,1147.11,257.3793,1150.65,266.57" style="stroke: #A80036; stroke-width: 1.0;"/><line style="stroke: #A80036; stroke-width: 1.0;" x1="1150.9027" x2="1151.295" y1="261.5764" y2="253.58"/><polygon fill="#A80036" points="1256.07,125.88,1248.9082,125.0383,1245.3767,131.3255,1252.5385,132.1672,1256.07,125.88" style="stroke: #A80036; stroke-width: 1.0;"/><text fill="#000000" font-family="sans-serif" font-size="13" lengthAdjust="spacingAndGlyphs" textLength="80" x="1168.33" y="214.4951">searchCriteria</text><text fill="#000000" font-family="sans-serif" font-size="13" lengthAdjust="spacingAndGlyphs" textLength="22" x="1126.4367" y="257.2617">0..1</text><!--link QueryUsageConsumption to UsageConsumption--><path d="M1299.28,181.71 C1279.15,208.43 1257.12,237.67 1236.84,264.58 " fill="none" id="QueryUsageConsumption-UsageConsumption" style="stroke: #A80036; stroke-width: 1.0;"/><polygon fill="#A80036" points="1229.18,274.75,1237.7916,269.9708,1232.1897,270.7573,1231.4032,265.1553,1229.18,274.75" style="stroke: #A80036; stroke-width: 1.0;"/><line style="stroke: #A80036; stroke-width: 1.0;" x1="1232.1897" x2="1237.005" y1="270.7573" y2="264.37"/><polygon fill="#A80036" points="1307.06,171.39,1300.2563,173.7795,1299.8452,180.9789,1306.6489,178.5894,1307.06,171.39" style="stroke: #A80036; stroke-width: 1.0;"/><text fill="#000000" font-family="sans-serif" font-size="13" lengthAdjust="spacingAndGlyphs" textLength="111" x="1285.33" y="214.4951">usageConsumption</text><text fill="#000000" font-family="sans-serif" font-size="13" lengthAdjust="spacingAndGlyphs" textLength="20" x="1217.6999" y="256.977">0..*</text><!--link UsageConsumption to BucketRefOrValue--><path d="M1222.02,465.06 C1238.32,494.85 1256.28,527.64 1273.2,558.55 " fill="none" id="UsageConsumption-BucketRefOrValue" style="stroke: #A80036; stroke-width: 1.0;"/><polygon fill="#A80036" points="1279.4,569.87,1278.5856,560.0549,1276.9984,565.4845,1271.5688,563.8974,1279.4,569.87" style="stroke: #A80036; stroke-width: 1.0;"/><line style="stroke: #A80036; stroke-width: 1.0;" x1="1276.9984" x2="1273.15" y1="565.4845" y2="558.465"/><polygon fill="#A80036" points="1216.02,454.1,1215.3935,461.2838,1221.7838,464.6252,1222.4103,457.4413,1216.02,454.1" style="stroke: #A80036; stroke-width: 1.0;"/><text fill="#000000" font-family="sans-serif" font-size="13" lengthAdjust="spacingAndGlyphs" textLength="105" x="1248.33" y="517.4951">bucketRefOrValue</text><text fill="#000000" font-family="sans-serif" font-size="13" lengthAdjust="spacingAndGlyphs" textLength="20" x="1255.113" y="560.1857">0..*</text><!--link PartyAccountRef to BucketRefOrValue--><path d="M1459.44,453.03 C1458.8,475.65 1456.04,499.54 1449.33,521 C1443.25,540.4 1434.08,559.62 1423.59,577.67 " fill="none" id="PartyAccountRef-BucketRefOrValue" style="stroke: #A80036; stroke-width: 1.0;"/><polygon fill="#A80036" points="1416.92,588.68,1423.4474,585.6151,1423.1288,578.4111,1416.6014,581.4759,1416.92,588.68" style="stroke: #A80036; stroke-width: 1.0;"/><polygon fill="#A80036" points="1459.56,440.28,1455.481,449.2445,1459.516,445.2798,1463.4807,449.3148,1459.56,440.28" style="stroke: #A80036; stroke-width: 1.0;"/><line style="stroke: #A80036; stroke-width: 1.0;" x1="1459.516" x2="1459.43" y1="445.2798" y2="453.28"/><text fill="#000000" font-family="sans-serif" font-size="13" lengthAdjust="spacingAndGlyphs" textLength="77" x="1454.33" y="517.4951">partyAccount</text><text fill="#000000" font-family="sans-serif" font-size="13" lengthAdjust="spacingAndGlyphs" textLength="22" x="1436.2305" y="461.2515">0..1</text><!--link UsageConsumption to PartyAccountRef--><path d="M1228.19,347.25 C1241.84,344.86 1256.27,342.73 1269.83,341.5 C1304.79,338.32 1313.86,338.29 1348.83,341.5 C1358.65,342.4 1368.93,343.78 1379.04,345.39 " fill="none" id="UsageConsumption-PartyAccountRef" style="stroke: #A80036; stroke-width: 1.0;"/><polygon fill="#A80036" points="1388.84,347.05,1380.6289,341.6115,1383.9094,346.22,1379.3009,349.5005,1388.84,347.05" style="stroke: #A80036; stroke-width: 1.0;"/><line style="stroke: #A80036; stroke-width: 1.0;" x1="1383.9094" x2="1376.025" y1="346.22" y2="344.885"/><polygon fill="#A80036" points="1269.83,321.5,1267.2629,328.2387,1272.4959,333.2001,1275.063,326.4615,1269.83,321.5" style="stroke: #A80036; stroke-width: 1.0;"/><text fill="#000000" font-family="sans-serif" font-size="13" lengthAdjust="spacingAndGlyphs" textLength="77" x="1270.83" y="335.9951">partyAccount</text><text fill="#000000" font-family="sans-serif" font-size="13" lengthAdjust="spacingAndGlyphs" textLength="20" x="1362.455" y="342.4618">0..*</text><!--link RelatedParty to UsageConsumption--><path d="M1584.91,901.15 C1612.99,793.54 1640.71,608.75 1540.33,503 C1481.16,440.68 1430.04,502.49 1349.33,473 C1311.22,459.08 1272.32,436.89 1240.17,415.97 " fill="none" id="RelatedParty-UsageConsumption" style="stroke: #A80036; stroke-width: 1.0;"/><polygon fill="#A80036" points="1229.45,408.87,1232.2377,415.5205,1239.4488,415.5051,1236.6611,408.8546,1229.45,408.87" style="stroke: #A80036; stroke-width: 1.0;"/><polygon fill="#A80036" points="1581.53,913.7,1587.7269,906.0451,1582.8265,908.871,1580.0005,903.9706,1581.53,913.7" style="stroke: #A80036; stroke-width: 1.0;"/><line style="stroke: #A80036; stroke-width: 1.0;" x1="1582.8265" x2="1584.905" y1="908.871" y2="901.15"/><text fill="#000000" font-family="sans-serif" font-size="13" lengthAdjust="spacingAndGlyphs" textLength="70" x="1611.33" y="689.4951">relatedParty</text><text fill="#000000" font-family="sans-serif" font-size="13" lengthAdjust="spacingAndGlyphs" textLength="20" x="1562.53" y="903.9538">0..*</text><!--link PartyAccountRef to TaskStateType--><!--link UsageConsumption to UsageConsumptionProductRef--><path d="M1088.14,368.69 C965,382.3 718.51,418.43 527.33,503 C472.25,527.36 420.85,571.23 382.8,609.56 " fill="none" id="UsageConsumption-UsageConsumptionProductRef" style="stroke: #A80036; stroke-width: 1.0;"/><polygon fill="#A80036" points="373.99,618.6,383.1378,614.9506,377.4813,615.0208,377.4111,609.3644,373.99,618.6" style="stroke: #A80036; stroke-width: 1.0;"/><line style="stroke: #A80036; stroke-width: 1.0;" x1="377.4813" x2="383.06" y1="615.0208" y2="609.29"/><polygon fill="#A80036" points="1101.03,367.3,1094.6338,363.97,1089.0999,368.5933,1095.4961,371.9234,1101.03,367.3" style="stroke: #A80036; stroke-width: 1.0;"/><text fill="#000000" font-family="sans-serif" font-size="13" lengthAdjust="spacingAndGlyphs" textLength="43" x="528.33" y="517.4951">product</text><text fill="#000000" font-family="sans-serif" font-size="13" lengthAdjust="spacingAndGlyphs" textLength="20" x="358.0869" y="608.7788">0..*</text><!--link BucketRefOrValue to UsageConsumptionProductRef--><!--link UsageConsumptionProductRef to BucketRefOrValue--><path d="M379.31,609.2 C401.94,586.58 429.44,564.24 459.33,551 C560.2,506.3 596.57,535.97 706.83,531.67 C865.73,525.47 1054.37,524.9 1135.33,551 C1177.73,564.67 1219.9,589.4 1254.93,613.85 " fill="none" id="UsageConsumptionProductRef-BucketRefOrValue" style="stroke: #A80036; stroke-width: 1.0;"/><polygon fill="#A80036" points="1265.3,621.24,1262.7348,614.5006,1255.5272,614.2764,1258.0924,621.0158,1265.3,621.24" style="stroke: #A80036; stroke-width: 1.0;"/><polygon fill="#A80036" points="370.32,618.5,379.4535,614.815,373.7974,614.9073,373.7051,609.2512,370.32,618.5" style="stroke: #A80036; stroke-width: 1.0;"/><line style="stroke: #A80036; stroke-width: 1.0;" x1="373.7974" x2="379.36" y1="614.9073" y2="609.155"/><text fill="#000000" font-family="sans-serif" font-size="13" lengthAdjust="spacingAndGlyphs" textLength="43" x="707.83" y="517.4951">product</text><text fill="#000000" font-family="sans-serif" font-size="13" lengthAdjust="spacingAndGlyphs" textLength="20" x="367.1813" y="608.2759">0..*</text><!--link UsageConsumption to UsageConsumptionServiceRef--><path d="M1089.28,397.6 C1007.99,434.59 874.41,490.83 753.33,521 C698.82,534.58 539.62,508.99 502.33,551 C457.1,601.96 475.7,797.34 490.57,907.96 " fill="none" id="UsageConsumption-UsageConsumptionServiceRef" style="stroke: #A80036; stroke-width: 1.0;"/><polygon fill="#A80036" points="492.34,920.82,495.0859,911.3617,491.6637,915.8659,487.1594,912.4438,492.34,920.82" style="stroke: #A80036; stroke-width: 1.0;"/><line style="stroke: #A80036; stroke-width: 1.0;" x1="491.6637" x2="490.565" y1="915.8659" y2="907.945"/><polygon fill="#A80036" points="1100.99,392.24,1093.869,391.1034,1090.081,397.2394,1097.202,398.376,1100.99,392.24" style="stroke: #A80036; stroke-width: 1.0;"/><text fill="#000000" font-family="sans-serif" font-size="13" lengthAdjust="spacingAndGlyphs" textLength="40" x="503.33" y="689.4951">service</text><text fill="#000000" font-family="sans-serif" font-size="13" lengthAdjust="spacingAndGlyphs" textLength="20" x="470.1281" y="910.982">0..*</text><!--link UsageConsumptionProductRef to UsageConsumptionServiceRef--><!--link UsageConsumption to UsageConsumptionLogicalResourceRef--><path d="M1088.78,381.99 C1010,407.48 890.91,459.26 833.33,551 C797.25,608.48 797.01,798.97 800.1,907.69 " fill="none" id="UsageConsumption-UsageConsumptionLogicalResourceRef" style="stroke: #A80036; stroke-width: 1.0;"/><polygon fill="#A80036" points="800.49,920.63,804.211,911.5111,800.3361,915.6324,796.2148,911.7574,800.49,920.63" style="stroke: #A80036; stroke-width: 1.0;"/><line style="stroke: #A80036; stroke-width: 1.0;" x1="800.3361" x2="800.095" y1="915.6324" y2="907.63"/><polygon fill="#A80036" points="1101.06,378.13,1094.1384,376.1072,1089.6091,381.7183,1096.5306,383.7411,1101.06,378.13" style="stroke: #A80036; stroke-width: 1.0;"/><text fill="#000000" font-family="sans-serif" font-size="13" lengthAdjust="spacingAndGlyphs" textLength="92" x="834.33" y="689.4951">logicalResource</text><text fill="#000000" font-family="sans-serif" font-size="13" lengthAdjust="spacingAndGlyphs" textLength="20" x="779.0612" y="911.2342">0..*</text><!--link UsageConsumptionServiceRef to UsageConsumptionLogicalResourceRef--><!--link ConsumptionSummary to RelatedParty--><path d="M568.14,379.83 C815.67,427.19 1457.31,550.02 1458.33,551 C1507.7,598.61 1536.64,788.55 1549.77,900.93 " fill="none" id="ConsumptionSummary-RelatedParty" style="stroke: #A80036; stroke-width: 1.0;"/><polygon fill="#A80036" points="1551.24,913.74,1554.1954,904.345,1550.674,908.7721,1546.2469,905.2507,1551.24,913.74" style="stroke: #A80036; stroke-width: 1.0;"/><line style="stroke: #A80036; stroke-width: 1.0;" x1="1550.674" x2="1549.76" y1="908.7721" y2="900.825"/><polygon fill="#A80036" points="555.66,377.44,560.8017,382.496,567.4463,379.6944,562.3046,374.6384,555.66,377.44" style="stroke: #A80036; stroke-width: 1.0;"/><text fill="#000000" font-family="sans-serif" font-size="13" lengthAdjust="spacingAndGlyphs" textLength="25" x="1538.33" y="689.4951">user</text><text fill="#000000" font-family="sans-serif" font-size="13" lengthAdjust="spacingAndGlyphs" textLength="22" x="1527.45" y="904.0426">0..1</text><!--link ConsumptionSummary to UsageConsumptionProductRef--><path d="M379.24,422.08 C353.3,444.14 328.39,471.52 314.33,503 C300.22,534.57 299.05,572.47 302.27,605.33 " fill="none" id="ConsumptionSummary-UsageConsumptionProductRef" style="stroke: #A80036; stroke-width: 1.0;"/><polygon fill="#A80036" points="303.79,618.05,307.057,611.6214,302.3795,606.1332,299.1125,612.5618,303.79,618.05" style="stroke: #A80036; stroke-width: 1.0;"/><polygon fill="#A80036" points="389.22,413.91,379.7237,416.5214,385.3529,417.0795,384.7948,422.7087,389.22,413.91" style="stroke: #A80036; stroke-width: 1.0;"/><line style="stroke: #A80036; stroke-width: 1.0;" x1="385.3529" x2="379.165" y1="417.0795" y2="422.14"/><text fill="#000000" font-family="sans-serif" font-size="13" lengthAdjust="spacingAndGlyphs" textLength="130" x="315.33" y="517.4951">consumptionSummary</text><text fill="#000000" font-family="sans-serif" font-size="13" lengthAdjust="spacingAndGlyphs" textLength="20" x="362.2016" y="414.3994">0..*</text><!--link ConsumptionSummary to UsageConsumptionLogicalResourceRef--><path d="M471.2,459.84 C474.8,481.47 481.75,503.21 494.33,521 C511.08,544.7 533.45,528.96 552.33,551 C633.41,645.69 576.77,710.35 641.33,817 C662.19,851.47 691.25,884.56 719,912.14 " fill="none" id="ConsumptionSummary-UsageConsumptionLogicalResourceRef" style="stroke: #A80036; stroke-width: 1.0;"/><polygon fill="#A80036" points="728.06,920.99,726.5581,913.937,719.47,912.6108,720.9719,919.6637,728.06,920.99" style="stroke: #A80036; stroke-width: 1.0;"/><polygon fill="#A80036" points="469.5,447.18,466.7424,456.6349,470.1702,452.1349,474.6702,455.5627,469.5,447.18" style="stroke: #A80036; stroke-width: 1.0;"/><line style="stroke: #A80036; stroke-width: 1.0;" x1="470.1702" x2="471.23" y1="452.1349" y2="460.06"/><text fill="#000000" font-family="sans-serif" font-size="13" lengthAdjust="spacingAndGlyphs" textLength="130" x="642.33" y="689.4951">consumptionSummary</text><text fill="#000000" font-family="sans-serif" font-size="13" lengthAdjust="spacingAndGlyphs" textLength="20" x="445.1467" y="467.7601">0..*</text><!--link ConsumptionSummary to UsageConsumptionServiceRef--><path d="M376.58,374.9 C276.97,394.5 125.88,441.44 55.33,551 C-8.68,650.4 -11.93,719.77 55.33,817 C132.46,928.51 293.37,966.31 399.61,979.08 " fill="none" id="ConsumptionSummary-UsageConsumptionServiceRef" style="stroke: #A80036; stroke-width: 1.0;"/><polygon fill="#A80036" points="412.39,980.51,406.8763,975.8625,400.4657,979.1646,405.9794,983.8121,412.39,980.51" style="stroke: #A80036; stroke-width: 1.0;"/><polygon fill="#A80036" points="389.1,372.53,379.5141,370.2694,384.1868,373.4577,380.9985,378.1305,389.1,372.53" style="stroke: #A80036; stroke-width: 1.0;"/><line style="stroke: #A80036; stroke-width: 1.0;" x1="384.1868" x2="376.325" y1="373.4577" y2="374.945"/><text fill="#000000" font-family="sans-serif" font-size="13" lengthAdjust="spacingAndGlyphs" textLength="130" x="56.33" y="689.4951">consumptionSummary</text><text fill="#000000" font-family="sans-serif" font-size="13" lengthAdjust="spacingAndGlyphs" textLength="20" x="362.4194" y="370.0746">0..*</text><!--link ConsumptionSummary to BucketRefOrValue--><path d="M534.28,456.55 C555.79,481.9 582.19,506.3 612.33,521 C716.95,572.04 1024.59,515.09 1135.33,551 C1177.62,564.71 1219.76,589.28 1254.81,613.53 " fill="none" id="ConsumptionSummary-BucketRefOrValue" style="stroke: #A80036; stroke-width: 1.0;"/><polygon fill="#A80036" points="1265.18,620.85,1262.5881,614.1208,1255.3797,613.9251,1257.9716,620.6543,1265.18,620.85" style="stroke: #A80036; stroke-width: 1.0;"/><polygon fill="#A80036" points="526.32,446.82,528.9233,456.3186,529.4862,450.6898,535.115,451.2527,526.32,446.82" style="stroke: #A80036; stroke-width: 1.0;"/><line style="stroke: #A80036; stroke-width: 1.0;" x1="529.4862" x2="534.55" y1="450.6898" y2="456.88"/><text fill="#000000" font-family="sans-serif" font-size="13" lengthAdjust="spacingAndGlyphs" textLength="84" x="613.33" y="517.4951">bucketCounter</text><text fill="#000000" font-family="sans-serif" font-size="13" lengthAdjust="spacingAndGlyphs" textLength="20" x="519.0758" y="467.7205">0..*</text><!--link BucketRefOrValue to RelatedParty--><path d="M1380.91,809.75 C1389.73,829.13 1400.16,848.25 1412.33,865 C1432.18,892.33 1459.63,917.14 1485.37,937.05 " fill="none" id="BucketRefOrValue-RelatedParty" style="stroke: #A80036; stroke-width: 1.0;"/><polygon fill="#A80036" points="1495.45,944.65,1490.6765,936.0353,1491.4593,941.6377,1485.8568,942.4205,1495.45,944.65" style="stroke: #A80036; stroke-width: 1.0;"/><line style="stroke: #A80036; stroke-width: 1.0;" x1="1491.4593" x2="1485.07" y1="941.6377" y2="936.82"/><polygon fill="#A80036" points="1375.81,798.05,1374.544,805.1491,1380.6101,809.0481,1381.8761,801.949,1375.81,798.05" style="stroke: #A80036; stroke-width: 1.0;"/><text fill="#000000" font-family="sans-serif" font-size="13" lengthAdjust="spacingAndGlyphs" textLength="70" x="1413.33" y="861.4951">relatedParty</text><text fill="#000000" font-family="sans-serif" font-size="13" lengthAdjust="spacingAndGlyphs" textLength="20" x="1468.3732" y="937.3716">0..*</text><!--link BucketRefOrValue to UsageConsumptionLogicalResourceRef--><path d="M1254.79,748.5 C1219.13,772.49 1176.56,798.44 1135.33,817 C1090.68,837.09 1074.17,827.36 1029.33,847 C987.2,865.45 943.52,890.6 905.93,914.41 " fill="none" id="BucketRefOrValue-UsageConsumptionLogicalResourceRef" style="stroke: #A80036; stroke-width: 1.0;"/><polygon fill="#A80036" points="895.22,921.27,904.9565,919.7865,899.4311,918.5743,900.6433,913.0488,895.22,921.27" style="stroke: #A80036; stroke-width: 1.0;"/><line style="stroke: #A80036; stroke-width: 1.0;" x1="899.4311" x2="906.165" y1="918.5743" y2="914.255"/><polygon fill="#A80036" points="1265.35,741.31,1258.1392,741.3803,1255.4308,748.0635,1262.6416,747.9931,1265.35,741.31" style="stroke: #A80036; stroke-width: 1.0;"/><text fill="#000000" font-family="sans-serif" font-size="13" lengthAdjust="spacingAndGlyphs" textLength="92" x="1030.33" y="861.4951">logicalResource</text><text fill="#000000" font-family="sans-serif" font-size="13" lengthAdjust="spacingAndGlyphs" textLength="20" x="883.2605" y="911.1672">0..*</text><!--link BucketRefOrValue to UsageConsumptionServiceRef--><path d="M1254.93,751.63 C1219.6,775.79 1177.23,801.04 1135.33,817 C1134.92,817.15 646.73,894.85 646.33,895 C631.68,900.51 616.93,907.61 602.75,915.41 " fill="none" id="BucketRefOrValue-UsageConsumptionServiceRef" style="stroke: #A80036; stroke-width: 1.0;"/><polygon fill="#A80036" points="591.76,921.68,601.5591,920.6917,596.1022,919.2011,597.5929,913.7442,591.76,921.68" style="stroke: #A80036; stroke-width: 1.0;"/><line style="stroke: #A80036; stroke-width: 1.0;" x1="596.1022" x2="603.055" y1="919.2011" y2="915.24"/><polygon fill="#A80036" points="1265.39,744.36,1258.1802,744.4985,1255.5351,751.207,1262.7449,751.0685,1265.39,744.36" style="stroke: #A80036; stroke-width: 1.0;"/><text fill="#000000" font-family="sans-serif" font-size="13" lengthAdjust="spacingAndGlyphs" textLength="40" x="936.33" y="861.4951">service</text><text fill="#000000" font-family="sans-serif" font-size="13" lengthAdjust="spacingAndGlyphs" textLength="20" x="579.9597" y="911.1054">0..*</text><!--link BucketRefOrValue to BucketRelationship--><path d="M1278.62,809.79 C1257.65,851.52 1235.33,895.95 1218.37,929.69 " fill="none" id="BucketRefOrValue-BucketRelationship" style="stroke: #A80036; stroke-width: 1.0;"/><polygon fill="#A80036" points="1212.6,941.17,1220.218,934.9277,1214.847,936.7034,1213.0714,931.3324,1212.6,941.17" style="stroke: #A80036; stroke-width: 1.0;"/><line style="stroke: #A80036; stroke-width: 1.0;" x1="1214.847" x2="1218.435" y1="936.7034" y2="929.555"/><polygon fill="#A80036" points="1284.42,798.25,1278.1502,801.8123,1279.0271,808.9699,1285.2968,805.4076,1284.42,798.25" style="stroke: #A80036; stroke-width: 1.0;"/><text fill="#000000" font-family="sans-serif" font-size="13" lengthAdjust="spacingAndGlyphs" textLength="110" x="1257.33" y="861.4951">bucketRelationship</text><text fill="#000000" font-family="sans-serif" font-size="13" lengthAdjust="spacingAndGlyphs" textLength="20" x="1193.7672" y="931.7356">0..*</text><!--link BucketRefOrValue to BucketRelationship--><path d="M1254.15,729.06 C1210.13,756.44 1160.95,796.16 1136.33,847 C1123.32,873.85 1133.07,904.69 1147.67,930.44 " fill="none" id="BucketRefOrValue-BucketRelationship" style="stroke: #A80036; stroke-width: 1.0;"/><polygon fill="#A80036" points="1154.36,941.34,1154.6283,934.1339,1148.0797,931.1147,1147.8114,938.3208,1154.36,941.34" style="stroke: #A80036; stroke-width: 1.0;"/><polygon fill="#A80036" points="1265.11,722.45,1255.3376,723.6744,1260.8289,725.033,1259.4703,730.5243,1265.11,722.45" style="stroke: #A80036; stroke-width: 1.0;"/><line style="stroke: #A80036; stroke-width: 1.0;" x1="1260.8289" x2="1253.98" y1="725.033" y2="729.165"/><text fill="#000000" font-family="sans-serif" font-size="13" lengthAdjust="spacingAndGlyphs" textLength="105" x="1137.33" y="861.4951">bucketRefOrValue</text><text fill="#000000" font-family="sans-serif" font-size="13" lengthAdjust="spacingAndGlyphs" textLength="7" x="1251.3229" y="722.2019">1</text><!--link ReserveBalanceRef to BucketRefOrValue--><path d="M1093.32,670.8 C1106.91,668.39 1121.31,666.24 1134.83,665 C1174.66,661.34 1184.96,661.74 1224.83,665 C1234.79,665.81 1245.19,667.02 1255.49,668.43 " fill="none" id="ReserveBalanceRef-BucketRefOrValue" style="stroke: #A80036; stroke-width: 1.0;"/><polygon fill="#A80036" points="1265.11,669.82,1259.7435,665.0033,1253.2333,668.1045,1258.5998,672.9211,1265.11,669.82" style="stroke: #A80036; stroke-width: 1.0;"/><polygon fill="#A80036" points="1134.83,645,1132.6727,654.6097,1135.8106,649.9029,1140.5174,653.0408,1134.83,645" style="stroke: #A80036; stroke-width: 1.0;"/><line style="stroke: #A80036; stroke-width: 1.0;" x1="1135.8106" x2="1179.83" y1="649.9029" y2="654"/><text fill="#000000" font-family="sans-serif" font-size="13" lengthAdjust="spacingAndGlyphs" textLength="88" x="1135.83" y="659.4951">reserveBalance</text><text fill="#000000" font-family="sans-serif" font-size="13" lengthAdjust="spacingAndGlyphs" textLength="20" x="1101.2646" y="656.7405">0..*</text></g></svg>