<?xml version="1.0" encoding="UTF-8" standalone="no"?><svg xmlns="http://www.w3.org/2000/svg" xmlns:xlink="http://www.w3.org/1999/xlink" contentScriptType="application/ecmascript" contentStyleType="text/css" height="1022px" preserveAspectRatio="none" style="width:1456px;height:1022px;" version="1.1" viewBox="0 0 1456 1022" width="1456px" zoomAndPan="magnify"><defs><filter height="300%" id="f14w2xq66l76t0" width="300%" x="-1" y="-1"><feGaussianBlur result="blurOut" stdDeviation="2.0"/><feColorMatrix in="blurOut" result="blurOut2" type="matrix" values="0 0 0 0 0 0 0 0 0 0 0 0 0 0 0 0 0 0 .4 0"/><feOffset dx="4.0" dy="4.0" in="blurOut2" result="blurOut3"/><feBlend in="SourceGraphic" in2="blurOut3" mode="normal"/></filter></defs><g><!--class SchemaOrder--><rect fill="#FFFFFF" filter="url(#f14w2xq66l76t0)" height="143.7813" id="SchemaOrder" style="stroke: #A80036; stroke-width: 1.5;" width="161" x="178" y="61.92"/><text fill="#000000" font-family="sans-serif" font-size="12" lengthAdjust="spacingAndGlyphs" textLength="77" x="220" y="79.377">SchemaOrder</text><line style="stroke: #A80036; stroke-width: 1.5;" x1="179" x2="338" y1="87.0137" y2="87.0137"/><text fill="#000000" font-family="sans-serif" font-size="11" lengthAdjust="spacingAndGlyphs" textLength="90" x="184" y="102.4327">description : String</text><text fill="#000000" font-family="sans-serif" font-size="11" lengthAdjust="spacingAndGlyphs" textLength="57" x="184" y="116.2686">href : String</text><text fill="#000000" font-family="sans-serif" font-size="11" lengthAdjust="spacingAndGlyphs" textLength="45" x="184" y="130.1046">id : String</text><text fill="#000000" font-family="sans-serif" font-size="11" lengthAdjust="spacingAndGlyphs" textLength="101" x="184" y="143.9405">orderDate : DateTime</text><text fill="#000000" font-family="sans-serif" font-size="11" lengthAdjust="spacingAndGlyphs" textLength="149" x="184" y="157.7764">state : SchemaOrderStateType</text><text fill="#000000" font-family="sans-serif" font-size="11" lengthAdjust="spacingAndGlyphs" textLength="96" x="184" y="171.6124">@baseType : String</text><text fill="#000000" font-family="sans-serif" font-size="11" lengthAdjust="spacingAndGlyphs" textLength="112" x="184" y="185.4483">@schemaLocation : Uri</text><text fill="#000000" font-family="sans-serif" font-size="11" lengthAdjust="spacingAndGlyphs" textLength="69" x="184" y="199.2843">@type : String</text><!--class SchemaOrderStateType--><rect fill="#E6F5F7" filter="url(#f14w2xq66l76t0)" height="200.3828" id="SchemaOrderStateType" style="stroke: #A80036; stroke-width: 1.5;" width="137" x="6" y="33.62"/><text fill="#000000" font-family="sans-serif" font-size="12" font-style="italic" lengthAdjust="spacingAndGlyphs" textLength="85" x="32" y="51.077">«Enumeration»</text><text fill="#000000" font-family="sans-serif" font-size="12" lengthAdjust="spacingAndGlyphs" textLength="131" x="9" y="66.1708">SchemaOrderStateType</text><line style="stroke: #A80036; stroke-width: 1.5;" x1="7" x2="142" y1="73.8075" y2="73.8075"/><text fill="#000000" font-family="sans-serif" font-size="11" lengthAdjust="spacingAndGlyphs" textLength="71" x="12" y="89.2264">acknowledged</text><text fill="#000000" font-family="sans-serif" font-size="11" lengthAdjust="spacingAndGlyphs" textLength="39" x="12" y="103.0624">rejected</text><text fill="#000000" font-family="sans-serif" font-size="11" lengthAdjust="spacingAndGlyphs" textLength="38" x="12" y="116.8983">pending</text><text fill="#000000" font-family="sans-serif" font-size="11" lengthAdjust="spacingAndGlyphs" textLength="20" x="12" y="130.7343">held</text><text fill="#000000" font-family="sans-serif" font-size="11" lengthAdjust="spacingAndGlyphs" textLength="52" x="12" y="144.5702">inProgress</text><text fill="#000000" font-family="sans-serif" font-size="11" lengthAdjust="spacingAndGlyphs" textLength="46" x="12" y="158.4061">cancelled</text><text fill="#000000" font-family="sans-serif" font-size="11" lengthAdjust="spacingAndGlyphs" textLength="49" x="12" y="172.2421">completed</text><text fill="#000000" font-family="sans-serif" font-size="11" lengthAdjust="spacingAndGlyphs" textLength="26" x="12" y="186.078">failed</text><text fill="#000000" font-family="sans-serif" font-size="11" lengthAdjust="spacingAndGlyphs" textLength="29" x="12" y="199.9139">partial</text><text fill="#000000" font-family="sans-serif" font-size="11" lengthAdjust="spacingAndGlyphs" textLength="108" x="12" y="213.7499">assessingCancellation</text><text fill="#000000" font-family="sans-serif" font-size="11" lengthAdjust="spacingAndGlyphs" textLength="96" x="12" y="227.5858">pendingCancellation</text><!--class SchemaOrderItem--><rect fill="#FCF2E3" filter="url(#f14w2xq66l76t0)" height="116.1094" id="SchemaOrderItem" style="stroke: #A80036; stroke-width: 1.5;" width="161" x="502" y="75.81"/><text fill="#000000" font-family="sans-serif" font-size="12" lengthAdjust="spacingAndGlyphs" textLength="101" x="532" y="93.267">SchemaOrderItem</text><line style="stroke: #A80036; stroke-width: 1.5;" x1="503" x2="662" y1="100.9037" y2="100.9037"/><text fill="#000000" font-family="sans-serif" font-size="11" lengthAdjust="spacingAndGlyphs" textLength="130" x="508" y="116.3227">action : ProductActionType</text><text fill="#000000" font-family="sans-serif" font-size="11" lengthAdjust="spacingAndGlyphs" textLength="45" x="508" y="130.1586">id : String</text><text fill="#000000" font-family="sans-serif" font-size="11" lengthAdjust="spacingAndGlyphs" textLength="149" x="508" y="143.9946">state : SchemaOrderStateType</text><text fill="#000000" font-family="sans-serif" font-size="11" lengthAdjust="spacingAndGlyphs" textLength="96" x="508" y="157.8305">@baseType : String</text><text fill="#000000" font-family="sans-serif" font-size="11" lengthAdjust="spacingAndGlyphs" textLength="112" x="508" y="171.6664">@schemaLocation : Uri</text><text fill="#000000" font-family="sans-serif" font-size="11" lengthAdjust="spacingAndGlyphs" textLength="69" x="508" y="185.5024">@type : String</text><!--class ProductActionType--><rect fill="#E6F5F7" filter="url(#f14w2xq66l76t0)" height="103.5313" id="ProductActionType" style="stroke: #A80036; stroke-width: 1.5;" width="107" x="722" y="82.04"/><text fill="#000000" font-family="sans-serif" font-size="12" font-style="italic" lengthAdjust="spacingAndGlyphs" textLength="85" x="733" y="99.497">«Enumeration»</text><text fill="#000000" font-family="sans-serif" font-size="12" lengthAdjust="spacingAndGlyphs" textLength="101" x="725" y="114.5908">ProductActionType</text><line style="stroke: #A80036; stroke-width: 1.5;" x1="723" x2="828" y1="122.2275" y2="122.2275"/><text fill="#000000" font-family="sans-serif" font-size="11" lengthAdjust="spacingAndGlyphs" textLength="18" x="728" y="137.6464">add</text><text fill="#000000" font-family="sans-serif" font-size="11" lengthAdjust="spacingAndGlyphs" textLength="32" x="728" y="151.4824">modify</text><text fill="#000000" font-family="sans-serif" font-size="11" lengthAdjust="spacingAndGlyphs" textLength="29" x="728" y="165.3183">delete</text><text fill="#000000" font-family="sans-serif" font-size="11" lengthAdjust="spacingAndGlyphs" textLength="49" x="728" y="179.1543">noChange</text><!--class Schema--><rect fill="#FCF2E3" filter="url(#f14w2xq66l76t0)" height="102.2734" id="Schema" style="stroke: #A80036; stroke-width: 1.5;" width="124" x="683.5" y="352.5"/><text fill="#000000" font-family="sans-serif" font-size="12" lengthAdjust="spacingAndGlyphs" textLength="46" x="722.5" y="369.957">Schema</text><line style="stroke: #A80036; stroke-width: 1.5;" x1="684.5" x2="806.5" y1="377.5938" y2="377.5938"/><text fill="#000000" font-family="sans-serif" font-size="11" lengthAdjust="spacingAndGlyphs" textLength="57" x="689.5" y="393.0127">href : String</text><text fill="#000000" font-family="sans-serif" font-size="11" lengthAdjust="spacingAndGlyphs" textLength="45" x="689.5" y="406.8486">id : String</text><text fill="#000000" font-family="sans-serif" font-size="11" lengthAdjust="spacingAndGlyphs" textLength="96" x="689.5" y="420.6846">@baseType : String</text><text fill="#000000" font-family="sans-serif" font-size="11" lengthAdjust="spacingAndGlyphs" textLength="112" x="689.5" y="434.5205">@schemaLocation : Uri</text><text fill="#000000" font-family="sans-serif" font-size="11" lengthAdjust="spacingAndGlyphs" textLength="69" x="689.5" y="448.3564">@type : String</text><!--class SchemaSpecificationRef--><rect fill="#FFFFE0" filter="url(#f14w2xq66l76t0)" height="129.9453" id="SchemaSpecificationRef" style="stroke: #A80036; stroke-width: 1.5;" width="141" x="1304" y="614"/><a target="_top" xlink:actuate="onRequest" xlink:href="SchemaSpecification.svg" xlink:show="new" xlink:title="SchemaSpecification.svg" xlink:type="simple"><text fill="#0000FF" font-family="sans-serif" font-size="12" lengthAdjust="spacingAndGlyphs" text-decoration="underline" textLength="116" x="1307" y="631.457">SchemaSpecification</text><line style="stroke: #0000FF; stroke-width: 1.0;" x1="1307" x2="1423" y1="633.457" y2="633.457"/></a><text fill="#000000" font-family="sans-serif" font-size="12" lengthAdjust="spacingAndGlyphs" textLength="19" x="1423" y="631.457">Ref</text><line style="stroke: #A80036; stroke-width: 1.5;" x1="1305" x2="1444" y1="639.0938" y2="639.0938"/><text fill="#000000" font-family="sans-serif" font-size="11" lengthAdjust="spacingAndGlyphs" textLength="57" x="1310" y="654.5127">href : String</text><text fill="#000000" font-family="sans-serif" font-size="11" lengthAdjust="spacingAndGlyphs" textLength="45" x="1310" y="668.3486">id : String</text><text fill="#000000" font-family="sans-serif" font-size="11" lengthAdjust="spacingAndGlyphs" textLength="63" x="1310" y="682.1846">name : String</text><text fill="#000000" font-family="sans-serif" font-size="11" lengthAdjust="spacingAndGlyphs" textLength="96" x="1310" y="696.0205">@baseType : String</text><text fill="#000000" font-family="sans-serif" font-size="11" lengthAdjust="spacingAndGlyphs" textLength="112" x="1310" y="709.8564">@referredType : String</text><text fill="#000000" font-family="sans-serif" font-size="11" lengthAdjust="spacingAndGlyphs" textLength="127" x="1310" y="723.6924">@schemaLocation : String</text><text fill="#000000" font-family="sans-serif" font-size="11" lengthAdjust="spacingAndGlyphs" textLength="69" x="1310" y="737.5283">@type : String</text><!--class AgreementItemRef--><rect fill="#FFFFE0" filter="url(#f14w2xq66l76t0)" height="143.7813" id="AgreementItemRef" style="stroke: #A80036; stroke-width: 1.5;" width="139" x="330" y="607"/><a target="_top" xlink:actuate="onRequest" xlink:href="AgreementItem.svg" xlink:show="new" xlink:title="AgreementItem.svg" xlink:type="simple"><text fill="#0000FF" font-family="sans-serif" font-size="12" lengthAdjust="spacingAndGlyphs" text-decoration="underline" textLength="84" x="348" y="624.457">AgreementItem</text><line style="stroke: #0000FF; stroke-width: 1.0;" x1="348" x2="432" y1="626.457" y2="626.457"/></a><text fill="#000000" font-family="sans-serif" font-size="12" lengthAdjust="spacingAndGlyphs" textLength="19" x="432" y="624.457">Ref</text><line style="stroke: #A80036; stroke-width: 1.5;" x1="331" x2="468" y1="632.0938" y2="632.0938"/><text fill="#000000" font-family="sans-serif" font-size="11" lengthAdjust="spacingAndGlyphs" textLength="115" x="336" y="647.5127">agreementItemId : String</text><text fill="#000000" font-family="sans-serif" font-size="11" lengthAdjust="spacingAndGlyphs" textLength="57" x="336" y="661.3486">href : String</text><text fill="#000000" font-family="sans-serif" font-size="11" lengthAdjust="spacingAndGlyphs" textLength="45" x="336" y="675.1846">id : String</text><text fill="#000000" font-family="sans-serif" font-size="11" lengthAdjust="spacingAndGlyphs" textLength="63" x="336" y="689.0205">name : String</text><text fill="#000000" font-family="sans-serif" font-size="11" lengthAdjust="spacingAndGlyphs" textLength="96" x="336" y="702.8564">@baseType : String</text><text fill="#000000" font-family="sans-serif" font-size="11" lengthAdjust="spacingAndGlyphs" textLength="112" x="336" y="716.6924">@referredType : String</text><text fill="#000000" font-family="sans-serif" font-size="11" lengthAdjust="spacingAndGlyphs" textLength="127" x="336" y="730.5283">@schemaLocation : String</text><text fill="#000000" font-family="sans-serif" font-size="11" lengthAdjust="spacingAndGlyphs" textLength="69" x="336" y="744.3643">@type : String</text><!--class Characteristic--><rect fill="#FCF2E3" filter="url(#f14w2xq66l76t0)" height="116.1094" id="Characteristic" style="stroke: #A80036; stroke-width: 1.5;" width="124" x="122.5" y="620.5"/><text fill="#000000" font-family="sans-serif" font-size="12" lengthAdjust="spacingAndGlyphs" textLength="76" x="146.5" y="637.957">Characteristic</text><line style="stroke: #A80036; stroke-width: 1.5;" x1="123.5" x2="245.5" y1="645.5938" y2="645.5938"/><text fill="#000000" font-family="sans-serif" font-size="11" lengthAdjust="spacingAndGlyphs" textLength="45" x="128.5" y="661.0127">id : String</text><text fill="#000000" font-family="sans-serif" font-size="11" lengthAdjust="spacingAndGlyphs" textLength="63" x="128.5" y="674.8486">name : String</text><text fill="#000000" font-family="sans-serif" font-size="11" lengthAdjust="spacingAndGlyphs" textLength="87" x="128.5" y="688.6846">valueType : String</text><text fill="#000000" font-family="sans-serif" font-size="11" lengthAdjust="spacingAndGlyphs" textLength="96" x="128.5" y="702.5205">@baseType : String</text><text fill="#000000" font-family="sans-serif" font-size="11" lengthAdjust="spacingAndGlyphs" textLength="112" x="128.5" y="716.3564">@schemaLocation : Uri</text><text fill="#000000" font-family="sans-serif" font-size="11" lengthAdjust="spacingAndGlyphs" textLength="69" x="128.5" y="730.1924">@type : String</text><!--class CharacteristicRelationship--><rect fill="#FCF2E3" filter="url(#f14w2xq66l76t0)" height="102.2734" id="CharacteristicRelationship" style="stroke: #A80036; stroke-width: 1.5;" width="152" x="81.5" y="895.5"/><text fill="#000000" font-family="sans-serif" font-size="12" lengthAdjust="spacingAndGlyphs" textLength="146" x="84.5" y="912.957">CharacteristicRelationship</text><line style="stroke: #A80036; stroke-width: 1.5;" x1="82.5" x2="232.5" y1="920.5938" y2="920.5938"/><text fill="#000000" font-family="sans-serif" font-size="11" lengthAdjust="spacingAndGlyphs" textLength="45" x="87.5" y="936.0127">id : String</text><text fill="#000000" font-family="sans-serif" font-size="11" lengthAdjust="spacingAndGlyphs" textLength="116" x="87.5" y="949.8486">relationshipType : String</text><text fill="#000000" font-family="sans-serif" font-size="11" lengthAdjust="spacingAndGlyphs" textLength="96" x="87.5" y="963.6846">@baseType : String</text><text fill="#000000" font-family="sans-serif" font-size="11" lengthAdjust="spacingAndGlyphs" textLength="112" x="87.5" y="977.5205">@schemaLocation : Uri</text><text fill="#000000" font-family="sans-serif" font-size="11" lengthAdjust="spacingAndGlyphs" textLength="69" x="87.5" y="991.3564">@type : String</text><!--class SchemaRelationship--><rect fill="#FCF2E3" filter="url(#f14w2xq66l76t0)" height="88.4375" id="SchemaRelationship" style="stroke: #A80036; stroke-width: 1.5;" width="128" x="552.5" y="634.5"/><text fill="#000000" font-family="sans-serif" font-size="12" lengthAdjust="spacingAndGlyphs" textLength="116" x="558.5" y="651.957">SchemaRelationship</text><line style="stroke: #A80036; stroke-width: 1.5;" x1="553.5" x2="679.5" y1="659.5938" y2="659.5938"/><text fill="#000000" font-family="sans-serif" font-size="11" lengthAdjust="spacingAndGlyphs" textLength="116" x="558.5" y="675.0127">relationshipType : String</text><text fill="#000000" font-family="sans-serif" font-size="11" lengthAdjust="spacingAndGlyphs" textLength="96" x="558.5" y="688.8486">@baseType : String</text><text fill="#000000" font-family="sans-serif" font-size="11" lengthAdjust="spacingAndGlyphs" textLength="112" x="558.5" y="702.6846">@schemaLocation : Uri</text><text fill="#000000" font-family="sans-serif" font-size="11" lengthAdjust="spacingAndGlyphs" textLength="69" x="558.5" y="716.5205">@type : String</text><!--class SchemaRefOrValue--><rect fill="#FCF2E3" filter="url(#f14w2xq66l76t0)" height="129.9453" id="SchemaRefOrValue" style="stroke: #A80036; stroke-width: 1.5;" width="139" x="638" y="882"/><a target="_top" xlink:actuate="onRequest" xlink:href="Schema.svg" xlink:show="new" xlink:title="Schema.svg" xlink:type="simple"><text fill="#0000FF" font-family="sans-serif" font-size="12" lengthAdjust="spacingAndGlyphs" text-decoration="underline" textLength="46" x="653" y="899.457">Schema</text><line style="stroke: #0000FF; stroke-width: 1.0;" x1="653" x2="699" y1="901.457" y2="901.457"/></a><text fill="#000000" font-family="sans-serif" font-size="12" lengthAdjust="spacingAndGlyphs" textLength="63" x="699" y="899.457">RefOrValue</text><line style="stroke: #A80036; stroke-width: 1.5;" x1="639" x2="776" y1="907.0938" y2="907.0938"/><text fill="#000000" font-family="sans-serif" font-size="11" lengthAdjust="spacingAndGlyphs" textLength="57" x="644" y="922.5127">href : String</text><text fill="#000000" font-family="sans-serif" font-size="11" lengthAdjust="spacingAndGlyphs" textLength="45" x="644" y="936.3486">id : String</text><text fill="#000000" font-family="sans-serif" font-size="11" lengthAdjust="spacingAndGlyphs" textLength="63" x="644" y="950.1846">name : String</text><text fill="#000000" font-family="sans-serif" font-size="11" lengthAdjust="spacingAndGlyphs" textLength="96" x="644" y="964.0205">@baseType : String</text><text fill="#000000" font-family="sans-serif" font-size="11" lengthAdjust="spacingAndGlyphs" textLength="112" x="644" y="977.8564">@referredType : String</text><text fill="#000000" font-family="sans-serif" font-size="11" lengthAdjust="spacingAndGlyphs" textLength="127" x="644" y="991.6924">@schemaLocation : String</text><text fill="#000000" font-family="sans-serif" font-size="11" lengthAdjust="spacingAndGlyphs" textLength="69" x="644" y="1005.5283">@type : String</text><!--class RelatedGeographicLocationRefOrValue--><rect fill="#FCF2E3" filter="url(#f14w2xq66l76t0)" height="143.7813" id="RelatedGeographicLocationRefOrValue" style="stroke: #A80036; stroke-width: 1.5;" width="223" x="764" y="607"/><text fill="#000000" font-family="sans-serif" font-size="12" lengthAdjust="spacingAndGlyphs" textLength="43" x="767" y="624.457">Related</text><a target="_top" xlink:actuate="onRequest" xlink:href="GeographicLocation.svg" xlink:show="new" xlink:title="GeographicLocation.svg" xlink:type="simple"><text fill="#0000FF" font-family="sans-serif" font-size="12" lengthAdjust="spacingAndGlyphs" text-decoration="underline" textLength="111" x="810" y="624.457">GeographicLocation</text><line style="stroke: #0000FF; stroke-width: 1.0;" x1="810" x2="921" y1="626.457" y2="626.457"/></a><text fill="#000000" font-family="sans-serif" font-size="12" lengthAdjust="spacingAndGlyphs" textLength="63" x="921" y="624.457">RefOrValue</text><line style="stroke: #A80036; stroke-width: 1.5;" x1="765" x2="986" y1="632.0938" y2="632.0938"/><text fill="#000000" font-family="sans-serif" font-size="11" lengthAdjust="spacingAndGlyphs" textLength="57" x="770" y="647.5127">href : String</text><text fill="#000000" font-family="sans-serif" font-size="11" lengthAdjust="spacingAndGlyphs" textLength="45" x="770" y="661.3486">id : String</text><text fill="#000000" font-family="sans-serif" font-size="11" lengthAdjust="spacingAndGlyphs" textLength="63" x="770" y="675.1846">name : String</text><text fill="#000000" font-family="sans-serif" font-size="11" lengthAdjust="spacingAndGlyphs" textLength="55" x="770" y="689.0205">role : String</text><text fill="#000000" font-family="sans-serif" font-size="11" lengthAdjust="spacingAndGlyphs" textLength="96" x="770" y="702.8564">@baseType : String</text><text fill="#000000" font-family="sans-serif" font-size="11" lengthAdjust="spacingAndGlyphs" textLength="112" x="770" y="716.6924">@referredType : String</text><text fill="#000000" font-family="sans-serif" font-size="11" lengthAdjust="spacingAndGlyphs" textLength="127" x="770" y="730.5283">@schemaLocation : String</text><text fill="#000000" font-family="sans-serif" font-size="11" lengthAdjust="spacingAndGlyphs" textLength="69" x="770" y="744.3643">@type : String</text><!--class RelatedSchemaOrderItem--><rect fill="#FCF2E3" filter="url(#f14w2xq66l76t0)" height="171.4531" id="RelatedSchemaOrderItem" style="stroke: #A80036; stroke-width: 1.5;" width="150" x="1070.5" y="593"/><text fill="#000000" font-family="sans-serif" font-size="12" lengthAdjust="spacingAndGlyphs" textLength="144" x="1073.5" y="610.457">RelatedSchemaOrderItem</text><line style="stroke: #A80036; stroke-width: 1.5;" x1="1071.5" x2="1219.5" y1="618.0938" y2="618.0938"/><text fill="#000000" font-family="sans-serif" font-size="11" lengthAdjust="spacingAndGlyphs" textLength="87" x="1076.5" y="633.5127">itemAction : String</text><text fill="#000000" font-family="sans-serif" font-size="11" lengthAdjust="spacingAndGlyphs" textLength="64" x="1076.5" y="647.3486">itemId : String</text><text fill="#000000" font-family="sans-serif" font-size="11" lengthAdjust="spacingAndGlyphs" textLength="63" x="1076.5" y="661.1846">name : String</text><text fill="#000000" font-family="sans-serif" font-size="11" lengthAdjust="spacingAndGlyphs" textLength="84" x="1076.5" y="675.0205">orderHref : String</text><text fill="#000000" font-family="sans-serif" font-size="11" lengthAdjust="spacingAndGlyphs" textLength="71" x="1076.5" y="688.8564">orderId : String</text><text fill="#000000" font-family="sans-serif" font-size="11" lengthAdjust="spacingAndGlyphs" textLength="55" x="1076.5" y="702.6924">role : String</text><text fill="#000000" font-family="sans-serif" font-size="11" lengthAdjust="spacingAndGlyphs" textLength="96" x="1076.5" y="716.5283">@baseType : String</text><text fill="#000000" font-family="sans-serif" font-size="11" lengthAdjust="spacingAndGlyphs" textLength="112" x="1076.5" y="730.3643">@referredType : String</text><text fill="#000000" font-family="sans-serif" font-size="11" lengthAdjust="spacingAndGlyphs" textLength="112" x="1076.5" y="744.2002">@schemaLocation : Uri</text><text fill="#000000" font-family="sans-serif" font-size="11" lengthAdjust="spacingAndGlyphs" textLength="69" x="1076.5" y="758.0361">@type : String</text><!--class OrderItemRelationship--><rect fill="#FCF2E3" filter="url(#f14w2xq66l76t0)" height="102.2734" id="OrderItemRelationship" style="stroke: #A80036; stroke-width: 1.5;" width="131" x="464" y="352.5"/><text fill="#000000" font-family="sans-serif" font-size="12" lengthAdjust="spacingAndGlyphs" textLength="125" x="467" y="369.957">OrderItemRelationship</text><line style="stroke: #A80036; stroke-width: 1.5;" x1="465" x2="594" y1="377.5938" y2="377.5938"/><text fill="#000000" font-family="sans-serif" font-size="11" lengthAdjust="spacingAndGlyphs" textLength="45" x="470" y="393.0127">id : String</text><text fill="#000000" font-family="sans-serif" font-size="11" lengthAdjust="spacingAndGlyphs" textLength="116" x="470" y="406.8486">relationshipType : String</text><text fill="#000000" font-family="sans-serif" font-size="11" lengthAdjust="spacingAndGlyphs" textLength="96" x="470" y="420.6846">@baseType : String</text><text fill="#000000" font-family="sans-serif" font-size="11" lengthAdjust="spacingAndGlyphs" textLength="112" x="470" y="434.5205">@schemaLocation : Uri</text><text fill="#000000" font-family="sans-serif" font-size="11" lengthAdjust="spacingAndGlyphs" textLength="69" x="470" y="448.3564">@type : String</text><!--class RelatedParty--><rect fill="#FCF2E3" filter="url(#f14w2xq66l76t0)" height="143.7813" id="RelatedParty" style="stroke: #A80036; stroke-width: 1.5;" width="139" x="189" y="332"/><text fill="#000000" font-family="sans-serif" font-size="12" lengthAdjust="spacingAndGlyphs" textLength="70" x="223.5" y="349.457">RelatedParty</text><line style="stroke: #A80036; stroke-width: 1.5;" x1="190" x2="327" y1="357.0938" y2="357.0938"/><text fill="#000000" font-family="sans-serif" font-size="11" lengthAdjust="spacingAndGlyphs" textLength="57" x="195" y="372.5127">href : String</text><text fill="#000000" font-family="sans-serif" font-size="11" lengthAdjust="spacingAndGlyphs" textLength="45" x="195" y="386.3486">id : String</text><text fill="#000000" font-family="sans-serif" font-size="11" lengthAdjust="spacingAndGlyphs" textLength="63" x="195" y="400.1846">name : String</text><text fill="#000000" font-family="sans-serif" font-size="11" lengthAdjust="spacingAndGlyphs" textLength="55" x="195" y="414.0205">role : String</text><text fill="#000000" font-family="sans-serif" font-size="11" lengthAdjust="spacingAndGlyphs" textLength="96" x="195" y="427.8564">@baseType : String</text><text fill="#000000" font-family="sans-serif" font-size="11" lengthAdjust="spacingAndGlyphs" textLength="112" x="195" y="441.6924">@referredType : String</text><text fill="#000000" font-family="sans-serif" font-size="11" lengthAdjust="spacingAndGlyphs" textLength="127" x="195" y="455.5283">@schemaLocation : String</text><text fill="#000000" font-family="sans-serif" font-size="11" lengthAdjust="spacingAndGlyphs" textLength="69" x="195" y="469.3643">@type : String</text><!--link SchemaOrder to SchemaOrderItem--><path d="M339.36,116.84 C344.98,116.03 350.56,115.34 356,114.81 C402.45,110.28 414.48,111.16 461,114.81 C470.74,115.57 480.89,116.68 490.97,117.98 " fill="none" id="SchemaOrder-SchemaOrderItem" style="stroke: #A80036; stroke-width: 1.0;"/><polygon fill="#A80036" points="500.81,119.31,492.433,114.1307,495.8558,118.6344,491.3521,122.0573,500.81,119.31" style="stroke: #A80036; stroke-width: 1.0;"/><line style="stroke: #A80036; stroke-width: 1.0;" x1="495.8558" x2="487.925" y1="118.6344" y2="117.56"/><polygon fill="#A80036" points="356,93.81,353.0713,100.3996,358.0276,105.6375,360.9563,99.0479,356,93.81" style="stroke: #A80036; stroke-width: 1.0;"/><text fill="#000000" font-family="sans-serif" font-size="13" lengthAdjust="spacingAndGlyphs" textLength="103" x="357" y="108.3051">schemaOrderItem</text><text fill="#000000" font-family="sans-serif" font-size="13" lengthAdjust="spacingAndGlyphs" textLength="20" x="473.9956" y="114.9714">1..*</text><!--link SchemaOrderStateType to SchemaOrder--><!--link SchemaOrderItem to ProductActionType--><!--link SchemaOrderItem to Schema--><path d="M659.01,202.14 C676.62,220.73 693.86,241.9 706.5,264 C719.57,286.84 728.48,314.33 734.45,338.78 " fill="none" id="SchemaOrderItem-Schema" style="stroke: #A80036; stroke-width: 1.0;"/><polygon fill="#A80036" points="737.3,351.29,739.2017,341.6265,736.1898,346.4148,731.4014,343.4029,737.3,351.29" style="stroke: #A80036; stroke-width: 1.0;"/><line style="stroke: #A80036; stroke-width: 1.0;" x1="736.1898" x2="734.415" y1="346.4148" y2="338.61"/><polygon fill="#A80036" points="649.99,192.88,651.3163,199.9681,658.3692,201.47,657.043,194.3819,649.99,192.88" style="stroke: #A80036; stroke-width: 1.0;"/><text fill="#000000" font-family="sans-serif" font-size="13" lengthAdjust="spacingAndGlyphs" textLength="46" x="716.5" y="278.4951">schema</text><text fill="#000000" font-family="sans-serif" font-size="13" lengthAdjust="spacingAndGlyphs" textLength="22" x="712.8699" y="341.6334">0..1</text><!--link Schema to RelatedSchemaOrderItem--><path d="M820.64,435.83 C869.1,457.62 932.39,489.13 983.5,525 C1010.08,543.65 1036.67,566.5 1060.4,588.77 " fill="none" id="Schema-RelatedSchemaOrderItem" style="stroke: #A80036; stroke-width: 1.0;"/><polygon fill="#A80036" points="1069.64,597.56,1065.8841,588.4554,1066.0204,594.1106,1060.3651,594.2468,1069.64,597.56" style="stroke: #A80036; stroke-width: 1.0;"/><line style="stroke: #A80036; stroke-width: 1.0;" x1="1066.0204" x2="1060.22" y1="594.1106" y2="588.605"/><polygon fill="#A80036" points="808.77,430.56,812.627,436.6529,819.7347,435.4361,815.8777,429.3432,808.77,430.56" style="stroke: #A80036; stroke-width: 1.0;"/><text fill="#000000" font-family="sans-serif" font-size="13" lengthAdjust="spacingAndGlyphs" textLength="78" x="1004.5" y="539.4951">schemaOrder</text><text fill="#000000" font-family="sans-serif" font-size="13" lengthAdjust="spacingAndGlyphs" textLength="20" x="1042.3855" y="587.4484">0..*</text><!--link Schema to AgreementItemRef--><path d="M677.43,463.45 C664.12,474.28 650.07,485.24 636.5,495 C583.04,533.46 562.74,532.89 510.5,573 C500.14,580.96 489.65,589.73 479.46,598.71 " fill="none" id="Schema-AgreementItemRef" style="stroke: #A80036; stroke-width: 1.0;"/><polygon fill="#A80036" points="470.1,607.1,479.4734,604.077,473.8252,603.7649,474.1373,598.1167,470.1,607.1" style="stroke: #A80036; stroke-width: 1.0;"/><line style="stroke: #A80036; stroke-width: 1.0;" x1="473.8252" x2="479.775" y1="603.7649" y2="598.42"/><polygon fill="#A80036" points="687.25,455.37,680.0755,456.0958,677.9861,462.9976,685.1606,462.2718,687.25,455.37" style="stroke: #A80036; stroke-width: 1.0;"/><text fill="#000000" font-family="sans-serif" font-size="13" lengthAdjust="spacingAndGlyphs" textLength="61" x="590.5" y="539.4951">agreement</text><text fill="#000000" font-family="sans-serif" font-size="13" lengthAdjust="spacingAndGlyphs" textLength="20" x="456.2179" y="596.0252">0..*</text><!--link Schema to SchemaSpecificationRef--><path d="M821.62,418.63 C926.21,440.36 1117.72,488.57 1261.5,573 C1276.59,581.86 1291.36,593.03 1304.97,604.74 " fill="none" id="Schema-SchemaSpecificationRef" style="stroke: #A80036; stroke-width: 1.0;"/><polygon fill="#A80036" points="1314.5,613.21,1310.4283,604.2422,1310.762,609.8892,1305.115,610.2229,1314.5,613.21" style="stroke: #A80036; stroke-width: 1.0;"/><line style="stroke: #A80036; stroke-width: 1.0;" x1="1310.762" x2="1304.785" y1="609.8892" y2="604.575"/><polygon fill="#A80036" points="808.94,416.04,814.0192,421.1588,820.6978,418.439,815.6185,413.3203,808.94,416.04" style="stroke: #A80036; stroke-width: 1.0;"/><text fill="#000000" font-family="sans-serif" font-size="13" lengthAdjust="spacingAndGlyphs" textLength="120" x="1198.5" y="539.4951">schemaSpecification</text><text fill="#000000" font-family="sans-serif" font-size="13" lengthAdjust="spacingAndGlyphs" textLength="22" x="1285.5513" y="603.3234">0..1</text><!--link Schema to RelatedGeographicLocationRefOrValue--><path d="M781.22,466.79 C791.4,485.31 802.24,505.8 811.5,525 C822.18,547.16 832.89,571.57 842.4,594.24 " fill="none" id="Schema-RelatedGeographicLocationRefOrValue" style="stroke: #A80036; stroke-width: 1.0;"/><polygon fill="#A80036" points="847.27,605.96,847.5108,596.1141,845.3516,601.3427,840.123,599.1835,847.27,605.96" style="stroke: #A80036; stroke-width: 1.0;"/><line style="stroke: #A80036; stroke-width: 1.0;" x1="845.3516" x2="842.28" y1="601.3427" y2="593.955"/><polygon fill="#A80036" points="775.03,455.64,774.4388,462.8268,780.8454,466.1367,781.4366,458.9499,775.03,455.64" style="stroke: #A80036; stroke-width: 1.0;"/><text fill="#000000" font-family="sans-serif" font-size="13" lengthAdjust="spacingAndGlyphs" textLength="154" x="820.5" y="539.4951">relatedGeographicLocation</text><text fill="#000000" font-family="sans-serif" font-size="13" lengthAdjust="spacingAndGlyphs" textLength="20" x="823.732" y="596.1757">0..*</text><!--link Schema to Characteristic--><path d="M686.41,463.45 C671.22,475.68 654.15,487.2 636.5,495 C548.65,533.82 515.75,502.02 422.5,525 C361.08,540.14 341.9,539.08 288.5,573 C272.07,583.44 256.22,596.89 242.07,610.65 " fill="none" id="Schema-Characteristic" style="stroke: #A80036; stroke-width: 1.0;"/><polygon fill="#A80036" points="233.14,619.62,242.3241,616.063,236.6673,616.0762,236.6541,610.4194,233.14,619.62" style="stroke: #A80036; stroke-width: 1.0;"/><line style="stroke: #A80036; stroke-width: 1.0;" x1="236.6673" x2="242.315" y1="616.0762" y2="610.41"/><polygon fill="#A80036" points="695.95,455.44,688.7827,456.2334,686.7584,463.1546,693.9257,462.3612,695.95,455.44" style="stroke: #A80036; stroke-width: 1.0;"/><text fill="#000000" font-family="sans-serif" font-size="13" lengthAdjust="spacingAndGlyphs" textLength="126" x="423.5" y="539.4951">schemaCharacteristic</text><text fill="#000000" font-family="sans-serif" font-size="13" lengthAdjust="spacingAndGlyphs" textLength="20" x="216.8837" y="609.7687">0..*</text><!--link Schema to SchemaRelationship--><path d="M715.83,467.19 C707.03,485.8 697.38,506.22 688.5,525 C673.31,557.14 656.34,593.09 642.68,622.01 " fill="none" id="Schema-SchemaRelationship" style="stroke: #A80036; stroke-width: 1.0;"/><polygon fill="#A80036" points="637.31,633.4,644.7724,626.9725,639.4467,628.8795,637.5396,623.5538,637.31,633.4" style="stroke: #A80036; stroke-width: 1.0;"/><line style="stroke: #A80036; stroke-width: 1.0;" x1="639.4467" x2="642.855" y1="628.8795" y2="621.645"/><polygon fill="#A80036" points="721.27,455.7,715.0896,459.4152,716.142,466.5491,722.3224,462.8339,721.27,455.7" style="stroke: #A80036; stroke-width: 1.0;"/><text fill="#000000" font-family="sans-serif" font-size="13" lengthAdjust="spacingAndGlyphs" textLength="117" x="689.5" y="539.4951">schemaRelationship</text><text fill="#000000" font-family="sans-serif" font-size="13" lengthAdjust="spacingAndGlyphs" textLength="20" x="618.3427" y="623.6902">0..*</text><!--link SchemaRelationship to SchemaRefOrValue--><path d="M607.67,736.44 C605.29,765.77 605.84,801.66 616.5,832 C621.18,845.31 628.15,858.22 636.19,870.27 " fill="none" id="SchemaRelationship-SchemaRefOrValue" style="stroke: #A80036; stroke-width: 1.0;"/><polygon fill="#A80036" points="643.66,880.78,641.7097,871.1262,640.7647,876.7036,635.1874,875.7586,643.66,880.78" style="stroke: #A80036; stroke-width: 1.0;"/><line style="stroke: #A80036; stroke-width: 1.0;" x1="640.7647" x2="636.13" y1="876.7036" y2="870.185"/><polygon fill="#A80036" points="608.94,723.7,604.3665,729.2752,607.7538,735.6412,612.3273,730.066,608.94,723.7" style="stroke: #A80036; stroke-width: 1.0;"/><text fill="#000000" font-family="sans-serif" font-size="13" lengthAdjust="spacingAndGlyphs" textLength="46" x="617.5" y="828.4951">schema</text><text fill="#000000" font-family="sans-serif" font-size="13" lengthAdjust="spacingAndGlyphs" textLength="22" x="613.9884" y="871.0891">0..1</text><!--link SchemaRelationship to SchemaRefOrValue--><path d="M639.38,735.67 C648.84,759.64 659.64,788.03 668.5,814 C674.47,831.51 680.41,850.51 685.79,868.48 " fill="none" id="SchemaRelationship-SchemaRefOrValue" style="stroke: #A80036; stroke-width: 1.0;"/><polygon fill="#A80036" points="689.45,880.85,691.5834,873.9617,686.0454,869.3431,683.9121,876.2314,689.45,880.85" style="stroke: #A80036; stroke-width: 1.0;"/><polygon fill="#A80036" points="634.7,723.89,634.3045,733.7309,636.5456,728.5369,641.7396,730.778,634.7,723.89" style="stroke: #A80036; stroke-width: 1.0;"/><line style="stroke: #A80036; stroke-width: 1.0;" x1="636.5456" x2="639.5" y1="728.5369" y2="735.97"/><text fill="#000000" font-family="sans-serif" font-size="13" lengthAdjust="spacingAndGlyphs" textLength="117" x="675.5" y="828.4951">schemaRelationship</text><text fill="#000000" font-family="sans-serif" font-size="13" lengthAdjust="spacingAndGlyphs" textLength="20" x="619.3925" y="744.6987">0..*</text><!--link RelatedSchemaOrderItem to SchemaRefOrValue--><path d="M1060.29,765.9 C1034.46,789.25 1005.06,813.22 975.5,832 C917.41,868.9 845.26,898.67 790.47,918.44 " fill="none" id="RelatedSchemaOrderItem-SchemaRefOrValue" style="stroke: #A80036; stroke-width: 1.0;"/><polygon fill="#A80036" points="778.36,922.75,785.3532,924.5093,789.6669,918.7307,782.6736,916.9714,778.36,922.75" style="stroke: #A80036; stroke-width: 1.0;"/><polygon fill="#A80036" points="1069.64,757.32,1060.3025,760.4523,1065.954,760.6984,1065.7079,766.3499,1069.64,757.32" style="stroke: #A80036; stroke-width: 1.0;"/><line style="stroke: #A80036; stroke-width: 1.0;" x1="1065.954" x2="1060.065" y1="760.6984" y2="766.105"/><text fill="#000000" font-family="sans-serif" font-size="13" lengthAdjust="spacingAndGlyphs" textLength="78" x="1002.5" y="828.4951">schemaOrder</text><text fill="#000000" font-family="sans-serif" font-size="13" lengthAdjust="spacingAndGlyphs" textLength="20" x="1042.4184" y="760.6611">0..*</text><!--link AgreementItemRef to SchemaRefOrValue--><path d="M468.67,760.43 C490.89,784.55 516.3,810.32 541.5,832 C567.79,854.61 598.66,876.76 626.6,895.4 " fill="none" id="AgreementItemRef-SchemaRefOrValue" style="stroke: #A80036; stroke-width: 1.0;"/><polygon fill="#A80036" points="637.12,902.33,634.3121,895.6881,627.1011,895.7254,629.909,902.3674,637.12,902.33" style="stroke: #A80036; stroke-width: 1.0;"/><polygon fill="#A80036" points="460.05,750.96,463.1457,760.3097,463.4139,754.6592,469.0644,754.9274,460.05,750.96" style="stroke: #A80036; stroke-width: 1.0;"/><line style="stroke: #A80036; stroke-width: 1.0;" x1="463.4139" x2="468.805" y1="754.6592" y2="760.57"/><text fill="#000000" font-family="sans-serif" font-size="13" lengthAdjust="spacingAndGlyphs" textLength="61" x="542.5" y="828.4951">agreement</text><text fill="#000000" font-family="sans-serif" font-size="13" lengthAdjust="spacingAndGlyphs" textLength="20" x="458.5324" y="772.1906">0..*</text><!--link RelatedGeographicLocationRefOrValue to SchemaRefOrValue--><path d="M839.57,762.71 C828.44,785.77 815.41,810.38 801.5,832 C793.04,845.15 783.27,858.48 773.28,871.17 " fill="none" id="RelatedGeographicLocationRefOrValue-SchemaRefOrValue" style="stroke: #A80036; stroke-width: 1.0;"/><polygon fill="#A80036" points="765.43,880.95,772.3035,878.7695,772.9344,871.586,766.0609,873.7665,765.43,880.95" style="stroke: #A80036; stroke-width: 1.0;"/><polygon fill="#A80036" points="845.08,751.09,837.6113,757.5101,842.9389,755.6084,844.8406,760.9359,845.08,751.09" style="stroke: #A80036; stroke-width: 1.0;"/><line style="stroke: #A80036; stroke-width: 1.0;" x1="842.9389" x2="839.515" y1="755.6084" y2="762.84"/><text fill="#000000" font-family="sans-serif" font-size="13" lengthAdjust="spacingAndGlyphs" textLength="154" x="812.5" y="828.4951">relatedGeographicLocation</text><text fill="#000000" font-family="sans-serif" font-size="13" lengthAdjust="spacingAndGlyphs" textLength="20" x="810.0706" y="772.0234">0..*</text><!--link SchemaSpecificationRef to SchemaRefOrValue--><path d="M1305.45,752.45 C1291.74,764.2 1276.82,775.33 1261.5,784 C1108.02,870.86 903.66,914.63 790.97,933.5 " fill="none" id="SchemaSpecificationRef-SchemaRefOrValue" style="stroke: #A80036; stroke-width: 1.0;"/><polygon fill="#A80036" points="778.18,935.59,784.7474,938.5682,790.0224,933.6514,783.455,930.6733,778.18,935.59" style="stroke: #A80036; stroke-width: 1.0;"/><polygon fill="#A80036" points="1315.04,743.94,1305.6548,746.9262,1311.3017,747.2605,1310.9675,752.9074,1315.04,743.94" style="stroke: #A80036; stroke-width: 1.0;"/><line style="stroke: #A80036; stroke-width: 1.0;" x1="1311.3017" x2="1305.32" y1="747.2605" y2="752.57"/><text fill="#000000" font-family="sans-serif" font-size="13" lengthAdjust="spacingAndGlyphs" textLength="120" x="1193.5" y="828.4951">schemaSpecification</text><text fill="#000000" font-family="sans-serif" font-size="13" lengthAdjust="spacingAndGlyphs" textLength="22" x="1273.8043" y="756.9142">0..1</text><!--link Characteristic to SchemaRefOrValue--><path d="M244.39,746.64 C258.11,759.96 273.18,773.16 288.5,784 C392.86,857.83 535.44,903.34 624.46,926.52 " fill="none" id="Characteristic-SchemaRefOrValue" style="stroke: #A80036; stroke-width: 1.0;"/><polygon fill="#A80036" points="636.8,929.67,631.9764,924.3097,625.1732,926.7006,629.9968,932.0609,636.8,929.67" style="stroke: #A80036; stroke-width: 1.0;"/><polygon fill="#A80036" points="235.26,737.54,238.817,746.7241,238.8038,741.0673,244.4606,741.0541,235.26,737.54" style="stroke: #A80036; stroke-width: 1.0;"/><line style="stroke: #A80036; stroke-width: 1.0;" x1="238.8038" x2="244.47" y1="741.0673" y2="746.715"/><text fill="#000000" font-family="sans-serif" font-size="13" lengthAdjust="spacingAndGlyphs" textLength="126" x="362.5" y="828.4951">schemaCharacteristic</text><text fill="#000000" font-family="sans-serif" font-size="13" lengthAdjust="spacingAndGlyphs" textLength="20" x="233.5389" y="758.3845">0..*</text><!--link SchemaOrder to ProductActionType--><!--link SchemaOrder to RelatedParty--><path d="M258.5,220.26 C258.5,251.45 258.5,286.68 258.5,317.8 " fill="none" id="SchemaOrder-RelatedParty" style="stroke: #A80036; stroke-width: 1.0;"/><polygon fill="#A80036" points="258.5,330.73,262.5,321.73,258.5,325.73,254.5,321.73,258.5,330.73" style="stroke: #A80036; stroke-width: 1.0;"/><line style="stroke: #A80036; stroke-width: 1.0;" x1="258.5" x2="258.5" y1="325.73" y2="317.73"/><polygon fill="#A80036" points="258.5,207.71,254.5,213.71,258.5,219.71,262.5,213.71,258.5,207.71" style="stroke: #A80036; stroke-width: 1.0;"/><text fill="#000000" font-family="sans-serif" font-size="13" lengthAdjust="spacingAndGlyphs" textLength="70" x="259.5" y="278.4951">relatedParty</text><text fill="#000000" font-family="sans-serif" font-size="13" lengthAdjust="spacingAndGlyphs" textLength="20" x="237.4063" y="321.0426">0..*</text><!--link SchemaOrderItem to OrderItemRelationship--><path d="M546.07,204.65 C538.01,223.43 530.63,244.06 526.5,264 C521.52,287.99 520.98,314.81 522.14,338.42 " fill="none" id="SchemaOrderItem-OrderItemRelationship" style="stroke: #A80036; stroke-width: 1.0;"/><polygon fill="#A80036" points="522.95,351.14,526.358,341.8996,522.6258,346.1505,518.3748,342.4183,522.95,351.14" style="stroke: #A80036; stroke-width: 1.0;"/><line style="stroke: #A80036; stroke-width: 1.0;" x1="522.6258" x2="522.12" y1="346.1505" y2="338.165"/><polygon fill="#A80036" points="551.26,193.05,545.1576,196.892,546.357,204.0027,552.4594,200.1607,551.26,193.05" style="stroke: #A80036; stroke-width: 1.0;"/><text fill="#000000" font-family="sans-serif" font-size="13" lengthAdjust="spacingAndGlyphs" textLength="174" x="527.5" y="278.4951">schemaOrderItemRelationship</text><text fill="#000000" font-family="sans-serif" font-size="13" lengthAdjust="spacingAndGlyphs" textLength="20" x="500.6339" y="341.5073">0..*</text><!--link Characteristic to CharacteristicRelationship--><path d="M165.63,750.4 C161.05,770.78 156.8,793.14 154.5,814 C153.62,821.95 154.39,824 154.5,832 C154.71,847.92 155.09,865.09 155.5,881.14 " fill="none" id="Characteristic-CharacteristicRelationship" style="stroke: #A80036; stroke-width: 1.0;"/><polygon fill="#A80036" points="155.85,893.99,159.6013,884.8835,155.7127,888.9919,151.6043,885.1032,155.85,893.99" style="stroke: #A80036; stroke-width: 1.0;"/><line style="stroke: #A80036; stroke-width: 1.0;" x1="155.7127" x2="155.5" y1="888.9919" y2="880.995"/><polygon fill="#A80036" points="168.59,737.78,163.3311,742.7139,165.8628,749.466,171.1217,744.5321,168.59,737.78" style="stroke: #A80036; stroke-width: 1.0;"/><text fill="#000000" font-family="sans-serif" font-size="13" lengthAdjust="spacingAndGlyphs" textLength="149" x="155.5" y="828.4951">characteristicRelationship</text><text fill="#000000" font-family="sans-serif" font-size="13" lengthAdjust="spacingAndGlyphs" textLength="20" x="134.2573" y="884.7037">0..*</text></g></svg>