<?xml version="1.0" encoding="us-ascii" standalone="no"?><svg xmlns="http://www.w3.org/2000/svg" xmlns:xlink="http://www.w3.org/1999/xlink" contentStyleType="text/css" height="1182px" preserveAspectRatio="none" style="width:1492px;height:1182px;background:#FFFFFF;" version="1.1" viewBox="0 0 1492 1182" width="1492px" zoomAndPan="magnify"><defs/><g><text fill="#888888" font-family="sans-serif" font-size="10" lengthAdjust="spacing" textLength="148" x="1330" y="10.3809">Diagram generated at 12/22/23</text><text fill="#000000" font-family="sans-serif" font-size="14" font-weight="bold" lengthAdjust="spacing" textLength="192" x="643" y="38.1113">TMF Schema Class Diagram</text><!--class SchemaOrder--><g id="elem_SchemaOrder"><rect codeLine="20" fill="#FFFFFF" height="191.5781" id="SchemaOrder" rx="2.5" ry="2.5" style="stroke:#181818;stroke-width:0.5;" width="208" x="168" y="125.4039"/><text fill="#000000" font-family="sans-serif" font-size="12" font-style="italic" lengthAdjust="spacing" textLength="41" x="251.5" y="142.861">&#171;Pivot&#187;</text><text fill="#000000" font-family="sans-serif" font-size="14" lengthAdjust="spacing" textLength="88" x="228" y="160.0309">SchemaOrder</text><line style="stroke:#181818;stroke-width:0.5;" x1="169" x2="375" y1="168.1071" y2="168.1071"/><text fill="#000000" font-family="sans-serif" font-size="14" lengthAdjust="spacing" textLength="118" x="174" y="186.6403">description : String</text><text fill="#000000" font-family="sans-serif" font-size="14" lengthAdjust="spacing" textLength="74" x="174" y="204.2496">href : String</text><text fill="#000000" font-family="sans-serif" font-size="14" lengthAdjust="spacing" textLength="60" x="174" y="221.859">id : String</text><text fill="#000000" font-family="sans-serif" font-size="14" lengthAdjust="spacing" textLength="137" x="174" y="239.4684">orderDate : DateTime</text><text fill="#000000" font-family="sans-serif" font-size="14" lengthAdjust="spacing" textLength="196" x="174" y="257.0778">state : SchemaOrderStateType</text><text fill="#000000" font-family="sans-serif" font-size="14" lengthAdjust="spacing" textLength="126" x="174" y="274.6871">@baseType : String</text><text fill="#000000" font-family="sans-serif" font-size="14" lengthAdjust="spacing" textLength="146" x="174" y="292.2965">@schemaLocation : Uri</text><text fill="#000000" font-family="sans-serif" font-size="14" lengthAdjust="spacing" textLength="90" x="174" y="309.9059">@type : String</text></g><!--class SchemaOrderStateType--><g id="elem_SchemaOrderStateType"><rect codeLine="31" fill="#E6F5F7" height="229.3125" id="SchemaOrderStateType" rx="2.5" ry="2.5" style="stroke:#181818;stroke-width:0.5;" width="159" x="410.5" y="106.5439"/><text fill="#000000" font-family="sans-serif" font-size="14" lengthAdjust="spacing" textLength="153" x="413.5" y="126.0771">SchemaOrderStateType</text><line style="stroke:#181818;stroke-width:0.5;" x1="411.5" x2="568.5" y1="134.1533" y2="134.1533"/><text fill="#000000" font-family="sans-serif" font-size="14" lengthAdjust="spacing" textLength="90" x="416.5" y="152.6865">acknowledged</text><text fill="#000000" font-family="sans-serif" font-size="14" lengthAdjust="spacing" textLength="51" x="416.5" y="170.2959">rejected</text><text fill="#000000" font-family="sans-serif" font-size="14" lengthAdjust="spacing" textLength="51" x="416.5" y="187.9053">pending</text><text fill="#000000" font-family="sans-serif" font-size="14" lengthAdjust="spacing" textLength="27" x="416.5" y="205.5146">held</text><text fill="#000000" font-family="sans-serif" font-size="14" lengthAdjust="spacing" textLength="68" x="416.5" y="223.124">inProgress</text><text fill="#000000" font-family="sans-serif" font-size="14" lengthAdjust="spacing" textLength="60" x="416.5" y="240.7334">cancelled</text><text fill="#000000" font-family="sans-serif" font-size="14" lengthAdjust="spacing" textLength="65" x="416.5" y="258.3428">completed</text><text fill="#000000" font-family="sans-serif" font-size="14" lengthAdjust="spacing" textLength="34" x="416.5" y="275.9521">failed</text><text fill="#000000" font-family="sans-serif" font-size="14" lengthAdjust="spacing" textLength="39" x="416.5" y="293.5615">partial</text><text fill="#000000" font-family="sans-serif" font-size="14" lengthAdjust="spacing" textLength="141" x="416.5" y="311.1709">assessingCancellation</text><text fill="#000000" font-family="sans-serif" font-size="14" lengthAdjust="spacing" textLength="129" x="416.5" y="328.7803">pendingCancellation</text></g><!--class SchemaOrderItem--><g id="elem_SchemaOrderItem"><rect codeLine="45" fill="#FCF2E3" height="141.2656" id="SchemaOrderItem" rx="2.5" ry="2.5" style="stroke:#181818;stroke-width:0.5;" width="208" x="604" y="150.5639"/><text fill="#000000" font-family="sans-serif" font-size="14" lengthAdjust="spacing" textLength="114" x="651" y="170.0971">SchemaOrderItem</text><line style="stroke:#181818;stroke-width:0.5;" x1="605" x2="811" y1="178.1733" y2="178.1733"/><text fill="#000000" font-family="sans-serif" font-size="14" lengthAdjust="spacing" textLength="170" x="610" y="196.7065">action : ProductActionType</text><text fill="#000000" font-family="sans-serif" font-size="14" lengthAdjust="spacing" textLength="60" x="610" y="214.3159">id : String</text><text fill="#000000" font-family="sans-serif" font-size="14" lengthAdjust="spacing" textLength="196" x="610" y="231.9253">state : SchemaOrderStateType</text><text fill="#000000" font-family="sans-serif" font-size="14" lengthAdjust="spacing" textLength="126" x="610" y="249.5346">@baseType : String</text><text fill="#000000" font-family="sans-serif" font-size="14" lengthAdjust="spacing" textLength="146" x="610" y="267.144">@schemaLocation : Uri</text><text fill="#000000" font-family="sans-serif" font-size="14" lengthAdjust="spacing" textLength="90" x="610" y="284.7534">@type : String</text></g><!--class ProductActionType--><g id="elem_ProductActionType"><rect codeLine="54" fill="#E6F5F7" height="106.0469" id="ProductActionType" rx="2.5" ry="2.5" style="stroke:#181818;stroke-width:0.5;" width="126" x="7" y="168.1739"/><text fill="#000000" font-family="sans-serif" font-size="14" lengthAdjust="spacing" textLength="120" x="10" y="187.7071">ProductActionType</text><line style="stroke:#181818;stroke-width:0.5;" x1="8" x2="132" y1="195.7833" y2="195.7833"/><text fill="#000000" font-family="sans-serif" font-size="14" lengthAdjust="spacing" textLength="24" x="13" y="214.3165">add</text><text fill="#000000" font-family="sans-serif" font-size="14" lengthAdjust="spacing" textLength="41" x="13" y="231.9259">modify</text><text fill="#000000" font-family="sans-serif" font-size="14" lengthAdjust="spacing" textLength="39" x="13" y="249.5353">delete</text><text fill="#000000" font-family="sans-serif" font-size="14" lengthAdjust="spacing" textLength="66" x="13" y="267.1446">noChange</text></g><!--class Schema--><g id="elem_Schema"><rect codeLine="61" fill="#FCF2E3" height="123.6563" id="Schema" rx="2.5" ry="2.5" style="stroke:#181818;stroke-width:0.5;" width="158" x="737" y="440.2639"/><text fill="#000000" font-family="sans-serif" font-size="14" lengthAdjust="spacing" textLength="51" x="790.5" y="459.7971">Schema</text><line style="stroke:#181818;stroke-width:0.5;" x1="738" x2="894" y1="467.8733" y2="467.8733"/><text fill="#000000" font-family="sans-serif" font-size="14" lengthAdjust="spacing" textLength="74" x="743" y="486.4065">href : String</text><text fill="#000000" font-family="sans-serif" font-size="14" lengthAdjust="spacing" textLength="60" x="743" y="504.0159">id : String</text><text fill="#000000" font-family="sans-serif" font-size="14" lengthAdjust="spacing" textLength="126" x="743" y="521.6253">@baseType : String</text><text fill="#000000" font-family="sans-serif" font-size="14" lengthAdjust="spacing" textLength="146" x="743" y="539.2346">@schemaLocation : Uri</text><text fill="#000000" font-family="sans-serif" font-size="14" lengthAdjust="spacing" textLength="90" x="743" y="556.844">@type : String</text></g><!--class SchemaSpecificationRef--><g id="elem_SchemaSpecificationRef"><rect codeLine="69" fill="#FFFFE0" height="173.9688" id="SchemaSpecificationRef" rx="2.5" ry="2.5" style="stroke:#181818;stroke-width:0.5;" width="178" x="1307" y="687.2039"/><text fill="#000000" font-family="sans-serif" font-size="12" font-style="italic" lengthAdjust="spacing" textLength="33" x="1379.5" y="704.661">&#171;Ref&#187;</text><a href="SchemaSpecification.svg" target="_top" title="SchemaSpecification.svg" xlink:actuate="onRequest" xlink:href="SchemaSpecification.svg" xlink:show="new" xlink:title="SchemaSpecification.svg" xlink:type="simple"><text fill="#0000FF" font-family="sans-serif" font-size="14" lengthAdjust="spacing" text-decoration="underline" textLength="131" x="1319.5" y="721.8309">SchemaSpecification</text></a><text fill="#000000" font-family="sans-serif" font-size="14" lengthAdjust="spacing" textLength="22" x="1450.5" y="721.8309">Ref</text><line style="stroke:#181818;stroke-width:0.5;" x1="1308" x2="1484" y1="729.9071" y2="729.9071"/><text fill="#000000" font-family="sans-serif" font-size="14" lengthAdjust="spacing" textLength="74" x="1313" y="748.4403">href : String</text><text fill="#000000" font-family="sans-serif" font-size="14" lengthAdjust="spacing" textLength="60" x="1313" y="766.0496">id : String</text><text fill="#000000" font-family="sans-serif" font-size="14" lengthAdjust="spacing" textLength="84" x="1313" y="783.659">name : String</text><text fill="#000000" font-family="sans-serif" font-size="14" lengthAdjust="spacing" textLength="126" x="1313" y="801.2684">@baseType : String</text><text fill="#000000" font-family="sans-serif" font-size="14" lengthAdjust="spacing" textLength="146" x="1313" y="818.8778">@referredType : String</text><text fill="#000000" font-family="sans-serif" font-size="14" lengthAdjust="spacing" textLength="166" x="1313" y="836.4871">@schemaLocation : String</text><text fill="#000000" font-family="sans-serif" font-size="14" lengthAdjust="spacing" textLength="90" x="1313" y="854.0965">@type : String</text></g><!--class AgreementItemRef--><g id="elem_AgreementItemRef"><rect codeLine="79" fill="#FFFFE0" height="191.5781" id="AgreementItemRef" rx="2.5" ry="2.5" style="stroke:#181818;stroke-width:0.5;" width="178" x="397" y="678.3939"/><text fill="#000000" font-family="sans-serif" font-size="12" font-style="italic" lengthAdjust="spacing" textLength="33" x="469.5" y="695.851">&#171;Ref&#187;</text><a href="AgreementItem.svg" target="_top" title="AgreementItem.svg" xlink:actuate="onRequest" xlink:href="AgreementItem.svg" xlink:show="new" xlink:title="AgreementItem.svg" xlink:type="simple"><text fill="#0000FF" font-family="sans-serif" font-size="14" lengthAdjust="spacing" text-decoration="underline" textLength="95" x="427.5" y="713.0209">AgreementItem</text></a><text fill="#000000" font-family="sans-serif" font-size="14" lengthAdjust="spacing" textLength="22" x="522.5" y="713.0209">Ref</text><line style="stroke:#181818;stroke-width:0.5;" x1="398" x2="574" y1="721.0971" y2="721.0971"/><text fill="#000000" font-family="sans-serif" font-size="14" lengthAdjust="spacing" textLength="154" x="403" y="739.6303">agreementItemId : String</text><text fill="#000000" font-family="sans-serif" font-size="14" lengthAdjust="spacing" textLength="74" x="403" y="757.2396">href : String</text><text fill="#000000" font-family="sans-serif" font-size="14" lengthAdjust="spacing" textLength="60" x="403" y="774.849">id : String</text><text fill="#000000" font-family="sans-serif" font-size="14" lengthAdjust="spacing" textLength="84" x="403" y="792.4584">name : String</text><text fill="#000000" font-family="sans-serif" font-size="14" lengthAdjust="spacing" textLength="126" x="403" y="810.0678">@baseType : String</text><text fill="#000000" font-family="sans-serif" font-size="14" lengthAdjust="spacing" textLength="146" x="403" y="827.6771">@referredType : String</text><text fill="#000000" font-family="sans-serif" font-size="14" lengthAdjust="spacing" textLength="166" x="403" y="845.2865">@schemaLocation : String</text><text fill="#000000" font-family="sans-serif" font-size="14" lengthAdjust="spacing" textLength="90" x="403" y="862.8959">@type : String</text></g><!--class Characteristic--><g id="elem_Characteristic"><rect codeLine="90" fill="#FCF2E3" height="141.2656" id="Characteristic" rx="2.5" ry="2.5" style="stroke:#181818;stroke-width:0.5;" width="158" x="204" y="703.5539"/><text fill="#000000" font-family="sans-serif" font-size="14" lengthAdjust="spacing" textLength="87" x="239.5" y="723.0871">Characteristic</text><line style="stroke:#181818;stroke-width:0.5;" x1="205" x2="361" y1="731.1633" y2="731.1633"/><text fill="#000000" font-family="sans-serif" font-size="14" lengthAdjust="spacing" textLength="60" x="210" y="749.6965">id : String</text><text fill="#000000" font-family="sans-serif" font-size="14" lengthAdjust="spacing" textLength="84" x="210" y="767.3059">name : String</text><text fill="#000000" font-family="sans-serif" font-size="14" lengthAdjust="spacing" textLength="115" x="210" y="784.9153">valueType : String</text><text fill="#000000" font-family="sans-serif" font-size="14" lengthAdjust="spacing" textLength="126" x="210" y="802.5246">@baseType : String</text><text fill="#000000" font-family="sans-serif" font-size="14" lengthAdjust="spacing" textLength="146" x="210" y="820.134">@schemaLocation : Uri</text><text fill="#000000" font-family="sans-serif" font-size="14" lengthAdjust="spacing" textLength="90" x="210" y="837.7434">@type : String</text></g><!--class CharacteristicRelationship--><g id="elem_CharacteristicRelationship"><rect codeLine="99" fill="#FCF2E3" height="123.6563" id="CharacteristicRelationship" rx="2.5" ry="2.5" style="stroke:#181818;stroke-width:0.5;" width="171" x="145.5" y="975.6439"/><text fill="#000000" font-family="sans-serif" font-size="14" lengthAdjust="spacing" textLength="165" x="148.5" y="995.1771">CharacteristicRelationship</text><line style="stroke:#181818;stroke-width:0.5;" x1="146.5" x2="315.5" y1="1003.2533" y2="1003.2533"/><text fill="#000000" font-family="sans-serif" font-size="14" lengthAdjust="spacing" textLength="60" x="151.5" y="1021.7865">id : String</text><text fill="#000000" font-family="sans-serif" font-size="14" lengthAdjust="spacing" textLength="154" x="151.5" y="1039.3959">relationshipType : String</text><text fill="#000000" font-family="sans-serif" font-size="14" lengthAdjust="spacing" textLength="126" x="151.5" y="1057.0053">@baseType : String</text><text fill="#000000" font-family="sans-serif" font-size="14" lengthAdjust="spacing" textLength="146" x="151.5" y="1074.6146">@schemaLocation : Uri</text><text fill="#000000" font-family="sans-serif" font-size="14" lengthAdjust="spacing" textLength="90" x="151.5" y="1092.224">@type : String</text></g><!--class SchemaRelationship--><g id="elem_SchemaRelationship"><rect codeLine="107" fill="#FCF2E3" height="106.0469" id="SchemaRelationship" rx="2.5" ry="2.5" style="stroke:#181818;stroke-width:0.5;" width="166" x="610" y="721.1639"/><text fill="#000000" font-family="sans-serif" font-size="14" lengthAdjust="spacing" textLength="129" x="628.5" y="740.6971">SchemaRelationship</text><line style="stroke:#181818;stroke-width:0.5;" x1="611" x2="775" y1="748.7733" y2="748.7733"/><text fill="#000000" font-family="sans-serif" font-size="14" lengthAdjust="spacing" textLength="154" x="616" y="767.3065">relationshipType : String</text><text fill="#000000" font-family="sans-serif" font-size="14" lengthAdjust="spacing" textLength="126" x="616" y="784.9159">@baseType : String</text><text fill="#000000" font-family="sans-serif" font-size="14" lengthAdjust="spacing" textLength="146" x="616" y="802.5253">@schemaLocation : Uri</text><text fill="#000000" font-family="sans-serif" font-size="14" lengthAdjust="spacing" textLength="90" x="616" y="820.1346">@type : String</text></g><!--class SchemaRefOrValue--><g id="elem_SchemaRefOrValue"><rect codeLine="114" fill="#FCF2E3" height="158.875" id="SchemaRefOrValue" rx="2.5" ry="2.5" style="stroke:#181818;stroke-width:0.5;" width="178" x="692" y="958.0439"/><a href="Schema.svg" target="_top" title="Schema.svg" xlink:actuate="onRequest" xlink:href="Schema.svg" xlink:show="new" xlink:title="Schema.svg" xlink:type="simple"><text fill="#0000FF" font-family="sans-serif" font-size="14" lengthAdjust="spacing" text-decoration="underline" textLength="51" x="718.5" y="977.5771">Schema</text></a><text fill="#000000" font-family="sans-serif" font-size="14" lengthAdjust="spacing" textLength="74" x="769.5" y="977.5771">RefOrValue</text><line style="stroke:#181818;stroke-width:0.5;" x1="693" x2="869" y1="985.6533" y2="985.6533"/><text fill="#000000" font-family="sans-serif" font-size="14" lengthAdjust="spacing" textLength="74" x="698" y="1004.1865">href : String</text><text fill="#000000" font-family="sans-serif" font-size="14" lengthAdjust="spacing" textLength="60" x="698" y="1021.7959">id : String</text><text fill="#000000" font-family="sans-serif" font-size="14" lengthAdjust="spacing" textLength="84" x="698" y="1039.4053">name : String</text><text fill="#000000" font-family="sans-serif" font-size="14" lengthAdjust="spacing" textLength="126" x="698" y="1057.0146">@baseType : String</text><text fill="#000000" font-family="sans-serif" font-size="14" lengthAdjust="spacing" textLength="146" x="698" y="1074.624">@referredType : String</text><text fill="#000000" font-family="sans-serif" font-size="14" lengthAdjust="spacing" textLength="166" x="698" y="1092.2334">@schemaLocation : String</text><text fill="#000000" font-family="sans-serif" font-size="14" lengthAdjust="spacing" textLength="90" x="698" y="1109.8428">@type : String</text></g><!--class RelatedGeographicLocationRefOrValue--><g id="elem_RelatedGeographicLocationRefOrValue"><rect codeLine="124" fill="#FCF2E3" height="176.4844" id="RelatedGeographicLocationRefOrValue" rx="2.5" ry="2.5" style="stroke:#181818;stroke-width:0.5;" width="257" x="811.5" y="685.9439"/><text fill="#000000" font-family="sans-serif" font-size="14" lengthAdjust="spacing" textLength="49" x="814.5" y="705.4771">Related</text><a href="GeographicLocation.svg" target="_top" title="GeographicLocation.svg" xlink:actuate="onRequest" xlink:href="GeographicLocation.svg" xlink:show="new" xlink:title="GeographicLocation.svg" xlink:type="simple"><text fill="#0000FF" font-family="sans-serif" font-size="14" lengthAdjust="spacing" text-decoration="underline" textLength="128" x="863.5" y="705.4771">GeographicLocation</text></a><text fill="#000000" font-family="sans-serif" font-size="14" lengthAdjust="spacing" textLength="74" x="991.5" y="705.4771">RefOrValue</text><line style="stroke:#181818;stroke-width:0.5;" x1="812.5" x2="1067.5" y1="713.5533" y2="713.5533"/><text fill="#000000" font-family="sans-serif" font-size="14" lengthAdjust="spacing" textLength="74" x="817.5" y="732.0865">href : String</text><text fill="#000000" font-family="sans-serif" font-size="14" lengthAdjust="spacing" textLength="60" x="817.5" y="749.6959">id : String</text><text fill="#000000" font-family="sans-serif" font-size="14" lengthAdjust="spacing" textLength="84" x="817.5" y="767.3053">name : String</text><text fill="#000000" font-family="sans-serif" font-size="14" lengthAdjust="spacing" textLength="73" x="817.5" y="784.9146">role : String</text><text fill="#000000" font-family="sans-serif" font-size="14" lengthAdjust="spacing" textLength="126" x="817.5" y="802.524">@baseType : String</text><text fill="#000000" font-family="sans-serif" font-size="14" lengthAdjust="spacing" textLength="146" x="817.5" y="820.1334">@referredType : String</text><text fill="#000000" font-family="sans-serif" font-size="14" lengthAdjust="spacing" textLength="166" x="817.5" y="837.7428">@schemaLocation : String</text><text fill="#000000" font-family="sans-serif" font-size="14" lengthAdjust="spacing" textLength="90" x="817.5" y="855.3521">@type : String</text></g><!--class RelatedSchemaOrderItem--><g id="elem_RelatedSchemaOrderItem"><rect codeLine="135" fill="#FCF2E3" height="211.7031" id="RelatedSchemaOrderItem" rx="2.5" ry="2.5" style="stroke:#181818;stroke-width:0.5;" width="169" x="1103.5" y="668.3339"/><text fill="#000000" font-family="sans-serif" font-size="14" lengthAdjust="spacing" textLength="163" x="1106.5" y="687.8671">RelatedSchemaOrderItem</text><line style="stroke:#181818;stroke-width:0.5;" x1="1104.5" x2="1271.5" y1="695.9433" y2="695.9433"/><text fill="#000000" font-family="sans-serif" font-size="14" lengthAdjust="spacing" textLength="114" x="1109.5" y="714.4765">itemAction : String</text><text fill="#000000" font-family="sans-serif" font-size="14" lengthAdjust="spacing" textLength="86" x="1109.5" y="732.0859">itemId : String</text><text fill="#000000" font-family="sans-serif" font-size="14" lengthAdjust="spacing" textLength="84" x="1109.5" y="749.6953">name : String</text><text fill="#000000" font-family="sans-serif" font-size="14" lengthAdjust="spacing" textLength="109" x="1109.5" y="767.3046">orderHref : String</text><text fill="#000000" font-family="sans-serif" font-size="14" lengthAdjust="spacing" textLength="94" x="1109.5" y="784.914">orderId : String</text><text fill="#000000" font-family="sans-serif" font-size="14" lengthAdjust="spacing" textLength="73" x="1109.5" y="802.5234">role : String</text><text fill="#000000" font-family="sans-serif" font-size="14" lengthAdjust="spacing" textLength="126" x="1109.5" y="820.1328">@baseType : String</text><text fill="#000000" font-family="sans-serif" font-size="14" lengthAdjust="spacing" textLength="146" x="1109.5" y="837.7421">@referredType : String</text><text fill="#000000" font-family="sans-serif" font-size="14" lengthAdjust="spacing" textLength="146" x="1109.5" y="855.3515">@schemaLocation : Uri</text><text fill="#000000" font-family="sans-serif" font-size="14" lengthAdjust="spacing" textLength="90" x="1109.5" y="872.9609">@type : String</text></g><!--class OrderItemRelationship--><g id="elem_OrderItemRelationship"><rect codeLine="148" fill="#FCF2E3" height="123.6563" id="OrderItemRelationship" rx="2.5" ry="2.5" style="stroke:#181818;stroke-width:0.5;" width="166" x="517" y="440.2639"/><text fill="#000000" font-family="sans-serif" font-size="14" lengthAdjust="spacing" textLength="141" x="529.5" y="459.7971">OrderItemRelationship</text><line style="stroke:#181818;stroke-width:0.5;" x1="518" x2="682" y1="467.8733" y2="467.8733"/><text fill="#000000" font-family="sans-serif" font-size="14" lengthAdjust="spacing" textLength="60" x="523" y="486.4065">id : String</text><text fill="#000000" font-family="sans-serif" font-size="14" lengthAdjust="spacing" textLength="154" x="523" y="504.0159">relationshipType : String</text><text fill="#000000" font-family="sans-serif" font-size="14" lengthAdjust="spacing" textLength="126" x="523" y="521.6253">@baseType : String</text><text fill="#000000" font-family="sans-serif" font-size="14" lengthAdjust="spacing" textLength="146" x="523" y="539.2346">@schemaLocation : Uri</text><text fill="#000000" font-family="sans-serif" font-size="14" lengthAdjust="spacing" textLength="90" x="523" y="556.844">@type : String</text></g><!--class RelatedParty--><g id="elem_RelatedParty"><rect codeLine="156" fill="#FCF2E3" height="176.4844" id="RelatedParty" rx="2.5" ry="2.5" style="stroke:#181818;stroke-width:0.5;" width="178" x="183" y="413.8539"/><text fill="#000000" font-family="sans-serif" font-size="14" lengthAdjust="spacing" textLength="82" x="231" y="433.3871">RelatedParty</text><line style="stroke:#181818;stroke-width:0.5;" x1="184" x2="360" y1="441.4633" y2="441.4633"/><text fill="#000000" font-family="sans-serif" font-size="14" lengthAdjust="spacing" textLength="74" x="189" y="459.9965">href : String</text><text fill="#000000" font-family="sans-serif" font-size="14" lengthAdjust="spacing" textLength="60" x="189" y="477.6059">id : String</text><text fill="#000000" font-family="sans-serif" font-size="14" lengthAdjust="spacing" textLength="84" x="189" y="495.2153">name : String</text><text fill="#000000" font-family="sans-serif" font-size="14" lengthAdjust="spacing" textLength="73" x="189" y="512.8246">role : String</text><text fill="#000000" font-family="sans-serif" font-size="14" lengthAdjust="spacing" textLength="126" x="189" y="530.434">@baseType : String</text><text fill="#000000" font-family="sans-serif" font-size="14" lengthAdjust="spacing" textLength="146" x="189" y="548.0434">@referredType : String</text><text fill="#000000" font-family="sans-serif" font-size="14" lengthAdjust="spacing" textLength="166" x="189" y="565.6528">@schemaLocation : String</text><text fill="#000000" font-family="sans-serif" font-size="14" lengthAdjust="spacing" textLength="90" x="189" y="583.2621">@type : String</text></g><!--link SchemaOrder to SchemaOrderItem--><g id="link_SchemaOrder_SchemaOrderItem"><path codeLine="167" d="M368.2349,117.5635 C391.5049,99.1735 408.83,90.9539 437.5,84.1439 C502.87,68.6339 532.02,67.9239 587,106.5439 C605.24,119.3439 619.0548,130.7395 635.6048,146.1195 " fill="none" id="SchemaOrder-SchemaOrderItem" style="stroke:#181818;stroke-width:1.0;"/><polygon fill="#181818" points="358.82,125.0039,366.0076,124.422,368.2349,117.5635,361.0473,118.1454,358.82,125.0039" style="stroke:#181818;stroke-width:1.0;"/><polygon fill="#181818" points="640,150.2039,636.1302,141.1472,636.3374,146.8002,630.6843,147.0074,640,150.2039" style="stroke:#181818;stroke-width:1.0;"/><text fill="#000000" font-family="sans-serif" font-size="13" lengthAdjust="spacing" textLength="103" x="438.5" y="73.0391">schemaOrderItem</text><text fill="#000000" font-family="sans-serif" font-size="13" lengthAdjust="spacing" textLength="20" x="611.9563" y="139.5711">1..*</text></g><!--link SchemaOrder to SchemaOrderStateType--><!--link SchemaOrderItem to ProductActionType--><!--link SchemaOrderItem to Schema--><g id="link_SchemaOrderItem_Schema"><path codeLine="173" d="M749.6937,302.8279 C760.9837,325.9579 767.64,341.2939 777,365.8539 C786.05,389.5939 792.5923,410.5906 799.0623,434.0106 " fill="none" id="SchemaOrderItem-Schema" style="stroke:#181818;stroke-width:1.0;"/><polygon fill="#181818" points="744.43,292.0439,743.4672,299.1905,749.6937,302.8279,750.6565,295.6813,744.43,292.0439" style="stroke:#181818;stroke-width:1.0;"/><polygon fill="#181818" points="800.66,439.7939,802.119,430.0538,799.3286,434.9745,794.4079,432.184,800.66,439.7939" style="stroke:#181818;stroke-width:1.0;"/><text fill="#000000" font-family="sans-serif" font-size="13" lengthAdjust="spacing" textLength="46" x="785" y="380.3491">schema</text><text fill="#000000" font-family="sans-serif" font-size="13" lengthAdjust="spacing" textLength="22" x="775.7791" y="429.6194">0..1</text></g><!--link Schema to RelatedSchemaOrderItem--><g id="link_Schema_RelatedSchemaOrderItem"><path codeLine="175" d="M906.4226,538.4977 C954.1026,559.0177 1003.5,584.1239 1051,620.3339 C1069.28,634.2739 1082.8897,646.5509 1099.2397,663.6209 " fill="none" id="Schema-RelatedSchemaOrderItem" style="stroke:#181818;stroke-width:1.0;"/><polygon fill="#181818" points="895.4,533.7539,899.33,539.8,906.4226,538.4977,902.4925,532.4516,895.4,533.7539" style="stroke:#181818;stroke-width:1.0;"/><polygon fill="#181818" points="1103.39,667.9539,1100.0533,658.6875,1099.9314,664.3431,1094.2759,664.2212,1103.39,667.9539" style="stroke:#181818;stroke-width:1.0;"/><text fill="#000000" font-family="sans-serif" font-size="13" lengthAdjust="spacing" textLength="78" x="1074" y="634.8291">schemaOrder</text><text fill="#000000" font-family="sans-serif" font-size="13" lengthAdjust="spacing" textLength="20" x="1076.7377" y="657.4295">0..*</text></g><!--link Schema to AgreementItemRef--><g id="link_Schema_AgreementItemRef"><path codeLine="177" d="M727.1326,570.9107 C715.2026,579.8907 712.6,581.7839 701,590.3339 C653.04,625.6739 637.54,629.9339 592,668.3339 C586.46,673.0039 585.313,673.8927 579.743,678.9227 " fill="none" id="Schema-AgreementItemRef" style="stroke:#181818;stroke-width:1.0;"/><polygon fill="#181818" points="736.72,563.6939,729.5207,564.1065,727.1326,570.9107,734.3318,570.4981,736.72,563.6939" style="stroke:#181818;stroke-width:1.0;"/><polygon fill="#181818" points="575.29,682.9439,584.6504,679.8807,579.0008,679.5929,579.2886,673.9433,575.29,682.9439" style="stroke:#181818;stroke-width:1.0;"/><text fill="#000000" font-family="sans-serif" font-size="13" lengthAdjust="spacing" textLength="61" x="658" y="634.8291">agreement</text><text fill="#000000" font-family="sans-serif" font-size="13" lengthAdjust="spacing" textLength="20" x="582.8919" y="672.8545">0..*</text></g><!--link Schema to SchemaSpecificationRef--><g id="link_Schema_SchemaSpecificationRef"><path codeLine="179" d="M906.9377,521.4663 C1005.3177,543.5863 1163.83,587.8039 1290,668.3339 C1298.62,673.8339 1302.4638,676.3253 1310.6438,683.0453 " fill="none" id="Schema-SchemaSpecificationRef" style="stroke:#181818;stroke-width:1.0;"/><polygon fill="#181818" points="895.23,518.8339,900.2064,524.0527,906.9377,521.4663,901.9613,516.2476,895.23,518.8339" style="stroke:#181818;stroke-width:1.0;"/><polygon fill="#181818" points="1315.28,686.8539,1310.8649,678.0502,1311.4165,683.68,1305.7866,684.2317,1315.28,686.8539" style="stroke:#181818;stroke-width:1.0;"/><text fill="#000000" font-family="sans-serif" font-size="13" lengthAdjust="spacing" textLength="120" x="1233" y="634.8291">schemaSpecification</text><text fill="#000000" font-family="sans-serif" font-size="13" lengthAdjust="spacing" textLength="22" x="1285.6844" y="676.4687">0..1</text></g><!--link Schema to RelatedGeographicLocationRefOrValue--><g id="link_Schema_RelatedGeographicLocationRefOrValue"><path codeLine="181" d="M856.2124,574.7479 C865.8524,592.6379 870.36,601.8039 879,620.3339 C888.72,641.1839 896.1232,658.4665 904.7732,679.9965 " fill="none" id="Schema-RelatedGeographicLocationRefOrValue" style="stroke:#181818;stroke-width:1.0;"/><polygon fill="#181818" points="850.52,564.1839,849.8449,571.3634,856.2124,574.7479,856.8875,567.5685,850.52,564.1839" style="stroke:#181818;stroke-width:1.0;"/><polygon fill="#181818" points="907.01,685.5639,907.3664,675.7215,905.146,680.9244,899.9431,678.704,907.01,685.5639" style="stroke:#181818;stroke-width:1.0;"/><text fill="#000000" font-family="sans-serif" font-size="13" lengthAdjust="spacing" textLength="154" x="888" y="634.8291">relatedGeographicLocation</text><text fill="#000000" font-family="sans-serif" font-size="13" lengthAdjust="spacing" textLength="20" x="883.4499" y="675.0721">0..*</text></g><!--link Schema to Characteristic--><g id="link_Schema_Characteristic"><path codeLine="183" d="M736.9601,571.1553 C722.6101,581.2653 716.83,583.6939 701,590.3339 C616.5,625.8139 585.38,596.0939 497,620.3339 C442.8,635.2039 426.17,636.2839 380,668.3339 C365.74,678.2339 356.225,686.2742 343.825,698.9542 " fill="none" id="Schema-Characteristic" style="stroke:#181818;stroke-width:1.0;"/><polygon fill="#181818" points="746.77,564.2439,739.5613,564.4297,736.9601,571.1553,744.1688,570.9696,746.77,564.2439" style="stroke:#181818;stroke-width:1.0;"/><polygon fill="#181818" points="339.63,703.2439,348.7823,699.606,343.1258,699.6692,343.0627,694.0127,339.63,703.2439" style="stroke:#181818;stroke-width:1.0;"/><text fill="#000000" font-family="sans-serif" font-size="13" lengthAdjust="spacing" textLength="126" x="498" y="634.8291">schemaCharacteristic</text><text fill="#000000" font-family="sans-serif" font-size="13" lengthAdjust="spacing" textLength="20" x="324.4387" y="692.6162">0..*</text></g><!--link Schema to SchemaRelationship--><g id="link_Schema_SchemaRelationship"><path codeLine="185" d="M777.9563,575.0628 C768.7863,592.9528 764.47,601.9639 756,620.3339 C740.8,653.3139 727.4638,685.4413 715.6038,715.1613 " fill="none" id="Schema-SchemaRelationship" style="stroke:#181818;stroke-width:1.0;"/><polygon fill="#181818" points="783.43,564.3839,777.1335,567.8988,777.9563,575.0628,784.2528,571.548,783.43,564.3839" style="stroke:#181818;stroke-width:1.0;"/><polygon fill="#181818" points="713.38,720.7339,720.4308,713.8575,715.2332,716.0901,713.0006,710.8924,713.38,720.7339" style="stroke:#181818;stroke-width:1.0;"/><text fill="#000000" font-family="sans-serif" font-size="13" lengthAdjust="spacing" textLength="117" x="757" y="634.8291">schemaRelationship</text><text fill="#000000" font-family="sans-serif" font-size="13" lengthAdjust="spacing" textLength="20" x="694.7099" y="710.3779">0..*</text></g><!--link SchemaRelationship to SchemaRefOrValue--><g id="link_SchemaRelationship_SchemaRefOrValue"><path codeLine="187" d="M681.3416,839.5874 C677.6916,869.8174 678.38,896.1139 690,928.0439 C693.74,938.3139 695.7136,943.2289 701.7336,952.7089 " fill="none" id="SchemaRelationship-SchemaRefOrValue" style="stroke:#181818;stroke-width:1.0;"/><polygon fill="#181818" points="682.78,827.6739,678.0896,833.1512,681.3416,839.5874,686.0319,834.1102,682.78,827.6739" style="stroke:#181818;stroke-width:1.0;"/><polygon fill="#181818" points="704.95,957.7739,703.5021,948.0321,702.2697,953.5531,696.7487,952.3206,704.95,957.7739" style="stroke:#181818;stroke-width:1.0;"/><text fill="#000000" font-family="sans-serif" font-size="13" lengthAdjust="spacing" textLength="46" x="691" y="924.5391">schema</text><text fill="#000000" font-family="sans-serif" font-size="13" lengthAdjust="spacing" textLength="22" x="674.9251" y="947.1997">0..1</text></g><!--link SchemaRelationship to SchemaRefOrValue--><g id="link_SchemaRelationship_SchemaRefOrValue"><path codeLine="189" d="M714.7675,833.1228 C723.9575,858.0228 732.8,882.6439 742,910.0439 C747.15,925.3939 748.8618,930.4167 753.7918,946.2467 " fill="none" id="SchemaRelationship-SchemaRefOrValue-1" style="stroke:#181818;stroke-width:1.0;"/><polygon fill="#181818" points="712.69,827.4939,712.0536,837.3222,714.4212,832.1847,719.5588,834.5523,712.69,827.4939" style="stroke:#181818;stroke-width:1.0;"/><polygon fill="#181818" points="757.36,957.7039,759.395,950.7859,753.7918,946.2467,751.7568,953.1647,757.36,957.7039" style="stroke:#181818;stroke-width:1.0;"/><text fill="#000000" font-family="sans-serif" font-size="13" lengthAdjust="spacing" textLength="117" x="749" y="924.5391">schemaRelationship</text><text fill="#000000" font-family="sans-serif" font-size="13" lengthAdjust="spacing" textLength="20" x="693.9315" y="848.8665">0..*</text></g><!--link RelatedSchemaOrderItem to SchemaRefOrValue--><g id="link_RelatedSchemaOrderItem_SchemaRefOrValue"><path codeLine="191" d="M1099.8533,884.7221 C1082.8733,902.0721 1068.42,914.5039 1049,928.0439 C994.64,965.9239 936.4935,989.8275 881.8635,1007.7275 " fill="none" id="RelatedSchemaOrderItem-SchemaRefOrValue" style="stroke:#181818;stroke-width:1.0;"/><polygon fill="#181818" points="1104.05,880.4339,1094.8962,884.0683,1100.5528,884.0074,1100.6137,889.6639,1104.05,880.4339" style="stroke:#181818;stroke-width:1.0;"/><polygon fill="#181818" points="870.46,1011.4639,877.4072,1013.3969,881.8635,1007.7275,874.9163,1005.7946,870.46,1011.4639" style="stroke:#181818;stroke-width:1.0;"/><text fill="#000000" font-family="sans-serif" font-size="13" lengthAdjust="spacing" textLength="78" x="1073" y="924.5391">schemaOrder</text><text fill="#000000" font-family="sans-serif" font-size="13" lengthAdjust="spacing" textLength="20" x="1077.7377" y="901.6169">0..*</text></g><!--link AgreementItemRef to SchemaRefOrValue--><g id="link_AgreementItemRef_SchemaRefOrValue"><path codeLine="193" d="M562.5929,874.6339 C580.0129,894.7939 595.36,910.6639 615,928.0439 C638.33,948.6839 655.8371,961.7674 681.7471,978.4874 " fill="none" id="AgreementItemRef-SchemaRefOrValue" style="stroke:#181818;stroke-width:1.0;"/><polygon fill="#181818" points="558.67,870.0939,561.5277,879.5191,561.9391,873.8772,567.581,874.2886,558.67,870.0939" style="stroke:#181818;stroke-width:1.0;"/><polygon fill="#181818" points="691.83,984.9939,688.9574,978.3797,681.7471,978.4874,684.6197,985.1016,691.83,984.9939" style="stroke:#181818;stroke-width:1.0;"/><text fill="#000000" font-family="sans-serif" font-size="13" lengthAdjust="spacing" textLength="61" x="616" y="924.5391">agreement</text><text fill="#000000" font-family="sans-serif" font-size="13" lengthAdjust="spacing" textLength="20" x="543.4682" y="891.5582">0..*</text></g><!--link RelatedGeographicLocationRefOrValue to SchemaRefOrValue--><g id="link_RelatedGeographicLocationRefOrValue_SchemaRefOrValue"><path codeLine="195" d="M905.8935,868.3575 C896.4635,890.3275 887.6,907.8639 875,928.0439 C868.73,938.0739 868.9038,938.6412 861.3738,948.3512 " fill="none" id="RelatedGeographicLocationRefOrValue-SchemaRefOrValue" style="stroke:#181818;stroke-width:1.0;"/><polygon fill="#181818" points="908.26,862.8439,901.0345,869.5366,906.2879,867.4386,908.3859,872.692,908.26,862.8439" style="stroke:#181818;stroke-width:1.0;"/><polygon fill="#181818" points="854.02,957.8339,860.8578,955.5438,861.3738,948.3512,854.536,950.6413,854.02,957.8339" style="stroke:#181818;stroke-width:1.0;"/><text fill="#000000" font-family="sans-serif" font-size="13" lengthAdjust="spacing" textLength="154" x="886" y="924.5391">relatedGeographicLocation</text><text fill="#000000" font-family="sans-serif" font-size="13" lengthAdjust="spacing" textLength="20" x="884.9338" y="884.0555">0..*</text></g><!--link SchemaSpecificationRef to SchemaRefOrValue--><g id="link_SchemaSpecificationRef_SchemaRefOrValue"><path codeLine="197" d="M1310.6588,865.3465 C1302.4688,872.0565 1298.63,874.5439 1290,880.0439 C1157.61,964.3039 988.828,1003.5794 882.148,1021.8394 " fill="none" id="SchemaSpecificationRef-SchemaRefOrValue" style="stroke:#181818;stroke-width:1.0;"/><polygon fill="#181818" points="1315.3,861.5439,1305.8032,864.1536,1311.4323,864.7127,1310.8732,870.3419,1315.3,861.5439" style="stroke:#181818;stroke-width:1.0;"/><polygon fill="#181818" points="870.32,1023.8639,876.9088,1026.7943,882.148,1021.8394,875.5591,1018.909,870.32,1023.8639" style="stroke:#181818;stroke-width:1.0;"/><text fill="#000000" font-family="sans-serif" font-size="13" lengthAdjust="spacing" textLength="120" x="1229" y="924.5391">schemaSpecification</text><text fill="#000000" font-family="sans-serif" font-size="13" lengthAdjust="spacing" textLength="22" x="1285.9927" y="882.6517">0..1</text></g><!--link Characteristic to SchemaRefOrValue--><g id="link_Characteristic_SchemaRefOrValue"><path codeLine="199" d="M346.1857,849.3825 C358.1357,861.7125 366.9,869.6239 380,880.0439 C472.86,953.8639 593.1044,993.389 679.9144,1014.969 " fill="none" id="Characteristic-SchemaRefOrValue" style="stroke:#181818;stroke-width:1.0;"/><polygon fill="#181818" points="342.01,845.0739,345.4013,854.3205,345.4898,848.6644,351.1459,848.7529,342.01,845.0739" style="stroke:#181818;stroke-width:1.0;"/><polygon fill="#181818" points="691.56,1017.8639,686.7022,1012.5346,679.9144,1014.969,684.7722,1020.2983,691.56,1017.8639" style="stroke:#181818;stroke-width:1.0;"/><text fill="#000000" font-family="sans-serif" font-size="13" lengthAdjust="spacing" textLength="126" x="449" y="924.5391">schemaCharacteristic</text><text fill="#000000" font-family="sans-serif" font-size="13" lengthAdjust="spacing" textLength="20" x="326.8344" y="866.3518">0..*</text></g><!--link ProductActionType to SchemaOrder--><!--link SchemaOrder to RelatedParty--><g id="link_SchemaOrder_RelatedParty"><path codeLine="203" d="M272,329.3939 C272,360.4839 272,376.8439 272,407.3539 " fill="none" id="SchemaOrder-RelatedParty" style="stroke:#181818;stroke-width:1.0;"/><polygon fill="#181818" points="272,317.3939,268,323.3939,272,329.3939,276,323.3939,272,317.3939" style="stroke:#181818;stroke-width:1.0;"/><polygon fill="#181818" points="272,413.3539,276,404.3539,272,408.3539,268,404.3539,272,413.3539" style="stroke:#181818;stroke-width:1.0;"/><text fill="#000000" font-family="sans-serif" font-size="13" lengthAdjust="spacing" textLength="70" x="273" y="380.3491">relatedParty</text><text fill="#000000" font-family="sans-serif" font-size="13" lengthAdjust="spacing" textLength="20" x="251.1719" y="402.8522">0..*</text></g><!--link SchemaOrderItem to OrderItemRelationship--><g id="link_SchemaOrderItem_OrderItemRelationship"><path codeLine="205" d="M628.889,301.6423 C611.249,323.3823 602.31,339.3239 593,365.8539 C584.79,389.2539 583.8922,410.3679 586.4322,434.1279 " fill="none" id="SchemaOrderItem-OrderItemRelationship" style="stroke:#181818;stroke-width:1.0;"/><polygon fill="#181818" points="636.45,292.3239,629.5634,294.4628,628.889,301.6423,635.7756,299.5034,636.45,292.3239" style="stroke:#181818;stroke-width:1.0;"/><polygon fill="#181818" points="587.07,440.0939,590.0907,430.7197,586.5385,435.1223,582.136,431.5701,587.07,440.0939" style="stroke:#181818;stroke-width:1.0;"/><text fill="#000000" font-family="sans-serif" font-size="13" lengthAdjust="spacing" textLength="174" x="594" y="380.3491">schemaOrderItemRelationship</text><text fill="#000000" font-family="sans-serif" font-size="13" lengthAdjust="spacing" textLength="20" x="564.4187" y="429.5159">0..*</text></g><!--link Characteristic to CharacteristicRelationship--><g id="link_Characteristic_CharacteristicRelationship"><path codeLine="207" d="M243.9839,856.0772 C235.5439,876.5372 232.28,888.2039 228,910.0439 C223.88,931.0439 223.0685,948.3996 223.9785,969.2596 " fill="none" id="Characteristic-CharacteristicRelationship" style="stroke:#181818;stroke-width:1.0;"/><polygon fill="#181818" points="248.56,844.9839,242.5742,849.0052,243.9839,856.0772,249.9697,852.0559,248.56,844.9839" style="stroke:#181818;stroke-width:1.0;"/><polygon fill="#181818" points="224.24,975.2539,227.844,966.0882,224.0221,970.2587,219.8516,966.4368,224.24,975.2539" style="stroke:#181818;stroke-width:1.0;"/><text fill="#000000" font-family="sans-serif" font-size="13" lengthAdjust="spacing" textLength="149" x="229" y="924.5391">characteristicRelationship</text><text fill="#000000" font-family="sans-serif" font-size="13" lengthAdjust="spacing" textLength="20" x="202.3021" y="964.6504">0..*</text></g><rect fill="#DDDDDD" height="27.6094" id="_legend" rx="7.5" ry="7.5" style="stroke:#000000;stroke-width:1.0;" width="123" x="677.5" y="1134.9189"/><a href="index.htm" target="_top" title="index.htm" xlink:actuate="onRequest" xlink:href="index.htm" xlink:show="new" xlink:title="index.htm" xlink:type="simple"><text fill="#0000FF" font-family="sans-serif" font-size="14" lengthAdjust="spacing" text-decoration="underline" textLength="113" x="682.5" y="1154.4521">Go to API Catalog</text></a></g></svg>