<?xml version="1.0" encoding="us-ascii" standalone="no"?><svg xmlns="http://www.w3.org/2000/svg" xmlns:xlink="http://www.w3.org/1999/xlink" contentStyleType="text/css" height="1016px" preserveAspectRatio="none" style="width:980px;height:1016px;background:#FFFFFF;" version="1.1" viewBox="0 0 980 1016" width="980px" zoomAndPan="magnify"><defs/><g><text fill="#888888" font-family="sans-serif" font-size="10" lengthAdjust="spacing" textLength="148" x="818.6428" y="10.3809">Diagram generated at 12/22/23</text><text fill="#000000" font-family="sans-serif" font-size="14" font-weight="bold" lengthAdjust="spacing" textLength="192" x="387.3214" y="38.1113">TMF Schema Class Diagram</text><!--class TransferBalance--><g id="elem_TransferBalance"><rect codeLine="20" fill="#FFFFFF" height="332.4531" id="TransferBalance" rx="2.5" ry="2.5" style="stroke:#181818;stroke-width:0.5;" width="227" x="117.1428" y="346.3675"/><text fill="#000000" font-family="sans-serif" font-size="12" font-style="italic" lengthAdjust="spacing" textLength="41" x="210.1428" y="363.8245">&#171;Pivot&#187;</text><text fill="#000000" font-family="sans-serif" font-size="14" lengthAdjust="spacing" textLength="105" x="178.1428" y="380.9945">TransferBalance</text><text fill="#000000" font-family="sans-serif" font-size="14" lengthAdjust="spacing" textLength="5" x="152.1428" y="398.6038">(</text><text fill="#000000" font-family="sans-serif" font-size="9" font-style="italic" lengthAdjust="spacing" textLength="17" x="157.1428" y="399.7025">from</text><a href="TMF654.svg" target="_top" title="TMF654.svg" xlink:actuate="onRequest" xlink:href="TMF654.svg" xlink:show="new" xlink:title="TMF654.svg" xlink:type="simple"><text fill="#0000FF" font-family="sans-serif" font-size="9" font-style="italic" lengthAdjust="spacing" text-decoration="underline" textLength="100" x="177.1428" y="399.7025">TMF654-PrepayBalance</text></a><text fill="#000000" font-family="sans-serif" font-size="9" font-style="italic" lengthAdjust="spacing" textLength="26" x="280.1428" y="399.7025">v4.1.0</text><text fill="#000000" font-family="sans-serif" font-size="9" lengthAdjust="spacing" textLength="3" x="306.1428" y="399.7025">)</text><line style="stroke:#181818;stroke-width:0.5;" x1="118.1428" x2="343.1428" y1="406.68" y2="406.68"/><text fill="#000000" font-family="sans-serif" font-size="14" lengthAdjust="spacing" textLength="112" x="123.1428" y="425.2132">amount : Quantity</text><text fill="#000000" font-family="sans-serif" font-size="14" lengthAdjust="spacing" textLength="180" x="123.1428" y="442.8226">confirmationDate : DateTime</text><text fill="#000000" font-family="sans-serif" font-size="14" lengthAdjust="spacing" textLength="116" x="123.1428" y="460.432">costOwner : String</text><text fill="#000000" font-family="sans-serif" font-size="14" lengthAdjust="spacing" textLength="118" x="123.1428" y="478.0413">description : String</text><text fill="#000000" font-family="sans-serif" font-size="14" lengthAdjust="spacing" textLength="54" x="123.1428" y="495.6507">href : Uri</text><text fill="#000000" font-family="sans-serif" font-size="14" lengthAdjust="spacing" textLength="60" x="123.1428" y="513.2601">id : String</text><text fill="#000000" font-family="sans-serif" font-size="14" lengthAdjust="spacing" textLength="93" x="123.1428" y="530.8695">reason : String</text><text fill="#000000" font-family="sans-serif" font-size="14" lengthAdjust="spacing" textLength="215" x="123.1428" y="548.4788">receiverBucketUsageType : String</text><text fill="#000000" font-family="sans-serif" font-size="14" lengthAdjust="spacing" textLength="167" x="123.1428" y="566.0882">requestedDate : DateTime</text><text fill="#000000" font-family="sans-serif" font-size="14" lengthAdjust="spacing" textLength="87" x="123.1428" y="583.6976">status : String</text><text fill="#000000" font-family="sans-serif" font-size="14" lengthAdjust="spacing" textLength="143" x="123.1428" y="601.307">transferCost : Quantity</text><text fill="#000000" font-family="sans-serif" font-size="14" lengthAdjust="spacing" textLength="120" x="123.1428" y="618.9163">usageType : String</text><text fill="#000000" font-family="sans-serif" font-size="14" lengthAdjust="spacing" textLength="126" x="123.1428" y="636.5257">@baseType : String</text><text fill="#000000" font-family="sans-serif" font-size="14" lengthAdjust="spacing" textLength="146" x="123.1428" y="654.1351">@schemaLocation : Uri</text><text fill="#000000" font-family="sans-serif" font-size="14" lengthAdjust="spacing" textLength="90" x="123.1428" y="671.7445">@type : String</text></g><!--class BucketStatusExampleType--><g id="elem_BucketStatusExampleType"><rect codeLine="38" fill="#E6F5F7" height="88.4375" id="BucketStatusExampleType" rx="2.5" ry="2.5" style="stroke:#181818;stroke-width:0.5;" width="174" x="460.6428" y="119.5575"/><text fill="#000000" font-family="sans-serif" font-size="14" lengthAdjust="spacing" textLength="168" x="463.6428" y="139.0907">BucketStatusExampleType</text><line style="stroke:#181818;stroke-width:0.5;" x1="461.6428" x2="633.6428" y1="147.1669" y2="147.1669"/><text fill="#000000" font-family="sans-serif" font-size="14" lengthAdjust="spacing" textLength="37" x="466.6428" y="165.7001">active</text><text fill="#000000" font-family="sans-serif" font-size="14" lengthAdjust="spacing" textLength="70" x="466.6428" y="183.3095">suspended</text><text fill="#000000" font-family="sans-serif" font-size="14" lengthAdjust="spacing" textLength="46" x="466.6428" y="200.9188">expired</text></g><!--class ChannelRef--><g id="elem_ChannelRef"><rect codeLine="44" fill="#FFFFE0" height="173.9688" id="ChannelRef" rx="2.5" ry="2.5" style="stroke:#181818;stroke-width:0.5;" width="158" x="425.6428" y="425.6175"/><text fill="#000000" font-family="sans-serif" font-size="12" font-style="italic" lengthAdjust="spacing" textLength="33" x="488.1428" y="443.0745">&#171;Ref&#187;</text><a href="Channel.svg" target="_top" title="Channel.svg" xlink:actuate="onRequest" xlink:href="Channel.svg" xlink:show="new" xlink:title="Channel.svg" xlink:type="simple"><text fill="#0000FF" font-family="sans-serif" font-size="14" lengthAdjust="spacing" text-decoration="underline" textLength="53" x="467.1428" y="460.2445">Channel</text></a><text fill="#000000" font-family="sans-serif" font-size="14" lengthAdjust="spacing" textLength="22" x="520.1428" y="460.2445">Ref</text><line style="stroke:#181818;stroke-width:0.5;" x1="426.6428" x2="582.6428" y1="468.3206" y2="468.3206"/><text fill="#000000" font-family="sans-serif" font-size="14" lengthAdjust="spacing" textLength="54" x="431.6428" y="486.8538">href : Uri</text><text fill="#000000" font-family="sans-serif" font-size="14" lengthAdjust="spacing" textLength="60" x="431.6428" y="504.4632">id : String</text><text fill="#000000" font-family="sans-serif" font-size="14" lengthAdjust="spacing" textLength="84" x="431.6428" y="522.0726">name : String</text><text fill="#000000" font-family="sans-serif" font-size="14" lengthAdjust="spacing" textLength="126" x="431.6428" y="539.682">@baseType : String</text><text fill="#000000" font-family="sans-serif" font-size="14" lengthAdjust="spacing" textLength="146" x="431.6428" y="557.2913">@referredType : String</text><text fill="#000000" font-family="sans-serif" font-size="14" lengthAdjust="spacing" textLength="146" x="431.6428" y="574.9007">@schemaLocation : Uri</text><text fill="#000000" font-family="sans-serif" font-size="14" lengthAdjust="spacing" textLength="90" x="431.6428" y="592.5101">@type : String</text></g><!--class LogicalResourceRef--><g id="elem_LogicalResourceRef"><rect codeLine="54" fill="#FFFFE0" height="191.5781" id="LogicalResourceRef" rx="2.5" ry="2.5" style="stroke:#181818;stroke-width:0.5;" width="158" x="307.6428" y="758.0775"/><text fill="#000000" font-family="sans-serif" font-size="12" font-style="italic" lengthAdjust="spacing" textLength="33" x="370.1428" y="775.5345">&#171;Ref&#187;</text><a href="LogicalResource.svg" target="_top" title="LogicalResource.svg" xlink:actuate="onRequest" xlink:href="LogicalResource.svg" xlink:show="new" xlink:title="LogicalResource.svg" xlink:type="simple"><text fill="#0000FF" font-family="sans-serif" font-size="14" lengthAdjust="spacing" text-decoration="underline" textLength="106" x="322.6428" y="792.7045">LogicalResource</text></a><text fill="#000000" font-family="sans-serif" font-size="14" lengthAdjust="spacing" textLength="22" x="428.6428" y="792.7045">Ref</text><line style="stroke:#181818;stroke-width:0.5;" x1="308.6428" x2="464.6428" y1="800.7806" y2="800.7806"/><text fill="#000000" font-family="sans-serif" font-size="14" lengthAdjust="spacing" textLength="54" x="313.6428" y="819.3138">href : Uri</text><text fill="#000000" font-family="sans-serif" font-size="14" lengthAdjust="spacing" textLength="60" x="313.6428" y="836.9232">id : String</text><text fill="#000000" font-family="sans-serif" font-size="14" lengthAdjust="spacing" textLength="84" x="313.6428" y="854.5326">name : String</text><text fill="#000000" font-family="sans-serif" font-size="14" lengthAdjust="spacing" textLength="83" x="313.6428" y="872.142">value : String</text><text fill="#000000" font-family="sans-serif" font-size="14" lengthAdjust="spacing" textLength="126" x="313.6428" y="889.7513">@baseType : String</text><text fill="#000000" font-family="sans-serif" font-size="14" lengthAdjust="spacing" textLength="146" x="313.6428" y="907.3607">@referredType : String</text><text fill="#000000" font-family="sans-serif" font-size="14" lengthAdjust="spacing" textLength="146" x="313.6428" y="924.9701">@schemaLocation : Uri</text><text fill="#000000" font-family="sans-serif" font-size="14" lengthAdjust="spacing" textLength="90" x="313.6428" y="942.5795">@type : String</text></g><!--class BucketRef--><g id="elem_BucketRef"><rect codeLine="65" fill="#FFFFE0" height="191.5781" id="BucketRef" rx="2.5" ry="2.5" style="stroke:#181818;stroke-width:0.5;" width="158" x="27.6428" y="67.9875"/><text fill="#000000" font-family="sans-serif" font-size="12" font-style="italic" lengthAdjust="spacing" textLength="33" x="90.1428" y="85.4445">&#171;Ref&#187;</text><a href="Bucket.svg" target="_top" title="Bucket.svg" xlink:actuate="onRequest" xlink:href="Bucket.svg" xlink:show="new" xlink:title="Bucket.svg" xlink:type="simple"><text fill="#0000FF" font-family="sans-serif" font-size="14" lengthAdjust="spacing" text-decoration="underline" textLength="43" x="74.1428" y="102.6145">Bucket</text></a><text fill="#000000" font-family="sans-serif" font-size="14" lengthAdjust="spacing" textLength="22" x="117.1428" y="102.6145">Ref</text><line style="stroke:#181818;stroke-width:0.5;" x1="28.6428" x2="184.6428" y1="110.6906" y2="110.6906"/><text fill="#000000" font-family="sans-serif" font-size="14" lengthAdjust="spacing" textLength="54" x="33.6428" y="129.2238">href : Uri</text><text fill="#000000" font-family="sans-serif" font-size="14" lengthAdjust="spacing" textLength="60" x="33.6428" y="146.8332">id : String</text><text fill="#000000" font-family="sans-serif" font-size="14" lengthAdjust="spacing" textLength="84" x="33.6428" y="164.4426">name : String</text><text fill="#000000" font-family="sans-serif" font-size="14" lengthAdjust="spacing" textLength="120" x="33.6428" y="182.052">usageType : String</text><text fill="#000000" font-family="sans-serif" font-size="14" lengthAdjust="spacing" textLength="126" x="33.6428" y="199.6613">@baseType : String</text><text fill="#000000" font-family="sans-serif" font-size="14" lengthAdjust="spacing" textLength="146" x="33.6428" y="217.2707">@referredType : String</text><text fill="#000000" font-family="sans-serif" font-size="14" lengthAdjust="spacing" textLength="146" x="33.6428" y="234.8801">@schemaLocation : Uri</text><text fill="#000000" font-family="sans-serif" font-size="14" lengthAdjust="spacing" textLength="90" x="33.6428" y="252.4895">@type : String</text></g><!--class PartyAccountRef--><g id="elem_PartyAccountRef"><rect codeLine="76" fill="#FFFFE0" height="209.1875" id="PartyAccountRef" rx="2.5" ry="2.5" style="stroke:#181818;stroke-width:0.5;" width="158" x="267.6428" y="59.1875"/><text fill="#000000" font-family="sans-serif" font-size="12" font-style="italic" lengthAdjust="spacing" textLength="33" x="330.1428" y="76.6445">&#171;Ref&#187;</text><a href="PartyAccount.svg" target="_top" title="PartyAccount.svg" xlink:actuate="onRequest" xlink:href="PartyAccount.svg" xlink:show="new" xlink:title="PartyAccount.svg" xlink:type="simple"><text fill="#0000FF" font-family="sans-serif" font-size="14" lengthAdjust="spacing" text-decoration="underline" textLength="84" x="293.6428" y="93.8145">PartyAccount</text></a><text fill="#000000" font-family="sans-serif" font-size="14" lengthAdjust="spacing" textLength="22" x="377.6428" y="93.8145">Ref</text><line style="stroke:#181818;stroke-width:0.5;" x1="268.6428" x2="424.6428" y1="101.8906" y2="101.8906"/><text fill="#000000" font-family="sans-serif" font-size="14" lengthAdjust="spacing" textLength="118" x="273.6428" y="120.4238">description : String</text><text fill="#000000" font-family="sans-serif" font-size="14" lengthAdjust="spacing" textLength="74" x="273.6428" y="138.0332">href : String</text><text fill="#000000" font-family="sans-serif" font-size="14" lengthAdjust="spacing" textLength="60" x="273.6428" y="155.6426">id : String</text><text fill="#000000" font-family="sans-serif" font-size="14" lengthAdjust="spacing" textLength="84" x="273.6428" y="173.252">name : String</text><text fill="#000000" font-family="sans-serif" font-size="14" lengthAdjust="spacing" textLength="87" x="273.6428" y="190.8613">status : String</text><text fill="#000000" font-family="sans-serif" font-size="14" lengthAdjust="spacing" textLength="126" x="273.6428" y="208.4707">@baseType : String</text><text fill="#000000" font-family="sans-serif" font-size="14" lengthAdjust="spacing" textLength="146" x="273.6428" y="226.0801">@referredType : String</text><text fill="#000000" font-family="sans-serif" font-size="14" lengthAdjust="spacing" textLength="146" x="273.6428" y="243.6895">@schemaLocation : Uri</text><text fill="#000000" font-family="sans-serif" font-size="14" lengthAdjust="spacing" textLength="90" x="273.6428" y="261.2988">@type : String</text></g><!--class ImpactedBucket--><g id="elem_ImpactedBucket"><rect codeLine="88" fill="#FCF2E3" height="194.0938" id="ImpactedBucket" rx="2.5" ry="2.5" style="stroke:#181818;stroke-width:0.5;" width="192" x="562.6428" y="756.8275"/><text fill="#000000" font-family="sans-serif" font-size="14" lengthAdjust="spacing" textLength="100" x="608.6428" y="776.3607">ImpactedBucket</text><line style="stroke:#181818;stroke-width:0.5;" x1="563.6428" x2="753.6428" y1="784.4369" y2="784.4369"/><text fill="#000000" font-family="sans-serif" font-size="14" lengthAdjust="spacing" textLength="142" x="568.6428" y="802.9701">amountAfter : Quantity</text><text fill="#000000" font-family="sans-serif" font-size="14" lengthAdjust="spacing" textLength="154" x="568.6428" y="820.5795">amountBefore : Quantity</text><text fill="#000000" font-family="sans-serif" font-size="14" lengthAdjust="spacing" textLength="180" x="568.6428" y="838.1888">confirmationDate : DateTime</text><text fill="#000000" font-family="sans-serif" font-size="14" lengthAdjust="spacing" textLength="118" x="568.6428" y="855.7982">description : String</text><text fill="#000000" font-family="sans-serif" font-size="14" lengthAdjust="spacing" textLength="84" x="568.6428" y="873.4076">name : String</text><text fill="#000000" font-family="sans-serif" font-size="14" lengthAdjust="spacing" textLength="167" x="568.6428" y="891.017">requestedDate : DateTime</text><text fill="#000000" font-family="sans-serif" font-size="14" lengthAdjust="spacing" textLength="126" x="568.6428" y="908.6263">@baseType : String</text><text fill="#000000" font-family="sans-serif" font-size="14" lengthAdjust="spacing" textLength="146" x="568.6428" y="926.2357">@schemaLocation : Uri</text><text fill="#000000" font-family="sans-serif" font-size="14" lengthAdjust="spacing" textLength="90" x="568.6428" y="943.8451">@type : String</text></g><!--class ImpactedBucketItem--><g id="elem_ImpactedBucketItem"><rect codeLine="100" fill="#FCF2E3" height="176.4844" id="ImpactedBucketItem" rx="2.5" ry="2.5" style="stroke:#181818;stroke-width:0.5;" width="158" x="815.6428" y="765.6275"/><text fill="#000000" font-family="sans-serif" font-size="14" lengthAdjust="spacing" textLength="126" x="831.6428" y="785.1607">ImpactedBucketItem</text><line style="stroke:#181818;stroke-width:0.5;" x1="816.6428" x2="972.6428" y1="793.2369" y2="793.2369"/><text fill="#000000" font-family="sans-serif" font-size="14" lengthAdjust="spacing" textLength="112" x="821.6428" y="811.7701">amount : Quantity</text><text fill="#000000" font-family="sans-serif" font-size="14" lengthAdjust="spacing" textLength="118" x="821.6428" y="829.3795">description : String</text><text fill="#000000" font-family="sans-serif" font-size="14" lengthAdjust="spacing" textLength="107" x="821.6428" y="846.9888">itemType : String</text><text fill="#000000" font-family="sans-serif" font-size="14" lengthAdjust="spacing" textLength="84" x="821.6428" y="864.5982">name : String</text><text fill="#000000" font-family="sans-serif" font-size="14" lengthAdjust="spacing" textLength="93" x="821.6428" y="882.2076">reason : String</text><text fill="#000000" font-family="sans-serif" font-size="14" lengthAdjust="spacing" textLength="126" x="821.6428" y="899.817">@baseType : String</text><text fill="#000000" font-family="sans-serif" font-size="14" lengthAdjust="spacing" textLength="146" x="821.6428" y="917.4263">@schemaLocation : Uri</text><text fill="#000000" font-family="sans-serif" font-size="14" lengthAdjust="spacing" textLength="90" x="821.6428" y="935.0357">@type : String</text></g><!--class ProductRef--><g id="elem_ProductRef"><rect codeLine="111" fill="#FFFFE0" height="173.9688" id="ProductRef" rx="2.5" ry="2.5" style="stroke:#181818;stroke-width:0.5;" width="158" x="618.6428" y="425.6175"/><text fill="#000000" font-family="sans-serif" font-size="12" font-style="italic" lengthAdjust="spacing" textLength="33" x="681.1428" y="443.0745">&#171;Ref&#187;</text><a href="Product.svg" target="_top" title="Product.svg" xlink:actuate="onRequest" xlink:href="Product.svg" xlink:show="new" xlink:title="Product.svg" xlink:type="simple"><text fill="#0000FF" font-family="sans-serif" font-size="14" lengthAdjust="spacing" text-decoration="underline" textLength="49" x="662.1428" y="460.2445">Product</text></a><text fill="#000000" font-family="sans-serif" font-size="14" lengthAdjust="spacing" textLength="22" x="711.1428" y="460.2445">Ref</text><line style="stroke:#181818;stroke-width:0.5;" x1="619.6428" x2="775.6428" y1="468.3206" y2="468.3206"/><text fill="#000000" font-family="sans-serif" font-size="14" lengthAdjust="spacing" textLength="54" x="624.6428" y="486.8538">href : Uri</text><text fill="#000000" font-family="sans-serif" font-size="14" lengthAdjust="spacing" textLength="60" x="624.6428" y="504.4632">id : String</text><text fill="#000000" font-family="sans-serif" font-size="14" lengthAdjust="spacing" textLength="84" x="624.6428" y="522.0726">name : String</text><text fill="#000000" font-family="sans-serif" font-size="14" lengthAdjust="spacing" textLength="126" x="624.6428" y="539.682">@baseType : String</text><text fill="#000000" font-family="sans-serif" font-size="14" lengthAdjust="spacing" textLength="146" x="624.6428" y="557.2913">@referredType : String</text><text fill="#000000" font-family="sans-serif" font-size="14" lengthAdjust="spacing" textLength="146" x="624.6428" y="574.9007">@schemaLocation : Uri</text><text fill="#000000" font-family="sans-serif" font-size="14" lengthAdjust="spacing" textLength="90" x="624.6428" y="592.5101">@type : String</text></g><!--class RelatedParty--><g id="elem_RelatedParty"><rect codeLine="121" fill="#FCF2E3" height="176.4844" id="RelatedParty" rx="2.5" ry="2.5" style="stroke:#181818;stroke-width:0.5;" width="158" x="107.6428" y="765.6275"/><text fill="#000000" font-family="sans-serif" font-size="14" lengthAdjust="spacing" textLength="82" x="145.6428" y="785.1607">RelatedParty</text><line style="stroke:#181818;stroke-width:0.5;" x1="108.6428" x2="264.6428" y1="793.2369" y2="793.2369"/><text fill="#000000" font-family="sans-serif" font-size="14" lengthAdjust="spacing" textLength="54" x="113.6428" y="811.7701">href : Uri</text><text fill="#000000" font-family="sans-serif" font-size="14" lengthAdjust="spacing" textLength="60" x="113.6428" y="829.3795">id : String</text><text fill="#000000" font-family="sans-serif" font-size="14" lengthAdjust="spacing" textLength="84" x="113.6428" y="846.9888">name : String</text><text fill="#000000" font-family="sans-serif" font-size="14" lengthAdjust="spacing" textLength="73" x="113.6428" y="864.5982">role : String</text><text fill="#000000" font-family="sans-serif" font-size="14" lengthAdjust="spacing" textLength="126" x="113.6428" y="882.2076">@baseType : String</text><text fill="#000000" font-family="sans-serif" font-size="14" lengthAdjust="spacing" textLength="146" x="113.6428" y="899.817">@referredType : String</text><text fill="#000000" font-family="sans-serif" font-size="14" lengthAdjust="spacing" textLength="146" x="113.6428" y="917.4263">@schemaLocation : Uri</text><text fill="#000000" font-family="sans-serif" font-size="14" lengthAdjust="spacing" textLength="90" x="113.6428" y="935.0357">@type : String</text></g><!--link BucketRef to TransferBalance--><g id="link_BucketRef_TransferBalance"><path codeLine="132" d="M119.6743,265.9317 C123.2743,284.8517 126.7628,298.4875 132.6428,316.3675 C135.8628,326.1875 135.0735,324.9788 139.0235,334.8988 " fill="none" id="BucketRef-TransferBalance" style="stroke:#181818;stroke-width:1.0;"/><polygon fill="#181818" points="118.5528,260.0375,116.3056,269.6266,119.4874,264.9494,124.1646,268.1312,118.5528,260.0375" style="stroke:#181818;stroke-width:1.0;"/><polygon fill="#181818" points="143.4628,346.0475,144.9594,338.9934,139.0235,334.8988,137.5269,341.9529,143.4628,346.0475" style="stroke:#181818;stroke-width:1.0;"/><text fill="#000000" font-family="sans-serif" font-size="13" lengthAdjust="spacing" textLength="39" x="133.6428" y="312.8626">bucket</text><text fill="#000000" font-family="sans-serif" font-size="13" lengthAdjust="spacing" textLength="22" x="96.6196" y="281.2022">0..1</text></g><!--link BucketRef to TransferBalance--><g id="link_BucketRef_TransferBalance"><path codeLine="134" d="M32.1397,265.5568 C25.5997,284.1268 25.9428,297.8975 33.6428,316.3675 C51.4228,359.0375 74.7943,388.9759 108.0343,419.9559 " fill="none" id="BucketRef-TransferBalance-1" style="stroke:#181818;stroke-width:1.0;"/><polygon fill="#181818" points="34.1328,259.8975,27.3703,267.0577,32.4719,264.6136,34.916,269.7152,34.1328,259.8975" style="stroke:#181818;stroke-width:1.0;"/><polygon fill="#181818" points="116.8128,428.1375,115.1507,421.1205,108.0343,419.9559,109.6963,426.9728,116.8128,428.1375" style="stroke:#181818;stroke-width:1.0;"/><text fill="#000000" font-family="sans-serif" font-size="13" lengthAdjust="spacing" textLength="85" x="34.6428" y="312.8626">receiverBucket</text><text fill="#000000" font-family="sans-serif" font-size="13" lengthAdjust="spacing" textLength="22" x="6" y="281.0519">0..1</text></g><!--link TransferBalance to ImpactedBucket--><g id="link_TransferBalance_ImpactedBucket"><path codeLine="136" d="M353.7239,644.3174 C373.7239,660.5774 386.0928,667.8175 408.6428,678.8275 C483.8928,715.5475 528.3028,657.7275 594.6428,708.8275 C610.5728,721.0975 619.9424,732.8345 629.0424,750.9745 " fill="none" id="TransferBalance-ImpactedBucket" style="stroke:#181818;stroke-width:1.0;"/><polygon fill="#181818" points="344.4128,636.7475,346.545,643.6362,353.7239,644.3174,351.5916,637.4288,344.4128,636.7475" style="stroke:#181818;stroke-width:1.0;"/><polygon fill="#181818" points="631.7328,756.3375,631.2725,746.4994,629.4908,751.8683,624.1219,750.0866,631.7328,756.3375" style="stroke:#181818;stroke-width:1.0;"/><text fill="#000000" font-family="sans-serif" font-size="13" lengthAdjust="spacing" textLength="94" x="613.6428" y="723.3226">impactedBucket</text><text fill="#000000" font-family="sans-serif" font-size="13" lengthAdjust="spacing" textLength="20" x="609.0222" y="746.0952">0..*</text></g><!--link ImpactedBucket to ImpactedBucketItem--><g id="link_ImpactedBucket_ImpactedBucketItem"><path codeLine="138" d="M766.9728,853.8675 C786.9828,853.8675 789.8528,853.8675 809.1728,853.8675 " fill="none" id="ImpactedBucket-ImpactedBucketItem" style="stroke:#181818;stroke-width:1.0;"/><polygon fill="#181818" points="754.9728,853.8675,760.9728,857.8675,766.9728,853.8675,760.9728,849.8675,754.9728,853.8675" style="stroke:#181818;stroke-width:1.0;"/><polygon fill="#181818" points="815.1728,853.8675,806.1728,849.8675,810.1728,853.8675,806.1728,857.8675,815.1728,853.8675" style="stroke:#181818;stroke-width:1.0;"/><text fill="#000000" font-family="sans-serif" font-size="13" lengthAdjust="spacing" textLength="25" x="772.6428" y="847.3626">item</text><text fill="#000000" font-family="sans-serif" font-size="13" lengthAdjust="spacing" textLength="20" x="787.7635" y="868.0395">1..*</text></g><!--link BucketRef to ImpactedBucket--><g id="link_BucketRef_ImpactedBucket"><path codeLine="140" d="M190.7147,229.5856 C211.2747,244.2756 228.8928,255.8375 250.6428,268.3675 C261.9328,274.8775 345.0028,313.2075 357.6428,316.3675 C404.7428,328.1575 760.5028,310.8775 793.6428,346.3675 C894.4728,454.3775 841.5028,539.0375 793.6428,678.8275 C784.2228,706.3175 775.6196,723.1657 758.1696,746.8557 " fill="none" id="BucketRef-ImpactedBucket" style="stroke:#181818;stroke-width:1.0;"/><polygon fill="#181818" points="185.8328,226.0975,190.8302,234.5843,189.901,229.0043,195.481,228.075,185.8328,226.0975" style="stroke:#181818;stroke-width:1.0;"/><polygon fill="#181818" points="751.0528,756.5175,757.8318,754.0589,758.1696,746.8557,751.3906,749.3143,751.0528,756.5175" style="stroke:#181818;stroke-width:1.0;"/><text fill="#000000" font-family="sans-serif" font-size="13" lengthAdjust="spacing" textLength="39" x="851.6428" y="518.0926">bucket</text><text fill="#000000" font-family="sans-serif" font-size="13" lengthAdjust="spacing" textLength="22" x="193.5835" y="228.2759">0..1</text></g><!--link TransferBalance to ChannelRef--><g id="link_TransferBalance_ChannelRef"><path codeLine="142" d="M356.4628,512.5975 C383.6628,512.5975 394.1228,512.5975 419.3728,512.5975 " fill="none" id="TransferBalance-ChannelRef" style="stroke:#181818;stroke-width:1.0;"/><polygon fill="#181818" points="344.4628,512.5975,350.4628,516.5975,356.4628,512.5975,350.4628,508.5975,344.4628,512.5975" style="stroke:#181818;stroke-width:1.0;"/><polygon fill="#181818" points="425.3728,512.5975,416.3728,508.5975,420.3728,512.5975,416.3728,516.5975,425.3728,512.5975" style="stroke:#181818;stroke-width:1.0;"/><text fill="#000000" font-family="sans-serif" font-size="13" lengthAdjust="spacing" textLength="45" x="362.3928" y="506.0926">channel</text><text fill="#000000" font-family="sans-serif" font-size="13" lengthAdjust="spacing" textLength="22" x="395.6152" y="526.7948">0..1</text></g><!--link TransferBalance to ProductRef--><g id="link_TransferBalance_ProductRef"><path codeLine="144" d="M353.6958,381.9867 C373.7258,365.4467 386.1528,357.8975 408.6428,346.3675 C436.6628,332.0075 446.8028,335.6575 478.1428,332.5775 C532.6628,327.2175 559.7328,309.9275 600.6428,346.3675 C624.9628,368.0375 641.9538,392.0533 657.2338,419.9933 " fill="none" id="TransferBalance-ProductRef" style="stroke:#181818;stroke-width:1.0;"/><polygon fill="#181818" points="344.4428,389.6275,351.6162,388.8914,353.6958,381.9867,346.5223,382.7228,344.4428,389.6275" style="stroke:#181818;stroke-width:1.0;"/><polygon fill="#181818" points="660.1128,425.2575,659.3039,415.4419,657.7137,420.8707,652.2849,419.2805,660.1128,425.2575" style="stroke:#181818;stroke-width:1.0;"/><text fill="#000000" font-family="sans-serif" font-size="13" lengthAdjust="spacing" textLength="89" x="479.1428" y="312.8626">receiverProduct</text><text fill="#000000" font-family="sans-serif" font-size="13" lengthAdjust="spacing" textLength="22" x="634.0939" y="414.8715">0..1</text></g><!--link TransferBalance to ProductRef--><g id="link_TransferBalance_ProductRef"><path codeLine="146" d="M353.6958,381.9867 C373.7258,365.4467 386.1528,357.8975 408.6428,346.3675 C436.6628,332.0075 446.8028,335.6575 478.1428,332.5775 C532.6628,327.2175 559.7328,309.9275 600.6428,346.3675 C624.9628,368.0375 641.9538,392.0533 657.2338,419.9933 " fill="none" id="TransferBalance-ProductRef-1" style="stroke:#181818;stroke-width:1.0;"/><polygon fill="#181818" points="344.4428,389.6275,351.6162,388.8914,353.6958,381.9867,346.5223,382.7228,344.4428,389.6275" style="stroke:#181818;stroke-width:1.0;"/><polygon fill="#181818" points="660.1128,425.2575,659.3039,415.4419,657.7137,420.8707,652.2849,419.2805,660.1128,425.2575" style="stroke:#181818;stroke-width:1.0;"/><text fill="#000000" font-family="sans-serif" font-size="13" lengthAdjust="spacing" textLength="43" x="502.1428" y="312.8626">product</text><text fill="#000000" font-family="sans-serif" font-size="13" lengthAdjust="spacing" textLength="22" x="657.9158" y="414.8715">0..1</text></g><!--link PartyAccountRef to TransferBalance--><g id="link_PartyAccountRef_TransferBalance"><path codeLine="148" d="M331.3355,274.6689 C328.0855,290.7689 325.3528,301.1975 320.6428,316.3675 C317.6028,326.1775 318.3516,324.8686 314.6516,334.8286 " fill="none" id="PartyAccountRef-TransferBalance" style="stroke:#181818;stroke-width:1.0;"/><polygon fill="#181818" points="332.5228,268.7875,326.821,276.8181,331.5334,273.6886,334.6628,278.401,332.5228,268.7875" style="stroke:#181818;stroke-width:1.0;"/><polygon fill="#181818" points="310.4728,346.0775,316.3118,341.846,314.6516,334.8286,308.8125,339.0601,310.4728,346.0775" style="stroke:#181818;stroke-width:1.0;"/><text fill="#000000" font-family="sans-serif" font-size="13" lengthAdjust="spacing" textLength="77" x="326.6428" y="312.8626">partyAccount</text><text fill="#000000" font-family="sans-serif" font-size="13" lengthAdjust="spacing" textLength="22" x="308.835" y="289.887">0..1</text></g><!--link PartyAccountRef to TransferBalance--><g id="link_PartyAccountRef_TransferBalance"><path codeLine="150" d="M262.3757,213.6962 C231.5257,235.9362 204.4628,262.2575 187.6428,298.3675 C180.6228,313.4275 177.8169,317.629 177.0969,334.099 " fill="none" id="PartyAccountRef-TransferBalance-1" style="stroke:#181818;stroke-width:1.0;"/><polygon fill="#181818" points="267.2428,210.1875,257.6029,212.2059,263.1868,213.1114,262.2813,218.6953,267.2428,210.1875" style="stroke:#181818;stroke-width:1.0;"/><polygon fill="#181818" points="176.5728,346.0875,180.831,340.2679,177.0969,334.099,172.8386,339.9185,176.5728,346.0875" style="stroke:#181818;stroke-width:1.0;"/><text fill="#000000" font-family="sans-serif" font-size="13" lengthAdjust="spacing" textLength="123" x="188.6428" y="312.8626">receiverPartyAccount</text><text fill="#000000" font-family="sans-serif" font-size="13" lengthAdjust="spacing" textLength="22" x="237.7565" y="210.8777">0..1</text></g><!--link TransferBalance to LogicalResourceRef--><g id="link_TransferBalance_LogicalResourceRef"><path codeLine="152" d="M353.3094,638.3539 C373.7194,655.9139 386.4928,664.9375 408.6428,678.8275 C439.7628,698.3275 464.9128,678.5075 485.6428,708.8275 C504.2228,736.0075 493.3234,761.5912 469.9234,787.1612 " fill="none" id="TransferBalance-LogicalResourceRef" style="stroke:#181818;stroke-width:1.0;"/><polygon fill="#181818" points="344.2128,630.5275,346.1523,637.4729,353.3094,638.3539,351.3699,631.4085,344.2128,630.5275" style="stroke:#181818;stroke-width:1.0;"/><polygon fill="#181818" points="465.8728,791.5875,474.8996,787.6485,469.2483,787.8989,468.9979,782.2476,465.8728,791.5875" style="stroke:#181818;stroke-width:1.0;"/><text fill="#000000" font-family="sans-serif" font-size="13" lengthAdjust="spacing" textLength="92" x="493.6428" y="723.3226">logicalResource</text><text fill="#000000" font-family="sans-serif" font-size="13" lengthAdjust="spacing" textLength="22" x="473.6269" y="783.0581">0..1</text></g><!--link TransferBalance to LogicalResourceRef--><g id="link_TransferBalance_LogicalResourceRef"><path codeLine="154" d="M311.8248,690.1607 C324.1948,717.0707 329.1165,727.766 340.3665,752.236 " fill="none" id="TransferBalance-LogicalResourceRef-1" style="stroke:#181818;stroke-width:1.0;"/><polygon fill="#181818" points="306.8128,679.2575,305.6844,686.3798,311.8248,690.1607,312.9532,683.0384,306.8128,679.2575" style="stroke:#181818;stroke-width:1.0;"/><polygon fill="#181818" points="342.8728,757.6875,342.7476,747.8394,340.7842,753.1446,335.479,751.1812,342.8728,757.6875" style="stroke:#181818;stroke-width:1.0;"/><text fill="#000000" font-family="sans-serif" font-size="13" lengthAdjust="spacing" textLength="140" x="328.6428" y="723.3226">receiverLogicalResource</text><text fill="#000000" font-family="sans-serif" font-size="13" lengthAdjust="spacing" textLength="22" x="316.6794" y="747.2199">0..1</text></g><!--link LogicalResourceRef to ImpactedBucket--><!--link TransferBalance to RelatedParty--><g id="link_TransferBalance_RelatedParty"><path codeLine="158" d="M108.468,613.781 C79.728,643.481 61.0228,670.2175 45.6428,708.8275 C28.5428,751.7375 61.4868,785.4883 102.3268,811.2283 " fill="none" id="TransferBalance-RelatedParty" style="stroke:#181818;stroke-width:1.0;"/><polygon fill="#181818" points="116.8128,605.1575,109.7659,606.6877,108.468,613.781,115.5149,612.2508,116.8128,605.1575" style="stroke:#181818;stroke-width:1.0;"/><polygon fill="#181818" points="107.4028,814.4275,101.9216,806.2448,103.1728,811.7615,97.6561,813.0127,107.4028,814.4275" style="stroke:#181818;stroke-width:1.0;"/><text fill="#000000" font-family="sans-serif" font-size="13" lengthAdjust="spacing" textLength="44" x="46.6428" y="723.3226">receiver</text><text fill="#000000" font-family="sans-serif" font-size="13" lengthAdjust="spacing" textLength="22" x="77.6478" y="807.8607">0..1</text></g><!--link TransferBalance to RelatedParty--><g id="link_TransferBalance_RelatedParty"><path codeLine="160" d="M136.4553,690.4404 C133.0653,700.3404 134.0028,698.9375 131.6428,708.8275 C127.1928,727.4375 127.7432,741.1644 133.4132,759.5344 " fill="none" id="TransferBalance-RelatedParty-1" style="stroke:#181818;stroke-width:1.0;"/><polygon fill="#181818" points="140.3428,679.0875,134.6147,683.4681,136.4553,690.4404,142.1833,686.0598,140.3428,679.0875" style="stroke:#181818;stroke-width:1.0;"/><polygon fill="#181818" points="135.1828,765.2675,136.3505,755.4881,133.7081,760.4899,128.7063,757.8475,135.1828,765.2675" style="stroke:#181818;stroke-width:1.0;"/><text fill="#000000" font-family="sans-serif" font-size="13" lengthAdjust="spacing" textLength="54" x="132.6428" y="723.3226">requestor</text><text fill="#000000" font-family="sans-serif" font-size="13" lengthAdjust="spacing" textLength="22" x="108.0103" y="754.7773">0..1</text></g><!--link TransferBalance to RelatedParty--><g id="link_TransferBalance_RelatedParty"><path codeLine="162" d="M207.6098,691.1579 C203.7498,720.9279 202.185,733.0174 198.755,759.4474 " fill="none" id="TransferBalance-RelatedParty-2" style="stroke:#181818;stroke-width:1.0;"/><polygon fill="#181818" points="209.1528,679.2575,204.4145,684.6934,207.6098,691.1579,212.3481,685.722,209.1528,679.2575" style="stroke:#181818;stroke-width:1.0;"/><polygon fill="#181818" points="197.9828,765.3975,203.1078,756.9871,198.6263,760.4391,195.1743,755.9576,197.9828,765.3975" style="stroke:#181818;stroke-width:1.0;"/><text fill="#000000" font-family="sans-serif" font-size="13" lengthAdjust="spacing" textLength="70" x="206.6428" y="723.3226">relatedParty</text><text fill="#000000" font-family="sans-serif" font-size="13" lengthAdjust="spacing" textLength="20" x="178.0937" y="754.9181">0..*</text></g><!--link RelatedParty to LogicalResourceRef--><rect fill="#DDDDDD" height="27.6094" id="_legend" rx="7.5" ry="7.5" style="stroke:#000000;stroke-width:1.0;" width="123" x="421.8214" y="968.9213"/><a href="index.htm" target="_top" title="index.htm" xlink:actuate="onRequest" xlink:href="index.htm" xlink:show="new" xlink:title="index.htm" xlink:type="simple"><text fill="#0000FF" font-family="sans-serif" font-size="14" lengthAdjust="spacing" text-decoration="underline" textLength="113" x="426.8214" y="988.4545">Go to API Catalog</text></a></g></svg>