<?xml version="1.0" encoding="UTF-8" standalone="no"?><svg xmlns="http://www.w3.org/2000/svg" xmlns:xlink="http://www.w3.org/1999/xlink" contentScriptType="application/ecmascript" contentStyleType="text/css" height="805px" preserveAspectRatio="none" style="width:1003px;height:805px;" version="1.1" viewBox="0 0 1003 805" width="1003px" zoomAndPan="magnify"><defs><filter height="300%" id="finfappw4uak" width="300%" x="-1" y="-1"><feGaussianBlur result="blurOut" stdDeviation="2.0"/><feColorMatrix in="blurOut" result="blurOut2" type="matrix" values="0 0 0 0 0 0 0 0 0 0 0 0 0 0 0 0 0 0 .4 0"/><feOffset dx="4.0" dy="4.0" in="blurOut2" result="blurOut3"/><feBlend in="SourceGraphic" in2="blurOut3" mode="normal"/></filter></defs><g><!--class TransferBalance--><rect fill="#FFFFFF" filter="url(#finfappw4uak)" height="255.7266" id="TransferBalance" style="stroke: #A80036; stroke-width: 1.5;" width="177" x="259.5" y="283.27"/><text fill="#000000" font-family="sans-serif" font-size="12" lengthAdjust="spacingAndGlyphs" textLength="91" x="302.5" y="300.727">TransferBalance</text><text fill="#000000" font-family="sans-serif" font-size="12" lengthAdjust="spacingAndGlyphs" textLength="4" x="270" y="315.8208">(</text><text fill="#000000" font-family="sans-serif" font-size="9" font-style="italic" lengthAdjust="spacingAndGlyphs" textLength="17" x="274" y="316.48">from</text><a target="_top" xlink:actuate="onRequest" xlink:href="TMF654.svg" xlink:show="new" xlink:title="TMF654.svg" xlink:type="simple"><text fill="#0000FF" font-family="sans-serif" font-size="9" font-style="italic" lengthAdjust="spacingAndGlyphs" text-decoration="underline" textLength="100" x="294" y="316.48">TMF654-PrepayBalance</text><line style="stroke: #0000FF; stroke-width: 1.0;" x1="294" x2="394" y1="318.48" y2="318.48"/></a><text fill="#000000" font-family="sans-serif" font-size="9" font-style="italic" lengthAdjust="spacingAndGlyphs" textLength="26" x="397" y="316.48">v4.1.0</text><text fill="#000000" font-family="sans-serif" font-size="9" lengthAdjust="spacingAndGlyphs" textLength="3" x="423" y="316.48">)</text><line style="stroke: #A80036; stroke-width: 1.5;" x1="260.5" x2="435.5" y1="323.4575" y2="323.4575"/><text fill="#000000" font-family="sans-serif" font-size="11" lengthAdjust="spacingAndGlyphs" textLength="84" x="265.5" y="338.8764">amount : Quantity</text><text fill="#000000" font-family="sans-serif" font-size="11" lengthAdjust="spacingAndGlyphs" textLength="134" x="265.5" y="352.7124">confirmationDate : DateTime</text><text fill="#000000" font-family="sans-serif" font-size="11" lengthAdjust="spacingAndGlyphs" textLength="92" x="265.5" y="366.5483">costOwner : String</text><text fill="#000000" font-family="sans-serif" font-size="11" lengthAdjust="spacingAndGlyphs" textLength="90" x="265.5" y="380.3843">description : String</text><text fill="#000000" font-family="sans-serif" font-size="11" lengthAdjust="spacingAndGlyphs" textLength="42" x="265.5" y="394.2202">href : Uri</text><text fill="#000000" font-family="sans-serif" font-size="11" lengthAdjust="spacingAndGlyphs" textLength="45" x="265.5" y="408.0561">id : String</text><text fill="#000000" font-family="sans-serif" font-size="11" lengthAdjust="spacingAndGlyphs" textLength="71" x="265.5" y="421.8921">reason : String</text><text fill="#000000" font-family="sans-serif" font-size="11" lengthAdjust="spacingAndGlyphs" textLength="165" x="265.5" y="435.728">receiverBucketUsageType : String</text><text fill="#000000" font-family="sans-serif" font-size="11" lengthAdjust="spacingAndGlyphs" textLength="124" x="265.5" y="449.5639">requestedDate : DateTime</text><text fill="#000000" font-family="sans-serif" font-size="11" lengthAdjust="spacingAndGlyphs" textLength="67" x="265.5" y="463.3999">status : String</text><text fill="#000000" font-family="sans-serif" font-size="11" lengthAdjust="spacingAndGlyphs" textLength="110" x="265.5" y="477.2358">transferCost : Quantity</text><text fill="#000000" font-family="sans-serif" font-size="11" lengthAdjust="spacingAndGlyphs" textLength="91" x="265.5" y="491.0718">usageType : String</text><text fill="#000000" font-family="sans-serif" font-size="11" lengthAdjust="spacingAndGlyphs" textLength="96" x="265.5" y="504.9077">@baseType : String</text><text fill="#000000" font-family="sans-serif" font-size="11" lengthAdjust="spacingAndGlyphs" textLength="112" x="265.5" y="518.7436">@schemaLocation : Uri</text><text fill="#000000" font-family="sans-serif" font-size="11" lengthAdjust="spacingAndGlyphs" textLength="69" x="265.5" y="532.5796">@type : String</text><!--class BucketStatusExampleType--><rect fill="#E6F5F7" filter="url(#finfappw4uak)" height="89.6953" id="BucketStatusExampleType" style="stroke: #A80036; stroke-width: 1.5;" width="152" x="767" y="61.93"/><text fill="#000000" font-family="sans-serif" font-size="12" font-style="italic" lengthAdjust="spacingAndGlyphs" textLength="85" x="800.5" y="79.387">«Enumeration»</text><text fill="#000000" font-family="sans-serif" font-size="12" lengthAdjust="spacingAndGlyphs" textLength="146" x="770" y="94.4808">BucketStatusExampleType</text><line style="stroke: #A80036; stroke-width: 1.5;" x1="768" x2="918" y1="102.1175" y2="102.1175"/><text fill="#000000" font-family="sans-serif" font-size="11" lengthAdjust="spacingAndGlyphs" textLength="29" x="773" y="117.5364">active</text><text fill="#000000" font-family="sans-serif" font-size="11" lengthAdjust="spacingAndGlyphs" textLength="54" x="773" y="131.3724">suspended</text><text fill="#000000" font-family="sans-serif" font-size="11" lengthAdjust="spacingAndGlyphs" textLength="36" x="773" y="145.2083">expired</text><!--class ChannelRef--><rect fill="#FFFFE0" filter="url(#finfappw4uak)" height="129.9453" id="ChannelRef" style="stroke: #A80036; stroke-width: 1.5;" width="124" x="30" y="346.64"/><a target="_top" xlink:actuate="onRequest" xlink:href="Channel.svg" xlink:show="new" xlink:title="Channel.svg" xlink:type="simple"><text fill="#0000FF" font-family="sans-serif" font-size="12" lengthAdjust="spacingAndGlyphs" text-decoration="underline" textLength="47" x="59" y="364.097">Channel</text><line style="stroke: #0000FF; stroke-width: 1.0;" x1="59" x2="106" y1="366.097" y2="366.097"/></a><text fill="#000000" font-family="sans-serif" font-size="12" lengthAdjust="spacingAndGlyphs" textLength="19" x="106" y="364.097">Ref</text><line style="stroke: #A80036; stroke-width: 1.5;" x1="31" x2="153" y1="371.7338" y2="371.7338"/><text fill="#000000" font-family="sans-serif" font-size="11" lengthAdjust="spacingAndGlyphs" textLength="42" x="36" y="387.1527">href : Uri</text><text fill="#000000" font-family="sans-serif" font-size="11" lengthAdjust="spacingAndGlyphs" textLength="45" x="36" y="400.9886">id : String</text><text fill="#000000" font-family="sans-serif" font-size="11" lengthAdjust="spacingAndGlyphs" textLength="63" x="36" y="414.8246">name : String</text><text fill="#000000" font-family="sans-serif" font-size="11" lengthAdjust="spacingAndGlyphs" textLength="96" x="36" y="428.6605">@baseType : String</text><text fill="#000000" font-family="sans-serif" font-size="11" lengthAdjust="spacingAndGlyphs" textLength="112" x="36" y="442.4964">@referredType : String</text><text fill="#000000" font-family="sans-serif" font-size="11" lengthAdjust="spacingAndGlyphs" textLength="112" x="36" y="456.3324">@schemaLocation : Uri</text><text fill="#000000" font-family="sans-serif" font-size="11" lengthAdjust="spacingAndGlyphs" textLength="69" x="36" y="470.1683">@type : String</text><!--class LogicalResourceRef--><rect fill="#FFFFE0" filter="url(#finfappw4uak)" height="143.7813" id="LogicalResourceRef" style="stroke: #A80036; stroke-width: 1.5;" width="124" x="387" y="644"/><a target="_top" xlink:actuate="onRequest" xlink:href="LogicalResource.svg" xlink:show="new" xlink:title="LogicalResource.svg" xlink:type="simple"><text fill="#0000FF" font-family="sans-serif" font-size="12" lengthAdjust="spacingAndGlyphs" text-decoration="underline" textLength="94" x="392.5" y="661.457">LogicalResource</text><line style="stroke: #0000FF; stroke-width: 1.0;" x1="392.5" x2="486.5" y1="663.457" y2="663.457"/></a><text fill="#000000" font-family="sans-serif" font-size="12" lengthAdjust="spacingAndGlyphs" textLength="19" x="486.5" y="661.457">Ref</text><line style="stroke: #A80036; stroke-width: 1.5;" x1="388" x2="510" y1="669.0938" y2="669.0938"/><text fill="#000000" font-family="sans-serif" font-size="11" lengthAdjust="spacingAndGlyphs" textLength="42" x="393" y="684.5127">href : Uri</text><text fill="#000000" font-family="sans-serif" font-size="11" lengthAdjust="spacingAndGlyphs" textLength="45" x="393" y="698.3486">id : String</text><text fill="#000000" font-family="sans-serif" font-size="11" lengthAdjust="spacingAndGlyphs" textLength="63" x="393" y="712.1846">name : String</text><text fill="#000000" font-family="sans-serif" font-size="11" lengthAdjust="spacingAndGlyphs" textLength="63" x="393" y="726.0205">value : String</text><text fill="#000000" font-family="sans-serif" font-size="11" lengthAdjust="spacingAndGlyphs" textLength="96" x="393" y="739.8564">@baseType : String</text><text fill="#000000" font-family="sans-serif" font-size="11" lengthAdjust="spacingAndGlyphs" textLength="112" x="393" y="753.6924">@referredType : String</text><text fill="#000000" font-family="sans-serif" font-size="11" lengthAdjust="spacingAndGlyphs" textLength="112" x="393" y="767.5283">@schemaLocation : Uri</text><text fill="#000000" font-family="sans-serif" font-size="11" lengthAdjust="spacingAndGlyphs" textLength="69" x="393" y="781.3643">@type : String</text><!--class BucketRef--><rect fill="#FFFFE0" filter="url(#finfappw4uak)" height="143.7813" id="BucketRef" style="stroke: #A80036; stroke-width: 1.5;" width="124" x="367" y="35.27"/><a target="_top" xlink:actuate="onRequest" xlink:href="Bucket.svg" xlink:show="new" xlink:title="Bucket.svg" xlink:type="simple"><text fill="#0000FF" font-family="sans-serif" font-size="12" lengthAdjust="spacingAndGlyphs" text-decoration="underline" textLength="37" x="401" y="52.727">Bucket</text><line style="stroke: #0000FF; stroke-width: 1.0;" x1="401" x2="438" y1="54.727" y2="54.727"/></a><text fill="#000000" font-family="sans-serif" font-size="12" lengthAdjust="spacingAndGlyphs" textLength="19" x="438" y="52.727">Ref</text><line style="stroke: #A80036; stroke-width: 1.5;" x1="368" x2="490" y1="60.3637" y2="60.3637"/><text fill="#000000" font-family="sans-serif" font-size="11" lengthAdjust="spacingAndGlyphs" textLength="42" x="373" y="75.7827">href : Uri</text><text fill="#000000" font-family="sans-serif" font-size="11" lengthAdjust="spacingAndGlyphs" textLength="45" x="373" y="89.6186">id : String</text><text fill="#000000" font-family="sans-serif" font-size="11" lengthAdjust="spacingAndGlyphs" textLength="63" x="373" y="103.4546">name : String</text><text fill="#000000" font-family="sans-serif" font-size="11" lengthAdjust="spacingAndGlyphs" textLength="91" x="373" y="117.2905">usageType : String</text><text fill="#000000" font-family="sans-serif" font-size="11" lengthAdjust="spacingAndGlyphs" textLength="96" x="373" y="131.1264">@baseType : String</text><text fill="#000000" font-family="sans-serif" font-size="11" lengthAdjust="spacingAndGlyphs" textLength="112" x="373" y="144.9624">@referredType : String</text><text fill="#000000" font-family="sans-serif" font-size="11" lengthAdjust="spacingAndGlyphs" textLength="112" x="373" y="158.7983">@schemaLocation : Uri</text><text fill="#000000" font-family="sans-serif" font-size="11" lengthAdjust="spacingAndGlyphs" textLength="69" x="373" y="172.6343">@type : String</text><!--class PartyAccountRef--><rect fill="#FFFFE0" filter="url(#finfappw4uak)" height="157.6172" id="PartyAccountRef" style="stroke: #A80036; stroke-width: 1.5;" width="124" x="584" y="28.27"/><a target="_top" xlink:actuate="onRequest" xlink:href="PartyAccount.svg" xlink:show="new" xlink:title="PartyAccount.svg" xlink:type="simple"><text fill="#0000FF" font-family="sans-serif" font-size="12" lengthAdjust="spacingAndGlyphs" text-decoration="underline" textLength="70" x="601.5" y="45.727">PartyAccount</text><line style="stroke: #0000FF; stroke-width: 1.0;" x1="601.5" x2="671.5" y1="47.727" y2="47.727"/></a><text fill="#000000" font-family="sans-serif" font-size="12" lengthAdjust="spacingAndGlyphs" textLength="19" x="671.5" y="45.727">Ref</text><line style="stroke: #A80036; stroke-width: 1.5;" x1="585" x2="707" y1="53.3637" y2="53.3637"/><text fill="#000000" font-family="sans-serif" font-size="11" lengthAdjust="spacingAndGlyphs" textLength="90" x="590" y="68.7827">description : String</text><text fill="#000000" font-family="sans-serif" font-size="11" lengthAdjust="spacingAndGlyphs" textLength="57" x="590" y="82.6186">href : String</text><text fill="#000000" font-family="sans-serif" font-size="11" lengthAdjust="spacingAndGlyphs" textLength="45" x="590" y="96.4546">id : String</text><text fill="#000000" font-family="sans-serif" font-size="11" lengthAdjust="spacingAndGlyphs" textLength="63" x="590" y="110.2905">name : String</text><text fill="#000000" font-family="sans-serif" font-size="11" lengthAdjust="spacingAndGlyphs" textLength="67" x="590" y="124.1264">status : String</text><text fill="#000000" font-family="sans-serif" font-size="11" lengthAdjust="spacingAndGlyphs" textLength="96" x="590" y="137.9624">@baseType : String</text><text fill="#000000" font-family="sans-serif" font-size="11" lengthAdjust="spacingAndGlyphs" textLength="112" x="590" y="151.7983">@referredType : String</text><text fill="#000000" font-family="sans-serif" font-size="11" lengthAdjust="spacingAndGlyphs" textLength="112" x="590" y="165.6343">@schemaLocation : Uri</text><text fill="#000000" font-family="sans-serif" font-size="11" lengthAdjust="spacingAndGlyphs" textLength="69" x="590" y="179.4702">@type : String</text><!--class ImpactedBucket--><rect fill="#FCF2E3" filter="url(#finfappw4uak)" height="157.6172" id="ImpactedBucket" style="stroke: #A80036; stroke-width: 1.5;" width="146" x="612" y="637"/><text fill="#000000" font-family="sans-serif" font-size="12" lengthAdjust="spacingAndGlyphs" textLength="88" x="641" y="654.457">ImpactedBucket</text><line style="stroke: #A80036; stroke-width: 1.5;" x1="613" x2="757" y1="662.0938" y2="662.0938"/><text fill="#000000" font-family="sans-serif" font-size="11" lengthAdjust="spacingAndGlyphs" textLength="109" x="618" y="677.5127">amountAfter : Quantity</text><text fill="#000000" font-family="sans-serif" font-size="11" lengthAdjust="spacingAndGlyphs" textLength="117" x="618" y="691.3486">amountBefore : Quantity</text><text fill="#000000" font-family="sans-serif" font-size="11" lengthAdjust="spacingAndGlyphs" textLength="134" x="618" y="705.1846">confirmationDate : DateTime</text><text fill="#000000" font-family="sans-serif" font-size="11" lengthAdjust="spacingAndGlyphs" textLength="90" x="618" y="719.0205">description : String</text><text fill="#000000" font-family="sans-serif" font-size="11" lengthAdjust="spacingAndGlyphs" textLength="63" x="618" y="732.8564">name : String</text><text fill="#000000" font-family="sans-serif" font-size="11" lengthAdjust="spacingAndGlyphs" textLength="124" x="618" y="746.6924">requestedDate : DateTime</text><text fill="#000000" font-family="sans-serif" font-size="11" lengthAdjust="spacingAndGlyphs" textLength="96" x="618" y="760.5283">@baseType : String</text><text fill="#000000" font-family="sans-serif" font-size="11" lengthAdjust="spacingAndGlyphs" textLength="112" x="618" y="774.3643">@schemaLocation : Uri</text><text fill="#000000" font-family="sans-serif" font-size="11" lengthAdjust="spacingAndGlyphs" textLength="69" x="618" y="788.2002">@type : String</text><!--class ImpactedBucketItem--><rect fill="#FCF2E3" filter="url(#finfappw4uak)" height="143.7813" id="ImpactedBucketItem" style="stroke: #A80036; stroke-width: 1.5;" width="124" x="868" y="644"/><text fill="#000000" font-family="sans-serif" font-size="12" lengthAdjust="spacingAndGlyphs" textLength="112" x="874" y="661.457">ImpactedBucketItem</text><line style="stroke: #A80036; stroke-width: 1.5;" x1="869" x2="991" y1="669.0938" y2="669.0938"/><text fill="#000000" font-family="sans-serif" font-size="11" lengthAdjust="spacingAndGlyphs" textLength="84" x="874" y="684.5127">amount : Quantity</text><text fill="#000000" font-family="sans-serif" font-size="11" lengthAdjust="spacingAndGlyphs" textLength="90" x="874" y="698.3486">description : String</text><text fill="#000000" font-family="sans-serif" font-size="11" lengthAdjust="spacingAndGlyphs" textLength="80" x="874" y="712.1846">itemType : String</text><text fill="#000000" font-family="sans-serif" font-size="11" lengthAdjust="spacingAndGlyphs" textLength="63" x="874" y="726.0205">name : String</text><text fill="#000000" font-family="sans-serif" font-size="11" lengthAdjust="spacingAndGlyphs" textLength="71" x="874" y="739.8564">reason : String</text><text fill="#000000" font-family="sans-serif" font-size="11" lengthAdjust="spacingAndGlyphs" textLength="96" x="874" y="753.6924">@baseType : String</text><text fill="#000000" font-family="sans-serif" font-size="11" lengthAdjust="spacingAndGlyphs" textLength="112" x="874" y="767.5283">@schemaLocation : Uri</text><text fill="#000000" font-family="sans-serif" font-size="11" lengthAdjust="spacingAndGlyphs" textLength="69" x="874" y="781.3643">@type : String</text><!--class ProductRef--><rect fill="#FFFFE0" filter="url(#finfappw4uak)" height="129.9453" id="ProductRef" style="stroke: #A80036; stroke-width: 1.5;" width="124" x="586" y="346.64"/><a target="_top" xlink:actuate="onRequest" xlink:href="Product.svg" xlink:show="new" xlink:title="Product.svg" xlink:type="simple"><text fill="#0000FF" font-family="sans-serif" font-size="12" lengthAdjust="spacingAndGlyphs" text-decoration="underline" textLength="42" x="617.5" y="364.097">Product</text><line style="stroke: #0000FF; stroke-width: 1.0;" x1="617.5" x2="659.5" y1="366.097" y2="366.097"/></a><text fill="#000000" font-family="sans-serif" font-size="12" lengthAdjust="spacingAndGlyphs" textLength="19" x="659.5" y="364.097">Ref</text><line style="stroke: #A80036; stroke-width: 1.5;" x1="587" x2="709" y1="371.7338" y2="371.7338"/><text fill="#000000" font-family="sans-serif" font-size="11" lengthAdjust="spacingAndGlyphs" textLength="42" x="592" y="387.1527">href : Uri</text><text fill="#000000" font-family="sans-serif" font-size="11" lengthAdjust="spacingAndGlyphs" textLength="45" x="592" y="400.9886">id : String</text><text fill="#000000" font-family="sans-serif" font-size="11" lengthAdjust="spacingAndGlyphs" textLength="63" x="592" y="414.8246">name : String</text><text fill="#000000" font-family="sans-serif" font-size="11" lengthAdjust="spacingAndGlyphs" textLength="96" x="592" y="428.6605">@baseType : String</text><text fill="#000000" font-family="sans-serif" font-size="11" lengthAdjust="spacingAndGlyphs" textLength="112" x="592" y="442.4964">@referredType : String</text><text fill="#000000" font-family="sans-serif" font-size="11" lengthAdjust="spacingAndGlyphs" textLength="112" x="592" y="456.3324">@schemaLocation : Uri</text><text fill="#000000" font-family="sans-serif" font-size="11" lengthAdjust="spacingAndGlyphs" textLength="69" x="592" y="470.1683">@type : String</text><!--class RelatedParty--><rect fill="#FCF2E3" filter="url(#finfappw4uak)" height="143.7813" id="RelatedParty" style="stroke: #A80036; stroke-width: 1.5;" width="124" x="144" y="644"/><text fill="#000000" font-family="sans-serif" font-size="12" lengthAdjust="spacingAndGlyphs" textLength="70" x="171" y="661.457">RelatedParty</text><line style="stroke: #A80036; stroke-width: 1.5;" x1="145" x2="267" y1="669.0938" y2="669.0938"/><text fill="#000000" font-family="sans-serif" font-size="11" lengthAdjust="spacingAndGlyphs" textLength="42" x="150" y="684.5127">href : Uri</text><text fill="#000000" font-family="sans-serif" font-size="11" lengthAdjust="spacingAndGlyphs" textLength="45" x="150" y="698.3486">id : String</text><text fill="#000000" font-family="sans-serif" font-size="11" lengthAdjust="spacingAndGlyphs" textLength="63" x="150" y="712.1846">name : String</text><text fill="#000000" font-family="sans-serif" font-size="11" lengthAdjust="spacingAndGlyphs" textLength="55" x="150" y="726.0205">role : String</text><text fill="#000000" font-family="sans-serif" font-size="11" lengthAdjust="spacingAndGlyphs" textLength="96" x="150" y="739.8564">@baseType : String</text><text fill="#000000" font-family="sans-serif" font-size="11" lengthAdjust="spacingAndGlyphs" textLength="112" x="150" y="753.6924">@referredType : String</text><text fill="#000000" font-family="sans-serif" font-size="11" lengthAdjust="spacingAndGlyphs" textLength="112" x="150" y="767.5283">@schemaLocation : Uri</text><text fill="#000000" font-family="sans-serif" font-size="11" lengthAdjust="spacingAndGlyphs" textLength="69" x="150" y="781.3643">@type : String</text><!--link BucketRef to TransferBalance--><path d="M364.84,190.52 C356.69,204.78 349.59,219.96 345,235.27 C341.81,245.91 339.6,257.07 338.14,268.39 " fill="none" id="BucketRef-TransferBalance" style="stroke: #A80036; stroke-width: 1.0;"/><polygon fill="#A80036" points="336.84,281.29,341.4263,275.7253,338.0536,269.3515,333.4673,274.9162,336.84,281.29" style="stroke: #A80036; stroke-width: 1.0;"/><polygon fill="#A80036" points="371.47,179.55,363.3904,185.1821,368.883,183.8287,370.2364,189.3213,371.47,179.55" style="stroke: #A80036; stroke-width: 1.0;"/><line style="stroke: #A80036; stroke-width: 1.0;" x1="368.883" x2="364.755" y1="183.8287" y2="190.675"/><text fill="#000000" font-family="sans-serif" font-size="13" lengthAdjust="spacingAndGlyphs" textLength="39" x="346" y="249.7651">bucket</text><text fill="#000000" font-family="sans-serif" font-size="13" lengthAdjust="spacingAndGlyphs" textLength="22" x="336.9117" y="188.2004">0..1</text><!--link BucketRef to TransferBalance--><path d="M406.48,191.83 C400.05,215.83 392.87,242.66 385.79,269.08 " fill="none" id="BucketRef-TransferBalance" style="stroke: #A80036; stroke-width: 1.0;"/><polygon fill="#A80036" points="382.49,281.38,387.909,276.6224,385.6016,269.7904,380.1826,274.548,382.49,281.38" style="stroke: #A80036; stroke-width: 1.0;"/><polygon fill="#A80036" points="409.82,179.36,403.6231,187.0149,408.5235,184.189,411.3495,189.0894,409.82,179.36" style="stroke: #A80036; stroke-width: 1.0;"/><line style="stroke: #A80036; stroke-width: 1.0;" x1="408.5235" x2="406.455" y1="184.189" y2="191.92"/><text fill="#000000" font-family="sans-serif" font-size="13" lengthAdjust="spacingAndGlyphs" textLength="85" x="394" y="249.7651">receiverBucket</text><text fill="#000000" font-family="sans-serif" font-size="13" lengthAdjust="spacingAndGlyphs" textLength="22" x="376.4802" y="200.168">0..1</text><!--link TransferBalance to ImpactedBucket--><path d="M448.59,481.78 C478.91,501.43 512.73,522.06 545,539 C575.69,555.11 591.97,545.01 617,569 C632.93,584.27 645.52,604.01 655.3,624 " fill="none" id="TransferBalance-ImpactedBucket" style="stroke: #A80036; stroke-width: 1.0;"/><polygon fill="#A80036" points="660.69,635.74,660.5669,625.8919,658.6024,631.1967,653.2976,629.2321,660.69,635.74" style="stroke: #A80036; stroke-width: 1.0;"/><line style="stroke: #A80036; stroke-width: 1.0;" x1="658.6024" x2="655.265" y1="631.1967" y2="623.93"/><polygon fill="#A80036" points="437.97,474.84,440.8103,481.4682,448.0211,481.3956,445.1807,474.7675,437.97,474.84" style="stroke: #A80036; stroke-width: 1.0;"/><text fill="#000000" font-family="sans-serif" font-size="13" lengthAdjust="spacingAndGlyphs" textLength="94" x="632" y="583.4951">impactedBucket</text><text fill="#000000" font-family="sans-serif" font-size="13" lengthAdjust="spacingAndGlyphs" textLength="20" x="638.0046" y="626.099">0..*</text><!--link ImpactedBucket to ImpactedBucketItem--><path d="M757.7,699.49 C779.73,696.28 804.07,694.44 826.5,696.5 C836.32,697.4 846.6,698.78 856.71,700.39 " fill="none" id="ImpactedBucket-ImpactedBucketItem" style="stroke: #A80036; stroke-width: 1.0;"/><polygon fill="#A80036" points="866.52,702.05,858.3089,696.6115,861.5894,701.22,856.9809,704.5005,866.52,702.05" style="stroke: #A80036; stroke-width: 1.0;"/><line style="stroke: #A80036; stroke-width: 1.0;" x1="861.5894" x2="853.695" y1="701.22" y2="699.885"/><polygon fill="#A80036" points="799.5,678.5,799.5,685.7111,806.1564,688.4846,806.1564,681.2735,799.5,678.5" style="stroke: #A80036; stroke-width: 1.0;"/><text fill="#000000" font-family="sans-serif" font-size="13" lengthAdjust="spacingAndGlyphs" textLength="25" x="800.5" y="692.9951">item</text><text fill="#000000" font-family="sans-serif" font-size="13" lengthAdjust="spacingAndGlyphs" textLength="20" x="840.1361" y="697.4529">1..*</text><!--link BucketRef to ImpactedBucket--><path d="M502.01,177.95 C515,188.11 528.9,197.68 543,205.27 C630.28,252.3 698.41,199.86 752,283.27 C818.22,386.36 774.04,531.29 732.51,624.06 " fill="none" id="BucketRef-ImpactedBucket" style="stroke: #A80036; stroke-width: 1.0;"/><polygon fill="#A80036" points="727.18,635.7,733.316,631.912,732.1794,624.791,726.0434,628.579,727.18,635.7" style="stroke: #A80036; stroke-width: 1.0;"/><polygon fill="#A80036" points="492.03,169.85,496.4973,178.6274,495.9123,173.0009,501.5388,172.4158,492.03,169.85" style="stroke: #A80036; stroke-width: 1.0;"/><line style="stroke: #A80036; stroke-width: 1.0;" x1="495.9123" x2="502.125" y1="173.0009" y2="178.04"/><text fill="#000000" font-family="sans-serif" font-size="13" lengthAdjust="spacingAndGlyphs" textLength="39" x="786" y="416.6351">bucket</text><text fill="#000000" font-family="sans-serif" font-size="13" lengthAdjust="spacingAndGlyphs" textLength="22" x="498.7244" y="198.0703">0..1</text><!--link ChannelRef to TransferBalance--><path d="M153.84,397.94 C167.41,395.52 181.77,393.38 195.25,392.14 C212.28,390.57 230.34,390.99 247.84,392.5 " fill="none" id="ChannelRef-TransferBalance" style="stroke: #A80036; stroke-width: 1.0;"/><polygon fill="#A80036" points="257.73,393.49,252.1598,388.9104,245.7901,392.2907,251.3603,396.8703,257.73,393.49" style="stroke: #A80036; stroke-width: 1.0;"/><polygon fill="#A80036" points="195.25,374.14,194.7334,383.9753,197.0382,378.8093,202.2043,381.1141,195.25,374.14" style="stroke: #A80036; stroke-width: 1.0;"/><line style="stroke: #A80036; stroke-width: 1.0;" x1="197.0382" x2="218.75" y1="378.8093" y2="383.14"/><text fill="#000000" font-family="sans-serif" font-size="13" lengthAdjust="spacingAndGlyphs" textLength="45" x="196.25" y="388.6351">channel</text><text fill="#000000" font-family="sans-serif" font-size="13" lengthAdjust="spacingAndGlyphs" textLength="22" x="161.7085" y="382.8057">0..1</text><!--link TransferBalance to ProductRef--><path d="M349.14,410.97 C352.12,407.49 400.56,351.58 453.75,334.14 C492.18,321.53 506.39,321.31 544.75,334.14 C555.69,337.8 566.4,343.14 576.52,349.33 " fill="none" id="TransferBalance-ProductRef" style="stroke: #A80036; stroke-width: 1.0;"/><polygon fill="#A80036" points="453.75,307.14,451.5724,316.7451,454.7202,312.045,459.4204,315.1928,453.75,307.14" style="stroke: #A80036; stroke-width: 1.0;"/><line style="stroke: #A80036; stroke-width: 1.0;" x1="454.7202" x2="499.25" y1="312.045" y2="316.14"/><polygon fill="#A80036" points="584.76,354.67,581.9035,348.0488,574.693,348.139,577.5495,354.7602,584.76,354.67" style="stroke: #A80036; stroke-width: 1.0;"/><text fill="#000000" font-family="sans-serif" font-size="13" lengthAdjust="spacingAndGlyphs" textLength="89" x="454.75" y="321.6351">receiverProduct</text><text fill="#000000" font-family="sans-serif" font-size="13" lengthAdjust="spacingAndGlyphs" textLength="22" x="556.0489" y="346.002">0..1</text><!--link TransferBalance to ProductRef--><path d="M349.17,411.09 C352.59,410.22 408.1,396.24 453.75,392.14 C494.03,388.51 504.48,388.43 544.75,392.14 C554.55,393.04 564.81,394.42 574.89,396.03 " fill="none" id="TransferBalance-ProductRef" style="stroke: #A80036; stroke-width: 1.0;"/><polygon fill="#A80036" points="476.75,372.14,476.3786,381.9819,478.607,376.7824,483.8064,379.0107,476.75,372.14" style="stroke: #A80036; stroke-width: 1.0;"/><line style="stroke: #A80036; stroke-width: 1.0;" x1="478.607" x2="499.25" y1="376.7824" y2="381.14"/><polygon fill="#A80036" points="584.67,397.68,579.4226,392.7338,572.8387,395.6751,578.086,400.6213,584.67,397.68" style="stroke: #A80036; stroke-width: 1.0;"/><text fill="#000000" font-family="sans-serif" font-size="13" lengthAdjust="spacingAndGlyphs" textLength="43" x="477.75" y="386.6351">product</text><text fill="#000000" font-family="sans-serif" font-size="13" lengthAdjust="spacingAndGlyphs" textLength="22" x="556.1931" y="393.0839">0..1</text><!--link PartyAccountRef to TransferBalance--><path d="M717.43,168.87 C740.82,196.09 755.83,227.71 734,253.27 C678.77,317.96 624.46,252.93 545,283.27 C511.93,295.9 478.59,314.6 448.97,333.78 " fill="none" id="PartyAccountRef-TransferBalance" style="stroke: #A80036; stroke-width: 1.0;"/><polygon fill="#A80036" points="438.21,340.89,445.4211,340.9164,448.2189,334.2702,441.0078,334.2438,438.21,340.89" style="stroke: #A80036; stroke-width: 1.0;"/><polygon fill="#A80036" points="708.76,159.4,711.8847,168.74,712.1354,163.0887,717.7867,163.3394,708.76,159.4" style="stroke: #A80036; stroke-width: 1.0;"/><line style="stroke: #A80036; stroke-width: 1.0;" x1="712.1354" x2="717.545" y1="163.0887" y2="168.99"/><text fill="#000000" font-family="sans-serif" font-size="13" lengthAdjust="spacingAndGlyphs" textLength="77" x="743" y="249.7651">partyAccount</text><text fill="#000000" font-family="sans-serif" font-size="13" lengthAdjust="spacingAndGlyphs" textLength="22" x="715.5498" y="181.2751">0..1</text><!--link PartyAccountRef to TransferBalance--><path d="M574.27,180.55 C536.1,219.28 488.59,267.49 446.97,309.72 " fill="none" id="PartyAccountRef-TransferBalance" style="stroke: #A80036; stroke-width: 1.0;"/><polygon fill="#A80036" points="437.86,318.96,444.921,317.4964,446.2857,310.4156,439.2247,311.8792,437.86,318.96" style="stroke: #A80036; stroke-width: 1.0;"/><polygon fill="#A80036" points="583.19,171.5,574.0254,175.1069,579.6821,175.0629,579.7261,180.7196,583.19,171.5" style="stroke: #A80036; stroke-width: 1.0;"/><line style="stroke: #A80036; stroke-width: 1.0;" x1="579.6821" x2="574.07" y1="175.0629" y2="180.76"/><text fill="#000000" font-family="sans-serif" font-size="13" lengthAdjust="spacingAndGlyphs" textLength="123" x="515" y="249.7651">receiverPartyAccount</text><text fill="#000000" font-family="sans-serif" font-size="13" lengthAdjust="spacingAndGlyphs" textLength="22" x="553.8383" y="174.3343">0..1</text><!--link TransferBalance to LogicalResourceRef--><path d="M356.65,553.42 C359.13,564.94 362.2,576.26 366,587 C371.38,602.22 378.92,617.43 387.28,631.78 " fill="none" id="TransferBalance-LogicalResourceRef" style="stroke: #A80036; stroke-width: 1.0;"/><polygon fill="#A80036" points="394.02,642.85,392.7625,633.0818,391.4225,638.5776,385.9267,637.2377,394.02,642.85" style="stroke: #A80036; stroke-width: 1.0;"/><line style="stroke: #A80036; stroke-width: 1.0;" x1="391.4225" x2="387.26" y1="638.5776" y2="631.745"/><polygon fill="#A80036" points="354.2,540.8,351.4128,547.4507,356.4799,552.5814,359.2671,545.9308,354.2,540.8" style="stroke: #A80036; stroke-width: 1.0;"/><text fill="#000000" font-family="sans-serif" font-size="13" lengthAdjust="spacingAndGlyphs" textLength="92" x="367" y="583.4951">logicalResource</text><text fill="#000000" font-family="sans-serif" font-size="13" lengthAdjust="spacingAndGlyphs" textLength="22" x="365.6798" y="632.9316">0..1</text><!--link TransferBalance to LogicalResourceRef--><path d="M444.25,525.74 C452.25,539.65 459.12,554.2 464,569 C470.33,588.21 471.27,609.55 469.56,629.84 " fill="none" id="TransferBalance-LogicalResourceRef" style="stroke: #A80036; stroke-width: 1.0;"/><polygon fill="#A80036" points="468.11,642.52,473.1124,634.0361,468.6815,637.5528,465.1648,633.1218,468.11,642.52" style="stroke: #A80036; stroke-width: 1.0;"/><line style="stroke: #A80036; stroke-width: 1.0;" x1="468.6815" x2="469.59" y1="637.5528" y2="629.6"/><polygon fill="#A80036" points="437.75,514.98,437.4314,522.1841,443.9588,525.2489,444.2774,518.0449,437.75,514.98" style="stroke: #A80036; stroke-width: 1.0;"/><text fill="#000000" font-family="sans-serif" font-size="13" lengthAdjust="spacingAndGlyphs" textLength="140" x="468" y="583.4951">receiverLogicalResource</text><text fill="#000000" font-family="sans-serif" font-size="13" lengthAdjust="spacingAndGlyphs" textLength="22" x="446.7588" y="633.2966">0..1</text><!--link LogicalResourceRef to ImpactedBucket--><!--link TransferBalance to RelatedParty--><path d="M248.59,482.92 C222.63,506.98 198.01,536.2 184,569 C175.88,587.99 175.09,609.5 177.8,630.04 " fill="none" id="TransferBalance-RelatedParty" style="stroke: #A80036; stroke-width: 1.0;"/><polygon fill="#A80036" points="179.93,642.57,182.3616,633.026,179.0902,637.641,174.4752,634.3697,179.93,642.57" style="stroke: #A80036; stroke-width: 1.0;"/><line style="stroke: #A80036; stroke-width: 1.0;" x1="179.0902" x2="177.75" y1="637.641" y2="629.755"/><polygon fill="#A80036" points="258.24,474.28,251.1009,475.2967,249.2937,482.2777,256.4327,481.261,258.24,474.28" style="stroke: #A80036; stroke-width: 1.0;"/><text fill="#000000" font-family="sans-serif" font-size="13" lengthAdjust="spacingAndGlyphs" textLength="44" x="185" y="583.4951">receiver</text><text fill="#000000" font-family="sans-serif" font-size="13" lengthAdjust="spacingAndGlyphs" textLength="22" x="154.394" y="633.3407">0..1</text><!--link TransferBalance to RelatedParty--><path d="M282.05,552.57 C269.4,579.5 256.54,606.89 245.07,631.3 " fill="none" id="TransferBalance-RelatedParty" style="stroke: #A80036; stroke-width: 1.0;"/><polygon fill="#A80036" points="239.68,642.78,247.1266,636.3342,241.8055,638.2543,239.8854,632.9333,239.68,642.78" style="stroke: #A80036; stroke-width: 1.0;"/><line style="stroke: #A80036; stroke-width: 1.0;" x1="241.8055" x2="245.21" y1="638.2543" y2="631.015"/><polygon fill="#A80036" points="287.55,540.86,281.3788,544.5904,282.4487,551.7217,288.6199,547.9913,287.55,540.86" style="stroke: #A80036; stroke-width: 1.0;"/><text fill="#000000" font-family="sans-serif" font-size="13" lengthAdjust="spacingAndGlyphs" textLength="54" x="274" y="583.4951">requestor</text><text fill="#000000" font-family="sans-serif" font-size="13" lengthAdjust="spacingAndGlyphs" textLength="22" x="219.4506" y="632.9427">0..1</text><!--link TransferBalance to RelatedParty--><path d="M248.14,504.01 C231.17,516.91 213.14,529.11 195,539 C156.12,560.19 126.17,533.29 100,569 C76.85,600.59 101.77,636.13 133.25,664.17 " fill="none" id="TransferBalance-RelatedParty" style="stroke: #A80036; stroke-width: 1.0;"/><polygon fill="#A80036" points="142.96,672.4,138.679,663.5302,139.1452,669.1678,133.5075,669.634,142.96,672.4" style="stroke: #A80036; stroke-width: 1.0;"/><line style="stroke: #A80036; stroke-width: 1.0;" x1="139.1452" x2="133.04" y1="669.1678" y2="663.99"/><polygon fill="#A80036" points="257.94,496.38,250.7484,496.9097,248.4713,503.7519,255.6629,503.2222,257.94,496.38" style="stroke: #A80036; stroke-width: 1.0;"/><text fill="#000000" font-family="sans-serif" font-size="13" lengthAdjust="spacingAndGlyphs" textLength="70" x="101" y="583.4951">relatedParty</text><text fill="#000000" font-family="sans-serif" font-size="13" lengthAdjust="spacingAndGlyphs" textLength="20" x="115.7977" y="665.0552">0..*</text><!--link RelatedParty to LogicalResourceRef--></g></svg>