<?xml version="1.0" encoding="UTF-8" standalone="no"?><svg xmlns="http://www.w3.org/2000/svg" xmlns:xlink="http://www.w3.org/1999/xlink" contentScriptType="application/ecmascript" contentStyleType="text/css" height="1304px" preserveAspectRatio="none" style="width:1455px;height:1304px;" version="1.1" viewBox="0 0 1455 1304" width="1455px" zoomAndPan="magnify"><defs><filter height="300%" id="f1l65y34izfw5u" width="300%" x="-1" y="-1"><feGaussianBlur result="blurOut" stdDeviation="2.0"/><feColorMatrix in="blurOut" result="blurOut2" type="matrix" values="0 0 0 0 0 0 0 0 0 0 0 0 0 0 0 0 0 0 .4 0"/><feOffset dx="4.0" dy="4.0" in="blurOut2" result="blurOut3"/><feBlend in="SourceGraphic" in2="blurOut3" mode="normal"/></filter></defs><g><!--class UnAckAlarms--><rect fill="#FFFFFF" filter="url(#f1l65y34izfw5u)" height="203.3516" id="UnAckAlarms" style="stroke: #A80036; stroke-width: 1.5;" width="182" x="646.5" y="7.65"/><text fill="#000000" font-family="sans-serif" font-size="12" lengthAdjust="spacingAndGlyphs" textLength="74" x="700.5" y="25.107">UnAckAlarms</text><text fill="#000000" font-family="sans-serif" font-size="12" lengthAdjust="spacingAndGlyphs" textLength="4" x="679.5" y="40.2008">(</text><text fill="#000000" font-family="sans-serif" font-size="9" font-style="italic" lengthAdjust="spacingAndGlyphs" textLength="17" x="683.5" y="40.86">from</text><a target="_top" xlink:actuate="onRequest" xlink:href="TMF642.svg" xlink:show="new" xlink:title="TMF642.svg" xlink:type="simple"><text fill="#0000FF" font-family="sans-serif" font-size="9" font-style="italic" lengthAdjust="spacingAndGlyphs" text-decoration="underline" textLength="60" x="703.5" y="40.86">TMF642-Alarm</text><line style="stroke: #0000FF; stroke-width: 1.0;" x1="703.5" x2="763.5" y1="42.86" y2="42.86"/></a><text fill="#000000" font-family="sans-serif" font-size="9" font-style="italic" lengthAdjust="spacingAndGlyphs" textLength="26" x="766.5" y="40.86">v4.0.0</text><text fill="#000000" font-family="sans-serif" font-size="9" lengthAdjust="spacingAndGlyphs" textLength="3" x="792.5" y="40.86">)</text><line style="stroke: #A80036; stroke-width: 1.5;" x1="647.5" x2="827.5" y1="47.8375" y2="47.8375"/><text fill="#000000" font-family="sans-serif" font-size="9" font-style="italic" lengthAdjust="spacingAndGlyphs" textLength="170" x="652.5" y="61.1803">Task resource for unacknowledge alarms</text><text fill="#000000" font-family="sans-serif" font-size="9" font-style="italic" lengthAdjust="spacingAndGlyphs" textLength="38" x="652.5" y="72.5006">operation</text><line style="stroke: #A80036; stroke-width: 1.0; stroke-dasharray: 1.0,2.0;" x1="647.5" x2="827.5" y1="78.4781" y2="78.4781"/><text fill="#000000" font-family="sans-serif" font-size="11" lengthAdjust="spacingAndGlyphs" textLength="98" x="652.5" y="93.8971">ackSystemId : String</text><text fill="#000000" font-family="sans-serif" font-size="11" lengthAdjust="spacingAndGlyphs" textLength="92" x="652.5" y="107.733">ackTime : DateTime</text><text fill="#000000" font-family="sans-serif" font-size="11" lengthAdjust="spacingAndGlyphs" textLength="85" x="652.5" y="121.5689">ackUserId : String</text><text fill="#000000" font-family="sans-serif" font-size="11" lengthAdjust="spacingAndGlyphs" textLength="57" x="652.5" y="135.4049">href : String</text><text fill="#000000" font-family="sans-serif" font-size="11" lengthAdjust="spacingAndGlyphs" textLength="45" x="652.5" y="149.2408">id : String</text><text fill="#000000" font-family="sans-serif" font-size="11" lengthAdjust="spacingAndGlyphs" textLength="61" x="652.5" y="163.0768">state : String</text><text fill="#000000" font-family="sans-serif" font-size="11" lengthAdjust="spacingAndGlyphs" textLength="96" x="652.5" y="176.9127">@baseType : String</text><text fill="#000000" font-family="sans-serif" font-size="11" lengthAdjust="spacingAndGlyphs" textLength="112" x="652.5" y="190.7486">@schemaLocation : Uri</text><text fill="#000000" font-family="sans-serif" font-size="11" lengthAdjust="spacingAndGlyphs" textLength="69" x="652.5" y="204.5846">@type : String</text><!--class AlarmRefOrValue--><rect fill="#FCF2E3" filter="url(#f1l65y34izfw5u)" height="462.0078" id="AlarmRefOrValue" style="stroke: #A80036; stroke-width: 1.5;" width="175" x="330" y="309"/><a target="_top" xlink:actuate="onRequest" xlink:href="Alarm.svg" xlink:show="new" xlink:title="Alarm.svg" xlink:type="simple"><text fill="#0000FF" font-family="sans-serif" font-size="12" lengthAdjust="spacingAndGlyphs" text-decoration="underline" textLength="32" x="370" y="326.457">Alarm</text><line style="stroke: #0000FF; stroke-width: 1.0;" x1="370" x2="402" y1="328.457" y2="328.457"/></a><text fill="#000000" font-family="sans-serif" font-size="12" lengthAdjust="spacingAndGlyphs" textLength="63" x="402" y="326.457">RefOrValue</text><line style="stroke: #A80036; stroke-width: 1.5;" x1="331" x2="504" y1="334.0938" y2="334.0938"/><text fill="#000000" font-family="sans-serif" font-size="11" lengthAdjust="spacingAndGlyphs" textLength="79" x="336" y="349.5127">ackState : String</text><text fill="#000000" font-family="sans-serif" font-size="11" lengthAdjust="spacingAndGlyphs" textLength="98" x="336" y="363.3486">ackSystemId : String</text><text fill="#000000" font-family="sans-serif" font-size="11" lengthAdjust="spacingAndGlyphs" textLength="85" x="336" y="377.1846">ackUserId : String</text><text fill="#000000" font-family="sans-serif" font-size="11" lengthAdjust="spacingAndGlyphs" textLength="144" x="336" y="391.0205">alarmChangedTime : DateTime</text><text fill="#000000" font-family="sans-serif" font-size="11" lengthAdjust="spacingAndGlyphs" textLength="138" x="336" y="404.8564">alarmClearedTime : DateTime</text><text fill="#000000" font-family="sans-serif" font-size="11" lengthAdjust="spacingAndGlyphs" textLength="95" x="336" y="418.6924">alarmDetails : String</text><text fill="#000000" font-family="sans-serif" font-size="11" lengthAdjust="spacingAndGlyphs" textLength="123" x="336" y="432.5283">alarmEscalation : Boolean</text><text fill="#000000" font-family="sans-serif" font-size="11" lengthAdjust="spacingAndGlyphs" textLength="134" x="336" y="446.3643">alarmRaisedTime : DateTime</text><text fill="#000000" font-family="sans-serif" font-size="11" lengthAdjust="spacingAndGlyphs" textLength="147" x="336" y="460.2002">alarmReportingTime : DateTime</text><text fill="#000000" font-family="sans-serif" font-size="11" lengthAdjust="spacingAndGlyphs" textLength="87" x="336" y="474.0361">alarmType : String</text><text fill="#000000" font-family="sans-serif" font-size="11" lengthAdjust="spacingAndGlyphs" textLength="130" x="336" y="487.8721">alarmedObjectType : String</text><text fill="#000000" font-family="sans-serif" font-size="11" lengthAdjust="spacingAndGlyphs" textLength="105" x="336" y="501.708">clearSystemId : String</text><text fill="#000000" font-family="sans-serif" font-size="11" lengthAdjust="spacingAndGlyphs" textLength="92" x="336" y="515.5439">clearUserId : String</text><text fill="#000000" font-family="sans-serif" font-size="11" lengthAdjust="spacingAndGlyphs" textLength="112" x="336" y="529.3799">externalAlarmId : String</text><text fill="#000000" font-family="sans-serif" font-size="11" lengthAdjust="spacingAndGlyphs" textLength="57" x="336" y="543.2158">href : String</text><text fill="#000000" font-family="sans-serif" font-size="11" lengthAdjust="spacingAndGlyphs" textLength="50" x="336" y="557.0518">id : Integer</text><text fill="#000000" font-family="sans-serif" font-size="11" lengthAdjust="spacingAndGlyphs" textLength="109" x="336" y="570.8877">isRootCause : Boolean</text><text fill="#000000" font-family="sans-serif" font-size="11" lengthAdjust="spacingAndGlyphs" textLength="63" x="336" y="584.7236">name : String</text><text fill="#000000" font-family="sans-serif" font-size="11" lengthAdjust="spacingAndGlyphs" textLength="125" x="336" y="598.5596">perceivedSeverity : String</text><text fill="#000000" font-family="sans-serif" font-size="11" lengthAdjust="spacingAndGlyphs" textLength="151" x="336" y="612.3955">plannedOutageIndicator : String</text><text fill="#000000" font-family="sans-serif" font-size="11" lengthAdjust="spacingAndGlyphs" textLength="110" x="336" y="626.2314">probableCause : String</text><text fill="#000000" font-family="sans-serif" font-size="11" lengthAdjust="spacingAndGlyphs" textLength="163" x="336" y="640.0674">proposedRepairedActions : String</text><text fill="#000000" font-family="sans-serif" font-size="11" lengthAdjust="spacingAndGlyphs" textLength="124" x="336" y="653.9033">reportingSystemId : String</text><text fill="#000000" font-family="sans-serif" font-size="11" lengthAdjust="spacingAndGlyphs" textLength="129" x="336" y="667.7393">serviceAffecting : Boolean</text><text fill="#000000" font-family="sans-serif" font-size="11" lengthAdjust="spacingAndGlyphs" textLength="115" x="336" y="681.5752">sourceSystemId : String</text><text fill="#000000" font-family="sans-serif" font-size="11" lengthAdjust="spacingAndGlyphs" textLength="113" x="336" y="695.4111">specificProblem : String</text><text fill="#000000" font-family="sans-serif" font-size="11" lengthAdjust="spacingAndGlyphs" textLength="61" x="336" y="709.2471">state : String</text><text fill="#000000" font-family="sans-serif" font-size="11" lengthAdjust="spacingAndGlyphs" textLength="96" x="336" y="723.083">@baseType : String</text><text fill="#000000" font-family="sans-serif" font-size="11" lengthAdjust="spacingAndGlyphs" textLength="112" x="336" y="736.9189">@referredType : String</text><text fill="#000000" font-family="sans-serif" font-size="11" lengthAdjust="spacingAndGlyphs" textLength="127" x="336" y="750.7549">@schemaLocation : String</text><text fill="#000000" font-family="sans-serif" font-size="11" lengthAdjust="spacingAndGlyphs" textLength="69" x="336" y="764.5908">@type : String</text><!--class AlarmRef--><rect fill="#FFFFE0" filter="url(#f1l65y34izfw5u)" height="129.9453" id="AlarmRef" style="stroke: #A80036; stroke-width: 1.5;" width="124" x="1071.5" y="903"/><a target="_top" xlink:actuate="onRequest" xlink:href="Alarm.svg" xlink:show="new" xlink:title="Alarm.svg" xlink:type="simple"><text fill="#0000FF" font-family="sans-serif" font-size="12" lengthAdjust="spacingAndGlyphs" text-decoration="underline" textLength="32" x="1108" y="920.457">Alarm</text><line style="stroke: #0000FF; stroke-width: 1.0;" x1="1108" x2="1140" y1="922.457" y2="922.457"/></a><text fill="#000000" font-family="sans-serif" font-size="12" lengthAdjust="spacingAndGlyphs" textLength="19" x="1140" y="920.457">Ref</text><line style="stroke: #A80036; stroke-width: 1.5;" x1="1072.5" x2="1194.5" y1="928.0938" y2="928.0938"/><text fill="#000000" font-family="sans-serif" font-size="11" lengthAdjust="spacingAndGlyphs" textLength="57" x="1077.5" y="943.5127">href : String</text><text fill="#000000" font-family="sans-serif" font-size="11" lengthAdjust="spacingAndGlyphs" textLength="45" x="1077.5" y="957.3486">id : String</text><text fill="#000000" font-family="sans-serif" font-size="11" lengthAdjust="spacingAndGlyphs" textLength="63" x="1077.5" y="971.1846">name : String</text><text fill="#000000" font-family="sans-serif" font-size="11" lengthAdjust="spacingAndGlyphs" textLength="96" x="1077.5" y="985.0205">@baseType : String</text><text fill="#000000" font-family="sans-serif" font-size="11" lengthAdjust="spacingAndGlyphs" textLength="112" x="1077.5" y="998.8564">@referredType : String</text><text fill="#000000" font-family="sans-serif" font-size="11" lengthAdjust="spacingAndGlyphs" textLength="112" x="1077.5" y="1012.6924">@schemaLocation : Uri</text><text fill="#000000" font-family="sans-serif" font-size="11" lengthAdjust="spacingAndGlyphs" textLength="69" x="1077.5" y="1026.5283">@type : String</text><!--class AlarmedObject--><rect fill="#FCF2E3" filter="url(#f1l65y34izfw5u)" height="102.2734" id="AlarmedObject" style="stroke: #A80036; stroke-width: 1.5;" width="124" x="323.5" y="916.5"/><text fill="#000000" font-family="sans-serif" font-size="12" lengthAdjust="spacingAndGlyphs" textLength="81" x="345" y="933.957">AlarmedObject</text><line style="stroke: #A80036; stroke-width: 1.5;" x1="324.5" x2="446.5" y1="941.5938" y2="941.5938"/><text fill="#000000" font-family="sans-serif" font-size="11" lengthAdjust="spacingAndGlyphs" textLength="57" x="329.5" y="957.0127">href : String</text><text fill="#000000" font-family="sans-serif" font-size="11" lengthAdjust="spacingAndGlyphs" textLength="45" x="329.5" y="970.8486">id : String</text><text fill="#000000" font-family="sans-serif" font-size="11" lengthAdjust="spacingAndGlyphs" textLength="96" x="329.5" y="984.6846">@baseType : String</text><text fill="#000000" font-family="sans-serif" font-size="11" lengthAdjust="spacingAndGlyphs" textLength="112" x="329.5" y="998.5205">@schemaLocation : Uri</text><text fill="#000000" font-family="sans-serif" font-size="11" lengthAdjust="spacingAndGlyphs" textLength="69" x="329.5" y="1012.3564">@type : String</text><!--class AffectedService--><rect fill="#FCF2E3" filter="url(#f1l65y34izfw5u)" height="102.2734" id="AffectedService" style="stroke: #A80036; stroke-width: 1.5;" width="124" x="676.5" y="489"/><text fill="#000000" font-family="sans-serif" font-size="12" lengthAdjust="spacingAndGlyphs" textLength="83" x="697" y="506.457">AffectedService</text><line style="stroke: #A80036; stroke-width: 1.5;" x1="677.5" x2="799.5" y1="514.0938" y2="514.0938"/><text fill="#000000" font-family="sans-serif" font-size="11" lengthAdjust="spacingAndGlyphs" textLength="57" x="682.5" y="529.5127">href : String</text><text fill="#000000" font-family="sans-serif" font-size="11" lengthAdjust="spacingAndGlyphs" textLength="45" x="682.5" y="543.3486">id : String</text><text fill="#000000" font-family="sans-serif" font-size="11" lengthAdjust="spacingAndGlyphs" textLength="96" x="682.5" y="557.1846">@baseType : String</text><text fill="#000000" font-family="sans-serif" font-size="11" lengthAdjust="spacingAndGlyphs" textLength="112" x="682.5" y="571.0205">@schemaLocation : Uri</text><text fill="#000000" font-family="sans-serif" font-size="11" lengthAdjust="spacingAndGlyphs" textLength="69" x="682.5" y="584.8564">@type : String</text><!--class RelatedPlaceRefOrValue--><rect fill="#FCF2E3" filter="url(#f1l65y34izfw5u)" height="143.7813" id="RelatedPlaceRefOrValue" style="stroke: #A80036; stroke-width: 1.5;" width="143" x="30" y="896"/><text fill="#000000" font-family="sans-serif" font-size="12" lengthAdjust="spacingAndGlyphs" textLength="43" x="33" y="913.457">Related</text><a target="_top" xlink:actuate="onRequest" xlink:href="Place.svg" xlink:show="new" xlink:title="Place.svg" xlink:type="simple"><text fill="#0000FF" font-family="sans-serif" font-size="12" lengthAdjust="spacingAndGlyphs" text-decoration="underline" textLength="31" x="76" y="913.457">Place</text><line style="stroke: #0000FF; stroke-width: 1.0;" x1="76" x2="107" y1="915.457" y2="915.457"/></a><text fill="#000000" font-family="sans-serif" font-size="12" lengthAdjust="spacingAndGlyphs" textLength="63" x="107" y="913.457">RefOrValue</text><line style="stroke: #A80036; stroke-width: 1.5;" x1="31" x2="172" y1="921.0938" y2="921.0938"/><text fill="#000000" font-family="sans-serif" font-size="11" lengthAdjust="spacingAndGlyphs" textLength="57" x="36" y="936.5127">href : String</text><text fill="#000000" font-family="sans-serif" font-size="11" lengthAdjust="spacingAndGlyphs" textLength="45" x="36" y="950.3486">id : String</text><text fill="#000000" font-family="sans-serif" font-size="11" lengthAdjust="spacingAndGlyphs" textLength="63" x="36" y="964.1846">name : String</text><text fill="#000000" font-family="sans-serif" font-size="11" lengthAdjust="spacingAndGlyphs" textLength="55" x="36" y="978.0205">role : String</text><text fill="#000000" font-family="sans-serif" font-size="11" lengthAdjust="spacingAndGlyphs" textLength="96" x="36" y="991.8564">@baseType : String</text><text fill="#000000" font-family="sans-serif" font-size="11" lengthAdjust="spacingAndGlyphs" textLength="112" x="36" y="1005.6924">@referredType : String</text><text fill="#000000" font-family="sans-serif" font-size="11" lengthAdjust="spacingAndGlyphs" textLength="112" x="36" y="1019.5283">@schemaLocation : Uri</text><text fill="#000000" font-family="sans-serif" font-size="11" lengthAdjust="spacingAndGlyphs" textLength="69" x="36" y="1033.3643">@type : String</text><!--class CrossedThresholdInformation--><rect fill="#FCF2E3" filter="url(#f1l65y34izfw5u)" height="157.6172" id="CrossedThresholdInformation" style="stroke: #A80036; stroke-width: 1.5;" width="191" x="565" y="889"/><text fill="#000000" font-family="sans-serif" font-size="12" lengthAdjust="spacingAndGlyphs" textLength="166" x="577.5" y="906.457">CrossedThresholdInformation</text><line style="stroke: #A80036; stroke-width: 1.5;" x1="566" x2="755" y1="914.0938" y2="914.0938"/><text fill="#000000" font-family="sans-serif" font-size="11" lengthAdjust="spacingAndGlyphs" textLength="78" x="571" y="929.5127">direction : String</text><text fill="#000000" font-family="sans-serif" font-size="11" lengthAdjust="spacingAndGlyphs" textLength="88" x="571" y="943.3486">granularity : String</text><text fill="#000000" font-family="sans-serif" font-size="11" lengthAdjust="spacingAndGlyphs" textLength="105" x="571" y="957.1846">indicatorName : String</text><text fill="#000000" font-family="sans-serif" font-size="11" lengthAdjust="spacingAndGlyphs" textLength="96" x="571" y="971.0205">indicatorUnit : String</text><text fill="#000000" font-family="sans-serif" font-size="11" lengthAdjust="spacingAndGlyphs" textLength="111" x="571" y="984.8564">observedValue : String</text><text fill="#000000" font-family="sans-serif" font-size="11" lengthAdjust="spacingAndGlyphs" textLength="179" x="571" y="998.6924">thresholdCrossingDescription : String</text><text fill="#000000" font-family="sans-serif" font-size="11" lengthAdjust="spacingAndGlyphs" textLength="96" x="571" y="1012.5283">@baseType : String</text><text fill="#000000" font-family="sans-serif" font-size="11" lengthAdjust="spacingAndGlyphs" textLength="112" x="571" y="1026.3643">@schemaLocation : Uri</text><text fill="#000000" font-family="sans-serif" font-size="11" lengthAdjust="spacingAndGlyphs" textLength="69" x="571" y="1040.2002">@type : String</text><!--class ThresholdRef--><rect fill="#FFFFE0" filter="url(#f1l65y34izfw5u)" height="129.9453" id="ThresholdRef" style="stroke: #A80036; stroke-width: 1.5;" width="124" x="598.5" y="1164"/><a target="_top" xlink:actuate="onRequest" xlink:href="Threshold.svg" xlink:show="new" xlink:title="Threshold.svg" xlink:type="simple"><text fill="#0000FF" font-family="sans-serif" font-size="12" lengthAdjust="spacingAndGlyphs" text-decoration="underline" textLength="56" x="623" y="1181.457">Threshold</text><line style="stroke: #0000FF; stroke-width: 1.0;" x1="623" x2="679" y1="1183.457" y2="1183.457"/></a><text fill="#000000" font-family="sans-serif" font-size="12" lengthAdjust="spacingAndGlyphs" textLength="19" x="679" y="1181.457">Ref</text><line style="stroke: #A80036; stroke-width: 1.5;" x1="599.5" x2="721.5" y1="1189.0938" y2="1189.0938"/><text fill="#000000" font-family="sans-serif" font-size="11" lengthAdjust="spacingAndGlyphs" textLength="57" x="604.5" y="1204.5127">href : String</text><text fill="#000000" font-family="sans-serif" font-size="11" lengthAdjust="spacingAndGlyphs" textLength="45" x="604.5" y="1218.3486">id : String</text><text fill="#000000" font-family="sans-serif" font-size="11" lengthAdjust="spacingAndGlyphs" textLength="63" x="604.5" y="1232.1846">name : String</text><text fill="#000000" font-family="sans-serif" font-size="11" lengthAdjust="spacingAndGlyphs" textLength="96" x="604.5" y="1246.0205">@baseType : String</text><text fill="#000000" font-family="sans-serif" font-size="11" lengthAdjust="spacingAndGlyphs" textLength="112" x="604.5" y="1259.8564">@referredType : String</text><text fill="#000000" font-family="sans-serif" font-size="11" lengthAdjust="spacingAndGlyphs" textLength="112" x="604.5" y="1273.6924">@schemaLocation : Uri</text><text fill="#000000" font-family="sans-serif" font-size="11" lengthAdjust="spacingAndGlyphs" textLength="69" x="604.5" y="1287.5283">@type : String</text><!--class Comment--><rect fill="#FCF2E3" filter="url(#f1l65y34izfw5u)" height="129.9453" id="Comment" style="stroke: #A80036; stroke-width: 1.5;" width="124" x="856.5" y="903"/><text fill="#000000" font-family="sans-serif" font-size="12" lengthAdjust="spacingAndGlyphs" textLength="55" x="891" y="920.457">Comment</text><line style="stroke: #A80036; stroke-width: 1.5;" x1="857.5" x2="979.5" y1="928.0938" y2="928.0938"/><text fill="#000000" font-family="sans-serif" font-size="11" lengthAdjust="spacingAndGlyphs" textLength="80" x="862.5" y="943.5127">comment : String</text><text fill="#000000" font-family="sans-serif" font-size="11" lengthAdjust="spacingAndGlyphs" textLength="80" x="862.5" y="957.3486">systemId : String</text><text fill="#000000" font-family="sans-serif" font-size="11" lengthAdjust="spacingAndGlyphs" textLength="72" x="862.5" y="971.1846">time : DateTime</text><text fill="#000000" font-family="sans-serif" font-size="11" lengthAdjust="spacingAndGlyphs" textLength="67" x="862.5" y="985.0205">userId : String</text><text fill="#000000" font-family="sans-serif" font-size="11" lengthAdjust="spacingAndGlyphs" textLength="96" x="862.5" y="998.8564">@baseType : String</text><text fill="#000000" font-family="sans-serif" font-size="11" lengthAdjust="spacingAndGlyphs" textLength="112" x="862.5" y="1012.6924">@schemaLocation : Uri</text><text fill="#000000" font-family="sans-serif" font-size="11" lengthAdjust="spacingAndGlyphs" textLength="69" x="862.5" y="1026.5283">@type : String</text><!--class Alarm--><rect fill="#FCF2E3" filter="url(#f1l65y34izfw5u)" height="434.3359" id="Alarm" style="stroke: #A80036; stroke-width: 1.5;" width="175" x="972" y="323"/><text fill="#000000" font-family="sans-serif" font-size="12" lengthAdjust="spacingAndGlyphs" textLength="32" x="1043.5" y="340.457">Alarm</text><line style="stroke: #A80036; stroke-width: 1.5;" x1="973" x2="1146" y1="348.0938" y2="348.0938"/><text fill="#000000" font-family="sans-serif" font-size="11" lengthAdjust="spacingAndGlyphs" textLength="79" x="978" y="363.5127">ackState : String</text><text fill="#000000" font-family="sans-serif" font-size="11" lengthAdjust="spacingAndGlyphs" textLength="98" x="978" y="377.3486">ackSystemId : String</text><text fill="#000000" font-family="sans-serif" font-size="11" lengthAdjust="spacingAndGlyphs" textLength="85" x="978" y="391.1846">ackUserId : String</text><text fill="#000000" font-family="sans-serif" font-size="11" lengthAdjust="spacingAndGlyphs" textLength="144" x="978" y="405.0205">alarmChangedTime : DateTime</text><text fill="#000000" font-family="sans-serif" font-size="11" lengthAdjust="spacingAndGlyphs" textLength="138" x="978" y="418.8564">alarmClearedTime : DateTime</text><text fill="#000000" font-family="sans-serif" font-size="11" lengthAdjust="spacingAndGlyphs" textLength="95" x="978" y="432.6924">alarmDetails : String</text><text fill="#000000" font-family="sans-serif" font-size="11" lengthAdjust="spacingAndGlyphs" textLength="123" x="978" y="446.5283">alarmEscalation : Boolean</text><text fill="#000000" font-family="sans-serif" font-size="11" lengthAdjust="spacingAndGlyphs" textLength="134" x="978" y="460.3643">alarmRaisedTime : DateTime</text><text fill="#000000" font-family="sans-serif" font-size="11" lengthAdjust="spacingAndGlyphs" textLength="147" x="978" y="474.2002">alarmReportingTime : DateTime</text><text fill="#000000" font-family="sans-serif" font-size="11" lengthAdjust="spacingAndGlyphs" textLength="87" x="978" y="488.0361">alarmType : String</text><text fill="#000000" font-family="sans-serif" font-size="11" lengthAdjust="spacingAndGlyphs" textLength="130" x="978" y="501.8721">alarmedObjectType : String</text><text fill="#000000" font-family="sans-serif" font-size="11" lengthAdjust="spacingAndGlyphs" textLength="105" x="978" y="515.708">clearSystemId : String</text><text fill="#000000" font-family="sans-serif" font-size="11" lengthAdjust="spacingAndGlyphs" textLength="92" x="978" y="529.5439">clearUserId : String</text><text fill="#000000" font-family="sans-serif" font-size="11" lengthAdjust="spacingAndGlyphs" textLength="112" x="978" y="543.3799">externalAlarmId : String</text><text fill="#000000" font-family="sans-serif" font-size="11" lengthAdjust="spacingAndGlyphs" textLength="57" x="978" y="557.2158">href : String</text><text fill="#000000" font-family="sans-serif" font-size="11" lengthAdjust="spacingAndGlyphs" textLength="50" x="978" y="571.0518">id : Integer</text><text fill="#000000" font-family="sans-serif" font-size="11" lengthAdjust="spacingAndGlyphs" textLength="109" x="978" y="584.8877">isRootCause : Boolean</text><text fill="#000000" font-family="sans-serif" font-size="11" lengthAdjust="spacingAndGlyphs" textLength="125" x="978" y="598.7236">perceivedSeverity : String</text><text fill="#000000" font-family="sans-serif" font-size="11" lengthAdjust="spacingAndGlyphs" textLength="151" x="978" y="612.5596">plannedOutageIndicator : String</text><text fill="#000000" font-family="sans-serif" font-size="11" lengthAdjust="spacingAndGlyphs" textLength="110" x="978" y="626.3955">probableCause : String</text><text fill="#000000" font-family="sans-serif" font-size="11" lengthAdjust="spacingAndGlyphs" textLength="163" x="978" y="640.2314">proposedRepairedActions : String</text><text fill="#000000" font-family="sans-serif" font-size="11" lengthAdjust="spacingAndGlyphs" textLength="124" x="978" y="654.0674">reportingSystemId : String</text><text fill="#000000" font-family="sans-serif" font-size="11" lengthAdjust="spacingAndGlyphs" textLength="129" x="978" y="667.9033">serviceAffecting : Boolean</text><text fill="#000000" font-family="sans-serif" font-size="11" lengthAdjust="spacingAndGlyphs" textLength="115" x="978" y="681.7393">sourceSystemId : String</text><text fill="#000000" font-family="sans-serif" font-size="11" lengthAdjust="spacingAndGlyphs" textLength="113" x="978" y="695.5752">specificProblem : String</text><text fill="#000000" font-family="sans-serif" font-size="11" lengthAdjust="spacingAndGlyphs" textLength="61" x="978" y="709.4111">state : String</text><text fill="#000000" font-family="sans-serif" font-size="11" lengthAdjust="spacingAndGlyphs" textLength="96" x="978" y="723.2471">@baseType : String</text><text fill="#000000" font-family="sans-serif" font-size="11" lengthAdjust="spacingAndGlyphs" textLength="127" x="978" y="737.083">@schemaLocation : String</text><text fill="#000000" font-family="sans-serif" font-size="11" lengthAdjust="spacingAndGlyphs" textLength="69" x="978" y="750.9189">@type : String</text><!--link UnAckAlarms to Alarm--><path d="M821.91,222.69 C865.37,280.55 918.54,351.34 963.55,411.27 " fill="none" id="UnAckAlarms-Alarm" style="stroke: #A80036; stroke-width: 1.0;"/><polygon fill="#A80036" points="971.24,421.5,969.0252,411.9034,968.2338,417.5046,962.6326,416.7132,971.24,421.5" style="stroke: #A80036; stroke-width: 1.0;"/><line style="stroke: #A80036; stroke-width: 1.0;" x1="968.2338" x2="963.435" y1="417.5046" y2="411.105"/><polygon fill="#A80036" points="814.31,212.58,814.7163,219.7796,821.5184,222.1737,821.1121,214.974,814.31,212.58" style="stroke: #A80036; stroke-width: 1.0;"/><text fill="#000000" font-family="sans-serif" font-size="13" lengthAdjust="spacingAndGlyphs" textLength="74" x="842.5" y="255.4951">alarmPattern</text><text fill="#000000" font-family="sans-serif" font-size="13" lengthAdjust="spacingAndGlyphs" textLength="20" x="944.0882" y="409.8302">0..*</text><!--link UnAckAlarms to AlarmRefOrValue--><path d="M653.65,222.65 C610.63,280.28 558.04,350.73 513.41,410.52 " fill="none" id="UnAckAlarms-AlarmRefOrValue" style="stroke: #A80036; stroke-width: 1.0;"/><polygon fill="#A80036" points="505.79,420.72,514.3826,415.9068,508.7838,416.7154,507.9752,411.1166,505.79,420.72" style="stroke: #A80036; stroke-width: 1.0;"/><line style="stroke: #A80036; stroke-width: 1.0;" x1="508.7838" x2="513.565" y1="416.7154" y2="410.305"/><polygon fill="#A80036" points="661.16,212.58,654.3658,214.9964,653.9832,222.1974,660.7774,219.7809,661.16,212.58" style="stroke: #A80036; stroke-width: 1.0;"/><text fill="#000000" font-family="sans-serif" font-size="13" lengthAdjust="spacingAndGlyphs" textLength="85" x="634.5" y="255.4951">unAckedAlarm</text><text fill="#000000" font-family="sans-serif" font-size="13" lengthAdjust="spacingAndGlyphs" textLength="20" x="513.4276" y="373.0139">0..*</text><!--link AlarmRefOrValue to AffectedService--><path d="M504.89,525.39 C518.69,523.56 532.83,521.99 546.25,521 C585.7,518.08 595.86,517.37 635.25,521 C645.05,521.9 655.31,523.28 665.39,524.89 " fill="none" id="AlarmRefOrValue-AffectedService" style="stroke: #A80036; stroke-width: 1.0;"/><polygon fill="#A80036" points="675.17,526.55,666.9638,521.1041,670.2401,525.7155,665.6287,528.9919,675.17,526.55" style="stroke: #A80036; stroke-width: 1.0;"/><line style="stroke: #A80036; stroke-width: 1.0;" x1="670.2401" x2="662.35" y1="525.7155" y2="524.38"/><polygon fill="#A80036" points="546.25,501,543.5188,507.6739,548.6288,512.7619,551.36,506.088,546.25,501" style="stroke: #A80036; stroke-width: 1.0;"/><text fill="#000000" font-family="sans-serif" font-size="13" lengthAdjust="spacingAndGlyphs" textLength="87" x="547.25" y="515.4951">affectedService</text><text fill="#000000" font-family="sans-serif" font-size="13" lengthAdjust="spacingAndGlyphs" textLength="20" x="648.3535" y="521.8484">0..*</text><!--link AffectedService to Alarm--><path d="M800.34,526.8 C813.91,524.39 828.27,522.24 841.75,521 C881.14,517.37 891.3,518.08 930.75,521 C940.5,521.72 950.63,522.75 960.73,523.95 " fill="none" id="AffectedService-Alarm" style="stroke: #A80036; stroke-width: 1.0;"/><polygon fill="#A80036" points="970.61,525.2,965.1583,520.48,958.7045,523.697,964.1562,528.417,970.61,525.2" style="stroke: #A80036; stroke-width: 1.0;"/><polygon fill="#A80036" points="841.75,501,839.6135,510.6143,842.7412,505.9008,847.4547,509.0285,841.75,501" style="stroke: #A80036; stroke-width: 1.0;"/><line style="stroke: #A80036; stroke-width: 1.0;" x1="842.7412" x2="886.25" y1="505.9008" y2="510"/><text fill="#000000" font-family="sans-serif" font-size="13" lengthAdjust="spacingAndGlyphs" textLength="87" x="842.75" y="515.4951">affectedService</text><text fill="#000000" font-family="sans-serif" font-size="13" lengthAdjust="spacingAndGlyphs" textLength="20" x="808.204" y="512.9211">0..*</text><!--link AlarmRefOrValue to AlarmRef--><path d="M513.91,689.22 C547.44,729 588.58,767.47 635.5,791 C792.08,869.54 875.7,735.34 1028.5,821 C1057.01,836.98 1079.79,864.31 1096.75,890.99 " fill="none" id="AlarmRefOrValue-AlarmRef" style="stroke: #A80036; stroke-width: 1.0;"/><polygon fill="#A80036" points="1103.34,901.87,1102.1008,892.0994,1100.7506,897.5928,1095.2572,896.2425,1103.34,901.87" style="stroke: #A80036; stroke-width: 1.0;"/><line style="stroke: #A80036; stroke-width: 1.0;" x1="1100.7506" x2="1096.6" y1="897.5928" y2="890.755"/><polygon fill="#A80036" points="505.84,679.42,506.5608,686.595,513.4611,688.6892,512.7403,681.5143,505.84,679.42" style="stroke: #A80036; stroke-width: 1.0;"/><text fill="#000000" font-family="sans-serif" font-size="13" lengthAdjust="spacingAndGlyphs" textLength="70" x="1052.5" y="835.4951">parentAlarm</text><text fill="#000000" font-family="sans-serif" font-size="13" lengthAdjust="spacingAndGlyphs" textLength="20" x="1079.5778" y="892.2676">0..*</text><!--link AlarmRefOrValue to AlarmRef--><path d="M513.98,687.5 C547.63,727.45 588.82,766.44 635.5,791 C738.45,845.16 784.85,785.11 895.5,821 C911.02,826.03 912.53,832.51 927.5,839 C968.12,856.61 983.93,847.26 1022.5,869 C1035.59,876.38 1048.5,885.48 1060.62,895.14 " fill="none" id="AlarmRefOrValue-AlarmRef" style="stroke: #A80036; stroke-width: 1.0;"/><polygon fill="#A80036" points="1070.36,903.16,1065.9621,894.3476,1066.5027,899.9786,1060.8718,900.5193,1070.36,903.16" style="stroke: #A80036; stroke-width: 1.0;"/><line style="stroke: #A80036; stroke-width: 1.0;" x1="1066.5027" x2="1060.325" y1="899.9786" y2="894.89"/><polygon fill="#A80036" points="505.88,677.66,506.6069,684.8344,513.5089,686.9228,512.7821,679.7484,505.88,677.66" style="stroke: #A80036; stroke-width: 1.0;"/><text fill="#000000" font-family="sans-serif" font-size="13" lengthAdjust="spacingAndGlyphs" textLength="91" x="928.5" y="835.4951">correlatedAlarm</text><text fill="#000000" font-family="sans-serif" font-size="13" lengthAdjust="spacingAndGlyphs" textLength="20" x="1043.6472" y="893.7866">0..*</text><!--link Alarm to AlarmRef--><path d="M1158.34,604.49 C1225.93,654.22 1310,730.09 1348.5,821 C1377.19,888.74 1281.88,929.25 1209.04,949.72 " fill="none" id="Alarm-AlarmRef" style="stroke: #A80036; stroke-width: 1.0;"/><polygon fill="#A80036" points="1196.74,953.03,1206.4694,954.5595,1201.569,951.7335,1204.3949,946.8331,1196.74,953.03" style="stroke: #A80036; stroke-width: 1.0;"/><line style="stroke: #A80036; stroke-width: 1.0;" x1="1201.569" x2="1209.29" y1="951.7335" y2="949.645"/><polygon fill="#A80036" points="1148.01,597.01,1150.5217,603.7695,1157.7274,604.0508,1155.2156,597.2913,1148.01,597.01" style="stroke: #A80036; stroke-width: 1.0;"/><text fill="#000000" font-family="sans-serif" font-size="13" lengthAdjust="spacingAndGlyphs" textLength="91" x="1352.5" y="835.4951">correlatedAlarm</text><text fill="#000000" font-family="sans-serif" font-size="13" lengthAdjust="spacingAndGlyphs" textLength="20" x="1203.1118" y="938.8875">0..*</text><!--link Alarm to AlarmRef--><path d="M1155.06,659.23 C1187.57,706.63 1219.87,763.58 1236.5,821 C1245.96,853.66 1228.33,885.08 1205.12,910.32 " fill="none" id="Alarm-AlarmRef" style="stroke: #A80036; stroke-width: 1.0;"/><polygon fill="#A80036" points="1196.32,919.3,1205.4762,915.6718,1199.8196,915.7289,1199.7625,910.0724,1196.32,919.3" style="stroke: #A80036; stroke-width: 1.0;"/><line style="stroke: #A80036; stroke-width: 1.0;" x1="1199.8196" x2="1205.42" y1="915.7289" y2="910.015"/><polygon fill="#A80036" points="1147.67,648.64,1147.8215,655.8495,1154.5347,658.4825,1154.3832,651.273,1147.67,648.64" style="stroke: #A80036; stroke-width: 1.0;"/><text fill="#000000" font-family="sans-serif" font-size="13" lengthAdjust="spacingAndGlyphs" textLength="70" x="1239.5" y="835.4951">parentAlarm</text><text fill="#000000" font-family="sans-serif" font-size="13" lengthAdjust="spacingAndGlyphs" textLength="20" x="1199.199" y="892.2448">0..*</text><!--link AlarmRefOrValue to AlarmedObject--><path d="M318.25,595.41 C241.8,643.52 141.75,721.48 96.5,821 C65.09,890.08 167.12,849.88 214.5,869 C247.64,882.37 282.23,901.09 311.57,918.55 " fill="none" id="AlarmRefOrValue-AlarmedObject" style="stroke: #A80036; stroke-width: 1.0;"/><polygon fill="#A80036" points="322.5,925.15,316.8679,917.0704,318.2213,922.563,312.7287,923.9164,322.5,925.15" style="stroke: #A80036; stroke-width: 1.0;"/><line style="stroke: #A80036; stroke-width: 1.0;" x1="318.2213" x2="311.375" y1="922.563" y2="918.435"/><polygon fill="#A80036" points="329.02,588.75,321.813,588.5061,318.816,595.0649,326.023,595.3088,329.02,588.75" style="stroke: #A80036; stroke-width: 1.0;"/><text fill="#000000" font-family="sans-serif" font-size="13" lengthAdjust="spacingAndGlyphs" textLength="84" x="97.5" y="835.4951">alarmedObject</text><text fill="#000000" font-family="sans-serif" font-size="13" lengthAdjust="spacingAndGlyphs" textLength="22" x="293.3941" y="917.7093">0..1</text><!--link Alarm to AlarmedObject--><path d="M962.91,689.23 C929.61,728.8 888.86,767.14 842.5,791 C717.06,855.56 653.66,759.91 526.5,821 C487.11,839.93 452.74,874.75 427.8,905.59 " fill="none" id="Alarm-AlarmedObject" style="stroke: #A80036; stroke-width: 1.0;"/><polygon fill="#A80036" points="419.98,915.54,428.6834,910.9301,423.0672,911.6069,422.3904,905.9907,419.98,915.54" style="stroke: #A80036; stroke-width: 1.0;"/><line style="stroke: #A80036; stroke-width: 1.0;" x1="423.0672" x2="428.01" y1="911.6069" y2="905.32"/><polygon fill="#A80036" points="971.14,679.22,964.2397,681.3143,963.5189,688.4892,970.4192,686.395,971.14,679.22" style="stroke: #A80036; stroke-width: 1.0;"/><text fill="#000000" font-family="sans-serif" font-size="13" lengthAdjust="spacingAndGlyphs" textLength="84" x="527.5" y="835.4951">alarmedObject</text><text fill="#000000" font-family="sans-serif" font-size="13" lengthAdjust="spacingAndGlyphs" textLength="22" x="400.362" y="905.599">0..1</text><!--link AlarmRefOrValue to Comment--><path d="M513.16,708.82 C548.76,757.69 593.39,806.6 645.5,839 C703.98,875.36 735.1,839.88 797.5,869 C814.16,876.77 830.52,887.31 845.56,898.6 " fill="none" id="AlarmRefOrValue-Comment" style="stroke: #A80036; stroke-width: 1.0;"/><polygon fill="#A80036" points="855.6,906.41,850.9558,897.7249,851.6547,903.3384,846.0412,904.0373,855.6,906.41" style="stroke: #A80036; stroke-width: 1.0;"/><line style="stroke: #A80036; stroke-width: 1.0;" x1="851.6547" x2="845.335" y1="903.3384" y2="898.43"/><polygon fill="#A80036" points="505.65,698.3,505.8807,705.5074,512.6224,708.0666,512.3917,700.8592,505.65,698.3" style="stroke: #A80036; stroke-width: 1.0;"/><text fill="#000000" font-family="sans-serif" font-size="13" lengthAdjust="spacingAndGlyphs" textLength="54" x="646.5" y="835.4951">comment</text><text fill="#000000" font-family="sans-serif" font-size="13" lengthAdjust="spacingAndGlyphs" textLength="20" x="828.4985" y="896.9198">0..*</text><!--link Alarm to Comment--><path d="M1151.74,697.56 C1168.2,746.51 1171.58,798.31 1140.5,839 C1109.74,879.27 1075.18,845.09 1030.5,869 C1017.01,876.22 1003.76,885.33 991.36,895.06 " fill="none" id="Alarm-Comment" style="stroke: #A80036; stroke-width: 1.0;"/><polygon fill="#A80036" points="981.4,903.19,990.9026,900.6014,985.2747,900.0298,985.8463,894.4019,981.4,903.19" style="stroke: #A80036; stroke-width: 1.0;"/><line style="stroke: #A80036; stroke-width: 1.0;" x1="985.2747" x2="991.475" y1="900.0298" y2="894.965"/><polygon fill="#A80036" points="1147.42,685.59,1145.7021,692.5935,1151.5061,696.8729,1153.224,689.8694,1147.42,685.59" style="stroke: #A80036; stroke-width: 1.0;"/><text fill="#000000" font-family="sans-serif" font-size="13" lengthAdjust="spacingAndGlyphs" textLength="54" x="1149.5" y="835.4951">comment</text><text fill="#000000" font-family="sans-serif" font-size="13" lengthAdjust="spacingAndGlyphs" textLength="20" x="967.1812" y="892.0062">0..*</text><!--link AlarmRefOrValue to RelatedPlaceRefOrValue--><path d="M317.54,585.06 C229.08,630.14 105.72,709.41 50.5,821 C40.86,840.48 42.47,862.25 49.16,882.88 " fill="none" id="AlarmRefOrValue-RelatedPlaceRefOrValue" style="stroke: #A80036; stroke-width: 1.0;"/><polygon fill="#A80036" points="53.68,894.83,54.226,884.9963,51.9057,890.1554,46.7466,887.8351,53.68,894.83" style="stroke: #A80036; stroke-width: 1.0;"/><line style="stroke: #A80036; stroke-width: 1.0;" x1="51.9057" x2="49.075" y1="890.1554" y2="882.675"/><polygon fill="#A80036" points="328.97,579.33,321.8133,578.4461,318.2448,584.7124,325.4015,585.5963,328.97,579.33" style="stroke: #A80036; stroke-width: 1.0;"/><text fill="#000000" font-family="sans-serif" font-size="13" lengthAdjust="spacingAndGlyphs" textLength="31" x="51.5" y="835.4951">place</text><text fill="#000000" font-family="sans-serif" font-size="13" lengthAdjust="spacingAndGlyphs" textLength="20" x="27.955" y="885.0536">0..*</text><!--link Alarm to RelatedPlaceRefOrValue--><path d="M963.06,691.12 C929.87,730.52 889.14,768.29 842.5,791 C723.07,849.15 366.77,766.79 245.5,821 C213.42,835.34 184.64,860.31 161.39,885.56 " fill="none" id="Alarm-RelatedPlaceRefOrValue" style="stroke: #A80036; stroke-width: 1.0;"/><polygon fill="#A80036" points="152.78,895.23,161.7508,891.1649,156.1035,891.4945,155.7739,885.8472,152.78,895.23" style="stroke: #A80036; stroke-width: 1.0;"/><line style="stroke: #A80036; stroke-width: 1.0;" x1="156.1035" x2="161.43" y1="891.4945" y2="885.525"/><polygon fill="#A80036" points="971.26,681.15,964.3597,683.2443,963.6389,690.4192,970.5392,688.325,971.26,681.15" style="stroke: #A80036; stroke-width: 1.0;"/><text fill="#000000" font-family="sans-serif" font-size="13" lengthAdjust="spacingAndGlyphs" textLength="31" x="246.5" y="835.4951">place</text><text fill="#000000" font-family="sans-serif" font-size="13" lengthAdjust="spacingAndGlyphs" textLength="20" x="136.1856" y="885.1757">0..*</text><!--link AlarmRefOrValue to CrossedThresholdInformation--><path d="M321.82,648.91 C279.56,709.88 248.86,784.55 295.5,839 C323.74,871.96 447.51,854.73 488.5,869 C509.98,876.48 531.86,886.61 552.49,897.53 " fill="none" id="AlarmRefOrValue-CrossedThresholdInformation" style="stroke: #A80036; stroke-width: 1.0;"/><polygon fill="#A80036" points="563.84,903.69,557.8406,895.8793,559.4463,901.3034,554.0221,902.9091,563.84,903.69" style="stroke: #A80036; stroke-width: 1.0;"/><line style="stroke: #A80036; stroke-width: 1.0;" x1="559.4463" x2="552.41" y1="901.3034" y2="897.485"/><polygon fill="#A80036" points="329.24,638.53,322.4967,641.0849,322.2614,648.2921,329.0047,645.7373,329.24,638.53" style="stroke: #A80036; stroke-width: 1.0;"/><text fill="#000000" font-family="sans-serif" font-size="13" lengthAdjust="spacingAndGlyphs" textLength="165" x="296.5" y="835.4951">crossedThresholdInformation</text><text fill="#000000" font-family="sans-serif" font-size="13" lengthAdjust="spacingAndGlyphs" textLength="22" x="535.0291" y="896.4521">0..1</text><!--link Alarm to CrossedThresholdInformation--><path d="M962.92,681.91 C929.06,722.31 887.99,762.96 842.5,791 C796.44,819.4 765.79,786.03 724.5,821 C707.32,835.55 694.58,855.61 685.21,876.19 " fill="none" id="Alarm-CrossedThresholdInformation" style="stroke: #A80036; stroke-width: 1.0;"/><polygon fill="#A80036" points="680.25,887.98,687.4273,881.2356,682.1891,883.3713,680.0533,878.1331,680.25,887.98" style="stroke: #A80036; stroke-width: 1.0;"/><line style="stroke: #A80036; stroke-width: 1.0;" x1="682.1891" x2="685.295" y1="883.3713" y2="875.995"/><polygon fill="#A80036" points="971.09,671.98,964.1897,674.0743,963.4689,681.2492,970.3692,679.155,971.09,671.98" style="stroke: #A80036; stroke-width: 1.0;"/><text fill="#000000" font-family="sans-serif" font-size="13" lengthAdjust="spacingAndGlyphs" textLength="165" x="725.5" y="835.4951">crossedThresholdInformation</text><text fill="#000000" font-family="sans-serif" font-size="13" lengthAdjust="spacingAndGlyphs" textLength="22" x="658.5015" y="877.9693">0..1</text><!--link CrossedThresholdInformation to ThresholdRef--><path d="M660.5,1060.3 C660.5,1089.53 660.5,1121.57 660.5,1149.71 " fill="none" id="CrossedThresholdInformation-ThresholdRef" style="stroke: #A80036; stroke-width: 1.0;"/><polygon fill="#A80036" points="660.5,1162.52,664.5,1153.52,660.5,1157.52,656.5,1153.52,660.5,1162.52" style="stroke: #A80036; stroke-width: 1.0;"/><line style="stroke: #A80036; stroke-width: 1.0;" x1="660.5" x2="660.5" y1="1157.52" y2="1149.52"/><polygon fill="#A80036" points="660.5,1047.37,656.5,1053.37,660.5,1059.37,664.5,1053.37,660.5,1047.37" style="stroke: #A80036; stroke-width: 1.0;"/><text fill="#000000" font-family="sans-serif" font-size="13" lengthAdjust="spacingAndGlyphs" textLength="53" x="661.5" y="1110.4951">threshold</text><text fill="#000000" font-family="sans-serif" font-size="13" lengthAdjust="spacingAndGlyphs" textLength="22" x="637.2281" y="1153.1114">0..1</text></g></svg>