<?xml version="1.0" encoding="us-ascii" standalone="no"?><svg xmlns="http://www.w3.org/2000/svg" xmlns:xlink="http://www.w3.org/1999/xlink" contentStyleType="text/css" height="1565px" preserveAspectRatio="none" style="width:1444px;height:1565px;background:#FFFFFF;" version="1.1" viewBox="0 0 1444 1565" width="1444px" zoomAndPan="magnify"><defs/><g><text fill="#888888" font-family="sans-serif" font-size="10" lengthAdjust="spacing" textLength="148" x="1282.4937" y="10.3809">Diagram generated at 12/22/23</text><text fill="#000000" font-family="sans-serif" font-size="14" font-weight="bold" lengthAdjust="spacing" textLength="192" x="619.2468" y="38.1113">TMF Schema Class Diagram</text><!--class UnAckAlarms--><g id="elem_UnAckAlarms"><rect codeLine="20" fill="#FFFFFF" height="257.4375" id="UnAckAlarms" rx="2.5" ry="2.5" style="stroke:#181818;stroke-width:0.5;" width="182" x="573.4937" y="59.1875"/><text fill="#000000" font-family="sans-serif" font-size="12" font-style="italic" lengthAdjust="spacing" textLength="41" x="643.9937" y="76.6445">&#171;Pivot&#187;</text><text fill="#000000" font-family="sans-serif" font-size="14" lengthAdjust="spacing" textLength="83" x="622.9937" y="93.8145">UnAckAlarms</text><text fill="#000000" font-family="sans-serif" font-size="14" lengthAdjust="spacing" textLength="5" x="605.9937" y="111.4238">(</text><text fill="#000000" font-family="sans-serif" font-size="9" font-style="italic" lengthAdjust="spacing" textLength="17" x="610.9937" y="112.5225">from</text><a href="TMF642.svg" target="_top" title="TMF642.svg" xlink:actuate="onRequest" xlink:href="TMF642.svg" xlink:show="new" xlink:title="TMF642.svg" xlink:type="simple"><text fill="#0000FF" font-family="sans-serif" font-size="9" font-style="italic" lengthAdjust="spacing" text-decoration="underline" textLength="60" x="630.9937" y="112.5225">TMF642-Alarm</text></a><text fill="#000000" font-family="sans-serif" font-size="9" font-style="italic" lengthAdjust="spacing" textLength="26" x="693.9937" y="112.5225">v4.0.0</text><text fill="#000000" font-family="sans-serif" font-size="9" lengthAdjust="spacing" textLength="3" x="719.9937" y="112.5225">)</text><line style="stroke:#181818;stroke-width:0.5;" x1="574.4937" x2="754.4937" y1="119.5" y2="119.5"/><text fill="#000000" font-family="sans-serif" font-size="9" font-style="italic" lengthAdjust="spacing" textLength="170" x="579.4937" y="132.8428">Task resource for unacknowledge alarms</text><text fill="#000000" font-family="sans-serif" font-size="9" font-style="italic" lengthAdjust="spacing" textLength="38" x="579.4937" y="144.1631">operation</text><line style="stroke:#181818;stroke-width:1.0;stroke-dasharray:1.0,2.0;" x1="574.4937" x2="754.4937" y1="150.1406" y2="150.1406"/><text fill="#000000" font-family="sans-serif" font-size="14" lengthAdjust="spacing" textLength="128" x="579.4937" y="168.6738">ackSystemId : String</text><text fill="#000000" font-family="sans-serif" font-size="14" lengthAdjust="spacing" textLength="126" x="579.4937" y="186.2832">ackTime : DateTime</text><text fill="#000000" font-family="sans-serif" font-size="14" lengthAdjust="spacing" textLength="111" x="579.4937" y="203.8926">ackUserId : String</text><text fill="#000000" font-family="sans-serif" font-size="14" lengthAdjust="spacing" textLength="74" x="579.4937" y="221.502">href : String</text><text fill="#000000" font-family="sans-serif" font-size="14" lengthAdjust="spacing" textLength="60" x="579.4937" y="239.1113">id : String</text><text fill="#000000" font-family="sans-serif" font-size="14" lengthAdjust="spacing" textLength="80" x="579.4937" y="256.7207">state : String</text><text fill="#000000" font-family="sans-serif" font-size="14" lengthAdjust="spacing" textLength="126" x="579.4937" y="274.3301">@baseType : String</text><text fill="#000000" font-family="sans-serif" font-size="14" lengthAdjust="spacing" textLength="146" x="579.4937" y="291.9395">@schemaLocation : Uri</text><text fill="#000000" font-family="sans-serif" font-size="14" lengthAdjust="spacing" textLength="90" x="579.4937" y="309.5488">@type : String</text></g><!--class AlarmRefOrValue--><g id="elem_AlarmRefOrValue"><rect codeLine="35" fill="#FCF2E3" height="581.5" id="AlarmRefOrValue" rx="2.5" ry="2.5" style="stroke:#181818;stroke-width:0.5;" width="225" x="681.9937" y="394.6275"/><a href="Alarm.svg" target="_top" title="Alarm.svg" xlink:actuate="onRequest" xlink:href="Alarm.svg" xlink:show="new" xlink:title="Alarm.svg" xlink:type="simple"><text fill="#0000FF" font-family="sans-serif" font-size="14" lengthAdjust="spacing" text-decoration="underline" textLength="36" x="739.4937" y="414.1607">Alarm</text></a><text fill="#000000" font-family="sans-serif" font-size="14" lengthAdjust="spacing" textLength="74" x="775.4937" y="414.1607">RefOrValue</text><line style="stroke:#181818;stroke-width:0.5;" x1="682.9937" x2="905.9937" y1="422.2369" y2="422.2369"/><text fill="#000000" font-family="sans-serif" font-size="14" lengthAdjust="spacing" textLength="104" x="687.9937" y="440.7701">ackState : String</text><text fill="#000000" font-family="sans-serif" font-size="14" lengthAdjust="spacing" textLength="128" x="687.9937" y="458.3795">ackSystemId : String</text><text fill="#000000" font-family="sans-serif" font-size="14" lengthAdjust="spacing" textLength="111" x="687.9937" y="475.9888">ackUserId : String</text><text fill="#000000" font-family="sans-serif" font-size="14" lengthAdjust="spacing" textLength="197" x="687.9937" y="493.5982">alarmChangedTime : DateTime</text><text fill="#000000" font-family="sans-serif" font-size="14" lengthAdjust="spacing" textLength="189" x="687.9937" y="511.2076">alarmClearedTime : DateTime</text><text fill="#000000" font-family="sans-serif" font-size="14" lengthAdjust="spacing" textLength="127" x="687.9937" y="528.817">alarmDetails : String</text><text fill="#000000" font-family="sans-serif" font-size="14" lengthAdjust="spacing" textLength="164" x="687.9937" y="546.4263">alarmEscalation : Boolean</text><text fill="#000000" font-family="sans-serif" font-size="14" lengthAdjust="spacing" textLength="183" x="687.9937" y="564.0357">alarmRaisedTime : DateTime</text><text fill="#000000" font-family="sans-serif" font-size="14" lengthAdjust="spacing" textLength="201" x="687.9937" y="581.6451">alarmReportingTime : DateTime</text><text fill="#000000" font-family="sans-serif" font-size="14" lengthAdjust="spacing" textLength="116" x="687.9937" y="599.2545">alarmType : String</text><text fill="#000000" font-family="sans-serif" font-size="14" lengthAdjust="spacing" textLength="173" x="687.9937" y="616.8638">alarmedObjectType : String</text><text fill="#000000" font-family="sans-serif" font-size="14" lengthAdjust="spacing" textLength="137" x="687.9937" y="634.4732">clearSystemId : String</text><text fill="#000000" font-family="sans-serif" font-size="14" lengthAdjust="spacing" textLength="120" x="687.9937" y="652.0826">clearUserId : String</text><text fill="#000000" font-family="sans-serif" font-size="14" lengthAdjust="spacing" textLength="146" x="687.9937" y="669.692">externalAlarmId : String</text><text fill="#000000" font-family="sans-serif" font-size="14" lengthAdjust="spacing" textLength="74" x="687.9937" y="687.3013">href : String</text><text fill="#000000" font-family="sans-serif" font-size="14" lengthAdjust="spacing" textLength="67" x="687.9937" y="704.9107">id : Integer</text><text fill="#000000" font-family="sans-serif" font-size="14" lengthAdjust="spacing" textLength="145" x="687.9937" y="722.5201">isRootCause : Boolean</text><text fill="#000000" font-family="sans-serif" font-size="14" lengthAdjust="spacing" textLength="84" x="687.9937" y="740.1295">name : String</text><text fill="#000000" font-family="sans-serif" font-size="14" lengthAdjust="spacing" textLength="162" x="687.9937" y="757.7388">perceivedSeverity : String</text><text fill="#000000" font-family="sans-serif" font-size="14" lengthAdjust="spacing" textLength="201" x="687.9937" y="775.3482">plannedOutageIndicator : String</text><text fill="#000000" font-family="sans-serif" font-size="14" lengthAdjust="spacing" textLength="146" x="687.9937" y="792.9576">probableCause : String</text><text fill="#000000" font-family="sans-serif" font-size="14" lengthAdjust="spacing" textLength="213" x="687.9937" y="810.567">proposedRepairedActions : String</text><text fill="#000000" font-family="sans-serif" font-size="14" lengthAdjust="spacing" textLength="163" x="687.9937" y="828.1763">reportingSystemId : String</text><text fill="#000000" font-family="sans-serif" font-size="14" lengthAdjust="spacing" textLength="164" x="687.9937" y="845.7857">serviceAffecting : Boolean</text><text fill="#000000" font-family="sans-serif" font-size="14" lengthAdjust="spacing" textLength="149" x="687.9937" y="863.3951">sourceSystemId : String</text><text fill="#000000" font-family="sans-serif" font-size="14" lengthAdjust="spacing" textLength="148" x="687.9937" y="881.0045">specificProblem : String</text><text fill="#000000" font-family="sans-serif" font-size="14" lengthAdjust="spacing" textLength="80" x="687.9937" y="898.6138">state : String</text><text fill="#000000" font-family="sans-serif" font-size="14" lengthAdjust="spacing" textLength="126" x="687.9937" y="916.2232">@baseType : String</text><text fill="#000000" font-family="sans-serif" font-size="14" lengthAdjust="spacing" textLength="146" x="687.9937" y="933.8326">@referredType : String</text><text fill="#000000" font-family="sans-serif" font-size="14" lengthAdjust="spacing" textLength="166" x="687.9937" y="951.442">@schemaLocation : String</text><text fill="#000000" font-family="sans-serif" font-size="14" lengthAdjust="spacing" textLength="90" x="687.9937" y="969.0513">@type : String</text></g><!--class AlarmRef--><g id="elem_AlarmRef"><rect codeLine="69" fill="#FFFFE0" height="173.9688" id="AlarmRef" rx="2.5" ry="2.5" style="stroke:#181818;stroke-width:0.5;" width="158" x="1022.4937" y="1064.1875"/><text fill="#000000" font-family="sans-serif" font-size="12" font-style="italic" lengthAdjust="spacing" textLength="33" x="1084.9937" y="1081.6445">&#171;Ref&#187;</text><a href="Alarm.svg" target="_top" title="Alarm.svg" xlink:actuate="onRequest" xlink:href="Alarm.svg" xlink:show="new" xlink:title="Alarm.svg" xlink:type="simple"><text fill="#0000FF" font-family="sans-serif" font-size="14" lengthAdjust="spacing" text-decoration="underline" textLength="36" x="1072.4937" y="1098.8145">Alarm</text></a><text fill="#000000" font-family="sans-serif" font-size="14" lengthAdjust="spacing" textLength="22" x="1108.4937" y="1098.8145">Ref</text><line style="stroke:#181818;stroke-width:0.5;" x1="1023.4937" x2="1179.4937" y1="1106.8906" y2="1106.8906"/><text fill="#000000" font-family="sans-serif" font-size="14" lengthAdjust="spacing" textLength="74" x="1028.4937" y="1125.4238">href : String</text><text fill="#000000" font-family="sans-serif" font-size="14" lengthAdjust="spacing" textLength="60" x="1028.4937" y="1143.0332">id : String</text><text fill="#000000" font-family="sans-serif" font-size="14" lengthAdjust="spacing" textLength="84" x="1028.4937" y="1160.6426">name : String</text><text fill="#000000" font-family="sans-serif" font-size="14" lengthAdjust="spacing" textLength="126" x="1028.4937" y="1178.252">@baseType : String</text><text fill="#000000" font-family="sans-serif" font-size="14" lengthAdjust="spacing" textLength="146" x="1028.4937" y="1195.8613">@referredType : String</text><text fill="#000000" font-family="sans-serif" font-size="14" lengthAdjust="spacing" textLength="146" x="1028.4937" y="1213.4707">@schemaLocation : Uri</text><text fill="#000000" font-family="sans-serif" font-size="14" lengthAdjust="spacing" textLength="90" x="1028.4937" y="1231.0801">@type : String</text></g><!--class AlarmedObject--><g id="elem_AlarmedObject"><rect codeLine="79" fill="#FCF2E3" height="123.6563" id="AlarmedObject" rx="2.5" ry="2.5" style="stroke:#181818;stroke-width:0.5;" width="158" x="285.4937" y="1089.3475"/><text fill="#000000" font-family="sans-serif" font-size="14" lengthAdjust="spacing" textLength="93" x="317.9937" y="1108.8807">AlarmedObject</text><line style="stroke:#181818;stroke-width:0.5;" x1="286.4937" x2="442.4937" y1="1116.9569" y2="1116.9569"/><text fill="#000000" font-family="sans-serif" font-size="14" lengthAdjust="spacing" textLength="74" x="291.4937" y="1135.4901">href : String</text><text fill="#000000" font-family="sans-serif" font-size="14" lengthAdjust="spacing" textLength="60" x="291.4937" y="1153.0995">id : String</text><text fill="#000000" font-family="sans-serif" font-size="14" lengthAdjust="spacing" textLength="126" x="291.4937" y="1170.7088">@baseType : String</text><text fill="#000000" font-family="sans-serif" font-size="14" lengthAdjust="spacing" textLength="146" x="291.4937" y="1188.3182">@schemaLocation : Uri</text><text fill="#000000" font-family="sans-serif" font-size="14" lengthAdjust="spacing" textLength="90" x="291.4937" y="1205.9276">@type : String</text></g><!--class AffectedService--><g id="elem_AffectedService"><rect codeLine="87" fill="#FCF2E3" height="123.6563" id="AffectedService" rx="2.5" ry="2.5" style="stroke:#181818;stroke-width:0.5;" width="158" x="1030.4937" y="623.5475"/><text fill="#000000" font-family="sans-serif" font-size="14" lengthAdjust="spacing" textLength="99" x="1059.9937" y="643.0807">AffectedService</text><line style="stroke:#181818;stroke-width:0.5;" x1="1031.4937" x2="1187.4937" y1="651.1569" y2="651.1569"/><text fill="#000000" font-family="sans-serif" font-size="14" lengthAdjust="spacing" textLength="74" x="1036.4937" y="669.6901">href : String</text><text fill="#000000" font-family="sans-serif" font-size="14" lengthAdjust="spacing" textLength="60" x="1036.4937" y="687.2995">id : String</text><text fill="#000000" font-family="sans-serif" font-size="14" lengthAdjust="spacing" textLength="126" x="1036.4937" y="704.9088">@baseType : String</text><text fill="#000000" font-family="sans-serif" font-size="14" lengthAdjust="spacing" textLength="146" x="1036.4937" y="722.5182">@schemaLocation : Uri</text><text fill="#000000" font-family="sans-serif" font-size="14" lengthAdjust="spacing" textLength="90" x="1036.4937" y="740.1276">@type : String</text></g><!--class RelatedPlaceRefOrValue--><g id="elem_RelatedPlaceRefOrValue"><rect codeLine="95" fill="#FCF2E3" height="176.4844" id="RelatedPlaceRefOrValue" rx="2.5" ry="2.5" style="stroke:#181818;stroke-width:0.5;" width="164" x="9.4937" y="1062.9275"/><text fill="#000000" font-family="sans-serif" font-size="14" lengthAdjust="spacing" textLength="49" x="12.4937" y="1082.4607">Related</text><a href="Place.svg" target="_top" title="Place.svg" xlink:actuate="onRequest" xlink:href="Place.svg" xlink:show="new" xlink:title="Place.svg" xlink:type="simple"><text fill="#0000FF" font-family="sans-serif" font-size="14" lengthAdjust="spacing" text-decoration="underline" textLength="35" x="61.4937" y="1082.4607">Place</text></a><text fill="#000000" font-family="sans-serif" font-size="14" lengthAdjust="spacing" textLength="74" x="96.4937" y="1082.4607">RefOrValue</text><line style="stroke:#181818;stroke-width:0.5;" x1="10.4937" x2="172.4937" y1="1090.5369" y2="1090.5369"/><text fill="#000000" font-family="sans-serif" font-size="14" lengthAdjust="spacing" textLength="74" x="15.4937" y="1109.0701">href : String</text><text fill="#000000" font-family="sans-serif" font-size="14" lengthAdjust="spacing" textLength="60" x="15.4937" y="1126.6795">id : String</text><text fill="#000000" font-family="sans-serif" font-size="14" lengthAdjust="spacing" textLength="84" x="15.4937" y="1144.2888">name : String</text><text fill="#000000" font-family="sans-serif" font-size="14" lengthAdjust="spacing" textLength="73" x="15.4937" y="1161.8982">role : String</text><text fill="#000000" font-family="sans-serif" font-size="14" lengthAdjust="spacing" textLength="126" x="15.4937" y="1179.5076">@baseType : String</text><text fill="#000000" font-family="sans-serif" font-size="14" lengthAdjust="spacing" textLength="146" x="15.4937" y="1197.117">@referredType : String</text><text fill="#000000" font-family="sans-serif" font-size="14" lengthAdjust="spacing" textLength="146" x="15.4937" y="1214.7263">@schemaLocation : Uri</text><text fill="#000000" font-family="sans-serif" font-size="14" lengthAdjust="spacing" textLength="90" x="15.4937" y="1232.3357">@type : String</text></g><!--class CrossedThresholdInformation--><g id="elem_CrossedThresholdInformation"><rect codeLine="106" fill="#FCF2E3" height="194.0938" id="CrossedThresholdInformation" rx="2.5" ry="2.5" style="stroke:#181818;stroke-width:0.5;" width="247" x="517.9937" y="1054.1275"/><text fill="#000000" font-family="sans-serif" font-size="14" lengthAdjust="spacing" textLength="187" x="547.9937" y="1073.6607">CrossedThresholdInformation</text><line style="stroke:#181818;stroke-width:0.5;" x1="518.9937" x2="763.9937" y1="1081.7369" y2="1081.7369"/><text fill="#000000" font-family="sans-serif" font-size="14" lengthAdjust="spacing" textLength="103" x="523.9937" y="1100.2701">direction : String</text><text fill="#000000" font-family="sans-serif" font-size="14" lengthAdjust="spacing" textLength="116" x="523.9937" y="1117.8795">granularity : String</text><text fill="#000000" font-family="sans-serif" font-size="14" lengthAdjust="spacing" textLength="139" x="523.9937" y="1135.4888">indicatorName : String</text><text fill="#000000" font-family="sans-serif" font-size="14" lengthAdjust="spacing" textLength="127" x="523.9937" y="1153.0982">indicatorUnit : String</text><text fill="#000000" font-family="sans-serif" font-size="14" lengthAdjust="spacing" textLength="144" x="523.9937" y="1170.7076">observedValue : String</text><text fill="#000000" font-family="sans-serif" font-size="14" lengthAdjust="spacing" textLength="235" x="523.9937" y="1188.317">thresholdCrossingDescription : String</text><text fill="#000000" font-family="sans-serif" font-size="14" lengthAdjust="spacing" textLength="126" x="523.9937" y="1205.9263">@baseType : String</text><text fill="#000000" font-family="sans-serif" font-size="14" lengthAdjust="spacing" textLength="146" x="523.9937" y="1223.5357">@schemaLocation : Uri</text><text fill="#000000" font-family="sans-serif" font-size="14" lengthAdjust="spacing" textLength="90" x="523.9937" y="1241.1451">@type : String</text></g><!--class ThresholdRef--><g id="elem_ThresholdRef"><rect codeLine="118" fill="#FFFFE0" height="173.9688" id="ThresholdRef" rx="2.5" ry="2.5" style="stroke:#181818;stroke-width:0.5;" width="158" x="562.4937" y="1326.2175"/><text fill="#000000" font-family="sans-serif" font-size="12" font-style="italic" lengthAdjust="spacing" textLength="33" x="624.9937" y="1343.6745">&#171;Ref&#187;</text><a href="Threshold.svg" target="_top" title="Threshold.svg" xlink:actuate="onRequest" xlink:href="Threshold.svg" xlink:show="new" xlink:title="Threshold.svg" xlink:type="simple"><text fill="#0000FF" font-family="sans-serif" font-size="14" lengthAdjust="spacing" text-decoration="underline" textLength="64" x="598.4937" y="1360.8445">Threshold</text></a><text fill="#000000" font-family="sans-serif" font-size="14" lengthAdjust="spacing" textLength="22" x="662.4937" y="1360.8445">Ref</text><line style="stroke:#181818;stroke-width:0.5;" x1="563.4937" x2="719.4937" y1="1368.9206" y2="1368.9206"/><text fill="#000000" font-family="sans-serif" font-size="14" lengthAdjust="spacing" textLength="74" x="568.4937" y="1387.4538">href : String</text><text fill="#000000" font-family="sans-serif" font-size="14" lengthAdjust="spacing" textLength="60" x="568.4937" y="1405.0632">id : String</text><text fill="#000000" font-family="sans-serif" font-size="14" lengthAdjust="spacing" textLength="84" x="568.4937" y="1422.6726">name : String</text><text fill="#000000" font-family="sans-serif" font-size="14" lengthAdjust="spacing" textLength="126" x="568.4937" y="1440.282">@baseType : String</text><text fill="#000000" font-family="sans-serif" font-size="14" lengthAdjust="spacing" textLength="146" x="568.4937" y="1457.8913">@referredType : String</text><text fill="#000000" font-family="sans-serif" font-size="14" lengthAdjust="spacing" textLength="146" x="568.4937" y="1475.5007">@schemaLocation : Uri</text><text fill="#000000" font-family="sans-serif" font-size="14" lengthAdjust="spacing" textLength="90" x="568.4937" y="1493.1101">@type : String</text></g><!--class Comment--><g id="elem_Comment"><rect codeLine="128" fill="#FCF2E3" height="158.875" id="Comment" rx="2.5" ry="2.5" style="stroke:#181818;stroke-width:0.5;" width="158" x="819.4937" y="1071.7375"/><text fill="#000000" font-family="sans-serif" font-size="14" lengthAdjust="spacing" textLength="60" x="868.4937" y="1091.2707">Comment</text><line style="stroke:#181818;stroke-width:0.5;" x1="820.4937" x2="976.4937" y1="1099.3469" y2="1099.3469"/><text fill="#000000" font-family="sans-serif" font-size="14" lengthAdjust="spacing" textLength="106" x="825.4937" y="1117.8801">comment : String</text><text fill="#000000" font-family="sans-serif" font-size="14" lengthAdjust="spacing" textLength="104" x="825.4937" y="1135.4895">systemId : String</text><text fill="#000000" font-family="sans-serif" font-size="14" lengthAdjust="spacing" textLength="99" x="825.4937" y="1153.0988">time : DateTime</text><text fill="#000000" font-family="sans-serif" font-size="14" lengthAdjust="spacing" textLength="88" x="825.4937" y="1170.7082">userId : String</text><text fill="#000000" font-family="sans-serif" font-size="14" lengthAdjust="spacing" textLength="126" x="825.4937" y="1188.3176">@baseType : String</text><text fill="#000000" font-family="sans-serif" font-size="14" lengthAdjust="spacing" textLength="146" x="825.4937" y="1205.927">@schemaLocation : Uri</text><text fill="#000000" font-family="sans-serif" font-size="14" lengthAdjust="spacing" textLength="90" x="825.4937" y="1223.5363">@type : String</text></g><!--class Alarm--><g id="elem_Alarm"><rect codeLine="138" fill="#FCF2E3" height="546.2813" id="Alarm" rx="2.5" ry="2.5" style="stroke:#181818;stroke-width:0.5;" width="225" x="421.9937" y="412.2375"/><text fill="#000000" font-family="sans-serif" font-size="14" lengthAdjust="spacing" textLength="36" x="516.4937" y="431.7707">Alarm</text><line style="stroke:#181818;stroke-width:0.5;" x1="422.9937" x2="645.9937" y1="439.8469" y2="439.8469"/><text fill="#000000" font-family="sans-serif" font-size="14" lengthAdjust="spacing" textLength="104" x="427.9937" y="458.3801">ackState : String</text><text fill="#000000" font-family="sans-serif" font-size="14" lengthAdjust="spacing" textLength="128" x="427.9937" y="475.9895">ackSystemId : String</text><text fill="#000000" font-family="sans-serif" font-size="14" lengthAdjust="spacing" textLength="111" x="427.9937" y="493.5988">ackUserId : String</text><text fill="#000000" font-family="sans-serif" font-size="14" lengthAdjust="spacing" textLength="197" x="427.9937" y="511.2082">alarmChangedTime : DateTime</text><text fill="#000000" font-family="sans-serif" font-size="14" lengthAdjust="spacing" textLength="189" x="427.9937" y="528.8176">alarmClearedTime : DateTime</text><text fill="#000000" font-family="sans-serif" font-size="14" lengthAdjust="spacing" textLength="127" x="427.9937" y="546.427">alarmDetails : String</text><text fill="#000000" font-family="sans-serif" font-size="14" lengthAdjust="spacing" textLength="164" x="427.9937" y="564.0363">alarmEscalation : Boolean</text><text fill="#000000" font-family="sans-serif" font-size="14" lengthAdjust="spacing" textLength="183" x="427.9937" y="581.6457">alarmRaisedTime : DateTime</text><text fill="#000000" font-family="sans-serif" font-size="14" lengthAdjust="spacing" textLength="201" x="427.9937" y="599.2551">alarmReportingTime : DateTime</text><text fill="#000000" font-family="sans-serif" font-size="14" lengthAdjust="spacing" textLength="116" x="427.9937" y="616.8645">alarmType : String</text><text fill="#000000" font-family="sans-serif" font-size="14" lengthAdjust="spacing" textLength="173" x="427.9937" y="634.4738">alarmedObjectType : String</text><text fill="#000000" font-family="sans-serif" font-size="14" lengthAdjust="spacing" textLength="137" x="427.9937" y="652.0832">clearSystemId : String</text><text fill="#000000" font-family="sans-serif" font-size="14" lengthAdjust="spacing" textLength="120" x="427.9937" y="669.6926">clearUserId : String</text><text fill="#000000" font-family="sans-serif" font-size="14" lengthAdjust="spacing" textLength="146" x="427.9937" y="687.302">externalAlarmId : String</text><text fill="#000000" font-family="sans-serif" font-size="14" lengthAdjust="spacing" textLength="74" x="427.9937" y="704.9113">href : String</text><text fill="#000000" font-family="sans-serif" font-size="14" lengthAdjust="spacing" textLength="67" x="427.9937" y="722.5207">id : Integer</text><text fill="#000000" font-family="sans-serif" font-size="14" lengthAdjust="spacing" textLength="145" x="427.9937" y="740.1301">isRootCause : Boolean</text><text fill="#000000" font-family="sans-serif" font-size="14" lengthAdjust="spacing" textLength="162" x="427.9937" y="757.7395">perceivedSeverity : String</text><text fill="#000000" font-family="sans-serif" font-size="14" lengthAdjust="spacing" textLength="201" x="427.9937" y="775.3488">plannedOutageIndicator : String</text><text fill="#000000" font-family="sans-serif" font-size="14" lengthAdjust="spacing" textLength="146" x="427.9937" y="792.9582">probableCause : String</text><text fill="#000000" font-family="sans-serif" font-size="14" lengthAdjust="spacing" textLength="213" x="427.9937" y="810.5676">proposedRepairedActions : String</text><text fill="#000000" font-family="sans-serif" font-size="14" lengthAdjust="spacing" textLength="163" x="427.9937" y="828.177">reportingSystemId : String</text><text fill="#000000" font-family="sans-serif" font-size="14" lengthAdjust="spacing" textLength="164" x="427.9937" y="845.7863">serviceAffecting : Boolean</text><text fill="#000000" font-family="sans-serif" font-size="14" lengthAdjust="spacing" textLength="149" x="427.9937" y="863.3957">sourceSystemId : String</text><text fill="#000000" font-family="sans-serif" font-size="14" lengthAdjust="spacing" textLength="148" x="427.9937" y="881.0051">specificProblem : String</text><text fill="#000000" font-family="sans-serif" font-size="14" lengthAdjust="spacing" textLength="80" x="427.9937" y="898.6145">state : String</text><text fill="#000000" font-family="sans-serif" font-size="14" lengthAdjust="spacing" textLength="126" x="427.9937" y="916.2238">@baseType : String</text><text fill="#000000" font-family="sans-serif" font-size="14" lengthAdjust="spacing" textLength="166" x="427.9937" y="933.8332">@schemaLocation : String</text><text fill="#000000" font-family="sans-serif" font-size="14" lengthAdjust="spacing" textLength="90" x="427.9937" y="951.4426">@type : String</text></g><!--link UnAckAlarms to Alarm--><g id="link_UnAckAlarms_Alarm"><path codeLine="170" d="M627.8875,328.4344 C620.1375,357.9644 616.1664,373.0739 607.4764,406.1939 " fill="none" id="UnAckAlarms-Alarm" style="stroke:#181818;stroke-width:1.0;"/><polygon fill="#181818" points="630.9337,316.8275,625.5416,321.6156,627.8875,328.4344,633.2796,323.6464,630.9337,316.8275" style="stroke:#181818;stroke-width:1.0;"/><polygon fill="#181818" points="605.9537,411.9975,612.1068,404.3073,607.2226,407.1612,604.3687,402.277,605.9537,411.9975" style="stroke:#181818;stroke-width:1.0;"/><text fill="#000000" font-family="sans-serif" font-size="13" lengthAdjust="spacing" textLength="74" x="623.4937" y="361.1226">alarmPattern</text><text fill="#000000" font-family="sans-serif" font-size="13" lengthAdjust="spacing" textLength="20" x="587.7783" y="401.1443">0..*</text></g><!--link UnAckAlarms to AlarmRefOrValue--><g id="link_UnAckAlarms_AlarmRefOrValue"><path codeLine="172" d="M701.6657,328.3176 C704.3457,338.4376 703.9337,336.8975 706.4937,346.6275 C710.5837,362.1575 713.2506,372.284 717.4706,388.364 " fill="none" id="UnAckAlarms-AlarmRefOrValue" style="stroke:#181818;stroke-width:1.0;"/><polygon fill="#181818" points="698.5937,316.7175,696.263,323.5416,701.6657,328.3176,703.9964,321.4936,698.5937,316.7175" style="stroke:#181818;stroke-width:1.0;"/><polygon fill="#181818" points="718.9937,394.1675,720.5781,384.4469,717.7245,389.3313,712.8401,386.4777,718.9937,394.1675" style="stroke:#181818;stroke-width:1.0;"/><text fill="#000000" font-family="sans-serif" font-size="13" lengthAdjust="spacing" textLength="85" x="709.4937" y="361.1226">unAckedAlarm</text><text fill="#000000" font-family="sans-serif" font-size="13" lengthAdjust="spacing" textLength="20" x="696.7226" y="383.7195">0..*</text></g><!--link AlarmRefOrValue to AffectedService--><g id="link_AlarmRefOrValue_AffectedService"><path codeLine="174" d="M919.3237,685.3775 C959.9337,685.3775 986.8537,685.3775 1024.0137,685.3775 " fill="none" id="AlarmRefOrValue-AffectedService" style="stroke:#181818;stroke-width:1.0;"/><polygon fill="#181818" points="907.3237,685.3775,913.3237,689.3775,919.3237,685.3775,913.3237,681.3775,907.3237,685.3775" style="stroke:#181818;stroke-width:1.0;"/><polygon fill="#181818" points="1030.0137,685.3775,1021.0137,681.3775,1025.0137,685.3775,1021.0137,689.3775,1030.0137,685.3775" style="stroke:#181818;stroke-width:1.0;"/><text fill="#000000" font-family="sans-serif" font-size="13" lengthAdjust="spacing" textLength="87" x="925.2437" y="678.8726">affectedService</text><text fill="#000000" font-family="sans-serif" font-size="13" lengthAdjust="spacing" textLength="20" x="1002.6036" y="699.5498">0..*</text></g><!--link Alarm to AffectedService--><g id="link_Alarm_AffectedService"><path codeLine="176" d="M656.4298,406.5984 C661.9298,402.0484 658.4537,405.4575 664.4937,401.5875 C761.7437,339.1675 822.8937,346.5375 924.4937,401.5875 C1010.8537,448.3775 1061.1311,549.2793 1087.1411,617.6793 " fill="none" id="Alarm-AffectedService" style="stroke:#181818;stroke-width:1.0;"/><polygon fill="#181818" points="647.1837,414.2475,654.3565,413.505,656.4298,406.5984,649.2571,407.3409,647.1837,414.2475" style="stroke:#181818;stroke-width:1.0;"/><polygon fill="#181818" points="1089.2737,623.2875,1089.8136,613.4535,1087.4965,618.614,1082.336,616.2969,1089.2737,623.2875" style="stroke:#181818;stroke-width:1.0;"/><text fill="#000000" font-family="sans-serif" font-size="13" lengthAdjust="spacing" textLength="87" x="896.9937" y="361.1226">affectedService</text><text fill="#000000" font-family="sans-serif" font-size="13" lengthAdjust="spacing" textLength="20" x="1065.7795" y="612.699">0..*</text></g><!--link AlarmRefOrValue to AlarmRef--><g id="link_AlarmRefOrValue_AlarmRef"><path codeLine="178" d="M914.8676,892.5091 C944.7476,929.0691 972.6737,953.5275 1013.4937,976.1275 C1080.0437,1012.9775 1303.1137,950.0275 1354.4937,1006.1275 C1413.9837,1071.0775 1281.1311,1113.0474 1186.4711,1134.0574 " fill="none" id="AlarmRefOrValue-AlarmRef" style="stroke:#181818;stroke-width:1.0;"/><polygon fill="#181818" points="907.2737,883.2175,907.9734,890.3946,914.8676,892.5091,914.1678,885.332,907.2737,883.2175" style="stroke:#181818;stroke-width:1.0;"/><polygon fill="#181818" points="1180.6137,1135.3575,1190.2666,1137.3124,1185.4949,1134.2741,1188.5332,1129.5024,1180.6137,1135.3575" style="stroke:#181818;stroke-width:1.0;"/><text fill="#000000" font-family="sans-serif" font-size="13" lengthAdjust="spacing" textLength="70" x="1366.4937" y="1020.6226">parentAlarm</text><text fill="#000000" font-family="sans-serif" font-size="13" lengthAdjust="spacing" textLength="20" x="1188.5509" y="1130.7473">0..*</text></g><!--link AlarmRefOrValue to AlarmRef--><g id="link_AlarmRefOrValue_AlarmRef"><path codeLine="180" d="M914.9942,888.6705 C945.0342,925.9405 973.0437,951.6175 1013.4937,976.1275 C1082.4837,1017.9275 1140.3837,944.5475 1192.4937,1006.1275 C1212.2737,1029.4975 1204.9507,1052.8474 1184.7207,1077.9274 " fill="none" id="AlarmRefOrValue-AlarmRef-1" style="stroke:#181818;stroke-width:1.0;"/><polygon fill="#181818" points="907.4637,879.3275,908.1146,886.5092,914.9942,888.6705,914.3433,881.4888,907.4637,879.3275" style="stroke:#181818;stroke-width:1.0;"/><polygon fill="#181818" points="1180.9537,1082.5975,1189.7176,1078.1037,1184.0928,1078.7058,1183.4908,1073.081,1180.9537,1082.5975" style="stroke:#181818;stroke-width:1.0;"/><text fill="#000000" font-family="sans-serif" font-size="13" lengthAdjust="spacing" textLength="91" x="1201.4937" y="1020.6226">correlatedAlarm</text><text fill="#000000" font-family="sans-serif" font-size="13" lengthAdjust="spacing" textLength="20" x="1188.3621" y="1073.7659">0..*</text></g><!--link Alarm to AlarmRef--><g id="link_Alarm_AlarmRef"><path codeLine="182" d="M652.2234,967.0316 C658.8234,973.2716 657.0937,970.8375 664.4937,976.1275 C724.0537,1018.6575 928.5137,970.5775 992.4937,1006.1275 C1017.0337,1019.7575 1034.1744,1036.6372 1050.7244,1059.0972 " fill="none" id="Alarm-AlarmRef" style="stroke:#181818;stroke-width:1.0;"/><polygon fill="#181818" points="643.5037,958.7875,645.1155,965.8162,652.2234,967.0316,650.6116,960.003,643.5037,958.7875" style="stroke:#181818;stroke-width:1.0;"/><polygon fill="#181818" points="1054.2837,1063.9275,1052.165,1054.3092,1051.3176,1059.9023,1045.7246,1059.0549,1054.2837,1063.9275" style="stroke:#181818;stroke-width:1.0;"/><text fill="#000000" font-family="sans-serif" font-size="13" lengthAdjust="spacing" textLength="91" x="1016.4937" y="1020.6226">correlatedAlarm</text><text fill="#000000" font-family="sans-serif" font-size="13" lengthAdjust="spacing" textLength="20" x="1029.3672" y="1053.2527">0..*</text></g><!--link Alarm to AlarmRef--><g id="link_Alarm_AlarmRef"><path codeLine="184" d="M653.0868,967.194 C659.3968,973.374 657.4737,970.7875 664.4937,976.1275 C734.9937,1029.7275 775.6537,984.3175 861.4937,1006.1275 C865.3037,1007.0875 991.1237,1052.1075 994.4937,1054.1275 C1003.9237,1059.7575 1008.5134,1062.6321 1017.5334,1069.5921 " fill="none" id="Alarm-AlarmRef-1" style="stroke:#181818;stroke-width:1.0;"/><polygon fill="#181818" points="644.5137,958.7975,646.0014,965.8535,653.0868,967.194,651.5991,960.138,644.5137,958.7975" style="stroke:#181818;stroke-width:1.0;"/><polygon fill="#181818" points="1022.2837,1073.2575,1017.6019,1064.5926,1018.3251,1070.203,1012.7147,1070.9263,1022.2837,1073.2575" style="stroke:#181818;stroke-width:1.0;"/><text fill="#000000" font-family="sans-serif" font-size="13" lengthAdjust="spacing" textLength="70" x="909.4937" y="1020.6226">parentAlarm</text><text fill="#000000" font-family="sans-serif" font-size="13" lengthAdjust="spacing" textLength="20" x="994.6172" y="1063.3845">0..*</text></g><!--link AlarmRefOrValue to AlarmedObject--><g id="link_AlarmRefOrValue_AlarmedObject"><path codeLine="186" d="M673.2597,969.1439 C667.7597,974.5939 670.5237,971.3075 664.4937,976.1275 C612.0737,1018.0375 576.0437,975.1775 516.4937,1006.1275 C477.4637,1026.4075 445.4339,1055.2892 418.2239,1084.7592 " fill="none" id="AlarmRefOrValue-AlarmedObject" style="stroke:#181818;stroke-width:1.0;"/><polygon fill="#181818" points="681.7837,960.6975,674.7062,962.0794,673.2597,969.1439,680.3372,967.762,681.7837,960.6975" style="stroke:#181818;stroke-width:1.0;"/><polygon fill="#181818" points="414.1537,1089.1675,423.1979,1085.2685,417.5456,1085.4939,417.3202,1079.8416,414.1537,1089.1675" style="stroke:#181818;stroke-width:1.0;"/><text fill="#000000" font-family="sans-serif" font-size="13" lengthAdjust="spacing" textLength="84" x="517.4937" y="1020.6226">alarmedObject</text><text fill="#000000" font-family="sans-serif" font-size="13" lengthAdjust="spacing" textLength="22" x="396.6238" y="1078.5883">0..1</text></g><!--link Alarm to AlarmedObject--><g id="link_Alarm_AlarmedObject"><path codeLine="188" d="M410.6114,734.5089 C301.1314,783.2589 152.4637,869.1575 81.4937,1006.1275 C48.1337,1070.4975 134.5937,1030.9675 191.4937,1054.1275 C223.1537,1067.0075 251.1248,1081.4097 279.8648,1097.8397 " fill="none" id="Alarm-AlarmedObject" style="stroke:#181818;stroke-width:1.0;"/><polygon fill="#181818" points="421.5737,729.6275,414.4654,728.4141,410.6114,734.5089,417.7197,735.7223,421.5737,729.6275" style="stroke:#181818;stroke-width:1.0;"/><polygon fill="#181818" points="285.0737,1100.8175,279.2455,1092.8782,280.7329,1098.336,275.2751,1099.8234,285.0737,1100.8175" style="stroke:#181818;stroke-width:1.0;"/><text fill="#000000" font-family="sans-serif" font-size="13" lengthAdjust="spacing" textLength="84" x="82.4937" y="1020.6226">alarmedObject</text><text fill="#000000" font-family="sans-serif" font-size="13" lengthAdjust="spacing" textLength="22" x="255.5858" y="1093.4944">0..1</text></g><!--link AlarmRefOrValue to Comment--><g id="link_AlarmRefOrValue_Comment"><path codeLine="190" d="M914.653,883.2554 C945.043,921.6354 973.3537,949.0975 1013.4937,976.1275 C1056.2337,1004.9075 1094.1237,965.2475 1125.4937,1006.1275 C1130.3637,1012.4675 1130.4137,1017.8175 1125.4937,1024.1275 C1091.6637,1067.4575 1054.0437,1028.3375 1005.4937,1054.1275 C996.0137,1059.1575 991.5359,1061.6609 982.5959,1068.2409 " fill="none" id="AlarmRefOrValue-Comment" style="stroke:#181818;stroke-width:1.0;"/><polygon fill="#181818" points="907.2037,873.8475,907.7924,881.0345,914.653,883.2554,914.0643,876.0683,907.2037,873.8475" style="stroke:#181818;stroke-width:1.0;"/><polygon fill="#181818" points="977.7637,1071.7975,987.3831,1069.6841,981.7906,1068.8337,982.641,1063.2411,977.7637,1071.7975" style="stroke:#181818;stroke-width:1.0;"/><text fill="#000000" font-family="sans-serif" font-size="13" lengthAdjust="spacing" textLength="54" x="1129.4937" y="1020.6226">comment</text><text fill="#000000" font-family="sans-serif" font-size="13" lengthAdjust="spacing" textLength="20" x="964.366" y="1060.9812">0..*</text></g><!--link Alarm to Comment--><g id="link_Alarm_Comment"><path codeLine="192" d="M580.2567,969.7074 C592.4767,993.9974 602.6637,1005.6275 622.4937,1024.1275 C675.4037,1073.4775 716.9837,1023.4075 782.4937,1054.1275 C795.0437,1060.0075 802.4756,1064.088 814.1356,1072.388 " fill="none" id="Alarm-Comment" style="stroke:#181818;stroke-width:1.0;"/><polygon fill="#181818" points="574.8637,958.9875,573.9869,966.1451,580.2567,969.7074,581.1335,962.5498,574.8637,958.9875" style="stroke:#181818;stroke-width:1.0;"/><polygon fill="#181818" points="819.0237,1075.8675,814.0113,1067.3896,814.9503,1072.9679,809.3719,1073.907,819.0237,1075.8675" style="stroke:#181818;stroke-width:1.0;"/><text fill="#000000" font-family="sans-serif" font-size="13" lengthAdjust="spacing" textLength="54" x="623.4937" y="1020.6226">comment</text><text fill="#000000" font-family="sans-serif" font-size="13" lengthAdjust="spacing" textLength="20" x="791.6145" y="1066.4783">0..*</text></g><!--link AlarmRefOrValue to RelatedPlaceRefOrValue--><g id="link_AlarmRefOrValue_RelatedPlaceRefOrValue"><path codeLine="194" d="M672.6676,970.5491 C667.2076,975.3691 670.4837,971.9475 664.4937,976.1275 C584.6437,1031.7875 315.5037,964.5475 227.4937,1006.1275 C199.9737,1019.1275 179.3039,1035.9584 158.7039,1058.1684 " fill="none" id="AlarmRefOrValue-RelatedPlaceRefOrValue" style="stroke:#181818;stroke-width:1.0;"/><polygon fill="#181818" points="681.6637,962.6075,674.5184,963.5796,672.6676,970.5491,679.8128,969.577,681.6637,962.6075" style="stroke:#181818;stroke-width:1.0;"/><polygon fill="#181818" points="154.6237,1062.5675,163.6767,1058.689,158.0239,1058.9016,157.8113,1053.2487,154.6237,1062.5675" style="stroke:#181818;stroke-width:1.0;"/><text fill="#000000" font-family="sans-serif" font-size="13" lengthAdjust="spacing" textLength="31" x="228.4937" y="1020.6226">place</text><text fill="#000000" font-family="sans-serif" font-size="13" lengthAdjust="spacing" textLength="20" x="139.0235" y="1052.0773">0..*</text></g><!--link Alarm to RelatedPlaceRefOrValue--><g id="link_Alarm_RelatedPlaceRefOrValue"><path codeLine="196" d="M410.3964,726.2107 C289.8364,771.0507 116.3237,856.6575 34.4937,1006.1275 C24.8037,1023.8175 23.8523,1037.7938 29.9423,1056.7938 " fill="none" id="Alarm-RelatedPlaceRefOrValue" style="stroke:#181818;stroke-width:1.0;"/><polygon fill="#181818" points="421.6437,722.0275,414.6257,720.37,410.3964,726.2107,417.4145,727.8682,421.6437,722.0275" style="stroke:#181818;stroke-width:1.0;"/><polygon fill="#181818" points="31.7737,1062.5075,32.8357,1052.7161,30.2475,1057.7461,25.2175,1055.1579,31.7737,1062.5075" style="stroke:#181818;stroke-width:1.0;"/><text fill="#000000" font-family="sans-serif" font-size="13" lengthAdjust="spacing" textLength="31" x="35.4937" y="1020.6226">place</text><text fill="#000000" font-family="sans-serif" font-size="13" lengthAdjust="spacing" textLength="20" x="6" y="1052.0123">0..*</text></g><!--link AlarmRefOrValue to CrossedThresholdInformation--><g id="link_AlarmRefOrValue_CrossedThresholdInformation"><path codeLine="198" d="M695.0336,987.8732 C685.9236,1015.4832 682.8436,1024.8196 675.0736,1048.3696 " fill="none" id="AlarmRefOrValue-CrossedThresholdInformation" style="stroke:#181818;stroke-width:1.0;"/><polygon fill="#181818" points="698.7937,976.4775,693.1151,980.922,695.0336,987.8732,700.7122,983.4287,698.7937,976.4775" style="stroke:#181818;stroke-width:1.0;"/><polygon fill="#181818" points="673.1937,1054.0675,679.8122,1046.774,674.7603,1049.3193,672.215,1044.2674,673.1937,1054.0675" style="stroke:#181818;stroke-width:1.0;"/><text fill="#000000" font-family="sans-serif" font-size="13" lengthAdjust="spacing" textLength="165" x="687.4937" y="1020.6226">crossedThresholdInformation</text><text fill="#000000" font-family="sans-serif" font-size="13" lengthAdjust="spacing" textLength="22" x="652.8432" y="1043.2009">0..1</text></g><!--link Alarm to CrossedThresholdInformation--><g id="link_Alarm_CrossedThresholdInformation"><path codeLine="200" d="M411.8288,762.6674 C312.6088,832.2474 204.7337,934.6975 280.4937,1024.1275 C332.9137,1086.0075 383.6737,1028.1075 460.4937,1054.1275 C479.5337,1060.5675 493.5734,1066.2535 512.3234,1075.2435 " fill="none" id="Alarm-CrossedThresholdInformation" style="stroke:#181818;stroke-width:1.0;"/><polygon fill="#181818" points="421.6537,755.7775,414.4446,755.9475,411.8288,762.6674,419.0379,762.4974,421.6537,755.7775" style="stroke:#181818;stroke-width:1.0;"/><polygon fill="#181818" points="517.7337,1077.8375,511.3477,1070.3396,513.2251,1075.6758,507.8889,1077.5533,517.7337,1077.8375" style="stroke:#181818;stroke-width:1.0;"/><text fill="#000000" font-family="sans-serif" font-size="13" lengthAdjust="spacing" textLength="165" x="281.4937" y="1020.6226">crossedThresholdInformation</text><text fill="#000000" font-family="sans-serif" font-size="13" lengthAdjust="spacing" textLength="22" x="487.9429" y="1070.6405">0..1</text></g><!--link CrossedThresholdInformation to ThresholdRef--><g id="link_CrossedThresholdInformation_ThresholdRef"><path codeLine="202" d="M641.4937,1260.6275 C641.4937,1285.9175 641.4937,1295.0375 641.4937,1319.7675 " fill="none" id="CrossedThresholdInformation-ThresholdRef" style="stroke:#181818;stroke-width:1.0;"/><polygon fill="#181818" points="641.4937,1248.6275,637.4937,1254.6275,641.4937,1260.6275,645.4937,1254.6275,641.4937,1248.6275" style="stroke:#181818;stroke-width:1.0;"/><polygon fill="#181818" points="641.4937,1325.7675,645.4937,1316.7675,641.4937,1320.7675,637.4937,1316.7675,641.4937,1325.7675" style="stroke:#181818;stroke-width:1.0;"/><text fill="#000000" font-family="sans-serif" font-size="13" lengthAdjust="spacing" textLength="53" x="642.4937" y="1292.7126">threshold</text><text fill="#000000" font-family="sans-serif" font-size="13" lengthAdjust="spacing" textLength="22" x="618.5827" y="1315.374">0..1</text></g><rect fill="#DDDDDD" height="27.6094" id="_legend" rx="7.5" ry="7.5" style="stroke:#000000;stroke-width:1.0;" width="123" x="653.7468" y="1518.1863"/><a href="index.htm" target="_top" title="index.htm" xlink:actuate="onRequest" xlink:href="index.htm" xlink:show="new" xlink:title="index.htm" xlink:type="simple"><text fill="#0000FF" font-family="sans-serif" font-size="14" lengthAdjust="spacing" text-decoration="underline" textLength="113" x="658.7468" y="1537.7195">Go to API Catalog</text></a></g></svg>