<?xml version="1.0" encoding="UTF-8" standalone="no"?><svg xmlns="http://www.w3.org/2000/svg" xmlns:xlink="http://www.w3.org/1999/xlink" contentScriptType="application/ecmascript" contentStyleType="text/css" height="926px" preserveAspectRatio="none" style="width:658px;height:926px;" version="1.1" viewBox="0 0 658 926" width="658px" zoomAndPan="magnify"><defs><filter height="300%" id="f1ner7cz27dutp" width="300%" x="-1" y="-1"><feGaussianBlur result="blurOut" stdDeviation="2.0"/><feColorMatrix in="blurOut" result="blurOut2" type="matrix" values="0 0 0 0 0 0 0 0 0 0 0 0 0 0 0 0 0 0 .4 0"/><feOffset dx="4.0" dy="4.0" in="blurOut2" result="blurOut3"/><feBlend in="SourceGraphic" in2="blurOut3" mode="normal"/></filter></defs><g><!--class UsageConsumptionReport--><rect fill="#FFFFFF" filter="url(#f1ner7cz27dutp)" height="116.1094" id="UsageConsumptionReport" style="stroke: #A80036; stroke-width: 1.5;" width="155" x="263.5" y="7.89"/><text fill="#000000" font-family="sans-serif" font-size="12" lengthAdjust="spacingAndGlyphs" textLength="149" x="266.5" y="25.347">UsageConsumptionReport</text><line style="stroke: #A80036; stroke-width: 1.5;" x1="264.5" x2="417.5" y1="32.9837" y2="32.9837"/><text fill="#000000" font-family="sans-serif" font-size="11" lengthAdjust="spacingAndGlyphs" textLength="90" x="269.5" y="48.4027">description : String</text><text fill="#000000" font-family="sans-serif" font-size="11" lengthAdjust="spacingAndGlyphs" textLength="118" x="269.5" y="62.2386">effectiveDate : DateTime</text><text fill="#000000" font-family="sans-serif" font-size="11" lengthAdjust="spacingAndGlyphs" textLength="63" x="269.5" y="76.0746">name : String</text><text fill="#000000" font-family="sans-serif" font-size="11" lengthAdjust="spacingAndGlyphs" textLength="96" x="269.5" y="89.9105">@baseType : String</text><text fill="#000000" font-family="sans-serif" font-size="11" lengthAdjust="spacingAndGlyphs" textLength="112" x="269.5" y="103.7464">@schemaLocation : Uri</text><text fill="#000000" font-family="sans-serif" font-size="11" lengthAdjust="spacingAndGlyphs" textLength="69" x="269.5" y="117.5824">@type : String</text><!--class UsageVolumeProduct--><rect fill="#FCF2E3" filter="url(#f1ner7cz27dutp)" height="143.7813" id="UsageVolumeProduct" style="stroke: #A80036; stroke-width: 1.5;" width="127" x="34.5" y="222"/><text fill="#000000" font-family="sans-serif" font-size="12" lengthAdjust="spacingAndGlyphs" textLength="121" x="37.5" y="239.457">UsageVolumeProduct</text><line style="stroke: #A80036; stroke-width: 1.5;" x1="35.5" x2="160.5" y1="247.0938" y2="247.0938"/><text fill="#000000" font-family="sans-serif" font-size="11" lengthAdjust="spacingAndGlyphs" textLength="42" x="40.5" y="262.5127">href : Uri</text><text fill="#000000" font-family="sans-serif" font-size="11" lengthAdjust="spacingAndGlyphs" textLength="45" x="40.5" y="276.3486">id : String</text><text fill="#000000" font-family="sans-serif" font-size="11" lengthAdjust="spacingAndGlyphs" textLength="91" x="40.5" y="290.1846">isShared : Boolean</text><text fill="#000000" font-family="sans-serif" font-size="11" lengthAdjust="spacingAndGlyphs" textLength="63" x="40.5" y="304.0205">name : String</text><text fill="#000000" font-family="sans-serif" font-size="11" lengthAdjust="spacingAndGlyphs" textLength="91" x="40.5" y="317.8564">usageType : String</text><text fill="#000000" font-family="sans-serif" font-size="11" lengthAdjust="spacingAndGlyphs" textLength="96" x="40.5" y="331.6924">@baseType : String</text><text fill="#000000" font-family="sans-serif" font-size="11" lengthAdjust="spacingAndGlyphs" textLength="112" x="40.5" y="345.5283">@schemaLocation : Uri</text><text fill="#000000" font-family="sans-serif" font-size="11" lengthAdjust="spacingAndGlyphs" textLength="69" x="40.5" y="359.3643">@type : String</text><!--class NetworkProduct--><rect fill="#FCF2E3" filter="url(#f1ner7cz27dutp)" height="129.9453" id="NetworkProduct" style="stroke: #A80036; stroke-width: 1.5;" width="124" x="289" y="229"/><text fill="#000000" font-family="sans-serif" font-size="12" lengthAdjust="spacingAndGlyphs" textLength="87" x="307.5" y="246.457">NetworkProduct</text><line style="stroke: #A80036; stroke-width: 1.5;" x1="290" x2="412" y1="254.0938" y2="254.0938"/><text fill="#000000" font-family="sans-serif" font-size="11" lengthAdjust="spacingAndGlyphs" textLength="57" x="295" y="269.5127">href : String</text><text fill="#000000" font-family="sans-serif" font-size="11" lengthAdjust="spacingAndGlyphs" textLength="45" x="295" y="283.3486">id : String</text><text fill="#000000" font-family="sans-serif" font-size="11" lengthAdjust="spacingAndGlyphs" textLength="63" x="295" y="297.1846">name : String</text><text fill="#000000" font-family="sans-serif" font-size="11" lengthAdjust="spacingAndGlyphs" textLength="106" x="295" y="311.0205">publicIdentifier : String</text><text fill="#000000" font-family="sans-serif" font-size="11" lengthAdjust="spacingAndGlyphs" textLength="96" x="295" y="324.8564">@baseType : String</text><text fill="#000000" font-family="sans-serif" font-size="11" lengthAdjust="spacingAndGlyphs" textLength="112" x="295" y="338.6924">@schemaLocation : Uri</text><text fill="#000000" font-family="sans-serif" font-size="11" lengthAdjust="spacingAndGlyphs" textLength="69" x="295" y="352.5283">@type : String</text><!--class RelatedParty--><rect fill="#FCF2E3" filter="url(#f1ner7cz27dutp)" height="143.7813" id="RelatedParty" style="stroke: #A80036; stroke-width: 1.5;" width="124" x="523" y="222"/><text fill="#000000" font-family="sans-serif" font-size="12" lengthAdjust="spacingAndGlyphs" textLength="70" x="550" y="239.457">RelatedParty</text><line style="stroke: #A80036; stroke-width: 1.5;" x1="524" x2="646" y1="247.0938" y2="247.0938"/><text fill="#000000" font-family="sans-serif" font-size="11" lengthAdjust="spacingAndGlyphs" textLength="42" x="529" y="262.5127">href : Uri</text><text fill="#000000" font-family="sans-serif" font-size="11" lengthAdjust="spacingAndGlyphs" textLength="45" x="529" y="276.3486">id : String</text><text fill="#000000" font-family="sans-serif" font-size="11" lengthAdjust="spacingAndGlyphs" textLength="63" x="529" y="290.1846">name : String</text><text fill="#000000" font-family="sans-serif" font-size="11" lengthAdjust="spacingAndGlyphs" textLength="55" x="529" y="304.0205">role : String</text><text fill="#000000" font-family="sans-serif" font-size="11" lengthAdjust="spacingAndGlyphs" textLength="96" x="529" y="317.8564">@baseType : String</text><text fill="#000000" font-family="sans-serif" font-size="11" lengthAdjust="spacingAndGlyphs" textLength="112" x="529" y="331.6924">@referredType : String</text><text fill="#000000" font-family="sans-serif" font-size="11" lengthAdjust="spacingAndGlyphs" textLength="112" x="529" y="345.5283">@schemaLocation : Uri</text><text fill="#000000" font-family="sans-serif" font-size="11" lengthAdjust="spacingAndGlyphs" textLength="69" x="529" y="359.3643">@type : String</text><!--class ConsumptionSummary--><rect fill="#FCF2E3" filter="url(#f1ner7cz27dutp)" height="171.4531" id="ConsumptionSummary" style="stroke: #A80036; stroke-width: 1.5;" width="164" x="266" y="483"/><text fill="#000000" font-family="sans-serif" font-size="12" lengthAdjust="spacingAndGlyphs" textLength="128" x="284" y="500.457">ConsumptionSummary</text><line style="stroke: #A80036; stroke-width: 1.5;" x1="267" x2="429" y1="508.0938" y2="508.0938"/><text fill="#000000" font-family="sans-serif" font-size="11" lengthAdjust="spacingAndGlyphs" textLength="152" x="272" y="523.5127">consumptionPeriod : TimePeriod</text><text fill="#000000" font-family="sans-serif" font-size="11" lengthAdjust="spacingAndGlyphs" textLength="98" x="272" y="537.3486">counterType : String</text><text fill="#000000" font-family="sans-serif" font-size="11" lengthAdjust="spacingAndGlyphs" textLength="42" x="272" y="551.1846">href : Uri</text><text fill="#000000" font-family="sans-serif" font-size="11" lengthAdjust="spacingAndGlyphs" textLength="45" x="272" y="565.0205">id : String</text><text fill="#000000" font-family="sans-serif" font-size="11" lengthAdjust="spacingAndGlyphs" textLength="59" x="272" y="578.8564">level : String</text><text fill="#000000" font-family="sans-serif" font-size="11" lengthAdjust="spacingAndGlyphs" textLength="75" x="272" y="592.6924">value : Quantity</text><text fill="#000000" font-family="sans-serif" font-size="11" lengthAdjust="spacingAndGlyphs" textLength="90" x="272" y="606.5283">valueName : String</text><text fill="#000000" font-family="sans-serif" font-size="11" lengthAdjust="spacingAndGlyphs" textLength="96" x="272" y="620.3643">@baseType : String</text><text fill="#000000" font-family="sans-serif" font-size="11" lengthAdjust="spacingAndGlyphs" textLength="112" x="272" y="634.2002">@schemaLocation : Uri</text><text fill="#000000" font-family="sans-serif" font-size="11" lengthAdjust="spacingAndGlyphs" textLength="69" x="272" y="648.0361">@type : String</text><!--class NetworkProductRef--><rect fill="#FFFFE0" filter="url(#f1ner7cz27dutp)" height="143.7813" id="NetworkProductRef" style="stroke: #A80036; stroke-width: 1.5;" width="124" x="286" y="772"/><a target="_top" xlink:actuate="onRequest" xlink:href="NetworkProduct.svg" xlink:show="new" xlink:title="NetworkProduct.svg" xlink:type="simple"><text fill="#0000FF" font-family="sans-serif" font-size="12" lengthAdjust="spacingAndGlyphs" text-decoration="underline" textLength="87" x="295" y="789.457">NetworkProduct</text><line style="stroke: #0000FF; stroke-width: 1.0;" x1="295" x2="382" y1="791.457" y2="791.457"/></a><text fill="#000000" font-family="sans-serif" font-size="12" lengthAdjust="spacingAndGlyphs" textLength="19" x="382" y="789.457">Ref</text><line style="stroke: #A80036; stroke-width: 1.5;" x1="287" x2="409" y1="797.0938" y2="797.0938"/><text fill="#000000" font-family="sans-serif" font-size="11" lengthAdjust="spacingAndGlyphs" textLength="57" x="292" y="812.5127">href : String</text><text fill="#000000" font-family="sans-serif" font-size="11" lengthAdjust="spacingAndGlyphs" textLength="45" x="292" y="826.3486">id : String</text><text fill="#000000" font-family="sans-serif" font-size="11" lengthAdjust="spacingAndGlyphs" textLength="63" x="292" y="840.1846">name : String</text><text fill="#000000" font-family="sans-serif" font-size="11" lengthAdjust="spacingAndGlyphs" textLength="106" x="292" y="854.0205">publicIdentifier : String</text><text fill="#000000" font-family="sans-serif" font-size="11" lengthAdjust="spacingAndGlyphs" textLength="96" x="292" y="867.8564">@baseType : String</text><text fill="#000000" font-family="sans-serif" font-size="11" lengthAdjust="spacingAndGlyphs" textLength="112" x="292" y="881.6924">@referredType : String</text><text fill="#000000" font-family="sans-serif" font-size="11" lengthAdjust="spacingAndGlyphs" textLength="112" x="292" y="895.5283">@schemaLocation : Uri</text><text fill="#000000" font-family="sans-serif" font-size="11" lengthAdjust="spacingAndGlyphs" textLength="69" x="292" y="909.3643">@type : String</text><!--class UsageVolumeBalance--><rect fill="#FCF2E3" filter="url(#f1ner7cz27dutp)" height="143.7813" id="UsageVolumeBalance" style="stroke: #A80036; stroke-width: 1.5;" width="150" x="30" y="497"/><text fill="#000000" font-family="sans-serif" font-size="12" lengthAdjust="spacingAndGlyphs" textLength="124" x="43" y="514.457">UsageVolumeBalance</text><line style="stroke: #A80036; stroke-width: 1.5;" x1="31" x2="179" y1="522.0938" y2="522.0938"/><text fill="#000000" font-family="sans-serif" font-size="11" lengthAdjust="spacingAndGlyphs" textLength="42" x="36" y="537.5127">href : Uri</text><text fill="#000000" font-family="sans-serif" font-size="11" lengthAdjust="spacingAndGlyphs" textLength="45" x="36" y="551.3486">id : String</text><text fill="#000000" font-family="sans-serif" font-size="11" lengthAdjust="spacingAndGlyphs" textLength="123" x="36" y="565.1846">remainingValue : Quantity</text><text fill="#000000" font-family="sans-serif" font-size="11" lengthAdjust="spacingAndGlyphs" textLength="138" x="36" y="579.0205">remainingValueName : String</text><text fill="#000000" font-family="sans-serif" font-size="11" lengthAdjust="spacingAndGlyphs" textLength="99" x="36" y="592.8564">validFor : TimePeriod</text><text fill="#000000" font-family="sans-serif" font-size="11" lengthAdjust="spacingAndGlyphs" textLength="96" x="36" y="606.6924">@baseType : String</text><text fill="#000000" font-family="sans-serif" font-size="11" lengthAdjust="spacingAndGlyphs" textLength="112" x="36" y="620.5283">@schemaLocation : Uri</text><text fill="#000000" font-family="sans-serif" font-size="11" lengthAdjust="spacingAndGlyphs" textLength="69" x="36" y="634.3643">@type : String</text><!--link UsageConsumptionReport to RelatedParty--><path d="M413.81,134.25 C445.15,163.22 481.69,197 512.95,225.9 " fill="none" id="UsageConsumptionReport-RelatedParty" style="stroke: #A80036; stroke-width: 1.0;"/><polygon fill="#A80036" points="522.22,234.47,518.3227,225.4251,518.547,231.0775,512.8946,231.3018,522.22,234.47" style="stroke: #A80036; stroke-width: 1.0;"/><line style="stroke: #A80036; stroke-width: 1.0;" x1="518.547" x2="512.675" y1="231.0775" y2="225.64"/><polygon fill="#A80036" points="404.31,125.47,405.9979,132.4808,413.1185,133.6192,411.4307,126.6084,404.31,125.47" style="stroke: #A80036; stroke-width: 1.0;"/><text fill="#000000" font-family="sans-serif" font-size="13" lengthAdjust="spacingAndGlyphs" textLength="70" x="449" y="168.4951">relatedParty</text><text fill="#000000" font-family="sans-serif" font-size="13" lengthAdjust="spacingAndGlyphs" textLength="22" x="492.9275" y="225.339">0..1</text><!--link UsageConsumptionReport to UsageVolumeProduct--><path d="M268.66,134.09 C237.94,162.61 202.18,195.8 171.35,224.41 " fill="none" id="UsageConsumptionReport-UsageVolumeProduct" style="stroke: #A80036; stroke-width: 1.0;"/><polygon fill="#A80036" points="162.21,232.9,171.5279,229.7098,165.8749,229.4988,166.0859,223.8459,162.21,232.9" style="stroke: #A80036; stroke-width: 1.0;"/><line style="stroke: #A80036; stroke-width: 1.0;" x1="165.8749" x2="171.745" y1="229.4988" y2="224.055"/><polygon fill="#A80036" points="277.94,125.48,270.8211,126.6295,269.1441,133.6429,276.263,132.4934,277.94,125.48" style="stroke: #A80036; stroke-width: 1.0;"/><text fill="#000000" font-family="sans-serif" font-size="13" lengthAdjust="spacingAndGlyphs" textLength="39" x="242" y="168.4951">bucket</text><text fill="#000000" font-family="sans-serif" font-size="13" lengthAdjust="spacingAndGlyphs" textLength="20" x="169.5522" y="223.5875">0..*</text><!--link UsageVolumeProduct to NetworkProduct--><path d="M161.5,279.39 C188.04,274.98 219.36,271.88 247.75,274.5 C257.55,275.4 267.81,276.78 277.89,278.39 " fill="none" id="UsageVolumeProduct-NetworkProduct" style="stroke: #A80036; stroke-width: 1.0;"/><polygon fill="#A80036" points="287.67,280.05,279.4638,274.6041,282.7401,279.2155,278.1287,282.4919,287.67,280.05" style="stroke: #A80036; stroke-width: 1.0;"/><line style="stroke: #A80036; stroke-width: 1.0;" x1="282.7401" x2="274.85" y1="279.2155" y2="277.88"/><polygon fill="#A80036" points="202.75,256.5,201.2644,263.5564,207.2067,267.6417,208.6923,260.5853,202.75,256.5" style="stroke: #A80036; stroke-width: 1.0;"/><text fill="#000000" font-family="sans-serif" font-size="13" lengthAdjust="spacingAndGlyphs" textLength="43" x="203.75" y="270.9951">product</text><text fill="#000000" font-family="sans-serif" font-size="13" lengthAdjust="spacingAndGlyphs" textLength="20" x="260.8535" y="275.3095">0..*</text><!--link NetworkProduct to RelatedParty--><path d="M412.99,280.3 C426.59,277.89 440.98,275.74 454.5,274.5 C473.23,272.78 493.39,274.16 512.1,276.81 " fill="none" id="NetworkProduct-RelatedParty" style="stroke: #A80036; stroke-width: 1.0;"/><polygon fill="#A80036" points="521.73,278.32,513.4585,272.9738,516.7904,277.5453,512.2189,280.8772,521.73,278.32" style="stroke: #A80036; stroke-width: 1.0;"/><line style="stroke: #A80036; stroke-width: 1.0;" x1="516.7904" x2="508.885" y1="277.5453" y2="276.305"/><polygon fill="#A80036" points="454.5,256.5,454.5,263.7111,461.1564,266.4846,461.1564,259.2735,454.5,256.5" style="stroke: #A80036; stroke-width: 1.0;"/><text fill="#000000" font-family="sans-serif" font-size="13" lengthAdjust="spacingAndGlyphs" textLength="25" x="455.5" y="270.9951">user</text><text fill="#000000" font-family="sans-serif" font-size="13" lengthAdjust="spacingAndGlyphs" textLength="20" x="494.9204" y="273.3778">0..*</text><!--link UsageVolumeProduct to ConsumptionSummary--><path d="M170.96,374.17 C199.26,405.07 231.89,440.71 261.37,472.9 " fill="none" id="UsageVolumeProduct-ConsumptionSummary" style="stroke: #A80036; stroke-width: 1.0;"/><polygon fill="#A80036" points="269.8,482.1,266.6677,472.7625,266.4216,478.414,260.7701,478.1679,269.8,482.1" style="stroke: #A80036; stroke-width: 1.0;"/><line style="stroke: #A80036; stroke-width: 1.0;" x1="266.4216" x2="261.015" y1="478.414" y2="472.515"/><polygon fill="#A80036" points="162.43,364.86,163.5353,371.9859,170.5381,373.7064,169.4328,366.5805,162.43,364.86" style="stroke: #A80036; stroke-width: 1.0;"/><text fill="#000000" font-family="sans-serif" font-size="13" lengthAdjust="spacingAndGlyphs" textLength="84" x="224" y="429.4951">bucketCounter</text><text fill="#000000" font-family="sans-serif" font-size="13" lengthAdjust="spacingAndGlyphs" textLength="20" x="242.7831" y="472.1112">0..*</text><!--link RelatedParty to ConsumptionSummary--><path d="M522.73,376.24 C507.76,395.16 491.58,415.01 476,433 C464.4,446.4 451.87,460.25 439.36,473.73 " fill="none" id="RelatedParty-ConsumptionSummary" style="stroke: #A80036; stroke-width: 1.0;"/><polygon fill="#A80036" points="430.84,482.85,437.8586,481.1948,439.0302,474.0795,432.0116,475.7347,430.84,482.85" style="stroke: #A80036; stroke-width: 1.0;"/><polygon fill="#A80036" points="530.7,366.12,521.9895,370.7164,527.6068,370.0483,528.2749,375.6656,530.7,366.12" style="stroke: #A80036; stroke-width: 1.0;"/><line style="stroke: #A80036; stroke-width: 1.0;" x1="527.6068" x2="522.665" y1="370.0483" y2="376.335"/><text fill="#000000" font-family="sans-serif" font-size="13" lengthAdjust="spacingAndGlyphs" textLength="25" x="489" y="429.4951">user</text><text fill="#000000" font-family="sans-serif" font-size="13" lengthAdjust="spacingAndGlyphs" textLength="22" x="493.1478" y="378.624">0..1</text><!--link NetworkProduct to ConsumptionSummary--><path d="M350.15,372.24 C349.82,402.25 349.43,436.96 349.09,468.71 " fill="none" id="NetworkProduct-ConsumptionSummary" style="stroke: #A80036; stroke-width: 1.0;"/><polygon fill="#A80036" points="348.94,481.55,353.0387,472.5945,348.9949,476.5503,345.0391,472.5066,348.94,481.55" style="stroke: #A80036; stroke-width: 1.0;"/><line style="stroke: #A80036; stroke-width: 1.0;" x1="348.9949" x2="349.09" y1="476.5503" y2="468.55"/><polygon fill="#A80036" points="350.29,359.33,346.2243,365.2857,350.1581,371.3293,354.2238,365.3736,350.29,359.33" style="stroke: #A80036; stroke-width: 1.0;"/><text fill="#000000" font-family="sans-serif" font-size="13" lengthAdjust="spacingAndGlyphs" textLength="117" x="350" y="429.4951">outOfBucketCounter</text><text fill="#000000" font-family="sans-serif" font-size="13" lengthAdjust="spacingAndGlyphs" textLength="20" x="328.1222" y="472.2286">0..*</text><!--link UsageVolumeProduct to UsageVolumeBalance--><path d="M95.62,379.36 C95.36,391.32 95.14,403.47 95,415 C94.9,423 94.7,425.01 95,433 C95.6,449.11 96.6,466.28 97.74,482.77 " fill="none" id="UsageVolumeProduct-UsageVolumeBalance" style="stroke: #A80036; stroke-width: 1.0;"/><polygon fill="#A80036" points="98.66,495.54,101.9963,486.2734,98.2971,490.5532,94.0174,486.854,98.66,495.54" style="stroke: #A80036; stroke-width: 1.0;"/><line style="stroke: #A80036; stroke-width: 1.0;" x1="98.2971" x2="97.725" y1="490.5532" y2="482.58"/><polygon fill="#A80036" points="95.92,366.42,91.7826,372.3261,95.6432,378.4168,99.7805,372.5107,95.92,366.42" style="stroke: #A80036; stroke-width: 1.0;"/><text fill="#000000" font-family="sans-serif" font-size="13" lengthAdjust="spacingAndGlyphs" textLength="86" x="96" y="429.4951">bucketBalance</text><text fill="#000000" font-family="sans-serif" font-size="13" lengthAdjust="spacingAndGlyphs" textLength="20" x="77.0963" y="486.3297">0..*</text><!--link UsageVolumeBalance to ConsumptionSummary--><!--link ConsumptionSummary to NetworkProductRef--><path d="M348,667.72 C348,697.35 348,729.6 348,758.23 " fill="none" id="ConsumptionSummary-NetworkProductRef" style="stroke: #A80036; stroke-width: 1.0;"/><polygon fill="#A80036" points="348,770.89,352,761.89,348,765.89,344,761.89,348,770.89" style="stroke: #A80036; stroke-width: 1.0;"/><line style="stroke: #A80036; stroke-width: 1.0;" x1="348" x2="348" y1="765.89" y2="757.89"/><polygon fill="#A80036" points="348,655.15,344,661.15,348,667.15,352,661.15,348,655.15" style="stroke: #A80036; stroke-width: 1.0;"/><text fill="#000000" font-family="sans-serif" font-size="13" lengthAdjust="spacingAndGlyphs" textLength="43" x="349" y="718.4951">product</text><text fill="#000000" font-family="sans-serif" font-size="13" lengthAdjust="spacingAndGlyphs" textLength="22" x="324.7969" y="761.2311">0..1</text></g></svg>